<?xml version="1.0" encoding="iso-8859-1"?>
<!-- Generator: Adobe Illustrator 16.2.0, SVG Export Plug-In . SVG Version: 6.00 Build 0)  -->
<!DOCTYPE svg PUBLIC "-//W3C//DTD SVG 1.1//EN" "http://www.w3.org/Graphics/SVG/1.1/DTD/svg11.dtd">
<svg version="1.1" xmlns="http://www.w3.org/2000/svg" xmlns:xlink="http://www.w3.org/1999/xlink" x="0px" y="0px" width="1024px"
	 height="768px" viewBox="0 0 1024 768" style="enable-background:new 0 0 1024 768;" xml:space="preserve">
<g id="jfx:p00">
	<image style="overflow:visible;" width="1024" height="768" xlink:href="7C21252A.jpg" >
	</image>
</g>
<g id="jfx:p01">
	<g>
		<path style="fill:#FFFFFF;" d="M39.047,63.495c4.7-0.8,11.3-1.4,20.601-1.4c9.4,0,16.101,1.8,20.601,5.4
			c4.3,3.4,7.201,9,7.201,15.601s-2.2,12.201-6.201,16.001c-5.2,4.9-12.9,7.101-21.901,7.101c-2,0-3.8-0.1-5.201-0.3v24.102H39.047
			V63.495z M54.148,94.097c1.3,0.3,2.9,0.4,5.101,0.4c8.101,0,13.101-4.101,13.101-11.001c0-6.2-4.3-9.9-11.9-9.9
			c-3.101,0-5.201,0.3-6.301,0.6V94.097z"/>
		<path style="fill:#FFFFFF;" d="M96.647,97.197c0-7.201-0.2-11.901-0.4-16.101h13.101l0.5,9h0.4
			c2.5-7.101,8.5-10.101,13.201-10.101c1.4,0,2.1,0,3.2,0.2v14.301c-1.1-0.2-2.4-0.4-4.1-0.4c-5.601,0-9.4,3-10.4,7.701
			c-0.2,1-0.3,2.2-0.3,3.4v24.802H96.647V97.197z"/>
		<path style="fill:#FFFFFF;" d="M182.949,104.998c0,17.901-12.701,26.102-25.802,26.102c-14.301,0-25.301-9.4-25.301-25.202
			c0-15.801,10.4-25.901,26.102-25.901C172.948,79.996,182.949,90.296,182.949,104.998z M147.546,105.498
			c0,8.4,3.5,14.701,10.001,14.701c5.9,0,9.7-5.9,9.7-14.701c0-7.3-2.8-14.701-9.7-14.701
			C150.247,90.797,147.546,98.297,147.546,105.498z"/>
		<path style="fill:#FFFFFF;" d="M182.245,139c4-0.3,7.101-1.2,9.001-3.2c2.2-2.3,3-6.2,3-15.901V81.096h15.301v42.402
			c0,10.701-2.4,17.201-6.9,21.401c-4.5,4.2-11.601,6-18.901,6L182.245,139z M209.947,67.495c0,4.2-3.101,7.601-8.201,7.601
			c-4.8,0-7.9-3.4-7.9-7.601c0-4.4,3.1-7.7,8.101-7.7C206.846,59.795,209.847,63.095,209.947,67.495z"/>
		<path style="fill:#FFFFFF;" d="M233.145,110.398c0.5,6.3,6.7,9.3,13.801,9.3c5.2,0,9.4-0.7,13.5-2l2,10.301
			c-5,2-11.101,3-17.701,3c-16.601,0-26.102-9.601-26.102-24.901c0-12.401,7.7-26.102,24.701-26.102
			c15.801,0,21.802,12.301,21.802,24.401c0,2.6-0.3,4.9-0.5,6H233.145z M251.046,99.997c0-3.7-1.6-9.9-8.601-9.9
			c-6.4,0-9,5.8-9.4,9.9H251.046z"/>
		<path style="fill:#FFFFFF;" d="M310.946,128.799c-2.7,1.2-7.801,2.2-13.601,2.2c-15.801,0-25.901-9.601-25.901-25.001
			c0-14.301,9.8-26.001,28.001-26.001c4,0,8.401,0.7,11.601,1.9l-2.4,11.301c-1.8-0.8-4.5-1.5-8.5-1.5
			c-8,0-13.201,5.7-13.101,13.701c0,9,6,13.701,13.4,13.701c3.601,0,6.4-0.6,8.701-1.5L310.946,128.799z"/>
		<path style="fill:#FFFFFF;" d="M336.344,67.095v14.001h10.9v11.201h-10.9v17.701c0,5.9,1.4,8.6,6,8.6c1.9,0,3.4-0.2,4.5-0.4
			l0.1,11.501c-2,0.8-5.601,1.3-9.901,1.3c-4.9,0-9-1.7-11.4-4.2c-2.8-2.9-4.2-7.601-4.2-14.501V92.297h-6.5V81.096h6.5V70.496
			L336.344,67.095z"/>
		<path style="fill:#FFFFFF;" d="M376.742,62.595h15.301v54.604h26.802v12.801h-42.103V62.595z"/>
		<path style="fill:#FFFFFF;" d="M455.142,129.999l-0.9-4.9h-0.3c-3.2,3.9-8.2,6-14.001,6c-9.9,0-15.801-7.201-15.801-15.001
			c0-12.701,11.4-18.801,28.701-18.701v-0.7c0-2.6-1.399-6.3-8.9-6.3c-5,0-10.301,1.7-13.501,3.7l-2.8-9.8
			c3.4-1.9,10.101-4.3,19.001-4.3c16.301,0,21.502,9.601,21.502,21.101v17.001c0,4.701,0.199,9.201,0.699,11.901H455.142z
			 M453.341,106.897c-8-0.1-14.2,1.8-14.2,7.701c0,3.9,2.6,5.8,6,5.8c3.801,0,6.9-2.5,7.9-5.601c0.2-0.8,0.3-1.7,0.3-2.6V106.897z"
			/>
		<path style="fill:#FFFFFF;" d="M480.14,96.697c0-6.1-0.2-11.3-0.4-15.601h12.801l0.7,6.6h0.3c2.101-3.1,6.4-7.7,14.801-7.7
			c6.301,0,11.301,3.2,13.401,8.3h0.201c1.799-2.5,4-4.5,6.299-5.9c2.701-1.6,5.701-2.4,9.301-2.4c9.4,0,16.502,6.6,16.502,21.201
			v28.802h-14.801v-26.602c0-7.101-2.301-11.201-7.201-11.201c-3.5,0-6,2.4-7,5.3c-0.4,1.1-0.6,2.7-0.6,3.9v28.602h-14.801v-27.402
			c0-6.2-2.2-10.4-7.001-10.4c-3.9,0-6.2,3-7.101,5.5c-0.5,1.2-0.6,2.6-0.6,3.8v28.502H480.14V96.697z"/>
		<path style="fill:#FFFFFF;" d="M565.738,129.999c0.201-3.2,0.4-9.101,0.4-14.601V58.995h15.201v27.902h0.199
			c2.9-4.2,8.002-6.9,14.801-6.9c11.701,0,20.303,9.701,20.203,24.701c0,17.601-11.201,26.402-22.402,26.402
			c-5.701,0-11.201-2.1-14.701-7.9h-0.199l-0.6,6.8H565.738z M581.34,109.198c0,1,0.1,1.9,0.301,2.7c1,4.1,4.5,7.2,8.9,7.2
			c6.5,0,10.5-5,10.5-13.801c0-7.6-3.4-13.601-10.5-13.601c-4.102,0-7.9,3.1-8.9,7.5c-0.201,0.9-0.301,1.8-0.301,2.8V109.198z"/>
		<path style="fill:#FFFFFF;" d="M673.34,58.995v56.403c0,5.5,0.201,11.301,0.4,14.601h-13.5l-0.701-7.2h-0.199
			c-3.1,5.5-9,8.3-15.301,8.3c-11.602,0-20.902-9.901-20.902-25.102c-0.1-16.501,10.201-26.001,21.902-26.001
			c6,0,10.701,2.1,12.9,5.5h0.201V58.995H673.34z M658.141,101.797c0-0.8-0.102-1.9-0.201-2.7c-0.9-4.1-4.199-7.5-8.9-7.5
			c-6.9,0-10.5,6.2-10.5,13.901c0,8.3,4.1,13.501,10.4,13.501c4.4,0,7.9-3,8.801-7.301c0.299-1.1,0.4-2.2,0.4-3.5V101.797z"/>
		<path style="fill:#FFFFFF;" d="M713.34,129.999l-0.9-4.9h-0.301c-3.199,3.9-8.199,6-14,6c-9.9,0-15.801-7.201-15.801-15.001
			c0-12.701,11.4-18.801,28.701-18.701v-0.7c0-2.6-1.4-6.3-8.9-6.3c-5,0-10.301,1.7-13.502,3.7l-2.799-9.8c3.4-1.9,10.1-4.3,19-4.3
			c16.301,0,21.502,9.601,21.502,21.101v17.001c0,4.701,0.199,9.201,0.699,11.901H713.34z M711.539,106.897
			c-8-0.1-14.201,1.8-14.201,7.701c0,3.9,2.6,5.8,6,5.8c3.801,0,6.9-2.5,7.9-5.601c0.201-0.8,0.301-1.7,0.301-2.6V106.897z"/>
	</g>
	<g>
		<path style="fill:#FFFFFF;" d="M759.93,680.076c1.92-0.384,5.809-0.672,9.457-0.672c4.465,0,7.201,0.432,9.553,1.824
			c2.256,1.2,3.889,3.408,3.889,6.336c0,2.881-1.68,5.568-5.328,6.913v0.097c3.695,1.008,6.432,3.791,6.432,7.968
			c0,2.929-1.344,5.232-3.359,6.864c-2.353,1.873-6.289,2.929-12.722,2.929c-3.601,0-6.288-0.239-7.921-0.479V680.076z
			 M767.179,692.461h2.399c3.841,0,5.905-1.584,5.905-3.984c0-2.447-1.872-3.744-5.185-3.744c-1.584,0-2.496,0.096-3.12,0.192
			V692.461z M767.179,706.814c0.72,0.096,1.584,0.096,2.832,0.096c3.313,0,6.241-1.248,6.241-4.656c0-3.264-2.929-4.561-6.577-4.561
			h-2.496V706.814z"/>
		<path style="fill:#FFFFFF;" d="M788.682,696.254c0-3.457-0.097-5.713-0.192-7.729h6.288l0.24,4.32h0.192
			c1.2-3.408,4.08-4.849,6.337-4.849c0.672,0,1.008,0,1.535,0.096v6.864c-0.527-0.096-1.152-0.191-1.968-0.191
			c-2.688,0-4.513,1.439-4.992,3.696c-0.097,0.479-0.144,1.056-0.144,1.632v11.905h-7.297V696.254z"/>
		<path style="fill:#FFFFFF;" d="M814.457,681.996c0,2.017-1.536,3.648-3.937,3.648c-2.304,0-3.84-1.632-3.792-3.648
			c-0.048-2.111,1.488-3.695,3.84-3.695C812.921,678.301,814.409,679.885,814.457,681.996z M806.92,711.999v-23.474h7.297v23.474
			H806.92z"/>
		<path style="fill:#FFFFFF;" d="M833.417,711.999l-0.433-2.353h-0.144c-1.536,1.873-3.937,2.881-6.721,2.881
			c-4.752,0-7.585-3.457-7.585-7.201c0-6.096,5.473-9.024,13.777-8.977v-0.336c0-1.248-0.672-3.024-4.271-3.024
			c-2.4,0-4.945,0.816-6.48,1.776l-1.345-4.705c1.632-0.912,4.849-2.063,9.12-2.063c7.825,0,10.322,4.608,10.322,10.129v8.161
			c0,2.256,0.096,4.416,0.336,5.712H833.417z M832.553,700.91c-3.84-0.048-6.816,0.863-6.816,3.696c0,1.872,1.248,2.784,2.881,2.784
			c1.824,0,3.312-1.2,3.791-2.688c0.097-0.384,0.145-0.815,0.145-1.248V700.91z"/>
		<path style="fill:#FFFFFF;" d="M845.416,696.014c0-2.928-0.097-5.424-0.192-7.488h6.337l0.336,3.216h0.144
			c0.96-1.488,3.36-3.744,7.249-3.744c4.801,0,8.4,3.168,8.4,10.081v13.921h-7.297V698.99c0-3.024-1.056-5.089-3.696-5.089
			c-2.017,0-3.216,1.392-3.696,2.736c-0.191,0.433-0.287,1.152-0.287,1.824v13.537h-7.297V696.014z"/>
		<path style="fill:#FFFFFF;" d="M910.506,710.511c-2.256,0.769-6.529,1.824-10.801,1.824c-5.904,0-10.178-1.488-13.153-4.368
			c-2.977-2.784-4.608-7.009-4.561-11.762c0.048-10.752,7.872-16.896,18.481-16.896c4.176,0,7.393,0.815,8.977,1.584l-1.535,5.856
			c-1.777-0.769-3.984-1.392-7.537-1.392c-6.097,0-10.705,3.455-10.705,10.465c0,6.672,4.176,10.608,10.177,10.608
			c1.681,0,3.024-0.192,3.601-0.479v-6.77h-4.992v-5.713h12.049V710.511z"/>
		<path style="fill:#FFFFFF;" d="M939.161,699.998c0,8.593-6.097,12.529-12.386,12.529c-6.863,0-12.145-4.513-12.145-12.098
			c0-7.584,4.992-12.433,12.529-12.433C934.361,687.997,939.161,692.941,939.161,699.998z M922.168,700.238
			c0,4.032,1.68,7.057,4.801,7.057c2.832,0,4.656-2.832,4.656-7.057c0-3.504-1.345-7.057-4.656-7.057
			C923.464,693.182,922.168,696.781,922.168,700.238z"/>
		<path style="fill:#FFFFFF;" d="M949.287,702.59c0.24,3.024,3.217,4.465,6.625,4.465c2.496,0,4.512-0.336,6.48-0.96l0.96,4.944
			c-2.399,0.96-5.328,1.439-8.497,1.439c-7.969,0-12.529-4.607-12.529-11.953c0-5.951,3.697-12.528,11.857-12.528
			c7.585,0,10.465,5.904,10.465,11.713c0,1.248-0.144,2.353-0.24,2.88H949.287z M957.881,697.598c0-1.775-0.769-4.752-4.129-4.752
			c-3.072,0-4.32,2.783-4.513,4.752H957.881z"/>
		<path style="fill:#FFFFFF;" d="M977.176,681.805v6.721h5.232v5.376h-5.232v8.497c0,2.832,0.672,4.128,2.881,4.128
			c0.912,0,1.632-0.096,2.16-0.192l0.047,5.521c-0.959,0.384-2.688,0.623-4.752,0.623c-2.352,0-4.32-0.815-5.473-2.016
			c-1.344-1.393-2.016-3.648-2.016-6.961v-9.601h-3.121v-5.376h3.121v-5.089L977.176,681.805z"/>
		<path style="fill:#FFFFFF;" d="M984.758,707.822l7.393-9.265c1.345-1.584,2.4-2.735,3.744-4.177v-0.096h-10.32v-5.76h19.201v4.368
			l-7.057,8.88c-1.295,1.537-2.496,3.025-3.84,4.321v0.096h11.281v5.809h-20.402V707.822z"/>
	</g>
</g>
<g id="jfx:p02">
	<g>
		<path style="fill:#FFFFFF;" d="M193.785,200.438c3.2-0.64,9.68-1.12,15.76-1.12c7.44,0,12,0.72,15.92,3.04
			c3.76,2,6.48,5.68,6.48,10.561c0,4.8-2.8,9.28-8.88,11.52v0.16c6.16,1.68,10.721,6.32,10.721,13.28c0,4.88-2.24,8.72-5.601,11.44
			c-3.92,3.12-10.48,4.88-21.2,4.88c-6,0-10.48-0.4-13.2-0.8V200.438z M205.865,221.078h4c6.4,0,9.84-2.64,9.84-6.64
			c0-4.08-3.12-6.24-8.64-6.24c-2.64,0-4.16,0.16-5.2,0.32V221.078z M205.865,244.999c1.2,0.16,2.64,0.16,4.72,0.16
			c5.52,0,10.4-2.08,10.4-7.76c0-5.44-4.88-7.6-10.96-7.6h-4.16V244.999z"/>
		<path style="fill:#FFFFFF;" d="M263.944,253.639l-0.72-3.92h-0.24c-2.56,3.12-6.56,4.8-11.2,4.8c-7.92,0-12.641-5.76-12.641-12
			c0-10.16,9.121-15.041,22.961-14.96v-0.56c0-2.08-1.12-5.04-7.12-5.04c-4,0-8.24,1.36-10.8,2.96l-2.24-7.84
			c2.72-1.52,8.08-3.44,15.2-3.44c13.041,0,17.201,7.68,17.201,16.88v13.601c0,3.76,0.16,7.36,0.56,9.52H263.944z M262.504,235.158
			c-6.4-0.08-11.36,1.44-11.36,6.16c0,3.12,2.08,4.64,4.8,4.64c3.04,0,5.52-2,6.32-4.48c0.16-0.64,0.24-1.36,0.24-2.08V235.158z"/>
		<path style="fill:#FFFFFF;" d="M313.305,252.679c-2.16,0.96-6.24,1.76-10.88,1.76c-12.64,0-20.72-7.68-20.72-20
			c0-11.44,7.84-20.801,22.4-20.801c3.2,0,6.72,0.56,9.28,1.52l-1.92,9.041c-1.44-0.64-3.6-1.2-6.8-1.2
			c-6.4,0-10.56,4.56-10.48,10.96c0,7.2,4.8,10.96,10.721,10.96c2.88,0,5.12-0.48,6.96-1.2L313.305,252.679z"/>
		<path style="fill:#FFFFFF;" d="M332.184,230.998h0.16c0.88-1.6,1.84-3.2,2.8-4.72l7.92-11.76h14.641l-14,15.84l16,23.281h-14.96
			l-9.44-16.081l-3.12,3.84v12.24h-12.161v-56.801h12.161V230.998z"/>
		<path style="fill:#FFFFFF;" d="M400.744,214.518c-0.16,2.48-0.32,5.76-0.32,11.601v21.84c0,7.52-1.52,13.68-5.92,17.601
			c-4.32,3.68-10.16,4.8-15.92,4.8c-5.12,0-10.561-1.04-14.081-3.04l2.4-9.2c2.48,1.44,6.8,2.96,11.36,2.96
			c5.76,0,10.161-3.12,10.161-10.32v-2.56h-0.16c-2.32,3.28-6.08,5.12-10.561,5.12c-9.68,0-16.56-7.84-16.56-19.121
			c0-12.561,8.16-20.561,17.76-20.561c5.36,0,8.72,2.32,10.72,5.52h0.16l0.4-4.64H400.744z M388.263,230.438
			c0-0.8-0.08-1.6-0.24-2.24c-0.88-3.2-3.2-5.36-6.56-5.36c-4.4,0-8,4-8,11.12c0,5.84,2.88,10.4,8,10.4c3.12,0,5.6-2.08,6.4-4.96
			c0.32-0.88,0.4-2.16,0.4-3.2V230.438z"/>
		<path style="fill:#FFFFFF;" d="M410.182,227.398c0-5.76-0.16-9.52-0.32-12.88h10.48l0.4,7.2h0.32c2-5.68,6.8-8.08,10.561-8.08
			c1.12,0,1.68,0,2.56,0.16v11.44c-0.88-0.16-1.92-0.32-3.28-0.32c-4.48,0-7.52,2.4-8.32,6.16c-0.16,0.8-0.24,1.76-0.24,2.72v19.84
			h-12.161V227.398z"/>
		<path style="fill:#FFFFFF;" d="M479.222,233.638c0,14.32-10.16,20.88-20.641,20.88c-11.44,0-20.24-7.52-20.24-20.16
			c0-12.641,8.32-20.721,20.88-20.721C471.222,213.638,479.222,221.878,479.222,233.638z M450.901,234.038c0,6.72,2.8,11.76,8,11.76
			c4.72,0,7.76-4.72,7.76-11.76c0-5.84-2.24-11.76-7.76-11.76C453.061,222.278,450.901,228.278,450.901,234.038z"/>
		<path style="fill:#FFFFFF;" d="M523.621,241.079c0,5.12,0.16,9.28,0.32,12.56h-10.561l-0.56-5.52h-0.24
			c-1.52,2.4-5.2,6.4-12.24,6.4c-7.92,0-13.76-4.96-13.76-17.04v-22.961h12.24v21.041c0,5.68,1.84,9.121,6.08,9.121
			c3.36,0,5.28-2.32,6.08-4.24c0.32-0.72,0.4-1.68,0.4-2.64v-23.281h12.24V241.079z"/>
		<path style="fill:#FFFFFF;" d="M571.301,196.837v45.121c0,4.4,0.16,9.04,0.32,11.68H560.82l-0.561-5.76h-0.16
			c-2.479,4.4-7.199,6.64-12.24,6.64c-9.279,0-16.72-7.92-16.72-20.08c-0.08-13.201,8.16-20.801,17.521-20.801
			c4.8,0,8.561,1.68,10.32,4.4h0.16v-21.201H571.301z M559.141,231.078c0-0.64-0.08-1.52-0.16-2.16c-0.721-3.28-3.36-6-7.121-6
			c-5.52,0-8.399,4.96-8.399,11.12c0,6.64,3.28,10.8,8.32,10.8c3.521,0,6.319-2.4,7.04-5.84c0.24-0.88,0.32-1.76,0.32-2.8V231.078z"
			/>
	</g>
</g>
<g id="jfx:p03">
	<g>
		<path style="fill:#FFFFFF;" d="M112.185,323.357h12.24v43.681h21.44v10.24h-33.681V323.357z"/>
		<path style="fill:#FFFFFF;" d="M174.904,377.278l-0.72-3.92h-0.24c-2.56,3.12-6.56,4.8-11.2,4.8c-7.92,0-12.641-5.76-12.641-12
			c0-10.16,9.121-15.041,22.961-14.96v-0.56c0-2.08-1.12-5.04-7.12-5.04c-4,0-8.24,1.36-10.8,2.96l-2.24-7.84
			c2.72-1.52,8.08-3.44,15.2-3.44c13.041,0,17.201,7.68,17.201,16.88v13.601c0,3.76,0.16,7.36,0.56,9.52H174.904z M173.464,358.798
			c-6.4-0.08-11.36,1.44-11.36,6.16c0,3.12,2.08,4.64,4.8,4.64c3.04,0,5.52-2,6.32-4.48c0.16-0.64,0.24-1.36,0.24-2.08V358.798z"/>
		<path style="fill:#FFFFFF;" d="M194.903,350.638c0-4.88-0.16-9.04-0.32-12.48h10.24l0.56,5.28h0.24
			c1.68-2.48,5.12-6.16,11.84-6.16c5.041,0,9.041,2.56,10.72,6.64h0.16c1.44-2,3.2-3.6,5.04-4.72c2.16-1.28,4.56-1.92,7.44-1.92
			c7.52,0,13.2,5.28,13.2,16.96v23.041h-11.84v-21.28c0-5.68-1.84-8.96-5.76-8.96c-2.8,0-4.8,1.92-5.6,4.24
			c-0.32,0.88-0.48,2.16-0.48,3.12v22.88h-11.84v-21.92c0-4.96-1.76-8.32-5.6-8.32c-3.12,0-4.96,2.4-5.68,4.4
			c-0.4,0.96-0.48,2.08-0.48,3.041v22.8h-11.84V350.638z"/>
		<path style="fill:#FFFFFF;" d="M263.382,377.278c0.16-2.56,0.32-7.28,0.32-11.68v-45.121h12.161v22.32h0.16
			c2.32-3.36,6.4-5.52,11.84-5.52c9.36,0,16.241,7.76,16.161,19.761c0,14.08-8.96,21.12-17.92,21.12c-4.56,0-8.96-1.68-11.76-6.32
			h-0.16l-0.48,5.44H263.382z M275.863,360.638c0,0.8,0.08,1.521,0.24,2.16c0.8,3.28,3.6,5.76,7.12,5.76c5.2,0,8.4-4,8.4-11.04
			c0-6.081-2.72-10.88-8.4-10.88c-3.28,0-6.32,2.48-7.12,6c-0.16,0.72-0.24,1.44-0.24,2.24V360.638z"/>
		<path style="fill:#FFFFFF;" d="M349.462,320.477v45.121c0,4.4,0.16,9.04,0.32,11.68h-10.8l-0.56-5.76h-0.16
			c-2.48,4.4-7.2,6.64-12.24,6.64c-9.28,0-16.72-7.92-16.72-20.08c-0.08-13.201,8.16-20.801,17.521-20.801
			c4.8,0,8.56,1.68,10.32,4.4h0.16v-21.201H349.462z M337.302,354.718c0-0.64-0.08-1.52-0.16-2.16c-0.72-3.28-3.36-6-7.12-6
			c-5.52,0-8.4,4.96-8.4,11.12c0,6.64,3.28,10.8,8.32,10.8c3.52,0,6.32-2.4,7.04-5.84c0.24-0.88,0.32-1.76,0.32-2.8V354.718z"/>
		<path style="fill:#FFFFFF;" d="M381.461,377.278l-0.72-3.92h-0.24c-2.56,3.12-6.56,4.8-11.2,4.8c-7.92,0-12.641-5.76-12.641-12
			c0-10.16,9.121-15.041,22.961-14.96v-0.56c0-2.08-1.12-5.04-7.12-5.04c-4,0-8.24,1.36-10.8,2.96l-2.24-7.84
			c2.72-1.52,8.08-3.44,15.2-3.44c13.041,0,17.201,7.68,17.201,16.88v13.601c0,3.76,0.16,7.36,0.56,9.52H381.461z M380.021,358.798
			c-6.4-0.08-11.36,1.44-11.36,6.16c0,3.12,2.08,4.64,4.8,4.64c3.04,0,5.52-2,6.32-4.48c0.16-0.64,0.24-1.36,0.24-2.08V358.798z"/>
		<path style="fill:#FFFFFF;" d="M418.421,364.718c3.28,1.68,8.32,3.36,13.521,3.36c5.6,0,8.56-2.32,8.56-5.84
			c0-3.36-2.56-5.28-9.041-7.6c-8.96-3.12-14.8-8.08-14.8-15.92c0-9.2,7.68-16.24,20.401-16.24c6.08,0,10.56,1.28,13.76,2.72
			l-2.72,9.84c-2.16-1.04-6-2.56-11.28-2.56s-7.84,2.4-7.84,5.2c0,3.44,3.04,4.96,10,7.6c9.52,3.521,14,8.48,14,16.081
			c0,9.04-6.96,16.72-21.76,16.72c-6.16,0-12.24-1.6-15.28-3.28L418.421,364.718z"/>
		<path style="fill:#FFFFFF;" d="M469.941,338.157l5.84,19.201c0.64,2.32,1.44,5.2,1.92,7.28h0.24c0.56-2.08,1.2-5.04,1.76-7.28
			l4.8-19.201h13.04l-9.12,25.761c-5.6,15.521-9.36,21.761-13.761,25.681c-4.24,3.681-8.72,4.96-11.76,5.36l-2.56-10.32
			c1.52-0.24,3.44-0.96,5.28-2.08c1.84-0.96,3.84-2.88,5.04-4.88c0.4-0.56,0.64-1.2,0.64-1.76c0-0.4-0.08-1.04-0.56-2l-14.32-35.761
			H469.941z"/>
		<path style="fill:#FFFFFF;" d="M502.66,350.638c0-4.88-0.16-9.04-0.319-12.48h10.56l0.561,5.36h0.239
			c1.601-2.48,5.601-6.24,12.081-6.24c8,0,14,5.28,14,16.8v23.201h-12.16v-21.681c0-5.04-1.76-8.48-6.16-8.48
			c-3.36,0-5.36,2.32-6.16,4.56c-0.32,0.72-0.48,1.92-0.48,3.04v22.561h-12.16V350.638z"/>
		<path style="fill:#FFFFFF;" d="M563.141,326.957v11.2h8.72v8.96h-8.72v14.16c0,4.72,1.12,6.88,4.8,6.88
			c1.521,0,2.721-0.16,3.601-0.32l0.08,9.2c-1.601,0.64-4.48,1.04-7.921,1.04c-3.92,0-7.2-1.36-9.12-3.36
			c-2.24-2.32-3.359-6.08-3.359-11.6v-16h-5.2v-8.96h5.2v-8.48L563.141,326.957z"/>
		<path style="fill:#FFFFFF;" d="M601.141,377.278l-0.721-3.92h-0.24c-2.56,3.12-6.56,4.8-11.2,4.8c-7.92,0-12.64-5.76-12.64-12
			c0-10.16,9.12-15.041,22.96-14.96v-0.56c0-2.08-1.12-5.04-7.12-5.04c-4,0-8.24,1.36-10.8,2.96l-2.24-7.84
			c2.72-1.52,8.08-3.44,15.2-3.44c13.04,0,17.2,7.68,17.2,16.88v13.601c0,3.76,0.16,7.36,0.561,9.52H601.141z M599.7,358.798
			c-6.4-0.08-11.36,1.44-11.36,6.16c0,3.12,2.08,4.64,4.8,4.64c3.04,0,5.521-2,6.32-4.48c0.16-0.64,0.24-1.36,0.24-2.08V358.798z"/>
		<path style="fill:#FFFFFF;" d="M630.42,338.157l3.84,6.48c1.12,2,2.16,4,3.2,5.84h0.16c1.04-2.08,2-4.08,3.04-6l3.44-6.32h13.2
			l-12.881,18.641l13.041,20.48H643.7l-3.92-7.04c-1.12-1.92-2.08-3.92-3.04-5.92h-0.24c-0.96,2.08-2,4-2.96,5.92l-3.68,7.04H616.5
			l13.28-19.92l-12.961-19.201H630.42z"/>
	</g>
</g>
<g id="jfx:p04">
	<g>
		<path style="fill:#FFFFFF;" d="M175.226,446.996v53.921h-12.24v-53.921H175.226z"/>
		<path style="fill:#FFFFFF;" d="M198.985,450.596v11.2h8.72v8.96h-8.72v14.16c0,4.721,1.12,6.881,4.8,6.881
			c1.52,0,2.72-0.16,3.6-0.32l0.08,9.2c-1.6,0.64-4.48,1.04-7.92,1.04c-3.92,0-7.2-1.359-9.12-3.359
			c-2.24-2.32-3.36-6.08-3.36-11.601v-16.001h-5.2v-8.96h5.2v-8.479L198.985,450.596z"/>
		<path style="fill:#FFFFFF;" d="M224.104,485.236c0.4,5.041,5.36,7.44,11.041,7.44c4.16,0,7.52-0.56,10.8-1.601l1.6,8.24
			c-4,1.601-8.88,2.4-14.16,2.4c-13.28,0-20.88-7.68-20.88-19.92c0-9.92,6.16-20.881,19.76-20.881c12.641,0,17.44,9.84,17.44,19.521
			c0,2.08-0.24,3.92-0.4,4.8H224.104z M238.424,476.916c0-2.959-1.28-7.92-6.88-7.92c-5.12,0-7.2,4.641-7.521,7.92H238.424z"/>
		<path style="fill:#FFFFFF;" d="M256.984,474.676c0-5.76-0.16-9.52-0.32-12.88h10.48l0.4,7.2h0.32c2-5.68,6.8-8.08,10.561-8.08
			c1.12,0,1.68,0,2.56,0.16v11.439c-0.88-0.159-1.92-0.319-3.28-0.319c-4.48,0-7.52,2.399-8.32,6.16c-0.16,0.8-0.24,1.761-0.24,2.72
			v19.841h-12.161V474.676z"/>
		<path style="fill:#FFFFFF;" d="M309.624,500.917l-0.72-3.92h-0.24c-2.56,3.12-6.56,4.8-11.2,4.8c-7.92,0-12.641-5.76-12.641-12
			c0-10.16,9.121-15.041,22.961-14.961v-0.56c0-2.08-1.12-5.04-7.12-5.04c-4,0-8.24,1.359-10.8,2.96l-2.24-7.841
			c2.72-1.52,8.08-3.439,15.2-3.439c13.041,0,17.201,7.68,17.201,16.881v13.6c0,3.76,0.16,7.36,0.56,9.521H309.624z
			 M308.184,482.437c-6.4-0.08-11.36,1.44-11.36,6.16c0,3.12,2.08,4.64,4.8,4.64c3.04,0,5.52-2,6.32-4.479
			c0.16-0.64,0.24-1.36,0.24-2.08V482.437z"/>
		<path style="fill:#FFFFFF;" d="M343.224,450.596v11.2h8.72v8.96h-8.72v14.16c0,4.721,1.12,6.881,4.8,6.881
			c1.52,0,2.72-0.16,3.6-0.32l0.08,9.2c-1.6,0.64-4.48,1.04-7.92,1.04c-3.92,0-7.2-1.359-9.12-3.359
			c-2.24-2.32-3.36-6.08-3.36-11.601v-16.001h-5.2v-8.96h5.2v-8.479L343.224,450.596z"/>
		<path style="fill:#FFFFFF;" d="M371.543,450.916c0,3.359-2.56,6.08-6.56,6.08c-3.84,0-6.4-2.721-6.32-6.08
			c-0.08-3.52,2.48-6.16,6.4-6.16C368.983,444.756,371.463,447.396,371.543,450.916z M358.983,500.917v-39.121h12.161v39.121
			H358.983z"/>
		<path style="fill:#FFFFFF;" d="M419.543,480.916c0,14.32-10.16,20.881-20.641,20.881c-11.44,0-20.24-7.52-20.24-20.16
			s8.32-20.721,20.88-20.721C411.543,460.916,419.543,469.156,419.543,480.916z M391.222,481.316c0,6.721,2.8,11.76,8,11.76
			c4.72,0,7.76-4.719,7.76-11.76c0-5.84-2.24-11.76-7.76-11.76C393.382,469.557,391.222,475.557,391.222,481.316z"/>
		<path style="fill:#FFFFFF;" d="M427.062,474.276c0-4.88-0.16-9.04-0.32-12.48h10.56l0.56,5.36h0.24c1.6-2.48,5.6-6.24,12.08-6.24
			c8,0,14,5.28,14,16.801v23.2h-12.16v-21.681c0-5.04-1.76-8.48-6.16-8.48c-3.36,0-5.36,2.32-6.16,4.561
			c-0.32,0.721-0.48,1.92-0.48,3.04v22.561h-12.161V474.276z"/>
		<path style="fill:#FFFFFF;" d="M503.062,487.076l-3.84,13.841h-12.641l16.48-53.921h16.001l16.72,53.921h-13.12l-4.16-13.841
			H503.062z M516.742,477.957l-3.36-11.441c-0.96-3.199-1.92-7.199-2.72-10.399h-0.16c-0.8,3.2-1.6,7.28-2.48,10.399l-3.2,11.441
			H516.742z"/>
		<path style="fill:#FFFFFF;" d="M542.98,447.716c3.76-0.64,9.041-1.12,16.48-1.12c7.52,0,12.881,1.439,16.48,4.32
			c3.439,2.72,5.76,7.2,5.76,12.48c0,5.279-1.76,9.76-4.959,12.8c-4.16,3.921-10.32,5.681-17.521,5.681c-1.6,0-3.039-0.08-4.16-0.24
			v19.28h-12.08V447.716z M555.061,472.196c1.041,0.24,2.32,0.319,4.08,0.319c6.48,0,10.48-3.279,10.48-8.799
			c0-4.961-3.439-7.921-9.52-7.921c-2.48,0-4.16,0.24-5.041,0.479V472.196z"/>
		<path style="fill:#FFFFFF;" d="M601.701,446.996v53.921h-12.24v-53.921H601.701z"/>
	</g>
</g>
</svg>
