<?xml version="1.0" encoding="iso-8859-1"?>
<!-- Generator: Adobe Illustrator 16.2.0, SVG Export Plug-In . SVG Version: 6.00 Build 0)  -->
<!DOCTYPE svg PUBLIC "-//W3C//DTD SVG 1.1//EN" "http://www.w3.org/Graphics/SVG/1.1/DTD/svg11.dtd">
<svg version="1.1" xmlns="http://www.w3.org/2000/svg" xmlns:xlink="http://www.w3.org/1999/xlink" x="0px" y="0px" width="1024px"
	 height="768px" viewBox="0 0 1024 768" style="enable-background:new 0 0 1024 768;" xml:space="preserve">
<g id="jfx:p00">
	<rect width="1024" height="768"/>
</g>
<g id="jfx:p01">
	<g style="opacity:0.9;">
		<path style="fill:#333333;" d="M89.963,313.384L79.908,350.91h36.365l10.055-37.525h22.022l-26.166,97.652h-22.022l10.947-40.857
			H74.745l-10.947,40.857H41.631l26.166-97.652H89.963z"/>
		<path style="fill:#333333;" d="M140.734,411.036l18.983-70.848h22.022l-18.983,70.848H140.734z M187.744,320.483
			c-1.63,6.085-7.586,11.011-14.83,11.011c-6.954,0-10.271-4.926-8.496-11.011c1.564-6.375,7.482-11.156,14.581-11.156
			C186.098,309.327,189.308,314.109,187.744,320.483z"/>
		<path style="fill:#333333;" d="M185.451,391.766c3.396,2.463,11.022,5.361,17.543,5.361c6.664,0,10.038-2.318,11.009-5.939
			c0.971-3.623-0.736-5.361-8.258-8.115c-13.313-4.926-16.828-12.894-14.432-21.297c3.533-13.185,17.512-23.182,35.043-23.182
			c8.258,0,15.142,1.884,18.906,4.057l-7.987,15.212c-2.722-1.738-8.185-4.057-14.271-4.057c-5.36,0-8.985,2.173-9.956,5.796
			c-0.893,3.333,1.394,5.071,9.271,8.113c12.231,4.636,16.058,11.446,13.408,21.877c-3.533,13.185-16.566,22.892-36.849,22.892
			c-9.272,0-16.987-2.027-21.571-4.926L185.451,391.766z"/>
		<path style="fill:#333333;" d="M292.362,319.904l-5.435,20.284h15.792l-4.348,16.227h-15.792l-6.872,25.645
			c-2.291,8.548-1.31,12.459,5.355,12.459c2.752,0,5.003-0.29,6.675-0.579l-4.32,16.661c-3.208,1.159-8.618,1.884-14.848,1.884
			c-7.1,0-12.38-2.463-14.886-6.085c-2.932-4.201-3.136-11.011-0.457-21.008l7.765-28.977h-9.417l4.348-16.227h9.417l4.115-15.357
			L292.362,319.904z"/>
		<path style="fill:#333333;" d="M376.169,374.815c-6.949,25.934-28.532,37.814-47.511,37.814
			c-20.719,0-33.006-13.619-26.872-36.511c6.134-22.892,25.122-37.525,47.869-37.525
			C371.387,338.594,381.876,353.517,376.169,374.815z M324.687,375.54c-3.261,12.169-0.635,21.297,8.782,21.297
			c8.548,0,16.344-8.548,19.76-21.297c2.834-10.577,1.65-21.298-8.347-21.298C334.306,354.241,327.482,365.108,324.687,375.54z"/>
		<path style="fill:#333333;" d="M392.82,363.514c2.795-10.432,4.33-17.24,5.67-23.326h18.98l-2.77,13.039h0.58
			c6.378-10.287,16.235-14.633,23.045-14.633c2.028,0,3.043,0,4.559,0.29l-5.552,20.719c-1.516-0.29-3.322-0.579-5.785-0.579
			c-8.113,0-14.784,4.347-18.057,11.156c-0.678,1.448-1.289,3.187-1.754,4.926l-9.627,35.931h-22.022L392.82,363.514z"/>
		<path style="fill:#333333;" d="M470.644,340.188l1.259,34.771c0.034,4.202,0.085,9.418-0.055,13.185h0.435
			c2.023-3.767,4.618-9.128,6.72-13.185l18.009-34.771h23.616l-29.017,46.652c-17.673,28.107-27.511,39.408-37.382,46.508
			c-9.465,6.665-18.199,8.982-23.899,9.707l0.372-18.689c2.87-0.435,6.695-1.738,10.571-3.768c3.799-1.738,8.353-5.215,11.496-8.838
			c0.996-1.014,1.742-2.173,2.014-3.187c0.194-0.725,0.36-1.884-0.044-3.623l-8.581-64.762H470.644z"/>
	</g>
</g>
<g id="jfx:p02">
	<g>
		<path style="fill:#FFFFFF;" d="M99.246,72.021v-3.679l3.359-3.04c5.679-5.079,8.438-7.999,8.519-11.038
			c0-2.12-1.28-3.799-4.279-3.799c-2.239,0-4.199,1.12-5.559,2.159l-1.72-4.359c1.96-1.48,5-2.68,8.519-2.68
			c5.879,0,9.119,3.439,9.119,8.159c0,4.359-3.16,7.838-6.919,11.198l-2.399,2v0.08h9.798v4.999H99.246z"/>
		<path style="fill:#FFFFFF;" d="M140.643,58.904c0,8.039-3.239,13.558-9.878,13.558c-6.719,0-9.678-6.039-9.718-13.398
			c0-7.519,3.199-13.478,9.918-13.478C137.923,45.586,140.643,51.785,140.643,58.904z M127.165,59.063
			c-0.04,5.959,1.399,8.799,3.759,8.799c2.359,0,3.639-2.959,3.639-8.878c0-5.759-1.24-8.799-3.679-8.799
			C128.645,50.185,127.125,53.025,127.165,59.063z"/>
		<path style="fill:#FFFFFF;" d="M162.842,58.904c0,8.039-3.239,13.558-9.878,13.558c-6.719,0-9.678-6.039-9.718-13.398
			c0-7.519,3.2-13.478,9.918-13.478C160.123,45.586,162.842,51.785,162.842,58.904z M149.365,59.063
			c-0.04,5.959,1.399,8.799,3.759,8.799c2.359,0,3.639-2.959,3.639-8.878c0-5.759-1.24-8.799-3.679-8.799
			C150.844,50.185,149.325,53.025,149.365,59.063z"/>
		<path style="fill:#FFFFFF;" d="M183.202,51.025h-10.078l-0.56,4c0.56-0.08,1.04-0.08,1.68-0.08c2.48,0,5,0.56,6.839,1.88
			c1.96,1.32,3.16,3.479,3.16,6.519c0,4.839-4.159,9.119-11.158,9.119c-3.159,0-5.799-0.72-7.239-1.48l1.08-4.559
			c1.16,0.56,3.519,1.28,5.879,1.28c2.52,0,5.199-1.2,5.199-3.959c0-2.679-2.12-4.319-7.319-4.319c-1.44,0-2.44,0.08-3.52,0.24
			l1.72-13.638h14.317V51.025z"/>
		<path style="fill:#FFFFFF;" d="M194.284,45.066h6.079v17.037c0,7.679-3.679,10.358-9.598,10.358c-1.4,0-3.24-0.24-4.439-0.64
			l0.68-4.919c0.84,0.28,1.92,0.48,3.12,0.48c2.56,0,4.159-1.16,4.159-5.359V45.066z"/>
		<path style="fill:#FFFFFF;" d="M216.363,72.021l-0.36-1.959h-0.12c-1.28,1.56-3.279,2.399-5.599,2.399
			c-3.959,0-6.319-2.879-6.319-5.999c0-5.079,4.56-7.519,11.478-7.479v-0.28c0-1.04-0.56-2.52-3.559-2.52c-2,0-4.12,0.68-5.399,1.48
			l-1.12-3.919c1.36-0.76,4.04-1.72,7.599-1.72c6.519,0,8.599,3.839,8.599,8.438v6.799c0,1.88,0.08,3.68,0.28,4.759H216.363z
			 M215.643,62.783c-3.2-0.04-5.679,0.72-5.679,3.079c0,1.56,1.04,2.32,2.4,2.32c1.52,0,2.759-1,3.159-2.24
			c0.08-0.32,0.12-0.68,0.12-1.04V62.783z"/>
		<path style="fill:#FFFFFF;" d="M230.884,52.465l2.639,9.079c0.48,1.64,0.84,3.199,1.12,4.759h0.12c0.32-1.6,0.64-3.079,1.08-4.759
			l2.52-9.079h6.399l-7.279,19.557h-6.079l-7.119-19.557H230.884z"/>
		<path style="fill:#FFFFFF;" d="M258.683,72.021l-0.36-1.959h-0.12c-1.28,1.56-3.279,2.399-5.599,2.399
			c-3.959,0-6.319-2.879-6.319-5.999c0-5.079,4.56-7.519,11.478-7.479v-0.28c0-1.04-0.56-2.52-3.559-2.52c-2,0-4.12,0.68-5.399,1.48
			l-1.12-3.919c1.36-0.76,4.04-1.72,7.599-1.72c6.519,0,8.599,3.839,8.599,8.438v6.799c0,1.88,0.08,3.68,0.28,4.759H258.683z
			 M257.963,62.783c-3.2-0.04-5.679,0.72-5.679,3.079c0,1.56,1.04,2.32,2.4,2.32c1.52,0,2.759-1,3.159-2.24
			c0.08-0.32,0.12-0.68,0.12-1.04V62.783z"/>
		<path style="fill:#FFFFFF;" d="M293.561,58.264c0,8.839-5.359,14.198-13.238,14.198c-7.999,0-12.678-6.039-12.678-13.718
			c0-8.079,5.159-14.118,13.118-14.118C289.042,44.626,293.561,50.825,293.561,58.264z M274.084,58.624
			c0,5.279,2.479,8.999,6.559,8.999c4.12,0,6.479-3.919,6.479-9.158c0-4.839-2.32-8.999-6.519-8.999
			C276.483,49.465,274.084,53.385,274.084,58.624z"/>
		<path style="fill:#FFFFFF;" d="M297.364,58.704c0-2.439-0.08-4.519-0.16-6.239h5.279l0.28,2.68h0.12c0.8-1.24,2.8-3.12,6.039-3.12
			c4,0,6.999,2.64,6.999,8.398v11.598h-6.079V61.183c0-2.52-0.88-4.239-3.08-4.239c-1.68,0-2.679,1.16-3.08,2.28
			c-0.16,0.36-0.24,0.96-0.24,1.52v11.278h-6.079V58.704z"/>
		<path style="fill:#FFFFFF;" d="M325.483,64.183c0.2,2.52,2.68,3.72,5.519,3.72c2.08,0,3.76-0.28,5.399-0.8l0.8,4.119
			c-2,0.8-4.439,1.2-7.079,1.2c-6.639,0-10.438-3.839-10.438-9.958c0-4.959,3.08-10.438,9.878-10.438
			c6.319,0,8.718,4.919,8.718,9.758c0,1.04-0.12,1.959-0.2,2.399H325.483z M332.643,60.023c0-1.479-0.64-3.959-3.439-3.959
			c-2.56,0-3.6,2.32-3.76,3.959H332.643z"/>
	</g>
	<g>
		<path style="fill:#FFFFFF;" d="M62.434,128.109c-1.344,0.672-4.368,1.392-8.305,1.392c-11.185,0-16.945-6.96-16.945-16.177
			c0-11.041,7.873-17.186,17.666-17.186c3.792,0,6.672,0.768,7.969,1.44l-1.488,5.809c-1.488-0.624-3.552-1.2-6.145-1.2
			c-5.809,0-10.321,3.504-10.321,10.705c0,6.48,3.84,10.561,10.369,10.561c2.208,0,4.657-0.48,6.097-1.056L62.434,128.109z"/>
		<path style="fill:#FFFFFF;" d="M66.992,94.938h7.297v34.083h-7.297V94.938z"/>
		<path style="fill:#FFFFFF;" d="M103.377,117.021c0,8.593-6.097,12.529-12.385,12.529c-6.864,0-12.145-4.512-12.145-12.097
			c0-7.585,4.993-12.433,12.529-12.433C98.577,105.02,103.377,109.964,103.377,117.021z M86.384,117.26
			c0,4.033,1.68,7.057,4.801,7.057c2.832,0,4.656-2.832,4.656-7.057c0-3.504-1.344-7.056-4.656-7.056
			C87.68,110.204,86.384,113.804,86.384,117.26z"/>
		<path style="fill:#FFFFFF;" d="M107.839,122.637c1.344,0.816,4.128,1.776,6.289,1.776c2.208,0,3.12-0.768,3.12-1.968
			s-0.72-1.776-3.456-2.688c-4.849-1.632-6.721-4.272-6.673-7.057c0-4.369,3.744-7.681,9.553-7.681c2.736,0,5.185,0.624,6.625,1.344
			L122,111.404c-1.056-0.576-3.072-1.344-5.088-1.344c-1.776,0-2.784,0.72-2.784,1.92c0,1.104,0.912,1.68,3.792,2.688
			c4.464,1.536,6.337,3.792,6.385,7.249c0,4.368-3.457,7.584-10.177,7.584c-3.072,0-5.809-0.672-7.585-1.632L107.839,122.637z"/>
		<path style="fill:#FFFFFF;" d="M150.849,121.485c0,3.072,0.096,5.568,0.192,7.537h-6.336l-0.336-3.313h-0.144
			c-0.912,1.44-3.12,3.84-7.345,3.84c-4.752,0-8.257-2.976-8.257-10.225v-13.777h7.345v12.625c0,3.409,1.104,5.473,3.648,5.473
			c2.016,0,3.168-1.392,3.648-2.544c0.192-0.432,0.24-1.008,0.24-1.584v-13.969h7.345V121.485z"/>
		<path style="fill:#FFFFFF;" d="M156.703,113.276c0-3.457-0.096-5.713-0.192-7.729h6.289l0.24,4.32h0.192
			c1.2-3.408,4.08-4.848,6.336-4.848c0.672,0,1.008,0,1.536,0.096v6.865c-0.528-0.096-1.152-0.192-1.968-0.192
			c-2.688,0-4.512,1.44-4.992,3.696c-0.096,0.48-0.144,1.056-0.144,1.632v11.905h-7.297V113.276z"/>
		<path style="fill:#FFFFFF;" d="M180.559,119.613c0.24,3.024,3.216,4.464,6.625,4.464c2.496,0,4.512-0.336,6.48-0.96l0.96,4.944
			c-2.4,0.96-5.329,1.44-8.497,1.44c-7.969,0-12.529-4.608-12.529-11.953c0-5.952,3.696-12.529,11.857-12.529
			c7.584,0,10.465,5.904,10.465,11.713c0,1.248-0.144,2.352-0.24,2.88H180.559z M189.151,114.62c0-1.776-0.768-4.752-4.128-4.752
			c-3.072,0-4.32,2.784-4.513,4.752H189.151z"/>
		<path style="fill:#FFFFFF;" d="M210.797,129.021v-18.098h-3.072v-5.376h3.072v-0.912c0-2.832,0.864-5.953,2.977-7.873
			c1.824-1.728,4.368-2.352,6.48-2.352c1.632,0,2.88,0.192,3.888,0.48l-0.288,5.616c-0.624-0.192-1.392-0.336-2.352-0.336
			c-2.4,0-3.408,1.872-3.408,4.176v1.2h4.705v5.376h-4.657v18.098H210.797z"/>
		<path style="fill:#FFFFFF;" d="M249.535,117.021c0,8.593-6.097,12.529-12.385,12.529c-6.864,0-12.145-4.512-12.145-12.097
			c0-7.585,4.993-12.433,12.529-12.433C244.735,105.02,249.535,109.964,249.535,117.021z M232.542,117.26
			c0,4.033,1.68,7.057,4.801,7.057c2.832,0,4.656-2.832,4.656-7.057c0-3.504-1.344-7.056-4.656-7.056
			C233.838,110.204,232.542,113.804,232.542,117.26z"/>
		<path style="fill:#FFFFFF;" d="M254.045,113.276c0-3.457-0.096-5.713-0.192-7.729h6.289l0.24,4.32h0.192
			c1.2-3.408,4.08-4.848,6.336-4.848c0.672,0,1.008,0,1.536,0.096v6.865c-0.528-0.096-1.152-0.192-1.968-0.192
			c-2.688,0-4.512,1.44-4.993,3.696c-0.096,0.48-0.144,1.056-0.144,1.632v11.905h-7.297V113.276z"/>
		<path style="fill:#FFFFFF;" d="M288.557,96.667h7.296v20.45c0,9.217-4.416,12.433-11.521,12.433c-1.68,0-3.888-0.288-5.328-0.768
			l0.816-5.904c1.008,0.336,2.304,0.576,3.744,0.576c3.072,0,4.993-1.392,4.993-6.433V96.667z"/>
		<path style="fill:#FFFFFF;" d="M315.054,129.021l-0.432-2.352h-0.144c-1.536,1.872-3.936,2.88-6.721,2.88
			c-4.752,0-7.584-3.456-7.584-7.2c0-6.097,5.473-9.025,13.777-8.977v-0.336c0-1.248-0.672-3.024-4.272-3.024
			c-2.4,0-4.944,0.816-6.48,1.776l-1.344-4.705c1.632-0.912,4.849-2.064,9.121-2.064c7.825,0,10.321,4.608,10.321,10.129v8.161
			c0,2.256,0.096,4.417,0.336,5.712H315.054z M314.189,117.933c-3.84-0.048-6.816,0.864-6.816,3.696c0,1.872,1.248,2.784,2.88,2.784
			c1.824,0,3.312-1.2,3.792-2.688c0.096-0.384,0.144-0.816,0.144-1.248V117.933z"/>
		<path style="fill:#FFFFFF;" d="M332.477,105.547l3.168,10.897c0.576,1.968,1.008,3.84,1.344,5.712h0.144
			c0.384-1.92,0.768-3.696,1.296-5.712l3.024-10.897h7.681l-8.737,23.474h-7.297l-8.544-23.474H332.477z"/>
		<path style="fill:#FFFFFF;" d="M365.837,129.021l-0.432-2.352h-0.144c-1.536,1.872-3.936,2.88-6.721,2.88
			c-4.752,0-7.584-3.456-7.584-7.2c0-6.097,5.473-9.025,13.777-8.977v-0.336c0-1.248-0.672-3.024-4.272-3.024
			c-2.4,0-4.944,0.816-6.48,1.776l-1.344-4.705c1.632-0.912,4.849-2.064,9.121-2.064c7.825,0,10.321,4.608,10.321,10.129v8.161
			c0,2.256,0.096,4.417,0.336,5.712H365.837z M364.973,117.933c-3.84-0.048-6.816,0.864-6.816,3.696c0,1.872,1.248,2.784,2.88,2.784
			c1.824,0,3.312-1.2,3.792-2.688c0.096-0.384,0.144-0.816,0.144-1.248V117.933z"/>
		<path style="fill:#FFFFFF;" d="M399.294,97.819v4.608l-12.865,26.594h-7.729l12.865-25.106v-0.096H377.26v-6H399.294z"/>
	</g>
	
		<image style="overflow:visible;" width="100" height="100" xlink:href="3E4F3853.jpg"  transform="matrix(1 0 0 1 138.1406 139.8906)">
	</image>
	<g>
		<path style="fill:#FFFFFF;" d="M112.327,249.066v10.358h10.039v-10.358h6.079v26.956h-6.079v-11.278h-10.039v11.278h-6.119
			v-26.956H112.327z"/>
		<path style="fill:#FFFFFF;" d="M144.686,276.021l-0.36-1.959h-0.12c-1.28,1.56-3.279,2.399-5.599,2.399
			c-3.959,0-6.319-2.879-6.319-5.999c0-5.079,4.56-7.519,11.478-7.479v-0.28c0-1.04-0.56-2.52-3.559-2.52c-2,0-4.12,0.68-5.399,1.48
			l-1.12-3.919c1.36-0.76,4.04-1.72,7.599-1.72c6.519,0,8.599,3.839,8.599,8.438v6.799c0,1.88,0.08,3.68,0.28,4.759H144.686z
			 M143.966,266.783c-3.2-0.04-5.679,0.72-5.679,3.079c0,1.56,1.04,2.32,2.4,2.32c1.52,0,2.759-1,3.159-2.24
			c0.08-0.32,0.12-0.68,0.12-1.04V266.783z"/>
		<path style="fill:#FFFFFF;" d="M154.688,262.704c0-2.439-0.08-4.519-0.16-6.239h5.119l0.28,2.64h0.12
			c0.84-1.24,2.56-3.08,5.919-3.08c2.52,0,4.519,1.28,5.359,3.319h0.08c0.72-1,1.6-1.8,2.52-2.359c1.08-0.64,2.28-0.96,3.719-0.96
			c3.76,0,6.599,2.64,6.599,8.479v11.518h-5.919v-10.638c0-2.839-0.92-4.479-2.879-4.479c-1.4,0-2.4,0.96-2.8,2.12
			c-0.16,0.44-0.24,1.08-0.24,1.56v11.438h-5.919v-10.958c0-2.479-0.88-4.16-2.8-4.16c-1.56,0-2.479,1.2-2.839,2.2
			c-0.2,0.48-0.24,1.04-0.24,1.52v11.398h-5.919V262.704z"/>
		<path style="fill:#FFFFFF;" d="M195.366,251.026c0,1.68-1.28,3.039-3.28,3.039c-1.919,0-3.199-1.359-3.159-3.039
			c-0.04-1.76,1.24-3.08,3.199-3.08C194.086,247.946,195.326,249.266,195.366,251.026z M189.087,276.021v-19.557h6.079v19.557
			H189.087z"/>
		<path style="fill:#FFFFFF;" d="M200.046,247.626h6.079v28.395h-6.079V247.626z"/>
		<path style="fill:#FFFFFF;" d="M217.845,250.866v5.599h4.359v4.479h-4.359v7.079c0,2.359,0.56,3.439,2.4,3.439
			c0.76,0,1.36-0.08,1.799-0.16l0.04,4.599c-0.8,0.32-2.239,0.52-3.959,0.52c-1.96,0-3.6-0.68-4.56-1.68
			c-1.12-1.16-1.68-3.04-1.68-5.799v-7.999h-2.6v-4.479h2.6v-4.239L217.845,250.866z"/>
		<path style="fill:#FFFFFF;" d="M245.042,266.023c0,7.159-5.079,10.438-10.318,10.438c-5.719,0-10.118-3.759-10.118-10.078
			c0-6.319,4.159-10.358,10.438-10.358C241.043,256.025,245.042,260.144,245.042,266.023z M230.885,266.223
			c0,3.359,1.4,5.879,4,5.879c2.359,0,3.879-2.359,3.879-5.879c0-2.919-1.12-5.879-3.879-5.879
			C231.965,260.344,230.885,263.344,230.885,266.223z"/>
		<path style="fill:#FFFFFF;" d="M248.806,262.704c0-2.439-0.08-4.519-0.16-6.239h5.279l0.28,2.68h0.12
			c0.8-1.24,2.8-3.12,6.039-3.12c4,0,6.999,2.64,6.999,8.398v11.598h-6.079v-10.838c0-2.52-0.88-4.239-3.08-4.239
			c-1.68,0-2.679,1.16-3.08,2.28c-0.16,0.36-0.24,0.96-0.24,1.52v11.278h-6.079V262.704z"/>
	</g>
</g>
<g id="jfx:p03">
	<g>
		<path style="fill:#FFFFFF;" d="M654.968,123.02v-3.679l3.359-3.04c5.679-5.079,8.438-7.999,8.519-11.038
			c0-2.12-1.279-3.799-4.279-3.799c-2.239,0-4.199,1.12-5.559,2.159l-1.721-4.359c1.961-1.48,5-2.68,8.52-2.68
			c5.879,0,9.118,3.439,9.118,8.159c0,4.359-3.159,7.838-6.919,11.198l-2.399,2v0.08h9.798v4.999H654.968z"/>
		<path style="fill:#FFFFFF;" d="M696.364,109.902c0,8.039-3.239,13.558-9.878,13.558c-6.719,0-9.679-6.039-9.719-13.398
			c0-7.519,3.199-13.478,9.918-13.478C693.645,96.584,696.364,102.783,696.364,109.902z M682.887,110.062
			c-0.04,5.959,1.399,8.799,3.76,8.799c2.359,0,3.639-2.959,3.639-8.878c0-5.759-1.24-8.799-3.68-8.799
			C684.366,101.183,682.847,104.023,682.887,110.062z"/>
		<path style="fill:#FFFFFF;" d="M718.564,109.902c0,8.039-3.24,13.558-9.879,13.558c-6.719,0-9.678-6.039-9.719-13.398
			c0-7.519,3.2-13.478,9.919-13.478C715.844,96.584,718.564,102.783,718.564,109.902z M705.086,110.062
			c-0.039,5.959,1.4,8.799,3.76,8.799s3.639-2.959,3.639-8.878c0-5.759-1.239-8.799-3.679-8.799
			C706.566,101.183,705.047,104.023,705.086,110.062z"/>
		<path style="fill:#FFFFFF;" d="M738.164,101.343c-0.68-0.04-1.4,0-2.359,0.08c-5.399,0.44-7.799,3.199-8.479,6.239h0.119
			c1.28-1.32,3.08-2.08,5.52-2.08c4.359,0,8.039,3.08,8.039,8.479c0,5.159-3.959,9.398-9.599,9.398
			c-6.919,0-10.318-5.159-10.318-11.358c0-4.879,1.8-8.958,4.599-11.558c2.6-2.36,5.959-3.64,10.039-3.839
			c1.119-0.08,1.84-0.08,2.439-0.04V101.343z M734.845,114.381c0-2.399-1.28-4.479-3.88-4.479c-1.639,0-2.999,1-3.6,2.319
			c-0.159,0.32-0.239,0.8-0.239,1.52c0.12,2.759,1.44,5.239,4.199,5.239C733.484,118.98,734.845,117.021,734.845,114.381z"/>
	</g>
	<g>
		<path style="fill:#FFFFFF;" d="M637.881,148.097c1.92-0.384,5.809-0.672,9.457-0.672c4.465,0,7.201,0.432,9.553,1.824
			c2.256,1.2,3.889,3.408,3.889,6.336c0,2.88-1.68,5.568-5.328,6.913v0.096c3.695,1.008,6.432,3.792,6.432,7.968
			c0,2.929-1.344,5.232-3.359,6.865c-2.353,1.872-6.289,2.928-12.722,2.928c-3.601,0-6.288-0.24-7.921-0.48V148.097z
			 M645.13,160.482h2.399c3.841,0,5.905-1.584,5.905-3.984c0-2.448-1.872-3.745-5.185-3.745c-1.584,0-2.496,0.096-3.12,0.192
			V160.482z M645.13,174.835c0.72,0.096,1.584,0.096,2.832,0.096c3.313,0,6.241-1.248,6.241-4.656c0-3.265-2.929-4.561-6.577-4.561
			h-2.496V174.835z"/>
		<path style="fill:#FFFFFF;" d="M693.898,178.531c-2.256,0.768-6.528,1.824-10.801,1.824c-5.904,0-10.177-1.488-13.152-4.368
			c-2.977-2.784-4.609-7.009-4.561-11.761c0.047-10.753,7.872-16.897,18.48-16.897c4.177,0,7.393,0.816,8.978,1.584l-1.536,5.856
			c-1.776-0.768-3.984-1.392-7.537-1.392c-6.096,0-10.705,3.456-10.705,10.465c0,6.672,4.177,10.609,10.178,10.609
			c1.68,0,3.023-0.192,3.6-0.48v-6.769h-4.992v-5.713h12.049V178.531z"/>
		<path style="fill:#FFFFFF;" d="M726.635,178.531c-2.257,0.768-6.529,1.824-10.802,1.824c-5.904,0-10.177-1.488-13.153-4.368
			c-2.977-2.784-4.607-7.009-4.561-11.761c0.049-10.753,7.873-16.897,18.482-16.897c4.176,0,7.393,0.816,8.977,1.584l-1.536,5.856
			c-1.776-0.768-3.984-1.392-7.536-1.392c-6.098,0-10.705,3.456-10.705,10.465c0,6.672,4.176,10.609,10.176,10.609
			c1.681,0,3.025-0.192,3.602-0.48v-6.769h-4.993v-5.713h12.05V178.531z"/>
		<path style="fill:#FFFFFF;" d="M739.88,171.715l-2.304,8.305h-7.586l9.89-32.355h9.601l10.033,32.355h-7.873l-2.496-8.305H739.88z
			 M748.088,166.242l-2.016-6.864c-0.576-1.92-1.152-4.32-1.633-6.241h-0.096c-0.479,1.92-0.96,4.368-1.488,6.241l-1.92,6.864
			H748.088z"/>
	</g>
	
		<image style="overflow:visible;" width="100" height="100" xlink:href="3E4F3851.jpg"  transform="matrix(1 0 0 1 819.9971 79.8877)">
	</image>
	<g>
		<path style="fill:#FFFFFF;" d="M836.724,212.778c-1.88,0.64-5.438,1.52-8.999,1.52c-4.918,0-8.479-1.24-10.957-3.639
			c-2.48-2.32-3.84-5.839-3.8-9.798c0.04-8.958,6.559-14.078,15.397-14.078c3.479,0,6.158,0.68,7.479,1.32l-1.279,4.879
			c-1.48-0.64-3.32-1.16-6.279-1.16c-5.079,0-8.918,2.879-8.918,8.719c0,5.559,3.479,8.838,8.479,8.838c1.399,0,2.52-0.16,2.999-0.4
			v-5.639h-4.159v-4.759h10.038V212.778z"/>
		<path style="fill:#FFFFFF;" d="M852.405,214.018l-0.36-1.959h-0.119c-1.28,1.56-3.279,2.399-5.6,2.399
			c-3.959,0-6.318-2.879-6.318-5.999c0-5.079,4.559-7.519,11.478-7.479v-0.28c0-1.04-0.56-2.52-3.56-2.52
			c-2,0-4.119,0.68-5.398,1.48l-1.12-3.919c1.36-0.76,4.04-1.72,7.599-1.72c6.52,0,8.599,3.839,8.599,8.438v6.799
			c0,1.88,0.08,3.68,0.28,4.759H852.405z M851.686,204.779c-3.199-0.04-5.68,0.72-5.68,3.079c0,1.56,1.041,2.32,2.4,2.32
			c1.52,0,2.76-1,3.159-2.24c0.08-0.32,0.12-0.68,0.12-1.04V204.779z"/>
		<path style="fill:#FFFFFF;" d="M863.088,214.018V198.94h-2.561v-4.479h2.561v-0.76c0-2.36,0.719-4.959,2.479-6.559
			c1.52-1.44,3.64-1.959,5.399-1.959c1.36,0,2.399,0.16,3.239,0.4l-0.24,4.679c-0.52-0.16-1.159-0.28-1.959-0.28
			c-2,0-2.84,1.56-2.84,3.479v1h3.92v4.479h-3.88v15.078H863.088z"/>
		<path style="fill:#FFFFFF;" d="M882.846,188.862v5.599h4.359v4.479h-4.359v7.079c0,2.359,0.561,3.439,2.4,3.439
			c0.76,0,1.359-0.08,1.799-0.16l0.04,4.599c-0.8,0.32-2.239,0.52-3.959,0.52c-1.96,0-3.6-0.68-4.56-1.68
			c-1.119-1.16-1.68-3.04-1.68-5.799v-7.999h-2.6v-4.479h2.6v-4.239L882.846,188.862z"/>
		<path style="fill:#FFFFFF;" d="M895.406,206.179c0.199,2.52,2.68,3.72,5.519,3.72c2.079,0,3.76-0.28,5.399-0.8l0.8,4.119
			c-1.999,0.8-4.439,1.2-7.079,1.2c-6.639,0-10.438-3.839-10.438-9.958c0-4.959,3.079-10.438,9.878-10.438
			c6.319,0,8.718,4.919,8.718,9.758c0,1.04-0.119,1.959-0.199,2.399H895.406z M902.564,202.02c0-1.479-0.64-3.959-3.439-3.959
			c-2.559,0-3.6,2.32-3.76,3.959H902.564z"/>
		<path style="fill:#FFFFFF;" d="M911.847,200.9c0-2.879-0.08-4.759-0.159-6.439h5.238l0.2,3.599h0.16
			c0.999-2.839,3.399-4.039,5.278-4.039c0.561,0,0.84,0,1.28,0.08v5.719c-0.44-0.08-0.96-0.16-1.64-0.16
			c-2.24,0-3.76,1.2-4.159,3.079c-0.08,0.4-0.12,0.88-0.12,1.36v9.918h-6.079V200.9z"/>
	</g>
	<path style="fill:none;stroke:#3FA9F5;stroke-width:10;stroke-miterlimit:10;" d="M432,104c37-10,137,30,170,46"/>
	<polygon style="fill:#3FA9F5;" points="616.202,158.396 581.797,172.009 602.59,123.991 	"/>
</g>
<g id="jfx:p04">
	<g>
		<polygon style="fill:#FF0000;" points="901.268,367.328 810.62,384.558 900.804,404.868 804.214,400.655 872.427,439.8 
			786.17,414.657 846.89,467.962 758.66,424.876 786.908,485.858 725.009,430.077 706.378,491.382 689.271,429.636 626.007,483.866 
			655.756,423.604 563.492,464.222 628.51,412.708 536.291,434.862 610.815,398.263 508.787,399.239 604.811,382.013 509.25,361.7 
			611.216,365.916 537.626,326.768 629.261,351.915 565.541,298.611 656.769,341.697 628.521,280.715 690.422,336.496 
			709.053,275.191 726.161,336.937 789.422,282.705 759.674,342.97 848.938,302.352 786.922,353.866 873.764,331.706 
			804.614,368.309 		"/>
		<g>
			<path style="fill:#FFFFFF;" d="M635.185,369.178h17.531v-5.484c-0.094-1.125-0.234-2.515-0.422-4.172
				c1.5,0.188,4.313,0.281,8.438,0.281c0.593,0,0.953,0.11,1.078,0.328c-0.063,0.344-0.219,0.609-0.469,0.797
				c-0.219,0.219-0.328,0.532-0.328,0.938v7.313h17.672c-0.188,1.313-0.281,2.672-0.281,4.078c0,1.313,0.094,2.656,0.281,4.031
				h-16.594c0.312,1.188,0.703,2.297,1.172,3.328c1.343,3.469,3.672,6.75,6.984,9.844c2.688,2.531,5.906,4.516,9.656,5.953
				c-2,2-3.875,4.453-5.625,7.359c-3.313-1.906-6.234-4.125-8.766-6.656c-2.906-3.031-5.797-6.906-8.672-11.625
				c-1.813,3.875-4.109,7.266-6.891,10.172c-2.595,2.844-5.984,5.672-10.172,8.484c-1.406-2.625-3.281-5.078-5.625-7.359
				c3.281-1.438,6.484-3.516,9.609-6.234c3.25-3.094,5.438-6.031,6.563-8.813c0.531-1.437,0.968-2.922,1.313-4.453h-16.453
				c0.124-1.375,0.218-2.719,0.281-4.031C635.402,371.85,635.309,370.49,635.185,369.178z"/>
			<path style="fill:#FFFFFF;" d="M688.95,371.709c1.75,2.625,3.171,5.578,4.266,8.859c-2.469,0.719-4.704,1.766-6.703,3.141
				c-0.938-3.312-2.391-6.344-4.359-9.094C684.56,373.803,686.824,372.834,688.95,371.709z M689.513,359.709
				c1.75,2.063,3.188,4.359,4.313,6.891v-0.703c-0.031-0.687-0.11-1.343-0.234-1.969h4.781c-0.063-1.406-0.157-2.875-0.281-4.406
				c1.718,0.281,4.343,0.422,7.875,0.422c0.499,0,0.766,0.141,0.797,0.422c-0.094,0.219-0.266,0.469-0.516,0.75
				c-0.375,0.313-0.563,0.75-0.563,1.313v1.5h4.594c-0.188,0.625-0.281,1.282-0.281,1.969v3.328
				c0.094-0.094,0.171-0.188,0.234-0.281c1.281-2.656,1.938-5.672,1.969-9.047c2.25,0.438,4.765,0.766,7.547,0.984
				c0.563,0,0.906,0.219,1.031,0.656c-0.063,0.219-0.219,0.391-0.469,0.516c-0.219,0.094-0.359,0.25-0.422,0.469
				c-0.563,1.813-1.203,3.485-1.922,5.016h9.234c-0.157,1.156-0.234,2.313-0.234,3.469c0,1.094,0.077,2.219,0.234,3.375h-1.547
				c-0.125,7.406-1.078,13.359-2.859,17.859c1.437,1.469,3.203,2.859,5.297,4.172c-2.032,2.469-3.485,4.984-4.359,7.547
				c-1.906-1.719-3.579-3.516-5.016-5.391c-1.719,1.969-3.781,3.766-6.188,5.391c-0.844-1.438-1.813-2.766-2.906-3.984
				c-0.5,1.938-1.235,3.016-2.203,3.234c-0.75,0.281-1.766,0.453-3.047,0.516c-1.376,0.094-2.391,0.172-3.047,0.234
				c-0.188-2.031-0.688-4.031-1.5-6c-1.406,2.438-3.188,4.5-5.344,6.188c-0.875-1.5-2.173-2.953-3.891-4.359
				c-0.5,1.281-0.969,2.313-1.406,3.094c-0.094,0.75-0.188,1.172-0.281,1.266c-0.251-0.063-0.485-0.219-0.703-0.469
				c-1.845-1.313-3.797-2.5-5.859-3.563c2.625-4.594,4.39-9.547,5.297-14.859c1.53,1,3.578,2.172,6.141,3.516
				c-0.875,3.625-1.704,6.625-2.484,9c1.656-1.438,2.859-2.844,3.609-4.219c1-1.875,1.53-3.75,1.594-5.625h-4.031
				c0.124-0.938,0.188-1.828,0.188-2.672c0-0.938-0.063-1.859-0.188-2.766h6.281v-0.141c0-0.75-0.031-1.5-0.094-2.25h-5.063
				c0.124-0.687,0.203-1.359,0.234-2.016v-10.078c-2.25,0.688-4.329,1.688-6.234,3c-1.063-3.094-2.688-5.89-4.875-8.391
				C685.153,361.803,687.419,360.834,689.513,359.709z M699.731,370.162h4.406v-2.25h-4.406V370.162z M704.138,376.115v-2.438
				h-4.406v2.438H704.138z M699.872,397.865c1.313,0.125,2.453,0.188,3.422,0.188c0.438,0,0.78-0.078,1.031-0.234
				c0.218-0.156,0.452-1.281,0.703-3.375h-3.609c-0.219,0.656-0.453,1.25-0.703,1.781
				C700.465,396.818,700.184,397.365,699.872,397.865z M710.372,395.99c1.812-1.031,3.328-2.188,4.547-3.469
				c-1.095-2.156-1.906-4.391-2.438-6.703c-0.094-0.406-0.188-0.828-0.281-1.266c-0.031,0.25-0.047,0.484-0.047,0.703
				c0,0.844,0.077,1.734,0.234,2.672h-9.656c-0.031,0.688-0.094,1.328-0.188,1.922h8.531c-0.281,0.75-0.422,1.516-0.422,2.297
				C710.59,393.584,710.496,394.865,710.372,395.99z M711.731,382.49c-0.375-1.844-0.626-3.687-0.75-5.531
				c-0.313,0.25-0.641,0.5-0.984,0.75v0.375c0,0.656,0.094,1.329,0.281,2.016h-4.922c-0.031,0.157-0.047,0.344-0.047,0.563v1.828
				H711.731z M716.278,374.381c0.344,4.657,1.062,8.422,2.156,11.297c0.03,0.063,0.063,0.109,0.094,0.141
				c0.719-2.719,1.094-6.141,1.125-10.266c0-0.344-0.031-0.734-0.094-1.172H716.278z"/>
			<path style="fill:#FFFFFF;" d="M730.903,367.912h15.328c1.5-0.687,2.953-1.641,4.359-2.859c1.75-1.563,3.203-3.469,4.359-5.719
				c1.343,0.125,2.702,0.188,4.078,0.188c1.375-0.031,2.813-0.109,4.313-0.234c1.313,2.281,3.047,4.141,5.203,5.578
				c2.093,1.406,4.483,2.422,7.172,3.047c-1.313,2.625-2.234,5.094-2.766,7.406c-1.531-0.625-2.984-1.313-4.359-2.063
				c0.03,0.813,0.109,1.657,0.234,2.531h-17.859c0.094-0.875,0.156-1.703,0.188-2.484c-1.344,0.875-2.735,1.719-4.172,2.531
				c-0.219-0.75-0.469-1.469-0.75-2.156h-15.328c0.094-1,0.156-1.969,0.188-2.906C731.06,369.803,730.997,368.85,730.903,367.912z
				 M731.185,388.537h15c-0.157,0.844-0.234,1.688-0.234,2.531v9.516c0,0.813,0.077,1.641,0.234,2.484h-15
				c0.124-0.844,0.203-1.672,0.234-2.484v-9.516C731.388,390.225,731.309,389.381,731.185,388.537z M732.591,360.459h14.063
				c-0.125,0.875-0.188,1.766-0.188,2.672c0,0.844,0.063,1.719,0.188,2.625h-14.063c0.124-0.906,0.188-1.781,0.188-2.625
				C732.778,362.225,732.715,361.334,732.591,360.459z M732.778,375.506h12.891c-0.094,0.75-0.141,1.547-0.141,2.391
				c0,0.781,0.047,1.578,0.141,2.391h-12.891c0-0.813,0.063-1.609,0.188-2.391C732.841,377.053,732.778,376.256,732.778,375.506z
				 M732.778,382.256h12.891c-0.094,0.75-0.141,1.547-0.141,2.391c0,0.75,0.047,1.563,0.141,2.438h-12.891
				c0-0.875,0.063-1.688,0.188-2.438C732.841,383.803,732.778,383.006,732.778,382.256z M740.231,398.1v-4.594h-3.094v4.594H740.231
				z M747.075,378.131h27.094c-0.157,0.938-0.234,1.938-0.234,3v17.297c-0.031,2.375-0.75,3.813-2.156,4.313
				c-0.813,0.25-1.61,0.422-2.391,0.516c-0.345,0.094-0.703,0.203-1.078,0.328c-0.375-2.375-1.031-4.531-1.969-6.469
				c0.563,0.375,1.188,0.563,1.875,0.563c0.375-0.094,0.593-0.313,0.656-0.656v-2.813h-2.813v8.016
				c-0.75-0.094-1.47-0.141-2.156-0.141c-0.75,0-1.47,0.047-2.156,0.141v-8.016h-2.625v8.203c-0.75-0.094-1.47-0.141-2.156-0.141
				c-0.75,0-1.47,0.047-2.156,0.141v-8.203h-2.391v9.563c-0.907-0.125-1.766-0.188-2.578-0.188c-0.875,0-1.734,0.063-2.578,0.188
				v-22.641C747.263,379.943,747.199,378.944,747.075,378.131z M752.419,387.834h2.391v-3.797h-2.391V387.834z M755.653,369.881
				h8.063c-1.406-1.188-2.719-2.5-3.938-3.938C758.56,367.287,757.184,368.6,755.653,369.881z M759.122,384.037v3.797h2.625v-3.797
				H759.122z M766.06,384.037v3.797h2.813v-3.797H766.06z"/>
		</g>
	</g>
	<g>
		<path style="fill:none;stroke:#3FA9F5;stroke-width:10;stroke-miterlimit:10;" d="M706.229,194.017
			c4.93,38.009,4.693,20.496,0.022,56.872"/>
		<polygon style="fill:#3FA9F5;" points="702.81,267.023 678.959,238.736 731.097,243.174 		"/>
	</g>
</g>
<g id="jfx:p05">
	
		<image style="overflow:visible;" width="100" height="100" xlink:href="3E4F3857.jpg"  transform="matrix(1 0 0 1 875.2236 566.8896)">
	</image>
	<g>
		<path style="fill:#FFFFFF;" d="M593.537,616.891v-3.68l3.359-3.039c5.68-5.079,8.438-7.999,8.519-11.038
			c0-2.12-1.28-3.8-4.279-3.8c-2.239,0-4.199,1.12-5.56,2.16l-1.719-4.359c1.959-1.48,4.999-2.68,8.518-2.68
			c5.88,0,9.119,3.439,9.119,8.158c0,4.359-3.16,7.839-6.919,11.199l-2.399,1.999v0.08h9.799v4.999H593.537z"/>
		<path style="fill:#FFFFFF;" d="M634.934,603.773c0,8.038-3.239,13.557-9.879,13.557c-6.719,0-9.678-6.039-9.718-13.397
			c0-7.519,3.199-13.478,9.919-13.478C632.214,590.455,634.934,596.654,634.934,603.773z M621.456,603.933
			c-0.04,5.959,1.399,8.799,3.759,8.799s3.64-2.96,3.64-8.878c0-5.76-1.239-8.799-3.679-8.799
			C622.936,595.055,621.416,597.895,621.456,603.933z"/>
		<path style="fill:#FFFFFF;" d="M657.133,603.773c0,8.038-3.238,13.557-9.878,13.557c-6.719,0-9.679-6.039-9.718-13.397
			c0-7.519,3.199-13.478,9.918-13.478C654.414,590.455,657.133,596.654,657.133,603.773z M643.656,603.933
			c-0.041,5.959,1.398,8.799,3.759,8.799c2.359,0,3.64-2.96,3.64-8.878c0-5.76-1.24-8.799-3.68-8.799
			C645.135,595.055,643.615,597.895,643.656,603.933z"/>
		<path style="fill:#FFFFFF;" d="M659.736,610.092c0-3.119,1.8-5.279,4.639-6.52v-0.119c-2.52-1.28-3.759-3.4-3.759-5.68
			c0-4.398,3.96-7.318,9.158-7.318c6.079,0,8.599,3.52,8.599,6.679c0,2.239-1.199,4.439-3.76,5.72v0.119
			c2.52,0.96,4.76,3.119,4.76,6.479c0,4.72-3.959,7.879-9.998,7.879C662.775,617.33,659.736,613.611,659.736,610.092z
			 M673.174,609.892c0-2.279-1.68-3.64-4.079-4.279c-1.999,0.56-3.159,2-3.159,3.88c-0.04,1.879,1.399,3.639,3.68,3.639
			C671.774,613.131,673.174,611.731,673.174,609.892z M666.336,597.574c0,1.76,1.6,2.879,3.679,3.52c1.399-0.4,2.64-1.68,2.64-3.32
			c0-1.6-0.92-3.199-3.16-3.199C667.415,594.574,666.336,595.934,666.336,597.574z"/>
		<path style="fill:#FFFFFF;" d="M683.296,590.295c2.239-0.359,5.159-0.56,8.238-0.56c5.119,0,8.438,0.92,11.038,2.88
			c2.8,2.079,4.56,5.398,4.56,10.158c0,5.158-1.88,8.719-4.479,10.918c-2.84,2.359-7.158,3.479-12.438,3.479
			c-3.16,0-5.399-0.199-6.919-0.399V590.295z M689.414,612.291c0.521,0.12,1.36,0.12,2.12,0.12c5.52,0.04,9.118-2.999,9.118-9.438
			c0.041-5.599-3.238-8.559-8.479-8.559c-1.359,0-2.239,0.12-2.76,0.24V612.291z"/>
		<path style="fill:#FFFFFF;" d="M715.615,609.052c0.199,2.52,2.68,3.72,5.519,3.72c2.08,0,3.76-0.28,5.399-0.8l0.8,4.119
			c-1.999,0.8-4.439,1.2-7.079,1.2c-6.639,0-10.438-3.84-10.438-9.959c0-4.959,3.079-10.438,9.878-10.438
			c6.319,0,8.718,4.918,8.718,9.758c0,1.04-0.119,1.959-0.199,2.399H715.615z M722.773,604.893c0-1.479-0.64-3.959-3.439-3.959
			c-2.559,0-3.6,2.319-3.76,3.959H722.773z"/>
		<path style="fill:#FFFFFF;" d="M736.575,597.334l2.64,9.078c0.479,1.641,0.84,3.199,1.119,4.76h0.121
			c0.319-1.6,0.639-3.08,1.079-4.76l2.52-9.078h6.399l-7.279,19.557h-6.079l-7.118-19.557H736.575z"/>
		<path style="fill:#FFFFFF;" d="M772.572,606.893c0,7.158-5.078,10.438-10.318,10.438c-5.719,0-10.117-3.759-10.117-10.078
			c0-6.318,4.158-10.357,10.438-10.357C768.573,596.895,772.572,601.014,772.572,606.893z M758.415,607.092
			c0,3.359,1.399,5.879,3.999,5.879c2.359,0,3.88-2.359,3.88-5.879c0-2.919-1.12-5.879-3.88-5.879
			C759.495,601.213,758.415,604.213,758.415,607.092z"/>
		<path style="fill:#FFFFFF;" d="M780.975,597.334l1.92,3.239c0.561,1,1.08,2,1.6,2.919h0.08c0.521-1.039,1-2.039,1.52-2.999
			l1.721-3.159h6.599l-6.438,9.318l6.519,10.238h-6.879l-1.96-3.52c-0.56-0.96-1.039-1.959-1.52-2.959h-0.12
			c-0.479,1.039-0.999,1.999-1.479,2.959l-1.84,3.52h-6.679l6.639-9.959l-6.479-9.598H780.975z"/>
		<path style="fill:#FFFFFF;" d="M801.734,597.334l1.92,3.239c0.561,1,1.08,2,1.6,2.919h0.08c0.521-1.039,1-2.039,1.52-2.999
			l1.721-3.159h6.599l-6.438,9.318l6.519,10.238h-6.879l-1.96-3.52c-0.56-0.96-1.039-1.959-1.52-2.959h-0.12
			c-0.479,1.039-0.999,1.999-1.479,2.959l-1.84,3.52h-6.679l6.639-9.959l-6.479-9.598H801.734z"/>
	</g>
	<g>
		<path style="fill:#FFFFFF;" d="M599.219,671.979c-1.344,0.672-4.368,1.393-8.305,1.393c-11.186,0-16.945-6.961-16.945-16.178
			c0-11.041,7.873-17.186,17.666-17.186c3.792,0,6.672,0.769,7.969,1.44l-1.488,5.809c-1.488-0.624-3.553-1.2-6.145-1.2
			c-5.809,0-10.321,3.504-10.321,10.705c0,6.48,3.841,10.561,10.368,10.561c2.209,0,4.657-0.479,6.098-1.056L599.219,671.979z"/>
		<path style="fill:#FFFFFF;" d="M603.776,638.809h7.297v34.082h-7.297V638.809z"/>
		<path style="fill:#FFFFFF;" d="M640.162,660.891c0,8.592-6.097,12.528-12.385,12.528c-6.865,0-12.146-4.513-12.146-12.097
			c0-7.585,4.993-12.434,12.529-12.434C635.361,648.889,640.162,653.834,640.162,660.891z M623.168,661.13
			c0,4.032,1.681,7.057,4.801,7.057c2.832,0,4.656-2.832,4.656-7.057c0-3.504-1.344-7.056-4.656-7.056
			C624.465,654.074,623.168,657.674,623.168,661.13z"/>
		<path style="fill:#FFFFFF;" d="M644.624,666.506c1.345,0.816,4.128,1.777,6.288,1.777c2.209,0,3.121-0.769,3.121-1.969
			s-0.721-1.775-3.457-2.688c-4.848-1.633-6.721-4.273-6.672-7.057c0-4.369,3.744-7.682,9.553-7.682
			c2.736,0,5.184,0.625,6.624,1.344l-1.296,5.041c-1.057-0.576-3.072-1.344-5.088-1.344c-1.777,0-2.785,0.72-2.785,1.92
			c0,1.104,0.912,1.68,3.793,2.688c4.464,1.536,6.336,3.792,6.385,7.249c0,4.367-3.457,7.584-10.178,7.584
			c-3.072,0-5.809-0.672-7.584-1.633L644.624,666.506z"/>
		<path style="fill:#FFFFFF;" d="M687.633,665.354c0,3.072,0.097,5.568,0.192,7.536h-6.337l-0.336-3.313h-0.144
			c-0.912,1.441-3.12,3.841-7.345,3.841c-4.752,0-8.257-2.976-8.257-10.225v-13.777h7.345v12.625c0,3.409,1.104,5.473,3.648,5.473
			c2.016,0,3.168-1.392,3.648-2.544c0.191-0.432,0.24-1.008,0.24-1.584v-13.97h7.344V665.354z"/>
		<path style="fill:#FFFFFF;" d="M693.487,657.146c0-3.457-0.097-5.713-0.192-7.729h6.289l0.24,4.32h0.191
			c1.2-3.408,4.08-4.849,6.337-4.849c0.672,0,1.008,0,1.536,0.096v6.865c-0.528-0.096-1.152-0.191-1.969-0.191
			c-2.688,0-4.512,1.439-4.992,3.695c-0.096,0.48-0.144,1.057-0.144,1.633v11.904h-7.297V657.146z"/>
		<path style="fill:#FFFFFF;" d="M717.344,663.482c0.239,3.023,3.216,4.465,6.624,4.465c2.496,0,4.513-0.336,6.48-0.961l0.96,4.945
			c-2.4,0.959-5.328,1.439-8.496,1.439c-7.969,0-12.529-4.608-12.529-11.953c0-5.952,3.695-12.529,11.857-12.529
			c7.584,0,10.465,5.904,10.465,11.713c0,1.248-0.145,2.353-0.24,2.881H717.344z M725.936,658.49c0-1.776-0.768-4.753-4.128-4.753
			c-3.072,0-4.32,2.784-4.513,4.753H725.936z"/>
	</g>
	<g>
		<path style="fill:#FFFFFF;" d="M847.563,681.293c1.96-0.319,4.879-0.559,8.119-0.559c3.999,0,6.799,0.6,8.719,2.119
			c1.6,1.279,2.479,3.159,2.479,5.639c0,3.439-2.44,5.799-4.759,6.639v0.121c1.879,0.76,2.919,2.559,3.599,5.039
			c0.84,3.039,1.68,6.559,2.2,7.598h-6.239c-0.44-0.76-1.08-2.959-1.88-6.278c-0.72-3.359-1.879-4.279-4.359-4.319h-1.84v10.598
			h-6.039V681.293z M853.602,692.892h2.4c3.039,0,4.839-1.52,4.839-3.88c0-2.479-1.68-3.719-4.479-3.759
			c-1.479,0-2.319,0.12-2.76,0.2V692.892z"/>
		<path style="fill:#FFFFFF;" d="M875.762,700.051c0.2,2.52,2.68,3.719,5.52,3.719c2.08,0,3.76-0.279,5.398-0.799l0.801,4.119
			c-2,0.799-4.439,1.199-7.08,1.199c-6.639,0-10.438-3.84-10.438-9.959c0-4.959,3.08-10.438,9.879-10.438
			c6.318,0,8.718,4.919,8.718,9.758c0,1.041-0.12,1.96-0.2,2.4H875.762z M882.921,695.891c0-1.479-0.64-3.959-3.439-3.959
			c-2.56,0-3.6,2.32-3.76,3.959H882.921z"/>
		<path style="fill:#FFFFFF;" d="M898.482,682.894c0,1.68-1.28,3.039-3.28,3.039c-1.919,0-3.199-1.359-3.159-3.039
			c-0.04-1.76,1.24-3.079,3.199-3.079C897.202,679.814,898.441,681.134,898.482,682.894z M892.203,707.889v-19.557h6.078v19.557
			H892.203z"/>
		<path style="fill:#FFFFFF;" d="M903.162,694.571c0-2.439-0.08-4.519-0.16-6.239h5.279l0.28,2.68h0.12
			c0.799-1.24,2.799-3.119,6.039-3.119c3.999,0,6.998,2.64,6.998,8.398v11.598h-6.078v-10.838c0-2.52-0.881-4.239-3.08-4.239
			c-1.68,0-2.68,1.16-3.08,2.28c-0.159,0.359-0.239,0.959-0.239,1.52v11.277h-6.079V694.571z"/>
		<path style="fill:#FFFFFF;" d="M926.602,679.494h6.08v11.158h0.08c0.639-0.84,1.439-1.48,2.398-2c0.881-0.48,2.04-0.76,3.16-0.76
			c3.879,0,6.839,2.68,6.839,8.559v11.438h-6.079v-10.758c0-2.56-0.88-4.319-3.16-4.319c-1.6,0-2.599,1.04-3.039,2.12
			c-0.16,0.399-0.199,0.92-0.199,1.359v11.598h-6.08V679.494z"/>
		<path style="fill:#FFFFFF;" d="M969.359,697.891c0,7.159-5.08,10.438-10.318,10.438c-5.719,0-10.119-3.759-10.119-10.078
			s4.16-10.358,10.438-10.358C965.359,687.893,969.359,692.012,969.359,697.891z M955.201,698.091c0,3.359,1.4,5.879,4,5.879
			c2.359,0,3.879-2.359,3.879-5.879c0-2.919-1.12-5.879-3.879-5.879C956.281,692.212,955.201,695.211,955.201,698.091z"/>
		<path style="fill:#FFFFFF;" d="M973.121,679.494h6.08v28.395h-6.08V679.494z"/>
		<path style="fill:#FFFFFF;" d="M1003.078,679.494v22.557c0,2.199,0.08,4.519,0.16,5.838h-5.398l-0.28-2.879h-0.08
			c-1.239,2.199-3.6,3.319-6.119,3.319c-4.64,0-8.358-3.96-8.358-10.038c-0.04-6.6,4.079-10.398,8.758-10.398
			c2.4,0,4.279,0.84,5.16,2.199H997v-10.598H1003.078z M997,696.611c0-0.32-0.041-0.76-0.08-1.08c-0.36-1.64-1.68-3-3.56-3
			c-2.76,0-4.2,2.48-4.2,5.56c0,3.319,1.641,5.399,4.16,5.399c1.76,0,3.159-1.2,3.52-2.92c0.119-0.439,0.16-0.88,0.16-1.4V696.611z"
			/>
	</g>
	<g>
		<path style="fill:#FFFFFF;" d="M744.141,645.819h14.102v-1.523c-0.078-1.536-0.17-3.138-0.273-4.805
			c1.692,0.287,4.297,0.43,7.813,0.43c0.521,0,0.794,0.144,0.82,0.43c-0.078,0.209-0.261,0.456-0.547,0.742
			c-0.339,0.313-0.508,0.742-0.508,1.289v3.438h14.063c-0.183,0.99-0.273,2.006-0.273,3.047v14.219c0,0.99,0.091,2.019,0.273,3.086
			h-14.063v10.938c-1.354-0.183-2.683-0.273-3.984-0.273c-1.12,0-2.227,0.091-3.32,0.273v-10.938h-14.102
			c0.104-1.067,0.182-2.096,0.234-3.086v-14.219C744.322,647.825,744.244,646.81,744.141,645.819z M758.242,660.038v-8.125h-7.344
			v8.125H758.242z M772.813,660.038v-8.125h-7.266v8.125H772.813z"/>
		<path style="fill:#FFFFFF;" d="M819.297,650.937c-0.156,1.042-0.234,2.136-0.234,3.281c0,1.042,0.078,2.123,0.234,3.242h-10.938
			v11.68h12.344c-0.156,1.016-0.234,2.07-0.234,3.164c0,1.041,0.078,2.109,0.234,3.203h-37.188c0.104-1.094,0.182-2.162,0.234-3.203
			c-0.053-1.094-0.131-2.148-0.234-3.164h5.508v-18.906c-0.053-1.38-0.131-2.813-0.234-4.297c1.536,0.261,3.906,0.391,7.109,0.391
			c0.469,0,0.716,0.117,0.742,0.352c0,0.183-0.156,0.378-0.469,0.586c-0.339,0.287-0.508,0.717-0.508,1.289v20.586h5.664v-24.883
			c-0.053-1.458-0.144-2.994-0.273-4.609c1.641,0.287,4.166,0.43,7.578,0.43c0.469,0,0.716,0.131,0.742,0.391
			c-0.053,0.209-0.209,0.443-0.469,0.703c-0.365,0.261-0.547,0.703-0.547,1.328v8.438H819.297z"/>
	</g>
	<g>
		<path style="fill:none;stroke:#3FA9F5;stroke-width:10;stroke-miterlimit:10;" d="M690.769,505.741
			c0,38.328,0,27.662,13.184,55.324"/>
		<polygon style="fill:#3FA9F5;" points="704.337,577.559 674.586,555.56 726.337,547.811 		"/>
	</g>
</g>
<g id="jfx:p06">
	
		<image style="overflow:visible;" width="100" height="100" xlink:href="3E4F3850.jpg"  transform="matrix(1 0 0 1 204.2017 585.5107)">
	</image>
	<g>
		<path style="fill:#FFFFFF;" d="M157.822,493.899v-3.679l3.359-3.04c5.679-5.079,8.438-7.999,8.519-11.038
			c0-2.119-1.28-3.799-4.279-3.799c-2.239,0-4.199,1.119-5.559,2.158l-1.72-4.358c1.96-1.479,5-2.68,8.519-2.68
			c5.879,0,9.119,3.439,9.119,8.159c0,4.359-3.16,7.838-6.919,11.197l-2.399,2v0.08h9.798v4.999H157.822z"/>
		<path style="fill:#FFFFFF;" d="M199.219,480.781c0,8.039-3.239,13.559-9.878,13.559c-6.719,0-9.678-6.039-9.718-13.398
			c0-7.519,3.199-13.478,9.918-13.478C196.499,467.464,199.219,473.662,199.219,480.781z M185.741,480.941
			c-0.04,5.959,1.399,8.799,3.759,8.799c2.359,0,3.639-2.959,3.639-8.879c0-5.759-1.24-8.799-3.679-8.799
			C187.221,472.063,185.701,474.902,185.741,480.941z"/>
		<path style="fill:#FFFFFF;" d="M221.418,480.781c0,8.039-3.239,13.559-9.878,13.559c-6.719,0-9.678-6.039-9.718-13.398
			c0-7.519,3.2-13.478,9.918-13.478C218.699,467.464,221.418,473.662,221.418,480.781z M207.941,480.941
			c-0.04,5.959,1.399,8.799,3.759,8.799c2.359,0,3.639-2.959,3.639-8.879c0-5.759-1.24-8.799-3.679-8.799
			C209.42,472.063,207.901,474.902,207.941,480.941z"/>
		<path style="fill:#FFFFFF;" d="M226.341,489.5c0.76,0.08,1.439,0.08,2.639,0c1.84-0.119,3.72-0.64,5.119-1.6
			c1.68-1.16,2.8-2.84,3.28-4.799l-0.12-0.041c-1.16,1.201-2.839,1.881-5.199,1.881c-4.399,0-8.119-3.08-8.119-8.119
			c0-5.079,4.08-9.358,9.798-9.358c6.679,0,9.838,5.119,9.838,11.198c0,5.398-1.72,9.358-4.559,11.958
			c-2.479,2.239-5.879,3.479-9.918,3.64c-1.04,0.08-2.08,0.039-2.759,0V489.5z M230.021,476.463c0,2.239,1.2,4.158,3.679,4.158
			c1.64,0,2.8-0.799,3.359-1.719c0.2-0.36,0.32-0.76,0.32-1.52c0-2.76-1.04-5.479-3.799-5.479
			C231.5,471.903,229.98,473.742,230.021,476.463z"/>
		<path style="fill:#FFFFFF;" d="M247.581,467.304c2.24-0.36,5.159-0.56,8.238-0.56c5.119,0,8.439,0.92,11.039,2.879
			c2.799,2.08,4.559,5.399,4.559,10.158c0,5.16-1.88,8.719-4.479,10.919c-2.839,2.359-7.159,3.479-12.438,3.479
			c-3.16,0-5.399-0.2-6.919-0.4V467.304z M253.7,489.301c0.52,0.119,1.36,0.119,2.12,0.119c5.52,0.04,9.119-2.999,9.119-9.438
			c0.04-5.6-3.239-8.559-8.479-8.559c-1.36,0-2.24,0.119-2.76,0.239V489.301z"/>
		<path style="fill:#FFFFFF;" d="M279.9,486.061c0.2,2.52,2.68,3.72,5.519,3.72c2.08,0,3.76-0.28,5.399-0.8l0.8,4.119
			c-2,0.8-4.439,1.199-7.079,1.199c-6.639,0-10.438-3.839-10.438-9.958c0-4.959,3.08-10.438,9.878-10.438
			c6.319,0,8.718,4.92,8.718,9.759c0,1.04-0.12,1.96-0.2,2.399H279.9z M287.059,481.901c0-1.479-0.64-3.96-3.439-3.96
			c-2.56,0-3.6,2.32-3.76,3.96H287.059z"/>
		<path style="fill:#FFFFFF;" d="M300.86,474.343l2.64,9.079c0.479,1.639,0.84,3.199,1.12,4.758h0.12
			c0.32-1.6,0.64-3.078,1.08-4.758l2.52-9.079h6.399l-7.279,19.557h-6.079l-7.119-19.557H300.86z"/>
		<path style="fill:#FFFFFF;" d="M336.858,483.9c0,7.16-5.079,10.439-10.318,10.439c-5.719,0-10.118-3.76-10.118-10.078
			c0-6.32,4.159-10.359,10.438-10.359C332.858,473.902,336.858,478.021,336.858,483.9z M322.7,484.102c0,3.359,1.4,5.879,4,5.879
			c2.359,0,3.879-2.359,3.879-5.879c0-2.92-1.12-5.879-3.879-5.879C323.78,478.223,322.7,481.222,322.7,484.102z"/>
		<path style="fill:#FFFFFF;" d="M345.26,474.343l1.92,3.239c0.56,1,1.08,2,1.6,2.92h0.08c0.52-1.04,1-2.04,1.52-3l1.72-3.159h6.599
			l-6.439,9.318l6.519,10.238h-6.879l-1.96-3.52c-0.56-0.96-1.04-1.96-1.52-2.96h-0.12c-0.48,1.041-1,2-1.479,2.96l-1.84,3.52
			h-6.679l6.639-9.958l-6.479-9.599H345.26z"/>
		<path style="fill:#FFFFFF;" d="M366.02,474.343l1.92,3.239c0.56,1,1.08,2,1.6,2.92h0.08c0.52-1.04,1-2.04,1.52-3l1.72-3.159h6.599
			l-6.439,9.318l6.519,10.238h-6.879l-1.96-3.52c-0.56-0.96-1.04-1.96-1.52-2.96h-0.12c-0.48,1.041-1,2-1.479,2.96l-1.84,3.52
			h-6.679l6.639-9.958l-6.479-9.599H366.02z"/>
	</g>
	<g>
		<path style="fill:#FFFFFF;" d="M34.226,507.342c3.008-0.512,7.231-0.895,13.183-0.895c6.016,0,10.303,1.151,13.183,3.455
			c2.752,2.176,4.607,5.76,4.607,9.983s-1.408,7.808-3.968,10.239c-3.328,3.136-8.255,4.543-14.015,4.543
			c-1.28,0-2.432-0.063-3.328-0.191v15.423h-9.664V507.342z M43.889,526.926c0.832,0.191,1.855,0.256,3.264,0.256
			c5.184,0,8.383-2.625,8.383-7.04c0-3.968-2.752-6.335-7.615-6.335c-1.984,0-3.328,0.191-4.032,0.383V526.926z"/>
		<path style="fill:#FFFFFF;" d="M71.089,528.909c0-4.608-0.128-7.616-0.256-10.304h8.383l0.32,5.76h0.256
			c1.6-4.543,5.44-6.463,8.448-6.463c0.896,0,1.344,0,2.048,0.127v9.152c-0.704-0.129-1.536-0.256-2.624-0.256
			c-3.584,0-6.016,1.919-6.655,4.927c-0.128,0.64-0.192,1.408-0.192,2.176v15.871h-9.727V528.909z"/>
		<path style="fill:#FFFFFF;" d="M126.318,533.9c0,11.455-8.127,16.703-16.511,16.703c-9.151,0-16.191-6.016-16.191-16.127
			s6.656-16.574,16.703-16.574C119.919,517.902,126.318,524.493,126.318,533.9z M103.664,534.221c0,5.375,2.24,9.407,6.399,9.407
			c3.776,0,6.208-3.776,6.208-9.407c0-4.672-1.792-9.407-6.208-9.407C105.392,524.813,103.664,529.613,103.664,534.221z"/>
		<path style="fill:#FFFFFF;" d="M125.873,555.659c2.56-0.192,4.543-0.769,5.759-2.048c1.408-1.473,1.92-3.968,1.92-10.176v-24.83
			h9.792v27.135c0,6.848-1.536,11.007-4.416,13.694c-2.88,2.688-7.423,3.84-12.095,3.84L125.873,555.659z M143.6,509.902
			c0,2.688-1.984,4.863-5.248,4.863c-3.072,0-5.056-2.176-5.056-4.863c0-2.816,1.984-4.928,5.184-4.928
			C141.616,504.975,143.536,507.086,143.6,509.902z"/>
		<path style="fill:#FFFFFF;" d="M158.447,537.356c0.32,4.032,4.288,5.952,8.832,5.952c3.328,0,6.016-0.449,8.639-1.281l1.28,6.592
			c-3.2,1.28-7.104,1.92-11.327,1.92c-10.623,0-16.703-6.143-16.703-15.935c0-7.936,4.928-16.702,15.807-16.702
			c10.111,0,13.951,7.871,13.951,15.614c0,1.664-0.192,3.136-0.32,3.84H158.447z M169.902,530.701c0-2.368-1.024-6.336-5.503-6.336
			c-4.096,0-5.76,3.712-6.016,6.336H169.902z"/>
		<path style="fill:#FFFFFF;" d="M208.238,549.131c-1.728,0.769-4.992,1.408-8.704,1.408c-10.111,0-16.575-6.143-16.575-15.998
			c0-9.152,6.271-16.639,17.919-16.639c2.56,0,5.375,0.447,7.423,1.215l-1.536,7.232c-1.152-0.513-2.88-0.961-5.439-0.961
			c-5.12,0-8.447,3.648-8.383,8.768c0,5.76,3.84,8.768,8.575,8.768c2.304,0,4.096-0.384,5.568-0.96L208.238,549.131z"/>
		<path style="fill:#FFFFFF;" d="M224.494,509.646v8.959h6.976v7.168h-6.976v11.327c0,3.775,0.896,5.503,3.84,5.503
			c1.216,0,2.176-0.127,2.88-0.256l0.064,7.359c-1.28,0.512-3.583,0.832-6.335,0.832c-3.136,0-5.76-1.088-7.295-2.688
			c-1.792-1.855-2.688-4.863-2.688-9.279v-12.799h-4.16v-7.168h4.16v-6.783L224.494,509.646z"/>
		<path style="fill:#FFFFFF;" d="M250.35,506.767h9.792v34.941h17.15v8.191H250.35V506.767z"/>
		<path style="fill:#FFFFFF;" d="M300.523,549.899l-0.576-3.136h-0.192c-2.048,2.496-5.248,3.84-8.959,3.84
			c-6.335,0-10.111-4.607-10.111-9.6c0-8.127,7.295-12.031,18.367-11.967v-0.448c0-1.663-0.896-4.032-5.696-4.032
			c-3.2,0-6.591,1.088-8.639,2.369l-1.792-6.272c2.176-1.216,6.463-2.751,12.159-2.751c10.431,0,13.759,6.143,13.759,13.502v10.88
			c0,3.008,0.128,5.888,0.448,7.615H300.523z M299.372,535.117c-5.12-0.064-9.087,1.151-9.087,4.927c0,2.496,1.664,3.712,3.84,3.712
			c2.432,0,4.416-1.6,5.056-3.584c0.128-0.512,0.192-1.088,0.192-1.664V535.117z"/>
		<path style="fill:#FFFFFF;" d="M316.525,528.589c0-3.903-0.128-7.231-0.256-9.983h8.191l0.448,4.225h0.192
			c1.344-1.984,4.096-4.928,9.471-4.928c4.032,0,7.231,2.047,8.576,5.311h0.128c1.152-1.6,2.56-2.879,4.032-3.775
			c1.728-1.023,3.647-1.535,5.952-1.535c6.016,0,10.559,4.223,10.559,13.566v18.431h-9.471v-17.022c0-4.544-1.472-7.168-4.608-7.168
			c-2.24,0-3.84,1.536-4.479,3.393c-0.256,0.703-0.384,1.727-0.384,2.495v18.303h-9.472v-17.534c0-3.969-1.408-6.656-4.479-6.656
			c-2.496,0-3.968,1.92-4.544,3.52c-0.32,0.769-0.384,1.664-0.384,2.432v18.239h-9.471V528.589z"/>
		<path style="fill:#FFFFFF;" d="M371.308,549.899c0.128-2.048,0.256-5.823,0.256-9.343v-36.094h9.727v17.854h0.128
			c1.856-2.688,5.12-4.415,9.472-4.415c7.487,0,12.991,6.207,12.927,15.807c0,11.263-7.167,16.895-14.335,16.895
			c-3.647,0-7.167-1.344-9.407-5.056h-0.128l-0.384,4.352H371.308z M381.291,536.588c0,0.641,0.064,1.217,0.192,1.729
			c0.64,2.623,2.879,4.607,5.695,4.607c4.16,0,6.72-3.199,6.72-8.831c0-4.864-2.176-8.704-6.72-8.704
			c-2.624,0-5.056,1.984-5.695,4.801c-0.128,0.575-0.192,1.151-0.192,1.791V536.588z"/>
		<path style="fill:#FFFFFF;" d="M440.169,504.463v36.094c0,3.52,0.128,7.23,0.256,9.343h-8.639l-0.448-4.607h-0.128
			c-1.984,3.52-5.76,5.312-9.791,5.312c-7.424,0-13.375-6.336-13.375-16.063c-0.064-10.56,6.528-16.639,14.015-16.639
			c3.84,0,6.848,1.344,8.255,3.52h0.128v-16.959H440.169z M430.441,531.853c0-0.512-0.063-1.216-0.128-1.728
			c-0.575-2.624-2.688-4.8-5.695-4.8c-4.416,0-6.72,3.968-6.72,8.896c0,5.312,2.624,8.639,6.656,8.639
			c2.815,0,5.056-1.92,5.631-4.671c0.192-0.704,0.256-1.408,0.256-2.24V531.853z"/>
		<path style="fill:#FFFFFF;" d="M465.77,549.899l-0.576-3.136h-0.191c-2.048,2.496-5.248,3.84-8.96,3.84
			c-6.335,0-10.111-4.607-10.111-9.6c0-8.127,7.296-12.031,18.367-11.967v-0.448c0-1.663-0.896-4.032-5.695-4.032
			c-3.2,0-6.592,1.088-8.64,2.369l-1.792-6.272c2.176-1.216,6.464-2.751,12.159-2.751c10.432,0,13.759,6.143,13.759,13.502v10.88
			c0,3.008,0.128,5.888,0.448,7.615H465.77z M464.618,535.117c-5.12-0.064-9.088,1.151-9.088,4.927c0,2.496,1.664,3.712,3.84,3.712
			c2.432,0,4.416-1.6,5.056-3.584c0.128-0.512,0.192-1.088,0.192-1.664V535.117z"/>
	</g>
	<g>
		<path style="fill:#FFFFFF;" d="M176.54,699.915c1.959-0.319,4.879-0.56,8.119-0.56c3.999,0,6.799,0.6,8.718,2.119
			c1.6,1.28,2.48,3.16,2.48,5.639c0,3.439-2.44,5.8-4.759,6.64v0.12c1.879,0.76,2.919,2.56,3.599,5.039
			c0.84,3.039,1.68,6.559,2.2,7.599h-6.239c-0.44-0.76-1.08-2.96-1.88-6.278c-0.72-3.359-1.879-4.279-4.359-4.32h-1.839v10.599
			h-6.039V699.915z M182.579,711.514h2.399c3.04,0,4.839-1.52,4.839-3.88c0-2.479-1.68-3.72-4.479-3.759
			c-1.479,0-2.319,0.119-2.759,0.199V711.514z"/>
		<path style="fill:#FFFFFF;" d="M204.738,718.672c0.2,2.52,2.68,3.72,5.519,3.72c2.08,0,3.76-0.28,5.399-0.8l0.8,4.119
			c-2,0.8-4.439,1.199-7.079,1.199c-6.639,0-10.438-3.839-10.438-9.958c0-4.959,3.08-10.438,9.878-10.438
			c6.319,0,8.718,4.92,8.718,9.759c0,1.04-0.12,1.96-0.2,2.399H204.738z M211.897,714.513c0-1.479-0.64-3.96-3.439-3.96
			c-2.56,0-3.6,2.32-3.76,3.96H211.897z"/>
		<path style="fill:#FFFFFF;" d="M227.458,701.516c0,1.68-1.28,3.039-3.28,3.039c-1.919,0-3.199-1.359-3.159-3.039
			c-0.04-1.76,1.24-3.08,3.199-3.08C226.179,698.436,227.418,699.756,227.458,701.516z M221.179,726.511v-19.557h6.079v19.557
			H221.179z"/>
		<path style="fill:#FFFFFF;" d="M232.139,713.193c0-2.439-0.08-4.52-0.16-6.239h5.279l0.28,2.68h0.12c0.8-1.24,2.8-3.12,6.039-3.12
			c4,0,6.999,2.641,6.999,8.398v11.599h-6.079v-10.839c0-2.52-0.88-4.238-3.08-4.238c-1.68,0-2.679,1.16-3.08,2.279
			c-0.16,0.359-0.24,0.96-0.24,1.52v11.278h-6.079V713.193z"/>
		<path style="fill:#FFFFFF;" d="M255.579,698.115h6.079v11.158h0.08c0.64-0.84,1.439-1.479,2.399-2c0.88-0.479,2.04-0.76,3.16-0.76
			c3.879,0,6.839,2.68,6.839,8.559v11.438h-6.079v-10.759c0-2.559-0.88-4.318-3.16-4.318c-1.6,0-2.599,1.039-3.039,2.119
			c-0.16,0.4-0.2,0.92-0.2,1.359v11.599h-6.079V698.115z"/>
		<path style="fill:#FFFFFF;" d="M298.335,716.512c0,7.16-5.079,10.439-10.318,10.439c-5.719,0-10.118-3.76-10.118-10.078
			c0-6.32,4.159-10.359,10.438-10.359C294.336,706.514,298.335,710.633,298.335,716.512z M284.178,716.713
			c0,3.359,1.4,5.879,4,5.879c2.359,0,3.879-2.359,3.879-5.879c0-2.92-1.12-5.879-3.879-5.879
			C285.258,710.834,284.178,713.833,284.178,716.713z"/>
		<path style="fill:#FFFFFF;" d="M302.098,698.115h6.079v28.396h-6.079V698.115z"/>
		<path style="fill:#FFFFFF;" d="M332.055,698.115v22.557c0,2.199,0.08,4.52,0.16,5.839h-5.399l-0.28-2.88h-0.08
			c-1.24,2.2-3.6,3.32-6.119,3.32c-4.639,0-8.358-3.96-8.358-10.039c-0.04-6.599,4.079-10.398,8.758-10.398
			c2.4,0,4.279,0.84,5.159,2.2h0.08v-10.599H332.055z M325.976,715.232c0-0.32-0.04-0.76-0.08-1.08
			c-0.36-1.639-1.68-2.999-3.559-2.999c-2.76,0-4.2,2.479-4.2,5.56c0,3.318,1.64,5.398,4.16,5.398c1.76,0,3.159-1.199,3.519-2.92
			c0.12-0.439,0.16-0.879,0.16-1.399V715.232z"/>
	</g>
	<g>
		<path style="fill:none;stroke:#3FA9F5;stroke-width:10;stroke-miterlimit:10;" d="M547,651c-54.764,0,69.202-136-39.71-119.897"/>
		<polygon style="fill:#3FA9F5;" points="491.179,527.546 519.635,503.896 514.83,556.001 		"/>
	</g>
</g>
</svg>
