<?xml version="1.0" encoding="iso-8859-1"?>
<!-- Generator: Adobe Illustrator 16.2.0, SVG Export Plug-In . SVG Version: 6.00 Build 0)  -->
<!DOCTYPE svg PUBLIC "-//W3C//DTD SVG 1.1//EN" "http://www.w3.org/Graphics/SVG/1.1/DTD/svg11.dtd">
<svg version="1.1" xmlns="http://www.w3.org/2000/svg" xmlns:xlink="http://www.w3.org/1999/xlink" x="0px" y="0px" width="1024px"
	 height="768px" viewBox="0 0 1024 768" style="enable-background:new 0 0 1024 768;" xml:space="preserve">
<g id="jfx:p00">
	<rect width="1024" height="768"/>
</g>
<g id="jfx:p01">
	<g>
		<path style="fill:#FFFFFF;" d="M262.06,387.549c-0.3-8.1-0.6-17.901-0.6-27.702h-0.3c-2.1,8.601-4.9,18.201-7.5,26.102
			l-8.2,26.301h-11.901l-7.2-26.102c-2.2-7.9-4.5-17.5-6.101-26.301h-0.2c-0.4,9.101-0.7,19.501-1.2,27.902l-1.2,25.602h-14.101
			l4.3-67.404h20.301l6.601,22.501c2.1,7.801,4.2,16.201,5.7,24.101h0.3c1.9-7.8,4.2-16.701,6.4-24.201l7.2-22.401h19.901
			l3.7,67.404H263.06L262.06,387.549z"/>
		<path style="fill:#FFFFFF;" d="M335.258,397.649c0,6.4,0.2,11.601,0.4,15.701h-13.201l-0.7-6.9h-0.3
			c-1.9,3-6.5,8.001-15.301,8.001c-9.901,0-17.201-6.201-17.201-21.302v-28.702h15.301v26.301c0,7.101,2.3,11.401,7.601,11.401
			c4.2,0,6.601-2.9,7.601-5.301c0.4-0.9,0.5-2.1,0.5-3.301v-29.101h15.301V397.649z"/>
		<path style="fill:#FFFFFF;" d="M347.455,342.346h15.201v71.004h-15.201V342.346z"/>
		<path style="fill:#FFFFFF;" d="M391.955,350.447v14.001h10.9v11.201h-10.9v17.701c0,5.9,1.4,8.6,6,8.6c1.9,0,3.4-0.199,4.5-0.399
			l0.1,11.501c-2,0.8-5.601,1.3-9.901,1.3c-4.9,0-9-1.7-11.4-4.2c-2.8-2.9-4.2-7.601-4.2-14.501v-20.001h-6.5v-11.201h6.5v-10.601
			L391.955,350.447z"/>
		<path style="fill:#FFFFFF;" d="M427.354,350.847c0,4.2-3.2,7.601-8.201,7.601c-4.8,0-8-3.4-7.9-7.601c-0.1-4.4,3.101-7.7,8-7.7
			C424.153,343.146,427.253,346.446,427.354,350.847z M411.653,413.351v-48.903h15.201v48.903H411.653z"/>
		<path style="fill:#FFFFFF;" d="M509.254,411.451c-2.8,1.399-9.101,2.899-17.301,2.899c-23.301,0-35.302-14.501-35.302-33.702
			c0-23.001,16.401-35.802,36.802-35.802c7.901,0,13.901,1.6,16.601,3l-3.1,12.101c-3.1-1.3-7.4-2.5-12.801-2.5
			c-12.101,0-21.501,7.3-21.501,22.301c0,13.501,8,22.001,21.602,22.001c4.6,0,9.701-1,12.701-2.2L509.254,411.451z"/>
		<path style="fill:#FFFFFF;" d="M567.053,388.35c0,17.9-12.701,26.102-25.803,26.102c-14.301,0-25.301-9.4-25.301-25.202
			c0-15.801,10.4-25.901,26.102-25.901C557.052,363.348,567.053,373.648,567.053,388.35z M531.65,388.85c0,8.4,3.5,14.7,10,14.7
			c5.9,0,9.701-5.9,9.701-14.7c0-7.301-2.801-14.701-9.701-14.701C534.35,374.148,531.65,381.648,531.65,388.85z"/>
		<path style="fill:#FFFFFF;" d="M576.449,380.549c0-7.201-0.2-11.901-0.4-16.101h13.102l0.5,9h0.4
			c2.5-7.101,8.5-10.101,13.199-10.101c1.4,0,2.102,0,3.201,0.2v14.301c-1.1-0.2-2.4-0.4-4.102-0.4c-5.6,0-9.4,3-10.4,7.7
			c-0.199,1-0.299,2.201-0.299,3.4v24.802h-15.201V380.549z"/>
		<path style="fill:#FFFFFF;" d="M626.148,393.75c0.5,6.3,6.701,9.3,13.801,9.3c5.199,0,9.4-0.7,13.5-2l2,10.301
			c-5,2-11.1,3-17.701,3c-16.6,0-26.102-9.601-26.102-24.901c0-12.401,7.701-26.102,24.703-26.102
			c15.801,0,21.801,12.301,21.801,24.401c0,2.601-0.301,4.9-0.5,6.001H626.148z M644.049,383.349c0-3.7-1.6-9.9-8.6-9.9
			c-6.4,0-9,5.8-9.4,9.9H644.049z"/>
		<path style="fill:#FFFFFF;" d="M728.049,384.849h-24.801v16.001h27.701v12.501h-43.002v-67.404h41.602v12.501h-26.301v14.001
			h24.801V384.849z"/>
		<path style="fill:#FFFFFF;" d="M740.846,380.549c0-7.201-0.199-11.901-0.4-16.101h13.102l0.5,9h0.4
			c2.5-7.101,8.5-10.101,13.201-10.101c1.398,0,2.1,0,3.199,0.2v14.301c-1.1-0.2-2.4-0.4-4.1-0.4c-5.602,0-9.4,3-10.4,7.7
			c-0.201,1-0.301,2.201-0.301,3.4v24.802h-15.201V380.549z"/>
		<path style="fill:#FFFFFF;" d="M806.646,413.351l-0.9-4.9h-0.299c-3.201,3.9-8.201,6.001-14.002,6.001
			c-9.9,0-15.801-7.201-15.801-15.002c0-12.7,11.4-18.801,28.701-18.701v-0.7c0-2.6-1.398-6.3-8.9-6.3c-5,0-10.301,1.7-13.5,3.7
			l-2.801-9.8c3.4-1.9,10.102-4.3,19.002-4.3c16.301,0,21.502,9.601,21.502,21.101v17c0,4.701,0.199,9.201,0.699,11.901H806.646z
			 M804.846,390.249c-8-0.1-14.199,1.8-14.199,7.7c0,3.9,2.6,5.801,6,5.801c3.801,0,6.9-2.5,7.9-5.601
			c0.199-0.8,0.299-1.7,0.299-2.601V390.249z"/>
	</g>
</g>
<g id="jfx:p02">
	<g>
		<path style="fill:#FFFFFF;" d="M152.053,156.031v-4.417l4.032-3.648c6.817-6.097,10.129-9.601,10.225-13.25
			c0-2.544-1.536-4.56-5.137-4.56c-2.688,0-5.04,1.344-6.672,2.592l-2.064-5.232c2.352-1.776,6-3.216,10.225-3.216
			c7.057,0,10.945,4.128,10.945,9.793c0,5.232-3.792,9.409-8.305,13.441l-2.88,2.4v0.096h11.761v6H152.053z"/>
		<path style="fill:#FFFFFF;" d="M201.735,140.286c0,9.648-3.888,16.273-11.857,16.273c-8.065,0-11.617-7.249-11.665-16.081
			c0-9.025,3.84-16.178,11.905-16.178C198.471,124.3,201.735,131.741,201.735,140.286z M185.558,140.478
			c-0.048,7.152,1.68,10.561,4.512,10.561c2.833,0,4.369-3.553,4.369-10.657c0-6.913-1.488-10.561-4.417-10.561
			C187.333,129.821,185.51,133.229,185.558,140.478z"/>
		<path style="fill:#FFFFFF;" d="M228.375,140.286c0,9.648-3.888,16.273-11.857,16.273c-8.065,0-11.617-7.249-11.665-16.081
			c0-9.025,3.84-16.178,11.905-16.178C225.11,124.3,228.375,131.741,228.375,140.286z M212.197,140.478
			c-0.048,7.152,1.68,10.561,4.512,10.561c2.833,0,4.369-3.553,4.369-10.657c0-6.913-1.488-10.561-4.417-10.561
			C213.973,129.821,212.149,133.229,212.197,140.478z"/>
		<path style="fill:#FFFFFF;" d="M244.885,156.031v-7.44H231.06v-4.752l11.809-19.01h8.929v18.29h3.745v5.473h-3.745v7.44H244.885z
			 M244.885,143.118v-6.913c0-1.872,0.096-3.792,0.24-5.809h-0.192c-1.008,2.016-1.824,3.84-2.88,5.809l-4.176,6.816v0.096H244.885z
			"/>
		<path style="fill:#FFFFFF;" d="M276.756,123.676v18.626c0,5.568,2.112,8.4,5.856,8.4c3.84,0,5.953-2.688,5.953-8.4v-18.626h7.297
			v18.146c0,9.984-5.041,14.737-13.489,14.737c-8.161,0-12.961-4.512-12.961-14.833v-18.05H276.756z"/>
		<path style="fill:#FFFFFF;" d="M301.956,121.948h7.297v34.083h-7.297V121.948z"/>
		<path style="fill:#FFFFFF;" d="M323.316,125.836v6.721h5.232v5.376h-5.232v8.497c0,2.832,0.672,4.128,2.88,4.128
			c0.912,0,1.632-0.096,2.16-0.192l0.048,5.521c-0.96,0.384-2.688,0.624-4.752,0.624c-2.352,0-4.32-0.816-5.472-2.016
			c-1.344-1.392-2.016-3.648-2.016-6.96v-9.601h-3.121v-5.376h3.121v-5.088L323.316,125.836z"/>
		<path style="fill:#FFFFFF;" d="M332.771,140.286c0-3.457-0.096-5.713-0.192-7.729h6.289l0.24,4.32h0.192
			c1.2-3.408,4.08-4.848,6.336-4.848c0.672,0,1.008,0,1.536,0.096v6.865c-0.528-0.096-1.152-0.192-1.968-0.192
			c-2.688,0-4.512,1.44-4.992,3.696c-0.096,0.48-0.144,1.056-0.144,1.632v11.905h-7.297V140.286z"/>
		<path style="fill:#FFFFFF;" d="M364.355,156.031l-0.432-2.352h-0.144c-1.536,1.872-3.936,2.88-6.721,2.88
			c-4.752,0-7.584-3.456-7.584-7.2c0-6.097,5.473-9.025,13.777-8.977v-0.336c0-1.248-0.672-3.024-4.272-3.024
			c-2.4,0-4.944,0.816-6.48,1.776l-1.344-4.705c1.632-0.912,4.849-2.064,9.121-2.064c7.825,0,10.321,4.608,10.321,10.129v8.161
			c0,2.256,0.096,4.417,0.336,5.712H364.355z M363.491,144.942c-3.84-0.048-6.816,0.864-6.816,3.696c0,1.872,1.248,2.784,2.88,2.784
			c1.824,0,3.312-1.2,3.792-2.688c0.096-0.384,0.144-0.816,0.144-1.248V144.942z"/>
		<path style="fill:#FFFFFF;" d="M376.834,148.495c1.968,1.008,4.993,2.016,8.113,2.016c3.36,0,5.136-1.392,5.136-3.504
			c0-2.016-1.536-3.168-5.424-4.56c-5.376-1.873-8.881-4.849-8.881-9.553c0-5.521,4.608-9.745,12.241-9.745
			c3.648,0,6.336,0.768,8.257,1.632l-1.632,5.904c-1.296-0.624-3.6-1.536-6.769-1.536s-4.705,1.44-4.705,3.12
			c0,2.064,1.824,2.977,6,4.561c5.713,2.112,8.401,5.088,8.401,9.649c0,5.424-4.176,10.033-13.057,10.033
			c-3.696,0-7.345-0.96-9.169-1.968L376.834,148.495z"/>
		<path style="fill:#FFFFFF;" d="M402.514,124.108c2.256-0.384,5.424-0.672,9.889-0.672c4.512,0,7.729,0.864,9.889,2.592
			c2.064,1.632,3.457,4.32,3.457,7.488c0,3.168-1.056,5.857-2.977,7.681c-2.496,2.353-6.192,3.409-10.513,3.409
			c-0.96,0-1.824-0.048-2.496-0.144v11.569h-7.249V124.108z M409.763,138.798c0.624,0.144,1.392,0.192,2.448,0.192
			c3.888,0,6.289-1.968,6.289-5.28c0-2.977-2.064-4.752-5.712-4.752c-1.488,0-2.497,0.144-3.024,0.288V138.798z"/>
		<path style="fill:#FFFFFF;" d="M437.938,147.727l-2.304,8.305h-7.585l9.889-32.355h9.601l10.033,32.355h-7.873l-2.496-8.305
			H437.938z M446.147,142.254l-2.016-6.864c-0.576-1.92-1.152-4.32-1.632-6.241h-0.096c-0.48,1.92-0.96,4.368-1.488,6.241
			l-1.92,6.864H446.147z"/>
		<path style="fill:#FFFFFF;" d="M461.889,124.108c2.352-0.384,5.856-0.672,9.745-0.672c4.8,0,8.161,0.72,10.465,2.544
			c1.92,1.536,2.977,3.792,2.977,6.769c0,4.128-2.929,6.961-5.713,7.969v0.144c2.256,0.912,3.504,3.072,4.32,6.049
			c1.008,3.648,2.017,7.873,2.641,9.121h-7.489c-0.528-0.912-1.296-3.552-2.256-7.537c-0.864-4.032-2.256-5.136-5.232-5.185h-2.208
			v12.721h-7.249V124.108z M469.138,138.03h2.88c3.648,0,5.808-1.824,5.808-4.657c0-2.976-2.016-4.464-5.376-4.512
			c-1.776,0-2.784,0.144-3.312,0.24V138.03z"/>
		<path style="fill:#FFFFFF;" d="M514.114,155.119c-1.344,0.672-4.368,1.392-8.305,1.392c-11.185,0-16.945-6.96-16.945-16.177
			c0-11.041,7.873-17.186,17.666-17.186c3.792,0,6.672,0.768,7.968,1.44l-1.488,5.809c-1.488-0.624-3.552-1.2-6.144-1.2
			c-5.809,0-10.321,3.504-10.321,10.705c0,6.48,3.84,10.561,10.369,10.561c2.208,0,4.657-0.48,6.096-1.056L514.114,155.119z"/>
		<path style="fill:#FFFFFF;" d="M535.952,123.676v32.355h-7.345v-32.355H535.952z"/>
		<path style="fill:#FFFFFF;" d="M549.919,156.031l-10.369-32.355h8.017l3.937,13.681c1.104,3.84,2.112,7.537,2.881,11.569h0.144
			c0.816-3.889,1.824-7.729,2.929-11.425l4.128-13.825h7.776l-10.896,32.355H549.919z"/>
	</g>
	<g>
		<path style="fill:#FFFFFF;" d="M208.056,212.031v-4.417l4.032-3.648c6.817-6.097,10.129-9.601,10.225-13.25
			c0-2.544-1.536-4.56-5.137-4.56c-2.688,0-5.04,1.344-6.672,2.592l-2.064-5.232c2.352-1.776,6-3.216,10.225-3.216
			c7.057,0,10.945,4.128,10.945,9.793c0,5.232-3.792,9.409-8.305,13.441l-2.88,2.4v0.096h11.761v6H208.056z"/>
		<path style="fill:#FFFFFF;" d="M269.305,211.119c-1.344,0.672-4.368,1.392-8.305,1.392c-11.185,0-16.945-6.96-16.945-16.177
			c0-11.041,7.873-17.186,17.666-17.186c3.792,0,6.672,0.768,7.969,1.44l-1.488,5.809c-1.488-0.624-3.552-1.2-6.145-1.2
			c-5.809,0-10.321,3.504-10.321,10.705c0,6.48,3.84,10.561,10.369,10.561c2.208,0,4.657-0.48,6.097-1.056L269.305,211.119z"/>
		<path style="fill:#FFFFFF;" d="M297.048,200.03c0,8.593-6.097,12.529-12.385,12.529c-6.864,0-12.145-4.512-12.145-12.097
			c0-7.585,4.993-12.433,12.529-12.433C292.248,188.029,297.048,192.974,297.048,200.03z M280.055,200.27
			c0,4.033,1.68,7.057,4.801,7.057c2.832,0,4.656-2.832,4.656-7.057c0-3.504-1.344-7.056-4.656-7.056
			C281.351,193.214,280.055,196.814,280.055,200.27z"/>
		<path style="fill:#FFFFFF;" d="M301.558,196.286c0-3.457-0.096-5.713-0.192-7.729h6.289l0.24,4.32h0.192
			c1.2-3.408,4.08-4.848,6.336-4.848c0.672,0,1.008,0,1.536,0.096v6.865c-0.528-0.096-1.152-0.192-1.968-0.192
			c-2.688,0-4.512,1.44-4.993,3.696c-0.096,0.48-0.144,1.056-0.144,1.632v11.905h-7.297V196.286z"/>
		<path style="fill:#FFFFFF;" d="M325.415,202.623c0.24,3.024,3.216,4.464,6.625,4.464c2.496,0,4.512-0.336,6.48-0.96l0.96,4.944
			c-2.4,0.96-5.329,1.44-8.497,1.44c-7.969,0-12.529-4.608-12.529-11.953c0-5.952,3.696-12.529,11.857-12.529
			c7.584,0,10.465,5.904,10.465,11.713c0,1.248-0.144,2.352-0.24,2.88H325.415z M334.007,197.63c0-1.776-0.768-4.752-4.128-4.752
			c-3.072,0-4.32,2.784-4.513,4.752H334.007z"/>
	</g>
	<image style="overflow:visible;" width="300" height="260" xlink:href="5E60977D.jpg"  transform="matrix(1 0 0 1 635 33.9937)">
	</image>
</g>
<g id="jfx:p03">
	<g>
		<path style="fill:#FFFFFF;" d="M152.053,515.015v-4.417l4.032-3.647c6.817-6.097,10.129-9.601,10.225-13.249
			c0-2.545-1.536-4.561-5.137-4.561c-2.688,0-5.04,1.344-6.672,2.592l-2.064-5.232c2.352-1.775,6-3.217,10.225-3.217
			c7.057,0,10.945,4.129,10.945,9.793c0,5.232-3.792,9.409-8.305,13.441l-2.88,2.4v0.096h11.761v6.001H152.053z"/>
		<path style="fill:#FFFFFF;" d="M201.735,499.27c0,9.648-3.888,16.273-11.857,16.273c-8.065,0-11.617-7.249-11.665-16.082
			c0-9.024,3.84-16.178,11.905-16.178C198.471,483.283,201.735,490.725,201.735,499.27z M185.558,499.461
			c-0.048,7.152,1.68,10.562,4.512,10.562c2.833,0,4.369-3.553,4.369-10.657c0-6.912-1.488-10.561-4.417-10.561
			C187.333,488.805,185.51,492.213,185.558,499.461z"/>
		<path style="fill:#FFFFFF;" d="M214.646,490.293h-0.096l-5.953,2.832l-1.2-5.473l8.256-3.84h6.049v31.202h-7.057V490.293z"/>
		<path style="fill:#FFFFFF;" d="M231.972,515.015v-4.417l4.032-3.647c6.817-6.097,10.129-9.601,10.225-13.249
			c0-2.545-1.536-4.561-5.137-4.561c-2.688,0-5.04,1.344-6.672,2.592l-2.064-5.232c2.352-1.775,6-3.217,10.225-3.217
			c7.057,0,10.945,4.129,10.945,9.793c0,5.232-3.792,9.409-8.305,13.441l-2.88,2.4v0.096h11.761v6.001H231.972z"/>
		<path style="fill:#FFFFFF;" d="M286.501,515.015l-2.928-5.856c-1.2-2.256-1.968-3.937-2.88-5.809h-0.096
			c-0.672,1.872-1.488,3.553-2.496,5.809l-2.688,5.856h-8.353l9.361-16.37l-9.025-15.984h8.401l2.832,5.904
			c0.96,1.969,1.68,3.553,2.448,5.377h0.096c0.768-2.064,1.392-3.505,2.208-5.377l2.736-5.904h8.353l-9.121,15.793l9.601,16.562
			H286.501z"/>
		<path style="fill:#FFFFFF;" d="M304.26,505.605c0.24,3.024,3.216,4.465,6.625,4.465c2.496,0,4.512-0.336,6.48-0.96l0.96,4.944
			c-2.4,0.96-5.329,1.439-8.497,1.439c-7.969,0-12.529-4.607-12.529-11.953c0-5.951,3.696-12.528,11.857-12.528
			c7.584,0,10.465,5.904,10.465,11.713c0,1.248-0.144,2.353-0.24,2.88H304.26z M312.853,500.613c0-1.775-0.768-4.752-4.128-4.752
			c-3.072,0-4.32,2.783-4.513,4.752H312.853z"/>
		<path style="fill:#FFFFFF;" d="M347.173,503.014c0,8.593-6.097,12.529-12.385,12.529c-6.864,0-12.145-4.513-12.145-12.098
			c0-7.584,4.993-12.433,12.529-12.433C342.373,491.013,347.173,495.957,347.173,503.014z M330.179,503.254
			c0,4.032,1.68,7.057,4.801,7.057c2.832,0,4.656-2.832,4.656-7.057c0-3.504-1.344-7.057-4.656-7.057
			C331.476,496.197,330.179,499.797,330.179,503.254z"/>
		<path style="fill:#FFFFFF;" d="M351.683,499.029c0-2.928-0.096-5.424-0.192-7.488h6.336l0.336,3.216h0.144
			c0.96-1.488,3.36-3.744,7.249-3.744c4.801,0,8.401,3.168,8.401,10.081v13.921h-7.296v-13.009c0-3.024-1.056-5.089-3.696-5.089
			c-2.017,0-3.216,1.392-3.697,2.736c-0.192,0.433-0.288,1.152-0.288,1.824v13.537h-7.297V499.029z"/>
		<path style="fill:#FFFFFF;" d="M389.747,483.092c2.256-0.384,5.424-0.672,9.889-0.672c4.512,0,7.729,0.863,9.889,2.592
			c2.064,1.633,3.457,4.32,3.457,7.488c0,3.169-1.056,5.857-2.977,7.682c-2.496,2.352-6.192,3.408-10.513,3.408
			c-0.96,0-1.824-0.049-2.496-0.145v11.569h-7.249V483.092z M396.995,497.781c0.624,0.145,1.392,0.191,2.448,0.191
			c3.888,0,6.289-1.968,6.289-5.279c0-2.977-2.064-4.753-5.712-4.753c-1.488,0-2.497,0.144-3.024,0.288V497.781z"/>
		<path style="fill:#FFFFFF;" d="M417.394,480.932h7.297v13.393h0.096c0.768-1.008,1.728-1.775,2.88-2.399
			c1.056-0.576,2.448-0.912,3.792-0.912c4.656,0,8.208,3.216,8.208,10.272v13.729h-7.296v-12.913c0-3.072-1.056-5.185-3.792-5.185
			c-1.92,0-3.12,1.248-3.648,2.544c-0.192,0.48-0.24,1.104-0.24,1.633v13.921h-7.297V480.932z"/>
		<path style="fill:#FFFFFF;" d="M453.059,485.012c0,2.017-1.536,3.648-3.937,3.648c-2.304,0-3.84-1.632-3.792-3.648
			c-0.048-2.111,1.488-3.695,3.84-3.695S453.011,482.9,453.059,485.012z M445.522,515.015v-23.474h7.297v23.474H445.522z"/>
	</g>
	<g>
		
			<image style="overflow:visible;opacity:0.75;" width="428" height="321" xlink:href="5E60977F.png"  transform="matrix(1 0 0 1 559 387.999)">
		</image>
		<g>
			
				<image style="overflow:visible;" width="559" height="395" xlink:href="5E60977A.jpg"  transform="matrix(0.6581 0 0 0.6581 589.0029 418.9873)">
			</image>
		</g>
	</g>
	<g>
		<path style="fill:#FFFFFF;" d="M227.978,547.014c-0.816-0.049-1.68,0-2.833,0.096c-6.48,0.527-9.361,3.84-10.177,7.488h0.144
			c1.536-1.584,3.696-2.496,6.625-2.496c5.232,0,9.649,3.696,9.649,10.177c0,6.192-4.752,11.28-11.521,11.28
			c-8.305,0-12.385-6.191-12.385-13.633c0-5.855,2.16-10.752,5.521-13.873c3.121-2.832,7.153-4.368,12.049-4.608
			c1.344-0.096,2.208-0.096,2.928-0.048V547.014z M223.994,562.662c0-2.88-1.536-5.376-4.656-5.376c-1.968,0-3.601,1.2-4.321,2.784
			c-0.192,0.384-0.288,0.96-0.288,1.824c0.144,3.313,1.728,6.288,5.04,6.288C222.361,568.183,223.994,565.83,223.994,562.662z"/>
		<path style="fill:#FFFFFF;" d="M257.738,557.286c0,9.648-3.888,16.272-11.857,16.272c-8.065,0-11.617-7.248-11.665-16.08
			c0-9.025,3.84-16.178,11.905-16.178C254.474,541.301,257.738,548.741,257.738,557.286z M241.561,557.479
			c-0.048,7.152,1.68,10.561,4.512,10.561c2.833,0,4.369-3.553,4.369-10.657c0-6.913-1.488-10.562-4.417-10.562
			C243.336,546.82,241.513,550.229,241.561,557.479z"/>
		<path style="fill:#FFFFFF;" d="M295.945,572.119c-1.344,0.672-4.368,1.393-8.305,1.393c-11.185,0-16.945-6.961-16.945-16.178
			c0-11.041,7.873-17.186,17.666-17.186c3.792,0,6.672,0.768,7.969,1.439l-1.488,5.809c-1.488-0.623-3.552-1.199-6.145-1.199
			c-5.809,0-10.321,3.504-10.321,10.705c0,6.48,3.84,10.561,10.369,10.561c2.208,0,4.657-0.48,6.097-1.057L295.945,572.119z"/>
		<path style="fill:#FFFFFF;" d="M323.688,561.03c0,8.593-6.097,12.528-12.385,12.528c-6.864,0-12.145-4.512-12.145-12.096
			c0-7.586,4.993-12.434,12.529-12.434C318.888,549.029,323.688,553.974,323.688,561.03z M306.695,561.27
			c0,4.033,1.68,7.057,4.801,7.057c2.832,0,4.656-2.832,4.656-7.057c0-3.504-1.344-7.056-4.656-7.056
			C307.991,554.214,306.695,557.814,306.695,561.27z"/>
		<path style="fill:#FFFFFF;" d="M328.198,557.286c0-3.456-0.096-5.713-0.192-7.729h6.289l0.24,4.32h0.192
			c1.2-3.408,4.08-4.848,6.336-4.848c0.672,0,1.008,0,1.536,0.096v6.865c-0.528-0.097-1.152-0.192-1.968-0.192
			c-2.688,0-4.512,1.44-4.993,3.696c-0.096,0.48-0.144,1.057-0.144,1.632v11.905h-7.297V557.286z"/>
		<path style="fill:#FFFFFF;" d="M352.055,563.623c0.24,3.023,3.216,4.464,6.625,4.464c2.496,0,4.512-0.336,6.48-0.96l0.96,4.944
			c-2.4,0.96-5.329,1.44-8.497,1.44c-7.969,0-12.529-4.609-12.529-11.953c0-5.953,3.696-12.529,11.857-12.529
			c7.584,0,10.465,5.904,10.465,11.713c0,1.248-0.144,2.352-0.24,2.881H352.055z M360.647,558.63c0-1.776-0.768-4.753-4.128-4.753
			c-3.072,0-4.32,2.785-4.513,4.753H360.647z"/>
		<path style="fill:#FFFFFF;" d="M393.479,573.031v-7.44h-13.825v-4.753l11.809-19.01h8.929v18.29h3.745v5.473h-3.745v7.44H393.479z
			 M393.479,560.118v-6.913c0-1.871,0.096-3.792,0.24-5.809h-0.192c-1.008,2.017-1.824,3.841-2.88,5.809l-4.176,6.816v0.097H393.479
			z"/>
		<path style="fill:#FFFFFF;" d="M424.293,546.82h-8.688v-6.145h24.866v6.145h-8.833v26.211h-7.345V546.82z"/>
		<path style="fill:#FFFFFF;" d="M444.117,538.948h7.297v13.394h0.096c0.768-1.008,1.728-1.776,2.88-2.4
			c1.056-0.576,2.448-0.912,3.792-0.912c4.656,0,8.208,3.217,8.208,10.273v13.729h-7.296v-12.913c0-3.072-1.056-5.185-3.792-5.185
			c-1.92,0-3.12,1.248-3.648,2.545c-0.192,0.479-0.24,1.104-0.24,1.631v13.922h-7.297V538.948z"/>
		<path style="fill:#FFFFFF;" d="M472.245,557.286c0-3.456-0.096-5.713-0.192-7.729h6.289l0.24,4.32h0.192
			c1.2-3.408,4.08-4.848,6.336-4.848c0.672,0,1.008,0,1.536,0.096v6.865c-0.528-0.097-1.152-0.192-1.968-0.192
			c-2.688,0-4.512,1.44-4.992,3.696c-0.096,0.48-0.144,1.057-0.144,1.632v11.905h-7.297V557.286z"/>
		<path style="fill:#FFFFFF;" d="M496.101,563.623c0.24,3.023,3.216,4.464,6.625,4.464c2.496,0,4.512-0.336,6.48-0.96l0.96,4.944
			c-2.4,0.96-5.329,1.44-8.497,1.44c-7.969,0-12.529-4.609-12.529-11.953c0-5.953,3.696-12.529,11.857-12.529
			c7.584,0,10.465,5.904,10.465,11.713c0,1.248-0.144,2.352-0.24,2.881H496.101z M504.693,558.63c0-1.776-0.768-4.753-4.128-4.753
			c-3.072,0-4.32,2.785-4.513,4.753H504.693z"/>
		<path style="fill:#FFFFFF;" d="M529.173,573.031l-0.433-2.352h-0.144c-1.536,1.871-3.937,2.879-6.721,2.879
			c-4.752,0-7.585-3.455-7.585-7.199c0-6.098,5.473-9.025,13.777-8.978v-0.336c0-1.248-0.672-3.024-4.271-3.024
			c-2.4,0-4.945,0.816-6.48,1.776l-1.345-4.704c1.632-0.912,4.849-2.064,9.12-2.064c7.825,0,10.322,4.608,10.322,10.129v8.16
			c0,2.257,0.096,4.417,0.336,5.713H529.173z M528.309,561.942c-3.84-0.048-6.816,0.864-6.816,3.696
			c0,1.872,1.248,2.784,2.881,2.784c1.824,0,3.312-1.2,3.791-2.688c0.097-0.384,0.145-0.816,0.145-1.248V561.942z"/>
		<path style="fill:#FFFFFF;" d="M563.926,538.948v27.074c0,2.641,0.096,5.425,0.191,7.009h-6.48l-0.336-3.456h-0.096
			c-1.488,2.64-4.32,3.983-7.345,3.983c-5.569,0-10.033-4.752-10.033-12.049c-0.048-7.92,4.896-12.48,10.513-12.48
			c2.881,0,5.137,1.008,6.193,2.641h0.096v-12.722H563.926z M556.629,559.494c0-0.385-0.049-0.912-0.096-1.297
			c-0.433-1.967-2.017-3.6-4.273-3.6c-3.312,0-5.04,2.977-5.04,6.672c0,3.984,1.968,6.481,4.993,6.481
			c2.111,0,3.792-1.44,4.224-3.505c0.144-0.527,0.192-1.056,0.192-1.68V559.494z"/>
	</g>
</g>
<g id="jfx:p04">
	<g>
		<path style="fill:#FFFFFF;" d="M84.044,263.553h32.96v10h-20.72v12.32h19.36v9.92h-19.36v21.681h-12.24V263.553z"/>
		<path style="fill:#FFFFFF;" d="M138.363,267.474c0,3.36-2.56,6.08-6.56,6.08c-3.84,0-6.4-2.72-6.32-6.08
			c-0.08-3.52,2.48-6.16,6.4-6.16C135.803,261.313,138.283,263.954,138.363,267.474z M125.803,317.475v-39.121h12.161v39.121
			H125.803z"/>
		<path style="fill:#FFFFFF;" d="M147.722,290.834c0-4.88-0.16-9.04-0.32-12.48h10.56l0.56,5.36h0.24c1.6-2.48,5.6-6.24,12.08-6.24
			c8,0,14,5.28,14,16.8v23.201h-12.16v-21.681c0-5.04-1.76-8.48-6.16-8.48c-3.36,0-5.36,2.32-6.16,4.56
			c-0.32,0.72-0.48,1.92-0.48,3.04v22.561h-12.161V290.834z"/>
		<path style="fill:#FFFFFF;" d="M203.962,301.794c0.4,5.04,5.36,7.44,11.041,7.44c4.16,0,7.52-0.56,10.8-1.6l1.6,8.24
			c-4,1.6-8.88,2.4-14.16,2.4c-13.28,0-20.88-7.68-20.88-19.92c0-9.92,6.16-20.88,19.76-20.88c12.641,0,17.44,9.84,17.44,19.521
			c0,2.08-0.24,3.92-0.4,4.8H203.962z M218.282,293.474c0-2.96-1.28-7.92-6.88-7.92c-5.12,0-7.2,4.64-7.521,7.92H218.282z"/>
		<path style="fill:#FFFFFF;" d="M298.443,314.995c-3.76,1.28-10.88,3.04-18,3.04c-9.84,0-16.96-2.48-21.92-7.28
			c-4.96-4.64-7.68-11.68-7.6-19.601c0.08-17.92,13.12-28.161,30.8-28.161c6.96,0,12.32,1.36,14.96,2.64l-2.56,9.76
			c-2.96-1.28-6.64-2.32-12.56-2.32c-10.16,0-17.84,5.76-17.84,17.44c0,11.12,6.96,17.68,16.96,17.68c2.8,0,5.041-0.32,6-0.8v-11.28
			h-8.32v-9.521h20.081V314.995z"/>
		<path style="fill:#FFFFFF;" d="M307.561,291.234c0-5.76-0.16-9.52-0.32-12.88h10.48l0.4,7.2h0.32c2-5.68,6.8-8.08,10.561-8.08
			c1.12,0,1.68,0,2.56,0.16v11.44c-0.88-0.16-1.92-0.32-3.28-0.32c-4.48,0-7.52,2.4-8.32,6.16c-0.16,0.8-0.24,1.76-0.24,2.72v19.84
			h-12.161V291.234z"/>
		<path style="fill:#FFFFFF;" d="M360.201,317.475l-0.72-3.92h-0.24c-2.56,3.12-6.56,4.8-11.2,4.8c-7.92,0-12.641-5.76-12.641-12
			c0-10.16,9.121-15.041,22.961-14.96v-0.56c0-2.08-1.12-5.04-7.12-5.04c-4,0-8.24,1.36-10.8,2.96l-2.24-7.84
			c2.72-1.52,8.08-3.44,15.2-3.44c13.041,0,17.201,7.68,17.201,16.88v13.601c0,3.76,0.16,7.36,0.56,9.52H360.201z M358.761,298.994
			c-6.4-0.08-11.36,1.44-11.36,6.16c0,3.12,2.08,4.64,4.8,4.64c3.04,0,5.52-2,6.32-4.48c0.16-0.64,0.24-1.36,0.24-2.08V298.994z"/>
		<path style="fill:#FFFFFF;" d="M392.761,267.474c0,3.36-2.56,6.08-6.56,6.08c-3.84,0-6.4-2.72-6.32-6.08
			c-0.08-3.52,2.48-6.16,6.4-6.16C390.201,261.313,392.681,263.954,392.761,267.474z M380.2,317.475v-39.121h12.161v39.121H380.2z"
			/>
		<path style="fill:#FFFFFF;" d="M402.119,290.834c0-4.88-0.16-9.04-0.32-12.48h10.56l0.56,5.36h0.24c1.6-2.48,5.6-6.24,12.08-6.24
			c8,0,14,5.28,14,16.8v23.201h-12.16v-21.681c0-5.04-1.76-8.48-6.16-8.48c-3.36,0-5.36,2.32-6.16,4.56
			c-0.32,0.72-0.48,1.92-0.48,3.04v22.561h-12.161V290.834z"/>
		<path style="fill:#FFFFFF;" d="M458.359,301.794c0.4,5.04,5.36,7.44,11.04,7.44c4.16,0,7.521-0.56,10.801-1.6l1.6,8.24
			c-4,1.6-8.88,2.4-14.16,2.4c-13.28,0-20.88-7.68-20.88-19.92c0-9.92,6.16-20.88,19.76-20.88c12.641,0,17.44,9.84,17.44,19.521
			c0,2.08-0.24,3.92-0.4,4.8H458.359z M472.68,293.474c0-2.96-1.28-7.92-6.88-7.92c-5.12,0-7.2,4.64-7.521,7.92H472.68z"/>
		<path style="fill:#FFFFFF;" d="M529.16,260.673v45.121c0,4.4,0.16,9.04,0.32,11.68H518.68l-0.56-5.76h-0.16
			c-2.479,4.4-7.2,6.64-12.24,6.64c-9.28,0-16.721-7.92-16.721-20.08c-0.079-13.201,8.16-20.801,17.521-20.801
			c4.801,0,8.561,1.68,10.32,4.4H517v-21.201H529.16z M517,294.914c0-0.64-0.08-1.52-0.16-2.16c-0.72-3.28-3.359-6-7.12-6
			c-5.52,0-8.4,4.96-8.4,11.12c0,6.64,3.28,10.8,8.32,10.8c3.521,0,6.32-2.4,7.04-5.84c0.24-0.88,0.32-1.76,0.32-2.8V294.914z"/>
		<path style="fill:#FFFFFF;" d="M555.479,264.273c3.76-0.64,9.04-1.12,16.48-1.12c7.52,0,12.88,1.44,16.48,4.32
			c3.439,2.72,5.76,7.2,5.76,12.48c0,5.28-1.76,9.76-4.96,12.8c-4.16,3.92-10.32,5.68-17.521,5.68c-1.6,0-3.04-0.08-4.16-0.24v19.28
			h-12.08V264.273z M567.56,288.754c1.04,0.24,2.32,0.32,4.08,0.32c6.48,0,10.48-3.28,10.48-8.8c0-4.96-3.44-7.92-9.521-7.92
			c-2.479,0-4.16,0.24-5.04,0.48V288.754z"/>
		<path style="fill:#FFFFFF;" d="M623.8,317.475l-0.721-3.92h-0.24c-2.56,3.12-6.56,4.8-11.2,4.8c-7.92,0-12.64-5.76-12.64-12
			c0-10.16,9.12-15.041,22.96-14.96v-0.56c0-2.08-1.12-5.04-7.12-5.04c-4,0-8.24,1.36-10.8,2.96l-2.24-7.84
			c2.72-1.52,8.08-3.44,15.2-3.44c13.04,0,17.2,7.68,17.2,16.88v13.601c0,3.76,0.16,7.36,0.561,9.52H623.8z M622.359,298.994
			c-6.4-0.08-11.36,1.44-11.36,6.16c0,3.12,2.08,4.64,4.8,4.64c3.04,0,5.521-2,6.32-4.48c0.16-0.64,0.24-1.36,0.24-2.08V298.994z"/>
		<path style="fill:#FFFFFF;" d="M643.799,291.234c0-5.76-0.16-9.52-0.319-12.88h10.479l0.4,7.2h0.32c2-5.68,6.8-8.08,10.56-8.08
			c1.12,0,1.681,0,2.561,0.16v11.44c-0.88-0.16-1.92-0.32-3.28-0.32c-4.48,0-7.521,2.4-8.32,6.16c-0.16,0.8-0.24,1.76-0.24,2.72
			v19.84h-12.16V291.234z"/>
		<path style="fill:#FFFFFF;" d="M696.439,317.475l-0.721-3.92h-0.24c-2.56,3.12-6.56,4.8-11.2,4.8c-7.92,0-12.64-5.76-12.64-12
			c0-10.16,9.12-15.041,22.96-14.96v-0.56c0-2.08-1.12-5.04-7.12-5.04c-4,0-8.24,1.36-10.8,2.96l-2.24-7.84
			c2.72-1.52,8.08-3.44,15.2-3.44c13.04,0,17.2,7.68,17.2,16.88v13.601c0,3.76,0.16,7.36,0.561,9.52H696.439z M694.999,298.994
			c-6.4-0.08-11.36,1.44-11.36,6.16c0,3.12,2.08,4.64,4.8,4.64c3.04,0,5.521-2,6.32-4.48c0.16-0.64,0.24-1.36,0.24-2.08V298.994z"/>
		<path style="fill:#FFFFFF;" d="M716.438,260.673h12.16v56.801h-12.16V260.673z"/>
		<path style="fill:#FFFFFF;" d="M738.438,260.673h12.16v56.801h-12.16V260.673z"/>
		<path style="fill:#FFFFFF;" d="M769.799,301.794c0.4,5.04,5.36,7.44,11.04,7.44c4.16,0,7.521-0.56,10.801-1.6l1.6,8.24
			c-4,1.6-8.88,2.4-14.16,2.4c-13.28,0-20.881-7.68-20.881-19.92c0-9.92,6.16-20.88,19.761-20.88c12.641,0,17.44,9.84,17.44,19.521
			c0,2.08-0.24,3.92-0.4,4.8H769.799z M784.119,293.474c0-2.96-1.28-7.92-6.88-7.92c-5.12,0-7.2,4.64-7.521,7.92H784.119z"/>
		<path style="fill:#FFFFFF;" d="M802.679,260.673h12.16v56.801h-12.16V260.673z"/>
		<path style="fill:#FFFFFF;" d="M837.239,267.474c0,3.36-2.561,6.08-6.561,6.08c-3.84,0-6.399-2.72-6.319-6.08
			c-0.08-3.52,2.479-6.16,6.399-6.16S837.159,263.954,837.239,267.474z M824.679,317.475v-39.121h12.16v39.121H824.679z"/>
		<path style="fill:#FFFFFF;" d="M846.518,306.834c2.24,1.36,6.881,2.96,10.48,2.96c3.68,0,5.2-1.28,5.2-3.28
			c0-2-1.2-2.96-5.76-4.48c-8.08-2.72-11.2-7.12-11.121-11.76c0-7.28,6.24-12.8,15.921-12.8c4.56,0,8.641,1.04,11.04,2.24l-2.16,8.4
			c-1.76-0.96-5.12-2.24-8.479-2.24c-2.961,0-4.641,1.2-4.641,3.2c0,1.84,1.521,2.8,6.32,4.48c7.44,2.56,10.561,6.32,10.641,12.08
			c0,7.28-5.761,12.64-16.961,12.64c-5.12,0-9.68-1.12-12.641-2.72L846.518,306.834z"/>
		<path style="fill:#FFFFFF;" d="M881.317,290.834c0-4.88-0.16-9.04-0.319-12.48h10.24l0.56,5.28h0.24
			c1.68-2.48,5.12-6.16,11.84-6.16c5.04,0,9.04,2.56,10.721,6.64h0.16c1.439-2,3.199-3.6,5.04-4.72c2.16-1.28,4.56-1.92,7.439-1.92
			c7.521,0,13.201,5.28,13.201,16.96v23.041h-11.841v-21.28c0-5.68-1.84-8.96-5.76-8.96c-2.801,0-4.801,1.92-5.601,4.24
			c-0.32,0.88-0.479,2.16-0.479,3.12v22.88h-11.841v-21.92c0-4.96-1.76-8.32-5.6-8.32c-3.12,0-4.961,2.4-5.681,4.4
			c-0.399,0.96-0.479,2.08-0.479,3.041v22.8h-11.841V290.834z"/>
	</g>
</g>
<g id="jfx:p05">
	<g>
		<path style="fill:#FFFFFF;" d="M212.132,374.349h26.366v8h-16.575v9.855h15.487v7.936h-15.487v17.343h-9.792V374.349z"/>
		<path style="fill:#FFFFFF;" d="M276.449,401.482c0,11.455-8.127,16.703-16.511,16.703c-9.151,0-16.191-6.016-16.191-16.127
			s6.656-16.574,16.703-16.574C270.05,385.484,276.449,392.075,276.449,401.482z M253.795,401.803c0,5.375,2.24,9.407,6.399,9.407
			c3.776,0,6.208-3.776,6.208-9.407c0-4.672-1.792-9.407-6.208-9.407C255.523,392.396,253.795,397.195,253.795,401.803z"/>
		<path style="fill:#FFFFFF;" d="M282.467,396.491c0-4.608-0.128-7.616-0.256-10.304h8.383l0.32,5.76h0.256
			c1.6-4.543,5.44-6.463,8.448-6.463c0.896,0,1.344,0,2.048,0.127v9.152c-0.704-0.129-1.536-0.256-2.624-0.256
			c-3.584,0-6.016,1.919-6.655,4.927c-0.128,0.64-0.192,1.408-0.192,2.176v15.871h-9.727V396.491z"/>
		<path style="fill:#FFFFFF;" d="M316.514,399.371h0.128c0.704-1.28,1.472-2.561,2.24-3.775l6.335-9.408h11.711l-11.199,12.672
			l12.799,18.622h-11.967l-7.551-12.863l-2.496,3.071v9.792h-9.727v-45.437h9.727V399.371z"/>
		<path style="fill:#FFFFFF;" d="M338.594,420.041l13.695-46.396h6.464l-13.695,46.396H338.594z"/>
		<path style="fill:#FFFFFF;" d="M371.425,374.349h9.728v27.262c0,12.287-5.888,16.575-15.359,16.575
			c-2.24,0-5.184-0.385-7.104-1.023l1.088-7.872c1.344,0.448,3.072,0.769,4.992,0.769c4.096,0,6.655-1.856,6.655-8.576V374.349z"/>
		<path style="fill:#FFFFFF;" d="M419.871,401.482c0,11.455-8.127,16.703-16.511,16.703c-9.151,0-16.191-6.016-16.191-16.127
			s6.656-16.574,16.703-16.574C413.472,385.484,419.871,392.075,419.871,401.482z M397.217,401.803c0,5.375,2.24,9.407,6.399,9.407
			c3.776,0,6.208-3.776,6.208-9.407c0-4.672-1.792-9.407-6.208-9.407C398.945,392.396,397.217,397.195,397.217,401.803z"/>
		<path style="fill:#FFFFFF;" d="M435.937,377.484c0,2.688-2.048,4.864-5.248,4.864c-3.071,0-5.119-2.176-5.055-4.864
			c-0.064-2.816,1.984-4.928,5.12-4.928S435.873,374.668,435.937,377.484z M425.889,417.481v-31.294h9.727v31.294H425.889z"/>
		<path style="fill:#FFFFFF;" d="M443.424,396.171c0-3.903-0.128-7.231-0.256-9.983h8.447l0.448,4.288h0.192
			c1.28-1.983,4.48-4.991,9.664-4.991c6.399,0,11.199,4.223,11.199,13.438v18.559h-9.728v-17.343c0-4.031-1.408-6.783-4.928-6.783
			c-2.688,0-4.288,1.855-4.927,3.647c-0.256,0.576-0.384,1.536-0.384,2.432v18.047h-9.727V396.171z"/>
		<path style="fill:#FFFFFF;" d="M494.176,374.349h26.366v8h-16.575v9.855h15.487v7.936h-15.487v17.343h-9.792V374.349z"/>
		<path style="fill:#FFFFFF;" d="M527.584,396.491c0-4.608-0.129-7.616-0.256-10.304h8.383l0.32,5.76h0.256
			c1.6-4.543,5.439-6.463,8.447-6.463c0.896,0,1.344,0,2.048,0.127v9.152c-0.704-0.129-1.536-0.256-2.624-0.256
			c-3.584,0-6.016,1.919-6.655,4.927c-0.128,0.64-0.192,1.408-0.192,2.176v15.871h-9.727V396.491z"/>
		<path style="fill:#FFFFFF;" d="M569.693,417.481l-0.576-3.136h-0.191c-2.049,2.496-5.248,3.84-8.959,3.84
			c-6.336,0-10.111-4.607-10.111-9.6c0-8.127,7.295-12.031,18.366-11.967v-0.448c0-1.663-0.896-4.032-5.696-4.032
			c-3.199,0-6.591,1.088-8.639,2.369l-1.792-6.272c2.176-1.216,6.464-2.751,12.159-2.751c10.432,0,13.759,6.143,13.759,13.502v10.88
			c0,3.008,0.128,5.888,0.448,7.615H569.693z M568.541,402.699c-5.119-0.064-9.087,1.151-9.087,4.927
			c0,2.496,1.664,3.712,3.84,3.712c2.432,0,4.415-1.6,5.056-3.584c0.128-0.512,0.191-1.088,0.191-1.664V402.699z"/>
		<path style="fill:#FFFFFF;" d="M585.695,396.171c0-3.903-0.129-7.231-0.256-9.983h8.19l0.448,4.225h0.192
			c1.344-1.984,4.096-4.928,9.471-4.928c4.032,0,7.231,2.047,8.575,5.311h0.128c1.152-1.6,2.561-2.879,4.032-3.775
			c1.728-1.023,3.647-1.535,5.951-1.535c6.016,0,10.56,4.223,10.56,13.566v18.431h-9.472v-17.022c0-4.544-1.472-7.168-4.607-7.168
			c-2.239,0-3.84,1.536-4.479,3.393c-0.256,0.703-0.384,1.727-0.384,2.495v18.303h-9.472v-17.534c0-3.969-1.408-6.656-4.479-6.656
			c-2.496,0-3.968,1.92-4.544,3.52c-0.319,0.769-0.384,1.664-0.384,2.432v18.239h-9.471V396.171z"/>
		<path style="fill:#FFFFFF;" d="M648.222,404.938c0.319,4.032,4.287,5.952,8.831,5.952c3.328,0,6.016-0.449,8.64-1.281l1.279,6.592
			c-3.199,1.28-7.104,1.92-11.327,1.92c-10.623,0-16.702-6.143-16.702-15.935c0-7.936,4.927-16.702,15.807-16.702
			c10.111,0,13.951,7.871,13.951,15.614c0,1.664-0.192,3.136-0.32,3.84H648.222z M659.677,398.283c0-2.368-1.024-6.336-5.504-6.336
			c-4.096,0-5.76,3.712-6.016,6.336H659.677z"/>
		<path style="fill:#FFFFFF;" d="M681.245,386.188l2.496,12.799c0.64,3.264,1.28,6.72,1.792,10.304h0.128
			c0.64-3.584,1.536-7.167,2.304-10.239l3.328-12.863h7.679l3.136,12.479c0.832,3.52,1.664,7.039,2.305,10.623h0.128
			c0.447-3.584,1.088-7.104,1.791-10.687l2.688-12.416h9.535l-9.6,31.294h-9.151l-2.943-11.007
			c-0.769-3.072-1.344-5.888-1.984-9.728h-0.128c-0.576,3.903-1.216,6.783-2.048,9.728l-3.136,11.007h-9.151l-9.087-31.294H681.245z
			"/>
		<path style="fill:#FFFFFF;" d="M754.011,401.482c0,11.455-8.127,16.703-16.511,16.703c-9.151,0-16.19-6.016-16.19-16.127
			s6.655-16.574,16.702-16.574C747.611,385.484,754.011,392.075,754.011,401.482z M731.356,401.803c0,5.375,2.24,9.407,6.399,9.407
			c3.775,0,6.208-3.776,6.208-9.407c0-4.672-1.792-9.407-6.208-9.407C733.084,392.396,731.356,397.195,731.356,401.803z"/>
		<path style="fill:#FFFFFF;" d="M760.028,396.491c0-4.608-0.128-7.616-0.256-10.304h8.384l0.32,5.76h0.256
			c1.6-4.543,5.439-6.463,8.447-6.463c0.896,0,1.344,0,2.048,0.127v9.152c-0.704-0.129-1.536-0.256-2.624-0.256
			c-3.584,0-6.016,1.919-6.655,4.927c-0.128,0.64-0.192,1.408-0.192,2.176v15.871h-9.728V396.491z"/>
		<path style="fill:#FFFFFF;" d="M794.075,399.371h0.128c0.704-1.28,1.472-2.561,2.24-3.775l6.335-9.408h11.712l-11.199,12.672
			l12.799,18.622h-11.967l-7.552-12.863l-2.496,3.071v9.792h-9.728v-45.437h9.728V399.371z"/>
	</g>
</g>
</svg>
