<?xml version="1.0" encoding="iso-8859-1"?>
<!-- Generator: Adobe Illustrator 16.2.0, SVG Export Plug-In . SVG Version: 6.00 Build 0)  -->
<!DOCTYPE svg PUBLIC "-//W3C//DTD SVG 1.1//EN" "http://www.w3.org/Graphics/SVG/1.1/DTD/svg11.dtd">
<svg version="1.1" xmlns="http://www.w3.org/2000/svg" xmlns:xlink="http://www.w3.org/1999/xlink" x="0px" y="0px" width="1024px"
	 height="768px" viewBox="0 0 1024 768" style="enable-background:new 0 0 1024 768;" xml:space="preserve">
<g id="jfx:p00">
	<image style="overflow:visible;" width="1024" height="768" xlink:href="EDC2646.jpg" >
	</image>
</g>
<g id="jfx:p01">
	<rect style="opacity:0.7;fill:#FFFFFF;" width="1024" height="768"/>
</g>
<g id="jfx:p02">
	<g>
		<path d="M87.057,40.099v53.921h-12.24V40.099H87.057z"/>
		<path d="M110.816,43.699v11.2h8.72v8.96h-8.72v14.16c0,4.72,1.12,6.88,4.8,6.88c1.52,0,2.72-0.16,3.6-0.32l0.08,9.2
			c-1.6,0.64-4.48,1.04-7.92,1.04c-3.92,0-7.2-1.36-9.12-3.36c-2.24-2.32-3.36-6.08-3.36-11.6v-16h-5.2v-8.96h5.2v-8.48
			L110.816,43.699z"/>
		<path d="M135.935,78.34c0.4,5.04,5.36,7.44,11.041,7.44c4.16,0,7.52-0.56,10.8-1.6l1.6,8.24c-4,1.6-8.88,2.4-14.16,2.4
			c-13.28,0-20.88-7.68-20.88-19.92c0-9.92,6.16-20.88,19.76-20.88c12.641,0,17.44,9.84,17.44,19.521c0,2.08-0.24,3.92-0.4,4.8
			H135.935z M150.255,70.02c0-2.96-1.28-7.92-6.88-7.92c-5.12,0-7.2,4.64-7.521,7.92H150.255z"/>
		<path d="M168.815,67.78c0-5.76-0.16-9.52-0.32-12.88h10.48l0.4,7.2h0.32c2-5.68,6.8-8.08,10.561-8.08c1.12,0,1.68,0,2.56,0.16
			v11.44c-0.88-0.16-1.92-0.32-3.28-0.32c-4.48,0-7.52,2.4-8.32,6.16c-0.16,0.8-0.24,1.76-0.24,2.72v19.84h-12.161V67.78z"/>
		<path d="M221.455,94.021l-0.72-3.92h-0.24c-2.56,3.12-6.56,4.8-11.2,4.8c-7.92,0-12.641-5.76-12.641-12
			c0-10.16,9.121-15.041,22.961-14.96v-0.56c0-2.08-1.12-5.04-7.12-5.04c-4,0-8.24,1.36-10.8,2.96l-2.24-7.84
			c2.72-1.52,8.08-3.44,15.2-3.44c13.041,0,17.201,7.68,17.201,16.88V84.5c0,3.76,0.16,7.36,0.56,9.52H221.455z M220.015,75.54
			c-6.4-0.08-11.36,1.44-11.36,6.16c0,3.12,2.08,4.64,4.8,4.64c3.04,0,5.52-2,6.32-4.48c0.16-0.64,0.24-1.36,0.24-2.08V75.54z"/>
		<path d="M255.055,43.699v11.2h8.72v8.96h-8.72v14.16c0,4.72,1.12,6.88,4.8,6.88c1.52,0,2.72-0.16,3.6-0.32l0.08,9.2
			c-1.6,0.64-4.48,1.04-7.92,1.04c-3.92,0-7.2-1.36-9.12-3.36c-2.24-2.32-3.36-6.08-3.36-11.6v-16h-5.2v-8.96h5.2v-8.48
			L255.055,43.699z"/>
		<path d="M309.455,74.02c0,14.32-10.16,20.88-20.641,20.88c-11.44,0-20.24-7.52-20.24-20.16c0-12.641,8.32-20.721,20.88-20.721
			C301.455,54.02,309.455,62.26,309.455,74.02z M281.134,74.42c0,6.72,2.8,11.76,8,11.76c4.72,0,7.76-4.72,7.76-11.76
			c0-5.84-2.24-11.76-7.76-11.76C283.294,62.66,281.134,68.66,281.134,74.42z"/>
		<path d="M316.974,67.78c0-5.76-0.16-9.52-0.32-12.88h10.48l0.4,7.2h0.32c2-5.68,6.8-8.08,10.561-8.08c1.12,0,1.68,0,2.56,0.16
			v11.44c-0.88-0.16-1.92-0.32-3.28-0.32c-4.48,0-7.52,2.4-8.32,6.16c-0.16,0.8-0.24,1.76-0.24,2.72v19.84h-12.161V67.78z"/>
	</g>
</g>
<g id="jfx:p03">
	<g>
		<path d="M137.389,180.548h5.292v19.006h10.438v4.463h-15.73V180.548z"/>
		<path d="M157.98,186.164h12.454v17.854h-5.291v-13.714h-7.163V186.164z M164.028,180.333c0-1.944,1.476-3.312,3.527-3.312
			s3.527,1.368,3.527,3.312s-1.476,3.204-3.527,3.204S164.028,182.276,164.028,180.333z"/>
		<path d="M181.02,198.402c2.051,1.296,4.103,2.124,6.479,2.124c2.412,0,3.419-0.576,3.419-1.512c0-1.08-1.908-1.692-4.787-2.484
			c-3.132-0.864-6.372-2.375-6.372-5.219c0-3.312,3.132-5.579,8.243-5.579c3.167,0,5.831,1.26,7.703,2.448l-2.376,3.167
			c-1.62-0.972-3.348-1.692-5.219-1.692c-2.231,0-3.096,0.504-3.096,1.404c0,1.08,2.052,1.62,4.572,2.268
			c3.527,0.936,6.587,2.268,6.587,5.363c0,3.239-3.06,5.759-8.783,5.759c-3.204,0-6.479-1.224-8.747-2.736L181.02,198.402z"/>
		<path d="M204.599,190.303h-4.463v-3.923l4.715-0.216l0.684-4.751h4.355v4.751h7.523v4.139h-7.523v6.263
			c0,2.7,1.152,3.744,3.743,3.744c1.368,0,2.556-0.288,3.6-0.648l0.936,3.815c-1.584,0.468-3.563,0.972-5.867,0.972
			c-5.688,0-7.703-3.168-7.703-7.847V190.303z"/>
		<path d="M224.111,190.951l13.895-8.999v4.788l-9.539,5.975v0.144l9.539,5.975v4.788l-13.895-8.999V190.951z"/>
		<path d="M245.423,180.548h15.478v4.463h-10.187v5.436h8.675v4.463h-8.675v9.107h-5.291V180.548z"/>
		<path d="M273.934,185.732c4.715,0,9.106,3.419,9.106,9.359c0,5.939-4.391,9.359-9.106,9.359c-4.716,0-9.107-3.42-9.107-9.359
			C264.827,189.151,269.218,185.732,273.934,185.732z M273.934,200.166c2.447,0,3.671-1.979,3.671-5.075s-1.224-5.076-3.671-5.076
			c-2.448,0-3.672,1.98-3.672,5.076S271.486,200.166,273.934,200.166z"/>
		<path d="M295.533,185.732c4.715,0,9.106,3.419,9.106,9.359c0,5.939-4.391,9.359-9.106,9.359c-4.716,0-9.107-3.42-9.107-9.359
			C286.426,189.151,290.817,185.732,295.533,185.732z M295.533,200.166c2.447,0,3.671-1.979,3.671-5.075s-1.224-5.076-3.671-5.076
			c-2.448,0-3.672,1.98-3.672,5.076S293.085,200.166,295.533,200.166z"/>
		<path d="M323.756,194.623l-13.895,8.999v-4.788l9.539-5.975v-0.144l-9.539-5.975v-4.788l13.895,8.999V194.623z"/>
		<path d="M350.649,186.164h5.328l2.808,8.423c0.576,1.8,1.08,3.635,1.62,5.507h0.144c0.54-1.872,1.008-3.708,1.584-5.507
			l2.808-8.423h5.075l-6.551,17.854h-6.083L350.649,186.164z"/>
		<path d="M385.099,192.535c-0.18-1.62-1.404-2.592-3.815-2.592c-1.728,0-3.42,0.648-5.436,1.656l-1.872-3.456
			c2.448-1.404,5.291-2.412,8.351-2.412c5.003,0,8.063,2.592,8.063,8.063v10.223h-4.32l-0.396-2.016h-0.144
			c-1.8,1.368-4.032,2.448-6.335,2.448c-3.6,0-5.867-2.376-5.867-5.399C373.329,195.055,376.64,193.039,385.099,192.535z
			 M380.888,200.346c1.583,0,2.952-0.72,4.211-1.692v-2.952c-5.255,0.288-6.695,1.404-6.695,2.952
			C378.404,199.806,379.376,200.346,380.888,200.346z"/>
		<path d="M394.964,178.785h10.475v18.466c0,2.196,1.404,2.916,2.879,2.916c0.828,0,1.692-0.144,2.808-0.576l1.188,3.887
			c-1.872,0.576-3.132,0.972-5.363,0.972c-4.5,0-6.803-2.88-6.803-7.415V182.96h-5.183V178.785z"/>
		<path d="M433.229,204.018h-4.319l-0.396-2.556h-0.144c-1.583,1.8-3.456,2.988-6.011,2.988c-4.067,0-5.795-2.772-5.795-7.271
			v-11.014h5.291v10.331c0,2.375,0.612,3.456,2.592,3.456c1.332,0,2.268-0.468,3.492-2.052v-11.734h5.291V204.018z"/>
		<path d="M447.198,185.732c5.507,0,8.387,3.708,8.387,8.567c0,0.936-0.144,1.8-0.216,2.231h-12.022
			c0.504,2.7,2.556,3.888,5.184,3.888c1.62,0,3.023-0.432,4.607-1.224l1.728,3.167c-2.016,1.296-4.679,2.088-7.055,2.088
			c-5.543,0-9.898-3.456-9.898-9.359C437.912,189.259,442.447,185.732,447.198,185.732z M450.798,193.255
			c0-2.052-1.08-3.492-3.492-3.492c-1.908,0-3.6,1.116-4.031,3.492H450.798z"/>
		<path d="M461.815,198.402c2.051,1.296,4.103,2.124,6.479,2.124c2.412,0,3.419-0.576,3.419-1.512c0-1.08-1.908-1.692-4.787-2.484
			c-3.132-0.864-6.372-2.375-6.372-5.219c0-3.312,3.132-5.579,8.243-5.579c3.167,0,5.831,1.26,7.703,2.448l-2.376,3.167
			c-1.62-0.972-3.348-1.692-5.219-1.692c-2.231,0-3.096,0.504-3.096,1.404c0,1.08,2.052,1.62,4.572,2.268
			c3.527,0.936,6.587,2.268,6.587,5.363c0,3.239-3.06,5.759-8.783,5.759c-3.204,0-6.479-1.224-8.747-2.736L461.815,198.402z"/>
		<path d="M503.25,186.812h16.558v3.708H503.25V186.812z M503.25,195.199h16.558v3.708H503.25V195.199z"/>
		<path d="M554.729,195.991c2.483,0,4.176,1.872,4.176,4.248c0,2.375-1.692,4.211-4.176,4.211s-4.176-1.836-4.176-4.211
			C550.553,197.862,552.245,195.991,554.729,195.991z"/>
		<path d="M576.328,195.991c2.483,0,4.176,1.872,4.176,4.248c0,2.375-1.692,4.211-4.176,4.211s-4.176-1.836-4.176-4.211
			C572.152,197.862,573.845,195.991,576.328,195.991z"/>
		<path d="M597.928,195.991c2.483,0,4.176,1.872,4.176,4.248c0,2.375-1.692,4.211-4.176,4.211s-4.176-1.836-4.176-4.211
			C593.752,197.862,595.444,195.991,597.928,195.991z"/>
		<path d="M615.279,208.733c3.132-1.08,4.68-2.844,4.68-5.111c-0.144,0.036-0.252,0.036-0.396,0.036
			c-2.016,0-3.888-1.296-3.888-3.671c0-2.232,1.8-3.708,4.031-3.708c2.952,0,4.464,2.304,4.464,6.191
			c0,4.571-2.592,7.847-7.56,9.359L615.279,208.733z M615.352,188.576c0-2.34,1.692-4.211,4.176-4.211s4.176,1.872,4.176,4.211
			c0,2.375-1.692,4.247-4.176,4.247S615.352,190.951,615.352,188.576z"/>
		<path d="M153.586,234.212c-1.116-0.432-2.375-0.684-3.743-0.684c-2.268,0-3.348,0.972-3.348,3.131v0.504h6.155v4.139h-6.155
			v13.714h-5.292v-13.714h-4.715v-3.923l4.715-0.216v-0.468c0-4.104,2.412-7.343,7.991-7.343c2.052,0,3.887,0.468,5.399,0.972
			L153.586,234.212z"/>
		<path d="M165.936,236.732c4.715,0,9.106,3.419,9.106,9.359c0,5.939-4.391,9.359-9.106,9.359c-4.716,0-9.107-3.42-9.107-9.359
			C156.829,240.151,161.22,236.732,165.936,236.732z M165.936,251.166c2.447,0,3.671-1.979,3.671-5.075s-1.224-5.076-3.671-5.076
			c-2.448,0-3.672,1.98-3.672,5.076S163.488,251.166,165.936,251.166z"/>
		<path d="M180.912,237.164h4.32l0.432,3.887h0.108c1.764-2.916,4.392-4.319,7.235-4.319c1.583,0,2.412,0.252,3.456,0.72
			l-1.08,4.428c-1.116-0.324-1.835-0.504-3.167-0.504c-2.196,0-4.5,1.152-6.011,4.355v9.287h-5.292V237.164z"/>
		<path d="M226.451,245.011c0-6.767,2.916-12.311,7.595-16.45l2.952,2.339c-4.284,4.176-6.12,8.423-6.12,14.11
			c0,5.688,1.836,9.935,6.12,14.11l-2.952,2.34C229.366,257.321,226.451,251.778,226.451,245.011z"/>
		<path d="M245.423,231.548h15.478v4.463h-10.187v5.436h8.675v4.463h-8.675v9.107h-5.291V231.548z"/>
		<path d="M273.934,236.732c4.715,0,9.106,3.419,9.106,9.359c0,5.939-4.391,9.359-9.106,9.359c-4.716,0-9.107-3.42-9.107-9.359
			C264.827,240.151,269.218,236.732,273.934,236.732z M273.934,251.166c2.447,0,3.671-1.979,3.671-5.075s-1.224-5.076-3.671-5.076
			c-2.448,0-3.672,1.98-3.672,5.076S271.486,251.166,273.934,251.166z"/>
		<path d="M295.533,236.732c4.715,0,9.106,3.419,9.106,9.359c0,5.939-4.391,9.359-9.106,9.359c-4.716,0-9.107-3.42-9.107-9.359
			C286.426,240.151,290.817,236.732,295.533,236.732z M295.533,251.166c2.447,0,3.671-1.979,3.671-5.075s-1.224-5.076-3.671-5.076
			c-2.448,0-3.672,1.98-3.672,5.076S293.085,251.166,295.533,251.166z"/>
		<path d="M329.049,237.164h5.328l2.808,8.423c0.576,1.8,1.08,3.635,1.62,5.507h0.144c0.54-1.872,1.008-3.708,1.584-5.507
			l2.808-8.423h5.075l-6.551,17.854h-6.083L329.049,237.164z"/>
		<path d="M363.5,243.535c-0.18-1.62-1.404-2.592-3.815-2.592c-1.728,0-3.42,0.648-5.436,1.656l-1.872-3.456
			c2.448-1.404,5.291-2.412,8.351-2.412c5.003,0,8.063,2.592,8.063,8.063v10.223h-4.32l-0.396-2.016h-0.144
			c-1.8,1.368-4.032,2.448-6.335,2.448c-3.6,0-5.867-2.376-5.867-5.399C351.729,246.055,355.041,244.039,363.5,243.535z
			 M359.288,251.346c1.583,0,2.952-0.72,4.211-1.692v-2.952c-5.255,0.288-6.695,1.404-6.695,2.952
			C356.804,250.806,357.776,251.346,359.288,251.346z"/>
		<path d="M373.365,229.785h10.475v18.466c0,2.196,1.404,2.916,2.879,2.916c0.828,0,1.692-0.144,2.808-0.576l1.188,3.887
			c-1.872,0.576-3.132,0.972-5.363,0.972c-4.5,0-6.803-2.88-6.803-7.415V233.96h-5.183V229.785z"/>
		<path d="M411.63,255.018h-4.319l-0.396-2.556h-0.144c-1.583,1.8-3.456,2.988-6.011,2.988c-4.067,0-5.795-2.772-5.795-7.271
			v-11.014h5.291v10.331c0,2.375,0.612,3.456,2.592,3.456c1.332,0,2.268-0.468,3.492-2.052v-11.734h5.291V255.018z"/>
		<path d="M425.599,236.732c5.507,0,8.387,3.708,8.387,8.567c0,0.936-0.144,1.8-0.216,2.231h-12.022
			c0.504,2.7,2.556,3.888,5.184,3.888c1.62,0,3.023-0.432,4.607-1.224l1.728,3.167c-2.016,1.296-4.679,2.088-7.055,2.088
			c-5.543,0-9.898-3.456-9.898-9.359C416.312,240.259,420.847,236.732,425.599,236.732z M429.198,244.255
			c0-2.052-1.08-3.492-3.492-3.492c-1.908,0-3.6,1.116-4.031,3.492H429.198z"/>
		<path d="M446.73,235.364c2.483,0,4.175,1.872,4.175,4.211c0,2.375-1.692,4.247-4.175,4.247c-2.484,0-4.176-1.872-4.176-4.247
			C442.555,237.236,444.247,235.364,446.73,235.364z M446.73,246.991c2.483,0,4.175,1.872,4.175,4.248
			c0,2.375-1.692,4.211-4.175,4.211c-2.484,0-4.176-1.836-4.176-4.211C442.555,248.862,444.247,246.991,446.73,246.991z"/>
		<path d="M480.247,237.164h5.328l2.808,8.423c0.576,1.8,1.08,3.635,1.62,5.507h0.144c0.54-1.872,1.008-3.708,1.584-5.507
			l2.808-8.423h5.075l-6.551,17.854h-6.083L480.247,237.164z"/>
		<path d="M514.697,243.535c-0.181-1.62-1.404-2.592-3.816-2.592c-1.728,0-3.42,0.648-5.436,1.656l-1.872-3.456
			c2.448-1.404,5.291-2.412,8.351-2.412c5.003,0,8.063,2.592,8.063,8.063v10.223h-4.319l-0.396-2.016h-0.144
			c-1.8,1.368-4.032,2.448-6.335,2.448c-3.6,0-5.867-2.376-5.867-5.399C502.926,246.055,506.238,244.039,514.697,243.535z
			 M510.485,251.346c1.583,0,2.952-0.72,4.212-1.692v-2.952c-5.256,0.288-6.696,1.404-6.696,2.952
			C508.001,250.806,508.974,251.346,510.485,251.346z"/>
		<path d="M524.562,229.785h10.475v18.466c0,2.196,1.404,2.916,2.88,2.916c0.828,0,1.691-0.144,2.808-0.576l1.188,3.887
			c-1.872,0.576-3.132,0.972-5.364,0.972c-4.499,0-6.803-2.88-6.803-7.415V233.96h-5.184V229.785z"/>
		<path d="M562.827,255.018h-4.319l-0.396-2.556h-0.145c-1.584,1.8-3.455,2.988-6.011,2.988c-4.067,0-5.796-2.772-5.796-7.271
			v-11.014h5.292v10.331c0,2.375,0.611,3.456,2.591,3.456c1.332,0,2.269-0.468,3.492-2.052v-11.734h5.291V255.018z"/>
		<path d="M576.796,236.732c5.507,0,8.387,3.708,8.387,8.567c0,0.936-0.144,1.8-0.216,2.231h-12.022
			c0.504,2.7,2.556,3.888,5.184,3.888c1.619,0,3.023-0.432,4.607-1.224l1.728,3.167c-2.016,1.296-4.68,2.088-7.055,2.088
			c-5.544,0-9.899-3.456-9.899-9.359C567.509,240.259,572.045,236.732,576.796,236.732z M580.396,244.255
			c0-2.052-1.08-3.492-3.491-3.492c-1.908,0-3.6,1.116-4.032,3.492H580.396z"/>
		<path d="M591.412,249.402c2.052,1.296,4.104,2.124,6.479,2.124c2.412,0,3.42-0.576,3.42-1.512c0-1.08-1.908-1.692-4.788-2.484
			c-3.131-0.864-6.371-2.375-6.371-5.219c0-3.312,3.132-5.579,8.243-5.579c3.168,0,5.831,1.26,7.703,2.448l-2.376,3.167
			c-1.619-0.972-3.348-1.692-5.219-1.692c-2.232,0-3.096,0.504-3.096,1.404c0,1.08,2.052,1.62,4.571,2.268
			c3.527,0.936,6.587,2.268,6.587,5.363c0,3.239-3.06,5.759-8.783,5.759c-3.203,0-6.479-1.224-8.746-2.736L591.412,249.402z"/>
		<path d="M613.264,259.121c4.284-4.175,6.119-8.423,6.119-14.11c0-5.687-1.835-9.935-6.119-14.11l2.952-2.339
			c4.679,4.139,7.595,9.683,7.595,16.45s-2.916,12.311-7.595,16.45L613.264,259.121z"/>
		<path d="M660.675,249.222c0-1.26-1.044-2.591-4.932-2.664v-3.096c3.888-0.072,4.932-1.404,4.932-2.664
			c0-2.231-0.36-3.635-0.36-6.155c0-3.887,2.088-5.111,6.695-5.111h2.771v2.808h-1.476c-2.987,0-3.672,0.504-3.672,2.52
			c0,1.908,0.181,3.743,0.181,5.867c0,2.735-1.044,3.779-3.6,4.211v0.144c2.556,0.432,3.6,1.476,3.6,4.211
			c0,2.196-0.181,3.923-0.181,5.867c0,2.016,0.685,2.52,3.672,2.52h1.476v2.808h-2.771c-4.607,0-6.695-1.224-6.695-5.111
			C660.314,252.822,660.675,251.49,660.675,249.222z"/>
		<path d="M183.828,311.777H179.4l11.843-31.316h4.427L183.828,311.777z"/>
		<path d="M205.427,311.777H201l11.843-31.316h4.427L205.427,311.777z"/>
		<path d="M243.875,282.548h6.371c6.803,0,11.303,3.564,11.303,11.627s-4.5,11.842-11.015,11.842h-6.659V282.548z M249.958,301.734
			c3.672,0,6.155-1.943,6.155-7.559c0-5.616-2.483-7.343-6.155-7.343h-0.756v14.902H249.958z"/>
		<path d="M273.934,287.732c4.715,0,9.106,3.419,9.106,9.359c0,5.939-4.391,9.359-9.106,9.359c-4.716,0-9.107-3.42-9.107-9.359
			C264.827,291.151,269.218,287.732,273.934,287.732z M273.934,302.166c2.447,0,3.671-1.979,3.671-5.075s-1.224-5.076-3.671-5.076
			c-2.448,0-3.672,1.98-3.672,5.076S271.486,302.166,273.934,302.166z"/>
		<path d="M311.193,299.43c1.764,1.44,3.959,2.448,6.011,2.448c2.448,0,3.528-0.864,3.528-2.268c0-1.476-1.368-1.944-3.636-2.808
			l-3.023-1.296c-2.628-0.972-5.003-2.988-5.003-6.407c0-3.887,3.527-6.983,8.603-6.983c2.844,0,5.688,1.08,7.811,3.096l-2.7,3.347
			c-1.62-1.188-3.095-1.872-5.111-1.872c-2.052,0-3.239,0.792-3.239,2.124c0,1.44,1.583,1.944,3.852,2.772l2.843,1.224
			c3.096,1.152,5.04,3.06,5.04,6.371c0,3.888-3.275,7.271-9.107,7.271c-3.167,0-6.407-1.152-8.927-3.384L311.193,299.43z"/>
		<path d="M338.732,287.732c4.715,0,9.106,3.419,9.106,9.359c0,5.939-4.391,9.359-9.106,9.359c-4.716,0-9.107-3.42-9.107-9.359
			C329.625,291.151,334.017,287.732,338.732,287.732z M338.732,302.166c2.447,0,3.671-1.979,3.671-5.075s-1.224-5.076-3.671-5.076
			c-2.448,0-3.672,1.98-3.672,5.076S336.285,302.166,338.732,302.166z"/>
		<path d="M350.829,288.164h3.959l0.396,2.231h0.144c0.684-1.476,1.764-2.664,3.815-2.664c1.584,0,2.7,1.008,3.131,2.916
			c0.648-1.62,1.908-2.916,3.924-2.916c2.483,0,3.959,2.196,3.959,5.759v12.526h-4.967v-12.13c0-1.116-0.288-1.656-1.008-1.656
			c-0.684,0-1.188,0.576-1.656,1.728v12.059h-4.067v-12.13c0-1.116-0.36-1.656-1.044-1.656c-0.684,0-1.116,0.576-1.62,1.728v12.059
			h-4.967V288.164z"/>
		<path d="M382.399,287.732c5.507,0,8.387,3.708,8.387,8.567c0,0.936-0.144,1.8-0.216,2.231h-12.022
			c0.504,2.7,2.556,3.888,5.184,3.888c1.62,0,3.023-0.432,4.607-1.224l1.728,3.167c-2.016,1.296-4.679,2.088-7.055,2.088
			c-5.543,0-9.898-3.456-9.898-9.359C373.113,291.259,377.648,287.732,382.399,287.732z M385.999,295.255
			c0-2.052-1.08-3.492-3.492-3.492c-1.908,0-3.6,1.116-4.031,3.492H385.999z"/>
		<path d="M398.996,292.303h-4.463v-3.923l4.715-0.216l0.684-4.751h4.355v4.751h7.523v4.139h-7.523v6.263
			c0,2.7,1.152,3.744,3.743,3.744c1.368,0,2.556-0.288,3.6-0.648l0.936,3.815c-1.584,0.468-3.563,0.972-5.867,0.972
			c-5.688,0-7.703-3.168-7.703-7.847V292.303z"/>
		<path d="M416.924,280.785h5.291v6.191l-0.288,3.419c1.404-1.368,3.347-2.664,6.047-2.664c3.996,0,5.795,2.771,5.795,7.271v11.015
			h-5.292v-10.331c0-2.376-0.684-3.456-2.627-3.456c-1.44,0-2.375,0.648-3.636,1.872v11.915h-5.291V280.785z"/>
		<path d="M438.775,288.164h12.454v17.854h-5.291v-13.714h-7.163V288.164z M444.823,282.333c0-1.944,1.476-3.312,3.527-3.312
			s3.527,1.368,3.527,3.312s-1.476,3.204-3.527,3.204S444.823,284.276,444.823,282.333z"/>
		<path d="M460.123,288.164h4.319l0.396,2.375h0.144c1.548-1.512,3.491-2.808,6.155-2.808c4.031,0,5.831,2.771,5.831,7.271v11.015
			h-5.292v-10.331c0-2.376-0.684-3.456-2.627-3.456c-1.44,0-2.375,0.648-3.636,1.872v11.915h-5.291V288.164z"/>
		<path d="M483.774,305.478v-0.144c-0.972-0.612-1.8-1.548-1.8-3.06c0-1.188,0.864-2.483,2.124-3.348v-0.144
			c-1.296-0.864-2.34-2.484-2.34-4.572c0-4.283,3.6-6.479,7.631-6.479c1.08,0,2.088,0.144,2.952,0.432h7.235v3.851h-3.635
			c0.432,0.54,0.828,1.44,0.828,2.376c0,4.104-3.239,5.975-7.379,5.975c-0.72,0-1.548-0.108-2.448-0.36
			c-0.54,0.396-0.792,0.72-0.792,1.296c0,0.972,0.936,1.368,3.024,1.368h3.312c4.679,0,7.235,1.296,7.235,4.5
			c0,3.744-4.14,6.443-10.619,6.443c-4.644,0-8.099-1.368-8.099-4.572C481.002,307.602,481.938,306.377,483.774,305.478z
			 M489.857,310.301c2.844,0,4.823-0.972,4.823-2.196c0-1.152-1.08-1.404-3.131-1.404h-2.232c-1.295,0-2.087-0.072-2.735-0.216
			c-0.9,0.576-1.26,1.116-1.26,1.764C485.322,309.581,487.05,310.301,489.857,310.301z M492.125,294.211
			c0-1.908-1.26-2.916-2.735-2.916c-1.476,0-2.664,1.008-2.664,2.916c0,1.944,1.188,2.952,2.664,2.952
			C490.865,297.163,492.125,296.155,492.125,294.211z"/>
		<path d="M138.792,359.681c2.952,0,3.636-0.504,3.636-2.52c0-1.944-0.144-3.671-0.144-5.867c0-2.736,1.008-3.78,3.6-4.211v-0.144
			c-2.592-0.432-3.6-1.476-3.6-4.211c0-2.124,0.144-3.959,0.144-5.867c0-2.016-0.684-2.52-3.636-2.52h-1.476v-2.808h2.772
			c4.607,0,6.695,1.224,6.695,5.111c0,2.52-0.396,3.924-0.396,6.155c0,1.26,1.043,2.592,4.967,2.664v3.096
			c-3.924,0.072-4.967,1.404-4.967,2.664c0,2.268,0.396,3.6,0.396,6.155c0,3.888-2.087,5.111-6.695,5.111h-2.772v-2.808H138.792z"/>
	</g>
</g>
<g id="jfx:p04">
	<g>
		<path d="M163.423,143.78h-15.871v10.239h17.727v8h-27.518v-43.133h26.622v8h-16.831v8.959h15.871V143.78z"/>
		<path d="M179.04,130.725l3.072,5.184c0.896,1.6,1.728,3.2,2.56,4.672h0.128c0.832-1.664,1.6-3.264,2.432-4.8l2.752-5.056h10.559
			l-10.303,14.911l10.431,16.383h-11.007l-3.136-5.632c-0.896-1.536-1.664-3.136-2.432-4.735h-0.192
			c-0.768,1.664-1.6,3.2-2.368,4.735l-2.944,5.632h-10.688l10.624-15.935l-10.368-15.359H179.04z"/>
		<path d="M215.711,121.766v8.959h6.976v7.167h-6.976v11.328c0,3.775,0.896,5.503,3.84,5.503c1.216,0,2.176-0.128,2.88-0.256
			l0.064,7.359c-1.28,0.512-3.583,0.832-6.335,0.832c-3.136,0-5.76-1.088-7.295-2.688c-1.792-1.856-2.688-4.864-2.688-9.279v-12.799
			h-4.16v-7.167h4.16v-6.783L215.711,121.766z"/>
		<path d="M235.807,149.476c0.32,4.032,4.288,5.952,8.832,5.952c3.328,0,6.016-0.448,8.639-1.28l1.28,6.592
			c-3.2,1.28-7.104,1.92-11.327,1.92c-10.623,0-16.703-6.144-16.703-15.935c0-7.936,4.928-16.703,15.807-16.703
			c10.111,0,13.951,7.871,13.951,15.615c0,1.664-0.192,3.136-0.32,3.84H235.807z M247.262,142.82c0-2.368-1.024-6.335-5.503-6.335
			c-4.096,0-5.76,3.712-6.016,6.335H247.262z"/>
		<path d="M262.112,141.028c0-4.608-0.128-7.616-0.256-10.304h8.383l0.32,5.76h0.256c1.6-4.543,5.44-6.463,8.448-6.463
			c0.896,0,1.344,0,2.048,0.128v9.151c-0.704-0.128-1.536-0.256-2.624-0.256c-3.584,0-6.016,1.919-6.655,4.927
			c-0.128,0.64-0.192,1.408-0.192,2.176v15.871h-9.727V141.028z"/>
		<path d="M286.431,140.708c0-3.904-0.128-7.231-0.256-9.983h8.447l0.448,4.288h0.192c1.28-1.984,4.48-4.992,9.664-4.992
			c6.399,0,11.199,4.224,11.199,13.439v18.559h-9.728v-17.343c0-4.032-1.408-6.784-4.928-6.784c-2.688,0-4.288,1.856-4.927,3.648
			c-0.256,0.576-0.384,1.536-0.384,2.432v18.047h-9.727V140.708z"/>
		<path d="M341.726,162.019l-0.576-3.136h-0.192c-2.048,2.496-5.248,3.84-8.959,3.84c-6.335,0-10.111-4.608-10.111-9.6
			c0-8.127,7.295-12.031,18.367-11.967v-0.448c0-1.664-0.896-4.032-5.696-4.032c-3.2,0-6.591,1.088-8.639,2.368l-1.792-6.272
			c2.176-1.216,6.463-2.751,12.159-2.751c10.431,0,13.759,6.144,13.759,13.503v10.879c0,3.008,0.128,5.887,0.448,7.615H341.726z
			 M340.574,147.236c-5.12-0.064-9.087,1.152-9.087,4.927c0,2.496,1.664,3.712,3.84,3.712c2.432,0,4.416-1.6,5.056-3.584
			c0.128-0.512,0.192-1.088,0.192-1.664V147.236z"/>
		<path d="M357.727,116.582h9.727v45.437h-9.727V116.582z"/>
		<path d="M398.366,118.886v43.133h-9.792v-43.133H398.366z"/>
		<path d="M417.373,121.766v8.959h6.976v7.167h-6.976v11.328c0,3.775,0.896,5.503,3.84,5.503c1.216,0,2.176-0.128,2.88-0.256
			l0.064,7.359c-1.28,0.512-3.583,0.832-6.335,0.832c-3.136,0-5.76-1.088-7.295-2.688c-1.792-1.856-2.688-4.864-2.688-9.279v-12.799
			h-4.16v-7.167h4.16v-6.783L417.373,121.766z"/>
		<path d="M437.468,149.476c0.32,4.032,4.288,5.952,8.832,5.952c3.328,0,6.016-0.448,8.639-1.28l1.28,6.592
			c-3.2,1.28-7.104,1.92-11.327,1.92c-10.623,0-16.703-6.144-16.703-15.935c0-7.936,4.928-16.703,15.807-16.703
			c10.111,0,13.951,7.871,13.951,15.615c0,1.664-0.192,3.136-0.32,3.84H437.468z M448.923,142.82c0-2.368-1.024-6.335-5.503-6.335
			c-4.096,0-5.76,3.712-6.016,6.335H448.923z"/>
		<path d="M463.773,141.028c0-4.608-0.128-7.616-0.256-10.304h8.383l0.32,5.76h0.256c1.6-4.543,5.44-6.463,8.448-6.463
			c0.896,0,1.344,0,2.048,0.128v9.151c-0.704-0.128-1.536-0.256-2.624-0.256c-3.584,0-6.016,1.919-6.655,4.927
			c-0.128,0.64-0.192,1.408-0.192,2.176v15.871h-9.727V141.028z"/>
		<path d="M505.883,162.019l-0.576-3.136h-0.192c-2.048,2.496-5.248,3.84-8.959,3.84c-6.335,0-10.111-4.608-10.111-9.6
			c0-8.127,7.295-12.031,18.367-11.967v-0.448c0-1.664-0.896-4.032-5.696-4.032c-3.2,0-6.591,1.088-8.639,2.368l-1.792-6.272
			c2.176-1.216,6.463-2.751,12.159-2.751c10.431,0,13.759,6.144,13.759,13.503v10.879c0,3.008,0.128,5.887,0.448,7.615H505.883z
			 M504.731,147.236c-5.12-0.064-9.087,1.152-9.087,4.927c0,2.496,1.664,3.712,3.84,3.712c2.432,0,4.416-1.6,5.056-3.584
			c0.128-0.512,0.192-1.088,0.192-1.664V147.236z"/>
		<path d="M532.764,121.766v8.959h6.976v7.167h-6.976v11.328c0,3.775,0.896,5.503,3.84,5.503c1.216,0,2.176-0.128,2.879-0.256
			l0.064,7.359c-1.28,0.512-3.584,0.832-6.336,0.832c-3.136,0-5.759-1.088-7.295-2.688c-1.792-1.856-2.688-4.864-2.688-9.279
			v-12.799h-4.16v-7.167h4.16v-6.783L532.764,121.766z"/>
		<path d="M576.281,146.02c0,11.456-8.127,16.703-16.511,16.703c-9.151,0-16.19-6.016-16.19-16.127s6.655-16.575,16.702-16.575
			C569.882,130.021,576.281,136.612,576.281,146.02z M553.627,146.34c0,5.375,2.24,9.407,6.399,9.407
			c3.775,0,6.208-3.776,6.208-9.407c0-4.672-1.792-9.407-6.208-9.407C555.354,136.933,553.627,141.732,553.627,146.34z"/>
		<path d="M582.299,141.028c0-4.608-0.128-7.616-0.256-10.304h8.384l0.32,5.76h0.256c1.6-4.543,5.439-6.463,8.447-6.463
			c0.896,0,1.344,0,2.048,0.128v9.151c-0.704-0.128-1.536-0.256-2.624-0.256c-3.584,0-6.016,1.919-6.655,4.927
			c-0.128,0.64-0.192,1.408-0.192,2.176v15.871h-9.728V141.028z"/>
	</g>
</g>
<g id="jfx:p05">
	<g>
		<path d="M134.653,186.164h5.328l2.808,8.423c0.576,1.8,1.08,3.635,1.62,5.507h0.144c0.54-1.872,1.008-3.708,1.584-5.507
			l2.808-8.423h5.075l-6.551,17.854h-6.083L134.653,186.164z"/>
		<path d="M169.103,192.535c-0.18-1.62-1.404-2.592-3.815-2.592c-1.728,0-3.42,0.648-5.436,1.656l-1.872-3.456
			c2.448-1.404,5.291-2.412,8.351-2.412c5.003,0,8.063,2.592,8.063,8.063v10.223h-4.32l-0.396-2.016h-0.144
			c-1.8,1.368-4.032,2.448-6.335,2.448c-3.6,0-5.867-2.376-5.867-5.399C157.333,195.055,160.644,193.039,169.103,192.535z
			 M164.892,200.346c1.583,0,2.952-0.72,4.211-1.692v-2.952c-5.255,0.288-6.695,1.404-6.695,2.952
			C162.408,199.806,163.38,200.346,164.892,200.346z"/>
		<path d="M178.968,178.785h10.475v18.466c0,2.196,1.404,2.916,2.879,2.916c0.828,0,1.692-0.144,2.808-0.576l1.188,3.887
			c-1.872,0.576-3.132,0.972-5.363,0.972c-4.5,0-6.803-2.88-6.803-7.415V182.96h-5.183V178.785z"/>
		<path d="M217.233,204.018h-4.319l-0.396-2.556h-0.144c-1.583,1.8-3.456,2.988-6.011,2.988c-4.067,0-5.795-2.772-5.795-7.271
			v-11.014h5.291v10.331c0,2.375,0.612,3.456,2.592,3.456c1.332,0,2.268-0.468,3.492-2.052v-11.734h5.291V204.018z"/>
		<path d="M231.202,185.732c5.507,0,8.387,3.708,8.387,8.567c0,0.936-0.144,1.8-0.216,2.231h-12.022
			c0.504,2.7,2.556,3.888,5.184,3.888c1.62,0,3.023-0.432,4.607-1.224l1.728,3.167c-2.016,1.296-4.679,2.088-7.055,2.088
			c-5.543,0-9.898-3.456-9.898-9.359C221.916,189.259,226.451,185.732,231.202,185.732z M234.802,193.255
			c0-2.052-1.08-3.492-3.492-3.492c-1.908,0-3.6,1.116-4.031,3.492H234.802z"/>
		<path d="M245.819,198.402c2.051,1.296,4.103,2.124,6.479,2.124c2.412,0,3.419-0.576,3.419-1.512c0-1.08-1.908-1.692-4.787-2.484
			c-3.132-0.864-6.372-2.375-6.372-5.219c0-3.312,3.132-5.579,8.243-5.579c3.167,0,5.831,1.26,7.703,2.448l-2.376,3.167
			c-1.62-0.972-3.348-1.692-5.219-1.692c-2.231,0-3.096,0.504-3.096,1.404c0,1.08,2.052,1.62,4.572,2.268
			c3.527,0.936,6.587,2.268,6.587,5.363c0,3.239-3.06,5.759-8.783,5.759c-3.204,0-6.479-1.224-8.747-2.736L245.819,198.402z"/>
		<path d="M273.934,195.991c2.483,0,4.175,1.872,4.175,4.248c0,2.375-1.692,4.211-4.175,4.211c-2.484,0-4.176-1.836-4.176-4.211
			C269.758,197.862,271.45,195.991,273.934,195.991z"/>
		<path d="M304.784,183.212c-1.116-0.432-2.375-0.684-3.743-0.684c-2.268,0-3.348,0.972-3.348,3.131v0.504h6.155v4.139h-6.155
			v13.714h-5.292v-13.714h-4.715v-3.923l4.715-0.216v-0.468c0-4.104,2.412-7.343,7.991-7.343c2.052,0,3.887,0.468,5.399,0.972
			L304.784,183.212z"/>
		<path d="M317.133,185.732c4.715,0,9.106,3.419,9.106,9.359c0,5.939-4.391,9.359-9.106,9.359c-4.716,0-9.107-3.42-9.107-9.359
			C308.026,189.151,312.417,185.732,317.133,185.732z M317.133,200.166c2.447,0,3.671-1.979,3.671-5.075s-1.224-5.076-3.671-5.076
			c-2.448,0-3.672,1.98-3.672,5.076S314.685,200.166,317.133,200.166z"/>
		<path d="M332.109,186.164h4.32l0.432,3.887h0.108c1.764-2.916,4.392-4.319,7.235-4.319c1.583,0,2.412,0.252,3.456,0.72
			l-1.08,4.428c-1.116-0.324-1.835-0.504-3.167-0.504c-2.196,0-4.5,1.152-6.011,4.355v9.287h-5.292V186.164z"/>
		<path d="M352.917,180.548h15.478v4.463h-10.187v4.716h8.639v4.427h-8.639v5.399h10.547v4.463h-15.838V180.548z"/>
		<path d="M385.099,192.535c-0.18-1.62-1.404-2.592-3.815-2.592c-1.728,0-3.42,0.648-5.436,1.656l-1.872-3.456
			c2.448-1.404,5.291-2.412,8.351-2.412c5.003,0,8.063,2.592,8.063,8.063v10.223h-4.32l-0.396-2.016h-0.144
			c-1.8,1.368-4.032,2.448-6.335,2.448c-3.6,0-5.867-2.376-5.867-5.399C373.329,195.055,376.64,193.039,385.099,192.535z
			 M380.888,200.346c1.583,0,2.952-0.72,4.211-1.692v-2.952c-5.255,0.288-6.695,1.404-6.695,2.952
			C378.404,199.806,379.376,200.346,380.888,200.346z"/>
		<path d="M405.475,185.732c2.808,0,5.184,1.008,6.695,2.412l-2.448,3.275c-1.368-0.972-2.627-1.404-3.959-1.404
			c-3.06,0-5.183,1.98-5.183,5.076s2.052,5.075,5.003,5.075c1.872,0,3.456-0.792,4.715-1.692l2.16,3.348
			c-2.16,1.8-4.932,2.628-7.379,2.628c-5.616,0-9.935-3.42-9.935-9.359C395.144,189.151,399.967,185.732,405.475,185.732z"/>
		<path d="M416.924,178.785h5.291v6.191l-0.288,3.419c1.404-1.368,3.347-2.664,6.047-2.664c3.996,0,5.795,2.771,5.795,7.271v11.015
			h-5.292v-10.331c0-2.376-0.684-3.456-2.627-3.456c-1.44,0-2.375,0.648-3.636,1.872v11.915h-5.291V178.785z"/>
		<path d="M442.447,194.011c0-6.767,2.916-12.311,7.595-16.45l2.952,2.339c-4.284,4.176-6.12,8.423-6.12,14.11
			c0,5.688,1.836,9.935,6.12,14.11l-2.952,2.34C445.362,206.321,442.447,200.778,442.447,194.011z"/>
		<path d="M460.123,186.164h4.319l0.396,2.375h0.144c1.548-1.512,3.491-2.808,6.155-2.808c4.031,0,5.831,2.771,5.831,7.271v11.015
			h-5.292v-10.331c0-2.376-0.684-3.456-2.627-3.456c-1.44,0-2.375,0.648-3.636,1.872v11.915h-5.291V186.164z"/>
		<path d="M490.397,185.732c5.507,0,8.387,3.708,8.387,8.567c0,0.936-0.144,1.8-0.216,2.231h-12.022
			c0.504,2.7,2.556,3.888,5.184,3.888c1.62,0,3.023-0.432,4.607-1.224l1.728,3.167c-2.016,1.296-4.679,2.088-7.055,2.088
			c-5.543,0-9.898-3.456-9.898-9.359C481.111,189.259,485.646,185.732,490.397,185.732z M493.997,193.255
			c0-2.052-1.08-3.492-3.492-3.492c-1.908,0-3.6,1.116-4.031,3.492H493.997z"/>
		<path d="M500.838,186.164h5.184l1.116,8.279c0.252,1.764,0.36,3.492,0.612,5.291h0.108c0.216-1.799,0.468-3.599,0.828-5.291
			l1.152-5.903h3.635l1.26,5.903c0.324,1.764,0.576,3.492,0.828,5.291h0.145c0.252-1.799,0.323-3.527,0.575-5.291l1.116-8.279h4.823
			l-2.771,17.854h-6.155l-1.008-5.939c-0.252-1.656-0.468-3.312-0.72-5.219h-0.144c-0.144,1.296-0.288,2.772-0.612,5.219
			l-0.972,5.939h-6.047L500.838,186.164z"/>
		<path d="M546.953,180.548h7.344c4.859,0,8.603,1.332,8.603,5.832c0,2.088-1.26,4.355-4.031,5.075v0.144
			c3.348,0.612,5.111,2.375,5.111,5.507c0,4.788-3.924,6.911-8.999,6.911h-8.027V180.548z M554.044,190.015
			c2.592,0,3.672-1.116,3.672-2.879s-1.151-2.484-3.636-2.484h-1.835v5.363H554.044z M554.549,199.914
			c2.879,0,4.247-1.08,4.247-3.204c0-2.052-1.332-2.952-4.247-2.952h-2.304v6.155H554.549z"/>
		<path d="M567.761,178.785h10.475v18.466c0,2.196,1.404,2.916,2.88,2.916c0.828,0,1.691-0.144,2.808-0.576l1.188,3.887
			c-1.872,0.576-3.132,0.972-5.364,0.972c-4.499,0-6.803-2.88-6.803-7.415V182.96h-5.184V178.785z"/>
		<path d="M597.928,185.732c4.715,0,9.106,3.419,9.106,9.359c0,5.939-4.392,9.359-9.106,9.359c-4.716,0-9.107-3.42-9.107-9.359
			C588.82,189.151,593.212,185.732,597.928,185.732z M597.928,200.166c2.447,0,3.671-1.979,3.671-5.075s-1.224-5.076-3.671-5.076
			c-2.448,0-3.672,1.98-3.672,5.076S595.479,200.166,597.928,200.166z"/>
		<path d="M621.471,185.732c2.808,0,5.184,1.008,6.695,2.412l-2.447,3.275c-1.368-0.972-2.628-1.404-3.96-1.404
			c-3.06,0-5.184,1.98-5.184,5.076s2.052,5.075,5.004,5.075c1.871,0,3.455-0.792,4.715-1.692l2.16,3.348
			c-2.16,1.8-4.932,2.628-7.379,2.628c-5.615,0-9.935-3.42-9.935-9.359C611.141,189.151,615.964,185.732,621.471,185.732z"/>
		<path d="M633.063,178.785h5.292v14.47l0.107-0.036l6.587-7.055h5.796l-6.768,7.343l7.308,10.511h-5.724l-4.644-7.019l-2.663,2.592
			v4.427h-5.292V178.785z"/>
		<path d="M656.104,190.951l13.894-8.999v4.788l-9.538,5.975v0.144l9.538,5.975v4.788l-13.894-8.999V190.951z"/>
		<path d="M677.415,180.548h15.478v4.463h-10.187v5.436h8.675v4.463h-8.675v9.107h-5.291V180.548z"/>
		<path d="M705.926,185.732c4.715,0,9.106,3.419,9.106,9.359c0,5.939-4.392,9.359-9.106,9.359c-4.716,0-9.107-3.42-9.107-9.359
			C696.818,189.151,701.21,185.732,705.926,185.732z M705.926,200.166c2.447,0,3.671-1.979,3.671-5.075s-1.224-5.076-3.671-5.076
			c-2.448,0-3.672,1.98-3.672,5.076S703.478,200.166,705.926,200.166z"/>
		<path d="M727.525,185.732c4.715,0,9.106,3.419,9.106,9.359c0,5.939-4.392,9.359-9.106,9.359c-4.716,0-9.107-3.42-9.107-9.359
			C718.418,189.151,722.81,185.732,727.525,185.732z M727.525,200.166c2.447,0,3.671-1.979,3.671-5.075s-1.224-5.076-3.671-5.076
			c-2.448,0-3.672,1.98-3.672,5.076S725.077,200.166,727.525,200.166z"/>
		<path d="M755.748,194.623l-13.895,8.999v-4.788l9.539-5.975v-0.144l-9.539-5.975v-4.788l13.895,8.999V194.623z"/>
		<path d="M766.441,194.011c0-6.767,2.915-12.311,7.595-16.45l2.951,2.339c-4.283,4.176-6.119,8.423-6.119,14.11
			c0,5.688,1.836,9.935,6.119,14.11l-2.951,2.34C769.356,206.321,766.441,200.778,766.441,194.011z"/>
		<path d="M786.061,208.121c4.284-4.175,6.119-8.423,6.119-14.11c0-5.687-1.835-9.935-6.119-14.11l2.952-2.339
			c4.679,4.139,7.595,9.683,7.595,16.45s-2.916,12.311-7.595,16.45L786.061,208.121z"/>
		<path d="M833.472,198.222c0-1.26-1.044-2.591-4.932-2.664v-3.096c3.888-0.072,4.932-1.404,4.932-2.664
			c0-2.231-0.36-3.635-0.36-6.155c0-3.887,2.088-5.111,6.695-5.111h2.771v2.808h-1.476c-2.987,0-3.672,0.504-3.672,2.52
			c0,1.908,0.181,3.743,0.181,5.867c0,2.735-1.044,3.779-3.6,4.211v0.144c2.556,0.432,3.6,1.476,3.6,4.211
			c0,2.196-0.181,3.923-0.181,5.867c0,2.016,0.685,2.52,3.672,2.52h1.476v2.808h-2.771c-4.607,0-6.695-1.224-6.695-5.111
			C833.111,201.822,833.472,200.49,833.472,198.222z"/>
		<path d="M184.619,256.421v5.219h-5.291v-24.477h4.319l0.396,1.799h0.108c1.44-1.295,3.419-2.231,5.327-2.231
			c4.464,0,7.163,3.563,7.163,9.071c0,6.119-3.743,9.647-7.739,9.647c-1.584,0-3.167-0.684-4.463-1.944L184.619,256.421z
			 M187.679,251.13c1.98,0,3.528-1.583,3.528-5.255c0-3.204-1.044-4.823-3.275-4.823c-1.152,0-2.196,0.504-3.312,1.656v7.235
			C185.627,250.806,186.779,251.13,187.679,251.13z"/>
		<path d="M217.233,255.018h-4.319l-0.396-2.556h-0.144c-1.583,1.8-3.456,2.988-6.011,2.988c-4.067,0-5.795-2.772-5.795-7.271
			v-11.014h5.291v10.331c0,2.375,0.612,3.456,2.592,3.456c1.332,0,2.268-0.468,3.492-2.052v-11.734h5.291V255.018z"/>
		<path d="M222.527,229.785h5.291v6.191l-0.144,2.808c1.404-1.296,3.239-2.052,4.967-2.052c4.463,0,7.199,3.563,7.199,9.035
			c0,6.155-3.743,9.683-7.739,9.683c-1.656,0-3.384-0.828-4.859-2.376h-0.144l-0.432,1.944h-4.139V229.785z M230.914,251.13
			c1.944,0,3.492-1.583,3.492-5.255c0-3.204-1.044-4.823-3.275-4.823c-1.152,0-2.196,0.504-3.312,1.656v7.235
			C228.827,250.806,229.979,251.13,230.914,251.13z"/>
		<path d="M243.767,229.785h10.475v18.466c0,2.196,1.404,2.916,2.879,2.916c0.828,0,1.692-0.144,2.808-0.576l1.188,3.887
			c-1.872,0.576-3.132,0.972-5.363,0.972c-4.5,0-6.803-2.88-6.803-7.415V233.96h-5.183V229.785z"/>
		<path d="M265.979,237.164h12.454v17.854h-5.291v-13.714h-7.163V237.164z M272.026,231.333c0-1.944,1.476-3.312,3.527-3.312
			s3.527,1.368,3.527,3.312s-1.476,3.204-3.527,3.204S272.026,233.276,272.026,231.333z"/>
		<path d="M297.477,236.732c2.808,0,5.184,1.008,6.695,2.412l-2.448,3.275c-1.368-0.972-2.627-1.404-3.959-1.404
			c-3.06,0-5.183,1.98-5.183,5.076s2.052,5.075,5.003,5.075c1.872,0,3.456-0.792,4.715-1.692l2.16,3.348
			c-2.16,1.8-4.932,2.628-7.379,2.628c-5.616,0-9.935-3.42-9.935-9.359C287.146,240.151,291.969,236.732,297.477,236.732z"/>
		<path d="M329.049,237.164h5.328l2.808,8.423c0.576,1.8,1.08,3.635,1.62,5.507h0.144c0.54-1.872,1.008-3.708,1.584-5.507
			l2.808-8.423h5.075l-6.551,17.854h-6.083L329.049,237.164z"/>
		<path d="M360.332,236.732c4.715,0,9.106,3.419,9.106,9.359c0,5.939-4.391,9.359-9.106,9.359c-4.716,0-9.107-3.42-9.107-9.359
			C351.225,240.151,355.616,236.732,360.332,236.732z M360.332,251.166c2.447,0,3.671-1.979,3.671-5.075s-1.224-5.076-3.671-5.076
			c-2.448,0-3.672,1.98-3.672,5.076S357.884,251.166,360.332,251.166z"/>
		<path d="M373.977,237.164h12.454v17.854h-5.291v-13.714h-7.163V237.164z M380.024,231.333c0-1.944,1.476-3.312,3.527-3.312
			s3.527,1.368,3.527,3.312s-1.476,3.204-3.527,3.204S380.024,233.276,380.024,231.333z"/>
		<path d="M402.055,236.732c2.052,0,3.312,0.756,4.571,1.908l-0.18-2.771v-6.083h5.292v25.233h-4.32l-0.396-1.836h-0.108
			c-1.332,1.296-3.167,2.268-4.967,2.268c-4.536,0-7.523-3.528-7.523-9.359C394.424,240.259,398.168,236.732,402.055,236.732z
			 M403.315,251.13c1.188,0,2.196-0.468,3.132-1.656v-7.235c-0.972-0.864-1.944-1.188-2.988-1.188c-1.944,0-3.6,1.584-3.6,4.967
			C399.859,249.546,401.119,251.13,403.315,251.13z"/>
		<path d="M449.898,243.535c-0.18-1.62-1.404-2.592-3.815-2.592c-1.728,0-3.42,0.648-5.436,1.656l-1.872-3.456
			c2.448-1.404,5.291-2.412,8.351-2.412c5.003,0,8.063,2.592,8.063,8.063v10.223h-4.32l-0.396-2.016h-0.144
			c-1.8,1.368-4.032,2.448-6.335,2.448c-3.6,0-5.867-2.376-5.867-5.399C438.127,246.055,441.439,244.039,449.898,243.535z
			 M445.687,251.346c1.583,0,2.952-0.72,4.211-1.692v-2.952c-5.255,0.288-6.695,1.404-6.695,2.952
			C443.203,250.806,444.175,251.346,445.687,251.346z"/>
		<path d="M465.414,256.421v5.219h-5.291v-24.477h4.319l0.396,1.799h0.108c1.44-1.295,3.419-2.231,5.327-2.231
			c4.464,0,7.163,3.563,7.163,9.071c0,6.119-3.743,9.647-7.739,9.647c-1.584,0-3.167-0.684-4.463-1.944L465.414,256.421z
			 M468.474,251.13c1.98,0,3.528-1.583,3.528-5.255c0-3.204-1.044-4.823-3.275-4.823c-1.152,0-2.196,0.504-3.312,1.656v7.235
			C466.422,250.806,467.574,251.13,468.474,251.13z"/>
		<path d="M487.014,256.421v5.219h-5.291v-24.477h4.319l0.396,1.799h0.108c1.44-1.295,3.419-2.231,5.327-2.231
			c4.464,0,7.163,3.563,7.163,9.071c0,6.119-3.743,9.647-7.739,9.647c-1.584,0-3.167-0.684-4.463-1.944L487.014,256.421z
			 M490.073,251.13c1.98,0,3.528-1.583,3.528-5.255c0-3.204-1.044-4.823-3.275-4.823c-1.152,0-2.196,0.504-3.312,1.656v7.235
			C488.022,250.806,489.174,251.13,490.073,251.13z"/>
		<path d="M502.962,229.785h10.475v18.466c0,2.196,1.403,2.916,2.879,2.916c0.828,0,1.691-0.144,2.808-0.576l1.188,3.887
			c-1.872,0.576-3.132,0.972-5.363,0.972c-4.5,0-6.804-2.88-6.804-7.415V233.96h-5.183V229.785z"/>
		<path d="M527.081,257.825c2.052,0,3.168-0.936,3.744-2.34l0.359-0.936l-7.738-17.386h5.255l2.987,7.667
			c0.648,1.691,1.225,3.491,1.8,5.363h0.145c0.468-1.764,1.08-3.6,1.62-5.363l2.627-7.667h5.004l-7.056,18.034
			c-1.728,4.499-3.852,6.803-8.351,6.803c-1.044,0-1.979-0.144-2.735-0.36l0.936-4.031
			C526.146,257.753,526.613,257.825,527.081,257.825z"/>
		<path d="M550.445,245.011c0-6.767,2.915-12.311,7.595-16.45l2.951,2.339c-4.283,4.176-6.119,8.423-6.119,14.11
			c0,5.688,1.836,9.935,6.119,14.11l-2.951,2.34C553.36,257.321,550.445,251.778,550.445,245.011z"/>
		<path d="M569.417,231.548h15.478v4.463h-10.187v5.436h8.675v4.463h-8.675v9.107h-5.291V231.548z"/>
		<path d="M597.928,236.732c4.715,0,9.106,3.419,9.106,9.359c0,5.939-4.392,9.359-9.106,9.359c-4.716,0-9.107-3.42-9.107-9.359
			C588.82,240.151,593.212,236.732,597.928,236.732z M597.928,251.166c2.447,0,3.671-1.979,3.671-5.075s-1.224-5.076-3.671-5.076
			c-2.448,0-3.672,1.98-3.672,5.076S595.479,251.166,597.928,251.166z"/>
		<path d="M619.527,236.732c4.715,0,9.106,3.419,9.106,9.359c0,5.939-4.392,9.359-9.106,9.359c-4.716,0-9.107-3.42-9.107-9.359
			C610.42,240.151,614.812,236.732,619.527,236.732z M619.527,251.166c2.447,0,3.671-1.979,3.671-5.075s-1.224-5.076-3.671-5.076
			c-2.448,0-3.672,1.98-3.672,5.076S617.079,251.166,619.527,251.166z"/>
		<path d="M671.978,234.212c-1.116-0.432-2.376-0.684-3.744-0.684c-2.268,0-3.348,0.972-3.348,3.131v0.504h6.155v4.139h-6.155
			v13.714h-5.291v-13.714h-4.716v-3.923l4.716-0.216v-0.468c0-4.104,2.412-7.343,7.991-7.343c2.052,0,3.888,0.468,5.399,0.972
			L671.978,234.212z"/>
		<path d="M684.326,236.732c4.715,0,9.106,3.419,9.106,9.359c0,5.939-4.392,9.359-9.106,9.359c-4.716,0-9.107-3.42-9.107-9.359
			C675.219,240.151,679.61,236.732,684.326,236.732z M684.326,251.166c2.447,0,3.671-1.979,3.671-5.075s-1.224-5.076-3.671-5.076
			c-2.448,0-3.672,1.98-3.672,5.076S681.878,251.166,684.326,251.166z"/>
		<path d="M705.926,236.732c4.715,0,9.106,3.419,9.106,9.359c0,5.939-4.392,9.359-9.106,9.359c-4.716,0-9.107-3.42-9.107-9.359
			C696.818,240.151,701.21,236.732,705.926,236.732z M705.926,251.166c2.447,0,3.671-1.979,3.671-5.075s-1.224-5.076-3.671-5.076
			c-2.448,0-3.672,1.98-3.672,5.076S703.478,251.166,705.926,251.166z"/>
		<path d="M721.262,259.121c4.284-4.175,6.119-8.423,6.119-14.11c0-5.687-1.835-9.935-6.119-14.11l2.952-2.339
			c4.679,4.139,7.595,9.683,7.595,16.45s-2.916,12.311-7.595,16.45L721.262,259.121z"/>
		<path d="M768.673,249.222c0-1.26-1.044-2.591-4.932-2.664v-3.096c3.888-0.072,4.932-1.404,4.932-2.664
			c0-2.231-0.36-3.635-0.36-6.155c0-3.887,2.088-5.111,6.695-5.111h2.771v2.808h-1.476c-2.987,0-3.672,0.504-3.672,2.52
			c0,1.908,0.181,3.743,0.181,5.867c0,2.735-1.044,3.779-3.6,4.211v0.144c2.556,0.432,3.6,1.476,3.6,4.211
			c0,2.196-0.181,3.923-0.181,5.867c0,2.016,0.685,2.52,3.672,2.52h1.476v2.808h-2.771c-4.607,0-6.695-1.224-6.695-5.111
			C768.313,252.822,768.673,251.49,768.673,249.222z"/>
		<path d="M227.027,311.777h-4.428l11.843-31.316h4.427L227.027,311.777z"/>
		<path d="M248.626,311.777h-4.428l11.843-31.316h4.427L248.626,311.777z"/>
		<path d="M287.074,282.548h6.371c6.803,0,11.303,3.564,11.303,11.627s-4.5,11.842-11.015,11.842h-6.659V282.548z M293.157,301.734
			c3.672,0,6.155-1.943,6.155-7.559c0-5.616-2.483-7.343-6.155-7.343h-0.756v14.902H293.157z"/>
		<path d="M317.133,287.732c4.715,0,9.106,3.419,9.106,9.359c0,5.939-4.391,9.359-9.106,9.359c-4.716,0-9.107-3.42-9.107-9.359
			C308.026,291.151,312.417,287.732,317.133,287.732z M317.133,302.166c2.447,0,3.671-1.979,3.671-5.075s-1.224-5.076-3.671-5.076
			c-2.448,0-3.672,1.98-3.672,5.076S314.685,302.166,317.133,302.166z"/>
		<path d="M354.393,299.43c1.764,1.44,3.959,2.448,6.011,2.448c2.448,0,3.528-0.864,3.528-2.268c0-1.476-1.368-1.944-3.636-2.808
			l-3.023-1.296c-2.628-0.972-5.003-2.988-5.003-6.407c0-3.887,3.527-6.983,8.603-6.983c2.844,0,5.688,1.08,7.811,3.096l-2.7,3.347
			c-1.62-1.188-3.095-1.872-5.111-1.872c-2.052,0-3.239,0.792-3.239,2.124c0,1.44,1.583,1.944,3.852,2.772l2.843,1.224
			c3.096,1.152,5.04,3.06,5.04,6.371c0,3.888-3.275,7.271-9.107,7.271c-3.167,0-6.407-1.152-8.927-3.384L354.393,299.43z"/>
		<path d="M381.932,287.732c4.715,0,9.106,3.419,9.106,9.359c0,5.939-4.391,9.359-9.106,9.359c-4.716,0-9.107-3.42-9.107-9.359
			C372.825,291.151,377.216,287.732,381.932,287.732z M381.932,302.166c2.447,0,3.671-1.979,3.671-5.075s-1.224-5.076-3.671-5.076
			c-2.448,0-3.672,1.98-3.672,5.076S379.484,302.166,381.932,302.166z"/>
		<path d="M394.028,288.164h3.959l0.396,2.231h0.144c0.684-1.476,1.764-2.664,3.815-2.664c1.584,0,2.7,1.008,3.131,2.916
			c0.648-1.62,1.908-2.916,3.924-2.916c2.483,0,3.959,2.196,3.959,5.759v12.526h-4.967v-12.13c0-1.116-0.288-1.656-1.008-1.656
			c-0.684,0-1.188,0.576-1.656,1.728v12.059h-4.067v-12.13c0-1.116-0.36-1.656-1.044-1.656c-0.684,0-1.116,0.576-1.62,1.728v12.059
			h-4.967V288.164z"/>
		<path d="M425.599,287.732c5.507,0,8.387,3.708,8.387,8.567c0,0.936-0.144,1.8-0.216,2.231h-12.022
			c0.504,2.7,2.556,3.888,5.184,3.888c1.62,0,3.023-0.432,4.607-1.224l1.728,3.167c-2.016,1.296-4.679,2.088-7.055,2.088
			c-5.543,0-9.898-3.456-9.898-9.359C416.312,291.259,420.847,287.732,425.599,287.732z M429.198,295.255
			c0-2.052-1.08-3.492-3.492-3.492c-1.908,0-3.6,1.116-4.031,3.492H429.198z"/>
		<path d="M442.195,292.303h-4.463v-3.923l4.715-0.216l0.684-4.751h4.355v4.751h7.523v4.139h-7.523v6.263
			c0,2.7,1.152,3.744,3.743,3.744c1.368,0,2.556-0.288,3.6-0.648l0.936,3.815c-1.584,0.468-3.563,0.972-5.867,0.972
			c-5.688,0-7.703-3.168-7.703-7.847V292.303z"/>
		<path d="M460.123,280.785h5.291v6.191l-0.288,3.419c1.404-1.368,3.347-2.664,6.047-2.664c3.996,0,5.795,2.771,5.795,7.271v11.015
			h-5.292v-10.331c0-2.376-0.684-3.456-2.627-3.456c-1.44,0-2.375,0.648-3.636,1.872v11.915h-5.291V280.785z"/>
		<path d="M481.975,288.164h12.454v17.854h-5.291v-13.714h-7.163V288.164z M488.022,282.333c0-1.944,1.476-3.312,3.527-3.312
			s3.527,1.368,3.527,3.312s-1.476,3.204-3.527,3.204S488.022,284.276,488.022,282.333z"/>
		<path d="M503.322,288.164h4.319l0.396,2.375h0.144c1.548-1.512,3.491-2.808,6.155-2.808c4.031,0,5.831,2.771,5.831,7.271v11.015
			h-5.291v-10.331c0-2.376-0.684-3.456-2.628-3.456c-1.44,0-2.375,0.648-3.636,1.872v11.915h-5.291V288.164z"/>
		<path d="M526.974,305.478v-0.144c-0.972-0.612-1.8-1.548-1.8-3.06c0-1.188,0.864-2.483,2.124-3.348v-0.144
			c-1.296-0.864-2.34-2.484-2.34-4.572c0-4.283,3.6-6.479,7.631-6.479c1.08,0,2.088,0.144,2.951,0.432h7.235v3.851h-3.636
			c0.433,0.54,0.828,1.44,0.828,2.376c0,4.104-3.239,5.975-7.379,5.975c-0.72,0-1.548-0.108-2.448-0.36
			c-0.539,0.396-0.791,0.72-0.791,1.296c0,0.972,0.936,1.368,3.023,1.368h3.312c4.68,0,7.235,1.296,7.235,4.5
			c0,3.744-4.14,6.443-10.619,6.443c-4.644,0-8.099-1.368-8.099-4.572C524.202,307.602,525.138,306.377,526.974,305.478z
			 M533.057,310.301c2.844,0,4.823-0.972,4.823-2.196c0-1.152-1.08-1.404-3.132-1.404h-2.231c-1.296,0-2.088-0.072-2.735-0.216
			c-0.9,0.576-1.26,1.116-1.26,1.764C528.521,309.581,530.249,310.301,533.057,310.301z M535.324,294.211
			c0-1.908-1.26-2.916-2.735-2.916s-2.664,1.008-2.664,2.916c0,1.944,1.188,2.952,2.664,2.952S535.324,296.155,535.324,294.211z"/>
		<path d="M181.992,359.681c2.952,0,3.636-0.504,3.636-2.52c0-1.944-0.144-3.671-0.144-5.867c0-2.736,1.008-3.78,3.6-4.211v-0.144
			c-2.592-0.432-3.6-1.476-3.6-4.211c0-2.124,0.144-3.959,0.144-5.867c0-2.016-0.684-2.52-3.636-2.52h-1.476v-2.808h2.772
			c4.607,0,6.695,1.224,6.695,5.111c0,2.52-0.396,3.924-0.396,6.155c0,1.26,1.043,2.592,4.967,2.664v3.096
			c-3.924,0.072-4.967,1.404-4.967,2.664c0,2.268,0.396,3.6,0.396,6.155c0,3.888-2.087,5.111-6.695,5.111h-2.772v-2.808H181.992z"/>
		<path d="M138.792,410.682c2.952,0,3.636-0.504,3.636-2.521c0-1.943-0.144-3.671-0.144-5.867c0-2.735,1.008-3.779,3.6-4.211v-0.145
			c-2.592-0.432-3.6-1.476-3.6-4.211c0-2.124,0.144-3.96,0.144-5.867c0-2.016-0.684-2.52-3.636-2.52h-1.476v-2.808h2.772
			c4.607,0,6.695,1.224,6.695,5.111c0,2.52-0.396,3.923-0.396,6.155c0,1.26,1.043,2.591,4.967,2.663v3.096
			c-3.924,0.072-4.967,1.404-4.967,2.664c0,2.268,0.396,3.6,0.396,6.155c0,3.887-2.087,5.111-6.695,5.111h-2.772v-2.808H138.792z"/>
		<path d="M159.672,412.121c4.283-4.176,6.119-8.423,6.119-14.11s-1.836-9.935-6.119-14.11l2.952-2.34
			c4.679,4.14,7.595,9.684,7.595,16.45c0,6.768-2.916,12.311-7.595,16.45L159.672,412.121z"/>
		<path d="M183.288,412.733c3.131-1.08,4.679-2.844,4.679-5.111c-0.144,0.035-0.252,0.035-0.396,0.035
			c-2.016,0-3.887-1.296-3.887-3.671c0-2.232,1.8-3.708,4.031-3.708c2.952,0,4.463,2.304,4.463,6.191
			c0,4.571-2.591,7.847-7.559,9.358L183.288,412.733z M183.359,392.575c0-2.34,1.692-4.211,4.176-4.211
			c2.483,0,4.175,1.871,4.175,4.211c0,2.376-1.692,4.248-4.175,4.248C185.051,396.823,183.359,394.951,183.359,392.575z"/>
	</g>
	<g>
		<path d="M147.552,118.886v43.133h-9.792v-43.133H147.552z"/>
		<path d="M155.68,140.708c0-3.904-0.128-7.231-0.256-9.983h8.447l0.448,4.288h0.192c1.28-1.984,4.48-4.992,9.664-4.992
			c6.399,0,11.199,4.224,11.199,13.439v18.559h-9.728v-17.343c0-4.032-1.408-6.784-4.928-6.784c-2.688,0-4.288,1.856-4.927,3.648
			c-0.256,0.576-0.384,1.536-0.384,2.432v18.047h-9.727V140.708z"/>
		<path d="M204.063,121.766v8.959h6.976v7.167h-6.976v11.328c0,3.775,0.896,5.503,3.84,5.503c1.216,0,2.176-0.128,2.88-0.256
			l0.064,7.359c-1.28,0.512-3.583,0.832-6.335,0.832c-3.136,0-5.76-1.088-7.295-2.688c-1.792-1.856-2.688-4.864-2.688-9.279v-12.799
			h-4.16v-7.167h4.16v-6.783L204.063,121.766z"/>
		<path d="M224.159,149.476c0.32,4.032,4.288,5.952,8.832,5.952c3.328,0,6.016-0.448,8.639-1.28l1.28,6.592
			c-3.2,1.28-7.104,1.92-11.327,1.92c-10.623,0-16.703-6.144-16.703-15.935c0-7.936,4.928-16.703,15.807-16.703
			c10.111,0,13.951,7.871,13.951,15.615c0,1.664-0.192,3.136-0.32,3.84H224.159z M235.614,142.82c0-2.368-1.024-6.335-5.503-6.335
			c-4.096,0-5.76,3.712-6.016,6.335H235.614z"/>
		<path d="M250.463,141.028c0-4.608-0.128-7.616-0.256-10.304h8.383l0.32,5.76h0.256c1.6-4.543,5.44-6.463,8.448-6.463
			c0.896,0,1.344,0,2.048,0.128v9.151c-0.704-0.128-1.536-0.256-2.624-0.256c-3.584,0-6.016,1.919-6.655,4.927
			c-0.128,0.64-0.192,1.408-0.192,2.176v15.871h-9.727V141.028z"/>
		<path d="M274.783,140.708c0-3.904-0.128-7.231-0.256-9.983h8.447l0.448,4.288h0.192c1.28-1.984,4.48-4.992,9.664-4.992
			c6.399,0,11.199,4.224,11.199,13.439v18.559h-9.728v-17.343c0-4.032-1.408-6.784-4.928-6.784c-2.688,0-4.288,1.856-4.927,3.648
			c-0.256,0.576-0.384,1.536-0.384,2.432v18.047h-9.727V140.708z"/>
		<path d="M330.077,162.019l-0.576-3.136h-0.192c-2.048,2.496-5.248,3.84-8.959,3.84c-6.335,0-10.111-4.608-10.111-9.6
			c0-8.127,7.295-12.031,18.367-11.967v-0.448c0-1.664-0.896-4.032-5.696-4.032c-3.2,0-6.591,1.088-8.639,2.368l-1.792-6.272
			c2.176-1.216,6.463-2.751,12.159-2.751c10.431,0,13.759,6.144,13.759,13.503v10.879c0,3.008,0.128,5.887,0.448,7.615H330.077z
			 M328.925,147.236c-5.12-0.064-9.087,1.152-9.087,4.927c0,2.496,1.664,3.712,3.84,3.712c2.432,0,4.416-1.6,5.056-3.584
			c0.128-0.512,0.192-1.088,0.192-1.664V147.236z"/>
		<path d="M346.079,116.582h9.727v45.437h-9.727V116.582z"/>
		<path d="M386.717,118.886v43.133h-9.792v-43.133H386.717z"/>
		<path d="M405.724,121.766v8.959h6.976v7.167h-6.976v11.328c0,3.775,0.896,5.503,3.84,5.503c1.216,0,2.176-0.128,2.88-0.256
			l0.064,7.359c-1.28,0.512-3.583,0.832-6.335,0.832c-3.136,0-5.76-1.088-7.295-2.688c-1.792-1.856-2.688-4.864-2.688-9.279v-12.799
			h-4.16v-7.167h4.16v-6.783L405.724,121.766z"/>
		<path d="M425.82,149.476c0.32,4.032,4.288,5.952,8.832,5.952c3.328,0,6.016-0.448,8.639-1.28l1.28,6.592
			c-3.2,1.28-7.104,1.92-11.327,1.92c-10.623,0-16.703-6.144-16.703-15.935c0-7.936,4.928-16.703,15.807-16.703
			c10.111,0,13.951,7.871,13.951,15.615c0,1.664-0.192,3.136-0.32,3.84H425.82z M437.275,142.82c0-2.368-1.024-6.335-5.503-6.335
			c-4.096,0-5.76,3.712-6.016,6.335H437.275z"/>
		<path d="M452.125,141.028c0-4.608-0.128-7.616-0.256-10.304h8.383l0.32,5.76h0.256c1.6-4.543,5.44-6.463,8.448-6.463
			c0.896,0,1.344,0,2.048,0.128v9.151c-0.704-0.128-1.536-0.256-2.624-0.256c-3.584,0-6.016,1.919-6.655,4.927
			c-0.128,0.64-0.192,1.408-0.192,2.176v15.871h-9.727V141.028z"/>
		<path d="M494.234,162.019l-0.576-3.136h-0.192c-2.048,2.496-5.248,3.84-8.959,3.84c-6.335,0-10.111-4.608-10.111-9.6
			c0-8.127,7.295-12.031,18.367-11.967v-0.448c0-1.664-0.896-4.032-5.696-4.032c-3.2,0-6.591,1.088-8.639,2.368l-1.792-6.272
			c2.176-1.216,6.463-2.751,12.159-2.751c10.431,0,13.759,6.144,13.759,13.503v10.879c0,3.008,0.128,5.887,0.448,7.615H494.234z
			 M493.083,147.236c-5.12-0.064-9.087,1.152-9.087,4.927c0,2.496,1.664,3.712,3.84,3.712c2.432,0,4.416-1.6,5.056-3.584
			c0.128-0.512,0.192-1.088,0.192-1.664V147.236z"/>
		<path d="M521.115,121.766v8.959h6.976v7.167h-6.976v11.328c0,3.775,0.896,5.503,3.84,5.503c1.216,0,2.176-0.128,2.879-0.256
			l0.064,7.359c-1.28,0.512-3.584,0.832-6.336,0.832c-3.136,0-5.759-1.088-7.295-2.688c-1.792-1.856-2.688-4.864-2.688-9.279
			v-12.799h-4.16v-7.167h4.16v-6.783L521.115,121.766z"/>
		<path d="M564.633,146.02c0,11.456-8.127,16.703-16.511,16.703c-9.151,0-16.19-6.016-16.19-16.127s6.655-16.575,16.702-16.575
			C558.233,130.021,564.633,136.612,564.633,146.02z M541.979,146.34c0,5.375,2.24,9.407,6.399,9.407
			c3.775,0,6.208-3.776,6.208-9.407c0-4.672-1.792-9.407-6.208-9.407C543.706,136.933,541.979,141.732,541.979,146.34z"/>
		<path d="M570.65,141.028c0-4.608-0.128-7.616-0.256-10.304h8.384l0.32,5.76h0.256c1.6-4.543,5.439-6.463,8.447-6.463
			c0.896,0,1.344,0,2.048,0.128v9.151c-0.704-0.128-1.536-0.256-2.624-0.256c-3.584,0-6.016,1.919-6.655,4.927
			c-0.128,0.64-0.192,1.408-0.192,2.176v15.871h-9.728V141.028z"/>
	</g>
</g>
<g id="jfx:p06">
	<g>
		<path style="fill:#F15A24;" d="M255.745,349c0,2.352-1.792,4.256-4.592,4.256c-2.688,0-4.48-1.904-4.424-4.256
			c-0.056-2.464,1.736-4.312,4.48-4.312S255.689,346.536,255.745,349z M246.953,384v-27.384h8.512V384H246.953z"/>
		<path style="fill:#F15A24;" d="M262.296,365.352c0-3.416-0.112-6.328-0.224-8.736h7.392l0.392,3.752h0.168
			c1.12-1.736,3.92-4.368,8.456-4.368c5.6,0,9.8,3.696,9.8,11.76V384h-8.512v-15.176c0-3.528-1.232-5.936-4.312-5.936
			c-2.352,0-3.752,1.624-4.312,3.192c-0.224,0.504-0.336,1.344-0.336,2.128V384h-8.512V365.352z"/>
		<path style="fill:#F15A24;" d="M321.656,344.24v31.584c0,3.08,0.112,6.328,0.224,8.176h-7.56l-0.392-4.032h-0.112
			c-1.736,3.08-5.04,4.648-8.568,4.648c-6.496,0-11.704-5.544-11.704-14.056c-0.056-9.24,5.712-14.56,12.264-14.56
			c3.36,0,5.992,1.176,7.224,3.08h0.112v-14.84H321.656z M313.144,368.208c0-0.448-0.056-1.064-0.112-1.512
			c-0.504-2.296-2.352-4.2-4.984-4.2c-3.864,0-5.88,3.472-5.88,7.784c0,4.648,2.296,7.56,5.824,7.56c2.464,0,4.424-1.68,4.928-4.088
			c0.168-0.616,0.224-1.232,0.224-1.96V368.208z"/>
		<path style="fill:#F15A24;" d="M335.04,373.024c0.28,3.528,3.752,5.208,7.728,5.208c2.912,0,5.264-0.392,7.56-1.12l1.12,5.768
			c-2.8,1.12-6.216,1.68-9.912,1.68c-9.296,0-14.616-5.376-14.616-13.944c0-6.944,4.312-14.616,13.832-14.616
			c8.848,0,12.208,6.888,12.208,13.664c0,1.456-0.168,2.744-0.28,3.36H335.04z M345.063,367.2c0-2.072-0.896-5.544-4.816-5.544
			c-3.584,0-5.04,3.248-5.264,5.544H345.063z"/>
		<path style="fill:#F15A24;" d="M358.056,365.8c0-3.584-0.112-6.664-0.224-9.184h7.392l0.392,3.808h0.112
			c2.016-2.912,5.152-4.424,9.128-4.424c5.992,0,11.368,5.208,11.368,13.944c0,9.968-6.328,14.672-12.432,14.672
			c-3.304,0-5.88-1.344-7.112-3.136h-0.112v13.608h-8.512V365.8z M366.567,372.24c0,0.672,0.056,1.288,0.168,1.792
			c0.56,2.296,2.52,4.032,4.984,4.032c3.696,0,5.88-3.08,5.88-7.728c0-4.368-1.96-7.672-5.768-7.672
			c-2.408,0-4.536,1.792-5.096,4.312c-0.112,0.448-0.168,1.008-0.168,1.512V372.24z"/>
		<path style="fill:#F15A24;" d="M398.095,373.024c0.28,3.528,3.752,5.208,7.728,5.208c2.912,0,5.264-0.392,7.56-1.12l1.12,5.768
			c-2.8,1.12-6.216,1.68-9.912,1.68c-9.296,0-14.616-5.376-14.616-13.944c0-6.944,4.312-14.616,13.832-14.616
			c8.848,0,12.208,6.888,12.208,13.664c0,1.456-0.168,2.744-0.28,3.36H398.095z M408.119,367.2c0-2.072-0.896-5.544-4.816-5.544
			c-3.584,0-5.04,3.248-5.264,5.544H408.119z"/>
		<path style="fill:#F15A24;" d="M421.111,365.352c0-3.416-0.112-6.328-0.224-8.736h7.392l0.392,3.752h0.168
			c1.12-1.736,3.92-4.368,8.456-4.368c5.6,0,9.8,3.696,9.8,11.76V384h-8.512v-15.176c0-3.528-1.232-5.936-4.312-5.936
			c-2.352,0-3.752,1.624-4.312,3.192c-0.224,0.504-0.336,1.344-0.336,2.128V384h-8.512V365.352z"/>
		<path style="fill:#F15A24;" d="M480.471,344.24v31.584c0,3.08,0.112,6.328,0.224,8.176h-7.56l-0.392-4.032h-0.112
			c-1.736,3.08-5.04,4.648-8.568,4.648c-6.496,0-11.704-5.544-11.704-14.056c-0.056-9.24,5.712-14.56,12.264-14.56
			c3.36,0,5.992,1.176,7.224,3.08h0.112v-14.84H480.471z M471.958,368.208c0-0.448-0.056-1.064-0.112-1.512
			c-0.504-2.296-2.352-4.2-4.984-4.2c-3.864,0-5.88,3.472-5.88,7.784c0,4.648,2.296,7.56,5.824,7.56c2.464,0,4.424-1.68,4.928-4.088
			c0.168-0.616,0.224-1.232,0.224-1.96V368.208z"/>
		<path style="fill:#F15A24;" d="M493.854,373.024c0.28,3.528,3.752,5.208,7.728,5.208c2.912,0,5.264-0.392,7.56-1.12l1.12,5.768
			c-2.8,1.12-6.216,1.68-9.912,1.68c-9.296,0-14.616-5.376-14.616-13.944c0-6.944,4.312-14.616,13.832-14.616
			c8.848,0,12.208,6.888,12.208,13.664c0,1.456-0.168,2.744-0.28,3.36H493.854z M503.878,367.2c0-2.072-0.896-5.544-4.816-5.544
			c-3.584,0-5.04,3.248-5.264,5.544H503.878z"/>
		<path style="fill:#F15A24;" d="M516.87,365.352c0-3.416-0.112-6.328-0.224-8.736h7.392l0.392,3.752h0.168
			c1.121-1.736,3.92-4.368,8.457-4.368c5.6,0,9.799,3.696,9.799,11.76V384h-8.512v-15.176c0-3.528-1.232-5.936-4.312-5.936
			c-2.353,0-3.753,1.624-4.312,3.192c-0.225,0.504-0.337,1.344-0.337,2.128V384h-8.512V365.352z"/>
		<path style="fill:#F15A24;" d="M559.206,348.776v7.84h6.104v6.272h-6.104v9.912c0,3.304,0.784,4.816,3.36,4.816
			c1.063,0,1.903-0.112,2.52-0.224l0.057,6.44c-1.121,0.448-3.137,0.728-5.545,0.728c-2.744,0-5.039-0.952-6.384-2.352
			c-1.567-1.624-2.353-4.256-2.353-8.12v-11.2h-3.639v-6.272h3.639v-5.936L559.206,348.776z"/>
	</g>
</g>
<g id="jfx:p07">
	<g>
		<path style="fill:#FF0000;" d="M695.243,349.76c2.632-0.448,6.328-0.784,11.536-0.784c5.264,0,9.016,1.008,11.536,3.024
			c2.407,1.904,4.032,5.04,4.032,8.736c0,3.696-1.232,6.832-3.473,8.96c-2.912,2.744-7.224,3.976-12.264,3.976
			c-1.12,0-2.128-0.056-2.912-0.168V387h-8.456V349.76z M703.699,366.896c0.729,0.168,1.624,0.224,2.855,0.224
			c4.537,0,7.336-2.296,7.336-6.16c0-3.472-2.407-5.544-6.664-5.544c-1.735,0-2.911,0.168-3.527,0.336V366.896z"/>
		<path style="fill:#FF0000;" d="M743.066,387l-0.504-2.744h-0.168c-1.791,2.184-4.592,3.36-7.84,3.36
			c-5.543,0-8.848-4.032-8.848-8.4c0-7.112,6.384-10.528,16.072-10.472v-0.392c0-1.456-0.784-3.528-4.984-3.528
			c-2.8,0-5.768,0.952-7.561,2.072l-1.567-5.488c1.903-1.064,5.655-2.408,10.64-2.408c9.129,0,12.04,5.376,12.04,11.816v9.52
			c0,2.632,0.112,5.152,0.392,6.664H743.066z M742.059,374.064c-4.479-0.056-7.951,1.008-7.951,4.312
			c0,2.184,1.455,3.248,3.359,3.248c2.128,0,3.864-1.4,4.424-3.136c0.112-0.448,0.168-0.952,0.168-1.456V374.064z"/>
		<path style="fill:#FF0000;" d="M757.066,368.632c0-4.032-0.111-6.664-0.224-9.016h7.336l0.28,5.04h0.224
			c1.4-3.976,4.761-5.656,7.392-5.656c0.785,0,1.177,0,1.793,0.112v8.008c-0.616-0.112-1.344-0.224-2.297-0.224
			c-3.135,0-5.264,1.68-5.824,4.312c-0.111,0.56-0.168,1.232-0.168,1.904V387h-8.512V368.632z"/>
		<path style="fill:#FF0000;" d="M793.914,387l-0.504-2.744h-0.168c-1.792,2.184-4.592,3.36-7.84,3.36
			c-5.545,0-8.848-4.032-8.848-8.4c0-7.112,6.383-10.528,16.071-10.472v-0.392c0-1.456-0.784-3.528-4.983-3.528
			c-2.801,0-5.769,0.952-7.561,2.072l-1.568-5.488c1.904-1.064,5.656-2.408,10.641-2.408c9.128,0,12.039,5.376,12.039,11.816v9.52
			c0,2.632,0.113,5.152,0.393,6.664H793.914z M792.906,374.064c-4.48-0.056-7.952,1.008-7.952,4.312c0,2.184,1.456,3.248,3.36,3.248
			c2.127,0,3.863-1.4,4.424-3.136c0.111-0.448,0.168-0.952,0.168-1.456V374.064z"/>
		<path style="fill:#FF0000;" d="M807.914,347.24h8.512V387h-8.512V347.24z"/>
		<path style="fill:#FF0000;" d="M823.314,347.24h8.512V387h-8.512V347.24z"/>
		<path style="fill:#FF0000;" d="M845.266,376.024c0.279,3.528,3.752,5.208,7.728,5.208c2.912,0,5.265-0.392,7.56-1.12l1.121,5.768
			c-2.801,1.12-6.217,1.681-9.912,1.681c-9.297,0-14.616-5.376-14.616-13.944c0-6.944,4.312-14.616,13.831-14.616
			c8.849,0,12.209,6.888,12.209,13.664c0,1.456-0.168,2.744-0.28,3.36H845.266z M855.289,370.2c0-2.072-0.896-5.544-4.816-5.544
			c-3.584,0-5.039,3.248-5.264,5.544H855.289z"/>
		<path style="fill:#FF0000;" d="M868.281,347.24h8.512V387h-8.512V347.24z"/>
	</g>
	<rect x="607" y="362" style="fill:#FF0000;" width="49" height="16"/>
	<polygon style="fill:#FF0000;" points="668.374,370 643.626,394.749 643.626,345.251 	"/>
</g>
</svg>
