<?xml version="1.0" encoding="iso-8859-1"?>
<!-- Generator: Adobe Illustrator 16.1.1, SVG Export Plug-In . SVG Version: 6.00 Build 0)  -->
<!DOCTYPE svg PUBLIC "-//W3C//DTD SVG 1.1//EN" "http://www.w3.org/Graphics/SVG/1.1/DTD/svg11.dtd">
<svg version="1.1" xmlns="http://www.w3.org/2000/svg" xmlns:xlink="http://www.w3.org/1999/xlink" x="0px" y="0px" width="1024px"
	 height="768px" viewBox="0 0 1024 768" style="enable-background:new 0 0 1024 768;" xml:space="preserve">
<g id="jfx:p00">
	<image style="overflow:visible;" width="1024" height="768" xlink:href="153D0678.jpg" >
	</image>
</g>
<g id="jfx:p01">
	<g>
		<path style="fill:#FFFFFF;" d="M68.362,492.589h15.301v54.604h26.802v12.801H68.362V492.589z"/>
		<path style="fill:#FFFFFF;" d="M146.762,559.993l-0.9-4.9h-0.3c-3.2,3.9-8.201,6.001-14.001,6.001
			c-9.9,0-15.801-7.201-15.801-15.002c0-12.7,11.4-18.801,28.702-18.701v-0.699c0-2.601-1.4-6.301-8.901-6.301
			c-5,0-10.3,1.7-13.5,3.7l-2.8-9.8c3.4-1.9,10.101-4.301,19.001-4.301c16.301,0,21.501,9.601,21.501,21.102v17
			c0,4.701,0.2,9.201,0.7,11.901H146.762z M144.962,536.892c-8-0.1-14.201,1.8-14.201,7.7c0,3.9,2.601,5.801,6,5.801
			c3.8,0,6.9-2.5,7.9-5.601c0.2-0.8,0.3-1.7,0.3-2.601V536.892z"/>
		<path style="fill:#FFFFFF;" d="M171.761,526.691c0-6.101-0.2-11.301-0.4-15.602h12.801l0.7,6.601h0.3
			c2.101-3.101,6.4-7.7,14.801-7.7c6.3,0,11.3,3.2,13.401,8.301h0.2c1.8-2.5,4-4.5,6.3-5.9c2.7-1.601,5.701-2.4,9.301-2.4
			c9.4,0,16.501,6.6,16.501,21.201v28.802h-14.801v-26.602c0-7.101-2.3-11.2-7.201-11.2c-3.5,0-6,2.399-7,5.3
			c-0.4,1.101-0.6,2.7-0.6,3.9v28.602h-14.801v-27.401c0-6.201-2.2-10.4-7-10.4c-3.9,0-6.2,3-7.1,5.5c-0.5,1.199-0.6,2.6-0.6,3.8
			v28.502h-14.801V526.691z"/>
		<path style="fill:#FFFFFF;" d="M257.359,559.993c0.2-3.2,0.4-9.101,0.4-14.601v-56.404h15.201v27.902h0.2
			c2.9-4.2,8-6.9,14.801-6.9c11.701,0,20.301,9.701,20.201,24.701c0,17.602-11.201,26.402-22.401,26.402
			c-5.7,0-11.201-2.101-14.701-7.9h-0.2l-0.6,6.8H257.359z M272.96,539.191c0,1,0.1,1.9,0.3,2.701c1,4.1,4.5,7.199,8.901,7.199
			c6.5,0,10.5-5,10.5-13.801c0-7.6-3.4-13.6-10.5-13.6c-4.1,0-7.9,3.1-8.901,7.5c-0.2,0.9-0.3,1.8-0.3,2.8V539.191z"/>
		<path style="fill:#FFFFFF;" d="M364.961,488.988v56.404c0,5.5,0.2,11.301,0.4,14.601H351.86l-0.7-7.2h-0.2
			c-3.1,5.5-9,8.301-15.301,8.301c-11.601,0-20.901-9.901-20.901-25.102c-0.1-16.502,10.201-26.002,21.901-26.002
			c6,0,10.701,2.1,12.901,5.5h0.2v-26.502H364.961z M349.76,531.791c0-0.8-0.1-1.9-0.2-2.699c-0.9-4.101-4.201-7.501-8.901-7.501
			c-6.9,0-10.5,6.2-10.5,13.901c0,8.3,4.1,13.5,10.4,13.5c4.4,0,7.901-3,8.801-7.301c0.3-1.1,0.4-2.199,0.4-3.5V531.791z"/>
		<path style="fill:#FFFFFF;" d="M404.959,559.993l-0.9-4.9h-0.3c-3.2,3.9-8.201,6.001-14.001,6.001
			c-9.901,0-15.801-7.201-15.801-15.002c0-12.7,11.4-18.801,28.702-18.701v-0.699c0-2.601-1.4-6.301-8.901-6.301
			c-5,0-10.3,1.7-13.5,3.7l-2.8-9.8c3.4-1.9,10.101-4.301,19.001-4.301c16.301,0,21.501,9.601,21.501,21.102v17
			c0,4.701,0.2,9.201,0.7,11.901H404.959z M403.159,536.892c-8-0.1-14.201,1.8-14.201,7.7c0,3.9,2.601,5.801,6,5.801
			c3.8,0,6.9-2.5,7.9-5.601c0.2-0.8,0.3-1.7,0.3-2.601V536.892z"/>
	</g>
	<g>
		<path style="fill:#FFFFFF;" d="M68.862,654.299c4.1,2.102,10.4,4.201,16.901,4.201c7,0,10.701-2.9,10.701-7.301
			c0-4.2-3.2-6.6-11.301-9.5c-11.201-3.9-18.501-10.102-18.501-19.902c0-11.5,9.601-20.301,25.501-20.301
			c7.601,0,13.201,1.6,17.201,3.4l-3.4,12.301c-2.7-1.301-7.5-3.2-14.101-3.2c-6.601,0-9.801,3-9.801,6.501
			c0,4.3,3.8,6.199,12.5,9.5c11.901,4.4,17.501,10.601,17.501,20.102c0,11.301-8.701,20.9-27.202,20.9c-7.701,0-15.301-2-19.102-4.1
			L68.862,654.299z"/>
		<path style="fill:#FFFFFF;" d="M133.262,621.098l7.3,24.002c0.8,2.899,1.8,6.5,2.4,9.1h0.3c0.7-2.6,1.5-6.301,2.2-9.1l6-24.002
			h16.301l-11.401,32.201c-7,19.402-11.701,27.202-17.201,32.103c-5.3,4.601-10.9,6.2-14.701,6.7l-3.2-12.9
			c1.9-0.301,4.3-1.2,6.6-2.6c2.3-1.201,4.8-3.602,6.3-6.102c0.5-0.699,0.8-1.5,0.8-2.199c0-0.5-0.1-1.301-0.7-2.5l-17.901-44.703
			H133.262z"/>
		<path style="fill:#FFFFFF;" d="M174.161,636.698c0-6.101-0.2-11.3-0.4-15.601h13.201l0.7,6.7h0.3c2-3.101,7-7.8,15.101-7.8
			c10.001,0,17.501,6.6,17.501,21V670h-15.201v-27.102c0-6.3-2.2-10.6-7.701-10.6c-4.2,0-6.7,2.899-7.7,5.699
			c-0.4,0.9-0.6,2.4-0.6,3.801V670h-15.201V636.698z"/>
		<path style="fill:#FFFFFF;" d="M249.762,607.097v14.001h10.9v11.201h-10.9V650c0,5.899,1.4,8.6,6,8.6c1.9,0,3.4-0.199,4.5-0.4
			l0.1,11.502c-2,0.799-5.601,1.299-9.901,1.299c-4.9,0-9-1.699-11.4-4.199c-2.8-2.9-4.2-7.602-4.2-14.502v-20h-6.5v-11.201h6.5
			v-10.601L249.762,607.097z"/>
		<path style="fill:#FFFFFF;" d="M297.261,670l-0.9-4.9h-0.3c-3.2,3.9-8.201,6.001-14.001,6.001c-9.901,0-15.801-7.2-15.801-15.001
			c0-12.701,11.4-18.801,28.702-18.701v-0.7c0-2.601-1.4-6.3-8.901-6.3c-5,0-10.3,1.699-13.5,3.699l-2.8-9.8
			c3.4-1.9,10.101-4.3,19.001-4.3c16.301,0,21.501,9.6,21.501,21.101V658.1c0,4.701,0.2,9.201,0.7,11.9H297.261z M295.461,646.898
			c-8-0.1-14.201,1.801-14.201,7.701c0,3.9,2.601,5.801,6,5.801c3.8,0,6.9-2.5,7.9-5.602c0.2-0.799,0.3-1.699,0.3-2.6V646.898z"/>
		<path style="fill:#FFFFFF;" d="M333.86,621.098l4.8,8.1c1.4,2.501,2.7,5.001,4,7.301h0.2c1.3-2.6,2.5-5.1,3.8-7.5l4.3-7.9h16.501
			l-16.101,23.301L367.662,670h-17.201l-4.9-8.801c-1.4-2.399-2.6-4.899-3.8-7.4h-0.3c-1.2,2.602-2.5,5.001-3.701,7.4l-4.6,8.801
			h-16.701l16.601-24.9l-16.201-24.002H333.86z"/>
	</g>
</g>
<g id="jfx:p02">
	<g>
		<path style="fill:#FFFFFF;" d="M73.816,102.559h12.24v43.681h21.44v10.24H73.816V102.559z"/>
		<path style="fill:#FFFFFF;" d="M136.535,156.48l-0.72-3.92h-0.24c-2.56,3.12-6.56,4.8-11.2,4.8c-7.92,0-12.641-5.76-12.641-12
			c0-10.16,9.121-15.041,22.961-14.96v-0.56c0-2.08-1.12-5.04-7.12-5.04c-4,0-8.24,1.36-10.8,2.96l-2.24-7.84
			c2.72-1.52,8.08-3.44,15.2-3.44c13.041,0,17.201,7.68,17.201,16.88v13.601c0,3.76,0.16,7.36,0.56,9.52H136.535z M135.095,138
			c-6.4-0.08-11.36,1.44-11.36,6.16c0,3.12,2.08,4.64,4.8,4.64c3.04,0,5.52-2,6.32-4.48c0.16-0.64,0.24-1.36,0.24-2.08V138z"/>
		<path style="fill:#FFFFFF;" d="M156.535,129.84c0-4.88-0.16-9.04-0.32-12.48h10.24l0.56,5.28h0.24c1.68-2.48,5.12-6.16,11.84-6.16
			c5.041,0,9.041,2.56,10.72,6.64h0.16c1.44-2,3.2-3.6,5.04-4.72c2.16-1.28,4.56-1.92,7.44-1.92c7.52,0,13.2,5.28,13.2,16.96v23.041
			h-11.84V135.2c0-5.68-1.84-8.96-5.76-8.96c-2.8,0-4.8,1.92-5.6,4.24c-0.32,0.88-0.48,2.16-0.48,3.12v22.88h-11.84v-21.92
			c0-4.96-1.76-8.32-5.6-8.32c-3.12,0-4.96,2.4-5.68,4.4c-0.4,0.96-0.48,2.08-0.48,3.041v22.8h-11.84V129.84z"/>
		<path style="fill:#FFFFFF;" d="M225.014,156.48c0.16-2.56,0.32-7.28,0.32-11.68V99.679h12.161V122h0.16
			c2.32-3.36,6.4-5.52,11.84-5.52c9.36,0,16.241,7.76,16.161,19.761c0,14.08-8.96,21.12-17.92,21.12c-4.56,0-8.96-1.68-11.76-6.32
			h-0.16l-0.48,5.44H225.014z M237.494,139.84c0,0.8,0.08,1.521,0.24,2.16c0.8,3.28,3.6,5.76,7.12,5.76c5.2,0,8.4-4,8.4-11.04
			c0-6.081-2.72-10.88-8.4-10.88c-3.28,0-6.32,2.48-7.12,6c-0.16,0.72-0.24,1.44-0.24,2.24V139.84z"/>
		<path style="fill:#FFFFFF;" d="M311.094,99.679V144.8c0,4.4,0.16,9.04,0.32,11.68h-10.8l-0.56-5.76h-0.16
			c-2.48,4.4-7.2,6.64-12.24,6.64c-9.28,0-16.72-7.92-16.72-20.08c-0.08-13.201,8.16-20.801,17.521-20.801
			c4.8,0,8.56,1.68,10.32,4.4h0.16V99.679H311.094z M298.934,133.92c0-0.64-0.08-1.52-0.16-2.16c-0.72-3.28-3.36-6-7.12-6
			c-5.52,0-8.4,4.96-8.4,11.12c0,6.64,3.28,10.8,8.32,10.8c3.52,0,6.32-2.4,7.04-5.84c0.24-0.88,0.32-1.76,0.32-2.8V133.92z"/>
		<path style="fill:#FFFFFF;" d="M343.093,156.48l-0.72-3.92h-0.24c-2.56,3.12-6.56,4.8-11.2,4.8c-7.92,0-12.641-5.76-12.641-12
			c0-10.16,9.121-15.041,22.961-14.96v-0.56c0-2.08-1.12-5.04-7.12-5.04c-4,0-8.24,1.36-10.8,2.96l-2.24-7.84
			c2.72-1.52,8.08-3.44,15.2-3.44c13.041,0,17.201,7.68,17.201,16.88v13.601c0,3.76,0.16,7.36,0.56,9.52H343.093z M341.653,138
			c-6.4-0.08-11.36,1.44-11.36,6.16c0,3.12,2.08,4.64,4.8,4.64c3.04,0,5.52-2,6.32-4.48c0.16-0.64,0.24-1.36,0.24-2.08V138z"/>
		<path style="fill:#FFFFFF;" d="M411.733,133.68h-19.84v12.8h22.161v10h-34.401v-53.921h33.281v10h-21.041v11.2h19.84V133.68z"/>
		<path style="fill:#FFFFFF;" d="M431.252,117.359l3.84,6.48c1.12,2,2.16,4,3.2,5.84h0.16c1.04-2.08,2-4.08,3.04-6l3.44-6.32h13.2
			L445.252,136l13.04,20.48h-13.76l-3.92-7.04c-1.12-1.92-2.08-3.92-3.04-5.92h-0.24c-0.96,2.08-2,4-2.96,5.92l-3.68,7.04h-13.36
			l13.28-19.92l-12.96-19.201H431.252z"/>
		<path style="fill:#FFFFFF;" d="M463.492,130.48c0-5.12-0.16-9.521-0.319-13.121h10.56l0.561,5.44h0.16
			c2.88-4.16,7.359-6.32,13.04-6.32c8.56,0,16.24,7.44,16.24,19.92c0,14.24-9.04,20.96-17.761,20.96c-4.72,0-8.4-1.92-10.16-4.48
			h-0.16v19.44h-12.16V130.48z M475.652,139.68c0,0.96,0.08,1.84,0.24,2.56c0.8,3.28,3.601,5.76,7.12,5.76
			c5.28,0,8.4-4.4,8.4-11.041c0-6.24-2.8-10.96-8.24-10.96c-3.44,0-6.48,2.56-7.28,6.16c-0.16,0.64-0.24,1.44-0.24,2.16V139.68z"/>
		<path style="fill:#FFFFFF;" d="M511.332,130.24c0-5.76-0.16-9.52-0.319-12.88h10.48l0.4,7.2h0.32c2-5.68,6.799-8.08,10.559-8.08
			c1.121,0,1.682,0,2.561,0.16v11.44c-0.879-0.16-1.92-0.32-3.279-0.32c-4.48,0-7.521,2.4-8.32,6.16c-0.16,0.8-0.24,1.76-0.24,2.72
			v19.84h-12.161V130.24z"/>
		<path style="fill:#FFFFFF;" d="M551.092,140.8c0.4,5.04,5.359,7.44,11.039,7.44c4.16,0,7.521-0.56,10.801-1.6l1.6,8.24
			c-4,1.6-8.879,2.4-14.16,2.4c-13.279,0-20.881-7.68-20.881-19.92c0-9.92,6.16-20.88,19.762-20.88
			c12.641,0,17.439,9.84,17.439,19.521c0,2.08-0.24,3.92-0.4,4.8H551.092z M565.412,132.48c0-2.96-1.281-7.92-6.881-7.92
			c-5.119,0-7.199,4.64-7.52,7.92H565.412z"/>
		<path style="fill:#FFFFFF;" d="M583.891,145.84c2.24,1.36,6.881,2.96,10.48,2.96c3.68,0,5.201-1.28,5.201-3.28
			c0-2-1.201-2.96-5.76-4.48c-8.08-2.72-11.201-7.12-11.121-11.76c0-7.28,6.24-12.8,15.92-12.8c4.561,0,8.641,1.04,11.041,2.24
			l-2.16,8.4c-1.76-0.96-5.121-2.24-8.48-2.24c-2.961,0-4.641,1.2-4.641,3.2c0,1.84,1.521,2.8,6.32,4.48
			c7.441,2.56,10.561,6.32,10.641,12.08c0,7.28-5.76,12.64-16.961,12.64c-5.119,0-9.68-1.12-12.641-2.72L583.891,145.84z"/>
		<path style="fill:#FFFFFF;" d="M618.611,145.84c2.24,1.36,6.881,2.96,10.48,2.96c3.68,0,5.199-1.28,5.199-3.28
			c0-2-1.199-2.96-5.76-4.48c-8.08-2.72-11.199-7.12-11.121-11.76c0-7.28,6.24-12.8,15.922-12.8c4.559,0,8.639,1.04,11.039,2.24
			l-2.16,8.4c-1.76-0.96-5.119-2.24-8.479-2.24c-2.961,0-4.641,1.2-4.641,3.2c0,1.84,1.52,2.8,6.32,4.48
			c7.439,2.56,10.561,6.32,10.641,12.08c0,7.28-5.762,12.64-16.961,12.64c-5.121,0-9.68-1.12-12.641-2.72L618.611,145.84z"/>
		<path style="fill:#FFFFFF;" d="M665.971,106.479c0,3.36-2.561,6.08-6.561,6.08c-3.84,0-6.4-2.72-6.32-6.08
			c-0.08-3.52,2.48-6.16,6.4-6.16S665.891,102.959,665.971,106.479z M653.41,156.48v-39.121h12.16v39.121H653.41z"/>
		<path style="fill:#FFFFFF;" d="M713.969,136.48c0,14.32-10.16,20.88-20.639,20.88c-11.441,0-20.242-7.52-20.242-20.16
			c0-12.641,8.32-20.721,20.881-20.721C705.969,116.479,713.969,124.72,713.969,136.48z M685.648,136.88c0,6.72,2.801,11.76,8,11.76
			c4.721,0,7.762-4.72,7.762-11.76c0-5.84-2.24-11.76-7.762-11.76C687.809,125.12,685.648,131.12,685.648,136.88z"/>
		<path style="fill:#FFFFFF;" d="M721.488,129.84c0-4.88-0.16-9.04-0.32-12.48h10.561l0.561,5.36h0.238
			c1.602-2.48,5.602-6.24,12.082-6.24c8,0,14,5.28,14,16.8v23.201h-12.16V134.8c0-5.04-1.76-8.48-6.16-8.48
			c-3.361,0-5.361,2.32-6.16,4.56c-0.32,0.72-0.48,1.92-0.48,3.04v22.561h-12.16V129.84z"/>
	</g>
	<g>
		<path style="fill:#FFFFFF;" d="M121.933,214.36h22.75c-0.219,0.839-0.328,1.677-0.328,2.516v13.563
			c0,0.766,0.109,1.55,0.328,2.352h-2.133c0.875,1.568,1.677,3.154,2.406,4.758h1.586c0.875-1.641,1.549-3.299,2.023-4.977h-0.82
			c0.109-0.802,0.2-1.586,0.273-2.352v-13.563c-0.073-0.802-0.164-1.586-0.273-2.352h22.258c-0.146,0.766-0.219,1.55-0.219,2.352
			v42.273c-0.109,2.37-1.878,3.992-5.305,4.867c-2.589,0.364-4.083,0.565-4.484,0.602c-0.984,0.073-2.06,0.273-3.227,0.602
			c-0.219-1.203-0.474-2.333-0.766-3.391c-0.547,0.911-1.076,1.896-1.586,2.953c-2.625-1.933-5.505-4.977-8.641-9.133
			c-2.771,3.573-6.07,6.69-9.898,9.352c-1.531-2.917-3.117-5.305-4.758-7.164c2.771-1.313,5.067-2.953,6.891-4.922h-6.234
			c0.146-1.13,0.219-2.206,0.219-3.227c0-1.057-0.073-2.096-0.219-3.117h9.68c0.255-0.911,0.383-1.768,0.383-2.57v-0.273h-8.969
			c0.146-1.057,0.219-2.06,0.219-3.008c0-1.021-0.073-2.005-0.219-2.953h3.938c-0.511-1.167-1.094-2.26-1.75-3.281
			c1.385-0.438,2.734-0.93,4.047-1.477h-9.133v27.727c0,1.604,0.109,3.263,0.328,4.977c-1.422-0.183-2.826-0.273-4.211-0.273
			c-1.386,0-2.771,0.091-4.156,0.273c0.109-1.714,0.2-3.373,0.273-4.977v-43.641C122.133,216.038,122.042,215.199,121.933,214.36z
			 M129.972,221.688h5.852v-2.297h-5.852V221.688z M129.972,228.142h5.852v-2.516h-5.852V228.142z M149.714,243.509v1.258
			c0,0.547,0.036,1.076,0.109,1.586h9.953c-0.146,1.021-0.219,2.06-0.219,3.117c0,1.021,0.073,2.097,0.219,3.227h-6.891
			c1.641,1.859,3.719,3.427,6.234,4.703c-0.255,0.292-0.511,0.583-0.766,0.875c2.078-0.109,3.172-0.347,3.281-0.711v-24.992h-11.43
			c1.531,0.511,3.263,1.039,5.195,1.586c0.802,0.146,1.239,0.383,1.313,0.711c0,0.183-0.31,0.456-0.93,0.82
			c-0.292,0.656-0.583,1.276-0.875,1.859h3.992c-0.146,0.948-0.219,1.933-0.219,2.953c0,0.948,0.073,1.951,0.219,3.008H149.714z
			 M155.785,221.47h5.852v-2.516h-5.852V221.47z M161.636,227.923v-2.516h-5.852v2.516H161.636z"/>
		<path style="fill:#FFFFFF;" d="M182.363,213.376c1.969,1.933,3.846,4.43,5.633,7.492c-1.531,0.766-2.99,1.641-4.375,2.625h4.813
			v-5.469c-0.037-1.531-0.128-3.153-0.273-4.867c1.713,0.328,4.393,0.492,8.039,0.492c0.474,0,0.729,0.128,0.766,0.383
			c-0.146,0.183-0.328,0.419-0.547,0.711c-0.365,0.328-0.547,0.784-0.547,1.367v3.609c2.078-1.969,3.773-4.083,5.086-6.344
			c1.677,1.349,3.573,2.589,5.688,3.719c0.401,0.219,0.674,0.456,0.82,0.711c-0.037,0.183-0.328,0.328-0.875,0.438
			c-1.823,1.823-3.537,3.573-5.141,5.25h4.102c-0.183,1.021-0.273,2.115-0.273,3.281c0,0.984,0.091,2.06,0.273,3.227h-6.945
			c0.547,0.62,1.112,1.185,1.695,1.695c1.021,0.875,2.06,1.568,3.117,2.078c1.094-1.531,2.169-3.354,3.227-5.469
			c2.151-4.667,3.263-9.57,3.336-14.711c2.479,0.583,5.268,1.076,8.367,1.477c0.547,0.037,0.856,0.255,0.93,0.656
			c-0.109,0.219-0.456,0.602-1.039,1.148c-0.328,2.151-0.748,4.193-1.258,6.125h11.32c-0.183,1.386-0.273,2.771-0.273,4.156
			c0,1.422,0.091,2.826,0.273,4.211h-2.789c-0.875,9.042-2.461,15.604-4.758,19.688c-0.037,0.146-0.091,0.292-0.164,0.438
			c2.005,1.823,4.557,3.537,7.656,5.141c-2.406,2.989-4.138,5.997-5.195,9.023c-3.026-2.261-5.615-4.648-7.766-7.164
			c-2.625,2.516-5.906,4.903-9.844,7.164c-0.912-1.386-1.878-2.698-2.898-3.938c-0.984,1.13-1.914,2.442-2.789,3.938
			c-1.896-1.604-4.011-3.154-6.344-4.648c-3.318,2.333-7.729,3.883-13.234,4.648c-0.839-2.589-2.242-5.05-4.211-7.383
			c1.859,0.146,3.099,0.219,3.719,0.219c2.333,0,4.521-0.456,6.563-1.367c-3.172-1.385-6.38-2.406-9.625-3.063
			c1.677-1.677,3.153-3.427,4.43-5.25h-4.43c0.146-1.167,0.219-2.242,0.219-3.227c0-1.167-0.073-2.26-0.219-3.281h8.039
			c0.583-1.495,1.002-3.044,1.258-4.648c0.766,0.219,1.604,0.456,2.516,0.711v-3.664c-2.771,2.88-5.961,5.031-9.57,6.453
			c-0.693-2.224-1.878-4.284-3.555-6.18c2.953-0.984,5.377-2.151,7.273-3.5c0.692-0.51,1.276-1.002,1.75-1.477h-6.617
			c0.146-1.167,0.219-2.242,0.219-3.227c0-1.167-0.073-2.26-0.219-3.281h3.555c-1.13-2.005-2.68-4.156-4.648-6.453
			C179.136,215.691,181.05,214.47,182.363,213.376z M194.722,248.813h-6.18c-0.656,1.021-1.331,1.987-2.023,2.898
			c1.823,0.474,3.627,1.003,5.414,1.586C193.027,252.059,193.957,250.563,194.722,248.813z M203.472,242.306
			c-0.511-0.729-0.984-1.422-1.422-2.078c-0.037,0.073-0.073,0.164-0.109,0.273c-1.969-1.094-3.992-2.734-6.07-4.922v5.25
			c-0.839-0.146-1.677-0.255-2.516-0.328c-0.292,0.62-0.602,1.222-0.93,1.805H203.472z M195.871,221.142v2.352h2.898
			C197.785,222.655,196.818,221.871,195.871,221.142z M201.394,256.962c3.5-1.385,6.453-3.336,8.859-5.852
			c-0.875-1.713-1.586-3.463-2.133-5.25c-0.401-1.203-0.729-2.406-0.984-3.609c-0.438,0.511-0.875,1.003-1.313,1.477
			c-0.073,0.583-0.109,1.203-0.109,1.859c0,0.984,0.091,2.06,0.273,3.227h-3.609c-1.313,2.771-2.57,5.086-3.773,6.945
			C199.516,256.124,200.446,256.524,201.394,256.962z M213.097,233.665c0.364,3.901,1.057,7.201,2.078,9.898
			c1.677-3.792,2.388-7.838,2.133-12.141v-0.055h-3.117c-0.073,0.146-0.128,0.273-0.164,0.383
			C213.735,232.371,213.425,233.009,213.097,233.665z"/>
		<path style="fill:#FFFFFF;" d="M234.316,214.853h26.359c-0.183,1.313-0.273,2.644-0.273,3.992c0,1.313,0.091,2.662,0.273,4.047
			h-3.008v4.32h3.938c-0.219,1.24-0.328,2.534-0.328,3.883c0,1.24,0.109,2.552,0.328,3.938h-3.938v5.633
			c1.385,0.073,2.989,0.109,4.813,0.109c0.547,0,0.838,0.183,0.875,0.547c-0.073,0.219-0.255,0.456-0.547,0.711
			c-0.401,0.328-0.602,0.857-0.602,1.586v1.969h17.5c-0.183,1.203-0.273,2.425-0.273,3.664c0,1.24,0.091,2.498,0.273,3.773h-17.5
			v2.734h21.219c-0.183,1.313-0.273,2.661-0.273,4.047c0,1.313,0.091,2.625,0.273,3.938h-50.641c0.109-1.313,0.2-2.625,0.273-3.938
			c-0.073-1.386-0.164-2.734-0.273-4.047h21v-2.734h-16.844c0.146-1.276,0.237-2.534,0.273-3.773
			c-0.037-0.984-0.109-1.969-0.219-2.953c-1.787-2.078-3.464-3.846-5.031-5.305c2.406-1.057,4.192-2.588,5.359-4.594
			c0.219-0.438,0.419-0.893,0.602-1.367h-4.539c0.182-1.385,0.292-2.698,0.328-3.938c-0.037-1.349-0.146-2.643-0.328-3.883h5.688
			c0-0.146,0-0.292,0-0.438v-2.406c-0.037-0.474-0.073-0.966-0.109-1.477h-4.648c0.146-1.385,0.237-2.734,0.273-4.047
			C234.553,217.496,234.461,216.165,234.316,214.853z M253.785,245.587c0-0.62-0.019-1.221-0.055-1.805
			c-1.276,0.037-2.498,0.128-3.664,0.273v-9.023h-3.609c-0.255,1.458-0.602,2.771-1.039,3.938c-0.729,2.188-2.352,4.394-4.867,6.617
			H253.785z M250.066,227.212v-4.32h-3.063v4.32H250.066z M262.644,216.22c1.786,0.292,4.502,0.438,8.148,0.438
			c0.547,0,0.838,0.146,0.875,0.438c0,0.219-0.164,0.474-0.492,0.766c-0.438,0.292-0.656,0.748-0.656,1.367v16.844
			c0.656,0,1.276,0.019,1.859,0.055c0.766-0.073,1.185-0.346,1.258-0.82v-18.539c-0.146-1.13-0.292-2.26-0.438-3.391
			c1.713,0.292,4.575,0.438,8.586,0.438c0.692,0,1.039,0.201,1.039,0.602c-0.109,0.365-0.31,0.583-0.602,0.656
			c-0.292,0.255-0.438,0.492-0.438,0.711v23.188c-0.073,0.766-0.474,1.531-1.203,2.297c-1.24,1.24-2.99,1.969-5.25,2.188
			l-7.875,0.547c-0.292-1.458-0.766-2.917-1.422-4.375c-1.058,0.037-2.097,0.128-3.117,0.273v-18.703
			C262.881,219.592,262.79,217.934,262.644,216.22z"/>
		<path style="fill:#FFFFFF;" d="M337.019,222.29c0,0.365-0.419,0.675-1.258,0.93c-0.984,0.292-1.641,0.583-1.969,0.875
			c-2.808,2.844-6.672,6.089-11.594,9.734v31.773l-9.953-0.109v-25.102c-6.162,3.683-11.758,6.49-16.789,8.422l-6.07-8.422
			c6.745-2.406,13.417-5.578,20.016-9.516c8.896-5.25,15.458-10.682,19.688-16.297l6.672,6.18
			C336.6,221.488,337.019,221.999,337.019,222.29z"/>
		<path style="fill:#FFFFFF;" d="M394.113,232.954c-6.381,7.073-13.18,13.144-20.398,18.211c-7,4.922-13.709,8.458-20.125,10.609
			c-0.219,0.109-0.511,0.456-0.875,1.039c-0.365,0.62-0.693,0.93-0.984,0.93c-0.511,0-0.948-0.419-1.313-1.258l-4.375-9.625
			c6.161-0.656,13.197-3.737,21.109-9.242c7.291-5.067,14.291-11.466,21-19.195L394.113,232.954z M368.027,225.462l-4.977,7.93
			c-1.678-1.495-4.32-3.391-7.93-5.688c-3.428-2.188-6.308-3.864-8.641-5.031l4.703-7.93
			C354.974,216.639,360.589,220.212,368.027,225.462z"/>
		<path style="fill:#FFFFFF;" d="M449.73,228.032c0,0.219-0.256,0.492-0.766,0.82c-0.475,0.365-0.803,0.693-0.984,0.984
			c-3.828,8.568-8.076,15.44-12.742,20.617c-4.886,5.396-11.448,10.317-19.688,14.766l-9.023-7.547
			c7.182-2.844,13.234-6.398,18.156-10.664c-1.896-2.479-4.156-4.758-6.781-6.836l5.469-6.344c2.078,1.13,4.63,3.19,7.656,6.18
			c2.114-3.063,4.119-6.635,6.016-10.719l-13.672,1.477c-4.74,6.344-9.553,11.193-14.438,14.547l-6.891-7.766
			c4.119-2.224,8.148-5.87,12.086-10.938c3.025-3.938,5.596-8.167,7.711-12.688l9.461,2.133c1.057,0.255,1.586,0.62,1.586,1.094
			c0,0.328-0.273,0.675-0.82,1.039c-0.693,0.401-1.094,0.711-1.203,0.93c-0.219,0.365-0.912,1.513-2.078,3.445l12.414-1.422
			c0.255-0.036,0.547-0.182,0.875-0.438c0.364-0.255,0.619-0.383,0.766-0.383c0.583,0,1.13,0.365,1.641,1.094
			c1.349,1.933,2.807,3.664,4.375,5.195C449.438,227.194,449.73,227.668,449.73,228.032z"/>
		<path style="fill:#FFFFFF;" d="M504.035,226.282c0,0.255-0.219,0.565-0.656,0.93c-0.438,0.328-0.711,0.675-0.82,1.039
			c-2.808,8.531-7.365,16.115-13.672,22.75c-5.688,5.979-11.995,10.5-18.922,13.563l-6.508-8.914
			c13.963-5.651,23.333-14.82,28.109-27.508l-30.953,1.695l-0.711-9.953l33.742-1.148c0.583,0,1.13-0.127,1.641-0.383
			c0.51-0.292,0.838-0.438,0.984-0.438c0.291,0,0.766,0.347,1.422,1.039l5.359,5.961C503.707,225.645,504.035,226.1,504.035,226.282
			z"/>
		<path style="fill:#FFFFFF;" d="M559.324,252.149l-0.164,8.641c-6.053-0.401-13.289-0.602-21.711-0.602
			c-4.959,0-11.667,0.328-20.125,0.984l-0.602-8.367c7.802-0.766,13.544-1.148,17.227-1.148V235.36l-12.633,0.164l-0.164-8.313
			l33.633-0.383l0.109,8.148l-12.523,0.219v16.242C547.438,251.438,553.09,251.676,559.324,252.149z"/>
		<path style="fill:#FFFFFF;" d="M616.691,243.235c-0.438-0.036-0.912-0.055-1.422-0.055h-40.906c-0.766,0-1.44,0.037-2.023,0.109
			v-8.695c0.583,0.073,1.258,0.109,2.023,0.109h40.906c0.51,0,0.984-0.018,1.422-0.055V243.235z"/>
		<path style="fill:#FFFFFF;" d="M674.277,256.853l-8.367,6.18c-2.151-4.193-6.326-9.497-12.523-15.914
			c-5.979,6.672-12.523,12.231-19.633,16.68l-7.711-8.477c11.083-4.776,20.763-13.963,29.039-27.563l-23.898,1.859l-0.711-9.406
			l27.945-1.859c0.328,0,0.692-0.146,1.094-0.438c0.4-0.292,0.692-0.438,0.875-0.438c0.364,0,0.838,0.292,1.422,0.875l6.18,6.234
			c0.4,0.401,0.602,0.802,0.602,1.203c0,0.328-0.292,0.711-0.875,1.148c-0.62,0.365-0.984,0.656-1.094,0.875
			c-0.656,1.24-1.331,2.498-2.023,3.773c-1.531,2.625-3.264,5.323-5.195,8.094c3.317,2.771,6.508,5.998,9.57,9.68
			C671.415,252.313,673.184,254.811,674.277,256.853z"/>
		<path style="fill:#FFFFFF;" d="M729.402,241.157c-3.683,0.219-8.44,1.222-14.273,3.008l0.164,7.656
			c-2.844,0.037-5.761,0.292-8.75,0.766v-5.195c-4.448,2.115-6.672,4.047-6.672,5.797c0,1.896,3.481,2.844,10.445,2.844
			c4.302,0,9.023-0.364,14.164-1.094c-1.021,2.552-1.531,5.341-1.531,8.367c-6.089,0.547-10.537,0.82-13.344,0.82
			c-5.906,0-10.573-0.839-14-2.516c-3.683-1.859-5.523-4.503-5.523-7.93c0-4.703,5.086-9.37,15.258-14
			c-0.839-1.021-2.006-1.531-3.5-1.531c-2.37,0-4.703,0.875-7,2.625c-1.313,0.948-3.281,2.771-5.906,5.469l-6.289-4.977
			c4.958-4.302,8.986-8.477,12.086-12.523c-3.318-0.073-6.381-0.182-9.188-0.328l-0.219-8.422c4.666,0.219,9.552,0.31,14.656,0.273
			c1.021-2.114,1.841-4.229,2.461-6.344l9.133,1.969c0.802,0.146,1.203,0.474,1.203,0.984c0,0.219-0.219,0.492-0.656,0.82
			c-0.475,0.255-0.766,0.474-0.875,0.656l-0.93,1.586c4.083-0.146,7.528-0.328,10.336-0.547l0.164,8.367
			c-4.703,0.401-10.045,0.693-16.023,0.875c-0.948,1.386-1.969,2.753-3.063,4.102c2.625-0.255,4.356-0.383,5.195-0.383
			c3.354,0,5.688,1.313,7,3.938c5.432-1.859,10.08-3.044,13.945-3.555L729.402,241.157z"/>
		<path style="fill:#FFFFFF;" d="M140.691,287.376c2.078,0.328,5.341,0.492,9.789,0.492c0.583,0,0.893,0.201,0.93,0.602
			c-0.146,0.219-0.365,0.511-0.656,0.875c-0.401,0.328-0.602,0.875-0.602,1.641v0.82h20.453c-0.219,1.24-0.328,2.461-0.328,3.664
			v10.609c-1.458-0.182-2.917-0.273-4.375-0.273c-0.146,0-0.292,0-0.438,0c0.036,0.766,0.109,1.568,0.219,2.406h-15.75v2.406h15.969
			c-0.146,0.875-0.219,1.805-0.219,2.789c0,0.912,0.073,1.841,0.219,2.789h-15.969v2.625h21.273
			c-0.183,1.094-0.273,2.206-0.273,3.336c0,1.094,0.091,2.206,0.273,3.336h-18.594c0.802,0.547,1.768,1.076,2.898,1.586
			c4.12,1.75,9.698,3.227,16.734,4.43c-1.933,2.26-3.683,4.903-5.25,7.93c-6.49-2.005-13.636-5.177-21.438-9.516
			c-5.761,3.719-12.615,6.963-20.563,9.734c-1.641-3.208-3.391-5.852-5.25-7.93c6.817-1.276,12.177-2.917,16.078-4.922
			c0.692-0.474,1.313-0.911,1.859-1.313h-16.898c0.146-1.13,0.237-2.242,0.273-3.336c-0.037-1.13-0.128-2.242-0.273-3.336h20.398
			v-2.625h-15.75c0-0.948,0.073-1.877,0.219-2.789c-0.146-0.984-0.219-1.914-0.219-2.789h15.75v-2.406h-15.75
			c0.073-0.692,0.127-1.349,0.164-1.969c-1.313,0-2.57,0.091-3.773,0.273V295.47c-0.073-1.458-0.164-2.68-0.273-3.664h19.359
			C140.873,290.384,140.8,288.907,140.691,287.376z M130.355,302.032h10.828v-2.68c0-0.036,0-0.073,0-0.109h-10.828V302.032z
			 M149.933,299.243v2.789h11.594v-2.789H149.933z"/>
		<path style="fill:#FFFFFF;" d="M182.746,287.157c2.224,2.662,4.375,5.487,6.453,8.477v-3.336
			c-0.109-1.677-0.237-3.445-0.383-5.305c1.932,0.292,4.867,0.438,8.805,0.438c0.547,0,0.856,0.164,0.93,0.492
			c-0.073,0.219-0.273,0.456-0.602,0.711c-0.401,0.365-0.602,0.894-0.602,1.586v20.672c2.114,0.255,5.213,0.383,9.297,0.383
			c0.62,0,0.948,0.201,0.984,0.602c-0.146,0.219-0.365,0.511-0.656,0.875c-0.292,0.219-0.474,0.529-0.547,0.93h21
			c-0.183,1.094-0.273,2.261-0.273,3.5c0,1.058,0.091,2.188,0.273,3.391h-6.727c1.422,1.094,3.008,2.133,4.758,3.117
			c0.364,0.183,0.565,0.456,0.602,0.82c-0.109,0.109-0.365,0.255-0.766,0.438c-1.313,1.458-2.698,2.808-4.156,4.047
			c2.114,0.766,4.557,1.531,7.328,2.297c-2.333,2.771-3.992,5.633-4.977,8.586c-6.198-2.552-10.865-5.323-14-8.313
			c-0.037,0.438-0.055,0.875-0.055,1.313c0,1.239,0.127,2.516,0.383,3.828c-7.219,0.729-14.201,1.385-20.945,1.969
			c-0.438,0.292-0.729,0.492-0.875,0.602c-0.292-0.109-0.456-0.31-0.492-0.602c0-1.167,0.018-2.297,0.055-3.391
			c-0.146-1.203-0.292-2.461-0.438-3.773c0.875-0.109,1.823-0.164,2.844-0.164c0.802,0,2.315-0.164,4.539-0.492v-5.086
			c-0.62,0.583-1.24,1.13-1.859,1.641c-3.208,2.698-7.511,5.396-12.906,8.094c-1.021-2.771-2.425-5.268-4.211-7.492
			c3.864-1.385,7.328-3.081,10.391-5.086c1.057-0.692,2.023-1.477,2.898-2.352h-12.25c0.146-1.203,0.237-2.333,0.273-3.391
			c-0.037-1.239-0.128-2.406-0.273-3.5h20.508c-0.037-0.583-0.073-1.185-0.109-1.805c-1.276-0.146-2.516-0.219-3.719-0.219
			c-1.422,0-2.771,0.091-4.047,0.273v-4.047c-2.88,1.276-5.724,2.406-8.531,3.391c-0.365,0.438-0.693,0.711-0.984,0.82
			c-0.255-0.073-0.419-0.292-0.492-0.656c-0.693-2.333-1.695-4.703-3.008-7.109c2.297-0.547,5.104-1.44,8.422-2.68
			c1.75-0.656,3.281-1.349,4.594-2.078v-3.555c-2.078,1.604-4.102,3.391-6.07,5.359c-2.042-3.245-4.284-6.198-6.727-8.859
			C178.662,290.73,180.777,288.944,182.746,287.157z M199.316,292.243h8.914c-0.073-1.641-0.183-3.336-0.328-5.086
			c2.005,0.328,5.067,0.492,9.188,0.492c0.583,0,0.893,0.183,0.93,0.547c-0.109,0.219-0.31,0.492-0.602,0.82
			c-0.438,0.365-0.656,0.894-0.656,1.586v1.641h10.664c-0.183,1.24-0.273,2.552-0.273,3.938c0,1.203,0.091,2.479,0.273,3.828
			h-10.664v3.172h9.57c-0.183,1.203-0.273,2.425-0.273,3.664c0,1.24,0.091,2.498,0.273,3.773h-26.578
			c0.146-1.276,0.237-2.534,0.273-3.773c-0.037-1.239-0.128-2.461-0.273-3.664h8.477v-3.172h-8.914
			c0.146-1.349,0.237-2.625,0.273-3.828C199.553,294.795,199.461,293.483,199.316,292.243z M207.3,329.157
			c-0.547-0.729-1.003-1.458-1.367-2.188c-1.24-2.114-2.042-4.247-2.406-6.398h-1.039v9.297c0.875-0.109,1.75-0.237,2.625-0.383
			C205.878,329.413,206.607,329.303,207.3,329.157z M210.855,320.571c0.62,1.458,1.422,2.716,2.406,3.773
			c0.182,0.183,0.364,0.365,0.547,0.547c1.823-1.203,3.427-2.643,4.813-4.32H210.855z"/>
		<path style="fill:#FFFFFF;" d="M279.269,325.821c-3.354,3.5-6.107,6.016-8.258,7.547c-5.141,3.682-10.281,5.523-15.422,5.523
			c-5.651,0-9.68-1.714-12.086-5.141c-2.078-2.844-3.117-7.055-3.117-12.633c0-6.234,0.292-12.56,0.875-18.977
			c0.62-6.708,0.93-11.083,0.93-13.125l9.68,1.531c0.911,0.146,1.367,0.456,1.367,0.93c0,0.183-0.219,0.511-0.656,0.984
			c-0.474,0.474-0.729,0.984-0.766,1.531c-0.438,2.917-0.857,5.815-1.258,8.695c-0.839,6.781-1.258,12.906-1.258,18.375
			c0,5.833,2.224,8.75,6.672,8.75c2.989,0,6.143-1.258,9.461-3.773c3.099-2.333,6.016-5.523,8.75-9.57
			C274.985,319.642,276.68,322.759,279.269,325.821z"/>
		<path style="fill:#FFFFFF;" d="M313.121,290.384c0,0.219-0.255,0.529-0.766,0.93c-0.438,0.365-0.693,0.748-0.766,1.148
			c-0.255,1.349-0.529,2.716-0.82,4.102c2.588-0.474,5.323-1.021,8.203-1.641l0.656,8.039c-3.609,0.839-7.183,1.495-10.719,1.969
			c-3.026,12.833-6.362,23.516-10.008,32.047l-8.641-2.844c3.463-7.875,6.508-17.299,9.133-28.273
			c-2.151,0.109-4.156,0.183-6.016,0.219l-0.602-8.039c2.661-0.036,5.432-0.164,8.313-0.383c0.838-4.192,1.403-7.62,1.695-10.281
			l9.188,2.188C312.738,289.709,313.121,289.983,313.121,290.384z M337.894,326.04l-0.273,10.008
			c-4.74,0.656-9.151,0.984-13.234,0.984c-9.552,0-15.531-4.102-17.938-12.305c2.88-0.692,5.505-1.659,7.875-2.898
			c1.458,3.719,5.086,5.578,10.883,5.578C328.597,327.407,332.826,326.952,337.894,326.04z M336.253,312.696
			c-6.344,0.109-13.362,1.313-21.055,3.609l-1.859-7.984c8.276-2.297,15.641-3.481,22.094-3.555L336.253,312.696z"/>
		<path style="fill:#FFFFFF;" d="M354.464,286.774c2.188,0.438,4.849,0.875,7.984,1.313c0.547,0.109,0.875,0.365,0.984,0.766
			c-0.073,0.328-0.401,0.656-0.984,0.984c-0.438,0.693-0.857,1.367-1.258,2.023h32.703c-0.183,1.313-0.273,2.68-0.273,4.102
			c0,1.276,0.091,2.625,0.273,4.047h-4.484v4.539h6.234c-0.183,1.24-0.273,2.516-0.273,3.828c0,1.276,0.091,2.552,0.273,3.828
			h-6.234v4.266h5.633c-0.219,1.276-0.328,2.589-0.328,3.938c0,1.24,0.109,2.552,0.328,3.938h-5.414
			c2.406,3.901,4.539,7.911,6.398,12.031c-2.881,0.911-5.561,2.078-8.039,3.5c-1.678-4.63-3.883-8.969-6.617-13.016
			c2.26-0.729,4.466-1.567,6.617-2.516h-37.625c1.896,1.386,3.992,2.662,6.289,3.828c0.51,0.219,0.802,0.529,0.875,0.93
			c-0.109,0.219-0.475,0.419-1.094,0.602c-2.297,3.719-4.448,7.182-6.453,10.391c-2.188-1.969-4.266-3.664-6.234-5.086
			c2.369-3.208,4.32-6.763,5.852-10.664h-3.938c0.146-1.385,0.236-2.698,0.273-3.938c-0.037-1.349-0.128-2.661-0.273-3.938h8.148
			v-4.266h-8.805c0.146-1.276,0.236-2.552,0.273-3.828c-0.037-1.313-0.128-2.588-0.273-3.828h3.828
			c-1.75-2.588-3.592-4.758-5.523-6.508c2.625-1.385,4.867-3.044,6.727-4.977C352.076,291.131,353.552,289.035,354.464,286.774z
			 M353.808,304.548v-4.102c-1.422,1.349-3.026,2.716-4.813,4.102H353.808z M365.074,325.876c1.713,3.938,3.135,7.729,4.266,11.375
			c-2.115,0.583-4.703,1.385-7.766,2.406c-0.839-4.193-2.261-8.13-4.266-11.813C359.933,327.334,362.521,326.678,365.074,325.876z
			 M363.433,304.548v-4.539h-3.063v4.539H363.433z M360.371,316.47h3.063v-4.266h-3.063V316.47z M376.886,325.657
			c2.15,4.011,3.938,7.875,5.359,11.594c-2.115,0.583-4.686,1.385-7.711,2.406c-1.094-4.302-2.898-8.313-5.414-12.031
			C371.746,327.116,374.333,326.459,376.886,325.657z M373.058,304.548v-4.539h-3.063v4.539H373.058z M369.996,316.47h3.063v-4.266
			h-3.063V316.47z M382.957,304.548v-4.539h-3.391v4.539H382.957z M379.566,316.47h3.391v-4.266h-3.391V316.47z"/>
		<path style="fill:#FFFFFF;" d="M418.777,286.774c2.406,0.511,5.396,1.003,8.969,1.477c0.583,0.109,0.875,0.401,0.875,0.875
			c0,0.292-0.365,0.62-1.094,0.984c-0.438,0.583-0.857,1.167-1.258,1.75h21.438c-0.183,1.386-0.273,2.826-0.273,4.32v3.445
			c-4.011,5.359-8.531,9.935-13.563,13.727h17.609c-0.219,1.458-0.328,2.935-0.328,4.43v15.805c0,1.458,0.109,2.935,0.328,4.43
			h-39.758c0.146-1.495,0.255-2.972,0.328-4.43v-8.695c-2.625,0.984-5.378,1.896-8.258,2.734c-1.021-4.083-2.297-7.565-3.828-10.445
			c5.942-0.292,11.411-1.349,16.406-3.172c-1.969-2.333-4.047-4.575-6.234-6.727c-1.531,1.094-3.154,2.188-4.867,3.281
			c-1.859-2.844-3.847-5.195-5.961-7.055c4.63-2.078,8.567-4.502,11.813-7.273C414.621,293.319,417.172,290.165,418.777,286.774z
			 M417.628,301.376c2.661,2.552,5.268,5.177,7.82,7.875c3.755-2.552,6.836-5.505,9.242-8.859h-15.969
			c-0.292,0.328-0.602,0.62-0.93,0.875C417.719,301.303,417.665,301.34,417.628,301.376z M421.183,322.267v6.836h20.836v-6.836
			H421.183z"/>
		<path style="fill:#FFFFFF;" d="M505.894,299.134c0,0.255-0.183,0.529-0.547,0.82c-0.365,0.292-0.602,0.583-0.711,0.875
			c-4.266,8.458-8.933,15.841-14,22.148c-4.703,5.906-10.445,11.63-17.227,17.172l-7.547-6.234
			c6.088-4.739,11.594-9.989,16.516-15.75c4.958-5.797,8.367-10.901,10.227-15.313l-12.523,1.313
			c-4.703,6.891-9.734,12.451-15.094,16.68l-6.563-6.18c3.063-2.333,6.307-5.614,9.734-9.844c4.411-5.505,7.82-11.229,10.227-17.172
			l8.75,3.172c0.656,0.219,0.984,0.565,0.984,1.039c0,0.292-0.292,0.602-0.875,0.93c-0.729,0.474-1.367,1.276-1.914,2.406
			l10.555-1.039c0.328-0.036,0.692-0.255,1.094-0.656c0.438-0.364,0.747-0.547,0.93-0.547c0.4,0,1.075,0.383,2.023,1.148
			l4.813,3.719C505.511,298.441,505.894,298.879,505.894,299.134z"/>
		<path style="fill:#FFFFFF;" d="M562.113,307.063c0,0.219-0.311,0.602-0.93,1.148c-0.62,0.511-1.039,0.966-1.258,1.367
			c-3.5,7.729-7.984,13.873-13.453,18.43c-4.959,4.083-11.922,7.802-20.891,11.156l-5.633-9.953
			c5.979-1.203,11.43-3.445,16.352-6.727c4.958-3.281,8.567-7.073,10.828-11.375l-30.406,2.188l-0.711-10.172l35.164-1.367
			c0.438-0.036,0.947-0.237,1.531-0.602c0.656-0.364,1.094-0.547,1.313-0.547c0.291,0,0.856,0.292,1.695,0.875l5.742,4.484
			C561.895,306.298,562.113,306.663,562.113,307.063z M553.199,296.892l-31.281,0.711l-0.383-8.477l31.172-0.547L553.199,296.892z"
			/>
		<path style="fill:#FFFFFF;" d="M618.277,330.853l-8.367,6.18c-2.151-4.193-6.326-9.497-12.523-15.914
			c-5.979,6.672-12.523,12.231-19.633,16.68l-7.711-8.477c11.083-4.776,20.763-13.963,29.039-27.563l-23.898,1.859l-0.711-9.406
			l27.945-1.859c0.328,0,0.692-0.146,1.094-0.438c0.4-0.292,0.692-0.438,0.875-0.438c0.364,0,0.838,0.292,1.422,0.875l6.18,6.234
			c0.4,0.401,0.602,0.802,0.602,1.203c0,0.328-0.292,0.711-0.875,1.148c-0.62,0.365-0.984,0.656-1.094,0.875
			c-0.656,1.24-1.331,2.498-2.023,3.773c-1.531,2.625-3.264,5.323-5.195,8.094c3.317,2.771,6.508,5.998,9.57,9.68
			C615.415,326.313,617.184,328.811,618.277,330.853z"/>
		<path style="fill:#FFFFFF;" d="M674.223,312.04c0,5.433-1.203,9.953-3.609,13.563c-2.334,3.391-5.925,6.252-10.773,8.586
			c-1.203,0.51-2.881,1.239-5.031,2.188c-0.584-2.917-1.896-6.07-3.938-9.461c3.135-0.984,5.869-2.37,8.203-4.156
			c3.791-2.917,5.688-6.471,5.688-10.664c0-2.442-0.766-4.703-2.297-6.781c-1.75-2.442-4.303-4.138-7.656-5.086
			c-4.703,21.729-10.5,32.594-17.391,32.594c-2.443,0-4.886-1.458-7.328-4.375c-2.881-3.5-4.32-7.875-4.32-13.125
			c0-7.036,2.369-12.778,7.109-17.227c4.63-4.338,10.555-6.508,17.773-6.508c6.927,0,12.56,1.805,16.898,5.414
			C671.998,300.72,674.223,305.733,674.223,312.04z M645.949,300.282c-4.229,1.24-7.383,3.409-9.461,6.508
			c-1.641,2.516-2.461,5.396-2.461,8.641c0,1.714,0.328,3.245,0.984,4.594c0.619,1.313,1.385,1.969,2.297,1.969
			c0.984,0,2.442-2.534,4.375-7.602C643.579,309.616,645.001,304.913,645.949,300.282z"/>
		<path style="fill:#FFFFFF;" d="M169.019,370.29c0,0.365-0.419,0.675-1.258,0.93c-0.984,0.292-1.641,0.583-1.969,0.875
			c-2.808,2.844-6.672,6.089-11.594,9.734v31.773l-9.953-0.109v-25.102c-6.162,3.683-11.758,6.489-16.789,8.422l-6.07-8.422
			c6.745-2.406,13.417-5.578,20.016-9.516c8.896-5.25,15.458-10.682,19.688-16.297l6.672,6.18
			C168.6,369.488,169.019,369.999,169.019,370.29z"/>
		<path style="fill:#FFFFFF;" d="M226.113,380.954c-6.38,7.073-13.18,13.144-20.398,18.211c-7,4.922-13.708,8.458-20.125,10.609
			c-0.219,0.109-0.511,0.456-0.875,1.039c-0.365,0.62-0.693,0.93-0.984,0.93c-0.511,0-0.948-0.419-1.313-1.258l-4.375-9.625
			c6.161-0.656,13.198-3.737,21.109-9.242c7.292-5.067,14.292-11.466,21-19.195L226.113,380.954z M200.027,373.462l-4.977,7.93
			c-1.677-1.495-4.32-3.391-7.93-5.688c-3.427-2.188-6.308-3.864-8.641-5.031l4.703-7.93
			C186.975,364.639,192.589,368.212,200.027,373.462z"/>
		<path style="fill:#FFFFFF;" d="M282.277,404.853l-8.367,6.18c-2.151-4.192-6.326-9.497-12.523-15.914
			c-5.979,6.672-12.523,12.231-19.633,16.68l-7.711-8.477c11.083-4.776,20.763-13.964,29.039-27.563l-23.898,1.859l-0.711-9.406
			l27.945-1.859c0.328,0,0.692-0.146,1.094-0.438c0.401-0.292,0.692-0.438,0.875-0.438c0.364,0,0.838,0.292,1.422,0.875l6.18,6.234
			c0.401,0.401,0.602,0.802,0.602,1.203c0,0.328-0.292,0.711-0.875,1.148c-0.62,0.365-0.984,0.656-1.094,0.875
			c-0.656,1.24-1.331,2.498-2.023,3.773c-1.531,2.625-3.263,5.323-5.195,8.094c3.317,2.771,6.508,5.997,9.57,9.68
			C279.415,400.313,281.183,402.811,282.277,404.853z"/>
		<path style="fill:#FFFFFF;" d="M337.73,376.032c0,0.219-0.255,0.492-0.766,0.82c-0.474,0.365-0.802,0.693-0.984,0.984
			c-3.828,8.567-8.076,15.44-12.742,20.617c-4.886,5.396-11.448,10.317-19.688,14.766l-9.023-7.547
			c7.182-2.844,13.234-6.398,18.156-10.664c-1.896-2.479-4.156-4.758-6.781-6.836l5.469-6.344c2.078,1.13,4.63,3.19,7.656,6.18
			c2.114-3.063,4.12-6.635,6.016-10.719l-13.672,1.477c-4.74,6.344-9.552,11.192-14.438,14.547l-6.891-7.766
			c4.12-2.224,8.148-5.87,12.086-10.938c3.026-3.938,5.596-8.167,7.711-12.688l9.461,2.133c1.057,0.255,1.586,0.62,1.586,1.094
			c0,0.328-0.273,0.675-0.82,1.039c-0.693,0.401-1.094,0.711-1.203,0.93c-0.219,0.365-0.912,1.513-2.078,3.445l12.414-1.422
			c0.255-0.036,0.547-0.182,0.875-0.438c0.364-0.255,0.62-0.383,0.766-0.383c0.583,0,1.13,0.365,1.641,1.094
			c1.349,1.933,2.807,3.664,4.375,5.195C337.438,375.194,337.73,375.668,337.73,376.032z"/>
		<path style="fill:#FFFFFF;" d="M394.113,380.954c-6.381,7.073-13.18,13.144-20.398,18.211c-7,4.922-13.709,8.458-20.125,10.609
			c-0.219,0.109-0.511,0.456-0.875,1.039c-0.365,0.62-0.693,0.93-0.984,0.93c-0.511,0-0.948-0.419-1.313-1.258l-4.375-9.625
			c6.161-0.656,13.197-3.737,21.109-9.242c7.291-5.067,14.291-11.466,21-19.195L394.113,380.954z M368.027,373.462l-4.977,7.93
			c-1.678-1.495-4.32-3.391-7.93-5.688c-3.428-2.188-6.308-3.864-8.641-5.031l4.703-7.93
			C354.974,364.639,360.589,368.212,368.027,373.462z"/>
		<path style="fill:#FFFFFF;" d="M419.16,382.431l-2.68,7.875c-5.287-2.625-10.063-4.247-14.328-4.867l2.625-7.875
			C409.954,378.329,414.748,379.952,419.16,382.431z M449.894,382.157c-6.709,9.516-17.737,18.138-33.086,25.867
			c-0.948,0.438-2.315,1.13-4.102,2.078c-0.183,0.109-0.511,0.511-0.984,1.203c-0.401,0.583-0.784,0.875-1.148,0.875
			c-0.401,0-0.803-0.438-1.203-1.313c-0.729-1.714-2.225-4.722-4.484-9.023c6.599-1.933,12.997-4.903,19.195-8.914
			c8.166-5.214,14.383-11.32,18.648-18.32L449.894,382.157z M424.41,368.978l-4.484,7.656c-3.318-2.88-7.62-5.159-12.906-6.836
			l3.609-8.039C416.169,363.399,420.763,365.806,424.41,368.978z"/>
		<path style="fill:#FFFFFF;" d="M507.097,397.36l-0.219,10.391c-7.073-0.547-15.586-0.82-25.539-0.82
			c-5.87,0-13.764,0.419-23.68,1.258l-0.711-10.117c9.188-0.875,15.914-1.313,20.18-1.313v-18.758l-14.766,0.164l-0.273-9.953
			l39.703-0.492l0.164,9.789l-14.711,0.219v18.813C493.152,396.54,499.769,396.813,507.097,397.36z"/>
		<path style="fill:#FFFFFF;" d="M560.691,391.235c-0.438-0.036-0.912-0.055-1.422-0.055h-40.906c-0.766,0-1.44,0.036-2.023,0.109
			v-8.695c0.583,0.073,1.258,0.109,2.023,0.109h40.906c0.51,0,0.984-0.018,1.422-0.055V391.235z"/>
		<path style="fill:#FFFFFF;" d="M587.16,382.431l-2.68,7.875c-5.287-2.625-10.063-4.247-14.328-4.867l2.625-7.875
			C577.954,378.329,582.748,379.952,587.16,382.431z M617.895,382.157c-6.709,9.516-17.737,18.138-33.086,25.867
			c-0.948,0.438-2.315,1.13-4.102,2.078c-0.183,0.109-0.511,0.511-0.984,1.203c-0.401,0.583-0.784,0.875-1.148,0.875
			c-0.401,0-0.803-0.438-1.203-1.313c-0.729-1.714-2.225-4.722-4.484-9.023c6.599-1.933,12.997-4.903,19.195-8.914
			c8.166-5.214,14.383-11.32,18.648-18.32L617.895,382.157z M592.41,368.978l-4.484,7.656c-3.318-2.88-7.62-5.159-12.906-6.836
			l3.609-8.039C584.17,363.399,588.764,365.806,592.41,368.978z"/>
		<path style="fill:#FFFFFF;" d="M668.098,377.235c0,0.109-0.092,0.328-0.273,0.656c-0.183,0.292-0.273,0.602-0.273,0.93
			c0,2.479-0.164,13.089-0.492,31.828h-9.078v-2.023l-26.195,0.273l0.055-8.039l26.25-0.438l0.109-5.633l-24.063,0.273l-0.164-8.258
			l24.336-0.328v-5.578l-25.375,0.219l-0.055-8.148l24.773-0.219c0.438,0,0.838-0.127,1.203-0.383
			c0.4-0.328,0.692-0.492,0.875-0.492c0.219,0,0.802,0.292,1.75,0.875l5.633,3.336C667.77,376.452,668.098,376.834,668.098,377.235z
			"/>
		<path style="fill:#FFFFFF;" d="M730.113,380.954c-6.381,7.073-13.18,13.144-20.398,18.211c-7,4.922-13.709,8.458-20.125,10.609
			c-0.219,0.109-0.511,0.456-0.875,1.039c-0.365,0.62-0.693,0.93-0.984,0.93c-0.511,0-0.948-0.419-1.313-1.258l-4.375-9.625
			c6.161-0.656,13.197-3.737,21.109-9.242c7.291-5.067,14.291-11.466,21-19.195L730.113,380.954z M704.027,373.462l-4.977,7.93
			c-1.678-1.495-4.32-3.391-7.93-5.688c-3.428-2.188-6.308-3.864-8.641-5.031l4.703-7.93
			C690.975,364.639,696.59,368.212,704.027,373.462z"/>
		<path style="fill:#FFFFFF;" d="M170.222,460.04c0,5.433-1.203,9.953-3.609,13.563c-2.333,3.391-5.925,6.253-10.773,8.586
			c-1.203,0.51-2.88,1.239-5.031,2.188c-0.583-2.917-1.896-6.07-3.938-9.461c3.135-0.984,5.87-2.37,8.203-4.156
			c3.792-2.917,5.688-6.472,5.688-10.664c0-2.442-0.766-4.703-2.297-6.781c-1.75-2.442-4.302-4.138-7.656-5.086
			c-4.703,21.729-10.5,32.594-17.391,32.594c-2.443,0-4.886-1.458-7.328-4.375c-2.88-3.5-4.32-7.875-4.32-13.125
			c0-7.036,2.37-12.778,7.109-17.227c4.63-4.339,10.555-6.508,17.773-6.508c6.927,0,12.56,1.805,16.898,5.414
			C167.998,448.72,170.222,453.732,170.222,460.04z M141.949,448.282c-4.229,1.239-7.383,3.409-9.461,6.508
			c-1.641,2.516-2.461,5.396-2.461,8.641c0,1.714,0.328,3.245,0.984,4.594c0.62,1.313,1.385,1.969,2.297,1.969
			c0.984,0,2.442-2.534,4.375-7.602C139.579,457.615,141,452.912,141.949,448.282z"/>
		<path style="fill:#FFFFFF;" d="M182.964,435.157c2.224,0.438,4.977,0.747,8.258,0.93c0.729,0,1.167,0.164,1.313,0.492
			c-0.037,0.401-0.511,0.875-1.422,1.422c-0.073,0.146-0.146,0.292-0.219,0.438h11.156c-0.183,1.167-0.273,2.352-0.273,3.555
			c0,0.073,0,0.146,0,0.219c1.786-2.261,3.172-4.612,4.156-7.055c2.224,0.438,4.995,0.747,8.313,0.93
			c0.692,0,1.112,0.164,1.258,0.492c-0.037,0.401-0.492,0.875-1.367,1.422c-0.037,0.036-0.073,0.073-0.109,0.109h14.055
			c-0.183,1.167-0.273,2.388-0.273,3.664c0,1.13,0.091,2.333,0.273,3.609h-7.547l1.039,2.844h3.992
			c-0.146,0.656-0.219,1.331-0.219,2.023v30.68c-0.109,2.369-2.005,3.992-5.688,4.867c-2.771,0.364-4.394,0.564-4.867,0.602
			c-0.984,0.072-2.133,0.273-3.445,0.602c-0.146-0.948-0.31-1.842-0.492-2.68h-20.781c0.146-0.839,0.237-1.623,0.273-2.352v-14
			c-0.037-0.839-0.128-1.604-0.273-2.297h23.625c-0.183,0.692-0.273,1.458-0.273,2.297v10.227c2.37-0.109,3.627-0.419,3.773-0.93
			v-13.563h-13.836c0.146-0.692,0.237-1.386,0.273-2.078v-11.375c-0.037-0.583-0.109-1.167-0.219-1.75
			c-1.24-1.167-2.516-2.169-3.828-3.008h-2.461l0.711,2.625h3.5c-0.183,0.692-0.273,1.403-0.273,2.133v11.594
			c0,0.62,0.091,1.239,0.273,1.859h-14.602v18.484c0,1.677,0.127,3.372,0.383,5.086c-1.531-0.183-2.99-0.273-4.375-0.273
			c-1.458,0-2.88,0.091-4.266,0.273c0.109-1.714,0.2-3.409,0.273-5.086v-31.938c-0.037-0.511-0.091-0.984-0.164-1.422
			c-1.094-0.948-2.188-1.75-3.281-2.406C178.771,442.923,181.324,439.168,182.964,435.157z M184.769,448.118h5.633l-0.711-2.625
			h-3.008C186.063,446.404,185.425,447.279,184.769,448.118z M186.738,454.681h7v-2.297h-7V454.681z M186.738,459.985h7v-2.352h-7
			V459.985z M198.332,472.946h7.109v-2.625h-7.109V472.946z M205.441,479.673v-2.625h-7.109v2.625H205.441z M207.628,448.228h6.125
			l-0.984-2.844h-3.008C209.068,446.368,208.357,447.316,207.628,448.228z M210.91,454.462h6.289v-2.133h-6.289V454.462z
			 M217.199,459.603v-2.188h-6.289v2.188H217.199z"/>
		<path style="fill:#FFFFFF;" d="M236.886,437.071h42.438c-0.219,0.875-0.328,1.786-0.328,2.734v14.383
			c0,0.875,0.109,1.786,0.328,2.734h-23.898c-0.729,0.984-1.513,1.896-2.352,2.734h28.875c-0.183,1.058-0.273,2.169-0.273,3.336
			l-0.602,11.648c0,5.614-1.44,9.041-4.32,10.281c-1.714,1.021-4.74,1.586-9.078,1.695c-2.662,0.146-4.648,0.273-5.961,0.383
			c-0.62-2.188-1.258-4.12-1.914-5.797c-4.339,3.063-9.607,5.286-15.805,6.672c-0.656-2.37-1.805-4.631-3.445-6.781
			c6.563-1.239,12.049-3.664,16.461-7.273c2.516-2.042,4.466-4.575,5.852-7.602h-4.539c-1.933,3.391-4.576,6.106-7.93,8.148
			c-3.828,2.37-8.641,4.102-14.438,5.195c-0.547-2.333-1.659-4.503-3.336-6.508c5.359-0.656,9.844-2.023,13.453-4.102
			c1.385-0.766,2.534-1.677,3.445-2.734h-4.703c-2.552,1.604-5.578,3.208-9.078,4.813c-1.021-2.808-2.425-5.305-4.211-7.492
			c3.792-1.276,7.164-2.844,10.117-4.703c0.948-0.583,1.823-1.222,2.625-1.914h-7.383c0.146-0.948,0.255-1.859,0.328-2.734v-14.383
			C237.141,438.857,237.032,437.946,236.886,437.071z M245.964,444.946h24.281v-2.461h-24.281V444.946z M270.246,451.509v-2.461
			h-24.281v2.461H270.246z M271.503,466.22c-2.115,5.141-5.013,9.333-8.695,12.578c1.021,0.109,1.932,0.183,2.734,0.219
			c3.026-0.109,4.977-0.547,5.852-1.313c1.057-0.911,1.695-4.739,1.914-11.484H271.503z"/>
		<path style="fill:#FFFFFF;" d="M287.964,445.384h24.719c-0.146,1.094-0.219,2.224-0.219,3.391c0,1.058,0.073,2.151,0.219,3.281
			h-24.719c0.146-1.13,0.219-2.224,0.219-3.281C288.183,447.607,288.11,446.478,287.964,445.384z M289.222,470.048h23.023
			c-0.183,0.839-0.273,1.75-0.273,2.734v10.5c0,0.875,0.091,1.822,0.273,2.844h-23.023c0.146-1.021,0.273-1.969,0.383-2.844v-10.5
			C289.496,471.798,289.368,470.887,289.222,470.048z M289.769,454.353h21.82c-0.146,0.875-0.219,1.769-0.219,2.68
			s0.073,1.805,0.219,2.68h-21.82c0-0.875,0.055-1.769,0.164-2.68C289.824,456.121,289.769,455.228,289.769,454.353z
			 M289.769,462.009h21.82c-0.146,0.875-0.219,1.769-0.219,2.68c0,0.875,0.073,1.786,0.219,2.734h-21.82
			c0-0.948,0.055-1.859,0.164-2.734C289.824,463.777,289.769,462.884,289.769,462.009z M290.589,436.688h20.125
			c-0.109,1.021-0.164,2.06-0.164,3.117c0,0.984,0.055,1.987,0.164,3.008h-20.125c0.146-1.021,0.219-2.023,0.219-3.008
			C290.808,438.748,290.735,437.709,290.589,436.688z M303.824,480.493v-4.922h-6.07v4.922H303.824z M337.511,437.235
			c-0.219,1.604-0.328,3.245-0.328,4.922v16.023c0,1.349,0.109,2.734,0.328,4.156h-14.984v14.82c0,0.583,1.841,0.875,5.523,0.875
			c1.349-0.036,2.352-0.547,3.008-1.531c0.62-0.984,0.966-2.68,1.039-5.086c-0.109-1.167-0.237-2.898-0.383-5.195
			c3.317,1.933,6.38,3.245,9.188,3.938c-0.328,1.094-0.639,2.734-0.93,4.922c-0.219,3.464-1.13,6.197-2.734,8.203
			c-2.042,2.188-4.685,3.281-7.93,3.281h-10.172c-3.573,0-5.359-1.896-5.359-5.688V459.11c0-1.677-0.146-3.391-0.438-5.141h15.094
			v-7.383h-15.148c0.146-1.859,0.237-3.464,0.273-4.813c-0.037-1.495-0.128-2.898-0.273-4.211h19.523
			C334.339,437.49,335.907,437.381,337.511,437.235z"/>
		<path style="fill:#FFFFFF;" d="M351.183,464.032c1.932,1.313,4.484,2.808,7.656,4.484c-2.37,8.422-4.539,14.109-6.508,17.063
			c-0.146,1.057-0.292,1.604-0.438,1.641c-0.219-0.037-0.475-0.201-0.766-0.492c-2.334-1.678-4.795-3.19-7.383-4.539
			C347.355,476.537,349.833,470.485,351.183,464.032z M351.894,449.157c2.369,2.516,4.247,5.414,5.633,8.695
			c-2.881,0.875-5.561,2.133-8.039,3.773c-1.203-3.317-3.045-6.344-5.523-9.078C346.808,451.6,349.451,450.47,351.894,449.157z
			 M353.425,435.376c2.406,2.333,4.356,4.977,5.852,7.93c-2.844,0.839-5.469,2.06-7.875,3.664c-1.313-2.917-3.354-5.614-6.125-8.094
			C348.157,437.855,350.873,436.688,353.425,435.376z M360.48,442.157h10.227v-0.82c-0.073-2.005-0.183-4.12-0.328-6.344
			c2.297,0.364,5.833,0.547,10.609,0.547c0.656,0,1.002,0.2,1.039,0.602c-0.073,0.255-0.292,0.565-0.656,0.93
			c-0.475,0.401-0.711,1.003-0.711,1.805v3.281h13.07c-0.219,1.495-0.328,2.972-0.328,4.43s0.109,2.917,0.328,4.375h-13.07v4.648
			h14.82c-0.219,1.386-0.328,2.808-0.328,4.266c0,1.386,0.109,2.808,0.328,4.266h-17.938l-4.867,10.992
			c2.552-0.183,5.505-0.383,8.859-0.602c-1.167-2.114-2.389-4.138-3.664-6.07c2.807-0.875,5.56-1.969,8.258-3.281
			c3.938,6.016,7.383,12.122,10.336,18.32c-3.172,1.057-6.18,2.369-9.023,3.938c-0.511-1.459-1.076-2.898-1.695-4.32
			c-8.969,0.619-17.628,1.203-25.977,1.75c-0.584,0.438-0.967,0.692-1.148,0.766c-0.365-0.073-0.565-0.328-0.602-0.766
			c0-1.422,0.018-2.826,0.055-4.211c-0.073-1.567-0.256-3.153-0.547-4.758c1.166-0.109,2.406-0.164,3.719-0.164
			c0.291,0,0.656-0.019,1.094-0.055c2.005-4.156,3.664-8.003,4.977-11.539h-9.461c0.146-1.458,0.255-2.88,0.328-4.266
			c-0.073-1.458-0.183-2.88-0.328-4.266h12.852v-4.648H360.48c0.146-1.458,0.255-2.917,0.328-4.375
			C360.735,445.129,360.625,443.652,360.48,442.157z"/>
	</g>
</g>
</svg>
