<?xml version="1.0" encoding="iso-8859-1"?>
<!-- Generator: Adobe Illustrator 16.1.1, SVG Export Plug-In . SVG Version: 6.00 Build 0)  -->
<!DOCTYPE svg PUBLIC "-//W3C//DTD SVG 1.1//EN" "http://www.w3.org/Graphics/SVG/1.1/DTD/svg11.dtd">
<svg version="1.1" xmlns="http://www.w3.org/2000/svg" xmlns:xlink="http://www.w3.org/1999/xlink" x="0px" y="0px" width="1024px"
	 height="768px" viewBox="0 0 1024 768" style="enable-background:new 0 0 1024 768;" xml:space="preserve">
<g id="jfx:p00">
	<image style="overflow:visible;" width="1024" height="768" xlink:href="6B223E18.jpg" >
	</image>
</g>
<g id="jfx:p01">
	<g>
		<path style="fill:#FFFFFF;" d="M61.816,59.559h32.96v10h-20.72v12.32h19.36v9.92h-19.36v21.681h-12.24V59.559z"/>
		<path style="fill:#FFFFFF;" d="M140.456,100.92c0,5.12,0.16,9.28,0.32,12.56h-10.561l-0.56-5.52h-0.24
			c-1.52,2.4-5.2,6.4-12.24,6.4c-7.92,0-13.76-4.96-13.76-17.04V74.359h12.24V95.4c0,5.68,1.84,9.121,6.08,9.121
			c3.36,0,5.28-2.32,6.08-4.24c0.32-0.72,0.4-1.68,0.4-2.64V74.359h12.24V100.92z"/>
		<path style="fill:#FFFFFF;" d="M150.214,86.84c0-4.88-0.16-9.04-0.32-12.48h10.56l0.56,5.36h0.24c1.6-2.48,5.6-6.24,12.08-6.24
			c8,0,14,5.28,14,16.8v23.201h-12.16V91.8c0-5.04-1.76-8.48-6.16-8.48c-3.36,0-5.36,2.32-6.16,4.56c-0.32,0.72-0.48,1.92-0.48,3.04
			v22.561h-12.161V86.84z"/>
		<path style="fill:#FFFFFF;" d="M210.695,63.159v11.2h8.72v8.96h-8.72v14.16c0,4.72,1.12,6.88,4.8,6.88c1.52,0,2.72-0.16,3.6-0.32
			l0.08,9.2c-1.6,0.64-4.48,1.04-7.92,1.04c-3.92,0-7.2-1.36-9.12-3.36c-2.24-2.32-3.36-6.08-3.36-11.6v-16h-5.2v-8.96h5.2v-8.48
			L210.695,63.159z"/>
		<path style="fill:#FFFFFF;" d="M239.014,63.479c0,3.36-2.56,6.08-6.56,6.08c-3.84,0-6.4-2.72-6.32-6.08
			c-0.08-3.52,2.48-6.16,6.4-6.16C236.454,57.319,238.934,59.959,239.014,63.479z M226.454,113.48V74.359h12.161v39.121H226.454z"/>
		<path style="fill:#FFFFFF;" d="M287.014,93.48c0,14.32-10.16,20.88-20.641,20.88c-11.44,0-20.24-7.52-20.24-20.16
			c0-12.641,8.32-20.721,20.88-20.721C279.014,73.479,287.014,81.72,287.014,93.48z M258.693,93.88c0,6.72,2.8,11.76,8,11.76
			c4.72,0,7.76-4.72,7.76-11.76c0-5.84-2.24-11.76-7.76-11.76C260.853,82.12,258.693,88.12,258.693,93.88z"/>
		<path style="fill:#FFFFFF;" d="M294.532,86.84c0-4.88-0.16-9.04-0.32-12.48h10.56l0.56,5.36h0.24c1.6-2.48,5.6-6.24,12.08-6.24
			c8,0,14,5.28,14,16.8v23.201h-12.16V91.8c0-5.04-1.76-8.48-6.16-8.48c-3.36,0-5.36,2.32-6.16,4.56c-0.32,0.72-0.48,1.92-0.48,3.04
			v22.561h-12.161V86.84z"/>
		<path style="fill:#FFFFFF;" d="M363.653,113.48l-0.72-3.92h-0.24c-2.56,3.12-6.56,4.8-11.2,4.8c-7.92,0-12.641-5.76-12.641-12
			c0-10.16,9.121-15.041,22.961-14.96v-0.56c0-2.08-1.12-5.04-7.12-5.04c-4,0-8.24,1.36-10.8,2.96l-2.24-7.84
			c2.72-1.52,8.08-3.44,15.2-3.44c13.041,0,17.201,7.68,17.201,16.88v13.601c0,3.76,0.16,7.36,0.56,9.52H363.653z M362.213,95
			c-6.4-0.08-11.36,1.44-11.36,6.16c0,3.12,2.08,4.64,4.8,4.64c3.04,0,5.52-2,6.32-4.48c0.16-0.64,0.24-1.36,0.24-2.08V95z"/>
		<path style="fill:#FFFFFF;" d="M383.652,56.679h12.161v56.801h-12.161V56.679z"/>
		<path style="fill:#FFFFFF;" d="M434.452,59.559v53.921h-12.24V59.559H434.452z"/>
		<path style="fill:#FFFFFF;" d="M444.61,86.84c0-4.88-0.16-9.04-0.319-12.48h10.56l0.561,5.36h0.239
			c1.601-2.48,5.601-6.24,12.081-6.24c8,0,14,5.28,14,16.8v23.201h-12.16V91.8c0-5.04-1.76-8.48-6.16-8.48
			c-3.36,0-5.36,2.32-6.16,4.56c-0.32,0.72-0.48,1.92-0.48,3.04v22.561h-12.16V86.84z"/>
		<path style="fill:#FFFFFF;" d="M505.09,63.159v11.2h8.72v8.96h-8.72v14.16c0,4.72,1.12,6.88,4.8,6.88c1.521,0,2.721-0.16,3.6-0.32
			l0.08,9.2c-1.6,0.64-4.48,1.04-7.92,1.04c-3.92,0-7.2-1.36-9.12-3.36c-2.24-2.32-3.359-6.08-3.359-11.6v-16h-5.2v-8.96h5.2v-8.48
			L505.09,63.159z"/>
		<path style="fill:#FFFFFF;" d="M530.209,97.8c0.4,5.04,5.361,7.44,11.041,7.44c4.16,0,7.52-0.56,10.801-1.6l1.6,8.24
			c-4,1.6-8.881,2.4-14.16,2.4c-13.281,0-20.881-7.68-20.881-19.92c0-9.92,6.16-20.88,19.76-20.88
			c12.641,0,17.441,9.84,17.441,19.521c0,2.08-0.24,3.92-0.4,4.8H530.209z M544.529,89.48c0-2.96-1.279-7.92-6.879-7.92
			c-5.121,0-7.201,4.64-7.521,7.92H544.529z"/>
		<path style="fill:#FFFFFF;" d="M563.09,87.24c0-5.76-0.16-9.52-0.32-12.88h10.48l0.4,7.2h0.32c2-5.68,6.799-8.08,10.559-8.08
			c1.121,0,1.682,0,2.561,0.16v11.44c-0.879-0.16-1.92-0.32-3.279-0.32c-4.48,0-7.521,2.4-8.32,6.16c-0.16,0.8-0.24,1.76-0.24,2.72
			v19.84h-12.16V87.24z"/>
		<path style="fill:#FFFFFF;" d="M594.85,113.48V83.32h-5.121v-8.96h5.121v-1.52c0-4.72,1.439-9.92,4.959-13.12
			c3.041-2.88,7.281-3.92,10.801-3.92c2.721,0,4.801,0.32,6.48,0.8l-0.48,9.36c-1.039-0.32-2.32-0.56-3.92-0.56
			c-4,0-5.68,3.12-5.68,6.96v2h7.84v8.96h-7.76v30.161H594.85z"/>
		<path style="fill:#FFFFFF;" d="M643.01,113.48l-0.721-3.92h-0.24c-2.561,3.12-6.561,4.8-11.201,4.8c-7.92,0-12.639-5.76-12.639-12
			c0-10.16,9.119-15.041,22.959-14.96v-0.56c0-2.08-1.119-5.04-7.119-5.04c-4,0-8.24,1.36-10.801,2.96l-2.24-7.84
			c2.721-1.52,8.08-3.44,15.201-3.44c13.039,0,17.199,7.68,17.199,16.88v13.601c0,3.76,0.16,7.36,0.561,9.52H643.01z M641.568,95
			c-6.4-0.08-11.359,1.44-11.359,6.16c0,3.12,2.08,4.64,4.799,4.64c3.041,0,5.521-2,6.32-4.48c0.16-0.64,0.24-1.36,0.24-2.08V95z"/>
		<path style="fill:#FFFFFF;" d="M692.369,112.521c-2.16,0.96-6.24,1.76-10.881,1.76c-12.639,0-20.721-7.68-20.721-20
			c0-11.44,7.842-20.801,22.402-20.801c3.199,0,6.719,0.56,9.279,1.52l-1.92,9.041c-1.439-0.64-3.6-1.2-6.801-1.2
			c-6.4,0-10.561,4.56-10.48,10.96c0,7.2,4.801,10.96,10.721,10.96c2.881,0,5.121-0.48,6.961-1.2L692.369,112.521z"/>
		<path style="fill:#FFFFFF;" d="M708.447,97.8c0.4,5.04,5.361,7.44,11.041,7.44c4.16,0,7.52-0.56,10.801-1.6l1.6,8.24
			c-4,1.6-8.881,2.4-14.16,2.4c-13.281,0-20.881-7.68-20.881-19.92c0-9.92,6.16-20.88,19.76-20.88
			c12.641,0,17.441,9.84,17.441,19.521c0,2.08-0.24,3.92-0.4,4.8H708.447z M722.768,89.48c0-2.96-1.279-7.92-6.879-7.92
			c-5.121,0-7.201,4.64-7.521,7.92H722.768z"/>
	</g>
</g>
<g id="jfx:p02">
	<g>
		<path style="fill:#FFFFFF;" d="M248.695,150.375c2.078,0.328,5.341,0.492,9.789,0.492c0.583,0,0.893,0.201,0.93,0.602
			c-0.146,0.219-0.365,0.511-0.656,0.875c-0.401,0.328-0.602,0.875-0.602,1.641v0.82h20.453c-0.219,1.24-0.328,2.461-0.328,3.664
			v10.609c-1.458-0.182-2.917-0.273-4.375-0.273c-0.146,0-0.292,0-0.438,0c0.036,0.766,0.109,1.568,0.219,2.406h-15.75v2.406h15.969
			c-0.146,0.875-0.219,1.805-0.219,2.789c0,0.912,0.073,1.841,0.219,2.789h-15.969v2.625h21.273
			c-0.183,1.094-0.273,2.206-0.273,3.336c0,1.094,0.091,2.206,0.273,3.336h-18.594c0.802,0.547,1.768,1.076,2.898,1.586
			c4.12,1.75,9.698,3.227,16.734,4.43c-1.933,2.26-3.683,4.903-5.25,7.93c-6.49-2.005-13.636-5.177-21.438-9.516
			c-5.761,3.719-12.615,6.963-20.563,9.734c-1.641-3.208-3.391-5.852-5.25-7.93c6.817-1.276,12.177-2.917,16.078-4.922
			c0.692-0.474,1.313-0.911,1.859-1.313h-16.898c0.146-1.13,0.237-2.242,0.273-3.336c-0.037-1.13-0.128-2.242-0.273-3.336h20.398
			v-2.625h-15.75c0-0.948,0.073-1.877,0.219-2.789c-0.146-0.984-0.219-1.914-0.219-2.789h15.75v-2.406h-15.75
			c0.073-0.692,0.127-1.349,0.164-1.969c-1.313,0-2.57,0.091-3.773,0.273v-11.047c-0.073-1.458-0.164-2.68-0.273-3.664h19.359
			C248.877,153.383,248.805,151.906,248.695,150.375z M238.359,165.031h10.828v-2.68c0-0.036,0-0.073,0-0.109h-10.828V165.031z
			 M257.938,162.242v2.789h11.594v-2.789H257.938z"/>
		<path style="fill:#FFFFFF;" d="M290.75,150.156c2.224,2.662,4.375,5.487,6.453,8.477v-3.336c-0.109-1.677-0.237-3.445-0.383-5.305
			c1.932,0.292,4.867,0.438,8.805,0.438c0.547,0,0.856,0.164,0.93,0.492c-0.073,0.219-0.273,0.456-0.602,0.711
			c-0.401,0.365-0.602,0.894-0.602,1.586v20.672c2.114,0.255,5.213,0.383,9.297,0.383c0.62,0,0.948,0.201,0.984,0.602
			c-0.146,0.219-0.365,0.511-0.656,0.875c-0.292,0.219-0.474,0.529-0.547,0.93h21c-0.183,1.094-0.273,2.261-0.273,3.5
			c0,1.058,0.091,2.188,0.273,3.391h-6.727c1.422,1.094,3.008,2.133,4.758,3.117c0.364,0.183,0.565,0.456,0.602,0.82
			c-0.109,0.109-0.365,0.255-0.766,0.438c-1.313,1.458-2.698,2.808-4.156,4.047c2.114,0.766,4.557,1.531,7.328,2.297
			c-2.333,2.771-3.992,5.633-4.977,8.586c-6.198-2.552-10.865-5.323-14-8.313c-0.037,0.438-0.055,0.875-0.055,1.313
			c0,1.239,0.127,2.516,0.383,3.828c-7.219,0.729-14.201,1.385-20.945,1.969c-0.438,0.292-0.729,0.492-0.875,0.602
			c-0.292-0.109-0.456-0.31-0.492-0.602c0-1.167,0.018-2.297,0.055-3.391c-0.146-1.203-0.292-2.461-0.438-3.773
			c0.875-0.109,1.823-0.164,2.844-0.164c0.802,0,2.315-0.164,4.539-0.492v-5.086c-0.62,0.583-1.24,1.13-1.859,1.641
			c-3.208,2.698-7.511,5.396-12.906,8.094c-1.021-2.771-2.425-5.268-4.211-7.492c3.864-1.385,7.328-3.081,10.391-5.086
			c1.057-0.692,2.023-1.477,2.898-2.352h-12.25c0.146-1.203,0.237-2.333,0.273-3.391c-0.037-1.239-0.128-2.406-0.273-3.5h20.508
			c-0.037-0.583-0.073-1.185-0.109-1.805c-1.276-0.146-2.516-0.219-3.719-0.219c-1.422,0-2.771,0.091-4.047,0.273v-4.047
			c-2.88,1.276-5.724,2.406-8.531,3.391c-0.365,0.438-0.693,0.711-0.984,0.82c-0.255-0.073-0.419-0.292-0.492-0.656
			c-0.693-2.333-1.695-4.703-3.008-7.109c2.297-0.547,5.104-1.44,8.422-2.68c1.75-0.656,3.281-1.349,4.594-2.078v-3.555
			c-2.078,1.604-4.102,3.391-6.07,5.359c-2.042-3.245-4.284-6.198-6.727-8.859C286.667,153.729,288.781,151.943,290.75,150.156z
			 M307.32,155.242h8.914c-0.073-1.641-0.183-3.336-0.328-5.086c2.005,0.328,5.067,0.492,9.188,0.492
			c0.583,0,0.893,0.183,0.93,0.547c-0.109,0.219-0.31,0.492-0.602,0.82c-0.438,0.365-0.656,0.894-0.656,1.586v1.641h10.664
			c-0.183,1.24-0.273,2.552-0.273,3.938c0,1.203,0.091,2.479,0.273,3.828h-10.664v3.172h9.57c-0.183,1.203-0.273,2.425-0.273,3.664
			c0,1.24,0.091,2.498,0.273,3.773h-26.578c0.146-1.276,0.237-2.534,0.273-3.773c-0.037-1.239-0.128-2.461-0.273-3.664h8.477v-3.172
			h-8.914c0.146-1.349,0.237-2.625,0.273-3.828C307.557,157.794,307.466,156.482,307.32,155.242z M315.305,192.156
			c-0.547-0.729-1.003-1.458-1.367-2.188c-1.24-2.114-2.042-4.247-2.406-6.398h-1.039v9.297c0.875-0.109,1.75-0.237,2.625-0.383
			C313.883,192.412,314.612,192.302,315.305,192.156z M318.859,183.57c0.62,1.458,1.422,2.716,2.406,3.773
			c0.182,0.183,0.364,0.365,0.547,0.547c1.823-1.203,3.427-2.643,4.813-4.32H318.859z"/>
		<path style="fill:#FFFFFF;" d="M376.391,183.625c0,4.558-1.203,8.203-3.609,10.938c-3.136,3.573-8.695,6.252-16.68,8.039
			c-0.766-3.5-2.37-6.727-4.813-9.68c3.281-0.182,6.581-1.203,9.898-3.063c-2.88-0.583-5.177-1.987-6.891-4.211
			c-1.495-1.969-2.242-4.083-2.242-6.344c0-2.661,0.984-4.885,2.953-6.672c2.042-1.75,4.557-2.625,7.547-2.625
			c0.656,0,1.622,0.146,2.898,0.438c0-1.75,0-3.391,0-4.922c-8.75,0.219-16.57,0.602-23.461,1.148l-0.109-8.477
			c6.672-0.583,14.456-0.966,23.352-1.148c-0.109-2.078-0.273-4.138-0.492-6.18l10.117,0.82c0.802,0.037,1.203,0.31,1.203,0.82
			c0,0.146-0.164,0.438-0.492,0.875c-0.328,0.401-0.492,0.894-0.492,1.477v2.133c4.776,0,9.807,0.091,15.094,0.273l0.109,8.422
			c-5.906-0.182-10.974-0.273-15.203-0.273c-0.037,3.609-0.201,7.201-0.492,10.773C375.789,178.12,376.391,180.599,376.391,183.625z
			 M366.93,179.195c0-0.948-0.347-1.768-1.039-2.461c-0.729-0.692-1.568-1.039-2.516-1.039c-1.021,0-1.878,0.347-2.57,1.039
			c-0.693,0.693-1.039,1.513-1.039,2.461c0,1.021,0.346,1.878,1.039,2.57c0.692,0.693,1.549,1.039,2.57,1.039
			c0.948,0,1.786-0.346,2.516-1.039C366.583,181.073,366.93,180.216,366.93,179.195z"/>
		<path style="fill:#FFFFFF;" d="M447.867,187.07l-5.688,8.039c-2.808-2.042-6.216-4.813-10.227-8.313
			c-5.797-5.031-10.245-9.37-13.344-13.016c-1.422-1.677-2.589-2.516-3.5-2.516c-1.021,0-2.115,0.656-3.281,1.969
			c-2.625,2.734-5.597,6.526-8.914,11.375l-6.836-7.547c2.552-2.588,6.325-6.508,11.32-11.758c1.531-1.604,2.643-2.661,3.336-3.172
			c1.422-1.094,2.862-1.641,4.32-1.641c1.203,0,2.315,0.365,3.336,1.094c0.583,0.365,1.477,1.148,2.68,2.352
			C431.643,174.401,440.575,182.112,447.867,187.07z M436.82,164.211l-2.625,2.516c-1.094-1.458-2.88-3.463-5.359-6.016l2.625-2.352
			C432.481,159.344,434.268,161.294,436.82,164.211z M440.648,160.656l-2.57,2.57c-1.167-1.458-2.972-3.445-5.414-5.961l2.625-2.406
			C436.273,155.844,438.06,157.776,440.648,160.656z"/>
		<path style="fill:#FFFFFF;" d="M499.438,169.953c-2.698,1.094-6.198,2.151-10.5,3.172c0.838,1.568,2.078,3.263,3.719,5.086
			c1.203,1.313,2.424,2.607,3.664,3.883l-5.961,6.289c-5.359-2.37-9.972-3.555-13.836-3.555c-5.068,0-7.602,1.458-7.602,4.375
			c0,1.422,1.111,2.425,3.336,3.008c1.859,0.474,4.83,0.711,8.914,0.711c4.192,0,8.494-0.31,12.906-0.93
			c-1.313,2.807-2.023,6.088-2.133,9.844c-0.839,0-3.391-0.019-7.656-0.055c-4.303-0.037-7.073-0.055-8.313-0.055
			c-4.594,0-8.514-0.912-11.758-2.734c-3.719-2.188-5.578-5.177-5.578-8.969c0-3.245,1.33-6.034,3.992-8.367
			c2.916-2.479,6.744-3.719,11.484-3.719c1.786,0,3.992,0.091,6.617,0.273c-1.276-1.422-2.151-2.534-2.625-3.336
			c-4.776,0.547-9.534,0.839-14.273,0.875h-7.273l-0.164-7.82c3.646,0.037,6.033,0.055,7.164,0.055
			c3.427,0,7.091-0.164,10.992-0.492c-0.547-1.313-1.021-2.497-1.422-3.555c-2.734,0.219-7.311,0.401-13.727,0.547l-0.109-7.547
			c4.849-0.073,8.567-0.182,11.156-0.328l-1.586-4.43l10.664-0.547c0.619,0,0.93,0.201,0.93,0.602c0,0.219-0.109,0.474-0.328,0.766
			c-0.183,0.292-0.273,0.602-0.273,0.93c0,0.037,0.164,0.547,0.492,1.531c4.703-0.729,8.403-1.604,11.102-2.625l2.516,6.945
			c-2.334,1.058-5.906,2.023-10.719,2.898c0.583,1.24,1.13,2.37,1.641,3.391c4.739-0.984,8.658-2.096,11.758-3.336L499.438,169.953z
			"/>
		<path style="fill:#FFFFFF;" d="M550.789,157.594c0,0.255-0.256,0.583-0.766,0.984c-0.511,0.401-0.894,0.875-1.148,1.422
			c-1.386,4.12-2.771,7.748-4.156,10.883c4.557,2.734,8.148,5.469,10.773,8.203l-5.961,8.477c-2.115-1.567-5.433-3.919-9.953-7.055
			c-4.084,6.636-10.354,13.745-18.813,21.328l-8.039-8.203c7.583-4.63,13.672-10.627,18.266-17.992
			c-4.12-2.005-8.459-3.591-13.016-4.758l2.68-9.461c4.775,0.802,9.825,2.388,15.148,4.758c1.677-4.192,3.063-8.805,4.156-13.836
			l9.078,3.773C550.205,156.591,550.789,157.083,550.789,157.594z"/>
		<path style="fill:#FFFFFF;" d="M585.352,169.68l-8.859,5.359c-0.839-2.442-2.297-5.177-4.375-8.203
			c-1.714-2.588-3.482-4.813-5.305-6.672l8.586-5.523c1.531,1.495,3.281,3.755,5.25,6.781
			C582.653,164.375,584.221,167.128,585.352,169.68z M613.461,158.031c0,0.183-0.273,0.547-0.82,1.094
			c-0.547,0.474-0.894,0.984-1.039,1.531c-2.406,10.719-5.232,18.539-8.477,23.461c-4.156,6.271-10.975,11.685-20.453,16.242
			l-8.969-7.438c11.192-4.083,19.158-10.864,23.898-20.344c2.771-5.542,4.229-11.448,4.375-17.719l10.063,2.023
			C612.986,157.065,613.461,157.448,613.461,158.031z"/>
		<path style="fill:#FFFFFF;" d="M638.672,177.609l-7.547,3.336c-0.584-1.896-1.55-4.174-2.898-6.836
			c-1.203-2.442-2.279-4.32-3.227-5.633l7.219-3.938c1.422,1.933,2.789,4.266,4.102,7
			C637.523,173.982,638.307,176.005,638.672,177.609z M667.547,167.602c0,0.183-0.273,0.511-0.82,0.984
			c-0.511,0.401-0.839,0.82-0.984,1.258c-1.969,7.073-4.211,12.669-6.727,16.789c-3.573,5.615-8.769,10.719-15.586,15.313
			l-7.273-6.234c7.036-3.391,12.523-8.622,16.461-15.695c3.025-5.505,4.648-10.938,4.867-16.297l8.969,2.789
			C667.182,166.763,667.547,167.128,667.547,167.602z M650.977,174.164l-7.438,2.898c-1.823-6.052-3.683-10.463-5.578-13.234
			L645.07,160C647.549,163.828,649.518,168.55,650.977,174.164z"/>
		<path style="fill:#FFFFFF;" d="M724.039,180.016l-6.563,7.82c-4.084-3.755-10.245-7.62-18.484-11.594
			c-0.037,6.927-0.128,15.604-0.273,26.031l-10.773-0.109c0.255-14.328,0.383-28.602,0.383-42.82c0-3.317-0.128-5.906-0.383-7.766
			l10.664,0.711c1.021,0.073,1.531,0.328,1.531,0.766c0,0.219-0.164,0.529-0.492,0.93c-0.292,0.401-0.438,0.784-0.438,1.148
			c0,0.037-0.055,2.534-0.164,7.492c-0.073,4.958-0.109,8.058-0.109,9.297l3.391-4.758c4.411,1.714,8.731,3.865,12.961,6.453
			C718.861,175.805,721.778,177.938,724.039,180.016z M717.586,162.625l-2.57,2.57c-1.131-1.458-2.953-3.445-5.469-5.961
			l2.625-2.352C713.192,157.831,714.997,159.745,717.586,162.625z M721.359,159.18l-2.57,2.516
			c-1.131-1.458-2.917-3.445-5.359-5.961l2.57-2.406C717.057,154.349,718.844,156.3,721.359,159.18z"/>
		<path style="fill:#FFFFFF;" d="M767.023,172.031c0,5.615-0.839,11.175-2.516,16.68c-2.334,7.766-5.706,11.648-10.117,11.648
			c-2.406,0-5.396-0.638-8.969-1.914c0.291-1.13,0.438-2.534,0.438-4.211s-0.109-3.008-0.328-3.992
			c-0.401,0.766-2.188,3.938-5.359,9.516l-7.766-5.031c1.458-2.479,2.861-4.977,4.211-7.492c2.442-4.739,4.739-9.698,6.891-14.875
			l-7.328,2.078l-1.148-8.641c2.807-0.656,6.672-1.385,11.594-2.188c1.385-4.594,2.26-8.531,2.625-11.813l9.023,2.078
			c0.656,0.146,0.984,0.456,0.984,0.93c0,0.146-0.237,0.365-0.711,0.656c-0.401,0.292-0.639,0.638-0.711,1.039
			c-0.219,0.912-0.729,2.953-1.531,6.125c3.5,0.073,6.07,0.711,7.711,1.914C766.021,166.034,767.023,168.531,767.023,172.031z
			 M758.656,174.492c0-1.458-0.383-2.442-1.148-2.953c-0.766-0.51-2.006-0.802-3.719-0.875c-2.151,5.943-4.722,12.031-7.711,18.266
			c1.932,1.386,3.828,2.078,5.688,2.078c1.896,0,3.609-2.534,5.141-7.602C758.072,179.396,758.656,176.425,758.656,174.492z
			 M783.703,190.023l-8.695,1.477l0.109-4.266c0-4.047-1.076-9.151-3.227-15.313c-1.75-5.031-3.464-8.896-5.141-11.594l7.055-3.063
			c2.078,3.755,3.9,7.766,5.469,12.031C782.153,176.917,783.63,183.826,783.703,190.023z M781.68,158.195l-2.625,2.516
			c-1.131-1.458-2.917-3.427-5.359-5.906l2.625-2.406C777.305,153.383,779.091,155.315,781.68,158.195z M785.508,154.695l-2.57,2.57
			c-1.167-1.458-2.99-3.463-5.469-6.016l2.625-2.352C781.114,149.883,782.919,151.815,785.508,154.695z"/>
		<path style="fill:#FFFFFF;" d="M240.984,270.094v-23.242c-2.917,1.823-6.144,3.245-9.68,4.266v-10.555
			c6.016-2.114,9.971-5.414,11.867-9.898h8.805v39.43H240.984z"/>
		<path style="fill:#FFFFFF;" d="M325.422,247.563c0,7.948-3.755,13.964-11.266,18.047c-4.813,2.588-11.977,4.594-21.492,6.016
			c-0.365-3.281-1.55-6.489-3.555-9.625c5.87-0.255,11.12-1.203,15.75-2.844c7.364-2.588,11.047-6.453,11.047-11.594
			c0-3.573-1.513-5.997-4.539-7.273c-1.933-0.875-4.758-1.313-8.477-1.313c-5.141,0-12.542,1.386-22.203,4.156l-1.641-9.68
			c9.406-1.896,17.445-2.844,24.117-2.844c9.042,0,15.276,1.896,18.703,5.688C324.237,238.849,325.422,242.604,325.422,247.563z"/>
		<path style="fill:#FFFFFF;" d="M357.305,227.383c0,0.219-0.255,0.529-0.766,0.93c-0.438,0.365-0.693,0.748-0.766,1.148
			c-0.255,1.349-0.529,2.716-0.82,4.102c2.588-0.474,5.323-1.021,8.203-1.641l0.656,8.039c-3.609,0.839-7.183,1.495-10.719,1.969
			c-3.026,12.833-6.362,23.516-10.008,32.047l-8.641-2.844c3.463-7.875,6.508-17.299,9.133-28.273
			c-2.151,0.109-4.156,0.183-6.016,0.219l-0.602-8.039c2.661-0.036,5.432-0.164,8.313-0.383c0.838-4.192,1.403-7.62,1.695-10.281
			l9.188,2.188C356.922,226.708,357.305,226.982,357.305,227.383z M382.078,263.039l-0.273,10.008
			c-4.74,0.656-9.151,0.984-13.234,0.984c-9.552,0-15.531-4.102-17.938-12.305c2.88-0.692,5.505-1.659,7.875-2.898
			c1.458,3.719,5.086,5.578,10.883,5.578C372.781,264.406,377.01,263.951,382.078,263.039z M380.438,249.695
			c-6.344,0.109-13.362,1.313-21.055,3.609l-1.859-7.984c8.276-2.297,15.641-3.481,22.094-3.555L380.438,249.695z M379.07,232.961
			l-2.625,2.57c-1.13-1.458-2.917-3.463-5.359-6.016l2.625-2.406C374.695,228.13,376.481,230.081,379.07,232.961z M382.898,229.461
			l-2.625,2.516c-1.13-1.458-2.935-3.445-5.414-5.961l2.625-2.352C378.505,224.648,380.31,226.581,382.898,229.461z"/>
		<path style="fill:#FFFFFF;" d="M403.57,270.039l-8.367,3.172c-3.136-7.62-4.703-15.549-4.703-23.789
			c0-3.5,0.292-7.692,0.875-12.578c0.692-5.323,1.057-8.531,1.094-9.625l9.297,2.352c0.62,0.146,0.93,0.438,0.93,0.875
			c0,0.109-0.183,0.365-0.547,0.766c-0.365,0.365-0.583,0.675-0.656,0.93c-1.422,4.594-2.133,9.57-2.133,14.93
			C399.359,256.987,400.763,264.644,403.57,270.039z M431.844,227.438c0,0.146-0.183,0.474-0.547,0.984
			c-0.328,0.438-0.492,0.912-0.492,1.422v6.836c2.406-0.255,4.648-0.528,6.727-0.82l0.328,9.188
			c-2.151,0.328-4.503,0.602-7.055,0.82v1.531c0,6.453-0.839,11.977-2.516,16.57c-1.677,4.557-4.466,8.914-8.367,13.07
			c-2.406-2.406-5.013-4.248-7.82-5.523c2.297-2.078,4.284-4.594,5.961-7.547c2.625-4.739,3.938-9.88,3.938-15.422
			c0-0.656,0-1.367,0-2.133c-4.776,0.146-9.443,0.037-14-0.328l-0.328-9.133c4.594,0.328,9.333,0.419,14.219,0.273
			c-0.073-5.213-0.347-9.096-0.82-11.648l9.352,1.148C431.37,226.8,431.844,227.037,431.844,227.438z"/>
		<path style="fill:#FFFFFF;" d="M494.406,249.039c0,5.433-1.203,9.953-3.609,13.563c-2.334,3.391-5.925,6.252-10.773,8.586
			c-1.203,0.51-2.881,1.239-5.031,2.188c-0.584-2.917-1.896-6.07-3.938-9.461c3.135-0.984,5.869-2.37,8.203-4.156
			c3.791-2.917,5.688-6.471,5.688-10.664c0-2.442-0.766-4.703-2.297-6.781c-1.75-2.442-4.303-4.138-7.656-5.086
			c-4.703,21.729-10.5,32.594-17.391,32.594c-2.443,0-4.886-1.458-7.328-4.375c-2.88-3.5-4.32-7.875-4.32-13.125
			c0-7.036,2.369-12.778,7.109-17.227c4.63-4.338,10.555-6.508,17.773-6.508c6.927,0,12.56,1.805,16.898,5.414
			C492.182,237.719,494.406,242.732,494.406,249.039z M466.133,237.281c-4.229,1.24-7.383,3.409-9.461,6.508
			c-1.641,2.516-2.461,5.396-2.461,8.641c0,1.714,0.328,3.245,0.984,4.594c0.619,1.313,1.385,1.969,2.297,1.969
			c0.984,0,2.442-2.534,4.375-7.602C463.763,246.615,465.185,241.912,466.133,237.281z"/>
		<path style="fill:#FFFFFF;" d="M549.203,233.289c0,0.365-0.42,0.675-1.258,0.93c-0.984,0.292-1.641,0.583-1.969,0.875
			c-2.808,2.844-6.672,6.089-11.594,9.734v31.773l-9.953-0.109v-25.102c-6.162,3.683-11.758,6.49-16.789,8.422l-6.07-8.422
			c6.744-2.406,13.416-5.578,20.016-9.516c8.896-5.25,15.458-10.682,19.688-16.297l6.672,6.18
			C548.783,232.487,549.203,232.998,549.203,233.289z"/>
		<path style="fill:#FFFFFF;" d="M606.297,243.953c-6.381,7.073-13.18,13.144-20.398,18.211c-7,4.922-13.709,8.458-20.125,10.609
			c-0.219,0.109-0.511,0.456-0.875,1.039c-0.365,0.62-0.693,0.93-0.984,0.93c-0.511,0-0.948-0.419-1.313-1.258l-4.375-9.625
			c6.161-0.656,13.197-3.737,21.109-9.242c7.291-5.067,14.291-11.466,21-19.195L606.297,243.953z M580.211,236.461l-4.977,7.93
			c-1.678-1.495-4.32-3.391-7.93-5.688c-3.428-2.188-6.308-3.864-8.641-5.031l4.703-7.93
			C567.158,227.638,572.773,231.211,580.211,236.461z"/>
		<path style="fill:#FFFFFF;" d="M661.914,239.031c0,0.219-0.256,0.492-0.766,0.82c-0.475,0.365-0.803,0.693-0.984,0.984
			c-3.828,8.568-8.076,15.44-12.742,20.617c-4.886,5.396-11.448,10.317-19.688,14.766l-9.023-7.547
			c7.182-2.844,13.234-6.398,18.156-10.664c-1.896-2.479-4.156-4.758-6.781-6.836l5.469-6.344c2.078,1.13,4.63,3.19,7.656,6.18
			c2.114-3.063,4.119-6.635,6.016-10.719l-13.672,1.477c-4.74,6.344-9.553,11.193-14.438,14.547l-6.891-7.766
			c4.119-2.224,8.148-5.87,12.086-10.938c3.025-3.938,5.596-8.167,7.711-12.688l9.461,2.133c1.057,0.255,1.586,0.62,1.586,1.094
			c0,0.328-0.273,0.675-0.82,1.039c-0.693,0.401-1.094,0.711-1.203,0.93c-0.219,0.365-0.912,1.513-2.078,3.445l12.414-1.422
			c0.255-0.036,0.547-0.182,0.875-0.438c0.364-0.255,0.619-0.383,0.766-0.383c0.583,0,1.13,0.365,1.641,1.094
			c1.349,1.933,2.807,3.664,4.375,5.195C661.622,238.193,661.914,238.667,661.914,239.031z"/>
		<path style="fill:#FFFFFF;" d="M716.219,237.281c0,0.255-0.219,0.565-0.656,0.93c-0.438,0.328-0.711,0.675-0.82,1.039
			c-2.808,8.531-7.365,16.115-13.672,22.75c-5.688,5.979-11.995,10.5-18.922,13.563l-6.508-8.914
			c13.963-5.651,23.333-14.82,28.109-27.508l-30.953,1.695l-0.711-9.953l33.742-1.148c0.583,0,1.13-0.127,1.641-0.383
			c0.51-0.292,0.838-0.438,0.984-0.438c0.291,0,0.766,0.347,1.422,1.039l5.359,5.961
			C715.891,236.644,716.219,237.099,716.219,237.281z"/>
		<path style="fill:#FFFFFF;" d="M771.508,263.148l-0.164,8.641c-6.053-0.401-13.289-0.602-21.711-0.602
			c-4.959,0-11.667,0.328-20.125,0.984l-0.602-8.367c7.802-0.766,13.544-1.148,17.227-1.148v-16.297l-12.633,0.164l-0.164-8.313
			l33.633-0.383l0.109,8.148l-12.523,0.219v16.242C759.622,262.438,765.273,262.675,771.508,263.148z"/>
		<path style="fill:#FFFFFF;" d="M828.875,254.234c-0.438-0.036-0.912-0.055-1.422-0.055h-40.906c-0.766,0-1.44,0.037-2.023,0.109
			v-8.695c0.583,0.073,1.258,0.109,2.023,0.109h40.906c0.51,0,0.984-0.018,1.422-0.055V254.234z"/>
		<path style="fill:#FFFFFF;" d="M886.461,267.852l-8.367,6.18c-2.151-4.193-6.326-9.497-12.523-15.914
			c-5.979,6.672-12.523,12.231-19.633,16.68l-7.711-8.477c11.083-4.776,20.763-13.963,29.039-27.563l-23.898,1.859l-0.711-9.406
			l27.945-1.859c0.328,0,0.692-0.146,1.094-0.438c0.4-0.292,0.692-0.438,0.875-0.438c0.364,0,0.838,0.292,1.422,0.875l6.18,6.234
			c0.4,0.401,0.602,0.802,0.602,1.203c0,0.328-0.292,0.711-0.875,1.148c-0.62,0.365-0.984,0.656-1.094,0.875
			c-0.656,1.24-1.331,2.498-2.023,3.773c-1.531,2.625-3.264,5.323-5.195,8.094c3.317,2.771,6.508,5.998,9.57,9.68
			C883.599,263.313,885.367,265.81,886.461,267.852z"/>
	</g>
	<g>
		<path style="fill:#FFFFFF;" d="M192.85,338.768h11.071v15.871h-4.704v-12.191h-6.368V338.768z M198.226,333.584
			c0-1.728,1.312-2.943,3.136-2.943c1.824,0,3.136,1.216,3.136,2.943c0,1.728-1.312,2.848-3.136,2.848
			C199.538,336.432,198.226,335.312,198.226,333.584z"/>
		<path style="fill:#FFFFFF;" d="M211.826,338.768h3.84l0.352,2.112h0.128c1.376-1.344,3.104-2.496,5.472-2.496
			c3.583,0,5.184,2.464,5.184,6.463v9.792h-4.704v-9.183c0-2.112-0.608-3.072-2.336-3.072c-1.28,0-2.112,0.576-3.232,1.664v10.591
			h-4.704V338.768z"/>
		<path style="fill:#FFFFFF;" d="M234.289,342.448h-3.967v-3.488l4.191-0.192l0.608-4.224h3.872v4.224h6.688v3.68h-6.688v5.567
			c0,2.4,1.024,3.328,3.328,3.328c1.216,0,2.272-0.256,3.2-0.576l0.832,3.392c-1.408,0.416-3.168,0.864-5.216,0.864
			c-5.056,0-6.848-2.815-6.848-6.975V342.448z"/>
		<path style="fill:#FFFFFF;" d="M257.937,338.384c4.896,0,7.456,3.296,7.456,7.616c0,0.832-0.128,1.6-0.192,1.983h-10.688
			c0.448,2.4,2.272,3.456,4.608,3.456c1.44,0,2.688-0.384,4.096-1.088l1.536,2.816c-1.792,1.152-4.16,1.855-6.271,1.855
			c-4.928,0-8.799-3.072-8.799-8.319C249.681,341.52,253.713,338.384,257.937,338.384z M261.136,345.071
			c0-1.824-0.96-3.104-3.104-3.104c-1.696,0-3.2,0.992-3.584,3.104H261.136z"/>
		<path style="fill:#FFFFFF;" d="M270.833,338.768h3.839l0.384,3.456h0.096c1.568-2.592,3.904-3.84,6.432-3.84
			c1.408,0,2.144,0.224,3.072,0.64l-0.96,3.936c-0.992-0.288-1.632-0.448-2.816-0.448c-1.952,0-4,1.024-5.343,3.872v8.255h-4.704
			V338.768z"/>
		<path style="fill:#FFFFFF;" d="M304.144,336.144c-0.992-0.384-2.112-0.608-3.328-0.608c-2.016,0-2.976,0.864-2.976,2.784v0.448
			h5.472v3.68h-5.472v12.191h-4.704v-12.191h-4.191v-3.488l4.191-0.192v-0.416c0-3.648,2.144-6.528,7.104-6.528
			c1.823,0,3.455,0.416,4.799,0.864L304.144,336.144z"/>
		<path style="fill:#FFFFFF;" d="M317.936,344.432c-0.16-1.44-1.248-2.304-3.392-2.304c-1.536,0-3.04,0.576-4.832,1.472
			l-1.664-3.072c2.177-1.248,4.704-2.144,7.424-2.144c4.448,0,7.168,2.304,7.168,7.167v9.087h-3.84l-0.353-1.792h-0.128
			c-1.6,1.216-3.584,2.176-5.631,2.176c-3.2,0-5.216-2.112-5.216-4.799C307.473,346.671,310.416,344.879,317.936,344.432z
			 M314.191,351.375c1.408,0,2.624-0.64,3.744-1.504v-2.624c-4.672,0.256-5.951,1.248-5.951,2.624
			C311.984,350.895,312.848,351.375,314.191,351.375z"/>
		<path style="fill:#FFFFFF;" d="M336.047,338.384c2.496,0,4.607,0.896,5.951,2.144l-2.176,2.912
			c-1.216-0.864-2.336-1.248-3.52-1.248c-2.72,0-4.607,1.76-4.607,4.512c0,2.752,1.824,4.512,4.447,4.512
			c1.664,0,3.072-0.704,4.192-1.504l1.92,2.976c-1.92,1.6-4.384,2.335-6.56,2.335c-4.992,0-8.832-3.04-8.832-8.319
			C326.863,341.424,331.151,338.384,336.047,338.384z"/>
		<path style="fill:#FFFFFF;" d="M353.935,338.384c4.896,0,7.455,3.296,7.455,7.616c0,0.832-0.128,1.6-0.192,1.983h-10.687
			c0.447,2.4,2.271,3.456,4.607,3.456c1.439,0,2.688-0.384,4.096-1.088l1.536,2.816c-1.792,1.152-4.16,1.855-6.271,1.855
			c-4.928,0-8.8-3.072-8.8-8.319C345.679,341.52,349.711,338.384,353.935,338.384z M357.134,345.071c0-1.824-0.96-3.104-3.104-3.104
			c-1.696,0-3.2,0.992-3.584,3.104H357.134z"/>
		<path style="fill:#FFFFFF;" d="M395.725,354.639l-4-7.52h-2.464v7.52h-4.703v-20.862h7.391c4.416,0,8.063,1.536,8.063,6.495
			c0,3.072-1.504,5.024-3.711,6.016l4.703,8.352H395.725z M389.261,343.375h2.304c2.496,0,3.808-1.056,3.808-3.104
			s-1.312-2.751-3.808-2.751h-2.304V343.375z"/>
		<path style="fill:#FFFFFF;" d="M418.315,354.639h-3.84l-0.352-2.272h-0.128c-1.408,1.6-3.072,2.656-5.344,2.656
			c-3.616,0-5.152-2.464-5.152-6.463v-9.791h4.704v9.183c0,2.112,0.544,3.072,2.304,3.072c1.184,0,2.016-0.416,3.104-1.824v-10.431
			h4.704V354.639z"/>
		<path style="fill:#FFFFFF;" d="M423.02,338.768h3.84l0.352,2.112h0.128c1.376-1.344,3.104-2.496,5.472-2.496
			c3.584,0,5.184,2.464,5.184,6.463v9.792h-4.703v-9.183c0-2.112-0.608-3.072-2.336-3.072c-1.28,0-2.112,0.576-3.231,1.664v10.591
			h-4.704V338.768z"/>
		<path style="fill:#FFFFFF;" d="M442.219,338.768h3.84l0.352,2.112h0.128c1.376-1.344,3.104-2.496,5.472-2.496
			c3.584,0,5.184,2.464,5.184,6.463v9.792h-4.703v-9.183c0-2.112-0.608-3.072-2.336-3.072c-1.28,0-2.112,0.576-3.231,1.664v10.591
			h-4.704V338.768z"/>
		<path style="fill:#FFFFFF;" d="M471.529,344.432c-0.16-1.44-1.248-2.304-3.392-2.304c-1.536,0-3.04,0.576-4.832,1.472
			l-1.664-3.072c2.177-1.248,4.704-2.144,7.424-2.144c4.448,0,7.168,2.304,7.168,7.167v9.087h-3.84l-0.353-1.792h-0.128
			c-1.6,1.216-3.584,2.176-5.631,2.176c-3.2,0-5.216-2.112-5.216-4.799C461.066,346.671,464.01,344.879,471.529,344.432z
			 M467.785,351.375c1.408,0,2.624-0.64,3.744-1.504v-2.624c-4.672,0.256-5.951,1.248-5.951,2.624
			C465.578,350.895,466.441,351.375,467.785,351.375z"/>
		<path style="fill:#FFFFFF;" d="M480.617,332.208h4.704v5.503l-0.128,2.496c1.247-1.152,2.88-1.824,4.415-1.824
			c3.968,0,6.399,3.168,6.399,8.031c0,5.472-3.327,8.607-6.879,8.607c-1.472,0-3.008-0.736-4.32-2.112h-0.128l-0.384,1.728h-3.68
			V332.208z M488.073,351.183c1.728,0,3.104-1.408,3.104-4.672c0-2.848-0.928-4.288-2.912-4.288c-1.023,0-1.952,0.448-2.943,1.472
			v6.432C486.217,350.895,487.241,351.183,488.073,351.183z"/>
		<path style="fill:#FFFFFF;" d="M499.496,332.208h9.312v16.415c0,1.952,1.248,2.592,2.561,2.592c0.735,0,1.504-0.128,2.495-0.512
			l1.056,3.456c-1.663,0.512-2.783,0.864-4.768,0.864c-3.999,0-6.047-2.56-6.047-6.591V335.92h-4.608V332.208z"/>
		<path style="fill:#FFFFFF;" d="M526.728,338.384c4.896,0,7.455,3.296,7.455,7.616c0,0.832-0.128,1.6-0.192,1.983h-10.687
			c0.447,2.4,2.271,3.456,4.607,3.456c1.439,0,2.688-0.384,4.096-1.088l1.536,2.816c-1.792,1.152-4.16,1.855-6.271,1.855
			c-4.928,0-8.8-3.072-8.8-8.319C518.472,341.52,522.504,338.384,526.728,338.384z M529.927,345.071c0-1.824-0.96-3.104-3.104-3.104
			c-1.696,0-3.2,0.992-3.584,3.104H529.927z"/>
		<path style="fill:#FFFFFF;" d="M562.886,349.487c0-1.12-0.928-2.304-4.384-2.368v-2.752c3.456-0.064,4.384-1.248,4.384-2.368
			c0-1.984-0.32-3.231-0.32-5.472c0-3.456,1.856-4.543,5.952-4.543h2.464v2.496h-1.313c-2.655,0-3.264,0.448-3.264,2.24
			c0,1.696,0.16,3.328,0.16,5.215c0,2.432-0.928,3.36-3.199,3.744v0.128c2.271,0.384,3.199,1.312,3.199,3.744
			c0,1.952-0.16,3.487-0.16,5.215c0,1.792,0.608,2.24,3.264,2.24h1.313v2.496h-2.464c-4.096,0-5.952-1.088-5.952-4.544
			C562.565,352.687,562.886,351.503,562.886,349.487z"/>
		<path style="fill:#FFFFFF;" d="M597.221,338.768h3.84l0.384,3.456h0.096c1.568-2.592,3.904-3.84,6.432-3.84
			c1.408,0,2.144,0.224,3.072,0.64l-0.96,3.936c-0.992-0.288-1.632-0.448-2.816-0.448c-1.951,0-3.999,1.024-5.344,3.872v8.255
			h-4.703V338.768z"/>
		<path style="fill:#FFFFFF;" d="M629.507,354.639h-3.84l-0.352-2.272h-0.128c-1.408,1.6-3.072,2.656-5.344,2.656
			c-3.616,0-5.152-2.464-5.152-6.463v-9.791h4.704v9.183c0,2.112,0.544,3.072,2.304,3.072c1.184,0,2.016-0.416,3.104-1.824v-10.431
			h4.704V354.639z"/>
		<path style="fill:#FFFFFF;" d="M634.211,338.768h3.84l0.352,2.112h0.128c1.376-1.344,3.104-2.496,5.472-2.496
			c3.584,0,5.184,2.464,5.184,6.463v9.792h-4.703v-9.183c0-2.112-0.608-3.072-2.336-3.072c-1.28,0-2.112,0.576-3.231,1.664v10.591
			h-4.704V338.768z"/>
		<path style="fill:#FFFFFF;" d="M656.898,345.743c0-6.016,2.592-10.943,6.751-14.623l2.624,2.08
			c-3.808,3.712-5.439,7.487-5.439,12.543s1.632,8.832,5.439,12.543l-2.624,2.08C659.49,356.687,656.898,351.759,656.898,345.743z"
			/>
		<path style="fill:#FFFFFF;" d="M674.337,358.287c3.809-3.712,5.44-7.488,5.44-12.543s-1.632-8.831-5.44-12.543l2.624-2.08
			c4.16,3.68,6.752,8.607,6.752,14.623s-2.592,10.943-6.752,14.623L674.337,358.287z"/>
		<path style="fill:#FFFFFF;" d="M695.328,358.831c2.784-0.96,4.16-2.528,4.16-4.544c-0.128,0.032-0.224,0.032-0.353,0.032
			c-1.791,0-3.455-1.152-3.455-3.264c0-1.984,1.6-3.296,3.584-3.296c2.623,0,3.967,2.048,3.967,5.503
			c0,4.064-2.304,6.976-6.719,8.319L695.328,358.831z M695.393,340.912c0-2.08,1.504-3.744,3.712-3.744s3.711,1.664,3.711,3.744
			c0,2.112-1.503,3.776-3.711,3.776S695.393,343.023,695.393,340.912z"/>
		<path style="fill:#FFFFFF;" d="M732.575,357.006c2.624,0,3.231-0.448,3.231-2.24c0-1.728-0.128-3.264-0.128-5.215
			c0-2.432,0.896-3.36,3.2-3.744v-0.128c-2.305-0.384-3.2-1.312-3.2-3.744c0-1.888,0.128-3.52,0.128-5.215
			c0-1.792-0.607-2.24-3.231-2.24h-1.313v-2.496h2.464c4.096,0,5.952,1.088,5.952,4.543c0,2.24-0.353,3.488-0.353,5.472
			c0,1.12,0.929,2.304,4.416,2.368v2.752c-3.487,0.064-4.416,1.248-4.416,2.368c0,2.016,0.353,3.2,0.353,5.472
			c0,3.456-1.856,4.544-5.952,4.544h-2.464v-2.496H732.575z"/>
		<path style="fill:#FFFFFF;" d="M192.85,376.768h11.071v15.871h-4.704v-12.191h-6.368V376.768z M198.226,371.584
			c0-1.728,1.312-2.943,3.136-2.943c1.824,0,3.136,1.216,3.136,2.943c0,1.728-1.312,2.848-3.136,2.848
			C199.538,374.432,198.226,373.312,198.226,371.584z"/>
		<path style="fill:#FFFFFF;" d="M211.826,376.768h3.84l0.352,2.112h0.128c1.376-1.344,3.104-2.496,5.472-2.496
			c3.583,0,5.184,2.464,5.184,6.463v9.792h-4.704v-9.183c0-2.112-0.608-3.072-2.336-3.072c-1.28,0-2.112,0.576-3.232,1.664v10.591
			h-4.704V376.768z"/>
		<path style="fill:#FFFFFF;" d="M234.289,380.448h-3.967v-3.488l4.191-0.192l0.608-4.224h3.872v4.224h6.688v3.68h-6.688v5.567
			c0,2.4,1.024,3.328,3.328,3.328c1.216,0,2.272-0.256,3.2-0.576l0.832,3.392c-1.408,0.416-3.168,0.864-5.216,0.864
			c-5.056,0-6.848-2.815-6.848-6.976V380.448z"/>
		<path style="fill:#FFFFFF;" d="M257.937,376.384c4.896,0,7.456,3.296,7.456,7.616c0,0.832-0.128,1.599-0.192,1.983h-10.688
			c0.448,2.4,2.272,3.456,4.608,3.456c1.44,0,2.688-0.384,4.096-1.088l1.536,2.816c-1.792,1.151-4.16,1.855-6.271,1.855
			c-4.928,0-8.799-3.072-8.799-8.319C249.681,379.52,253.713,376.384,257.937,376.384z M261.136,383.071
			c0-1.824-0.96-3.104-3.104-3.104c-1.696,0-3.2,0.992-3.584,3.104H261.136z"/>
		<path style="fill:#FFFFFF;" d="M270.833,376.768h3.839l0.384,3.456h0.096c1.568-2.592,3.904-3.84,6.432-3.84
			c1.408,0,2.144,0.224,3.072,0.64l-0.96,3.936c-0.992-0.288-1.632-0.448-2.816-0.448c-1.952,0-4,1.024-5.343,3.872v8.255h-4.704
			V376.768z"/>
		<path style="fill:#FFFFFF;" d="M304.144,374.144c-0.992-0.384-2.112-0.608-3.328-0.608c-2.016,0-2.976,0.864-2.976,2.784v0.448
			h5.472v3.68h-5.472v12.191h-4.704v-12.191h-4.191v-3.488l4.191-0.192v-0.416c0-3.648,2.144-6.528,7.104-6.528
			c1.823,0,3.455,0.416,4.799,0.864L304.144,374.144z"/>
		<path style="fill:#FFFFFF;" d="M317.936,382.432c-0.16-1.44-1.248-2.304-3.392-2.304c-1.536,0-3.04,0.576-4.832,1.472
			l-1.664-3.072c2.177-1.248,4.704-2.144,7.424-2.144c4.448,0,7.168,2.304,7.168,7.167v9.087h-3.84l-0.353-1.792h-0.128
			c-1.6,1.216-3.584,2.176-5.631,2.176c-3.2,0-5.216-2.112-5.216-4.8C307.473,384.671,310.416,382.879,317.936,382.432z
			 M314.191,389.375c1.408,0,2.624-0.641,3.744-1.504v-2.624c-4.672,0.256-5.951,1.248-5.951,2.624
			C311.984,388.895,312.848,389.375,314.191,389.375z"/>
		<path style="fill:#FFFFFF;" d="M336.047,376.384c2.496,0,4.607,0.896,5.951,2.144l-2.176,2.912
			c-1.216-0.864-2.336-1.248-3.52-1.248c-2.72,0-4.607,1.76-4.607,4.512c0,2.752,1.824,4.512,4.447,4.512
			c1.664,0,3.072-0.704,4.192-1.504l1.92,2.976c-1.92,1.6-4.384,2.336-6.56,2.336c-4.992,0-8.832-3.04-8.832-8.319
			S331.151,376.384,336.047,376.384z"/>
		<path style="fill:#FFFFFF;" d="M353.935,376.384c4.896,0,7.455,3.296,7.455,7.616c0,0.832-0.128,1.599-0.192,1.983h-10.687
			c0.447,2.4,2.271,3.456,4.607,3.456c1.439,0,2.688-0.384,4.096-1.088l1.536,2.816c-1.792,1.151-4.16,1.855-6.271,1.855
			c-4.928,0-8.8-3.072-8.8-8.319C345.679,379.52,349.711,376.384,353.935,376.384z M357.134,383.071c0-1.824-0.96-3.104-3.104-3.104
			c-1.696,0-3.2,0.992-3.584,3.104H357.134z"/>
		<path style="fill:#FFFFFF;" d="M394.028,371.392c2.656,0,4.768,1.28,6.176,2.656l-2.592,2.912
			c-0.992-0.896-2.08-1.504-3.584-1.504c-2.943,0-5.119,2.528-5.119,6.719c0,4.288,2.176,6.784,5.312,6.784
			c1.504,0,2.688-0.736,3.712-1.856l2.592,2.848c-1.729,2.017-3.968,3.072-6.592,3.072c-5.376,0-9.855-3.68-9.855-10.687
			C384.077,375.424,388.461,371.392,394.028,371.392z"/>
		<path style="fill:#FFFFFF;" d="M413.932,382.432c-0.16-1.44-1.248-2.304-3.392-2.304c-1.536,0-3.04,0.576-4.832,1.472
			l-1.664-3.072c2.177-1.248,4.704-2.144,7.424-2.144c4.448,0,7.168,2.304,7.168,7.167v9.087h-3.84l-0.353-1.792h-0.128
			c-1.6,1.216-3.584,2.176-5.631,2.176c-3.2,0-5.216-2.112-5.216-4.8C403.469,384.671,406.412,382.879,413.932,382.432z
			 M410.188,389.375c1.408,0,2.624-0.641,3.744-1.504v-2.624c-4.672,0.256-5.951,1.248-5.951,2.624
			C407.98,388.895,408.844,389.375,410.188,389.375z"/>
		<path style="fill:#FFFFFF;" d="M422.699,370.208h9.312v16.415c0,1.952,1.248,2.592,2.561,2.592c0.735,0,1.504-0.128,2.495-0.512
			l1.056,3.455c-1.663,0.513-2.783,0.864-4.768,0.864c-3.999,0-6.047-2.56-6.047-6.592V373.92h-4.608V370.208z"/>
		<path style="fill:#FFFFFF;" d="M441.898,370.208h9.312v16.415c0,1.952,1.248,2.592,2.561,2.592c0.735,0,1.504-0.128,2.495-0.512
			l1.056,3.455c-1.663,0.513-2.783,0.864-4.768,0.864c-3.999,0-6.047-2.56-6.047-6.592V373.92h-4.608V370.208z"/>
		<path style="fill:#FFFFFF;" d="M471.529,382.432c-0.16-1.44-1.248-2.304-3.392-2.304c-1.536,0-3.04,0.576-4.832,1.472
			l-1.664-3.072c2.177-1.248,4.704-2.144,7.424-2.144c4.448,0,7.168,2.304,7.168,7.167v9.087h-3.84l-0.353-1.792h-0.128
			c-1.6,1.216-3.584,2.176-5.631,2.176c-3.2,0-5.216-2.112-5.216-4.8C461.066,384.671,464.01,382.879,471.529,382.432z
			 M467.785,389.375c1.408,0,2.624-0.641,3.744-1.504v-2.624c-4.672,0.256-5.951,1.248-5.951,2.624
			C465.578,388.895,466.441,389.375,467.785,389.375z"/>
		<path style="fill:#FFFFFF;" d="M480.617,370.208h4.704v5.503l-0.128,2.496c1.247-1.152,2.88-1.824,4.415-1.824
			c3.968,0,6.399,3.168,6.399,8.031c0,5.472-3.327,8.607-6.879,8.607c-1.472,0-3.008-0.736-4.32-2.112h-0.128l-0.384,1.729h-3.68
			V370.208z M488.073,389.183c1.728,0,3.104-1.408,3.104-4.671c0-2.848-0.928-4.288-2.912-4.288c-1.023,0-1.952,0.448-2.943,1.472
			v6.432C486.217,388.895,487.241,389.183,488.073,389.183z"/>
		<path style="fill:#FFFFFF;" d="M499.496,370.208h9.312v16.415c0,1.952,1.248,2.592,2.561,2.592c0.735,0,1.504-0.128,2.495-0.512
			l1.056,3.455c-1.663,0.513-2.783,0.864-4.768,0.864c-3.999,0-6.047-2.56-6.047-6.592V373.92h-4.608V370.208z"/>
		<path style="fill:#FFFFFF;" d="M526.728,376.384c4.896,0,7.455,3.296,7.455,7.616c0,0.832-0.128,1.599-0.192,1.983h-10.687
			c0.447,2.4,2.271,3.456,4.607,3.456c1.439,0,2.688-0.384,4.096-1.088l1.536,2.816c-1.792,1.151-4.16,1.855-6.271,1.855
			c-4.928,0-8.8-3.072-8.8-8.319C518.472,379.52,522.504,376.384,526.728,376.384z M529.927,383.071c0-1.824-0.96-3.104-3.104-3.104
			c-1.696,0-3.2,0.992-3.584,3.104H529.927z"/>
		<path style="fill:#FFFFFF;" d="M539.623,381.023l12.351-8v4.256l-8.479,5.312v0.128l8.479,5.311v4.256l-12.351-7.999V381.023z"/>
		<path style="fill:#FFFFFF;" d="M562.342,375.744h-6.239v-3.967h17.215v3.967h-6.24v16.895h-4.735V375.744z"/>
		<path style="fill:#FFFFFF;" d="M589.797,384.287l-12.352,7.999v-4.256l8.479-5.311v-0.128l-8.479-5.312v-4.256l12.352,8V384.287z"
			/>
		<path style="fill:#FFFFFF;" d="M620.483,387.486c0-1.119-0.928-2.304-4.384-2.367v-2.752c3.456-0.064,4.384-1.248,4.384-2.368
			c0-1.984-0.32-3.231-0.32-5.472c0-3.456,1.856-4.543,5.952-4.543h2.464v2.496h-1.313c-2.655,0-3.264,0.448-3.264,2.24
			c0,1.696,0.16,3.328,0.16,5.215c0,2.432-0.928,3.36-3.199,3.744v0.128c2.271,0.384,3.199,1.312,3.199,3.744
			c0,1.952-0.16,3.487-0.16,5.216c0,1.792,0.608,2.239,3.264,2.239h1.313v2.496h-2.464c-4.096,0-5.952-1.088-5.952-4.544
			C620.163,390.687,620.483,389.503,620.483,387.486z"/>
		<path style="fill:#FFFFFF;" d="M658.338,375.744h-6.239v-3.967h17.215v3.967h-6.24v16.895h-4.735V375.744z"/>
		<path style="fill:#FFFFFF;" d="M700.832,376.384c2.496,0,4.607,0.896,5.951,2.144l-2.176,2.912
			c-1.216-0.864-2.336-1.248-3.52-1.248c-2.72,0-4.607,1.76-4.607,4.512c0,2.752,1.824,4.512,4.447,4.512
			c1.664,0,3.072-0.704,4.192-1.504l1.92,2.976c-1.92,1.6-4.384,2.336-6.56,2.336c-4.992,0-8.832-3.04-8.832-8.319
			S695.937,376.384,700.832,376.384z"/>
		<path style="fill:#FFFFFF;" d="M721.119,382.432c-0.16-1.44-1.248-2.304-3.392-2.304c-1.536,0-3.04,0.576-4.832,1.472
			l-1.664-3.072c2.177-1.248,4.704-2.144,7.424-2.144c4.448,0,7.168,2.304,7.168,7.167v9.087h-3.84l-0.353-1.792h-0.128
			c-1.6,1.216-3.584,2.176-5.631,2.176c-3.2,0-5.216-2.112-5.216-4.8C710.656,384.671,713.6,382.879,721.119,382.432z
			 M717.375,389.375c1.408,0,2.624-0.641,3.744-1.504v-2.624c-4.672,0.256-5.951,1.248-5.951,2.624
			C715.168,388.895,716.031,389.375,717.375,389.375z"/>
		<path style="fill:#FFFFFF;" d="M729.887,370.208h9.312v16.415c0,1.952,1.248,2.592,2.561,2.592c0.735,0,1.504-0.128,2.495-0.512
			l1.056,3.455c-1.663,0.513-2.783,0.864-4.768,0.864c-3.999,0-6.047-2.56-6.047-6.592V373.92h-4.608V370.208z"/>
		<path style="fill:#FFFFFF;" d="M749.086,370.208h9.312v16.415c0,1.952,1.248,2.592,2.561,2.592c0.735,0,1.504-0.128,2.495-0.512
			l1.056,3.455c-1.663,0.513-2.783,0.864-4.768,0.864c-3.999,0-6.047-2.56-6.047-6.592V373.92h-4.608V370.208z"/>
		<path style="fill:#FFFFFF;" d="M772.094,383.743c0-6.016,2.592-10.943,6.751-14.623l2.624,2.08
			c-3.808,3.712-5.439,7.487-5.439,12.543s1.632,8.831,5.439,12.543l-2.624,2.08C774.686,394.687,772.094,389.759,772.094,383.743z"
			/>
		<path style="fill:#FFFFFF;" d="M789.532,396.286c3.809-3.712,5.44-7.487,5.44-12.543s-1.632-8.831-5.44-12.543l2.624-2.08
			c4.16,3.68,6.752,8.607,6.752,14.623s-2.592,10.943-6.752,14.623L789.532,396.286z"/>
		<path style="fill:#FFFFFF;" d="M810.523,396.83c2.784-0.96,4.16-2.527,4.16-4.544c-0.128,0.032-0.224,0.032-0.353,0.032
			c-1.791,0-3.455-1.151-3.455-3.264c0-1.983,1.6-3.296,3.584-3.296c2.623,0,3.967,2.048,3.967,5.504
			c0,4.063-2.304,6.976-6.719,8.319L810.523,396.83z M810.588,378.912c0-2.08,1.504-3.744,3.712-3.744s3.711,1.664,3.711,3.744
			c0,2.112-1.503,3.776-3.711,3.776S810.588,381.023,810.588,378.912z"/>
		<path style="fill:#FFFFFF;" d="M847.771,395.006c2.624,0,3.231-0.447,3.231-2.239c0-1.729-0.128-3.264-0.128-5.216
			c0-2.432,0.896-3.359,3.2-3.744v-0.128c-2.305-0.384-3.2-1.312-3.2-3.744c0-1.888,0.128-3.52,0.128-5.215
			c0-1.792-0.607-2.24-3.231-2.24h-1.313v-2.496h2.464c4.096,0,5.952,1.088,5.952,4.543c0,2.24-0.353,3.488-0.353,5.472
			c0,1.12,0.929,2.304,4.416,2.368v2.752c-3.487,0.063-4.416,1.248-4.416,2.367c0,2.017,0.353,3.2,0.353,5.472
			c0,3.456-1.856,4.544-5.952,4.544h-2.464v-2.496H847.771z"/>
	</g>
</g>
<g id="jfx:p03">
	<g>
		<path style="fill:#FFFFFF;" d="M192.85,254.353h11.071v15.871h-4.704v-12.191h-6.368V254.353z M198.226,249.168
			c0-1.728,1.312-2.943,3.136-2.943c1.824,0,3.136,1.216,3.136,2.943c0,1.728-1.312,2.848-3.136,2.848
			C199.538,252.017,198.226,250.896,198.226,249.168z"/>
		<path style="fill:#FFFFFF;" d="M211.826,254.353h3.84l0.352,2.112h0.128c1.376-1.344,3.104-2.496,5.472-2.496
			c3.583,0,5.184,2.464,5.184,6.463v9.792h-4.704v-9.183c0-2.112-0.608-3.072-2.336-3.072c-1.28,0-2.112,0.576-3.232,1.664v10.591
			h-4.704V254.353z"/>
		<path style="fill:#FFFFFF;" d="M234.289,258.032h-3.967v-3.488l4.191-0.192l0.608-4.224h3.872v4.224h6.688v3.68h-6.688v5.567
			c0,2.4,1.024,3.328,3.328,3.328c1.216,0,2.272-0.256,3.2-0.576l0.832,3.392c-1.408,0.416-3.168,0.864-5.216,0.864
			c-5.056,0-6.848-2.815-6.848-6.975V258.032z"/>
		<path style="fill:#FFFFFF;" d="M257.937,253.968c4.896,0,7.456,3.296,7.456,7.616c0,0.832-0.128,1.6-0.192,1.983h-10.688
			c0.448,2.4,2.272,3.456,4.608,3.456c1.44,0,2.688-0.384,4.096-1.088l1.536,2.816c-1.792,1.152-4.16,1.855-6.271,1.855
			c-4.928,0-8.799-3.072-8.799-8.319C249.681,257.104,253.713,253.968,257.937,253.968z M261.136,260.656
			c0-1.824-0.96-3.104-3.104-3.104c-1.696,0-3.2,0.992-3.584,3.104H261.136z"/>
		<path style="fill:#FFFFFF;" d="M270.833,254.353h3.839l0.384,3.456h0.096c1.568-2.592,3.904-3.84,6.432-3.84
			c1.408,0,2.144,0.224,3.072,0.64l-0.96,3.936c-0.992-0.288-1.632-0.448-2.816-0.448c-1.952,0-4,1.024-5.343,3.872v8.255h-4.704
			V254.353z"/>
		<path style="fill:#FFFFFF;" d="M304.144,251.729c-0.992-0.384-2.112-0.608-3.328-0.608c-2.016,0-2.976,0.864-2.976,2.784v0.448
			h5.472v3.68h-5.472v12.191h-4.704v-12.191h-4.191v-3.488l4.191-0.192v-0.416c0-3.648,2.144-6.528,7.104-6.528
			c1.823,0,3.455,0.416,4.799,0.864L304.144,251.729z"/>
		<path style="fill:#FFFFFF;" d="M317.936,260.016c-0.16-1.44-1.248-2.304-3.392-2.304c-1.536,0-3.04,0.576-4.832,1.472
			l-1.664-3.072c2.177-1.248,4.704-2.144,7.424-2.144c4.448,0,7.168,2.304,7.168,7.167v9.087h-3.84l-0.353-1.792h-0.128
			c-1.6,1.216-3.584,2.176-5.631,2.176c-3.2,0-5.216-2.112-5.216-4.799C307.473,262.256,310.416,260.464,317.936,260.016z
			 M314.191,266.959c1.408,0,2.624-0.64,3.744-1.504v-2.624c-4.672,0.256-5.951,1.248-5.951,2.624
			C311.984,266.479,312.848,266.959,314.191,266.959z"/>
		<path style="fill:#FFFFFF;" d="M336.047,253.968c2.496,0,4.607,0.896,5.951,2.144l-2.176,2.912
			c-1.216-0.864-2.336-1.248-3.52-1.248c-2.72,0-4.607,1.76-4.607,4.512c0,2.752,1.824,4.512,4.447,4.512
			c1.664,0,3.072-0.704,4.192-1.504l1.92,2.976c-1.92,1.6-4.384,2.335-6.56,2.335c-4.992,0-8.832-3.04-8.832-8.319
			C326.863,257.008,331.151,253.968,336.047,253.968z"/>
		<path style="fill:#FFFFFF;" d="M353.935,253.968c4.896,0,7.455,3.296,7.455,7.616c0,0.832-0.128,1.6-0.192,1.983h-10.687
			c0.447,2.4,2.271,3.456,4.607,3.456c1.439,0,2.688-0.384,4.096-1.088l1.536,2.816c-1.792,1.152-4.16,1.855-6.271,1.855
			c-4.928,0-8.8-3.072-8.8-8.319C345.679,257.104,349.711,253.968,353.935,253.968z M357.134,260.656
			c0-1.824-0.96-3.104-3.104-3.104c-1.696,0-3.2,0.992-3.584,3.104H357.134z"/>
		<path style="fill:#FFFFFF;" d="M394.028,248.977c2.656,0,4.768,1.28,6.176,2.656l-2.592,2.912
			c-0.992-0.896-2.08-1.504-3.584-1.504c-2.943,0-5.119,2.528-5.119,6.719c0,4.288,2.176,6.784,5.312,6.784
			c1.504,0,2.688-0.736,3.712-1.856l2.592,2.848c-1.729,2.016-3.968,3.072-6.592,3.072c-5.376,0-9.855-3.68-9.855-10.687
			C384.077,253.008,388.461,248.977,394.028,248.977z"/>
		<path style="fill:#FFFFFF;" d="M411.116,253.968c4.191,0,8.095,3.04,8.095,8.319c0,5.28-3.903,8.319-8.095,8.319
			c-4.192,0-8.096-3.04-8.096-8.319C403.021,257.008,406.924,253.968,411.116,253.968z M411.116,266.799
			c2.176,0,3.264-1.76,3.264-4.512c0-2.751-1.088-4.512-3.264-4.512s-3.264,1.76-3.264,4.512
			C407.853,265.04,408.94,266.799,411.116,266.799z"/>
		<path style="fill:#FFFFFF;" d="M421.868,254.353h3.52l0.352,1.983h0.128c0.608-1.312,1.568-2.368,3.392-2.368
			c1.408,0,2.4,0.896,2.784,2.592c0.576-1.44,1.696-2.592,3.487-2.592c2.208,0,3.521,1.952,3.521,5.12v11.135h-4.416V259.44
			c0-0.992-0.256-1.472-0.896-1.472c-0.608,0-1.057,0.512-1.473,1.536v10.719h-3.615V259.44c0-0.992-0.32-1.472-0.928-1.472
			c-0.608,0-0.992,0.512-1.44,1.536v10.719h-4.415V254.353z"/>
		<path style="fill:#FFFFFF;" d="M446.923,271.471v4.64h-4.704v-21.758h3.84l0.352,1.6h0.097c1.279-1.152,3.039-1.984,4.735-1.984
			c3.968,0,6.367,3.168,6.367,8.063c0,5.439-3.327,8.575-6.879,8.575c-1.408,0-2.816-0.608-3.968-1.728L446.923,271.471z
			 M449.643,266.768c1.76,0,3.136-1.408,3.136-4.672c0-2.848-0.928-4.288-2.912-4.288c-1.023,0-1.952,0.448-2.943,1.472v6.432
			C447.818,266.479,448.843,266.768,449.643,266.768z"/>
		<path style="fill:#FFFFFF;" d="M471.529,260.016c-0.16-1.44-1.248-2.304-3.392-2.304c-1.536,0-3.04,0.576-4.832,1.472
			l-1.664-3.072c2.177-1.248,4.704-2.144,7.424-2.144c4.448,0,7.168,2.304,7.168,7.167v9.087h-3.84l-0.353-1.792h-0.128
			c-1.6,1.216-3.584,2.176-5.631,2.176c-3.2,0-5.216-2.112-5.216-4.799C461.066,262.256,464.01,260.464,471.529,260.016z
			 M467.785,266.959c1.408,0,2.624-0.64,3.744-1.504v-2.624c-4.672,0.256-5.951,1.248-5.951,2.624
			C465.578,266.479,466.441,266.959,467.785,266.959z"/>
		<path style="fill:#FFFFFF;" d="M482.025,254.353h3.84l0.384,3.456h0.096c1.568-2.592,3.904-3.84,6.432-3.84
			c1.408,0,2.144,0.224,3.072,0.64l-0.96,3.936c-0.992-0.288-1.632-0.448-2.816-0.448c-1.951,0-3.999,1.024-5.344,3.872v8.255
			h-4.703V254.353z"/>
		<path style="fill:#FFFFFF;" d="M509.928,260.016c-0.16-1.44-1.248-2.304-3.392-2.304c-1.536,0-3.04,0.576-4.832,1.472
			l-1.664-3.072c2.177-1.248,4.704-2.144,7.424-2.144c4.448,0,7.168,2.304,7.168,7.167v9.087h-3.84l-0.353-1.792h-0.128
			c-1.6,1.216-3.584,2.176-5.631,2.176c-3.2,0-5.216-2.112-5.216-4.799C499.465,262.256,502.408,260.464,509.928,260.016z
			 M506.184,266.959c1.408,0,2.624-0.64,3.744-1.504v-2.624c-4.672,0.256-5.951,1.248-5.951,2.624
			C503.977,266.479,504.84,266.959,506.184,266.959z"/>
		<path style="fill:#FFFFFF;" d="M522.279,258.032h-3.968v-3.488l4.192-0.192l0.607-4.224h3.872v4.224h6.688v3.68h-6.688v5.567
			c0,2.4,1.023,3.328,3.327,3.328c1.216,0,2.272-0.256,3.2-0.576l0.832,3.392c-1.408,0.416-3.168,0.864-5.216,0.864
			c-5.056,0-6.848-2.815-6.848-6.975V258.032z"/>
		<path style="fill:#FFFFFF;" d="M545.511,253.968c4.191,0,8.095,3.04,8.095,8.319c0,5.28-3.903,8.319-8.095,8.319
			c-4.192,0-8.096-3.04-8.096-8.319C537.415,257.008,541.318,253.968,545.511,253.968z M545.511,266.799
			c2.176,0,3.264-1.76,3.264-4.512c0-2.751-1.088-4.512-3.264-4.512s-3.264,1.76-3.264,4.512
			C542.247,265.04,543.335,266.799,545.511,266.799z"/>
		<path style="fill:#FFFFFF;" d="M558.822,254.353h3.84l0.384,3.456h0.096c1.568-2.592,3.904-3.84,6.432-3.84
			c1.408,0,2.144,0.224,3.072,0.64l-0.96,3.936c-0.992-0.288-1.632-0.448-2.816-0.448c-1.951,0-3.999,1.024-5.344,3.872v8.255
			h-4.703V254.353z"/>
		<path style="fill:#FFFFFF;" d="M578.021,258.608l12.351-8v4.256l-8.479,5.312v0.128l8.479,5.312v4.256l-12.351-8V258.608z"/>
		<path style="fill:#FFFFFF;" d="M600.74,253.328h-6.239v-3.967h17.215v3.967h-6.24v16.895h-4.735V253.328z"/>
		<path style="fill:#FFFFFF;" d="M628.195,261.872l-12.352,8v-4.256l8.479-5.312v-0.128l-8.479-5.312v-4.256l12.352,8V261.872z"/>
		<path style="fill:#FFFFFF;" d="M658.882,265.071c0-1.12-0.928-2.304-4.384-2.368v-2.752c3.456-0.064,4.384-1.248,4.384-2.368
			c0-1.984-0.32-3.231-0.32-5.472c0-3.456,1.856-4.543,5.952-4.543h2.464v2.496h-1.313c-2.655,0-3.264,0.448-3.264,2.24
			c0,1.696,0.16,3.328,0.16,5.215c0,2.432-0.928,3.36-3.199,3.744v0.128c2.271,0.384,3.199,1.312,3.199,3.744
			c0,1.952-0.16,3.487-0.16,5.215c0,1.792,0.608,2.24,3.264,2.24h1.313v2.496h-2.464c-4.096,0-5.952-1.088-5.952-4.544
			C658.562,268.271,658.882,267.087,658.882,265.071z"/>
		<path style="fill:#FFFFFF;" d="M269.425,285.793h4.704v5.503L274,293.792c1.248-1.152,2.88-1.824,4.416-1.824
			c3.967,0,6.399,3.168,6.399,8.031c0,5.472-3.328,8.607-6.879,8.607c-1.472,0-3.008-0.736-4.32-2.112h-0.128l-0.384,1.728h-3.68
			V285.793z M276.88,304.768c1.728,0,3.104-1.408,3.104-4.672c0-2.848-0.928-4.288-2.912-4.288c-1.024,0-1.952,0.448-2.944,1.472
			v6.432C275.024,304.479,276.048,304.768,276.88,304.768z"/>
		<path style="fill:#FFFFFF;" d="M295.92,291.968c4.191,0,8.096,3.04,8.096,8.319c0,5.28-3.904,8.319-8.096,8.319
			s-8.095-3.04-8.095-8.319C287.825,295.008,291.729,291.968,295.92,291.968z M295.92,304.799c2.176,0,3.264-1.76,3.264-4.512
			c0-2.751-1.088-4.512-3.264-4.512s-3.264,1.76-3.264,4.512C292.656,303.04,293.744,304.799,295.92,304.799z"/>
		<path style="fill:#FFFFFF;" d="M315.12,291.968c4.191,0,8.095,3.04,8.095,8.319c0,5.28-3.903,8.319-8.095,8.319
			c-4.192,0-8.096-3.04-8.096-8.319C307.024,295.008,310.928,291.968,315.12,291.968z M315.12,304.799
			c2.176,0,3.264-1.76,3.264-4.512c0-2.751-1.088-4.512-3.264-4.512s-3.264,1.76-3.264,4.512
			C311.856,303.04,312.944,304.799,315.12,304.799z"/>
		<path style="fill:#FFFFFF;" d="M326.703,285.793h9.312v16.415c0,1.952,1.248,2.592,2.561,2.592c0.735,0,1.504-0.128,2.495-0.512
			l1.056,3.456c-1.663,0.512-2.783,0.864-4.768,0.864c-3.999,0-6.047-2.56-6.047-6.591v-12.511h-4.608V285.793z"/>
		<path style="fill:#FFFFFF;" d="M353.935,291.968c4.896,0,7.455,3.296,7.455,7.616c0,0.832-0.128,1.6-0.192,1.983h-10.687
			c0.447,2.4,2.271,3.456,4.607,3.456c1.439,0,2.688-0.384,4.096-1.088l1.536,2.816c-1.792,1.152-4.16,1.855-6.271,1.855
			c-4.928,0-8.8-3.072-8.8-8.319C345.679,295.104,349.711,291.968,353.935,291.968z M357.134,298.656
			c0-1.824-0.96-3.104-3.104-3.104c-1.696,0-3.2,0.992-3.584,3.104H357.134z"/>
		<path style="fill:#FFFFFF;" d="M375.533,298.016c-0.16-1.44-1.248-2.304-3.392-2.304c-1.536,0-3.04,0.576-4.832,1.472
			l-1.664-3.072c2.177-1.248,4.704-2.144,7.424-2.144c4.448,0,7.168,2.304,7.168,7.167v9.087h-3.84l-0.353-1.792h-0.128
			c-1.6,1.216-3.584,2.176-5.631,2.176c-3.2,0-5.216-2.112-5.216-4.799C365.07,300.256,368.014,298.464,375.533,298.016z
			 M371.789,304.959c1.408,0,2.624-0.64,3.744-1.504v-2.624c-4.672,0.256-5.951,1.248-5.951,2.624
			C369.582,304.479,370.445,304.959,371.789,304.959z"/>
		<path style="fill:#FFFFFF;" d="M384.621,292.353h3.84l0.352,2.112h0.128c1.376-1.344,3.104-2.496,5.472-2.496
			c3.584,0,5.184,2.464,5.184,6.463v9.792h-4.703v-9.183c0-2.112-0.608-3.072-2.336-3.072c-1.28,0-2.112,0.576-3.231,1.664v10.591
			h-4.704V292.353z"/>
		<path style="fill:#FFFFFF;" d="M430.731,291.968c4.896,0,7.455,3.296,7.455,7.616c0,0.832-0.128,1.6-0.192,1.983h-10.687
			c0.447,2.4,2.271,3.456,4.607,3.456c1.439,0,2.688-0.384,4.096-1.088l1.536,2.816c-1.792,1.152-4.16,1.855-6.271,1.855
			c-4.928,0-8.8-3.072-8.8-8.319C422.476,295.104,426.508,291.968,430.731,291.968z M433.931,298.656
			c0-1.824-0.96-3.104-3.104-3.104c-1.696,0-3.2,0.992-3.584,3.104H433.931z"/>
		<path style="fill:#FFFFFF;" d="M448.202,291.968c1.792,0,3.104,0.608,4.416,2.016h0.128l0.384-1.632h3.68v21.758h-4.703v-4.896
			l0.191-2.432c-1.119,1.056-2.688,1.824-4.191,1.824c-4.031,0-6.688-3.136-6.688-8.319S444.747,291.968,448.202,291.968z
			 M449.322,304.768c1.056,0,1.952-0.416,2.784-1.472v-6.432c-0.864-0.768-1.729-1.056-2.656-1.056
			c-1.728,0-3.199,1.408-3.199,4.416C446.251,303.359,447.37,304.768,449.322,304.768z"/>
		<path style="fill:#FFFFFF;" d="M475.913,308.223h-3.84l-0.352-2.272h-0.128c-1.408,1.6-3.072,2.656-5.344,2.656
			c-3.616,0-5.152-2.464-5.152-6.463v-9.791h4.704v9.183c0,2.112,0.544,3.072,2.304,3.072c1.184,0,2.016-0.416,3.104-1.824v-10.431
			h4.704V308.223z"/>
		<path style="fill:#FFFFFF;" d="M490.729,298.016c-0.16-1.44-1.248-2.304-3.392-2.304c-1.536,0-3.04,0.576-4.832,1.472
			l-1.664-3.072c2.177-1.248,4.704-2.144,7.424-2.144c4.448,0,7.168,2.304,7.168,7.167v9.087h-3.84l-0.353-1.792h-0.128
			c-1.6,1.216-3.584,2.176-5.631,2.176c-3.2,0-5.216-2.112-5.216-4.799C480.266,300.256,483.209,298.464,490.729,298.016z
			 M486.984,304.959c1.408,0,2.624-0.64,3.744-1.504v-2.624c-4.672,0.256-5.951,1.248-5.951,2.624
			C484.777,304.479,485.641,304.959,486.984,304.959z"/>
		<path style="fill:#FFFFFF;" d="M499.496,285.793h9.312v16.415c0,1.952,1.248,2.592,2.561,2.592c0.735,0,1.504-0.128,2.495-0.512
			l1.056,3.456c-1.663,0.512-2.783,0.864-4.768,0.864c-3.999,0-6.047-2.56-6.047-6.591v-12.511h-4.608V285.793z"/>
		<path style="fill:#FFFFFF;" d="M520.52,303.231c1.824,1.152,3.647,1.888,5.76,1.888c2.144,0,3.04-0.512,3.04-1.344
			c0-0.96-1.696-1.504-4.256-2.208c-2.784-0.768-5.664-2.112-5.664-4.64c0-2.943,2.784-4.959,7.328-4.959
			c2.815,0,5.184,1.12,6.847,2.176l-2.111,2.816c-1.44-0.864-2.976-1.504-4.64-1.504c-1.984,0-2.752,0.448-2.752,1.248
			c0,0.96,1.824,1.44,4.063,2.016c3.136,0.832,5.855,2.016,5.855,4.768c0,2.88-2.72,5.12-7.807,5.12
			c-2.849,0-5.76-1.088-7.775-2.432L520.52,303.231z"/>
		<path style="fill:#FFFFFF;" d="M541.703,299.328c0-6.016,2.592-10.943,6.751-14.623l2.624,2.08
			c-3.808,3.712-5.439,7.487-5.439,12.543s1.632,8.832,5.439,12.543l-2.624,2.08C544.295,310.271,541.703,305.343,541.703,299.328z"
			/>
		<path style="fill:#FFFFFF;" d="M556.326,297.696c0-6.815,3.424-10.719,8.384-10.719c4.959,0,8.383,3.936,8.383,10.719
			c0,6.815-3.424,10.911-8.383,10.911C559.75,308.607,556.326,304.511,556.326,297.696z M568.262,297.696
			c0-4.16-1.376-6.655-3.552-6.655s-3.552,2.496-3.552,6.655c0,4.192,1.376,6.848,3.552,6.848S568.262,301.888,568.262,297.696z"/>
		<path style="fill:#FFFFFF;" d="M576.613,285.793h4.704v5.503l-0.128,2.496c1.247-1.152,2.88-1.824,4.415-1.824
			c3.968,0,6.399,3.168,6.399,8.031c0,5.472-3.327,8.607-6.879,8.607c-1.472,0-3.008-0.736-4.32-2.112h-0.128l-0.384,1.728h-3.68
			V285.793z M584.069,304.768c1.728,0,3.104-1.408,3.104-4.672c0-2.848-0.928-4.288-2.912-4.288c-1.023,0-1.952,0.448-2.943,1.472
			v6.432C582.213,304.479,583.237,304.768,584.069,304.768z"/>
		<path style="fill:#FFFFFF;" d="M596.036,292.353h11.071v14.911c0,3.872-1.6,7.231-7.359,7.231c-1.951,0-3.52-0.448-4.896-1.088
			l1.376-3.36c1.28,0.576,2.304,0.768,3.231,0.768c2.272,0,2.944-1.056,2.944-3.36v-11.423h-6.368V292.353z M601.412,287.168
			c0-1.728,1.312-2.943,3.136-2.943s3.136,1.216,3.136,2.943c0,1.728-1.312,2.848-3.136,2.848S601.412,288.896,601.412,287.168z"/>
		<path style="fill:#FFFFFF;" d="M622.724,291.968c4.896,0,7.455,3.296,7.455,7.616c0,0.832-0.128,1.6-0.192,1.983H619.3
			c0.447,2.4,2.271,3.456,4.607,3.456c1.439,0,2.688-0.384,4.096-1.088l1.536,2.816c-1.792,1.152-4.16,1.855-6.271,1.855
			c-4.928,0-8.8-3.072-8.8-8.319C614.468,295.104,618.5,291.968,622.724,291.968z M625.923,298.656c0-1.824-0.96-3.104-3.104-3.104
			c-1.696,0-3.2,0.992-3.584,3.104H625.923z"/>
		<path style="fill:#FFFFFF;" d="M643.234,291.968c2.496,0,4.607,0.896,5.951,2.144l-2.176,2.912
			c-1.216-0.864-2.336-1.248-3.52-1.248c-2.72,0-4.607,1.76-4.607,4.512c0,2.752,1.824,4.512,4.447,4.512
			c1.664,0,3.072-0.704,4.192-1.504l1.92,2.976c-1.92,1.6-4.384,2.335-6.56,2.335c-4.992,0-8.832-3.04-8.832-8.319
			C634.051,295.008,638.339,291.968,643.234,291.968z"/>
		<path style="fill:#FFFFFF;" d="M656.674,296.032h-3.968v-3.488l4.192-0.192l0.607-4.224h3.872v4.224h6.688v3.68h-6.688v5.567
			c0,2.4,1.023,3.328,3.327,3.328c1.216,0,2.272-0.256,3.2-0.576l0.832,3.392c-1.408,0.416-3.168,0.864-5.216,0.864
			c-5.056,0-6.848-2.815-6.848-6.975V296.032z"/>
		<path style="fill:#FFFFFF;" d="M699.104,291.968c4.191,0,8.095,3.04,8.095,8.319c0,5.28-3.903,8.319-8.095,8.319
			c-4.192,0-8.096-3.04-8.096-8.319C691.009,295.008,694.912,291.968,699.104,291.968z M699.104,304.799
			c2.176,0,3.264-1.76,3.264-4.512c0-2.751-1.088-4.512-3.264-4.512s-3.264,1.76-3.264,4.512
			C695.841,303.04,696.929,304.799,699.104,304.799z"/>
		<path style="fill:#FFFFFF;" d="M711.008,285.793h4.704v5.503l-0.128,2.496c1.247-1.152,2.88-1.824,4.415-1.824
			c3.968,0,6.399,3.168,6.399,8.031c0,5.472-3.327,8.607-6.879,8.607c-1.472,0-3.008-0.736-4.32-2.112h-0.128l-0.384,1.728h-3.68
			V285.793z M718.464,304.768c1.728,0,3.104-1.408,3.104-4.672c0-2.848-0.928-4.288-2.912-4.288c-1.023,0-1.952,0.448-2.943,1.472
			v6.432C716.607,304.479,717.632,304.768,718.464,304.768z"/>
		<path style="fill:#FFFFFF;" d="M730.431,292.353h11.071v14.911c0,3.872-1.6,7.231-7.359,7.231c-1.951,0-3.52-0.448-4.896-1.088
			l1.376-3.36c1.28,0.576,2.304,0.768,3.231,0.768c2.272,0,2.944-1.056,2.944-3.36v-11.423h-6.368V292.353z M735.807,287.168
			c0-1.728,1.312-2.943,3.136-2.943s3.136,1.216,3.136,2.943c0,1.728-1.312,2.848-3.136,2.848S735.807,288.896,735.807,287.168z"/>
		<path style="fill:#FFFFFF;" d="M751.134,311.871c3.809-3.712,5.44-7.488,5.44-12.543s-1.632-8.831-5.44-12.543l2.624-2.08
			c4.16,3.68,6.752,8.607,6.752,14.623s-2.592,10.943-6.752,14.623L751.134,311.871z"/>
		<path style="fill:#FFFFFF;" d="M772.125,312.415c2.784-0.96,4.16-2.528,4.16-4.544c-0.128,0.032-0.224,0.032-0.353,0.032
			c-1.791,0-3.455-1.152-3.455-3.264c0-1.984,1.6-3.296,3.584-3.296c2.623,0,3.967,2.048,3.967,5.503
			c0,4.064-2.304,6.976-6.719,8.319L772.125,312.415z M772.189,294.496c0-2.08,1.504-3.744,3.712-3.744s3.711,1.664,3.711,3.744
			c0,2.112-1.503,3.776-3.711,3.776S772.189,296.608,772.189,294.496z"/>
		<path style="fill:#FFFFFF;" d="M269.649,330.353h11.071v15.871h-4.704v-12.191h-6.368V330.353z M275.024,325.168
			c0-1.728,1.312-2.943,3.136-2.943c1.824,0,3.136,1.216,3.136,2.943c0,1.728-1.312,2.848-3.136,2.848
			C276.336,328.017,275.024,326.896,275.024,325.168z"/>
		<path style="fill:#FFFFFF;" d="M288.625,330.353h3.84l0.352,2.112h0.128c1.376-1.344,3.104-2.496,5.472-2.496
			c3.584,0,5.184,2.464,5.184,6.463v9.792h-4.704v-9.183c0-2.112-0.608-3.072-2.336-3.072c-1.28,0-2.112,0.576-3.232,1.664v10.591
			h-4.704V330.353z"/>
		<path style="fill:#FFFFFF;" d="M311.088,334.032h-3.968v-3.488l4.192-0.192l0.607-4.224h3.872v4.224h6.688v3.68h-6.688v5.567
			c0,2.4,1.023,3.328,3.327,3.328c1.216,0,2.272-0.256,3.2-0.576l0.832,3.392c-1.408,0.416-3.168,0.864-5.216,0.864
			c-5.056,0-6.848-2.815-6.848-6.975V334.032z"/>
		<path style="fill:#FFFFFF;" d="M355.246,329.968c2.496,0,4.607,0.896,5.951,2.144l-2.176,2.912
			c-1.216-0.864-2.336-1.248-3.52-1.248c-2.72,0-4.607,1.76-4.607,4.512c0,2.752,1.824,4.512,4.447,4.512
			c1.664,0,3.072-0.704,4.192-1.504l1.92,2.976c-1.92,1.6-4.384,2.335-6.56,2.335c-4.992,0-8.832-3.04-8.832-8.319
			C346.063,333.008,350.351,329.968,355.246,329.968z"/>
		<path style="fill:#FFFFFF;" d="M372.718,329.968c4.191,0,8.095,3.04,8.095,8.319c0,5.28-3.903,8.319-8.095,8.319
			c-4.192,0-8.096-3.04-8.096-8.319C364.622,333.008,368.525,329.968,372.718,329.968z M372.718,342.799
			c2.176,0,3.264-1.76,3.264-4.512c0-2.751-1.088-4.512-3.264-4.512s-3.264,1.76-3.264,4.512
			C369.454,341.04,370.542,342.799,372.718,342.799z"/>
		<path style="fill:#FFFFFF;" d="M383.47,330.353h3.52l0.352,1.983h0.128c0.608-1.312,1.568-2.368,3.392-2.368
			c1.408,0,2.4,0.896,2.784,2.592c0.576-1.44,1.696-2.592,3.487-2.592c2.208,0,3.521,1.952,3.521,5.12v11.135h-4.416V335.44
			c0-0.992-0.256-1.472-0.896-1.472c-0.608,0-1.057,0.512-1.473,1.536v10.719h-3.615V335.44c0-0.992-0.32-1.472-0.928-1.472
			c-0.608,0-0.992,0.512-1.44,1.536v10.719h-4.415V330.353z"/>
		<path style="fill:#FFFFFF;" d="M408.524,347.471v4.64h-4.704v-21.758h3.84l0.352,1.6h0.097c1.279-1.152,3.039-1.984,4.735-1.984
			c3.968,0,6.367,3.168,6.367,8.063c0,5.439-3.327,8.575-6.879,8.575c-1.408,0-2.816-0.608-3.968-1.728L408.524,347.471z
			 M411.244,342.768c1.76,0,3.136-1.408,3.136-4.672c0-2.848-0.928-4.288-2.912-4.288c-1.023,0-1.952,0.448-2.943,1.472v6.432
			C409.42,342.479,410.444,342.768,411.244,342.768z"/>
		<path style="fill:#FFFFFF;" d="M433.131,336.016c-0.16-1.44-1.248-2.304-3.392-2.304c-1.536,0-3.04,0.576-4.832,1.472
			l-1.664-3.072c2.177-1.248,4.704-2.144,7.424-2.144c4.448,0,7.168,2.304,7.168,7.167v9.087h-3.84l-0.353-1.792h-0.128
			c-1.6,1.216-3.584,2.176-5.631,2.176c-3.2,0-5.216-2.112-5.216-4.799C422.668,338.256,425.611,336.464,433.131,336.016z
			 M429.387,342.959c1.408,0,2.624-0.64,3.744-1.504v-2.624c-4.672,0.256-5.951,1.248-5.951,2.624
			C427.18,342.479,428.043,342.959,429.387,342.959z"/>
		<path style="fill:#FFFFFF;" d="M443.627,330.353h3.84l0.384,3.456h0.096c1.568-2.592,3.904-3.84,6.432-3.84
			c1.408,0,2.144,0.224,3.072,0.64l-0.96,3.936c-0.992-0.288-1.632-0.448-2.816-0.448c-1.951,0-3.999,1.024-5.344,3.872v8.255
			h-4.703V330.353z"/>
		<path style="fill:#FFFFFF;" d="M469.13,329.968c4.896,0,7.455,3.296,7.455,7.616c0,0.832-0.128,1.6-0.192,1.983h-10.687
			c0.447,2.4,2.271,3.456,4.607,3.456c1.439,0,2.688-0.384,4.096-1.088l1.536,2.816c-1.792,1.152-4.16,1.855-6.271,1.855
			c-4.928,0-8.8-3.072-8.8-8.319C460.874,333.104,464.906,329.968,469.13,329.968z M472.329,336.656c0-1.824-0.96-3.104-3.104-3.104
			c-1.696,0-3.2,0.992-3.584,3.104H472.329z"/>
		<path style="fill:#FFFFFF;" d="M484.105,337.328c0-6.016,2.592-10.943,6.751-14.623l2.624,2.08
			c-3.808,3.712-5.439,7.487-5.439,12.543s1.632,8.832,5.439,12.543l-2.624,2.08C486.697,348.271,484.105,343.343,484.105,337.328z"
			/>
		<path style="fill:#FFFFFF;" d="M504.744,329.328h-6.239v-3.967h17.215v3.967h-6.24v16.895h-4.735V329.328z"/>
		<path style="fill:#FFFFFF;" d="M545.511,329.968c4.191,0,8.095,3.04,8.095,8.319c0,5.28-3.903,8.319-8.095,8.319
			c-4.192,0-8.096-3.04-8.096-8.319C537.415,333.008,541.318,329.968,545.511,329.968z M545.511,342.799
			c2.176,0,3.264-1.76,3.264-4.512c0-2.751-1.088-4.512-3.264-4.512s-3.264,1.76-3.264,4.512
			C542.247,341.04,543.335,342.799,545.511,342.799z"/>
		<path style="fill:#FFFFFF;" d="M572.293,342.416v3.808h-14.559v-3.808h5.247v-11.743h-4.191v-2.912
			c2.368-0.416,3.936-0.992,5.439-1.855h3.456v16.511H572.293z"/>
		<path style="fill:#FFFFFF;" d="M580.133,350.415c2.784-0.96,4.16-2.528,4.16-4.544c-0.128,0.032-0.224,0.032-0.353,0.032
			c-1.791,0-3.455-1.152-3.455-3.264c0-1.984,1.6-3.296,3.584-3.296c2.623,0,3.967,2.048,3.967,5.503
			c0,4.064-2.304,6.976-6.719,8.319L580.133,350.415z"/>
		<path style="fill:#FFFFFF;" d="M619.939,329.328H613.7v-3.967h17.215v3.967h-6.24v16.895h-4.735V329.328z"/>
		<path style="fill:#FFFFFF;" d="M660.706,329.968c4.191,0,8.095,3.04,8.095,8.319c0,5.28-3.903,8.319-8.095,8.319
			c-4.192,0-8.096-3.04-8.096-8.319C652.61,333.008,656.514,329.968,660.706,329.968z M660.706,342.799
			c2.176,0,3.264-1.76,3.264-4.512c0-2.751-1.088-4.512-3.264-4.512s-3.264,1.76-3.264,4.512
			C657.442,341.04,658.53,342.799,660.706,342.799z"/>
		<path style="fill:#FFFFFF;" d="M672.161,343.535c5.824-4.896,9.728-8.351,9.728-11.263c0-1.984-1.216-3.072-3.327-3.072
			c-1.633,0-2.944,0.992-4.096,2.08l-2.528-2.528c2.112-2.144,4.128-3.232,7.264-3.232c4.256,0,7.167,2.56,7.167,6.464
			c0,3.423-3.52,7.071-7.455,10.527c1.152-0.128,2.624-0.256,3.68-0.256h4.832v3.968h-15.264V343.535z"/>
		<path style="fill:#FFFFFF;" d="M693.536,349.871c3.809-3.712,5.44-7.488,5.44-12.543s-1.632-8.831-5.44-12.543l2.624-2.08
			c4.16,3.68,6.752,8.607,6.752,14.623s-2.592,10.943-6.752,14.623L693.536,349.871z"/>
		<path style="fill:#FFFFFF;" d="M714.527,350.415c2.784-0.96,4.16-2.528,4.16-4.544c-0.128,0.032-0.224,0.032-0.353,0.032
			c-1.791,0-3.455-1.152-3.455-3.264c0-1.984,1.6-3.296,3.584-3.296c2.623,0,3.967,2.048,3.967,5.503
			c0,4.064-2.304,6.976-6.719,8.319L714.527,350.415z M714.592,332.496c0-2.08,1.504-3.744,3.712-3.744s3.711,1.664,3.711,3.744
			c0,2.112-1.503,3.776-3.711,3.776S714.592,334.608,714.592,332.496z"/>
		<path style="fill:#FFFFFF;" d="M194.994,386.591c2.624,0,3.231-0.447,3.231-2.24c0-1.728-0.128-3.264-0.128-5.215
			c0-2.432,0.896-3.36,3.2-3.744v-0.128c-2.304-0.384-3.2-1.312-3.2-3.744c0-1.888,0.128-3.52,0.128-5.215
			c0-1.792-0.608-2.24-3.231-2.24h-1.312v-2.496h2.464c4.096,0,5.952,1.088,5.952,4.543c0,2.24-0.352,3.488-0.352,5.472
			c0,1.12,0.928,2.304,4.416,2.368v2.752c-3.488,0.064-4.416,1.248-4.416,2.368c0,2.016,0.352,3.2,0.352,5.472
			c0,3.456-1.856,4.544-5.952,4.544h-2.464v-2.496H194.994z"/>
	</g>
	<g>
		<path style="fill:#FFFFFF;" d="M152.621,233.895c-6.144-1.792-11.263-3.647-17.022-6.08c-0.96-0.384-1.984-0.576-3.008-0.64
			c-9.728-0.64-18.815-7.808-18.815-21.887c0-12.927,8.191-22.654,21.055-22.654c13.183,0,20.415,9.983,20.415,21.758
			c0,9.792-4.544,16.703-10.239,19.263v0.256c3.328,0.959,7.04,1.728,10.431,2.432L152.621,233.895z M144.941,204.777
			c0-7.872-3.712-14.399-10.368-14.399c-6.655,0-10.495,6.527-10.495,14.591c-0.064,8.191,3.904,14.463,10.431,14.463
			C141.102,219.432,144.941,213.225,144.941,204.777z"/>
		<path style="fill:#FFFFFF;" d="M190.829,216.424c0,4.096,0.128,7.423,0.256,10.047h-8.447l-0.448-4.416h-0.192
			c-1.216,1.92-4.16,5.12-9.792,5.12c-6.335,0-11.007-3.968-11.007-13.631v-18.367h9.791v16.831c0,4.543,1.472,7.295,4.864,7.295
			c2.688,0,4.224-1.856,4.864-3.392c0.256-0.576,0.32-1.344,0.32-2.112v-18.623h9.792V216.424z"/>
		<path style="fill:#FFFFFF;" d="M208.686,186.475c0,2.688-2.048,4.864-5.248,4.864c-3.071,0-5.119-2.176-5.055-4.864
			c-0.064-2.816,1.984-4.928,5.12-4.928S208.622,183.659,208.686,186.475z M198.639,226.472v-31.294h9.727v31.294H198.639z"/>
		<path style="fill:#FFFFFF;" d="M213.678,220.904l9.855-12.352c1.792-2.112,3.2-3.647,4.992-5.567v-0.128h-13.759v-7.68h25.598
			v5.824l-9.407,11.839c-1.728,2.048-3.328,4.032-5.12,5.759v0.128h15.039v7.744h-27.198V220.904z"/>
	</g>
</g>
<g id="jfx:p04">
	<g>
		<g>
			<path style="fill:#FF0000;" d="M130.045,314.917c-18.945,1.23-29.71-18.173-28.761-35.018
				c1.005-17.837,19.277-25.436,35.104-24.769c8.445,0.357,15.018,3.766,19.712,10.77c6.307,9.411,7.898,21.385,3.918,31.979
				c-2.142,5.702-6.428,10.306-9.994,15.144c-2.602,3.528-5.095,7.137-7.813,10.577c-5.68,7.184-13.005,11.339-21.406,14.735
				c-0.52,0.21-4.349,1.817-2.835,2.912c1.531,1.107,4.726,0.164,6.247-0.451c8.674-3.507,17.167-7.525,23.771-14.317
				c6.512-6.697,12.306-15.247,17.54-22.928c10.968-16.098,7.313-43.858-12.961-50.831c-15.954-5.487-38.73,0.061-51.531,10.585
				c-12.983,10.676-11.531,30.833-2.545,43.638c6.392,9.109,16.592,12.803,27.436,12.099c2.119-0.138,4.891-0.797,6.45-2.356
				C133.959,315.105,130.998,314.855,130.045,314.917L130.045,314.917z"/>
		</g>
	</g>
</g>
<g id="jfx:p05">
	<g>
		<path style="fill:#FFFFFF;" d="M192.85,436.354h11.071v15.871h-4.704v-12.191h-6.368V436.354z M198.226,431.17
			c0-1.728,1.312-2.943,3.136-2.943c1.824,0,3.136,1.216,3.136,2.943s-1.312,2.848-3.136,2.848
			C199.538,434.018,198.226,432.897,198.226,431.17z"/>
		<path style="fill:#FFFFFF;" d="M211.826,436.354h3.84l0.352,2.112h0.128c1.376-1.345,3.104-2.496,5.472-2.496
			c3.583,0,5.184,2.464,5.184,6.463v9.792h-4.704v-9.184c0-2.112-0.608-3.071-2.336-3.071c-1.28,0-2.112,0.575-3.232,1.663v10.592
			h-4.704V436.354z"/>
		<path style="fill:#FFFFFF;" d="M234.289,440.033h-3.967v-3.487l4.191-0.192l0.608-4.224h3.872v4.224h6.688v3.68h-6.688v5.567
			c0,2.4,1.024,3.328,3.328,3.328c1.216,0,2.272-0.256,3.2-0.576l0.832,3.392c-1.408,0.416-3.168,0.864-5.216,0.864
			c-5.056,0-6.848-2.815-6.848-6.976V440.033z"/>
		<path style="fill:#FFFFFF;" d="M257.937,435.97c4.896,0,7.456,3.296,7.456,7.615c0,0.832-0.128,1.6-0.192,1.983h-10.688
			c0.448,2.4,2.272,3.456,4.608,3.456c1.44,0,2.688-0.384,4.096-1.088l1.536,2.816c-1.792,1.151-4.16,1.855-6.271,1.855
			c-4.928,0-8.799-3.072-8.799-8.319C249.681,439.105,253.713,435.97,257.937,435.97z M261.136,442.657
			c0-1.824-0.96-3.104-3.104-3.104c-1.696,0-3.2,0.991-3.584,3.104H261.136z"/>
		<path style="fill:#FFFFFF;" d="M270.833,436.354h3.839l0.384,3.456h0.096c1.568-2.592,3.904-3.84,6.432-3.84
			c1.408,0,2.144,0.224,3.072,0.64l-0.96,3.936c-0.992-0.288-1.632-0.447-2.816-0.447c-1.952,0-4,1.023-5.343,3.871v8.256h-4.704
			V436.354z"/>
		<path style="fill:#FFFFFF;" d="M304.144,433.729c-0.992-0.384-2.112-0.607-3.328-0.607c-2.016,0-2.976,0.863-2.976,2.783v0.448
			h5.472v3.68h-5.472v12.191h-4.704v-12.191h-4.191v-3.487l4.191-0.192v-0.416c0-3.647,2.144-6.527,7.104-6.527
			c1.823,0,3.455,0.416,4.799,0.864L304.144,433.729z"/>
		<path style="fill:#FFFFFF;" d="M317.936,442.018c-0.16-1.44-1.248-2.305-3.392-2.305c-1.536,0-3.04,0.576-4.832,1.473
			l-1.664-3.072c2.177-1.248,4.704-2.144,7.424-2.144c4.448,0,7.168,2.304,7.168,7.167v9.088h-3.84l-0.353-1.792h-0.128
			c-1.6,1.216-3.584,2.176-5.631,2.176c-3.2,0-5.216-2.112-5.216-4.8C307.473,444.257,310.416,442.465,317.936,442.018z
			 M314.191,448.961c1.408,0,2.624-0.641,3.744-1.504v-2.624c-4.672,0.256-5.951,1.248-5.951,2.624
			C311.984,448.48,312.848,448.961,314.191,448.961z"/>
		<path style="fill:#FFFFFF;" d="M336.047,435.97c2.496,0,4.607,0.896,5.951,2.144l-2.176,2.912
			c-1.216-0.864-2.336-1.248-3.52-1.248c-2.72,0-4.607,1.76-4.607,4.512s1.824,4.512,4.447,4.512c1.664,0,3.072-0.704,4.192-1.504
			l1.92,2.976c-1.92,1.6-4.384,2.336-6.56,2.336c-4.992,0-8.832-3.04-8.832-8.319S331.151,435.97,336.047,435.97z"/>
		<path style="fill:#FFFFFF;" d="M353.935,435.97c4.896,0,7.455,3.296,7.455,7.615c0,0.832-0.128,1.6-0.192,1.983h-10.687
			c0.447,2.4,2.271,3.456,4.607,3.456c1.439,0,2.688-0.384,4.096-1.088l1.536,2.816c-1.792,1.151-4.16,1.855-6.271,1.855
			c-4.928,0-8.8-3.072-8.8-8.319C345.679,439.105,349.711,435.97,353.935,435.97z M357.134,442.657c0-1.824-0.96-3.104-3.104-3.104
			c-1.696,0-3.2,0.991-3.584,3.104H357.134z"/>
		<path style="fill:#FFFFFF;" d="M385.773,431.362h13.759v3.967h-9.056v4.832h7.712v3.968h-7.712v8.096h-4.703V431.362z"/>
		<path style="fill:#FFFFFF;" d="M411.116,435.97c4.191,0,8.095,3.04,8.095,8.319s-3.903,8.319-8.095,8.319
			c-4.192,0-8.096-3.04-8.096-8.319S406.924,435.97,411.116,435.97z M411.116,448.801c2.176,0,3.264-1.76,3.264-4.512
			s-1.088-4.512-3.264-4.512s-3.264,1.76-3.264,4.512S408.94,448.801,411.116,448.801z"/>
		<path style="fill:#FFFFFF;" d="M430.315,435.97c4.191,0,8.095,3.04,8.095,8.319s-3.903,8.319-8.095,8.319
			c-4.192,0-8.096-3.04-8.096-8.319S426.123,435.97,430.315,435.97z M430.315,448.801c2.176,0,3.264-1.76,3.264-4.512
			s-1.088-4.512-3.264-4.512s-3.264,1.76-3.264,4.512S428.14,448.801,430.315,448.801z"/>
		<path style="fill:#FFFFFF;" d="M466.89,447.072c0-1.119-0.928-2.304-4.384-2.367v-2.752c3.456-0.064,4.384-1.248,4.384-2.368
			c0-1.983-0.32-3.231-0.32-5.472c0-3.455,1.856-4.543,5.952-4.543h2.464v2.495h-1.313c-2.655,0-3.264,0.448-3.264,2.24
			c0,1.696,0.16,3.328,0.16,5.216c0,2.432-0.928,3.359-3.199,3.743v0.128c2.271,0.385,3.199,1.313,3.199,3.744
			c0,1.952-0.16,3.487-0.16,5.216c0,1.792,0.608,2.239,3.264,2.239h1.313v2.496h-2.464c-4.096,0-5.952-1.088-5.952-4.544
			C466.569,450.272,466.89,449.089,466.89,447.072z"/>
		<path style="fill:#FFFFFF;" d="M231.25,474.354h11.071v15.871h-4.704v-12.191h-6.368V474.354z M236.625,469.17
			c0-1.728,1.312-2.943,3.136-2.943c1.824,0,3.136,1.216,3.136,2.943s-1.312,2.848-3.136,2.848
			C237.937,472.018,236.625,470.897,236.625,469.17z"/>
		<path style="fill:#FFFFFF;" d="M250.225,474.354h3.84l0.352,2.112h0.128c1.376-1.345,3.104-2.496,5.472-2.496
			c3.583,0,5.184,2.464,5.184,6.463v9.792h-4.704v-9.184c0-2.112-0.608-3.071-2.336-3.071c-1.28,0-2.112,0.575-3.232,1.663v10.592
			h-4.704V474.354z"/>
		<path style="fill:#FFFFFF;" d="M272.688,478.033h-3.967v-3.487l4.191-0.192l0.608-4.224h3.872v4.224h6.688v3.68h-6.688v5.567
			c0,2.4,1.024,3.328,3.328,3.328c1.216,0,2.272-0.256,3.2-0.576l0.832,3.392c-1.408,0.416-3.168,0.864-5.216,0.864
			c-5.056,0-6.848-2.815-6.848-6.976V478.033z"/>
		<path style="fill:#FFFFFF;" d="M306.673,474.354h3.52l0.352,1.983h0.128c0.608-1.312,1.568-2.367,3.392-2.367
			c1.408,0,2.4,0.896,2.784,2.592c0.576-1.44,1.696-2.592,3.487-2.592c2.208,0,3.521,1.952,3.521,5.119v11.136h-4.416v-10.783
			c0-0.992-0.256-1.472-0.896-1.472c-0.608,0-1.057,0.512-1.473,1.535v10.72h-3.615v-10.783c0-0.992-0.32-1.472-0.928-1.472
			c-0.608,0-0.992,0.512-1.44,1.535v10.72h-4.415V474.354z"/>
		<path style="fill:#FFFFFF;" d="M330.512,481.329c0-6.016,2.592-10.943,6.751-14.623l2.624,2.08
			c-3.808,3.712-5.439,7.487-5.439,12.543s1.632,8.831,5.439,12.543l-2.624,2.08C333.104,492.272,330.512,487.345,330.512,481.329z"
			/>
		<path style="fill:#FFFFFF;" d="M347.95,493.872c3.809-3.712,5.44-7.487,5.44-12.543s-1.632-8.831-5.44-12.543l2.624-2.08
			c4.16,3.68,6.752,8.607,6.752,14.623s-2.592,10.943-6.752,14.623L347.95,493.872z"/>
		<path style="fill:#FFFFFF;" d="M368.941,494.416c2.784-0.96,4.16-2.527,4.16-4.544c-0.128,0.032-0.224,0.032-0.353,0.032
			c-1.791,0-3.455-1.151-3.455-3.264c0-1.983,1.6-3.296,3.584-3.296c2.623,0,3.967,2.048,3.967,5.504
			c0,4.063-2.304,6.976-6.719,8.319L368.941,494.416z M369.006,476.497c0-2.079,1.504-3.743,3.712-3.743s3.711,1.664,3.711,3.743
			c0,2.112-1.503,3.776-3.711,3.776S369.006,478.609,369.006,476.497z"/>
		<path style="fill:#FFFFFF;" d="M229.938,517.697c0-6.815,3.424-10.72,8.383-10.72c4.96,0,8.384,3.937,8.384,10.72
			c0,6.815-3.424,10.911-8.384,10.911C233.361,528.608,229.938,524.513,229.938,517.697z M241.873,517.697
			c0-4.16-1.375-6.655-3.552-6.655c-2.176,0-3.552,2.495-3.552,6.655c0,4.191,1.376,6.848,3.552,6.848
			C240.497,524.545,241.873,521.889,241.873,517.697z"/>
		<path style="fill:#FFFFFF;" d="M250.225,505.794h4.704v5.504l-0.128,2.495c1.248-1.151,2.88-1.823,4.416-1.823
			c3.967,0,6.399,3.168,6.399,8.031c0,5.472-3.328,8.607-6.879,8.607c-1.472,0-3.008-0.736-4.32-2.112h-0.128l-0.384,1.729h-3.68
			V505.794z M257.681,524.769c1.728,0,3.104-1.408,3.104-4.672c0-2.848-0.928-4.287-2.912-4.287c-1.024,0-1.952,0.447-2.944,1.472
			v6.432C255.825,524.48,256.849,524.769,257.681,524.769z"/>
		<path style="fill:#FFFFFF;" d="M269.649,512.354h11.071v14.911c0,3.871-1.6,7.231-7.359,7.231c-1.952,0-3.52-0.448-4.896-1.088
			l1.376-3.36c1.28,0.576,2.304,0.769,3.232,0.769c2.272,0,2.944-1.057,2.944-3.36v-11.423h-6.368V512.354z M275.024,507.17
			c0-1.728,1.312-2.943,3.136-2.943c1.824,0,3.136,1.216,3.136,2.943s-1.312,2.848-3.136,2.848
			C276.336,510.018,275.024,508.897,275.024,507.17z"/>
		<path style="fill:#FFFFFF;" d="M296.336,511.97c4.896,0,7.456,3.296,7.456,7.615c0,0.832-0.129,1.6-0.192,1.983h-10.688
			c0.448,2.4,2.272,3.456,4.608,3.456c1.44,0,2.688-0.384,4.095-1.088l1.536,2.816c-1.792,1.151-4.16,1.855-6.271,1.855
			c-4.928,0-8.799-3.072-8.799-8.319C288.081,515.105,292.112,511.97,296.336,511.97z M299.536,518.657
			c0-1.824-0.96-3.104-3.104-3.104c-1.696,0-3.2,0.991-3.584,3.104H299.536z"/>
		<path style="fill:#FFFFFF;" d="M316.848,511.97c2.496,0,4.607,0.896,5.951,2.144l-2.176,2.912
			c-1.216-0.864-2.336-1.248-3.52-1.248c-2.72,0-4.607,1.76-4.607,4.512s1.824,4.512,4.447,4.512c1.664,0,3.072-0.704,4.192-1.504
			l1.92,2.976c-1.92,1.6-4.384,2.336-6.56,2.336c-4.992,0-8.832-3.04-8.832-8.319S311.952,511.97,316.848,511.97z"/>
		<path style="fill:#FFFFFF;" d="M330.287,516.033h-3.968v-3.487l4.192-0.192l0.607-4.224h3.872v4.224h6.688v3.68h-6.688v5.567
			c0,2.4,1.023,3.328,3.327,3.328c1.216,0,2.272-0.256,3.2-0.576l0.832,3.392c-1.408,0.416-3.168,0.864-5.216,0.864
			c-5.056,0-6.848-2.815-6.848-6.976V516.033z"/>
		<path style="fill:#FFFFFF;" d="M374.445,511.97c2.496,0,4.607,0.896,5.951,2.144l-2.176,2.912
			c-1.216-0.864-2.336-1.248-3.52-1.248c-2.72,0-4.607,1.76-4.607,4.512s1.824,4.512,4.447,4.512c1.664,0,3.072-0.704,4.192-1.504
			l1.92,2.976c-1.92,1.6-4.384,2.336-6.56,2.336c-4.992,0-8.832-3.04-8.832-8.319S369.55,511.97,374.445,511.97z"/>
		<path style="fill:#FFFFFF;" d="M384.301,505.794h9.312v16.415c0,1.952,1.248,2.592,2.561,2.592c0.735,0,1.504-0.128,2.495-0.512
			l1.056,3.455c-1.663,0.513-2.783,0.864-4.768,0.864c-3.999,0-6.047-2.56-6.047-6.592v-12.511h-4.608V505.794z"/>
		<path style="fill:#FFFFFF;" d="M411.116,511.97c4.191,0,8.095,3.04,8.095,8.319s-3.903,8.319-8.095,8.319
			c-4.192,0-8.096-3.04-8.096-8.319S406.924,511.97,411.116,511.97z M411.116,524.801c2.176,0,3.264-1.76,3.264-4.512
			s-1.088-4.512-3.264-4.512s-3.264,1.76-3.264,4.512S408.94,524.801,411.116,524.801z"/>
		<path style="fill:#FFFFFF;" d="M423.02,512.354h3.84l0.352,2.112h0.128c1.376-1.345,3.104-2.496,5.472-2.496
			c3.584,0,5.184,2.464,5.184,6.463v9.792h-4.703v-9.184c0-2.112-0.608-3.071-2.336-3.071c-1.28,0-2.112,0.575-3.231,1.663v10.592
			h-4.704V512.354z"/>
		<path style="fill:#FFFFFF;" d="M449.931,511.97c4.896,0,7.455,3.296,7.455,7.615c0,0.832-0.128,1.6-0.192,1.983h-10.687
			c0.447,2.4,2.271,3.456,4.607,3.456c1.439,0,2.688-0.384,4.096-1.088l1.536,2.816c-1.792,1.151-4.16,1.855-6.271,1.855
			c-4.928,0-8.8-3.072-8.8-8.319C441.675,515.105,445.707,511.97,449.931,511.97z M453.13,518.657c0-1.824-0.96-3.104-3.104-3.104
			c-1.696,0-3.2,0.991-3.584,3.104H453.13z"/>
		<path style="fill:#FFFFFF;" d="M464.906,519.329c0-6.016,2.592-10.943,6.751-14.623l2.624,2.08
			c-3.808,3.712-5.439,7.487-5.439,12.543s1.632,8.831,5.439,12.543l-2.624,2.08C467.498,530.272,464.906,525.345,464.906,519.329z"
			/>
		<path style="fill:#FFFFFF;" d="M482.345,531.872c3.809-3.712,5.44-7.487,5.44-12.543s-1.632-8.831-5.44-12.543l2.624-2.08
			c4.16,3.68,6.752,8.607,6.752,14.623s-2.592,10.943-6.752,14.623L482.345,531.872z"/>
		<path style="fill:#FFFFFF;" d="M503.336,532.416c2.784-0.96,4.16-2.527,4.16-4.544c-0.128,0.032-0.224,0.032-0.353,0.032
			c-1.791,0-3.455-1.151-3.455-3.264c0-1.983,1.6-3.296,3.584-3.296c2.623,0,3.967,2.048,3.967,5.504
			c0,4.063-2.304,6.976-6.719,8.319L503.336,532.416z M503.4,514.497c0-2.079,1.504-3.743,3.712-3.743s3.711,1.664,3.711,3.743
			c0,2.112-1.503,3.776-3.711,3.776S503.4,516.609,503.4,514.497z"/>
		<path style="fill:#FFFFFF;" d="M194.994,568.592c2.624,0,3.231-0.447,3.231-2.239c0-1.729-0.128-3.264-0.128-5.216
			c0-2.432,0.896-3.359,3.2-3.744v-0.128c-2.304-0.384-3.2-1.312-3.2-3.743c0-1.888,0.128-3.52,0.128-5.216
			c0-1.792-0.608-2.24-3.231-2.24h-1.312v-2.495h2.464c4.096,0,5.952,1.088,5.952,4.543c0,2.24-0.352,3.488-0.352,5.472
			c0,1.12,0.928,2.304,4.416,2.368v2.752c-3.488,0.063-4.416,1.248-4.416,2.367c0,2.017,0.352,3.2,0.352,5.472
			c0,3.456-1.856,4.544-5.952,4.544h-2.464v-2.496H194.994z"/>
	</g>
</g>
<g id="jfx:p06">
	<g>
		<g>
			<path style="fill:#FF0000;" d="M99.421,435.279c15.257,29.873,44.63,49.903,58,81c1.189,2.765,10.625-0.343,9.66-2.588
				c-13.385-31.131-42.748-51.138-58-81C107.667,429.926,98.382,433.245,99.421,435.279L99.421,435.279z"/>
		</g>
	</g>
	<g>
		<g>
			<path style="fill:#FF0000;" d="M165.155,434.183c-28.949,17.947-44.053,50.923-73,69c-1.528,0.954-2.687,3.196-0.69,4.355
				c2.092,1.216,4.977,0.439,6.881-0.75c14.69-9.174,26.352-21.769,37.522-34.831c10.712-12.525,21.313-25.388,35.478-34.169
				c1.533-0.95,2.683-3.198,0.689-4.355C169.939,432.214,167.065,432.998,165.155,434.183L165.155,434.183z"/>
		</g>
	</g>
</g>
</svg>
