<?xml version="1.0" encoding="iso-8859-1"?>
<!-- Generator: Adobe Illustrator 16.1.1, SVG Export Plug-In . SVG Version: 6.00 Build 0)  -->
<!DOCTYPE svg PUBLIC "-//W3C//DTD SVG 1.1//EN" "http://www.w3.org/Graphics/SVG/1.1/DTD/svg11.dtd">
<svg version="1.1" xmlns="http://www.w3.org/2000/svg" xmlns:xlink="http://www.w3.org/1999/xlink" x="0px" y="0px" width="1024px"
	 height="768px" viewBox="0 0 1024 768" style="enable-background:new 0 0 1024 768;" xml:space="preserve">
<g id="jfx:p00">
	<image style="overflow:visible;" width="1024" height="768" xlink:href="53C72CCC.jpg" >
	</image>
</g>
<g id="jfx:p01">
	<rect style="opacity:0.5;" width="1024" height="768"/>
</g>
<g id="jfx:p02">
	<g>
		<path style="fill:#FFFFFF;stroke:#FFFFFF;" d="M78.28,69.799c4.48-0.72,10.32-1.12,16.48-1.12c10.24,0,16.88,1.84,22.08,5.76
			c5.6,4.16,9.121,10.8,9.121,20.32c0,10.32-3.76,17.44-8.96,21.84c-5.68,4.72-14.32,6.96-24.88,6.96c-6.32,0-10.8-0.4-13.84-0.8
			V69.799z M90.52,113.8c1.04,0.24,2.72,0.24,4.24,0.24c11.04,0.08,18.24-6,18.24-18.881c0.08-11.2-6.48-17.12-16.96-17.12
			c-2.72,0-4.48,0.24-5.52,0.48V113.8z"/>
		<path style="fill:#FFFFFF;stroke:#FFFFFF;" d="M142.919,107.32c0.4,5.04,5.36,7.44,11.041,7.44c4.16,0,7.52-0.56,10.8-1.6
			l1.6,8.24c-4,1.6-8.88,2.4-14.16,2.4c-13.28,0-20.88-7.68-20.88-19.92c0-9.92,6.16-20.88,19.76-20.88
			c12.641,0,17.44,9.84,17.44,19.521c0,2.08-0.24,3.92-0.4,4.8H142.919z M157.24,99c0-2.96-1.28-7.92-6.88-7.92
			c-5.12,0-7.2,4.64-7.521,7.92H157.24z"/>
		<path style="fill:#FFFFFF;stroke:#FFFFFF;" d="M177.16,123V92.839h-5.12v-8.96h5.12v-1.52c0-4.72,1.44-9.92,4.96-13.12
			c3.04-2.88,7.28-3.92,10.8-3.92c2.72,0,4.8,0.32,6.48,0.8l-0.48,9.36c-1.04-0.32-2.32-0.56-3.92-0.56c-4,0-5.68,3.12-5.68,6.96v2
			h7.84v8.96h-7.76V123H177.16z"/>
		<path style="fill:#FFFFFF;stroke:#FFFFFF;" d="M225.319,123l-0.72-3.92h-0.24c-2.56,3.12-6.56,4.8-11.2,4.8
			c-7.92,0-12.641-5.76-12.641-12c0-10.16,9.121-15.041,22.961-14.96v-0.56c0-2.08-1.12-5.04-7.12-5.04c-4,0-8.24,1.36-10.8,2.96
			l-2.24-7.84c2.72-1.52,8.08-3.44,15.2-3.44c13.041,0,17.201,7.68,17.201,16.88v13.601c0,3.76,0.16,7.36,0.56,9.52H225.319z
			 M223.879,104.52c-6.4-0.08-11.36,1.44-11.36,6.16c0,3.12,2.08,4.64,4.8,4.64c3.04,0,5.52-2,6.32-4.48
			c0.16-0.64,0.24-1.36,0.24-2.08V104.52z"/>
		<path style="fill:#FFFFFF;stroke:#FFFFFF;" d="M282.2,110.44c0,5.12,0.16,9.28,0.32,12.56h-10.561l-0.56-5.52h-0.24
			c-1.52,2.4-5.2,6.4-12.24,6.4c-7.92,0-13.76-4.96-13.76-17.04V83.879h12.24v21.041c0,5.68,1.84,9.121,6.08,9.121
			c3.36,0,5.28-2.32,6.08-4.24c0.32-0.72,0.4-1.68,0.4-2.64V83.879h12.24V110.44z"/>
		<path style="fill:#FFFFFF;stroke:#FFFFFF;" d="M291.958,66.199h12.16V123h-12.16V66.199z"/>
		<path style="fill:#FFFFFF;stroke:#FFFFFF;" d="M327.558,72.679v11.2h8.72v8.96h-8.72V107c0,4.72,1.12,6.88,4.8,6.88
			c1.521,0,2.721-0.16,3.601-0.32l0.08,9.2c-1.601,0.64-4.48,1.04-7.921,1.04c-3.92,0-7.2-1.36-9.12-3.36
			c-2.24-2.32-3.359-6.08-3.359-11.6v-16h-5.2v-8.96h5.2v-8.48L327.558,72.679z"/>
		<path style="fill:#FFFFFF;stroke:#FFFFFF;" d="M405.478,102.359c-0.239-6.48-0.479-14.32-0.479-22.16h-0.24
			c-1.68,6.88-3.92,14.56-6,20.88l-6.561,21.041h-9.52l-5.761-20.881c-1.76-6.32-3.6-14-4.88-21.04h-0.16
			c-0.32,7.28-0.56,15.6-0.96,22.32l-0.96,20.48h-11.28l3.44-53.921h16.24l5.28,18c1.68,6.24,3.359,12.96,4.56,19.28h0.24
			c1.52-6.24,3.36-13.36,5.12-19.36l5.76-17.92h15.921l2.96,53.921h-11.92L405.478,102.359z"/>
		<path style="fill:#FFFFFF;stroke:#FFFFFF;" d="M436.517,107.32c0.4,5.04,5.36,7.44,11.04,7.44c4.16,0,7.521-0.56,10.801-1.6
			l1.6,8.24c-4,1.6-8.88,2.4-14.16,2.4c-13.28,0-20.881-7.68-20.881-19.92c0-9.92,6.16-20.88,19.761-20.88
			c12.641,0,17.44,9.84,17.44,19.521c0,2.08-0.24,3.92-0.4,4.8H436.517z M450.837,99c0-2.96-1.28-7.92-6.88-7.92
			c-5.12,0-7.2,4.64-7.521,7.92H450.837z"/>
		<path style="fill:#FFFFFF;stroke:#FFFFFF;" d="M482.998,72.679v11.2h8.72v8.96h-8.72V107c0,4.72,1.12,6.88,4.8,6.88
			c1.521,0,2.721-0.16,3.601-0.32l0.08,9.2c-1.601,0.64-4.48,1.04-7.921,1.04c-3.92,0-7.2-1.36-9.12-3.36
			c-2.24-2.32-3.359-6.08-3.359-11.6v-16h-5.2v-8.96h5.2v-8.48L482.998,72.679z"/>
		<path style="fill:#FFFFFF;stroke:#FFFFFF;" d="M498.756,66.199h12.16v22.32h0.16c1.28-1.68,2.88-2.96,4.8-4
			c1.76-0.96,4.08-1.52,6.32-1.52c7.76,0,13.68,5.36,13.68,17.121V123h-12.16v-21.521c0-5.12-1.76-8.64-6.32-8.64
			c-3.199,0-5.2,2.08-6.08,4.24c-0.32,0.8-0.4,1.84-0.4,2.72V123h-12.16V66.199z"/>
		<path style="fill:#FFFFFF;stroke:#FFFFFF;" d="M584.277,103c0,14.32-10.16,20.88-20.641,20.88c-11.439,0-20.24-7.52-20.24-20.16
			c0-12.641,8.32-20.721,20.881-20.721C576.277,82.999,584.277,91.239,584.277,103z M555.957,103.399c0,6.72,2.799,11.76,8,11.76
			c4.721,0,7.76-4.72,7.76-11.76c0-5.84-2.24-11.76-7.76-11.76C558.117,91.639,555.957,97.64,555.957,103.399z"/>
		<path style="fill:#FFFFFF;stroke:#FFFFFF;" d="M629.717,66.199v45.121c0,4.4,0.16,9.04,0.32,11.68h-10.801l-0.561-5.76h-0.16
			c-2.479,4.4-7.199,6.64-12.24,6.64c-9.279,0-16.721-7.92-16.721-20.08c-0.078-13.201,8.16-20.801,17.521-20.801
			c4.801,0,8.561,1.68,10.32,4.4h0.16V66.199H629.717z M617.557,100.439c0-0.64-0.08-1.52-0.16-2.16c-0.721-3.28-3.359-6-7.121-6
			c-5.52,0-8.4,4.96-8.4,11.12c0,6.64,3.281,10.8,8.32,10.8c3.521,0,6.32-2.4,7.041-5.84c0.24-0.88,0.32-1.76,0.32-2.8V100.439z"/>
	</g>
</g>
<g id="jfx:p03">
	<g>
		<path style="fill:#FFFFFF;" d="M160.962,341.632c-0.213,0.512-0.512,0.768-0.896,0.768c-0.384,0-0.736-0.101-1.056-0.304
			c-0.32-0.203-0.48-0.443-0.48-0.72s0.042-0.523,0.128-0.736l11.008-26.112c0.234-0.533,0.608-0.8,1.12-0.8
			c0.32,0,0.618,0.112,0.896,0.336c0.277,0.224,0.416,0.475,0.416,0.752c0,0.278-0.032,0.501-0.096,0.672L160.962,341.632z"/>
		<path style="fill:#FFFFFF;" d="M176.962,341.632c-0.213,0.512-0.512,0.768-0.896,0.768c-0.384,0-0.736-0.101-1.056-0.304
			c-0.32-0.203-0.48-0.443-0.48-0.72s0.042-0.523,0.128-0.736l11.008-26.112c0.234-0.533,0.608-0.8,1.12-0.8
			c0.32,0,0.618,0.112,0.896,0.336c0.277,0.224,0.416,0.475,0.416,0.752c0,0.278-0.032,0.501-0.096,0.672L176.962,341.632z"/>
		<path style="fill:#FFFFFF;" d="M232.77,328.128h-8.544c-0.128,2.432-0.667,4.672-1.616,6.72s-2.325,3.723-4.128,5.024
			c-1.803,1.301-3.088,1.952-3.856,1.952c-0.768,0-1.349-0.262-1.743-0.784c-0.396-0.523-0.593-1.083-0.593-1.68
			c0-0.917,0.438-1.6,1.313-2.048c2.112-1.066,3.595-2.261,4.448-3.584c0.853-1.322,1.344-3.189,1.472-5.6h-9.664
			c-0.512,0-0.912-0.202-1.2-0.608c-0.288-0.405-0.432-0.891-0.432-1.456c0-0.565,0.144-1.05,0.432-1.456
			c0.288-0.405,0.688-0.608,1.2-0.608h22.912c0.512,0,0.917,0.208,1.216,0.624s0.448,0.901,0.448,1.456
			c0,0.555-0.149,1.035-0.448,1.44C233.687,327.926,233.282,328.128,232.77,328.128z M214.114,320.384
			c-0.512,0-0.917-0.203-1.216-0.608c-0.299-0.405-0.448-0.88-0.448-1.424s0.145-1.019,0.433-1.424s0.698-0.608,1.231-0.608h13.088
			c0.533,0,0.944,0.203,1.232,0.608s0.432,0.88,0.432,1.424s-0.149,1.019-0.448,1.424c-0.299,0.406-0.703,0.608-1.216,0.608H214.114
			z M232.962,318.336c0,0.384-0.134,0.694-0.4,0.928c-0.267,0.235-0.582,0.352-0.944,0.352c-0.533,0-0.906-0.256-1.12-0.768
			c-0.427-1.002-0.778-1.733-1.056-2.192c-0.277-0.458-0.416-0.832-0.416-1.12s0.139-0.539,0.416-0.752
			c0.277-0.213,0.57-0.32,0.88-0.32s0.598,0.112,0.864,0.336c0.267,0.224,0.629,0.795,1.088,1.712
			C232.733,317.43,232.962,318.038,232.962,318.336z M236.45,316.864c0,0.363-0.133,0.656-0.399,0.88
			c-0.268,0.224-0.619,0.336-1.057,0.336s-0.773-0.256-1.008-0.768c-0.235-0.512-0.693-1.344-1.376-2.496
			c-0.149-0.234-0.224-0.485-0.224-0.752c0-0.266,0.144-0.506,0.432-0.72c0.288-0.213,0.613-0.32,0.977-0.32
			c0.362,0,0.682,0.187,0.96,0.56c0.276,0.374,0.629,0.912,1.056,1.616S236.45,316.459,236.45,316.864z"/>
		<path style="fill:#FFFFFF;" d="M260.514,317.504c1.13-0.021,2.026,0.256,2.688,0.832c0.661,0.576,0.992,1.419,0.992,2.528
			s-0.479,3.013-1.439,5.712s-2.368,5.104-4.225,7.216c-1.855,2.112-4.069,3.819-6.64,5.12c-2.571,1.301-4.24,1.952-5.008,1.952
			c-0.769,0-1.35-0.262-1.744-0.784c-0.396-0.522-0.592-1.125-0.592-1.808c0-0.96,0.512-1.61,1.535-1.952
			c3.243-1.109,5.787-2.453,7.633-4.032c1.845-1.579,3.231-3.429,4.159-5.552c0.929-2.123,1.393-3.547,1.393-4.272
			c0-0.427-0.256-0.64-0.769-0.64l-14.848,0.288c-0.598,0.021-1.056-0.181-1.376-0.608c-0.32-0.426-0.479-0.949-0.479-1.568
			c0-0.619,0.148-1.141,0.447-1.568s0.789-0.64,1.473-0.64L260.514,317.504z"/>
		<path style="fill:#FFFFFF;" d="M290.114,327.424l0.097,10.592c0,1.067-0.246,1.899-0.736,2.496
			c-0.491,0.597-1.504,0.896-3.04,0.896s-2.704-0.123-3.504-0.368c-0.8-0.246-1.2-0.795-1.2-1.648c0-0.533,0.144-0.981,0.432-1.344
			s0.688-0.544,1.2-0.544c0.149,0,0.416,0.032,0.8,0.096c0.385,0.064,0.858,0.096,1.425,0.096c0.564,0,0.848-0.299,0.848-0.896
			l-0.064-6.848c-1.387,2.219-3.199,4.283-5.439,6.192c-2.24,1.91-3.809,2.864-4.704,2.864c-0.512,0-0.96-0.203-1.344-0.608
			c-0.385-0.405-0.576-0.949-0.576-1.632c0-0.683,0.373-1.216,1.12-1.6c3.541-1.962,6.453-4.522,8.735-7.68h-7.424
			c-0.491,0-0.869-0.176-1.136-0.528s-0.4-0.778-0.4-1.28c0-0.501,0.134-0.922,0.4-1.264c0.267-0.341,0.645-0.512,1.136-0.512h9.536
			l-0.063-2.88c-0.022-0.533,0.148-0.97,0.512-1.312c0.362-0.341,0.826-0.512,1.392-0.512s1.019,0.16,1.36,0.48
			c0.341,0.32,0.522,0.747,0.544,1.28l0.063,2.88h4.576c0.491,0,0.864,0.166,1.12,0.496c0.256,0.331,0.384,0.758,0.384,1.28
			c0,0.523-0.128,0.955-0.384,1.296c-0.256,0.341-0.629,0.512-1.12,0.512H290.114z"/>
		<path style="fill:#FFFFFF;" d="M313.346,321.344c0,3.243-0.176,5.792-0.528,7.648c-0.352,1.856-0.901,3.494-1.647,4.912
			c-0.747,1.419-1.568,2.613-2.465,3.584c-0.896,0.971-1.563,1.627-2,1.968c-0.438,0.342-0.938,0.512-1.504,0.512
			s-1.104-0.245-1.615-0.736c-0.513-0.49-0.769-1.072-0.769-1.744c0-0.672,0.299-1.264,0.896-1.776
			c1.279-1.024,2.293-2.154,3.04-3.392c0.746-1.237,1.279-2.544,1.6-3.92s0.49-3.973,0.512-7.792c0-0.618,0.219-1.109,0.656-1.472
			c0.437-0.363,0.917-0.544,1.44-0.544c0.522,0,0.976,0.102,1.359,0.304c0.384,0.203,0.65,0.464,0.8,0.784
			S313.346,320.555,313.346,321.344z M320.738,333.28c-0.021,0.427,0.064,0.64,0.256,0.64c0.277,0,1.137-0.624,2.576-1.872
			c1.44-1.248,2.821-2.864,4.145-4.848c0.426-0.64,0.943-0.96,1.552-0.96c0.607,0,1.157,0.208,1.647,0.624
			c0.491,0.416,0.736,0.934,0.736,1.552c0,0.299-0.091,0.646-0.271,1.04c-0.182,0.395-0.736,1.173-1.664,2.336
			c-0.929,1.163-1.91,2.219-2.944,3.168c-1.035,0.95-2.128,1.808-3.28,2.576c-1.151,0.768-2.021,1.27-2.607,1.504
			c-0.587,0.235-1.217,0.352-1.889,0.352s-1.27-0.277-1.792-0.832c-0.522-0.554-0.784-1.291-0.784-2.208v-17.728
			c0-0.554,0.219-0.986,0.656-1.296c0.438-0.309,0.965-0.464,1.584-0.464s1.152,0.155,1.601,0.464
			c0.447,0.31,0.672,0.731,0.672,1.264L320.738,333.28z"/>
		<path style="fill:#FFFFFF;" d="M348.098,327.936v12.448c0,0.533-0.219,0.949-0.656,1.248c-0.438,0.298-0.976,0.448-1.616,0.448
			c-0.64,0-1.179-0.149-1.615-0.448c-0.438-0.299-0.656-0.715-0.656-1.248v-24.256c0-0.533,0.224-0.949,0.672-1.248
			c0.448-0.298,0.98-0.448,1.6-0.448s1.152,0.149,1.601,0.448c0.447,0.299,0.672,0.715,0.672,1.248v7.008
			c2.645,1.131,5.13,2.368,7.456,3.712c2.325,1.344,3.643,2.235,3.952,2.672c0.309,0.438,0.464,0.944,0.464,1.52
			c0,0.576-0.251,1.136-0.752,1.68c-0.502,0.544-1.03,0.816-1.584,0.816c-0.556,0-1.078-0.192-1.568-0.576
			C353.058,330.72,350.402,329.045,348.098,327.936z"/>
		<path style="fill:#FFFFFF;" d="M386.21,328.448c0.98,0.79,1.893,1.558,2.735,2.304c0.843,0.747,1.397,1.254,1.664,1.52
			c0.267,0.267,0.459,0.544,0.576,0.832s0.176,0.571,0.176,0.848c0,0.64-0.245,1.232-0.736,1.776
			c-0.49,0.544-1.045,0.816-1.663,0.816c-0.619,0-1.185-0.256-1.696-0.768c-0.512-0.512-1.824-1.706-3.937-3.584
			c-1.216,1.387-2.49,2.651-3.823,3.792c-1.334,1.142-2.694,2.171-4.08,3.088c-1.388,0.917-2.24,1.44-2.561,1.568
			c-0.319,0.128-0.629,0.192-0.928,0.192c-0.64,0-1.184-0.277-1.632-0.832c-0.448-0.554-0.672-1.077-0.672-1.568
			c0-0.875,0.437-1.568,1.312-2.08c3.541-1.962,6.528-4.309,8.96-7.04c-1.579-1.173-3.285-2.304-5.12-3.392
			c-0.704-0.384-1.056-0.89-1.056-1.52c0-0.629,0.197-1.205,0.592-1.728s0.923-0.784,1.584-0.784c0.277,0,0.561,0.053,0.849,0.16
			c0.287,0.107,0.991,0.512,2.111,1.216s2.373,1.547,3.76,2.528c1.749-2.645,3.169-5.418,4.257-8.32
			c0.341-0.896,0.98-1.344,1.92-1.344c0.597,0,1.151,0.203,1.664,0.608c0.512,0.405,0.768,0.928,0.768,1.568
			c0,0.704-0.64,2.299-1.92,4.784C388.034,325.574,386.999,327.36,386.21,328.448z"/>
		<path style="fill:#FFFFFF;" d="M409.986,325.344c0,0.704-0.299,1.291-0.896,1.76c-0.598,0.47-1.238,0.704-1.92,0.704
			c-0.918,0-1.558-0.426-1.921-1.28c-0.832-1.899-1.749-3.691-2.752-5.376c-0.256-0.384-0.384-0.757-0.384-1.12
			c0-0.747,0.293-1.338,0.88-1.776c0.587-0.437,1.227-0.656,1.92-0.656s1.274,0.315,1.744,0.944c0.47,0.63,1.142,1.755,2.017,3.376
			C409.548,323.542,409.986,324.683,409.986,325.344z M424.994,319.68c0,0.79-0.501,2.565-1.504,5.328s-2.331,5.28-3.983,7.552
			c-1.654,2.272-3.771,4.277-6.353,6.016c-2.581,1.738-4.363,2.608-5.344,2.608c-0.683,0-1.232-0.272-1.648-0.816
			s-0.624-1.115-0.624-1.712c0-0.917,0.459-1.589,1.376-2.016c3.712-1.728,6.608-3.898,8.688-6.512
			c2.08-2.613,3.706-6.288,4.88-11.024c0.277-1.109,0.949-1.664,2.016-1.664c0.619,0,1.189,0.187,1.713,0.56
			C424.733,318.374,424.994,318.934,424.994,319.68z"/>
		<path style="fill:#FFFFFF;" d="M440.354,328.736c0,0.64-0.24,1.136-0.72,1.488c-0.48,0.352-0.987,0.528-1.521,0.528
			c-0.832,0-1.397-0.426-1.696-1.28c-0.533-1.557-1.045-2.816-1.535-3.776c-0.149-0.277-0.225-0.645-0.225-1.104
			c0-0.458,0.225-0.864,0.672-1.216c0.448-0.352,0.938-0.528,1.473-0.528c0.533,0,0.976,0.187,1.328,0.56
			c0.352,0.374,0.811,1.237,1.376,2.592C440.071,327.355,440.354,328.267,440.354,328.736z M455.394,323.968
			c0,0.726-0.39,2.272-1.168,4.64c-0.779,2.368-1.915,4.491-3.408,6.368c-1.493,1.877-3.328,3.43-5.504,4.656
			c-2.176,1.226-3.712,1.84-4.608,1.84c-0.64,0-1.131-0.235-1.472-0.704c-0.342-0.469-0.512-0.981-0.512-1.536
			c0-0.96,0.458-1.568,1.376-1.824c3.264-1.045,5.781-2.672,7.552-4.88s3.008-5.211,3.712-9.008c0.192-1.045,0.8-1.568,1.824-1.568
			c0.576,0,1.088,0.171,1.536,0.512S455.394,323.307,455.394,323.968z M447.074,327.104c0,0.598-0.234,1.067-0.704,1.408
			c-0.469,0.341-0.971,0.512-1.504,0.512c-0.832,0-1.387-0.437-1.664-1.312c-0.533-1.578-0.949-2.672-1.248-3.28
			s-0.447-1.029-0.447-1.264c0-0.618,0.224-1.098,0.672-1.44c0.447-0.341,0.917-0.512,1.408-0.512c0.49,0,0.917,0.166,1.279,0.496
			c0.362,0.331,0.821,1.179,1.376,2.544S447.074,326.571,447.074,327.104z"/>
		<path style="fill:#FFFFFF;" d="M476.098,327.936v12.448c0,0.533-0.219,0.949-0.656,1.248c-0.438,0.298-0.976,0.448-1.616,0.448
			c-0.64,0-1.179-0.149-1.615-0.448c-0.438-0.299-0.656-0.715-0.656-1.248v-24.256c0-0.533,0.224-0.949,0.672-1.248
			c0.448-0.298,0.98-0.448,1.6-0.448s1.152,0.149,1.601,0.448c0.447,0.299,0.672,0.715,0.672,1.248v7.008
			c2.432,1.045,4.869,2.261,7.312,3.648s3.813,2.304,4.112,2.752c0.299,0.448,0.448,0.955,0.448,1.52
			c0,0.565-0.251,1.12-0.752,1.664c-0.502,0.544-1.03,0.816-1.584,0.816c-0.556,0-1.078-0.192-1.568-0.576
			C481.122,330.763,478.466,329.088,476.098,327.936z M483.522,316.48c0.469,0,0.896,0.24,1.28,0.72
			c0.384,0.48,0.815,1.067,1.296,1.76c0.479,0.694,0.72,1.232,0.72,1.616c0,0.384-0.155,0.715-0.464,0.992
			c-0.31,0.277-0.688,0.416-1.136,0.416c-0.448,0-0.812-0.213-1.088-0.64c-0.641-0.96-1.152-1.696-1.536-2.208
			c-0.384-0.512-0.576-0.938-0.576-1.28c0-0.341,0.154-0.656,0.464-0.944C482.791,316.624,483.138,316.48,483.522,316.48z
			 M487.106,314.08c0.469,0,0.896,0.24,1.28,0.72s0.82,1.051,1.312,1.712c0.49,0.662,0.736,1.2,0.736,1.616s-0.16,0.768-0.48,1.056
			c-0.319,0.288-0.693,0.432-1.12,0.432s-0.768-0.213-1.023-0.64c-0.726-1.066-1.365-1.952-1.92-2.656
			c-0.214-0.256-0.32-0.555-0.32-0.896s0.154-0.651,0.464-0.928C486.343,314.219,486.701,314.08,487.106,314.08z"/>
		<path style="fill:#FFFFFF;" d="M510.818,331.616c-3.2,1.451-4.8,2.784-4.8,4c0,0.896,0.517,1.504,1.552,1.824
			c1.034,0.32,2.405,0.48,4.112,0.48c1.707,0,3.082-0.053,4.128-0.16l2.592-0.224c0.596,0,1.039,0.187,1.328,0.56
			c0.287,0.374,0.432,0.8,0.432,1.28s-0.096,0.901-0.289,1.264c-0.191,0.362-0.447,0.619-0.768,0.768
			c-0.32,0.149-1.254,0.245-2.799,0.288c-1.547,0.042-2.471,0.064-2.77,0.064c-4.416,0-7.439-0.507-9.071-1.52
			c-1.633-1.013-2.448-2.341-2.448-3.984c0-3.029,2.784-5.739,8.352-8.128c-0.341-0.981-1.066-1.472-2.176-1.472
			c-0.768,0-1.632,0.235-2.592,0.704s-1.798,1.072-2.512,1.808c-0.716,0.736-1.596,1.808-2.641,3.216
			c-0.384,0.533-0.875,0.8-1.472,0.8c-0.598,0-1.12-0.197-1.568-0.592c-0.447-0.395-0.672-0.827-0.672-1.296
			c0-0.469,0.171-0.885,0.512-1.248c2.688-3.136,4.598-5.92,5.729-8.352c-1.686,0.021-2.859,0.011-3.521-0.032
			c-0.661-0.042-1.104-0.25-1.327-0.624c-0.225-0.373-0.336-0.784-0.336-1.232c0-1.258,0.564-1.888,1.695-1.888
			c0.021,0,0.501,0.011,1.44,0.032c0.938,0.021,2.122,0.021,3.552,0c0.341-0.981,0.646-1.92,0.912-2.816s0.826-1.344,1.68-1.344
			c0.533,0,1.035,0.16,1.504,0.48c0.47,0.32,0.704,0.758,0.704,1.312c0,0.214-0.043,0.438-0.128,0.672l-0.512,1.504
			c1.108-0.064,2.384-0.197,3.824-0.4c1.44-0.203,2.213-0.304,2.319-0.304c0.514,0,0.902,0.182,1.168,0.544
			c0.268,0.363,0.4,0.79,0.4,1.28c0,0.491-0.096,0.88-0.287,1.168c-0.193,0.288-0.475,0.485-0.848,0.592
			c-0.375,0.107-1.361,0.262-2.96,0.464c-1.601,0.203-3.317,0.347-5.152,0.432c-0.512,1.109-1.035,2.123-1.568,3.04
			c1.493-0.811,2.849-1.216,4.064-1.216c1.855,0,3.21,1.131,4.064,3.392c3.67-1.344,5.781-2.016,6.336-2.016
			s0.996,0.192,1.328,0.576c0.33,0.384,0.496,0.854,0.496,1.408c0,0.939-0.566,1.547-1.695,1.824
			c-1.133,0.278-3.01,0.832-5.633,1.664c0.127,0.981,0.191,2.155,0.191,3.52c0,0.598-0.186,1.056-0.559,1.376
			c-0.375,0.32-0.881,0.48-1.521,0.48c-1.174,0-1.76-0.629-1.76-1.888C510.85,332.651,510.839,331.958,510.818,331.616z"/>
		<path style="fill:#FFFFFF;" d="M534.945,321.44v19.744c0,0.469-0.207,0.837-0.623,1.104c-0.416,0.267-0.896,0.4-1.439,0.4
			c-0.545,0-1.014-0.133-1.408-0.4c-0.396-0.267-0.592-0.635-0.592-1.104v-12.672c-0.791,1.195-1.324,1.899-1.602,2.112
			c-0.277,0.213-0.639,0.32-1.088,0.32c-0.447,0-0.875-0.187-1.279-0.56c-0.406-0.373-0.607-0.811-0.607-1.312
			c0-0.501,0.117-0.912,0.352-1.232c1.92-2.73,3.354-5.248,4.305-7.552c0.947-2.304,1.604-4.053,1.967-5.248
			c0.213-0.747,0.758-1.12,1.633-1.12c0.617,0,1.152,0.171,1.6,0.512c0.447,0.341,0.672,0.763,0.672,1.264
			C536.834,316.198,536.205,318.112,534.945,321.44z M551.555,324.576v14.016c0,1.045-0.23,1.888-0.689,2.528s-1.711,0.96-3.76,0.96
			c-2.602,0-4.186-0.176-4.752-0.528c-0.564-0.352-0.848-0.907-0.848-1.664s0.182-1.317,0.545-1.68
			c0.361-0.362,0.928-0.496,1.695-0.4s1.504,0.144,2.207,0.144c0.705,0,1.131-0.085,1.281-0.256
			c0.148-0.171,0.223-0.448,0.223-0.832v-12.288h-9.76c-0.49,0-0.875-0.192-1.15-0.576c-0.279-0.384-0.416-0.842-0.416-1.376
			c0-0.533,0.137-0.992,0.416-1.376c0.275-0.384,0.66-0.576,1.15-0.576h9.602v-5.088c0-0.512,0.201-0.912,0.607-1.2
			c0.404-0.288,0.885-0.432,1.439-0.432s1.035,0.144,1.439,0.432c0.406,0.288,0.609,0.688,0.609,1.2v5.088h2.719
			c0.49,0,0.875,0.192,1.152,0.576c0.277,0.384,0.416,0.843,0.416,1.376c0,0.534-0.139,0.992-0.416,1.376
			c-0.277,0.384-0.662,0.576-1.152,0.576H551.555z M544.77,332.448c0,0.64-0.244,1.163-0.736,1.568
			c-0.49,0.405-1.076,0.608-1.76,0.608c-0.682,0-1.162-0.309-1.439-0.928c-0.703-1.472-1.525-2.955-2.465-4.448
			c-0.191-0.298-0.287-0.661-0.287-1.088s0.229-0.875,0.688-1.344c0.459-0.469,0.998-0.704,1.617-0.704
			c0.617,0,1.141,0.272,1.566,0.816c0.428,0.544,1.004,1.451,1.729,2.72C544.406,330.917,544.77,331.851,544.77,332.448z"/>
		<path style="fill:#FFFFFF;" d="M567.457,323.456c0,1.899-0.17,3.995-0.512,6.288c-0.342,2.293-0.842,4.262-1.504,5.904
			c-0.66,1.643-1.354,2.998-2.08,4.064c-0.725,1.067-1.248,1.707-1.566,1.92c-0.32,0.213-0.699,0.32-1.137,0.32
			s-0.902-0.203-1.393-0.608c-0.49-0.406-0.736-0.88-0.736-1.424c0-0.544,0.16-1.008,0.48-1.392c1.813-2.304,3.041-4.752,3.68-7.344
			c0.641-2.592,0.961-5.093,0.961-7.504h-2.848c-0.471,0-0.832-0.187-1.088-0.56c-0.258-0.373-0.385-0.821-0.385-1.344
			c0-0.522,0.127-0.97,0.385-1.344c0.256-0.373,0.617-0.56,1.088-0.56h3.039v-4.608c0-0.469,0.191-0.837,0.576-1.104
			c0.385-0.267,0.832-0.4,1.344-0.4s0.961,0.133,1.344,0.4c0.385,0.267,0.576,0.635,0.576,1.104v4.448h3.168
			c1.045,0,1.787,0.224,2.225,0.672c0.438,0.448,0.656,1.184,0.656,2.208c0,4.843-0.096,8.651-0.289,11.424
			c-0.191,2.773-0.395,4.571-0.607,5.392c-0.213,0.821-0.582,1.435-1.104,1.84c-0.523,0.405-1.383,0.608-2.576,0.608
			c-1.92,0-3.104-0.166-3.553-0.496c-0.447-0.331-0.672-0.859-0.672-1.584c0-0.725,0.154-1.248,0.465-1.568
			c0.309-0.32,0.719-0.458,1.23-0.416c0.514,0.043,1.025,0.064,1.537,0.064s0.848-0.17,1.008-0.512s0.346-1.925,0.561-4.752
			c0.213-2.827,0.32-5.637,0.32-8.432c0-0.469-0.215-0.704-0.641-0.704H567.457z M578.178,341.664c-1.791,0-2.688-0.896-2.688-2.688
			v-18.528c0-1.792,0.896-2.688,2.688-2.688h5.855c1.793,0,2.689,0.896,2.689,2.688v18.528c0,1.792-0.896,2.688-2.689,2.688H578.178
			z M579.266,322.208v14.976c0,0.384,0.191,0.576,0.576,0.576h2.465c0.383,0,0.576-0.192,0.576-0.576v-14.976
			c0-0.384-0.193-0.576-0.576-0.576h-2.465C579.457,321.632,579.266,321.824,579.266,322.208z"/>
		<path style="fill:#FFFFFF;" d="M609.121,327.392c0.619,1.28,0.93,2.646,0.93,4.096c0,2.283-0.572,4.272-1.713,5.968
			c-1.141,1.696-2.576,3.002-4.305,3.92c-1.727,0.917-2.916,1.376-3.566,1.376c-0.652,0-1.148-0.245-1.488-0.736
			c-0.342-0.491-0.512-1.014-0.512-1.568c0-0.917,0.457-1.536,1.375-1.856c1.664-0.555,2.939-1.189,3.824-1.904
			c0.885-0.714,1.553-1.541,2-2.48c-0.811,0.619-1.793,0.928-2.943,0.928c-1.152,0-2.209-0.421-3.168-1.264
			c-0.961-0.842-1.441-2.069-1.441-3.68c0-1.61,0.459-2.954,1.377-4.032c0.916-1.077,2.123-1.616,3.615-1.616
			c0.641,0,1.238,0.107,1.793,0.32v-1.856L593.73,323.2c-0.619,0.021-1.105-0.16-1.457-0.544c-0.352-0.384-0.527-0.896-0.527-1.536
			c0-1.258,0.641-1.888,1.92-1.888l11.232-0.064v-3.648c0-0.512,0.207-0.912,0.623-1.2c0.416-0.288,0.906-0.432,1.473-0.432
			c0.564,0,1.061,0.144,1.488,0.432c0.426,0.288,0.639,0.688,0.639,1.2v3.456l7.938-0.064c0.576,0,1.018,0.171,1.328,0.512
			c0.309,0.341,0.463,0.811,0.463,1.408c0,1.323-0.586,1.984-1.76,1.984l-7.969-0.064V327.392z M605.891,329.472
			c0-0.555-0.176-1.035-0.529-1.44c-0.352-0.405-0.799-0.608-1.344-0.608c-0.543,0-1.002,0.213-1.375,0.64
			c-0.375,0.427-0.561,0.966-0.561,1.616c0,0.651,0.182,1.179,0.543,1.584c0.363,0.405,0.822,0.608,1.377,0.608
			s1.008-0.192,1.359-0.576c0.354-0.384,0.529-0.896,0.529-1.536V329.472z"/>
		<path style="fill:#FFFFFF;" d="M635.938,325.984c1.494-0.554,3.072-0.832,4.736-0.832c2.539,0,4.613,0.693,6.225,2.08
			c1.609,1.387,2.416,3.158,2.416,5.312c0,2.709-0.982,4.902-2.945,6.576s-4.715,2.512-8.256,2.512c-2.346,0-4.25-0.438-5.711-1.312
			s-2.191-2.08-2.191-3.616c0-1.237,0.473-2.245,1.424-3.024c0.947-0.778,2.223-1.168,3.822-1.168c2.625,0,4.77,1.622,6.434,4.864
			c2.154-1.002,3.23-2.517,3.23-4.544c0-1.28-0.484-2.298-1.455-3.056c-0.971-0.757-2.299-1.136-3.984-1.136
			s-3.221,0.197-4.607,0.592c-1.387,0.395-2.508,0.912-3.359,1.552c-0.854,0.64-2.027,1.686-3.521,3.136
			c-0.383,0.363-0.82,0.544-1.311,0.544c-0.492,0-0.973-0.24-1.441-0.72s-0.703-0.986-0.703-1.52c0-0.533,0.277-1.035,0.832-1.504
			c5.332-4.395,9.6-8.139,12.799-11.232c-2.814,0.448-5.439,0.672-7.871,0.672c-0.555,0-0.982-0.187-1.279-0.56
			c-0.299-0.373-0.449-0.869-0.449-1.488s0.154-1.104,0.465-1.456c0.309-0.352,0.73-0.528,1.264-0.528
			c3.713,0,6.619-0.096,8.721-0.288c2.1-0.192,3.227-0.288,3.375-0.288c0.576,0,1.057,0.219,1.439,0.656
			c0.385,0.438,0.576,0.987,0.576,1.648c0,0.662-0.287,1.227-0.863,1.696L635.938,325.984z M638.338,338.336
			c-0.49-1.066-1.045-1.834-1.664-2.304s-1.168-0.704-1.648-0.704c-0.479,0-0.826,0.118-1.039,0.352
			c-0.213,0.235-0.32,0.491-0.32,0.768c0,0.512,0.373,0.96,1.119,1.344c0.748,0.384,1.697,0.576,2.85,0.576
			C637.869,338.368,638.104,338.357,638.338,338.336z"/>
	</g>
	<g>
		<path style="fill:#FFFFFF;" d="M83.841,207.364h11.071v15.871h-4.704v-12.191h-6.368V207.364z M89.216,202.18
			c0-1.728,1.312-2.943,3.136-2.943c1.824,0,3.136,1.216,3.136,2.943c0,1.728-1.312,2.848-3.136,2.848
			C90.528,205.028,89.216,203.908,89.216,202.18z"/>
		<path style="fill:#FFFFFF;" d="M102.816,207.364h3.84l0.352,2.112h0.128c1.376-1.344,3.104-2.496,5.472-2.496
			c3.583,0,5.184,2.464,5.184,6.463v9.792h-4.704v-9.183c0-2.112-0.608-3.072-2.336-3.072c-1.28,0-2.112,0.576-3.232,1.664v10.591
			h-4.704V207.364z"/>
		<path style="fill:#FFFFFF;" d="M125.28,211.044h-3.967v-3.488l4.191-0.192l0.608-4.224h3.872v4.224h6.688v3.68h-6.688v5.567
			c0,2.4,1.024,3.328,3.328,3.328c1.216,0,2.272-0.256,3.2-0.576l0.832,3.392c-1.408,0.416-3.168,0.864-5.216,0.864
			c-5.056,0-6.848-2.815-6.848-6.975V211.044z"/>
		<path style="fill:#FFFFFF;" d="M148.927,206.98c4.896,0,7.456,3.296,7.456,7.616c0,0.832-0.128,1.6-0.192,1.983h-10.688
			c0.448,2.4,2.272,3.456,4.608,3.456c1.44,0,2.688-0.384,4.096-1.088l1.536,2.816c-1.792,1.152-4.16,1.855-6.271,1.855
			c-4.928,0-8.799-3.072-8.799-8.319C140.672,210.116,144.704,206.98,148.927,206.98z M152.127,213.667
			c0-1.824-0.96-3.104-3.104-3.104c-1.696,0-3.2,0.992-3.584,3.104H152.127z"/>
		<path style="fill:#FFFFFF;" d="M161.824,207.364h3.839l0.384,3.456h0.096c1.568-2.592,3.904-3.84,6.432-3.84
			c1.408,0,2.144,0.224,3.072,0.64l-0.96,3.936c-0.992-0.288-1.632-0.448-2.816-0.448c-1.952,0-4,1.024-5.343,3.872v8.255h-4.704
			V207.364z"/>
		<path style="fill:#FFFFFF;" d="M195.134,204.74c-0.992-0.384-2.112-0.608-3.328-0.608c-2.016,0-2.976,0.864-2.976,2.784v0.448
			h5.472v3.68h-5.472v12.191h-4.704v-12.191h-4.191v-3.488l4.191-0.192v-0.416c0-3.648,2.144-6.528,7.104-6.528
			c1.823,0,3.455,0.416,4.799,0.864L195.134,204.74z"/>
		<path style="fill:#FFFFFF;" d="M208.926,213.028c-0.16-1.44-1.248-2.304-3.392-2.304c-1.536,0-3.04,0.576-4.832,1.472
			l-1.664-3.072c2.177-1.248,4.704-2.144,7.424-2.144c4.448,0,7.168,2.304,7.168,7.167v9.087h-3.84l-0.353-1.792h-0.128
			c-1.6,1.216-3.584,2.176-5.631,2.176c-3.2,0-5.216-2.112-5.216-4.799C198.463,215.268,201.407,213.476,208.926,213.028z
			 M205.182,219.971c1.408,0,2.624-0.64,3.744-1.504v-2.624c-4.672,0.256-5.951,1.248-5.951,2.624
			C202.975,219.491,203.838,219.971,205.182,219.971z"/>
		<path style="fill:#FFFFFF;" d="M227.038,206.98c2.496,0,4.607,0.896,5.951,2.144l-2.176,2.912
			c-1.216-0.864-2.336-1.248-3.52-1.248c-2.72,0-4.607,1.76-4.607,4.512c0,2.752,1.824,4.512,4.447,4.512
			c1.664,0,3.072-0.704,4.192-1.504l1.92,2.976c-1.92,1.6-4.384,2.335-6.56,2.335c-4.992,0-8.832-3.04-8.832-8.319
			C217.854,210.02,222.142,206.98,227.038,206.98z"/>
		<path style="fill:#FFFFFF;" d="M244.925,206.98c4.896,0,7.455,3.296,7.455,7.616c0,0.832-0.128,1.6-0.192,1.983h-10.687
			c0.447,2.4,2.271,3.456,4.607,3.456c1.439,0,2.688-0.384,4.096-1.088l1.536,2.816c-1.792,1.152-4.16,1.855-6.271,1.855
			c-4.928,0-8.8-3.072-8.8-8.319C236.669,210.116,240.702,206.98,244.925,206.98z M248.125,213.667c0-1.824-0.96-3.104-3.104-3.104
			c-1.696,0-3.2,0.992-3.584,3.104H248.125z"/>
		<path style="fill:#FFFFFF;" d="M275.356,202.373h4.704v8.031h5.695v-8.031h4.703v20.862h-4.703v-8.704h-5.695v8.704h-4.704
			V202.373z"/>
		<path style="fill:#FFFFFF;" d="M302.523,206.98c4.896,0,7.455,3.296,7.455,7.616c0,0.832-0.128,1.6-0.192,1.983h-10.687
			c0.447,2.4,2.271,3.456,4.607,3.456c1.439,0,2.688-0.384,4.096-1.088l1.536,2.816c-1.792,1.152-4.16,1.855-6.271,1.855
			c-4.928,0-8.8-3.072-8.8-8.319C294.267,210.116,298.299,206.98,302.523,206.98z M305.722,213.667c0-1.824-0.96-3.104-3.104-3.104
			c-1.696,0-3.2,0.992-3.584,3.104H305.722z"/>
		<path style="fill:#FFFFFF;" d="M313.69,200.805h9.312v16.415c0,1.952,1.248,2.592,2.561,2.592c0.735,0,1.504-0.128,2.495-0.512
			l1.056,3.456c-1.663,0.512-2.783,0.864-4.768,0.864c-3.999,0-6.047-2.56-6.047-6.591v-12.511h-4.608V200.805z"/>
		<path style="fill:#FFFFFF;" d="M332.889,200.805h9.312v16.415c0,1.952,1.248,2.592,2.561,2.592c0.735,0,1.504-0.128,2.495-0.512
			l1.056,3.456c-1.663,0.512-2.783,0.864-4.768,0.864c-3.999,0-6.047-2.56-6.047-6.591v-12.511h-4.608V200.805z"/>
		<path style="fill:#FFFFFF;" d="M359.705,206.98c4.191,0,8.095,3.04,8.095,8.319c0,5.28-3.903,8.319-8.095,8.319
			c-4.192,0-8.096-3.04-8.096-8.319C351.609,210.02,355.512,206.98,359.705,206.98z M359.705,219.811
			c2.176,0,3.264-1.76,3.264-4.512c0-2.751-1.088-4.512-3.264-4.512s-3.264,1.76-3.264,4.512
			C356.441,218.051,357.529,219.811,359.705,219.811z"/>
		<path style="fill:#FFFFFF;" d="M396.279,218.083c0-1.12-0.928-2.304-4.384-2.368v-2.752c3.456-0.064,4.384-1.248,4.384-2.368
			c0-1.984-0.32-3.231-0.32-5.472c0-3.456,1.856-4.543,5.952-4.543h2.464v2.496h-1.313c-2.655,0-3.264,0.448-3.264,2.24
			c0,1.696,0.16,3.328,0.16,5.215c0,2.432-0.928,3.36-3.199,3.744v0.128c2.271,0.384,3.199,1.312,3.199,3.744
			c0,1.952-0.16,3.487-0.16,5.215c0,1.792,0.608,2.24,3.264,2.24h1.313v2.496h-2.464c-4.096,0-5.952-1.088-5.952-4.544
			C395.958,221.283,396.279,220.099,396.279,218.083z"/>
		<path style="fill:#FFFFFF;" d="M159.104,245.364h4.736l2.496,7.487c0.512,1.6,0.959,3.231,1.439,4.896h0.128
			c0.48-1.664,0.896-3.296,1.408-4.896l2.496-7.487h4.512l-5.823,15.871h-5.408L159.104,245.364z"/>
		<path style="fill:#FFFFFF;" d="M186.911,244.98c4.191,0,8.096,3.04,8.096,8.319c0,5.28-3.904,8.319-8.096,8.319
			s-8.095-3.04-8.095-8.319C178.815,248.02,182.719,244.98,186.911,244.98z M186.911,257.811c2.176,0,3.264-1.76,3.264-4.512
			c0-2.751-1.088-4.512-3.264-4.512s-3.264,1.76-3.264,4.512C183.647,256.051,184.735,257.811,186.911,257.811z"/>
		<path style="fill:#FFFFFF;" d="M199.039,245.364h11.071v15.871h-4.703v-12.191h-6.368V245.364z M204.415,240.18
			c0-1.728,1.312-2.943,3.136-2.943s3.136,1.216,3.136,2.943c0,1.728-1.312,2.848-3.136,2.848S204.415,241.908,204.415,240.18z"/>
		<path style="fill:#FFFFFF;" d="M223.998,244.98c1.824,0,2.944,0.672,4.064,1.696l-0.16-2.464v-5.407h4.703v22.43h-3.84
			l-0.352-1.632h-0.096c-1.185,1.152-2.816,2.016-4.416,2.016c-4.031,0-6.688-3.136-6.688-8.319S220.542,244.98,223.998,244.98z
			 M225.118,257.779c1.056,0,1.952-0.416,2.784-1.472v-6.432c-0.864-0.768-1.729-1.056-2.656-1.056
			c-1.728,0-3.199,1.408-3.199,4.416C222.046,256.371,223.166,257.779,225.118,257.779z"/>
		<path style="fill:#FFFFFF;" d="M257.917,256.243c1.824,1.152,3.647,1.888,5.76,1.888c2.144,0,3.04-0.512,3.04-1.344
			c0-0.96-1.696-1.504-4.256-2.208c-2.784-0.768-5.664-2.112-5.664-4.64c0-2.943,2.784-4.959,7.328-4.959
			c2.815,0,5.184,1.12,6.847,2.176l-2.111,2.816c-1.44-0.864-2.976-1.504-4.64-1.504c-1.984,0-2.752,0.448-2.752,1.248
			c0,0.96,1.824,1.44,4.063,2.016c3.136,0.832,5.855,2.016,5.855,4.768c0,2.88-2.72,5.12-7.807,5.12
			c-2.849,0-5.76-1.088-7.775-2.432L257.917,256.243z"/>
		<path style="fill:#FFFFFF;" d="M285.723,251.028c-0.16-1.44-1.248-2.304-3.392-2.304c-1.536,0-3.04,0.576-4.832,1.472
			l-1.664-3.072c2.177-1.248,4.704-2.144,7.424-2.144c4.448,0,7.168,2.304,7.168,7.167v9.087h-3.84l-0.353-1.792h-0.128
			c-1.6,1.216-3.584,2.176-5.631,2.176c-3.2,0-5.216-2.112-5.216-4.799C275.26,253.268,278.204,251.476,285.723,251.028z
			 M281.979,257.971c1.408,0,2.624-0.64,3.744-1.504v-2.624c-4.672,0.256-5.951,1.248-5.951,2.624
			C279.772,257.491,280.635,257.971,281.979,257.971z"/>
		<path style="fill:#FFFFFF;" d="M296.731,263.73c1.824,0,2.815-0.832,3.328-2.08l0.319-0.832l-6.879-15.455h4.672l2.655,6.815
			c0.576,1.504,1.088,3.104,1.6,4.768h0.128c0.416-1.568,0.96-3.2,1.44-4.768l2.336-6.815h4.447l-6.271,16.031
			c-1.536,4-3.424,6.047-7.424,6.047c-0.928,0-1.76-0.128-2.432-0.32l0.832-3.584C295.899,263.667,296.315,263.73,296.731,263.73z"
			/>
		<path style="fill:#FFFFFF;" d="M313.754,240.373h4.704v8.031h5.695v-8.031h4.703v20.862h-4.703v-8.704h-5.695v8.704h-4.704
			V240.373z"/>
		<path style="fill:#FFFFFF;" d="M340.921,244.98c4.896,0,7.455,3.296,7.455,7.616c0,0.832-0.128,1.6-0.192,1.983h-10.687
			c0.447,2.4,2.271,3.456,4.607,3.456c1.439,0,2.688-0.384,4.096-1.088l1.536,2.816c-1.792,1.152-4.16,1.855-6.271,1.855
			c-4.928,0-8.8-3.072-8.8-8.319C332.666,248.116,336.698,244.98,340.921,244.98z M344.121,251.667c0-1.824-0.96-3.104-3.104-3.104
			c-1.696,0-3.2,0.992-3.584,3.104H344.121z"/>
		<path style="fill:#FFFFFF;" d="M352.088,238.805h9.312v16.415c0,1.952,1.248,2.592,2.561,2.592c0.735,0,1.504-0.128,2.495-0.512
			l1.056,3.456c-1.663,0.512-2.783,0.864-4.768,0.864c-3.999,0-6.047-2.56-6.047-6.591v-12.511h-4.608V238.805z"/>
		<path style="fill:#FFFFFF;" d="M371.288,238.805h9.312v16.415c0,1.952,1.248,2.592,2.561,2.592c0.735,0,1.504-0.128,2.495-0.512
			l1.056,3.456c-1.663,0.512-2.783,0.864-4.768,0.864c-3.999,0-6.047-2.56-6.047-6.591v-12.511h-4.608V238.805z"/>
		<path style="fill:#FFFFFF;" d="M398.103,244.98c4.191,0,8.095,3.04,8.095,8.319c0,5.28-3.903,8.319-8.095,8.319
			c-4.192,0-8.096-3.04-8.096-8.319C390.007,248.02,393.911,244.98,398.103,244.98z M398.103,257.811
			c2.176,0,3.264-1.76,3.264-4.512c0-2.751-1.088-4.512-3.264-4.512s-3.264,1.76-3.264,4.512
			C394.839,256.051,395.927,257.811,398.103,257.811z"/>
		<path style="fill:#FFFFFF;" d="M413.495,252.339c0-6.016,2.592-10.943,6.751-14.623l2.624,2.08
			c-3.808,3.712-5.439,7.487-5.439,12.543s1.632,8.832,5.439,12.543l-2.624,2.08C416.086,263.283,413.495,258.355,413.495,252.339z"
			/>
		<path style="fill:#FFFFFF;" d="M431.221,255.379c1.568,1.28,3.521,2.176,5.344,2.176c2.176,0,3.136-0.768,3.136-2.016
			c0-1.312-1.216-1.728-3.231-2.496l-2.688-1.152c-2.336-0.864-4.448-2.656-4.448-5.696c0-3.456,3.136-6.208,7.647-6.208
			c2.528,0,5.056,0.96,6.943,2.752l-2.399,2.976c-1.44-1.056-2.752-1.664-4.544-1.664c-1.823,0-2.88,0.704-2.88,1.888
			c0,1.28,1.408,1.728,3.424,2.464l2.528,1.088c2.752,1.024,4.479,2.72,4.479,5.664c0,3.456-2.912,6.463-8.096,6.463
			c-2.815,0-5.695-1.024-7.936-3.008L431.221,255.379z"/>
		<path style="fill:#FFFFFF;" d="M451.668,249.044h-3.968v-3.488l4.192-0.192l0.607-4.224h3.872v4.224h6.688v3.68h-6.688v5.567
			c0,2.4,1.023,3.328,3.327,3.328c1.216,0,2.272-0.256,3.2-0.576l0.832,3.392c-1.408,0.416-3.168,0.864-5.216,0.864
			c-5.056,0-6.848-2.815-6.848-6.975V249.044z"/>
		<path style="fill:#FFFFFF;" d="M469.012,245.364h3.84l0.384,3.456h0.096c1.568-2.592,3.904-3.84,6.432-3.84
			c1.408,0,2.144,0.224,3.072,0.64l-0.96,3.936c-0.992-0.288-1.632-0.448-2.816-0.448c-1.951,0-3.999,1.024-5.344,3.872v8.255
			h-4.703V245.364z"/>
		<path style="fill:#FFFFFF;" d="M487.027,245.364h11.071v15.871h-4.703v-12.191h-6.368V245.364z M492.403,240.18
			c0-1.728,1.312-2.943,3.136-2.943s3.136,1.216,3.136,2.943c0,1.728-1.312,2.848-3.136,2.848S492.403,241.908,492.403,240.18z"/>
		<path style="fill:#FFFFFF;" d="M506.002,245.364h3.84l0.352,2.112h0.128c1.376-1.344,3.104-2.496,5.471-2.496
			c3.584,0,5.184,2.464,5.184,6.463v9.792h-4.703v-9.183c0-2.112-0.607-3.072-2.336-3.072c-1.28,0-2.112,0.576-3.231,1.664v10.591
			h-4.704V245.364z"/>
		<path style="fill:#FFFFFF;" d="M527.025,260.755v-0.128c-0.863-0.544-1.6-1.376-1.6-2.72c0-1.056,0.768-2.208,1.889-2.976v-0.128
			c-1.152-0.768-2.08-2.208-2.08-4.063c0-3.808,3.199-5.76,6.783-5.76c0.959,0,1.855,0.128,2.623,0.384h6.432v3.423h-3.23
			c0.383,0.48,0.734,1.28,0.734,2.112c0,3.648-2.879,5.312-6.559,5.312c-0.641,0-1.377-0.096-2.176-0.32
			c-0.48,0.352-0.705,0.64-0.705,1.152c0,0.864,0.832,1.216,2.689,1.216h2.943c4.16,0,6.432,1.152,6.432,4
			c0,3.328-3.68,5.728-9.439,5.728c-4.129,0-7.199-1.216-7.199-4.063C524.563,262.643,525.395,261.555,527.025,260.755z
			 M532.434,265.042c2.527,0,4.287-0.864,4.287-1.952c0-1.024-0.959-1.248-2.783-1.248h-1.984c-1.152,0-1.855-0.064-2.432-0.192
			c-0.801,0.512-1.119,0.992-1.119,1.568C528.402,264.403,529.938,265.042,532.434,265.042z M534.449,250.74
			c0-1.696-1.119-2.592-2.432-2.592s-2.367,0.896-2.367,2.592c0,1.728,1.055,2.624,2.367,2.624S534.449,252.467,534.449,250.74z"/>
		<path style="fill:#FFFFFF;" d="M563.6,245.364h3.84l0.352,2.112h0.129c1.375-1.344,3.104-2.496,5.471-2.496
			c3.584,0,5.184,2.464,5.184,6.463v9.792h-4.703v-9.183c0-2.112-0.607-3.072-2.336-3.072c-1.279,0-2.111,0.576-3.23,1.664v10.591
			H563.6V245.364z"/>
		<path style="fill:#FFFFFF;" d="M592.91,251.028c-0.16-1.44-1.248-2.304-3.391-2.304c-1.537,0-3.041,0.576-4.832,1.472
			l-1.664-3.072c2.176-1.248,4.703-2.144,7.424-2.144c4.447,0,7.168,2.304,7.168,7.167v9.087h-3.84l-0.354-1.792h-0.127
			c-1.6,1.216-3.584,2.176-5.631,2.176c-3.201,0-5.217-2.112-5.217-4.799C582.447,253.268,585.391,251.476,592.91,251.028z
			 M589.166,257.971c1.408,0,2.625-0.64,3.744-1.504v-2.624c-4.672,0.256-5.951,1.248-5.951,2.624
			C586.959,257.491,587.822,257.971,589.166,257.971z"/>
		<path style="fill:#FFFFFF;" d="M600.848,245.364h3.52l0.352,1.983h0.127c0.609-1.312,1.568-2.368,3.393-2.368
			c1.408,0,2.4,0.896,2.783,2.592c0.576-1.44,1.697-2.592,3.488-2.592c2.207,0,3.52,1.952,3.52,5.12v11.135h-4.416v-10.783
			c0-0.992-0.256-1.472-0.895-1.472c-0.609,0-1.057,0.512-1.473,1.536v10.719h-3.615v-10.783c0-0.992-0.32-1.472-0.928-1.472
			c-0.609,0-0.992,0.512-1.441,1.536v10.719h-4.414V245.364z"/>
		<path style="fill:#FFFFFF;" d="M628.91,244.98c4.895,0,7.455,3.296,7.455,7.616c0,0.832-0.129,1.6-0.193,1.983h-10.686
			c0.447,2.4,2.271,3.456,4.607,3.456c1.439,0,2.688-0.384,4.096-1.088l1.535,2.816c-1.791,1.152-4.16,1.855-6.271,1.855
			c-4.928,0-8.799-3.072-8.799-8.319C620.654,248.116,624.686,244.98,628.91,244.98z M632.109,251.667
			c0-1.824-0.961-3.104-3.104-3.104c-1.697,0-3.201,0.992-3.584,3.104H632.109z"/>
		<path style="fill:#FFFFFF;" d="M642.125,264.883c3.809-3.712,5.439-7.488,5.439-12.543s-1.631-8.831-5.439-12.543l2.623-2.08
			c4.16,3.68,6.752,8.607,6.752,14.623s-2.592,10.943-6.752,14.623L642.125,264.883z"/>
		<path style="fill:#FFFFFF;" d="M663.115,265.427c2.785-0.96,4.16-2.528,4.16-4.544c-0.127,0.032-0.223,0.032-0.352,0.032
			c-1.791,0-3.455-1.152-3.455-3.264c0-1.984,1.6-3.296,3.584-3.296c2.623,0,3.967,2.048,3.967,5.503
			c0,4.064-2.305,6.976-6.719,8.319L663.115,265.427z M663.18,247.508c0-2.08,1.504-3.744,3.713-3.744
			c2.207,0,3.711,1.664,3.711,3.744c0,2.112-1.504,3.776-3.711,3.776C664.684,251.284,663.18,249.62,663.18,247.508z"/>
		<path style="fill:#F15A24;" d="M166.399,358.98c1.824,0,2.943,0.672,4.063,1.696l-0.16-2.464v-5.407h4.704v22.43h-3.839
			l-0.352-1.632h-0.096c-1.184,1.152-2.815,2.016-4.416,2.016c-4.032,0-6.688-3.136-6.688-8.319S162.943,358.98,166.399,358.98z
			 M167.519,371.779c1.056,0,1.952-0.416,2.784-1.472v-6.432c-0.864-0.768-1.728-1.056-2.656-1.056c-1.728,0-3.2,1.408-3.2,4.416
			C164.447,370.371,165.567,371.779,167.519,371.779z"/>
		<path style="fill:#F15A24;" d="M187.327,358.98c4.896,0,7.456,3.296,7.456,7.616c0,0.832-0.129,1.6-0.192,1.983h-10.688
			c0.448,2.4,2.272,3.456,4.608,3.456c1.44,0,2.688-0.384,4.095-1.088l1.536,2.816c-1.792,1.152-4.16,1.855-6.271,1.855
			c-4.928,0-8.799-3.072-8.799-8.319C179.071,362.116,183.103,358.98,187.327,358.98z M190.526,365.667
			c0-1.824-0.96-3.104-3.104-3.104c-1.696,0-3.2,0.992-3.584,3.104H190.526z"/>
		<path style="fill:#F15A24;" d="M214.333,356.74c-0.991-0.384-2.111-0.608-3.327-0.608c-2.016,0-2.976,0.864-2.976,2.784v0.448
			h5.472v3.68h-5.472v12.191h-4.704v-12.191h-4.191v-3.488l4.191-0.192v-0.416c0-3.648,2.144-6.528,7.104-6.528
			c1.824,0,3.456,0.416,4.8,0.864L214.333,356.74z"/>
		<path style="fill:#F15A24;" d="M228.125,365.028c-0.16-1.44-1.248-2.304-3.392-2.304c-1.536,0-3.04,0.576-4.832,1.472
			l-1.664-3.072c2.177-1.248,4.704-2.144,7.424-2.144c4.448,0,7.168,2.304,7.168,7.167v9.087h-3.84l-0.353-1.792h-0.128
			c-1.6,1.216-3.584,2.176-5.631,2.176c-3.2,0-5.216-2.112-5.216-4.799C217.663,367.268,220.606,365.476,228.125,365.028z
			 M224.381,371.971c1.408,0,2.624-0.64,3.744-1.504v-2.624c-4.672,0.256-5.951,1.248-5.951,2.624
			C222.174,371.491,223.038,371.971,224.381,371.971z"/>
		<path style="fill:#F15A24;" d="M251.708,375.235h-3.84l-0.352-2.272h-0.128c-1.408,1.6-3.072,2.656-5.344,2.656
			c-3.616,0-5.152-2.464-5.152-6.463v-9.791h4.704v9.183c0,2.112,0.544,3.072,2.304,3.072c1.184,0,2.016-0.416,3.104-1.824v-10.431
			h4.704V375.235z"/>
		<path style="fill:#F15A24;" d="M256.092,352.805h9.312v16.415c0,1.952,1.248,2.592,2.561,2.592c0.735,0,1.504-0.128,2.495-0.512
			l1.056,3.456c-1.663,0.512-2.783,0.864-4.768,0.864c-3.999,0-6.047-2.56-6.047-6.591v-12.511h-4.608V352.805z"/>
		<path style="fill:#F15A24;" d="M278.875,363.044h-3.968v-3.488l4.192-0.192l0.607-4.224h3.872v4.224h6.688v3.68h-6.688v5.567
			c0,2.4,1.023,3.328,3.327,3.328c1.216,0,2.272-0.256,3.2-0.576l0.832,3.392c-1.408,0.416-3.168,0.864-5.216,0.864
			c-5.056,0-6.848-2.815-6.848-6.975V363.044z"/>
		<path style="fill:#FFFFFF;" d="M312.699,359.364h4.735l2.496,7.487c0.512,1.6,0.96,3.231,1.439,4.896h0.128
			c0.48-1.664,0.896-3.296,1.408-4.896l2.496-7.487h4.512l-5.824,15.871h-5.407L312.699,359.364z"/>
		<path style="fill:#FFFFFF;" d="M340.505,358.98c4.191,0,8.095,3.04,8.095,8.319c0,5.28-3.903,8.319-8.095,8.319
			c-4.192,0-8.096-3.04-8.096-8.319C332.41,362.02,336.313,358.98,340.505,358.98z M340.505,371.811c2.176,0,3.264-1.76,3.264-4.512
			c0-2.751-1.088-4.512-3.264-4.512s-3.264,1.76-3.264,4.512C337.242,370.051,338.33,371.811,340.505,371.811z"/>
		<path style="fill:#FFFFFF;" d="M352.632,359.364h11.071v15.871H359v-12.191h-6.368V359.364z M358.008,354.18
			c0-1.728,1.312-2.943,3.136-2.943s3.136,1.216,3.136,2.943c0,1.728-1.312,2.848-3.136,2.848S358.008,355.908,358.008,354.18z"/>
		<path style="fill:#FFFFFF;" d="M377.591,358.98c1.824,0,2.944,0.672,4.064,1.696l-0.16-2.464v-5.407h4.703v22.43h-3.84
			l-0.352-1.632h-0.096c-1.185,1.152-2.816,2.016-4.416,2.016c-4.031,0-6.688-3.136-6.688-8.319S374.136,358.98,377.591,358.98z
			 M378.711,371.779c1.056,0,1.952-0.416,2.784-1.472v-6.432c-0.864-0.768-1.729-1.056-2.656-1.056
			c-1.728,0-3.199,1.408-3.199,4.416C375.64,370.371,376.759,371.779,378.711,371.779z"/>
		<path style="fill:#FFFFFF;" d="M411.51,370.243c1.824,1.152,3.647,1.888,5.76,1.888c2.144,0,3.04-0.512,3.04-1.344
			c0-0.96-1.696-1.504-4.256-2.208c-2.784-0.768-5.664-2.112-5.664-4.64c0-2.943,2.784-4.959,7.328-4.959
			c2.815,0,5.184,1.12,6.847,2.176l-2.111,2.816c-1.44-0.864-2.976-1.504-4.64-1.504c-1.984,0-2.752,0.448-2.752,1.248
			c0,0.96,1.824,1.44,4.063,2.016c3.136,0.832,5.855,2.016,5.855,4.768c0,2.88-2.72,5.12-7.807,5.12
			c-2.849,0-5.76-1.088-7.775-2.432L411.51,370.243z"/>
		<path style="fill:#FFFFFF;" d="M439.317,365.028c-0.16-1.44-1.248-2.304-3.392-2.304c-1.536,0-3.04,0.576-4.832,1.472
			l-1.664-3.072c2.177-1.248,4.704-2.144,7.424-2.144c4.448,0,7.168,2.304,7.168,7.167v9.087h-3.84l-0.353-1.792h-0.128
			c-1.6,1.216-3.584,2.176-5.631,2.176c-3.2,0-5.216-2.112-5.216-4.799C428.854,367.268,431.797,365.476,439.317,365.028z
			 M435.573,371.971c1.408,0,2.624-0.64,3.744-1.504v-2.624c-4.672,0.256-5.951,1.248-5.951,2.624
			C433.366,371.491,434.229,371.971,435.573,371.971z"/>
		<path style="fill:#FFFFFF;" d="M450.325,377.73c1.824,0,2.815-0.832,3.328-2.08l0.319-0.832l-6.879-15.455h4.672l2.655,6.815
			c0.576,1.504,1.088,3.104,1.6,4.768h0.128c0.416-1.568,0.96-3.2,1.44-4.768l2.336-6.815h4.447l-6.271,16.031
			c-1.536,4-3.424,6.047-7.424,6.047c-0.928,0-1.76-0.128-2.432-0.32l0.832-3.584C449.493,377.667,449.909,377.73,450.325,377.73z"
			/>
		<path style="fill:#FFFFFF;" d="M476.339,353.988c2.816,0,4.768,1.312,6.111,2.656l-2.592,2.912
			c-0.896-0.896-1.855-1.504-3.52-1.504c-2.72,0-4.768,2.528-4.768,6.719c0,4.288,1.664,6.784,4.96,6.784
			c0.8,0,1.6-0.224,2.048-0.64v-3.583h-3.04v-3.84h7.264v9.599c-1.408,1.312-3.872,2.528-6.527,2.528
			c-5.344,0-9.567-3.68-9.567-10.687C466.708,357.956,470.932,353.988,476.339,353.988z"/>
		<path style="fill:#FFFFFF;" d="M494.099,358.98c4.191,0,8.095,3.04,8.095,8.319c0,5.28-3.903,8.319-8.095,8.319
			c-4.192,0-8.096-3.04-8.096-8.319C486.003,362.02,489.907,358.98,494.099,358.98z M494.099,371.811
			c2.176,0,3.264-1.76,3.264-4.512c0-2.751-1.088-4.512-3.264-4.512s-3.264,1.76-3.264,4.512
			C490.835,370.051,491.923,371.811,494.099,371.811z"/>
		<path style="fill:#FFFFFF;" d="M513.299,358.98c4.191,0,8.094,3.04,8.094,8.319c0,5.28-3.902,8.319-8.094,8.319
			c-4.193,0-8.096-3.04-8.096-8.319C505.203,362.02,509.106,358.98,513.299,358.98z M513.299,371.811
			c2.176,0,3.264-1.76,3.264-4.512c0-2.751-1.088-4.512-3.264-4.512c-2.176,0-3.264,1.76-3.264,4.512
			C510.035,370.051,511.123,371.811,513.299,371.811z"/>
		<path style="fill:#FFFFFF;" d="M531.186,358.98c1.824,0,2.943,0.672,4.064,1.696l-0.16-2.464v-5.407h4.703v22.43h-3.84
			l-0.352-1.632h-0.096c-1.186,1.152-2.816,2.016-4.416,2.016c-4.031,0-6.688-3.136-6.688-8.319S527.73,358.98,531.186,358.98z
			 M532.305,371.779c1.057,0,1.953-0.416,2.785-1.472v-6.432c-0.865-0.768-1.729-1.056-2.656-1.056
			c-1.729,0-3.199,1.408-3.199,4.416C529.234,370.371,530.354,371.779,532.305,371.779z"/>
		<path style="fill:#FFFFFF;" d="M544.4,352.805h4.705v5.503l-0.129,2.496c1.248-1.152,2.881-1.824,4.416-1.824
			c3.967,0,6.398,3.168,6.398,8.031c0,5.472-3.326,8.607-6.879,8.607c-1.471,0-3.008-0.736-4.32-2.112h-0.127l-0.385,1.728h-3.68
			V352.805z M551.857,371.779c1.727,0,3.104-1.408,3.104-4.672c0-2.848-0.928-4.288-2.912-4.288c-1.023,0-1.953,0.448-2.943,1.472
			v6.432C550,371.491,551.025,371.779,551.857,371.779z"/>
		<path style="fill:#FFFFFF;" d="M565.52,377.73c1.824,0,2.816-0.832,3.328-2.08l0.32-0.832l-6.879-15.455h4.672l2.654,6.815
			c0.576,1.504,1.088,3.104,1.6,4.768h0.129c0.416-1.568,0.959-3.2,1.439-4.768l2.336-6.815h4.447l-6.271,16.031
			c-1.535,4-3.424,6.047-7.424,6.047c-0.928,0-1.76-0.128-2.432-0.32l0.832-3.584C564.688,377.667,565.104,377.73,565.52,377.73z"/>
		<path style="fill:#FFFFFF;" d="M590.512,358.98c4.895,0,7.455,3.296,7.455,7.616c0,0.832-0.129,1.6-0.193,1.983h-10.686
			c0.447,2.4,2.271,3.456,4.607,3.456c1.439,0,2.688-0.384,4.096-1.088l1.535,2.816c-1.791,1.152-4.16,1.855-6.271,1.855
			c-4.928,0-8.799-3.072-8.799-8.319C582.256,362.116,586.287,358.98,590.512,358.98z M593.711,365.667
			c0-1.824-0.961-3.104-3.104-3.104c-1.697,0-3.201,0.992-3.584,3.104H593.711z"/>
		<path style="fill:#FFFFFF;" d="M605.486,366.339c0-6.016,2.592-10.943,6.752-14.623l2.623,2.08
			c-3.807,3.712-5.439,7.487-5.439,12.543s1.633,8.832,5.439,12.543l-2.623,2.08C608.078,377.283,605.486,372.355,605.486,366.339z"
			/>
		<path style="fill:#FFFFFF;" d="M623.213,369.379c1.568,1.28,3.521,2.176,5.344,2.176c2.176,0,3.137-0.768,3.137-2.016
			c0-1.312-1.217-1.728-3.232-2.496l-2.688-1.152c-2.336-0.864-4.447-2.656-4.447-5.696c0-3.456,3.135-6.208,7.646-6.208
			c2.529,0,5.057,0.96,6.943,2.752l-2.398,2.976c-1.441-1.056-2.752-1.664-4.545-1.664c-1.822,0-2.879,0.704-2.879,1.888
			c0,1.28,1.408,1.728,3.424,2.464l2.527,1.088c2.752,1.024,4.48,2.72,4.48,5.664c0,3.456-2.912,6.463-8.096,6.463
			c-2.816,0-5.695-1.024-7.936-3.008L623.213,369.379z"/>
		<path style="fill:#FFFFFF;" d="M643.66,363.044h-3.967v-3.488l4.191-0.192l0.607-4.224h3.873v4.224h6.688v3.68h-6.688v5.567
			c0,2.4,1.023,3.328,3.326,3.328c1.217,0,2.273-0.256,3.201-0.576l0.832,3.392c-1.408,0.416-3.168,0.864-5.217,0.864
			c-5.055,0-6.848-2.815-6.848-6.975V363.044z"/>
		<path style="fill:#FFFFFF;" d="M661.004,359.364h3.84l0.385,3.456h0.096c1.568-2.592,3.904-3.84,6.432-3.84
			c1.408,0,2.143,0.224,3.072,0.64l-0.961,3.936c-0.992-0.288-1.631-0.448-2.816-0.448c-1.951,0-3.998,1.024-5.344,3.872v8.255
			h-4.703V359.364z"/>
		<path style="fill:#FFFFFF;" d="M679.02,359.364h11.07v15.871h-4.703v-12.191h-6.367V359.364z M684.395,354.18
			c0-1.728,1.313-2.943,3.137-2.943s3.135,1.216,3.135,2.943c0,1.728-1.311,2.848-3.135,2.848S684.395,355.908,684.395,354.18z"/>
		<path style="fill:#FFFFFF;" d="M697.994,359.364h3.84l0.352,2.112h0.129c1.375-1.344,3.104-2.496,5.471-2.496
			c3.584,0,5.184,2.464,5.184,6.463v9.792h-4.703v-9.183c0-2.112-0.607-3.072-2.336-3.072c-1.279,0-2.111,0.576-3.23,1.664v10.591
			h-4.705V359.364z"/>
		<path style="fill:#FFFFFF;" d="M719.018,374.755v-0.128c-0.863-0.544-1.6-1.376-1.6-2.72c0-1.056,0.768-2.208,1.889-2.976v-0.128
			c-1.152-0.768-2.08-2.208-2.08-4.063c0-3.808,3.199-5.76,6.783-5.76c0.959,0,1.855,0.128,2.623,0.384h6.432v3.423h-3.23
			c0.383,0.48,0.734,1.28,0.734,2.112c0,3.648-2.879,5.312-6.559,5.312c-0.641,0-1.377-0.096-2.176-0.32
			c-0.48,0.352-0.705,0.64-0.705,1.152c0,0.864,0.832,1.216,2.689,1.216h2.943c4.16,0,6.432,1.152,6.432,4
			c0,3.328-3.68,5.728-9.439,5.728c-4.129,0-7.199-1.216-7.199-4.063C716.555,376.643,717.387,375.555,719.018,374.755z
			 M724.426,379.042c2.527,0,4.287-0.864,4.287-1.952c0-1.024-0.959-1.248-2.783-1.248h-1.984c-1.152,0-1.855-0.064-2.432-0.192
			c-0.801,0.512-1.119,0.992-1.119,1.568C720.395,378.403,721.93,379.042,724.426,379.042z M726.441,364.74
			c0-1.696-1.119-2.592-2.432-2.592s-2.367,0.896-2.367,2.592c0,1.728,1.055,2.624,2.367,2.624S726.441,366.467,726.441,364.74z"/>
		<path style="fill:#FFFFFF;" d="M755.592,359.364h3.84l0.352,2.112h0.129c1.375-1.344,3.104-2.496,5.471-2.496
			c3.584,0,5.184,2.464,5.184,6.463v9.792h-4.703v-9.183c0-2.112-0.607-3.072-2.336-3.072c-1.279,0-2.111,0.576-3.23,1.664v10.591
			h-4.705V359.364z"/>
		<path style="fill:#FFFFFF;" d="M784.902,365.028c-0.16-1.44-1.248-2.304-3.391-2.304c-1.537,0-3.041,0.576-4.832,1.472
			l-1.664-3.072c2.176-1.248,4.703-2.144,7.424-2.144c4.447,0,7.168,2.304,7.168,7.167v9.087h-3.84l-0.354-1.792h-0.127
			c-1.6,1.216-3.584,2.176-5.631,2.176c-3.201,0-5.217-2.112-5.217-4.799C774.439,367.268,777.383,365.476,784.902,365.028z
			 M781.158,371.971c1.408,0,2.625-0.64,3.744-1.504v-2.624c-4.672,0.256-5.951,1.248-5.951,2.624
			C778.951,371.491,779.814,371.971,781.158,371.971z"/>
		<path style="fill:#FFFFFF;" d="M792.84,359.364h3.52l0.352,1.983h0.127c0.609-1.312,1.568-2.368,3.393-2.368
			c1.408,0,2.4,0.896,2.783,2.592c0.576-1.44,1.697-2.592,3.488-2.592c2.207,0,3.52,1.952,3.52,5.12v11.135h-4.416v-10.783
			c0-0.992-0.256-1.472-0.895-1.472c-0.609,0-1.057,0.512-1.473,1.536v10.719h-3.615v-10.783c0-0.992-0.32-1.472-0.928-1.472
			c-0.609,0-0.992,0.512-1.441,1.536v10.719h-4.414V359.364z"/>
		<path style="fill:#FFFFFF;" d="M820.902,358.98c4.895,0,7.455,3.296,7.455,7.616c0,0.832-0.129,1.6-0.193,1.983h-10.686
			c0.447,2.4,2.271,3.456,4.607,3.456c1.439,0,2.688-0.384,4.096-1.088l1.535,2.816c-1.791,1.152-4.16,1.855-6.271,1.855
			c-4.928,0-8.799-3.072-8.799-8.319C812.646,362.116,816.678,358.98,820.902,358.98z M824.102,365.667
			c0-1.824-0.961-3.104-3.104-3.104c-1.697,0-3.201,0.992-3.584,3.104H824.102z"/>
		<path style="fill:#FFFFFF;" d="M834.117,378.883c3.809-3.712,5.439-7.488,5.439-12.543s-1.631-8.831-5.439-12.543l2.623-2.08
			c4.16,3.68,6.752,8.607,6.752,14.623s-2.592,10.943-6.752,14.623L834.117,378.883z"/>
		<path style="fill:#FFFFFF;" d="M876.26,370.083c0-1.12-0.928-2.304-4.385-2.368v-2.752c3.457-0.064,4.385-1.248,4.385-2.368
			c0-1.984-0.32-3.231-0.32-5.472c0-3.456,1.855-4.543,5.951-4.543h2.465v2.496h-1.313c-2.656,0-3.264,0.448-3.264,2.24
			c0,1.696,0.16,3.328,0.16,5.215c0,2.432-0.928,3.36-3.199,3.744v0.128c2.271,0.384,3.199,1.312,3.199,3.744
			c0,1.952-0.16,3.487-0.16,5.215c0,1.792,0.607,2.24,3.264,2.24h1.313v2.496h-2.465c-4.096,0-5.951-1.088-5.951-4.544
			C875.939,373.283,876.26,372.099,876.26,370.083z"/>
		<path style="fill:#FFFFFF;" d="M239.229,407.379c1.568,1.28,3.521,2.176,5.344,2.176c2.176,0,3.136-0.768,3.136-2.016
			c0-1.312-1.216-1.728-3.231-2.496l-2.688-1.151c-2.336-0.864-4.448-2.655-4.448-5.696c0-3.455,3.136-6.207,7.647-6.207
			c2.528,0,5.056,0.96,6.943,2.752l-2.399,2.976c-1.44-1.056-2.752-1.663-4.544-1.663c-1.823,0-2.88,0.703-2.88,1.887
			c0,1.28,1.408,1.729,3.424,2.465l2.528,1.088c2.752,1.023,4.479,2.719,4.479,5.663c0,3.456-2.912,6.464-8.096,6.464
			c-2.815,0-5.695-1.024-7.936-3.008L239.229,407.379z"/>
		<path style="fill:#FFFFFF;" d="M258.333,415.73c1.824,0,2.815-0.832,3.328-2.08l0.319-0.832l-6.879-15.454h4.672l2.655,6.815
			c0.576,1.504,1.088,3.104,1.6,4.768h0.128c0.416-1.568,0.96-3.199,1.44-4.768l2.336-6.815h4.447l-6.271,16.03
			c-1.536,4-3.424,6.048-7.424,6.048c-0.928,0-1.76-0.128-2.432-0.319l0.832-3.584C257.5,415.666,257.917,415.73,258.333,415.73z"/>
		<path style="fill:#FFFFFF;" d="M277.116,408.243c1.824,1.151,3.647,1.888,5.76,1.888c2.144,0,3.04-0.512,3.04-1.344
			c0-0.96-1.696-1.504-4.256-2.208c-2.784-0.768-5.664-2.112-5.664-4.64c0-2.943,2.784-4.959,7.328-4.959
			c2.815,0,5.184,1.119,6.847,2.176l-2.111,2.815c-1.44-0.864-2.976-1.504-4.64-1.504c-1.984,0-2.752,0.448-2.752,1.248
			c0,0.96,1.824,1.44,4.063,2.016c3.136,0.832,5.855,2.017,5.855,4.768c0,2.88-2.72,5.12-7.807,5.12
			c-2.849,0-5.76-1.088-7.775-2.432L277.116,408.243z"/>
		<path style="fill:#FFFFFF;" d="M298.075,401.044h-3.968v-3.487l4.192-0.192l0.607-4.224h3.872v4.224h6.688v3.68h-6.688v5.567
			c0,2.4,1.023,3.328,3.327,3.328c1.216,0,2.272-0.256,3.2-0.576l0.832,3.392c-1.408,0.416-3.168,0.864-5.216,0.864
			c-5.056,0-6.848-2.816-6.848-6.976V401.044z"/>
		<path style="fill:#FFFFFF;" d="M321.722,396.98c4.896,0,7.455,3.295,7.455,7.615c0,0.832-0.128,1.6-0.192,1.983h-10.687
			c0.447,2.399,2.271,3.456,4.607,3.456c1.439,0,2.688-0.384,4.096-1.088l1.536,2.816c-1.792,1.151-4.16,1.855-6.271,1.855
			c-4.928,0-8.8-3.072-8.8-8.32C313.466,400.115,317.499,396.98,321.722,396.98z M324.921,403.668c0-1.824-0.96-3.104-3.104-3.104
			c-1.696,0-3.2,0.991-3.584,3.104H324.921z"/>
		<path style="fill:#FFFFFF;" d="M332.058,397.364h3.52l0.352,1.983h0.128c0.608-1.312,1.568-2.367,3.392-2.367
			c1.408,0,2.4,0.896,2.784,2.592c0.576-1.44,1.696-2.592,3.487-2.592c2.208,0,3.521,1.951,3.521,5.119v11.135h-4.416v-10.783
			c0-0.991-0.256-1.471-0.896-1.471c-0.608,0-1.057,0.512-1.473,1.535v10.719h-3.615v-10.783c0-0.991-0.32-1.471-0.928-1.471
			c-0.608,0-0.992,0.512-1.44,1.535v10.719h-4.415V397.364z"/>
		<path style="fill:#FFFFFF;" d="M359.705,406.1c2.208,0,3.711,1.664,3.711,3.775s-1.503,3.744-3.711,3.744
			s-3.712-1.633-3.712-3.744S357.497,406.1,359.705,406.1z"/>
		<path style="fill:#FFFFFF;" d="M378.904,396.98c4.191,0,8.095,3.039,8.095,8.318c0,5.28-3.903,8.32-8.095,8.32
			c-4.192,0-8.096-3.04-8.096-8.32C370.808,400.02,374.711,396.98,378.904,396.98z M378.904,409.811c2.176,0,3.264-1.76,3.264-4.512
			c0-2.751-1.088-4.512-3.264-4.512s-3.264,1.761-3.264,4.512C375.64,408.051,376.728,409.811,378.904,409.811z"/>
		<path style="fill:#FFFFFF;" d="M405.302,413.234h-3.84l-0.352-2.271h-0.128c-1.408,1.6-3.072,2.656-5.344,2.656
			c-3.616,0-5.152-2.465-5.152-6.464v-9.791h4.704v9.183c0,2.112,0.544,3.072,2.304,3.072c1.184,0,2.016-0.416,3.104-1.824v-10.431
			h4.704V413.234z"/>
		<path style="fill:#FFFFFF;" d="M413.27,401.044h-3.968v-3.487l4.192-0.192l0.607-4.224h3.872v4.224h6.688v3.68h-6.688v5.567
			c0,2.4,1.023,3.328,3.327,3.328c1.216,0,2.272-0.256,3.2-0.576l0.832,3.392c-1.408,0.416-3.168,0.864-5.216,0.864
			c-5.056,0-6.848-2.816-6.848-6.976V401.044z"/>
		<path style="fill:#FFFFFF;" d="M436.501,406.1c2.208,0,3.711,1.664,3.711,3.775s-1.503,3.744-3.711,3.744
			s-3.712-1.633-3.712-3.744S434.293,406.1,436.501,406.1z"/>
		<path style="fill:#FFFFFF;" d="M453.109,414.482v4.641h-4.704v-21.759h3.84l0.352,1.6h0.097c1.279-1.151,3.039-1.983,4.735-1.983
			c3.968,0,6.367,3.168,6.367,8.063c0,5.439-3.327,8.576-6.879,8.576c-1.408,0-2.816-0.608-3.968-1.729L453.109,414.482z
			 M455.829,409.779c1.76,0,3.136-1.408,3.136-4.672c0-2.848-0.928-4.287-2.912-4.287c-1.023,0-1.952,0.447-2.943,1.471v6.432
			C454.004,409.491,455.029,409.779,455.829,409.779z"/>
		<path style="fill:#FFFFFF;" d="M469.012,397.364h3.84l0.384,3.456h0.096c1.568-2.592,3.904-3.84,6.432-3.84
			c1.408,0,2.144,0.224,3.072,0.64l-0.96,3.936c-0.992-0.288-1.632-0.448-2.816-0.448c-1.951,0-3.999,1.024-5.344,3.872v8.255
			h-4.703V397.364z"/>
		<path style="fill:#FFFFFF;" d="M487.027,397.364h11.071v15.87h-4.703v-12.19h-6.368V397.364z M492.403,392.18
			c0-1.727,1.312-2.943,3.136-2.943s3.136,1.217,3.136,2.943c0,1.729-1.312,2.849-3.136,2.849S492.403,393.908,492.403,392.18z"/>
		<path style="fill:#FFFFFF;" d="M506.002,397.364h3.84l0.352,2.112h0.128c1.376-1.345,3.104-2.496,5.471-2.496
			c3.584,0,5.184,2.463,5.184,6.463v9.791h-4.703v-9.183c0-2.112-0.607-3.071-2.336-3.071c-1.28,0-2.112,0.575-3.231,1.663v10.591
			h-4.704V397.364z"/>
		<path style="fill:#FFFFFF;" d="M528.465,401.044h-3.967v-3.487l4.191-0.192l0.607-4.224h3.873v4.224h6.688v3.68h-6.688v5.567
			c0,2.4,1.023,3.328,3.326,3.328c1.217,0,2.273-0.256,3.201-0.576l0.832,3.392c-1.408,0.416-3.168,0.864-5.217,0.864
			c-5.055,0-6.848-2.816-6.848-6.976V401.044z"/>
		<path style="fill:#FFFFFF;" d="M544.08,390.805h9.313v16.414c0,1.953,1.248,2.592,2.561,2.592c0.734,0,1.504-0.127,2.494-0.512
			l1.057,3.456c-1.664,0.513-2.783,0.864-4.768,0.864c-4,0-6.047-2.561-6.047-6.592v-12.512h-4.609V390.805z"/>
		<path style="fill:#FFFFFF;" d="M563.6,397.364h3.84l0.352,2.112h0.129c1.375-1.345,3.104-2.496,5.471-2.496
			c3.584,0,5.184,2.463,5.184,6.463v9.791h-4.703v-9.183c0-2.112-0.607-3.071-2.336-3.071c-1.279,0-2.111,0.575-3.23,1.663v10.591
			H563.6V397.364z"/>
		<path style="fill:#FFFFFF;" d="M586.287,404.34c0-6.016,2.592-10.943,6.752-14.623l2.623,2.08
			c-3.807,3.711-5.439,7.486-5.439,12.543c0,5.055,1.633,8.831,5.439,12.543l-2.623,2.08
			C588.879,415.283,586.287,410.355,586.287,404.34z"/>
		<path style="fill:#FFFFFF;" d="M602.479,395.956l-0.16-4.64h5.439l-0.16,4.64l-1.119,7.583h-2.881L602.479,395.956z
			 M610.99,395.956l-0.16-4.64h5.439l-0.16,4.64l-1.119,7.583h-2.881L610.99,395.956z"/>
		<path style="fill:#FFFFFF;" d="M629.934,391.988c2.816,0,4.768,1.313,6.111,2.656l-2.592,2.912
			c-0.896-0.896-1.855-1.504-3.52-1.504c-2.721,0-4.768,2.527-4.768,6.719c0,4.287,1.664,6.783,4.959,6.783
			c0.801,0,1.6-0.224,2.049-0.64v-3.583h-3.041v-3.84h7.264v9.599c-1.408,1.312-3.871,2.528-6.527,2.528
			c-5.344,0-9.566-3.68-9.566-10.688C620.303,395.956,624.525,391.988,629.934,391.988z"/>
		<path style="fill:#FFFFFF;" d="M647.693,396.98c4.191,0,8.094,3.039,8.094,8.318c0,5.28-3.902,8.32-8.094,8.32
			c-4.193,0-8.096-3.04-8.096-8.32C639.598,400.02,643.5,396.98,647.693,396.98z M647.693,409.811c2.176,0,3.264-1.76,3.264-4.512
			c0-2.751-1.088-4.512-3.264-4.512s-3.264,1.761-3.264,4.512C644.43,408.051,645.518,409.811,647.693,409.811z"/>
		<path style="fill:#FFFFFF;" d="M666.893,396.98c4.191,0,8.094,3.039,8.094,8.318c0,5.28-3.902,8.32-8.094,8.32
			c-4.193,0-8.096-3.04-8.096-8.32C658.797,400.02,662.699,396.98,666.893,396.98z M666.893,409.811c2.176,0,3.264-1.76,3.264-4.512
			c0-2.751-1.088-4.512-3.264-4.512s-3.264,1.761-3.264,4.512C663.629,408.051,664.717,409.811,666.893,409.811z"/>
		<path style="fill:#FFFFFF;" d="M684.779,396.98c1.824,0,2.943,0.672,4.064,1.695l-0.16-2.464v-5.407h4.703v22.43h-3.84
			l-0.352-1.631H689.1c-1.186,1.151-2.816,2.016-4.416,2.016c-4.031,0-6.688-3.137-6.688-8.32S681.324,396.98,684.779,396.98z
			 M685.898,409.779c1.057,0,1.953-0.416,2.785-1.473v-6.432c-0.865-0.768-1.729-1.055-2.656-1.055
			c-1.729,0-3.199,1.407-3.199,4.415C682.828,408.371,683.947,409.779,685.898,409.779z"/>
		<path style="fill:#FFFFFF;" d="M697.994,390.805h4.705v5.504l-0.129,2.495c1.248-1.151,2.881-1.823,4.416-1.823
			c3.967,0,6.398,3.168,6.398,8.031c0,5.471-3.326,8.607-6.879,8.607c-1.471,0-3.008-0.736-4.32-2.112h-0.127l-0.385,1.728h-3.68
			V390.805z M705.451,409.779c1.727,0,3.104-1.408,3.104-4.672c0-2.848-0.928-4.287-2.912-4.287c-1.023,0-1.953,0.447-2.943,1.471
			v6.432C703.594,409.491,704.619,409.779,705.451,409.779z"/>
		<path style="fill:#FFFFFF;" d="M719.113,415.73c1.824,0,2.816-0.832,3.328-2.08l0.32-0.832l-6.879-15.454h4.672l2.654,6.815
			c0.576,1.504,1.088,3.104,1.6,4.768h0.129c0.416-1.568,0.959-3.199,1.439-4.768l2.336-6.815h4.447l-6.271,16.03
			c-1.535,4-3.424,6.048-7.424,6.048c-0.928,0-1.76-0.128-2.432-0.319l0.832-3.584C718.281,415.666,718.697,415.73,719.113,415.73z"
			/>
		<path style="fill:#FFFFFF;" d="M744.105,396.98c4.895,0,7.455,3.295,7.455,7.615c0,0.832-0.129,1.6-0.193,1.983h-10.686
			c0.447,2.399,2.271,3.456,4.607,3.456c1.439,0,2.688-0.384,4.096-1.088l1.535,2.816c-1.791,1.151-4.16,1.855-6.271,1.855
			c-4.928,0-8.799-3.072-8.799-8.32C735.85,400.115,739.881,396.98,744.105,396.98z M747.305,403.668
			c0-1.824-0.961-3.104-3.104-3.104c-1.697,0-3.201,0.991-3.584,3.104H747.305z"/>
		<path style="fill:#FFFFFF;" d="M759.111,417.427c2.785-0.96,4.16-2.528,4.16-4.544c-0.127,0.032-0.223,0.032-0.352,0.032
			c-1.791,0-3.455-1.151-3.455-3.264c0-1.983,1.6-3.296,3.584-3.296c2.623,0,3.967,2.048,3.967,5.504
			c0,4.063-2.305,6.975-6.719,8.318L759.111,417.427z"/>
		<path style="fill:#FFFFFF;" d="M794.471,395.956l-0.16-4.64h5.439l-0.16,4.64l-1.119,7.583h-2.881L794.471,395.956z
			 M802.982,395.956l-0.16-4.64h5.439l-0.16,4.64l-1.119,7.583h-2.881L802.982,395.956z"/>
		<path style="fill:#FFFFFF;" d="M607.566,442.979h-5.631v-3.327h5.631v-5.889h3.455v5.889h5.633v3.327h-5.633v5.888h-3.455V442.979
			z"/>
		<path style="fill:#FFFFFF;" d="M640.396,435.364h3.84l0.352,2.112h0.129c1.375-1.345,3.104-2.496,5.471-2.496
			c3.584,0,5.184,2.463,5.184,6.463v9.791h-4.703v-9.183c0-2.112-0.607-3.071-2.336-3.071c-1.279,0-2.111,0.575-3.23,1.663v10.591
			h-4.705V435.364z"/>
		<path style="fill:#FFFFFF;" d="M669.707,441.027c-0.16-1.439-1.248-2.304-3.391-2.304c-1.537,0-3.041,0.576-4.832,1.472
			l-1.664-3.071c2.176-1.248,4.703-2.144,7.424-2.144c4.447,0,7.168,2.303,7.168,7.167v9.087h-3.84l-0.354-1.791h-0.127
			c-1.6,1.215-3.584,2.176-5.631,2.176c-3.201,0-5.217-2.112-5.217-4.8C659.244,443.268,662.188,441.476,669.707,441.027z
			 M665.963,447.971c1.408,0,2.625-0.64,3.744-1.504v-2.623c-4.672,0.256-5.951,1.248-5.951,2.623
			C663.756,447.491,664.619,447.971,665.963,447.971z"/>
		<path style="fill:#FFFFFF;" d="M677.645,435.364h3.52l0.352,1.983h0.127c0.609-1.312,1.568-2.367,3.393-2.367
			c1.408,0,2.4,0.896,2.783,2.592c0.576-1.44,1.697-2.592,3.488-2.592c2.207,0,3.52,1.951,3.52,5.119v11.135h-4.416v-10.783
			c0-0.991-0.256-1.471-0.895-1.471c-0.609,0-1.057,0.512-1.473,1.535v10.719h-3.615v-10.783c0-0.991-0.32-1.471-0.928-1.471
			c-0.609,0-0.992,0.512-1.441,1.535v10.719h-4.414V435.364z"/>
		<path style="fill:#FFFFFF;" d="M705.707,434.98c4.895,0,7.455,3.295,7.455,7.615c0,0.832-0.129,1.6-0.193,1.983h-10.686
			c0.447,2.399,2.271,3.456,4.607,3.456c1.439,0,2.688-0.384,4.096-1.088l1.535,2.816c-1.791,1.151-4.16,1.855-6.271,1.855
			c-4.928,0-8.799-3.072-8.799-8.32C697.451,438.115,701.482,434.98,705.707,434.98z M708.906,441.668
			c0-1.824-0.961-3.104-3.104-3.104c-1.697,0-3.201,0.991-3.584,3.104H708.906z"/>
		<path style="fill:#FFFFFF;" d="M741.961,442.979h-5.631v-3.327h5.631v-5.889h3.455v5.889h5.633v3.327h-5.633v5.888h-3.455V442.979
			z"/>
		<path style="fill:#FFFFFF;" d="M775.271,433.956l-0.16-4.64h5.439l-0.16,4.64l-1.119,7.583h-2.881L775.271,433.956z
			 M783.783,433.956l-0.16-4.64h5.439l-0.16,4.64l-1.119,7.583h-2.881L783.783,433.956z"/>
		<path style="fill:#FFFFFF;" d="M801.287,445.155c1.822,0,3.199,1.312,3.199,3.2c0,1.92-1.377,3.264-3.199,3.264
			c-1.824,0-3.201-1.344-3.201-3.264C798.086,446.467,799.463,445.155,801.287,445.155z M799.111,434.053l-0.16-4.256h4.672
			l-0.16,4.256l-0.641,9.023h-3.072L799.111,434.053z"/>
		<path style="fill:#FFFFFF;" d="M813.67,433.956l-0.16-4.64h5.439l-0.16,4.64l-1.119,7.583h-2.881L813.67,433.956z
			 M822.182,433.956l-0.16-4.64h5.439l-0.16,4.64l-1.119,7.583h-2.881L822.182,433.956z"/>
		<path style="fill:#FFFFFF;" d="M834.117,454.883c3.809-3.712,5.439-7.488,5.439-12.543c0-5.057-1.631-8.832-5.439-12.543
			l2.623-2.08c4.16,3.68,6.752,8.607,6.752,14.623s-2.592,10.943-6.752,14.623L834.117,454.883z"/>
		<path style="fill:#FFFFFF;" d="M855.107,455.427c2.785-0.96,4.16-2.528,4.16-4.544c-0.127,0.032-0.223,0.032-0.352,0.032
			c-1.791,0-3.455-1.151-3.455-3.264c0-1.983,1.6-3.296,3.584-3.296c2.623,0,3.967,2.048,3.967,5.504
			c0,4.063-2.305,6.975-6.719,8.319L855.107,455.427z M855.172,437.508c0-2.08,1.504-3.744,3.713-3.744
			c2.207,0,3.711,1.664,3.711,3.744c0,2.111-1.504,3.775-3.711,3.775C856.676,441.283,855.172,439.619,855.172,437.508z"/>
		<path style="fill:#FFFFFF;" d="M162.784,491.603c2.624,0,3.231-0.448,3.231-2.24c0-1.728-0.128-3.264-0.128-5.216
			c0-2.432,0.896-3.359,3.2-3.743v-0.128c-2.304-0.385-3.2-1.313-3.2-3.744c0-1.888,0.128-3.52,0.128-5.216
			c0-1.792-0.608-2.239-3.231-2.239h-1.312v-2.496h2.464c4.096,0,5.952,1.088,5.952,4.544c0,2.239-0.352,3.487-0.352,5.472
			c0,1.119,0.928,2.304,4.416,2.367v2.752c-3.488,0.064-4.416,1.248-4.416,2.368c0,2.016,0.352,3.199,0.352,5.472
			c0,3.455-1.856,4.543-5.952,4.543h-2.464v-2.495H162.784z"/>
		<path style="fill:#FFFFFF;" d="M85.985,529.603c2.624,0,3.231-0.448,3.231-2.24c0-1.728-0.128-3.264-0.128-5.216
			c0-2.432,0.896-3.359,3.2-3.743v-0.128c-2.304-0.385-3.2-1.313-3.2-3.744c0-1.888,0.128-3.52,0.128-5.216
			c0-1.792-0.608-2.239-3.231-2.239h-1.312v-2.496h2.464c4.096,0,5.952,1.088,5.952,4.544c0,2.239-0.352,3.487-0.352,5.472
			c0,1.119,0.928,2.304,4.416,2.367v2.752c-3.488,0.064-4.416,1.248-4.416,2.368c0,2.016,0.352,3.199,0.352,5.472
			c0,3.455-1.856,4.543-5.952,4.543h-2.464v-2.495H85.985z"/>
	</g>
</g>
</svg>
