<?xml version="1.0" encoding="iso-8859-1"?>
<!-- Generator: Adobe Illustrator 16.1.1, SVG Export Plug-In . SVG Version: 6.00 Build 0)  -->
<!DOCTYPE svg PUBLIC "-//W3C//DTD SVG 1.1//EN" "http://www.w3.org/Graphics/SVG/1.1/DTD/svg11.dtd">
<svg version="1.1" xmlns="http://www.w3.org/2000/svg" xmlns:xlink="http://www.w3.org/1999/xlink" x="0px" y="0px" width="1024px"
	 height="768px" viewBox="0 0 1024 768" style="enable-background:new 0 0 1024 768;" xml:space="preserve">
<g id="jfx:p00">
	<image style="overflow:visible;" width="1024" height="768" xlink:href="4673090.jpg" >
	</image>
</g>
<g id="jfx:p01">
	<g>
		<path style="fill:#FFFFFF;" d="M83.663,602.596V670H68.362v-67.404H83.663z"/>
		<path style="fill:#FFFFFF;" d="M113.362,607.097v14.001h10.9v11.2h-10.9v17.701c0,5.9,1.4,8.601,6,8.601c1.9,0,3.4-0.2,4.5-0.4
			l0.1,11.501c-2,0.8-5.601,1.3-9.901,1.3c-4.9,0-9-1.7-11.4-4.2c-2.8-2.9-4.2-7.601-4.2-14.501v-20.001h-6.5v-11.2h6.5v-10.601
			L113.362,607.097z"/>
		<path style="fill:#FFFFFF;" d="M144.761,650.399c0.5,6.3,6.7,9.3,13.801,9.3c5.2,0,9.4-0.699,13.5-2l2,10.301
			c-5,2-11.101,3-17.701,3c-16.601,0-26.102-9.601-26.102-24.901c0-12.4,7.7-26.102,24.701-26.102
			c15.801,0,21.802,12.301,21.802,24.401c0,2.601-0.3,4.9-0.5,6.001H144.761z M162.662,639.998c0-3.7-1.6-9.9-8.601-9.9
			c-6.4,0-9,5.801-9.4,9.9H162.662z"/>
		<path style="fill:#FFFFFF;" d="M185.86,637.198c0-7.2-0.2-11.9-0.4-16.101h13.101l0.5,9h0.4c2.5-7.101,8.5-10.101,13.201-10.101
			c1.4,0,2.1,0,3.2,0.2v14.301c-1.1-0.2-2.4-0.4-4.1-0.4c-5.6,0-9.4,3.001-10.401,7.701c-0.2,1-0.3,2.2-0.3,3.399V670H185.86
			V637.198z"/>
		<path style="fill:#FFFFFF;" d="M251.66,670l-0.9-4.9h-0.3c-3.2,3.9-8.201,6.001-14.001,6.001c-9.901,0-15.801-7.201-15.801-15.001
			c0-12.701,11.4-18.802,28.702-18.701v-0.7c0-2.601-1.4-6.301-8.901-6.301c-5,0-10.3,1.7-13.5,3.7l-2.8-9.8
			c3.4-1.9,10.101-4.301,19.001-4.301c16.301,0,21.501,9.601,21.501,21.102V658.1c0,4.7,0.2,9.2,0.7,11.9H251.66z M249.86,646.898
			c-8-0.1-14.201,1.801-14.201,7.701c0,3.9,2.601,5.8,6,5.8c3.8,0,6.9-2.5,7.9-5.601c0.2-0.8,0.3-1.699,0.3-2.6V646.898z"/>
		<path style="fill:#FFFFFF;" d="M293.66,607.097v14.001h10.9v11.2h-10.9v17.701c0,5.9,1.4,8.601,6,8.601c1.9,0,3.4-0.2,4.5-0.4
			l0.1,11.501c-2,0.8-5.601,1.3-9.901,1.3c-4.9,0-9-1.7-11.4-4.2c-2.8-2.9-4.2-7.601-4.2-14.501v-20.001h-6.5v-11.2h6.5v-10.601
			L293.66,607.097z"/>
		<path style="fill:#FFFFFF;" d="M329.058,607.496c0,4.2-3.2,7.601-8.201,7.601c-4.8,0-8-3.4-7.9-7.601c-0.1-4.4,3.101-7.7,8-7.7
			C325.858,599.796,328.958,603.096,329.058,607.496z M313.357,670v-48.902h15.201V670H313.357z"/>
		<path style="fill:#FFFFFF;" d="M389.059,644.999c0,17.9-12.701,26.102-25.802,26.102c-14.301,0-25.301-9.4-25.301-25.202
			c0-15.801,10.4-25.901,26.102-25.901C379.058,619.997,389.059,630.298,389.059,644.999z M353.656,645.499
			c0,8.4,3.5,14.7,10.001,14.7c5.9,0,9.7-5.9,9.7-14.7c0-7.301-2.8-14.701-9.7-14.701
			C356.356,630.798,353.656,638.298,353.656,645.499z"/>
		<path style="fill:#FFFFFF;" d="M398.456,636.698c0-6.101-0.2-11.301-0.4-15.601h13.201l0.7,6.7h0.3c2-3.101,7-7.801,15.101-7.801
			c10.001,0,17.501,6.601,17.501,21.001V670h-15.201v-27.102c0-6.3-2.2-10.601-7.7-10.601c-4.201,0-6.701,2.9-7.701,5.7
			c-0.4,0.9-0.6,2.4-0.6,3.801V670h-15.201V636.698z"/>
		<path style="fill:#FFFFFF;" d="M493.456,652.699L488.655,670h-15.801l20.602-67.404h20.001L534.358,670h-16.401l-5.2-17.301
			H493.456z M510.557,641.299l-4.2-14.301c-1.2-4.001-2.4-9.001-3.4-13.001h-0.2c-1,4-2,9.101-3.1,13.001l-4,14.301H510.557z"/>
		<path style="fill:#FFFFFF;" d="M543.354,603.496c4.7-0.8,11.301-1.4,20.602-1.4c9.4,0,16.101,1.801,20.601,5.4
			c4.301,3.4,7.2,9.001,7.2,15.602s-2.199,12.2-6.2,16.001c-5.2,4.9-12.9,7.101-21.901,7.101c-2,0-3.8-0.101-5.2-0.301V670h-15.101
			V603.496z M558.454,634.098c1.3,0.301,2.9,0.4,5.101,0.4c8.101,0,13.101-4.101,13.101-11.001c0-6.2-4.3-9.9-11.9-9.9
			c-3.101,0-5.2,0.3-6.301,0.601V634.098z"/>
		<path style="fill:#FFFFFF;" d="M616.754,602.596V670h-15.301v-67.404H616.754z"/>
	</g>
</g>
</svg>
