<?xml version="1.0" encoding="iso-8859-1"?>
<!-- Generator: Adobe Illustrator 16.1.1, SVG Export Plug-In . SVG Version: 6.00 Build 0)  -->
<!DOCTYPE svg PUBLIC "-//W3C//DTD SVG 1.1//EN" "http://www.w3.org/Graphics/SVG/1.1/DTD/svg11.dtd">
<svg version="1.1" xmlns="http://www.w3.org/2000/svg" xmlns:xlink="http://www.w3.org/1999/xlink" x="0px" y="0px" width="1024px"
	 height="768px" viewBox="0 0 1024 768" style="enable-background:new 0 0 1024 768;" xml:space="preserve">
<g id="jfx:p00">
	<image style="overflow:visible;" width="1024" height="768" xlink:href="97B86640.jpg" >
	</image>
</g>
<g id="jfx:p01">
	<rect style="opacity:0.6;" width="1024" height="768"/>
</g>
<g id="jfx:p02">
	<g>
		<path style="fill:#FFFFFF;stroke:#FFFFFF;" d="M100.521,69.079V123H88.28V69.079H100.521z"/>
		<path style="fill:#FFFFFF;stroke:#FFFFFF;" d="M124.279,72.679v11.2H133v8.96h-8.72V107c0,4.72,1.12,6.88,4.8,6.88
			c1.52,0,2.72-0.16,3.6-0.32l0.08,9.2c-1.6,0.64-4.48,1.04-7.92,1.04c-3.92,0-7.2-1.36-9.12-3.36c-2.24-2.32-3.36-6.08-3.36-11.6
			v-16h-5.2v-8.96h5.2v-8.48L124.279,72.679z"/>
		<path style="fill:#FFFFFF;stroke:#FFFFFF;" d="M149.398,107.32c0.4,5.04,5.36,7.44,11.041,7.44c4.16,0,7.52-0.56,10.8-1.6
			l1.6,8.24c-4,1.6-8.88,2.4-14.16,2.4c-13.28,0-20.88-7.68-20.88-19.92c0-9.92,6.16-20.88,19.76-20.88
			c12.641,0,17.44,9.84,17.44,19.521c0,2.08-0.24,3.92-0.4,4.8H149.398z M163.719,99c0-2.96-1.28-7.92-6.88-7.92
			c-5.12,0-7.2,4.64-7.521,7.92H163.719z"/>
		<path style="fill:#FFFFFF;stroke:#FFFFFF;" d="M182.278,96.759c0-5.76-0.16-9.52-0.32-12.88h10.48l0.4,7.2h0.32
			c2-5.68,6.8-8.08,10.561-8.08c1.12,0,1.68,0,2.56,0.16v11.44c-0.88-0.16-1.92-0.32-3.28-0.32c-4.48,0-7.52,2.4-8.32,6.16
			c-0.16,0.8-0.24,1.76-0.24,2.72V123h-12.161V96.759z"/>
		<path style="fill:#FFFFFF;stroke:#FFFFFF;" d="M234.918,123l-0.72-3.92h-0.24c-2.56,3.12-6.56,4.8-11.2,4.8
			c-7.92,0-12.641-5.76-12.641-12c0-10.16,9.121-15.041,22.961-14.96v-0.56c0-2.08-1.12-5.04-7.12-5.04c-4,0-8.24,1.36-10.8,2.96
			l-2.24-7.84c2.72-1.52,8.08-3.44,15.2-3.44c13.041,0,17.201,7.68,17.201,16.88v13.601c0,3.76,0.16,7.36,0.56,9.52H234.918z
			 M233.479,104.52c-6.4-0.08-11.36,1.44-11.36,6.16c0,3.12,2.08,4.64,4.8,4.64c3.04,0,5.52-2,6.32-4.48
			c0.16-0.64,0.24-1.36,0.24-2.08V104.52z"/>
		<path style="fill:#FFFFFF;stroke:#FFFFFF;" d="M254.598,123c0.16-2.56,0.32-7.28,0.32-11.68V66.199h12.161v22.32h0.16
			c2.32-3.36,6.4-5.52,11.84-5.52c9.36,0,16.241,7.76,16.161,19.761c0,14.08-8.96,21.12-17.92,21.12c-4.56,0-8.96-1.68-11.76-6.32
			h-0.16l-0.48,5.44H254.598z M267.079,106.359c0,0.8,0.08,1.521,0.24,2.16c0.8,3.28,3.6,5.76,7.12,5.76c5.2,0,8.4-4,8.4-11.04
			c0-6.081-2.72-10.88-8.4-10.88c-3.28,0-6.32,2.48-7.12,6c-0.16,0.72-0.24,1.44-0.24,2.24V106.359z"/>
		<path style="fill:#FFFFFF;stroke:#FFFFFF;" d="M302.757,66.199h12.161V123h-12.161V66.199z"/>
		<path style="fill:#FFFFFF;stroke:#FFFFFF;" d="M334.117,107.32c0.4,5.04,5.36,7.44,11.04,7.44c4.16,0,7.521-0.56,10.801-1.6
			l1.6,8.24c-4,1.6-8.88,2.4-14.16,2.4c-13.28,0-20.881-7.68-20.881-19.92c0-9.92,6.16-20.88,19.761-20.88
			c12.641,0,17.44,9.84,17.44,19.521c0,2.08-0.24,3.92-0.4,4.8H334.117z M348.438,99c0-2.96-1.28-7.92-6.88-7.92
			c-5.12,0-7.2,4.64-7.521,7.92H348.438z"/>
		<path style="fill:#FFFFFF;stroke:#FFFFFF;" d="M369.478,123l2.08-14.32h-6.48v-7.36h7.761l1.279-8.96h-6.8v-7.44h7.92l2-13.92
			h7.12l-2,13.92h7.28l2.08-13.92h7.12l-2.08,13.92h6.4v7.44h-7.521l-1.279,8.96h6.64v7.36h-7.84l-2,14.32h-7.2l2-14.32h-7.28
			l-2,14.32H369.478z M387.237,101.319l1.28-8.96h-7.28l-1.279,8.96H387.237z"/>
		<path style="fill:#FFFFFF;stroke:#FFFFFF;" d="M412.356,123V92.839h-5.12v-8.96h5.12v-1.52c0-4.72,1.44-9.92,4.96-13.12
			c3.04-2.88,7.28-3.92,10.801-3.92c2.72,0,4.8,0.32,6.479,0.8l-0.479,9.36c-1.04-0.32-2.32-0.56-3.921-0.56
			c-4,0-5.68,3.12-5.68,6.96v2h7.84v8.96h-7.76V123H412.356z"/>
		<path style="fill:#FFFFFF;stroke:#FFFFFF;" d="M476.916,103c0,14.32-10.16,20.88-20.64,20.88c-11.44,0-20.241-7.52-20.241-20.16
			c0-12.641,8.32-20.721,20.881-20.721C468.916,82.999,476.916,91.239,476.916,103z M448.596,103.399c0,6.72,2.8,11.76,8,11.76
			c4.721,0,7.761-4.72,7.761-11.76c0-5.84-2.24-11.76-7.761-11.76C450.756,91.639,448.596,97.64,448.596,103.399z"/>
		<path style="fill:#FFFFFF;stroke:#FFFFFF;" d="M484.435,96.759c0-5.76-0.16-9.52-0.319-12.88h10.479l0.4,7.2h0.32
			c2-5.68,6.8-8.08,10.56-8.08c1.12,0,1.681,0,2.561,0.16v11.44c-0.88-0.16-1.92-0.32-3.28-0.32c-4.48,0-7.521,2.4-8.32,6.16
			c-0.16,0.8-0.24,1.76-0.24,2.72V123h-12.16V96.759z"/>
		<path style="fill:#FFFFFF;stroke:#FFFFFF;" d="M547.315,100.2h-19.841V113h22.16v10h-34.4V69.079h33.28v10h-21.04v11.2h19.841
			V100.2z"/>
		<path style="fill:#FFFFFF;stroke:#FFFFFF;" d="M579.795,123l-0.721-3.92h-0.24c-2.56,3.12-6.56,4.8-11.2,4.8
			c-7.92,0-12.64-5.76-12.64-12c0-10.16,9.12-15.041,22.96-14.96v-0.56c0-2.08-1.12-5.04-7.12-5.04c-4,0-8.24,1.36-10.8,2.96
			l-2.24-7.84c2.72-1.52,8.08-3.44,15.2-3.44c13.04,0,17.2,7.68,17.2,16.88v13.601c0,3.76,0.16,7.36,0.561,9.52H579.795z
			 M578.354,104.52c-6.4-0.08-11.36,1.44-11.36,6.16c0,3.12,2.08,4.64,4.8,4.64c3.04,0,5.521-2,6.32-4.48
			c0.16-0.64,0.24-1.36,0.24-2.08V104.52z"/>
		<path style="fill:#FFFFFF;stroke:#FFFFFF;" d="M629.155,122.04c-2.16,0.96-6.24,1.76-10.881,1.76c-12.64,0-20.721-7.68-20.721-20
			c0-11.44,7.841-20.801,22.401-20.801c3.199,0,6.72,0.56,9.279,1.52l-1.92,9.041c-1.439-0.64-3.6-1.2-6.8-1.2
			c-6.4,0-10.561,4.56-10.48,10.96c0,7.2,4.801,10.96,10.721,10.96c2.88,0,5.12-0.48,6.96-1.2L629.155,122.04z"/>
		<path style="fill:#FFFFFF;stroke:#FFFFFF;" d="M635.873,66.199h12.16v22.32h0.16c1.28-1.68,2.88-2.96,4.801-4
			c1.76-0.96,4.08-1.52,6.319-1.52c7.761,0,13.681,5.36,13.681,17.121V123h-12.16v-21.521c0-5.12-1.76-8.64-6.32-8.64
			c-3.2,0-5.2,2.08-6.08,4.24c-0.32,0.8-0.4,1.84-0.4,2.72V123h-12.16V66.199z"/>
	</g>
</g>
<g id="jfx:p03">
	<g>
		<path style="fill:#FFFFFF;" d="M125.737,203.371h4.704v16.895h9.279v3.968h-13.983V203.371z"/>
		<path style="fill:#FFFFFF;" d="M144.041,208.362h11.071v15.871h-4.704v-12.191h-6.368V208.362z M149.417,203.178
			c0-1.728,1.312-2.943,3.136-2.943c1.824,0,3.136,1.216,3.136,2.943c0,1.728-1.312,2.848-3.136,2.848
			C150.729,206.026,149.417,204.906,149.417,203.178z"/>
		<path style="fill:#FFFFFF;" d="M164.521,219.241c1.824,1.152,3.648,1.888,5.76,1.888c2.144,0,3.04-0.512,3.04-1.344
			c0-0.96-1.696-1.504-4.255-2.208c-2.784-0.768-5.664-2.112-5.664-4.64c0-2.943,2.784-4.959,7.327-4.959
			c2.816,0,5.184,1.12,6.848,2.176l-2.112,2.816c-1.44-0.864-2.976-1.504-4.64-1.504c-1.984,0-2.752,0.448-2.752,1.248
			c0,0.96,1.824,1.44,4.064,2.016c3.136,0.832,5.855,2.016,5.855,4.768c0,2.88-2.72,5.12-7.808,5.12
			c-2.848,0-5.759-1.088-7.775-2.432L164.521,219.241z"/>
		<path style="fill:#FFFFFF;" d="M185.48,212.042h-3.967v-3.488l4.191-0.192l0.608-4.224h3.872v4.224h6.688v3.68h-6.688v5.567
			c0,2.4,1.024,3.328,3.328,3.328c1.216,0,2.271-0.256,3.2-0.576l0.832,3.392c-1.408,0.416-3.168,0.864-5.216,0.864
			c-5.056,0-6.848-2.815-6.848-6.975V212.042z"/>
		<path style="fill:#FFFFFF;" d="M202.824,212.618l12.351-8v4.256l-8.479,5.312v0.128l8.479,5.312v4.256l-12.351-8V212.618z"/>
		<path style="fill:#FFFFFF;" d="M222.632,218.377c1.568,1.28,3.52,2.176,5.343,2.176c2.176,0,3.136-0.768,3.136-2.016
			c0-1.312-1.216-1.728-3.232-2.496l-2.688-1.152c-2.336-0.864-4.448-2.656-4.448-5.696c0-3.456,3.136-6.208,7.647-6.208
			c2.528,0,5.056,0.96,6.944,2.752l-2.4,2.976c-1.439-1.056-2.751-1.664-4.543-1.664c-1.824,0-2.879,0.704-2.879,1.888
			c0,1.28,1.408,1.728,3.423,2.464l2.528,1.088c2.752,1.024,4.479,2.72,4.479,5.664c0,3.456-2.911,6.463-8.095,6.463
			c-2.815,0-5.695-1.024-7.935-3.008L222.632,218.377z"/>
		<path style="fill:#FFFFFF;" d="M243.079,212.042h-3.968v-3.488l4.192-0.192l0.607-4.224h3.872v4.224h6.688v3.68h-6.688v5.567
			c0,2.4,1.023,3.328,3.327,3.328c1.216,0,2.272-0.256,3.2-0.576l0.832,3.392c-1.408,0.416-3.168,0.864-5.216,0.864
			c-5.056,0-6.848-2.815-6.848-6.975V212.042z"/>
		<path style="fill:#FFFFFF;" d="M260.423,208.362h3.84l0.384,3.456h0.096c1.568-2.592,3.904-3.84,6.432-3.84
			c1.408,0,2.144,0.224,3.072,0.64l-0.96,3.936c-0.992-0.288-1.632-0.448-2.816-0.448c-1.951,0-3.999,1.024-5.344,3.872v8.255
			h-4.703V208.362z"/>
		<path style="fill:#FFFFFF;" d="M278.438,208.362h11.071v15.871h-4.703v-12.191h-6.368V208.362z M283.813,203.178
			c0-1.728,1.312-2.943,3.136-2.943s3.136,1.216,3.136,2.943c0,1.728-1.312,2.848-3.136,2.848S283.813,204.906,283.813,203.178z"/>
		<path style="fill:#FFFFFF;" d="M297.413,208.362h3.84l0.352,2.112h0.128c1.376-1.344,3.104-2.496,5.472-2.496
			c3.584,0,5.184,2.464,5.184,6.463v9.792h-4.703v-9.183c0-2.112-0.608-3.072-2.336-3.072c-1.28,0-2.112,0.576-3.231,1.664v10.591
			h-4.704V208.362z"/>
		<path style="fill:#FFFFFF;" d="M318.437,223.753v-0.128c-0.864-0.544-1.601-1.376-1.601-2.72c0-1.056,0.769-2.208,1.889-2.976
			v-0.128c-1.152-0.768-2.08-2.208-2.08-4.063c0-3.808,3.199-5.76,6.783-5.76c0.96,0,1.856,0.128,2.624,0.384h6.432v3.423h-3.231
			c0.384,0.48,0.735,1.28,0.735,2.112c0,3.648-2.88,5.312-6.56,5.312c-0.64,0-1.376-0.096-2.176-0.32
			c-0.479,0.352-0.704,0.64-0.704,1.152c0,0.864,0.832,1.216,2.688,1.216h2.943c4.16,0,6.432,1.152,6.432,4
			c0,3.328-3.68,5.728-9.439,5.728c-4.128,0-7.199-1.216-7.199-4.063C315.973,225.641,316.805,224.553,318.437,223.753z
			 M323.844,228.041c2.528,0,4.288-0.864,4.288-1.952c0-1.024-0.96-1.248-2.784-1.248h-1.983c-1.152,0-1.856-0.064-2.433-0.192
			c-0.8,0.512-1.119,0.992-1.119,1.568C319.813,227.401,321.348,228.041,323.844,228.041z M325.859,213.738
			c0-1.696-1.119-2.592-2.432-2.592c-1.312,0-2.367,0.896-2.367,2.592c0,1.728,1.056,2.624,2.367,2.624
			C324.74,216.361,325.859,215.465,325.859,213.738z"/>
		<path style="fill:#FFFFFF;" d="M348.995,215.881l-12.352,8v-4.256l8.479-5.312v-0.128l-8.479-5.312v-4.256l12.352,8V215.881z"/>
		<path style="fill:#FFFFFF;" d="M373.89,201.803h9.312v16.415c0,1.952,1.248,2.592,2.561,2.592c0.735,0,1.504-0.128,2.495-0.512
			l1.056,3.456c-1.663,0.512-2.783,0.864-4.768,0.864c-3.999,0-6.047-2.56-6.047-6.591v-12.511h-4.608V201.803z"/>
		<path style="fill:#FFFFFF;" d="M393.633,208.362h11.071v15.871h-4.703v-12.191h-6.368V208.362z M399.009,203.178
			c0-1.728,1.312-2.943,3.136-2.943s3.136,1.216,3.136,2.943c0,1.728-1.312,2.848-3.136,2.848S399.009,204.906,399.009,203.178z"/>
		<path style="fill:#FFFFFF;" d="M414.112,219.241c1.824,1.152,3.647,1.888,5.76,1.888c2.144,0,3.04-0.512,3.04-1.344
			c0-0.96-1.696-1.504-4.256-2.208c-2.784-0.768-5.664-2.112-5.664-4.64c0-2.943,2.784-4.959,7.328-4.959
			c2.815,0,5.184,1.12,6.847,2.176l-2.111,2.816c-1.44-0.864-2.976-1.504-4.64-1.504c-1.984,0-2.752,0.448-2.752,1.248
			c0,0.96,1.824,1.44,4.063,2.016c3.136,0.832,5.855,2.016,5.855,4.768c0,2.88-2.72,5.12-7.807,5.12
			c-2.849,0-5.76-1.088-7.775-2.432L414.112,219.241z"/>
		<path style="fill:#FFFFFF;" d="M435.071,212.042h-3.968v-3.488l4.192-0.192l0.607-4.224h3.872v4.224h6.688v3.68h-6.688v5.567
			c0,2.4,1.023,3.328,3.327,3.328c1.216,0,2.272-0.256,3.2-0.576l0.832,3.392c-1.408,0.416-3.168,0.864-5.216,0.864
			c-5.056,0-6.848-2.815-6.848-6.975V212.042z"/>
		<path style="fill:#FFFFFF;" d="M470.143,208.938h14.719v3.296h-14.719V208.938z M470.143,216.394h14.719v3.296h-14.719V216.394z"
			/>
		<path style="fill:#FFFFFF;" d="M515.9,217.098c2.208,0,3.711,1.664,3.711,3.775s-1.503,3.744-3.711,3.744
			s-3.712-1.632-3.712-3.744S513.692,217.098,515.9,217.098z"/>
		<path style="fill:#FFFFFF;" d="M535.1,217.098c2.208,0,3.711,1.664,3.711,3.775s-1.503,3.744-3.711,3.744
			s-3.712-1.632-3.712-3.744S532.892,217.098,535.1,217.098z"/>
		<path style="fill:#FFFFFF;" d="M554.299,217.098c2.208,0,3.711,1.664,3.711,3.775s-1.503,3.744-3.711,3.744
			s-3.712-1.632-3.712-3.744S552.091,217.098,554.299,217.098z"/>
		<path style="fill:#FFFFFF;" d="M569.722,228.425c2.784-0.96,4.16-2.528,4.16-4.544c-0.128,0.032-0.224,0.032-0.353,0.032
			c-1.791,0-3.455-1.152-3.455-3.264c0-1.984,1.6-3.296,3.584-3.296c2.623,0,3.967,2.048,3.967,5.503
			c0,4.064-2.304,6.976-6.719,8.319L569.722,228.425z M569.786,210.506c0-2.08,1.504-3.744,3.712-3.744s3.711,1.664,3.711,3.744
			c0,2.112-1.503,3.776-3.711,3.776S569.786,212.618,569.786,210.506z"/>
	</g>
</g>
<g id="jfx:p04">
	<g>
		<path style="fill:#FFFFFF;" d="M140.136,246.741c-0.992-0.384-2.112-0.608-3.328-0.608c-2.016,0-2.976,0.864-2.976,2.784v0.448
			h5.472v3.68h-5.472v12.191h-4.704v-12.191h-4.191v-3.488l4.191-0.192v-0.416c0-3.648,2.144-6.528,7.104-6.528
			c1.824,0,3.456,0.416,4.8,0.864L140.136,246.741z"/>
		<path style="fill:#FFFFFF;" d="M151.112,248.98c4.192,0,8.096,3.04,8.096,8.319c0,5.28-3.904,8.319-8.096,8.319
			c-4.191,0-8.095-3.04-8.095-8.319C143.017,252.021,146.921,248.98,151.112,248.98z M151.112,261.812
			c2.176,0,3.264-1.76,3.264-4.512c0-2.751-1.088-4.512-3.264-4.512s-3.264,1.76-3.264,4.512
			C147.849,260.052,148.937,261.812,151.112,261.812z"/>
		<path style="fill:#FFFFFF;" d="M164.425,249.365h3.839l0.384,3.456h0.096c1.568-2.592,3.904-3.84,6.432-3.84
			c1.408,0,2.144,0.224,3.072,0.64l-0.96,3.936c-0.992-0.288-1.632-0.448-2.816-0.448c-1.952,0-4,1.024-5.343,3.872v8.255h-4.704
			V249.365z"/>
		<path style="fill:#FFFFFF;" d="M204.904,256.34c0-6.016,2.592-10.943,6.751-14.623l2.624,2.08
			c-3.808,3.712-5.439,7.487-5.439,12.543s1.632,8.832,5.439,12.543l-2.624,2.08C207.496,267.283,204.904,262.355,204.904,256.34z"
			/>
		<path style="fill:#FFFFFF;" d="M222.632,259.38c1.568,1.28,3.52,2.176,5.343,2.176c2.176,0,3.136-0.768,3.136-2.016
			c0-1.312-1.216-1.728-3.232-2.496l-2.688-1.152c-2.336-0.864-4.448-2.656-4.448-5.696c0-3.456,3.136-6.208,7.647-6.208
			c2.528,0,5.056,0.96,6.944,2.752l-2.4,2.976c-1.439-1.056-2.751-1.664-4.543-1.664c-1.824,0-2.879,0.704-2.879,1.888
			c0,1.28,1.408,1.728,3.423,2.464l2.528,1.088c2.752,1.024,4.479,2.72,4.479,5.664c0,3.456-2.911,6.463-8.095,6.463
			c-2.815,0-5.695-1.024-7.935-3.008L222.632,259.38z"/>
		<path style="fill:#FFFFFF;" d="M243.079,253.044h-3.968v-3.488l4.192-0.192l0.607-4.224h3.872v4.224h6.688v3.68h-6.688v5.567
			c0,2.4,1.023,3.328,3.327,3.328c1.216,0,2.272-0.256,3.2-0.576l0.832,3.392c-1.408,0.416-3.168,0.864-5.216,0.864
			c-5.056,0-6.848-2.815-6.848-6.975V253.044z"/>
		<path style="fill:#FFFFFF;" d="M260.423,249.365h3.84l0.384,3.456h0.096c1.568-2.592,3.904-3.84,6.432-3.84
			c1.408,0,2.144,0.224,3.072,0.64l-0.96,3.936c-0.992-0.288-1.632-0.448-2.816-0.448c-1.951,0-3.999,1.024-5.344,3.872v8.255
			h-4.703V249.365z"/>
		<path style="fill:#FFFFFF;" d="M278.438,249.365h11.071v15.871h-4.703v-12.191h-6.368V249.365z M283.813,244.181
			c0-1.728,1.312-2.943,3.136-2.943s3.136,1.216,3.136,2.943c0,1.728-1.312,2.848-3.136,2.848S283.813,245.909,283.813,244.181z"/>
		<path style="fill:#FFFFFF;" d="M297.413,249.365h3.84l0.352,2.112h0.128c1.376-1.344,3.104-2.496,5.472-2.496
			c3.584,0,5.184,2.464,5.184,6.463v9.792h-4.703v-9.183c0-2.112-0.608-3.072-2.336-3.072c-1.28,0-2.112,0.576-3.231,1.664v10.591
			h-4.704V249.365z"/>
		<path style="fill:#FFFFFF;" d="M318.437,264.755v-0.128c-0.864-0.544-1.601-1.376-1.601-2.72c0-1.056,0.769-2.208,1.889-2.976
			v-0.128c-1.152-0.768-2.08-2.208-2.08-4.063c0-3.808,3.199-5.76,6.783-5.76c0.96,0,1.856,0.128,2.624,0.384h6.432v3.423h-3.231
			c0.384,0.48,0.735,1.28,0.735,2.112c0,3.648-2.88,5.312-6.56,5.312c-0.64,0-1.376-0.096-2.176-0.32
			c-0.479,0.352-0.704,0.64-0.704,1.152c0,0.864,0.832,1.216,2.688,1.216h2.943c4.16,0,6.432,1.152,6.432,4
			c0,3.328-3.68,5.728-9.439,5.728c-4.128,0-7.199-1.216-7.199-4.063C315.973,266.643,316.805,265.555,318.437,264.755z
			 M323.844,269.043c2.528,0,4.288-0.864,4.288-1.952c0-1.024-0.96-1.248-2.784-1.248h-1.983c-1.152,0-1.856-0.064-2.433-0.192
			c-0.8,0.512-1.119,0.992-1.119,1.568C319.813,268.403,321.348,269.043,323.844,269.043z M325.859,254.74
			c0-1.696-1.119-2.592-2.432-2.592c-1.312,0-2.367,0.896-2.367,2.592c0,1.728,1.056,2.624,2.367,2.624
			C324.74,257.364,325.859,256.468,325.859,254.74z"/>
		<path style="fill:#FFFFFF;" d="M362.723,248.98c4.896,0,7.455,3.296,7.455,7.616c0,0.832-0.128,1.6-0.192,1.983h-10.687
			c0.447,2.4,2.271,3.456,4.607,3.456c1.439,0,2.688-0.384,4.096-1.088l1.536,2.816c-1.792,1.152-4.16,1.855-6.271,1.855
			c-4.928,0-8.8-3.072-8.8-8.319C354.467,252.116,358.499,248.98,362.723,248.98z M365.922,255.668c0-1.824-0.96-3.104-3.104-3.104
			c-1.696,0-3.2,0.992-3.584,3.104H365.922z"/>
		<path style="fill:#FFFFFF;" d="M373.89,242.805h9.312v16.415c0,1.952,1.248,2.592,2.561,2.592c0.735,0,1.504-0.128,2.495-0.512
			l1.056,3.456c-1.663,0.512-2.783,0.864-4.768,0.864c-3.999,0-6.047-2.56-6.047-6.591v-12.511h-4.608V242.805z"/>
		<path style="fill:#FFFFFF;" d="M401.121,248.98c4.896,0,7.455,3.296,7.455,7.616c0,0.832-0.128,1.6-0.192,1.983h-10.687
			c0.447,2.4,2.271,3.456,4.607,3.456c1.439,0,2.688-0.384,4.096-1.088l1.536,2.816c-1.792,1.152-4.16,1.855-6.271,1.855
			c-4.928,0-8.8-3.072-8.8-8.319C392.865,252.116,396.897,248.98,401.121,248.98z M404.32,255.668c0-1.824-0.96-3.104-3.104-3.104
			c-1.696,0-3.2,0.992-3.584,3.104H404.32z"/>
		<path style="fill:#FFFFFF;" d="M411.457,249.365h3.52l0.352,1.983h0.128c0.608-1.312,1.568-2.368,3.392-2.368
			c1.408,0,2.4,0.896,2.784,2.592c0.576-1.44,1.696-2.592,3.487-2.592c2.208,0,3.521,1.952,3.521,5.12v11.135h-4.416v-10.783
			c0-0.992-0.256-1.472-0.896-1.472c-0.608,0-1.057,0.512-1.473,1.536v10.719h-3.615v-10.783c0-0.992-0.32-1.472-0.928-1.472
			c-0.608,0-0.992,0.512-1.44,1.536v10.719h-4.415V249.365z"/>
		<path style="fill:#FFFFFF;" d="M439.52,248.98c4.896,0,7.455,3.296,7.455,7.616c0,0.832-0.128,1.6-0.192,1.983h-10.687
			c0.447,2.4,2.271,3.456,4.607,3.456c1.439,0,2.688-0.384,4.096-1.088l1.536,2.816c-1.792,1.152-4.16,1.855-6.271,1.855
			c-4.928,0-8.8-3.072-8.8-8.319C431.264,252.116,435.296,248.98,439.52,248.98z M442.719,255.668c0-1.824-0.96-3.104-3.104-3.104
			c-1.696,0-3.2,0.992-3.584,3.104H442.719z"/>
		<path style="fill:#FFFFFF;" d="M451.007,249.365h3.84l0.352,2.112h0.128c1.376-1.344,3.104-2.496,5.472-2.496
			c3.584,0,5.184,2.464,5.184,6.463v9.792h-4.703v-9.183c0-2.112-0.608-3.072-2.336-3.072c-1.28,0-2.112,0.576-3.231,1.664v10.591
			h-4.704V249.365z"/>
		<path style="fill:#FFFFFF;" d="M473.47,253.044h-3.968v-3.488l4.192-0.192l0.607-4.224h3.872v4.224h6.688v3.68h-6.688v5.567
			c0,2.4,1.023,3.328,3.327,3.328c1.216,0,2.272-0.256,3.2-0.576l0.832,3.392c-1.408,0.416-3.168,0.864-5.216,0.864
			c-5.056,0-6.848-2.815-6.848-6.975V253.044z"/>
		<path style="fill:#FFFFFF;" d="M496.701,247.765c2.208,0,3.711,1.664,3.711,3.744c0,2.112-1.503,3.776-3.711,3.776
			s-3.712-1.664-3.712-3.776C492.989,249.429,494.493,247.765,496.701,247.765z M496.701,258.1c2.208,0,3.711,1.664,3.711,3.775
			s-1.503,3.744-3.711,3.744s-3.712-1.632-3.712-3.744S494.493,258.1,496.701,258.1z"/>
		<path style="fill:#FFFFFF;" d="M527.483,242.805h9.312v16.415c0,1.952,1.248,2.592,2.561,2.592c0.735,0,1.504-0.128,2.495-0.512
			l1.056,3.456c-1.663,0.512-2.783,0.864-4.768,0.864c-3.999,0-6.047-2.56-6.047-6.591v-12.511h-4.608V242.805z"/>
		<path style="fill:#FFFFFF;" d="M547.227,249.365h11.071v15.871h-4.703v-12.191h-6.368V249.365z M552.603,244.181
			c0-1.728,1.312-2.943,3.136-2.943s3.136,1.216,3.136,2.943c0,1.728-1.312,2.848-3.136,2.848S552.603,245.909,552.603,244.181z"/>
		<path style="fill:#FFFFFF;" d="M567.706,260.244c1.824,1.152,3.647,1.888,5.76,1.888c2.144,0,3.04-0.512,3.04-1.344
			c0-0.96-1.696-1.504-4.256-2.208c-2.784-0.768-5.664-2.112-5.664-4.64c0-2.943,2.784-4.959,7.328-4.959
			c2.815,0,5.184,1.12,6.847,2.176l-2.111,2.816c-1.44-0.864-2.976-1.504-4.64-1.504c-1.984,0-2.752,0.448-2.752,1.248
			c0,0.96,1.824,1.44,4.063,2.016c3.136,0.832,5.855,2.016,5.855,4.768c0,2.88-2.72,5.12-7.807,5.12
			c-2.849,0-5.76-1.088-7.775-2.432L567.706,260.244z"/>
		<path style="fill:#FFFFFF;" d="M588.665,253.044h-3.968v-3.488l4.192-0.192l0.607-4.224h3.872v4.224h6.688v3.68h-6.688v5.567
			c0,2.4,1.023,3.328,3.327,3.328c1.216,0,2.272-0.256,3.2-0.576l0.832,3.392c-1.408,0.416-3.168,0.864-5.216,0.864
			c-5.056,0-6.848-2.815-6.848-6.975V253.044z"/>
		<path style="fill:#FFFFFF;" d="M606.328,268.883c3.809-3.712,5.44-7.488,5.44-12.543s-1.632-8.831-5.44-12.543l2.624-2.08
			c4.16,3.68,6.752,8.607,6.752,14.623s-2.592,10.943-6.752,14.623L606.328,268.883z"/>
		<path style="fill:#FFFFFF;" d="M648.471,260.083c0-1.12-0.928-2.304-4.384-2.368v-2.752c3.456-0.064,4.384-1.248,4.384-2.368
			c0-1.984-0.32-3.231-0.32-5.472c0-3.456,1.856-4.543,5.952-4.543h2.464v2.496h-1.313c-2.655,0-3.264,0.448-3.264,2.24
			c0,1.696,0.16,3.328,0.16,5.215c0,2.432-0.928,3.36-3.199,3.744v0.128c2.271,0.384,3.199,1.312,3.199,3.744
			c0,1.952-0.16,3.487-0.16,5.215c0,1.792,0.608,2.24,3.264,2.24h1.313v2.496h-2.464c-4.096,0-5.952-1.088-5.952-4.544
			C648.15,263.284,648.471,262.1,648.471,260.083z"/>
		<path style="fill:#FFFFFF;" d="M203.432,297.38c1.568,1.28,3.52,2.176,5.343,2.176c2.176,0,3.136-0.768,3.136-2.016
			c0-1.312-1.216-1.728-3.231-2.496l-2.688-1.152c-2.336-0.864-4.448-2.656-4.448-5.696c0-3.456,3.136-6.208,7.647-6.208
			c2.528,0,5.056,0.96,6.944,2.752l-2.4,2.976c-1.44-1.056-2.752-1.664-4.544-1.664c-1.824,0-2.879,0.704-2.879,1.888
			c0,1.28,1.408,1.728,3.423,2.464l2.528,1.088c2.752,1.024,4.48,2.72,4.48,5.664c0,3.456-2.912,6.463-8.096,6.463
			c-2.815,0-5.695-1.024-7.935-3.008L203.432,297.38z"/>
		<path style="fill:#FFFFFF;" d="M222.536,305.731c1.824,0,2.816-0.832,3.328-2.08l0.32-0.832l-6.88-15.455h4.672l2.656,6.815
			c0.576,1.504,1.088,3.104,1.6,4.768h0.128c0.416-1.568,0.96-3.2,1.44-4.768l2.335-6.815h4.448l-6.272,16.031
			c-1.536,4-3.424,6.047-7.423,6.047c-0.928,0-1.76-0.128-2.432-0.32l0.832-3.584C221.704,305.667,222.12,305.731,222.536,305.731z"
			/>
		<path style="fill:#FFFFFF;" d="M241.319,298.244c1.824,1.152,3.647,1.888,5.76,1.888c2.144,0,3.04-0.512,3.04-1.344
			c0-0.96-1.696-1.504-4.256-2.208c-2.784-0.768-5.664-2.112-5.664-4.64c0-2.943,2.784-4.959,7.328-4.959
			c2.815,0,5.184,1.12,6.847,2.176l-2.111,2.816c-1.44-0.864-2.976-1.504-4.64-1.504c-1.984,0-2.752,0.448-2.752,1.248
			c0,0.96,1.824,1.44,4.063,2.016c3.136,0.832,5.855,2.016,5.855,4.768c0,2.88-2.72,5.12-7.807,5.12
			c-2.849,0-5.76-1.088-7.775-2.432L241.319,298.244z"/>
		<path style="fill:#FFFFFF;" d="M262.278,291.044h-3.968v-3.488l4.192-0.192l0.607-4.224h3.872v4.224h6.688v3.68h-6.688v5.567
			c0,2.4,1.023,3.328,3.327,3.328c1.216,0,2.272-0.256,3.2-0.576l0.832,3.392c-1.408,0.416-3.168,0.864-5.216,0.864
			c-5.056,0-6.848-2.815-6.848-6.975V291.044z"/>
		<path style="fill:#FFFFFF;" d="M285.926,286.98c4.896,0,7.455,3.296,7.455,7.616c0,0.832-0.128,1.6-0.192,1.983h-10.687
			c0.447,2.4,2.271,3.456,4.607,3.456c1.439,0,2.688-0.384,4.096-1.088l1.536,2.816c-1.792,1.152-4.16,1.855-6.271,1.855
			c-4.928,0-8.8-3.072-8.8-8.319C277.67,290.116,281.702,286.98,285.926,286.98z M289.125,293.668c0-1.824-0.96-3.104-3.104-3.104
			c-1.696,0-3.2,0.992-3.584,3.104H289.125z"/>
		<path style="fill:#FFFFFF;" d="M296.262,287.365h3.52l0.352,1.983h0.128c0.608-1.312,1.568-2.368,3.392-2.368
			c1.408,0,2.4,0.896,2.784,2.592c0.576-1.44,1.696-2.592,3.487-2.592c2.208,0,3.521,1.952,3.521,5.12v11.135h-4.416v-10.783
			c0-0.992-0.256-1.472-0.896-1.472c-0.608,0-1.057,0.512-1.473,1.536v10.719h-3.615v-10.783c0-0.992-0.32-1.472-0.928-1.472
			c-0.608,0-0.992,0.512-1.44,1.536v10.719h-4.415V287.365z"/>
		<path style="fill:#FFFFFF;" d="M323.908,296.1c2.208,0,3.711,1.664,3.711,3.775s-1.503,3.744-3.711,3.744
			s-3.712-1.632-3.712-3.744S321.7,296.1,323.908,296.1z"/>
		<path style="fill:#FFFFFF;" d="M343.107,286.98c4.191,0,8.095,3.04,8.095,8.319c0,5.28-3.903,8.319-8.095,8.319
			c-4.192,0-8.096-3.04-8.096-8.319C335.012,290.021,338.915,286.98,343.107,286.98z M343.107,299.812
			c2.176,0,3.264-1.76,3.264-4.512c0-2.751-1.088-4.512-3.264-4.512s-3.264,1.76-3.264,4.512
			C339.844,298.052,340.932,299.812,343.107,299.812z"/>
		<path style="fill:#FFFFFF;" d="M369.506,303.235h-3.84l-0.352-2.272h-0.128c-1.408,1.6-3.072,2.656-5.344,2.656
			c-3.616,0-5.152-2.464-5.152-6.463v-9.791h4.704v9.183c0,2.112,0.544,3.072,2.304,3.072c1.184,0,2.016-0.416,3.104-1.824v-10.431
			h4.704V303.235z"/>
		<path style="fill:#FFFFFF;" d="M377.474,291.044h-3.968v-3.488l4.192-0.192l0.607-4.224h3.872v4.224h6.688v3.68h-6.688v5.567
			c0,2.4,1.023,3.328,3.327,3.328c1.216,0,2.272-0.256,3.2-0.576l0.832,3.392c-1.408,0.416-3.168,0.864-5.216,0.864
			c-5.056,0-6.848-2.815-6.848-6.975V291.044z"/>
		<path style="fill:#FFFFFF;" d="M400.705,296.1c2.208,0,3.711,1.664,3.711,3.775s-1.503,3.744-3.711,3.744
			s-3.712-1.632-3.712-3.744S398.497,296.1,400.705,296.1z"/>
		<path style="fill:#FFFFFF;" d="M417.313,304.483v4.64h-4.704v-21.758h3.84l0.352,1.6h0.097c1.279-1.152,3.039-1.984,4.735-1.984
			c3.968,0,6.367,3.168,6.367,8.063c0,5.439-3.327,8.575-6.879,8.575c-1.408,0-2.816-0.608-3.968-1.728L417.313,304.483z
			 M420.032,299.78c1.76,0,3.136-1.408,3.136-4.672c0-2.848-0.928-4.288-2.912-4.288c-1.023,0-1.952,0.448-2.943,1.472v6.432
			C418.208,299.492,419.232,299.78,420.032,299.78z"/>
		<path style="fill:#FFFFFF;" d="M433.216,287.365h3.84l0.384,3.456h0.096c1.568-2.592,3.904-3.84,6.432-3.84
			c1.408,0,2.144,0.224,3.072,0.64l-0.96,3.936c-0.992-0.288-1.632-0.448-2.816-0.448c-1.951,0-3.999,1.024-5.344,3.872v8.255
			h-4.703V287.365z"/>
		<path style="fill:#FFFFFF;" d="M451.23,287.365h11.071v15.871h-4.703v-12.191h-6.368V287.365z M456.606,282.181
			c0-1.728,1.312-2.943,3.136-2.943s3.136,1.216,3.136,2.943c0,1.728-1.312,2.848-3.136,2.848S456.606,283.909,456.606,282.181z"/>
		<path style="fill:#FFFFFF;" d="M470.206,287.365h3.84l0.352,2.112h0.128c1.376-1.344,3.104-2.496,5.472-2.496
			c3.584,0,5.184,2.464,5.184,6.463v9.792h-4.703v-9.183c0-2.112-0.608-3.072-2.336-3.072c-1.28,0-2.112,0.576-3.231,1.664v10.591
			h-4.704V287.365z"/>
		<path style="fill:#FFFFFF;" d="M492.669,291.044h-3.968v-3.488l4.192-0.192l0.607-4.224h3.872v4.224h6.688v3.68h-6.688v5.567
			c0,2.4,1.023,3.328,3.327,3.328c1.216,0,2.272-0.256,3.2-0.576l0.832,3.392c-1.408,0.416-3.168,0.864-5.216,0.864
			c-5.056,0-6.848-2.815-6.848-6.975V291.044z"/>
		<path style="fill:#FFFFFF;" d="M508.284,280.805h9.312v16.415c0,1.952,1.248,2.592,2.561,2.592c0.735,0,1.504-0.128,2.495-0.512
			l1.056,3.456c-1.663,0.512-2.783,0.864-4.768,0.864c-3.999,0-6.047-2.56-6.047-6.591v-12.511h-4.608V280.805z"/>
		<path style="fill:#FFFFFF;" d="M527.804,287.365h3.84l0.352,2.112h0.128c1.376-1.344,3.104-2.496,5.472-2.496
			c3.584,0,5.184,2.464,5.184,6.463v9.792h-4.703v-9.183c0-2.112-0.608-3.072-2.336-3.072c-1.28,0-2.112,0.576-3.231,1.664v10.591
			h-4.704V287.365z"/>
		<path style="fill:#FFFFFF;" d="M550.491,294.34c0-6.016,2.592-10.943,6.751-14.623l2.624,2.08
			c-3.808,3.712-5.439,7.487-5.439,12.543s1.632,8.832,5.439,12.543l-2.624,2.08C553.083,305.283,550.491,300.355,550.491,294.34z"
			/>
		<path style="fill:#FFFFFF;" d="M573.914,286.98c4.896,0,7.455,3.296,7.455,7.616c0,0.832-0.128,1.6-0.192,1.983H570.49
			c0.447,2.4,2.271,3.456,4.607,3.456c1.439,0,2.688-0.384,4.096-1.088l1.536,2.816c-1.792,1.152-4.16,1.855-6.271,1.855
			c-4.928,0-8.8-3.072-8.8-8.319C565.658,290.116,569.69,286.98,573.914,286.98z M577.113,293.668c0-1.824-0.96-3.104-3.104-3.104
			c-1.696,0-3.2,0.992-3.584,3.104H577.113z"/>
		<path style="fill:#FFFFFF;" d="M585.081,280.805h9.312v16.415c0,1.952,1.248,2.592,2.561,2.592c0.735,0,1.504-0.128,2.495-0.512
			l1.056,3.456c-1.663,0.512-2.783,0.864-4.768,0.864c-3.999,0-6.047-2.56-6.047-6.591v-12.511h-4.608V280.805z"/>
		<path style="fill:#FFFFFF;" d="M612.313,286.98c4.896,0,7.455,3.296,7.455,7.616c0,0.832-0.128,1.6-0.192,1.983h-10.687
			c0.447,2.4,2.271,3.456,4.607,3.456c1.439,0,2.688-0.384,4.096-1.088l1.536,2.816c-1.792,1.152-4.16,1.855-6.271,1.855
			c-4.928,0-8.8-3.072-8.8-8.319C604.057,290.116,608.089,286.98,612.313,286.98z M615.512,293.668c0-1.824-0.96-3.104-3.104-3.104
			c-1.696,0-3.2,0.992-3.584,3.104H615.512z"/>
		<path style="fill:#FFFFFF;" d="M622.648,287.365h3.52l0.352,1.983h0.128c0.608-1.312,1.568-2.368,3.392-2.368
			c1.408,0,2.4,0.896,2.784,2.592c0.576-1.44,1.696-2.592,3.487-2.592c2.208,0,3.521,1.952,3.521,5.12v11.135h-4.416v-10.783
			c0-0.992-0.256-1.472-0.896-1.472c-0.608,0-1.057,0.512-1.473,1.536v10.719h-3.615v-10.783c0-0.992-0.32-1.472-0.928-1.472
			c-0.608,0-0.992,0.512-1.44,1.536v10.719h-4.415V287.365z"/>
		<path style="fill:#FFFFFF;" d="M650.711,286.98c4.896,0,7.455,3.296,7.455,7.616c0,0.832-0.128,1.6-0.192,1.983h-10.687
			c0.447,2.4,2.271,3.456,4.607,3.456c1.439,0,2.688-0.384,4.096-1.088l1.536,2.816c-1.792,1.152-4.16,1.855-6.271,1.855
			c-4.928,0-8.8-3.072-8.8-8.319C642.455,290.116,646.487,286.98,650.711,286.98z M653.91,293.668c0-1.824-0.96-3.104-3.104-3.104
			c-1.696,0-3.2,0.992-3.584,3.104H653.91z"/>
		<path style="fill:#FFFFFF;" d="M662.198,287.365h3.84l0.352,2.112h0.128c1.376-1.344,3.104-2.496,5.472-2.496
			c3.584,0,5.184,2.464,5.184,6.463v9.792h-4.703v-9.183c0-2.112-0.608-3.072-2.336-3.072c-1.28,0-2.112,0.576-3.231,1.664v10.591
			h-4.704V287.365z"/>
		<path style="fill:#FFFFFF;" d="M684.661,291.044h-3.968v-3.488l4.192-0.192l0.607-4.224h3.872v4.224h6.688v3.68h-6.688v5.567
			c0,2.4,1.023,3.328,3.327,3.328c1.216,0,2.272-0.256,3.2-0.576l0.832,3.392c-1.408,0.416-3.168,0.864-5.216,0.864
			c-5.056,0-6.848-2.815-6.848-6.975V291.044z"/>
		<path style="fill:#FFFFFF;" d="M702.324,306.883c3.809-3.712,5.44-7.488,5.44-12.543s-1.632-8.831-5.44-12.543l2.624-2.08
			c4.16,3.68,6.752,8.607,6.752,14.623s-2.592,10.943-6.752,14.623L702.324,306.883z"/>
		<path style="fill:#FFFFFF;" d="M723.315,307.427c2.784-0.96,4.16-2.528,4.16-4.544c-0.128,0.032-0.224,0.032-0.353,0.032
			c-1.791,0-3.455-1.152-3.455-3.264c0-1.984,1.6-3.296,3.584-3.296c2.623,0,3.967,2.048,3.967,5.503
			c0,4.064-2.304,6.976-6.719,8.319L723.315,307.427z M723.38,289.508c0-2.08,1.504-3.744,3.712-3.744s3.711,1.664,3.711,3.744
			c0,2.112-1.503,3.776-3.711,3.776S723.38,291.62,723.38,289.508z"/>
		<path style="fill:#FFFFFF;" d="M126.985,343.603c2.624,0,3.231-0.448,3.231-2.24c0-1.728-0.128-3.264-0.128-5.215
			c0-2.432,0.896-3.36,3.2-3.744v-0.128c-2.304-0.384-3.2-1.312-3.2-3.744c0-1.888,0.128-3.52,0.128-5.215
			c0-1.792-0.608-2.24-3.231-2.24h-1.312v-2.496h2.464c4.096,0,5.952,1.088,5.952,4.543c0,2.24-0.352,3.488-0.352,5.472
			c0,1.12,0.928,2.304,4.416,2.368v2.752c-3.488,0.064-4.416,1.248-4.416,2.368c0,2.016,0.352,3.2,0.352,5.472
			c0,3.456-1.856,4.544-5.952,4.544h-2.464v-2.496H126.985z"/>
	</g>
</g>
<g id="jfx:p05">
	<g>
		<path style="fill:#FFFFFF;" d="M124.297,242.805h9.312v16.415c0,1.952,1.248,2.592,2.56,2.592c0.736,0,1.504-0.128,2.496-0.512
			l1.056,3.456c-1.664,0.512-2.784,0.864-4.768,0.864c-4,0-6.048-2.56-6.048-6.591v-12.511h-4.607V242.805z"/>
		<path style="fill:#FFFFFF;" d="M144.041,249.364h11.071v15.871h-4.704v-12.191h-6.368V249.364z M149.417,244.18
			c0-1.728,1.312-2.943,3.136-2.943c1.824,0,3.136,1.216,3.136,2.943c0,1.728-1.312,2.848-3.136,2.848
			C150.729,247.028,149.417,245.908,149.417,244.18z"/>
		<path style="fill:#FFFFFF;" d="M164.521,260.243c1.824,1.152,3.648,1.888,5.76,1.888c2.144,0,3.04-0.512,3.04-1.344
			c0-0.96-1.696-1.504-4.255-2.208c-2.784-0.768-5.664-2.112-5.664-4.64c0-2.943,2.784-4.959,7.327-4.959
			c2.816,0,5.184,1.12,6.848,2.176l-2.112,2.816c-1.44-0.864-2.976-1.504-4.64-1.504c-1.984,0-2.752,0.448-2.752,1.248
			c0,0.96,1.824,1.44,4.064,2.016c3.136,0.832,5.855,2.016,5.855,4.768c0,2.88-2.72,5.12-7.808,5.12
			c-2.848,0-5.759-1.088-7.775-2.432L164.521,260.243z"/>
		<path style="fill:#FFFFFF;" d="M185.48,253.044h-3.967v-3.488l4.191-0.192l0.608-4.224h3.872v4.224h6.688v3.68h-6.688v5.567
			c0,2.4,1.024,3.328,3.328,3.328c1.216,0,2.271-0.256,3.2-0.576l0.832,3.392c-1.408,0.416-3.168,0.864-5.216,0.864
			c-5.056,0-6.848-2.815-6.848-6.975V253.044z"/>
		<path style="fill:#FFFFFF;" d="M208.711,258.1c2.208,0,3.712,1.664,3.712,3.775s-1.504,3.744-3.712,3.744
			c-2.208,0-3.711-1.632-3.711-3.744S206.504,258.1,208.711,258.1z"/>
		<path style="fill:#FFFFFF;" d="M236.135,246.74c-0.992-0.384-2.112-0.608-3.328-0.608c-2.016,0-2.976,0.864-2.976,2.784v0.448
			h5.472v3.68h-5.472v12.191h-4.704v-12.191h-4.191v-3.488l4.191-0.192v-0.416c0-3.648,2.144-6.528,7.104-6.528
			c1.823,0,3.455,0.416,4.799,0.864L236.135,246.74z"/>
		<path style="fill:#FFFFFF;" d="M247.111,248.98c4.191,0,8.095,3.04,8.095,8.319c0,5.28-3.903,8.319-8.095,8.319
			c-4.192,0-8.096-3.04-8.096-8.319C239.016,252.02,242.919,248.98,247.111,248.98z M247.111,261.811
			c2.176,0,3.264-1.76,3.264-4.512c0-2.751-1.088-4.512-3.264-4.512s-3.264,1.76-3.264,4.512
			C243.848,260.051,244.936,261.811,247.111,261.811z"/>
		<path style="fill:#FFFFFF;" d="M260.423,249.364h3.84l0.384,3.456h0.096c1.568-2.592,3.904-3.84,6.432-3.84
			c1.408,0,2.144,0.224,3.072,0.64l-0.96,3.936c-0.992-0.288-1.632-0.448-2.816-0.448c-1.951,0-3.999,1.024-5.344,3.872v8.255
			h-4.703V249.364z"/>
		<path style="fill:#FFFFFF;" d="M278.918,244.373h13.759v3.967h-9.055v4.192h7.679v3.936h-7.679v4.8h9.375v3.968h-14.079V244.373z"
			/>
		<path style="fill:#FFFFFF;" d="M307.524,255.028c-0.16-1.44-1.248-2.304-3.392-2.304c-1.536,0-3.04,0.576-4.832,1.472
			l-1.664-3.072c2.177-1.248,4.704-2.144,7.424-2.144c4.448,0,7.168,2.304,7.168,7.167v9.087h-3.84l-0.353-1.792h-0.128
			c-1.6,1.216-3.584,2.176-5.631,2.176c-3.2,0-5.216-2.112-5.216-4.799C297.062,257.268,300.005,255.476,307.524,255.028z
			 M303.78,261.971c1.408,0,2.624-0.64,3.744-1.504v-2.624c-4.672,0.256-5.951,1.248-5.951,2.624
			C301.573,261.491,302.437,261.971,303.78,261.971z"/>
		<path style="fill:#FFFFFF;" d="M325.636,248.98c2.496,0,4.607,0.896,5.951,2.144l-2.176,2.912
			c-1.216-0.864-2.336-1.248-3.52-1.248c-2.72,0-4.607,1.76-4.607,4.512c0,2.752,1.824,4.512,4.447,4.512
			c1.664,0,3.072-0.704,4.192-1.504l1.92,2.976c-1.92,1.6-4.384,2.335-6.56,2.335c-4.992,0-8.832-3.04-8.832-8.319
			C316.452,252.02,320.74,248.98,325.636,248.98z"/>
		<path style="fill:#FFFFFF;" d="M335.812,242.805h4.704v5.503l-0.256,3.04c1.247-1.216,2.976-2.368,5.375-2.368
			c3.552,0,5.151,2.464,5.151,6.463v9.792h-4.703v-9.183c0-2.112-0.608-3.072-2.336-3.072c-1.28,0-2.112,0.576-3.231,1.664v10.591
			h-4.704V242.805z"/>
		<path style="fill:#FFFFFF;" d="M358.499,256.339c0-6.016,2.592-10.943,6.751-14.623l2.624,2.08
			c-3.808,3.712-5.439,7.487-5.439,12.543s1.632,8.832,5.439,12.543l-2.624,2.08C361.091,267.283,358.499,262.355,358.499,256.339z"
			/>
		<path style="fill:#FFFFFF;" d="M374.21,249.364h3.84l0.352,2.112h0.128c1.376-1.344,3.104-2.496,5.472-2.496
			c3.584,0,5.184,2.464,5.184,6.463v9.792h-4.703v-9.183c0-2.112-0.608-3.072-2.336-3.072c-1.28,0-2.112,0.576-3.231,1.664v10.591
			h-4.704V249.364z"/>
		<path style="fill:#FFFFFF;" d="M401.121,248.98c4.896,0,7.455,3.296,7.455,7.616c0,0.832-0.128,1.6-0.192,1.983h-10.687
			c0.447,2.4,2.271,3.456,4.607,3.456c1.439,0,2.688-0.384,4.096-1.088l1.536,2.816c-1.792,1.152-4.16,1.855-6.271,1.855
			c-4.928,0-8.8-3.072-8.8-8.319C392.865,252.116,396.897,248.98,401.121,248.98z M404.32,255.667c0-1.824-0.96-3.104-3.104-3.104
			c-1.696,0-3.2,0.992-3.584,3.104H404.32z"/>
		<path style="fill:#FFFFFF;" d="M410.4,249.364h4.608l0.991,7.359c0.225,1.568,0.32,3.104,0.544,4.704h0.097
			c0.191-1.6,0.416-3.2,0.735-4.704l1.024-5.248h3.231l1.12,5.248c0.288,1.568,0.512,3.104,0.735,4.704h0.128
			c0.225-1.6,0.288-3.136,0.513-4.704l0.991-7.359h4.288l-2.464,15.871h-5.472l-0.896-5.28c-0.225-1.472-0.416-2.944-0.641-4.64
			h-0.128c-0.128,1.152-0.256,2.464-0.544,4.64l-0.863,5.28h-5.376L410.4,249.364z"/>
		<path style="fill:#FFFFFF;" d="M451.391,244.373h6.527c4.32,0,7.647,1.184,7.647,5.184c0,1.856-1.119,3.872-3.583,4.512v0.128
			c2.976,0.544,4.543,2.112,4.543,4.896c0,4.256-3.487,6.144-7.999,6.144h-7.136V244.373z M457.694,252.788
			c2.304,0,3.264-0.992,3.264-2.56s-1.023-2.208-3.231-2.208h-1.632v4.768H457.694z M458.143,261.587c2.56,0,3.775-0.96,3.775-2.848
			c0-1.824-1.184-2.624-3.775-2.624h-2.048v5.471H458.143z"/>
		<path style="fill:#FFFFFF;" d="M469.886,242.805h9.312v16.415c0,1.952,1.248,2.592,2.561,2.592c0.735,0,1.504-0.128,2.495-0.512
			l1.056,3.456c-1.663,0.512-2.783,0.864-4.768,0.864c-3.999,0-6.047-2.56-6.047-6.591v-12.511h-4.608V242.805z"/>
		<path style="fill:#FFFFFF;" d="M496.701,248.98c4.191,0,8.095,3.04,8.095,8.319c0,5.28-3.903,8.319-8.095,8.319
			c-4.192,0-8.096-3.04-8.096-8.319C488.605,252.02,492.509,248.98,496.701,248.98z M496.701,261.811
			c2.176,0,3.264-1.76,3.264-4.512c0-2.751-1.088-4.512-3.264-4.512s-3.264,1.76-3.264,4.512
			C493.438,260.051,494.525,261.811,496.701,261.811z"/>
		<path style="fill:#FFFFFF;" d="M517.628,248.98c2.496,0,4.607,0.896,5.951,2.144l-2.176,2.912
			c-1.216-0.864-2.336-1.248-3.52-1.248c-2.72,0-4.607,1.76-4.607,4.512c0,2.752,1.824,4.512,4.447,4.512
			c1.664,0,3.072-0.704,4.192-1.504l1.92,2.976c-1.92,1.6-4.384,2.335-6.56,2.335c-4.992,0-8.832-3.04-8.832-8.319
			C508.444,252.02,512.732,248.98,517.628,248.98z"/>
		<path style="fill:#FFFFFF;" d="M527.932,242.805h4.704v12.863l0.096-0.032l5.855-6.271h5.151l-6.016,6.527l6.496,9.343h-5.088
			l-4.128-6.24l-2.367,2.304v3.936h-4.704V242.805z"/>
		<path style="fill:#FFFFFF;" d="M548.411,253.62l12.351-8v4.256l-8.479,5.312v0.128l8.479,5.312v4.256l-12.351-8V253.62z"/>
		<path style="fill:#FFFFFF;" d="M568.218,259.379c1.568,1.28,3.521,2.176,5.344,2.176c2.176,0,3.136-0.768,3.136-2.016
			c0-1.312-1.216-1.728-3.231-2.496l-2.688-1.152c-2.336-0.864-4.448-2.656-4.448-5.696c0-3.456,3.136-6.208,7.647-6.208
			c2.528,0,5.056,0.96,6.943,2.752l-2.399,2.976c-1.44-1.056-2.752-1.664-4.544-1.664c-1.823,0-2.88,0.704-2.88,1.888
			c0,1.28,1.408,1.728,3.424,2.464l2.528,1.088c2.752,1.024,4.479,2.72,4.479,5.664c0,3.456-2.912,6.463-8.096,6.463
			c-2.815,0-5.695-1.024-7.936-3.008L568.218,259.379z"/>
		<path style="fill:#FFFFFF;" d="M588.665,253.044h-3.968v-3.488l4.192-0.192l0.607-4.224h3.872v4.224h6.688v3.68h-6.688v5.567
			c0,2.4,1.023,3.328,3.327,3.328c1.216,0,2.272-0.256,3.2-0.576l0.832,3.392c-1.408,0.416-3.168,0.864-5.216,0.864
			c-5.056,0-6.848-2.815-6.848-6.975V253.044z"/>
		<path style="fill:#FFFFFF;" d="M606.009,249.364h3.84l0.384,3.456h0.096c1.568-2.592,3.904-3.84,6.432-3.84
			c1.408,0,2.144,0.224,3.072,0.64l-0.96,3.936c-0.992-0.288-1.632-0.448-2.816-0.448c-1.951,0-3.999,1.024-5.344,3.872v8.255
			h-4.703V249.364z"/>
		<path style="fill:#FFFFFF;" d="M624.023,249.364h11.071v15.871h-4.703v-12.191h-6.368V249.364z M629.399,244.18
			c0-1.728,1.312-2.943,3.136-2.943s3.136,1.216,3.136,2.943c0,1.728-1.312,2.848-3.136,2.848S629.399,245.908,629.399,244.18z"/>
		<path style="fill:#FFFFFF;" d="M642.999,249.364h3.84l0.352,2.112h0.128c1.376-1.344,3.104-2.496,5.472-2.496
			c3.584,0,5.184,2.464,5.184,6.463v9.792h-4.703v-9.183c0-2.112-0.608-3.072-2.336-3.072c-1.28,0-2.112,0.576-3.231,1.664v10.591
			h-4.704V249.364z"/>
		<path style="fill:#FFFFFF;" d="M664.022,264.755v-0.128c-0.864-0.544-1.601-1.376-1.601-2.72c0-1.056,0.769-2.208,1.889-2.976
			v-0.128c-1.152-0.768-2.08-2.208-2.08-4.063c0-3.808,3.199-5.76,6.783-5.76c0.96,0,1.856,0.128,2.624,0.384h6.432v3.423h-3.231
			c0.384,0.48,0.735,1.28,0.735,2.112c0,3.648-2.88,5.312-6.56,5.312c-0.64,0-1.376-0.096-2.176-0.32
			c-0.479,0.352-0.704,0.64-0.704,1.152c0,0.864,0.832,1.216,2.688,1.216h2.943c4.16,0,6.432,1.152,6.432,4
			c0,3.328-3.68,5.728-9.439,5.728c-4.128,0-7.199-1.216-7.199-4.063C661.559,266.643,662.391,265.555,664.022,264.755z
			 M669.43,269.042c2.528,0,4.288-0.864,4.288-1.952c0-1.024-0.96-1.248-2.784-1.248h-1.983c-1.152,0-1.856-0.064-2.433-0.192
			c-0.8,0.512-1.119,0.992-1.119,1.568C665.398,268.403,666.934,269.042,669.43,269.042z M671.445,254.74
			c0-1.696-1.119-2.592-2.432-2.592c-1.312,0-2.367,0.896-2.367,2.592c0,1.728,1.056,2.624,2.367,2.624
			C670.326,257.363,671.445,256.467,671.445,254.74z"/>
		<path style="fill:#FFFFFF;" d="M694.581,256.883l-12.352,8v-4.256l8.479-5.312v-0.128l-8.479-5.312v-4.256l12.352,8V256.883z"/>
		<path style="fill:#FFFFFF;" d="M704.085,256.339c0-6.016,2.592-10.943,6.751-14.623l2.624,2.08
			c-3.808,3.712-5.439,7.487-5.439,12.543s1.632,8.832,5.439,12.543l-2.624,2.08C706.677,267.283,704.085,262.355,704.085,256.339z"
			/>
		<path style="fill:#FFFFFF;" d="M721.523,268.883c3.809-3.712,5.44-7.488,5.44-12.543s-1.632-8.831-5.44-12.543l2.624-2.08
			c4.16,3.68,6.752,8.607,6.752,14.623s-2.592,10.943-6.752,14.623L721.523,268.883z"/>
		<path style="fill:#FFFFFF;" d="M763.666,260.083c0-1.12-0.928-2.304-4.384-2.368v-2.752c3.456-0.064,4.384-1.248,4.384-2.368
			c0-1.984-0.32-3.231-0.32-5.472c0-3.456,1.856-4.543,5.952-4.543h2.464v2.496h-1.313c-2.655,0-3.264,0.448-3.264,2.24
			c0,1.696,0.16,3.328,0.16,5.215c0,2.432-0.928,3.36-3.199,3.744v0.128c2.271,0.384,3.199,1.312,3.199,3.744
			c0,1.952-0.16,3.487-0.16,5.215c0,1.792,0.608,2.24,3.264,2.24h1.313v2.496h-2.464c-4.096,0-5.952-1.088-5.952-4.544
			C763.346,263.283,763.666,262.099,763.666,260.083z"/>
		<path style="fill:#FFFFFF;" d="M206.12,304.483v4.64h-4.704v-21.758h3.84l0.352,1.6h0.096c1.28-1.152,3.04-1.984,4.736-1.984
			c3.968,0,6.368,3.168,6.368,8.063c0,5.439-3.328,8.575-6.879,8.575c-1.408,0-2.816-0.608-3.968-1.728L206.12,304.483z
			 M208.84,299.779c1.76,0,3.136-1.408,3.136-4.672c0-2.848-0.928-4.288-2.912-4.288c-1.024,0-1.952,0.448-2.944,1.472v6.432
			C207.016,299.491,208.04,299.779,208.84,299.779z"/>
		<path style="fill:#FFFFFF;" d="M235.11,303.235h-3.839l-0.352-2.272h-0.128c-1.408,1.6-3.072,2.656-5.344,2.656
			c-3.616,0-5.151-2.464-5.151-6.463v-9.791H225v9.183c0,2.112,0.544,3.072,2.304,3.072c1.184,0,2.016-0.416,3.104-1.824v-10.431
			h4.703V303.235z"/>
		<path style="fill:#FFFFFF;" d="M239.815,280.805h4.704v5.503l-0.128,2.496c1.247-1.152,2.88-1.824,4.415-1.824
			c3.968,0,6.399,3.168,6.399,8.031c0,5.472-3.327,8.607-6.879,8.607c-1.472,0-3.008-0.736-4.32-2.112h-0.128l-0.384,1.728h-3.68
			V280.805z M247.271,299.779c1.728,0,3.104-1.408,3.104-4.672c0-2.848-0.928-4.288-2.912-4.288c-1.023,0-1.952,0.448-2.943,1.472
			v6.432C245.415,299.491,246.439,299.779,247.271,299.779z"/>
		<path style="fill:#FFFFFF;" d="M258.694,280.805h9.312v16.415c0,1.952,1.248,2.592,2.561,2.592c0.735,0,1.504-0.128,2.495-0.512
			l1.056,3.456c-1.663,0.512-2.783,0.864-4.768,0.864c-3.999,0-6.047-2.56-6.047-6.591v-12.511h-4.608V280.805z"/>
		<path style="fill:#FFFFFF;" d="M278.438,287.364h11.071v15.871h-4.703v-12.191h-6.368V287.364z M283.813,282.18
			c0-1.728,1.312-2.943,3.136-2.943s3.136,1.216,3.136,2.943c0,1.728-1.312,2.848-3.136,2.848S283.813,283.908,283.813,282.18z"/>
		<path style="fill:#FFFFFF;" d="M306.437,286.98c2.496,0,4.607,0.896,5.951,2.144l-2.176,2.912
			c-1.216-0.864-2.336-1.248-3.52-1.248c-2.72,0-4.607,1.76-4.607,4.512c0,2.752,1.824,4.512,4.447,4.512
			c1.664,0,3.072-0.704,4.192-1.504l1.92,2.976c-1.92,1.6-4.384,2.335-6.56,2.335c-4.992,0-8.832-3.04-8.832-8.319
			C297.253,290.02,301.541,286.98,306.437,286.98z"/>
		<path style="fill:#FFFFFF;" d="M334.5,287.364h4.735l2.496,7.487c0.512,1.6,0.96,3.231,1.439,4.896h0.128
			c0.48-1.664,0.896-3.296,1.408-4.896l2.496-7.487h4.512l-5.824,15.871h-5.407L334.5,287.364z"/>
		<path style="fill:#FFFFFF;" d="M362.307,286.98c4.191,0,8.095,3.04,8.095,8.319c0,5.28-3.903,8.319-8.095,8.319
			c-4.192,0-8.096-3.04-8.096-8.319C354.211,290.02,358.114,286.98,362.307,286.98z M362.307,299.811
			c2.176,0,3.264-1.76,3.264-4.512c0-2.751-1.088-4.512-3.264-4.512s-3.264,1.76-3.264,4.512
			C359.043,298.051,360.131,299.811,362.307,299.811z"/>
		<path style="fill:#FFFFFF;" d="M374.434,287.364h11.071v15.871h-4.703v-12.191h-6.368V287.364z M379.81,282.18
			c0-1.728,1.312-2.943,3.136-2.943s3.136,1.216,3.136,2.943c0,1.728-1.312,2.848-3.136,2.848S379.81,283.908,379.81,282.18z"/>
		<path style="fill:#FFFFFF;" d="M399.393,286.98c1.824,0,2.944,0.672,4.064,1.696l-0.16-2.464v-5.407H408v22.43h-3.84l-0.352-1.632
			h-0.096c-1.185,1.152-2.816,2.016-4.416,2.016c-4.031,0-6.688-3.136-6.688-8.319S395.938,286.98,399.393,286.98z M400.513,299.779
			c1.056,0,1.952-0.416,2.784-1.472v-6.432c-0.864-0.768-1.729-1.056-2.656-1.056c-1.728,0-3.199,1.408-3.199,4.416
			C397.441,298.371,398.561,299.779,400.513,299.779z"/>
		<path style="fill:#FFFFFF;" d="M441.919,293.028c-0.16-1.44-1.248-2.304-3.392-2.304c-1.536,0-3.04,0.576-4.832,1.472
			l-1.664-3.072c2.177-1.248,4.704-2.144,7.424-2.144c4.448,0,7.168,2.304,7.168,7.167v9.087h-3.84l-0.353-1.792h-0.128
			c-1.6,1.216-3.584,2.176-5.631,2.176c-3.2,0-5.216-2.112-5.216-4.799C431.456,295.268,434.399,293.476,441.919,293.028z
			 M438.175,299.971c1.408,0,2.624-0.64,3.744-1.504v-2.624c-4.672,0.256-5.951,1.248-5.951,2.624
			C435.968,299.491,436.831,299.971,438.175,299.971z"/>
		<path style="fill:#FFFFFF;" d="M455.711,304.483v4.64h-4.704v-21.758h3.84l0.352,1.6h0.097c1.279-1.152,3.039-1.984,4.735-1.984
			c3.968,0,6.367,3.168,6.367,8.063c0,5.439-3.327,8.575-6.879,8.575c-1.408,0-2.816-0.608-3.968-1.728L455.711,304.483z
			 M458.431,299.779c1.76,0,3.136-1.408,3.136-4.672c0-2.848-0.928-4.288-2.912-4.288c-1.023,0-1.952,0.448-2.943,1.472v6.432
			C456.606,299.491,457.631,299.779,458.431,299.779z"/>
		<path style="fill:#FFFFFF;" d="M474.91,304.483v4.64h-4.704v-21.758h3.84l0.352,1.6h0.097c1.279-1.152,3.039-1.984,4.735-1.984
			c3.968,0,6.367,3.168,6.367,8.063c0,5.439-3.327,8.575-6.879,8.575c-1.408,0-2.816-0.608-3.968-1.728L474.91,304.483z
			 M477.63,299.779c1.76,0,3.136-1.408,3.136-4.672c0-2.848-0.928-4.288-2.912-4.288c-1.023,0-1.952,0.448-2.943,1.472v6.432
			C475.806,299.491,476.83,299.779,477.63,299.779z"/>
		<path style="fill:#FFFFFF;" d="M489.085,280.805h9.312v16.415c0,1.952,1.248,2.592,2.561,2.592c0.735,0,1.504-0.128,2.495-0.512
			l1.056,3.456c-1.663,0.512-2.783,0.864-4.768,0.864c-3.999,0-6.047-2.56-6.047-6.591v-12.511h-4.608V280.805z"/>
		<path style="fill:#FFFFFF;" d="M510.524,305.73c1.824,0,2.815-0.832,3.328-2.08l0.319-0.832l-6.879-15.455h4.672l2.655,6.815
			c0.576,1.504,1.088,3.104,1.6,4.768h0.128c0.416-1.568,0.96-3.2,1.44-4.768l2.336-6.815h4.447l-6.271,16.031
			c-1.536,4-3.424,6.047-7.424,6.047c-0.928,0-1.76-0.128-2.432-0.32l0.832-3.584C509.692,305.667,510.108,305.73,510.524,305.73z"
			/>
		<path style="fill:#FFFFFF;" d="M531.292,294.339c0-6.016,2.592-10.943,6.751-14.623l2.624,2.08
			c-3.808,3.712-5.439,7.487-5.439,12.543s1.632,8.832,5.439,12.543l-2.624,2.08C533.884,305.283,531.292,300.355,531.292,294.339z"
			/>
		<path style="fill:#FFFFFF;" d="M549.019,297.379c1.568,1.28,3.521,2.176,5.344,2.176c2.176,0,3.136-0.768,3.136-2.016
			c0-1.312-1.216-1.728-3.231-2.496l-2.688-1.152c-2.336-0.864-4.448-2.656-4.448-5.696c0-3.456,3.136-6.208,7.647-6.208
			c2.528,0,5.056,0.96,6.943,2.752l-2.399,2.976c-1.44-1.056-2.752-1.664-4.544-1.664c-1.823,0-2.88,0.704-2.88,1.888
			c0,1.28,1.408,1.728,3.424,2.464l2.528,1.088c2.752,1.024,4.479,2.72,4.479,5.664c0,3.456-2.912,6.463-8.096,6.463
			c-2.815,0-5.695-1.024-7.936-3.008L549.019,297.379z"/>
		<path style="fill:#FFFFFF;" d="M569.466,291.044h-3.968v-3.488l4.192-0.192l0.607-4.224h3.872v4.224h6.688v3.68h-6.688v5.567
			c0,2.4,1.023,3.328,3.327,3.328c1.216,0,2.272-0.256,3.2-0.576l0.832,3.392c-1.408,0.416-3.168,0.864-5.216,0.864
			c-5.056,0-6.848-2.815-6.848-6.975V291.044z"/>
		<path style="fill:#FFFFFF;" d="M586.81,287.364h3.84l0.384,3.456h0.096c1.568-2.592,3.904-3.84,6.432-3.84
			c1.408,0,2.144,0.224,3.072,0.64l-0.96,3.936c-0.992-0.288-1.632-0.448-2.816-0.448c-1.951,0-3.999,1.024-5.344,3.872v8.255
			h-4.703V287.364z"/>
		<path style="fill:#FFFFFF;" d="M604.824,287.364h11.071v15.871h-4.703v-12.191h-6.368V287.364z M610.2,282.18
			c0-1.728,1.312-2.943,3.136-2.943s3.136,1.216,3.136,2.943c0,1.728-1.312,2.848-3.136,2.848S610.2,283.908,610.2,282.18z"/>
		<path style="fill:#FFFFFF;" d="M623.8,287.364h3.84l0.352,2.112h0.128c1.376-1.344,3.104-2.496,5.472-2.496
			c3.584,0,5.184,2.464,5.184,6.463v9.792h-4.703v-9.183c0-2.112-0.608-3.072-2.336-3.072c-1.28,0-2.112,0.576-3.231,1.664v10.591
			H623.8V287.364z"/>
		<path style="fill:#FFFFFF;" d="M644.823,302.755v-0.128c-0.864-0.544-1.601-1.376-1.601-2.72c0-1.056,0.769-2.208,1.889-2.976
			v-0.128c-1.152-0.768-2.08-2.208-2.08-4.063c0-3.808,3.199-5.76,6.783-5.76c0.96,0,1.856,0.128,2.624,0.384h6.432v3.423h-3.231
			c0.384,0.48,0.735,1.28,0.735,2.112c0,3.648-2.88,5.312-6.56,5.312c-0.64,0-1.376-0.096-2.176-0.32
			c-0.479,0.352-0.704,0.64-0.704,1.152c0,0.864,0.832,1.216,2.688,1.216h2.943c4.16,0,6.432,1.152,6.432,4
			c0,3.328-3.68,5.728-9.439,5.728c-4.128,0-7.199-1.216-7.199-4.063C642.359,304.643,643.191,303.555,644.823,302.755z
			 M650.23,307.042c2.528,0,4.288-0.864,4.288-1.952c0-1.024-0.96-1.248-2.784-1.248h-1.983c-1.152,0-1.856-0.064-2.433-0.192
			c-0.8,0.512-1.119,0.992-1.119,1.568C646.199,306.403,647.734,307.042,650.23,307.042z M652.246,292.74
			c0-1.696-1.119-2.592-2.432-2.592c-1.312,0-2.367,0.896-2.367,2.592c0,1.728,1.056,2.624,2.367,2.624
			C651.127,295.363,652.246,294.467,652.246,292.74z"/>
		<path style="fill:#FFFFFF;" d="M689.109,286.98c4.896,0,7.455,3.296,7.455,7.616c0,0.832-0.128,1.6-0.192,1.983h-10.687
			c0.447,2.4,2.271,3.456,4.607,3.456c1.439,0,2.688-0.384,4.096-1.088l1.536,2.816c-1.792,1.152-4.16,1.855-6.271,1.855
			c-4.928,0-8.8-3.072-8.8-8.319C680.854,290.116,684.886,286.98,689.109,286.98z M692.309,293.667c0-1.824-0.96-3.104-3.104-3.104
			c-1.696,0-3.2,0.992-3.584,3.104H692.309z"/>
		<path style="fill:#FFFFFF;" d="M700.276,280.805h9.312v16.415c0,1.952,1.248,2.592,2.561,2.592c0.735,0,1.504-0.128,2.495-0.512
			l1.056,3.456c-1.663,0.512-2.783,0.864-4.768,0.864c-3.999,0-6.047-2.56-6.047-6.591v-12.511h-4.608V280.805z"/>
		<path style="fill:#FFFFFF;" d="M727.508,286.98c4.896,0,7.455,3.296,7.455,7.616c0,0.832-0.128,1.6-0.192,1.983h-10.687
			c0.447,2.4,2.271,3.456,4.607,3.456c1.439,0,2.688-0.384,4.096-1.088l1.536,2.816c-1.792,1.152-4.16,1.855-6.271,1.855
			c-4.928,0-8.8-3.072-8.8-8.319C719.252,290.116,723.284,286.98,727.508,286.98z M730.707,293.667c0-1.824-0.96-3.104-3.104-3.104
			c-1.696,0-3.2,0.992-3.584,3.104H730.707z"/>
		<path style="fill:#FFFFFF;" d="M737.844,287.364h3.52l0.352,1.983h0.128c0.608-1.312,1.568-2.368,3.392-2.368
			c1.408,0,2.4,0.896,2.784,2.592c0.576-1.44,1.696-2.592,3.487-2.592c2.208,0,3.521,1.952,3.521,5.12v11.135h-4.416v-10.783
			c0-0.992-0.256-1.472-0.896-1.472c-0.608,0-1.057,0.512-1.473,1.536v10.719h-3.615v-10.783c0-0.992-0.32-1.472-0.928-1.472
			c-0.608,0-0.992,0.512-1.44,1.536v10.719h-4.415V287.364z"/>
		<path style="fill:#FFFFFF;" d="M765.906,286.98c4.896,0,7.455,3.296,7.455,7.616c0,0.832-0.128,1.6-0.192,1.983h-10.687
			c0.447,2.4,2.271,3.456,4.607,3.456c1.439,0,2.688-0.384,4.096-1.088l1.536,2.816c-1.792,1.152-4.16,1.855-6.271,1.855
			c-4.928,0-8.8-3.072-8.8-8.319C757.65,290.116,761.683,286.98,765.906,286.98z M769.105,293.667c0-1.824-0.96-3.104-3.104-3.104
			c-1.696,0-3.2,0.992-3.584,3.104H769.105z"/>
		<path style="fill:#FFFFFF;" d="M777.394,287.364h3.84l0.352,2.112h0.128c1.376-1.344,3.104-2.496,5.472-2.496
			c3.584,0,5.184,2.464,5.184,6.463v9.792h-4.703v-9.183c0-2.112-0.608-3.072-2.336-3.072c-1.28,0-2.112,0.576-3.231,1.664v10.591
			h-4.704V287.364z"/>
		<path style="fill:#FFFFFF;" d="M799.856,291.044h-3.968v-3.488l4.192-0.192l0.607-4.224h3.872v4.224h6.688v3.68h-6.688v5.567
			c0,2.4,1.023,3.328,3.327,3.328c1.216,0,2.272-0.256,3.2-0.576l0.832,3.392c-1.408,0.416-3.168,0.864-5.216,0.864
			c-5.056,0-6.848-2.815-6.848-6.975V291.044z"/>
		<path style="fill:#FFFFFF;" d="M817.52,306.883c3.809-3.712,5.44-7.488,5.44-12.543s-1.632-8.831-5.44-12.543l2.624-2.08
			c4.16,3.68,6.752,8.607,6.752,14.623s-2.592,10.943-6.752,14.623L817.52,306.883z"/>
		<path style="fill:#FFFFFF;" d="M859.662,298.083c0-1.12-0.928-2.304-4.384-2.368v-2.752c3.456-0.064,4.384-1.248,4.384-2.368
			c0-1.984-0.32-3.231-0.32-5.472c0-3.456,1.856-4.543,5.952-4.543h2.464v2.496h-1.313c-2.655,0-3.264,0.448-3.264,2.24
			c0,1.696,0.16,3.328,0.16,5.215c0,2.432-0.928,3.36-3.199,3.744v0.128c2.271,0.384,3.199,1.312,3.199,3.744
			c0,1.952-0.16,3.487-0.16,5.215c0,1.792,0.608,2.24,3.264,2.24h1.313v2.496h-2.464c-4.096,0-5.952-1.088-5.952-4.544
			C859.342,301.283,859.662,300.099,859.662,298.083z"/>
		<path style="fill:#FFFFFF;" d="M280.229,335.379c1.568,1.28,3.521,2.176,5.344,2.176c2.176,0,3.136-0.768,3.136-2.016
			c0-1.312-1.216-1.728-3.231-2.496l-2.688-1.152c-2.336-0.864-4.448-2.656-4.448-5.696c0-3.456,3.136-6.208,7.647-6.208
			c2.528,0,5.056,0.96,6.943,2.752l-2.399,2.976c-1.44-1.056-2.752-1.664-4.544-1.664c-1.823,0-2.88,0.704-2.88,1.888
			c0,1.28,1.408,1.728,3.424,2.464l2.528,1.088c2.752,1.024,4.479,2.72,4.479,5.664c0,3.456-2.912,6.463-8.096,6.463
			c-2.815,0-5.695-1.024-7.936-3.008L280.229,335.379z"/>
		<path style="fill:#FFFFFF;" d="M299.333,343.73c1.824,0,2.815-0.832,3.328-2.08l0.319-0.832l-6.879-15.455h4.672l2.655,6.815
			c0.576,1.504,1.088,3.104,1.6,4.768h0.128c0.416-1.568,0.96-3.2,1.44-4.768l2.336-6.815h4.447l-6.271,16.031
			c-1.536,4-3.424,6.047-7.424,6.047c-0.928,0-1.76-0.128-2.432-0.32l0.832-3.584C298.501,343.667,298.917,343.73,299.333,343.73z"
			/>
		<path style="fill:#FFFFFF;" d="M318.116,336.243c1.824,1.152,3.647,1.888,5.76,1.888c2.144,0,3.04-0.512,3.04-1.344
			c0-0.96-1.696-1.504-4.256-2.208c-2.784-0.768-5.664-2.112-5.664-4.64c0-2.943,2.784-4.959,7.328-4.959
			c2.815,0,5.184,1.12,6.847,2.176l-2.111,2.816c-1.44-0.864-2.976-1.504-4.64-1.504c-1.984,0-2.752,0.448-2.752,1.248
			c0,0.96,1.824,1.44,4.063,2.016c3.136,0.832,5.855,2.016,5.855,4.768c0,2.88-2.72,5.12-7.807,5.12
			c-2.849,0-5.76-1.088-7.775-2.432L318.116,336.243z"/>
		<path style="fill:#FFFFFF;" d="M339.075,329.044h-3.968v-3.488l4.192-0.192l0.607-4.224h3.872v4.224h6.688v3.68h-6.688v5.567
			c0,2.4,1.023,3.328,3.327,3.328c1.216,0,2.272-0.256,3.2-0.576l0.832,3.392c-1.408,0.416-3.168,0.864-5.216,0.864
			c-5.056,0-6.848-2.815-6.848-6.975V329.044z"/>
		<path style="fill:#FFFFFF;" d="M362.723,324.98c4.896,0,7.455,3.296,7.455,7.616c0,0.832-0.128,1.6-0.192,1.983h-10.687
			c0.447,2.4,2.271,3.456,4.607,3.456c1.439,0,2.688-0.384,4.096-1.088l1.536,2.816c-1.792,1.152-4.16,1.855-6.271,1.855
			c-4.928,0-8.8-3.072-8.8-8.319C354.467,328.116,358.499,324.98,362.723,324.98z M365.922,331.667c0-1.824-0.96-3.104-3.104-3.104
			c-1.696,0-3.2,0.992-3.584,3.104H365.922z"/>
		<path style="fill:#FFFFFF;" d="M373.059,325.364h3.52l0.352,1.983h0.128c0.608-1.312,1.568-2.368,3.392-2.368
			c1.408,0,2.4,0.896,2.784,2.592c0.576-1.44,1.696-2.592,3.487-2.592c2.208,0,3.521,1.952,3.521,5.12v11.135h-4.416v-10.783
			c0-0.992-0.256-1.472-0.896-1.472c-0.608,0-1.057,0.512-1.473,1.536v10.719h-3.615v-10.783c0-0.992-0.32-1.472-0.928-1.472
			c-0.608,0-0.992,0.512-1.44,1.536v10.719h-4.415V325.364z"/>
		<path style="fill:#FFFFFF;" d="M400.705,334.1c2.208,0,3.711,1.664,3.711,3.775s-1.503,3.744-3.711,3.744
			s-3.712-1.632-3.712-3.744S398.497,334.1,400.705,334.1z"/>
		<path style="fill:#FFFFFF;" d="M419.904,324.98c4.191,0,8.095,3.04,8.095,8.319c0,5.28-3.903,8.319-8.095,8.319
			c-4.192,0-8.096-3.04-8.096-8.319C411.809,328.02,415.712,324.98,419.904,324.98z M419.904,337.811
			c2.176,0,3.264-1.76,3.264-4.512c0-2.751-1.088-4.512-3.264-4.512s-3.264,1.76-3.264,4.512
			C416.641,336.051,417.729,337.811,419.904,337.811z"/>
		<path style="fill:#FFFFFF;" d="M446.303,341.235h-3.84l-0.352-2.272h-0.128c-1.408,1.6-3.072,2.656-5.344,2.656
			c-3.616,0-5.152-2.464-5.152-6.463v-9.791h4.704v9.183c0,2.112,0.544,3.072,2.304,3.072c1.184,0,2.016-0.416,3.104-1.824v-10.431
			h4.704V341.235z"/>
		<path style="fill:#FFFFFF;" d="M454.271,329.044h-3.968v-3.488l4.192-0.192l0.607-4.224h3.872v4.224h6.688v3.68h-6.688v5.567
			c0,2.4,1.023,3.328,3.327,3.328c1.216,0,2.272-0.256,3.2-0.576l0.832,3.392c-1.408,0.416-3.168,0.864-5.216,0.864
			c-5.056,0-6.848-2.815-6.848-6.975V329.044z"/>
		<path style="fill:#FFFFFF;" d="M477.502,334.1c2.208,0,3.711,1.664,3.711,3.775s-1.503,3.744-3.711,3.744
			s-3.712-1.632-3.712-3.744S475.294,334.1,477.502,334.1z"/>
		<path style="fill:#FFFFFF;" d="M494.109,342.483v4.64h-4.704v-21.758h3.84l0.352,1.6h0.097c1.279-1.152,3.039-1.984,4.735-1.984
			c3.968,0,6.367,3.168,6.367,8.063c0,5.439-3.327,8.575-6.879,8.575c-1.408,0-2.816-0.608-3.968-1.728L494.109,342.483z
			 M496.829,337.779c1.76,0,3.136-1.408,3.136-4.672c0-2.848-0.928-4.288-2.912-4.288c-1.023,0-1.952,0.448-2.943,1.472v6.432
			C495.005,337.491,496.029,337.779,496.829,337.779z"/>
		<path style="fill:#FFFFFF;" d="M510.013,325.364h3.84l0.384,3.456h0.096c1.568-2.592,3.904-3.84,6.432-3.84
			c1.408,0,2.144,0.224,3.072,0.64l-0.96,3.936c-0.992-0.288-1.632-0.448-2.816-0.448c-1.951,0-3.999,1.024-5.344,3.872v8.255
			h-4.703V325.364z"/>
		<path style="fill:#FFFFFF;" d="M528.027,325.364h11.071v15.871h-4.703v-12.191h-6.368V325.364z M533.403,320.18
			c0-1.728,1.312-2.943,3.136-2.943s3.136,1.216,3.136,2.943c0,1.728-1.312,2.848-3.136,2.848S533.403,321.908,533.403,320.18z"/>
		<path style="fill:#FFFFFF;" d="M547.003,325.364h3.84l0.352,2.112h0.128c1.376-1.344,3.104-2.496,5.472-2.496
			c3.584,0,5.184,2.464,5.184,6.463v9.792h-4.703v-9.183c0-2.112-0.608-3.072-2.336-3.072c-1.28,0-2.112,0.576-3.231,1.664v10.591
			h-4.704V325.364z"/>
		<path style="fill:#FFFFFF;" d="M569.466,329.044h-3.968v-3.488l4.192-0.192l0.607-4.224h3.872v4.224h6.688v3.68h-6.688v5.567
			c0,2.4,1.023,3.328,3.327,3.328c1.216,0,2.272-0.256,3.2-0.576l0.832,3.392c-1.408,0.416-3.168,0.864-5.216,0.864
			c-5.056,0-6.848-2.815-6.848-6.975V329.044z"/>
		<path style="fill:#FFFFFF;" d="M585.081,318.805h9.312v16.415c0,1.952,1.248,2.592,2.561,2.592c0.735,0,1.504-0.128,2.495-0.512
			l1.056,3.456c-1.663,0.512-2.783,0.864-4.768,0.864c-3.999,0-6.047-2.56-6.047-6.591v-12.511h-4.608V318.805z"/>
		<path style="fill:#FFFFFF;" d="M604.601,325.364h3.84l0.352,2.112h0.128c1.376-1.344,3.104-2.496,5.472-2.496
			c3.584,0,5.184,2.464,5.184,6.463v9.792h-4.703v-9.183c0-2.112-0.608-3.072-2.336-3.072c-1.28,0-2.112,0.576-3.231,1.664v10.591
			h-4.704V325.364z"/>
		<path style="fill:#FFFFFF;" d="M627.288,332.339c0-6.016,2.592-10.943,6.751-14.623l2.624,2.08
			c-3.808,3.712-5.439,7.487-5.439,12.543s1.632,8.832,5.439,12.543l-2.624,2.08C629.88,343.283,627.288,338.355,627.288,332.339z"
			/>
		<path style="fill:#FFFFFF;" d="M650.711,324.98c4.896,0,7.455,3.296,7.455,7.616c0,0.832-0.128,1.6-0.192,1.983h-10.687
			c0.447,2.4,2.271,3.456,4.607,3.456c1.439,0,2.688-0.384,4.096-1.088l1.536,2.816c-1.792,1.152-4.16,1.855-6.271,1.855
			c-4.928,0-8.8-3.072-8.8-8.319C642.455,328.116,646.487,324.98,650.711,324.98z M653.91,331.667c0-1.824-0.96-3.104-3.104-3.104
			c-1.696,0-3.2,0.992-3.584,3.104H653.91z"/>
		<path style="fill:#FFFFFF;" d="M661.878,318.805h9.312v16.415c0,1.952,1.248,2.592,2.561,2.592c0.735,0,1.504-0.128,2.495-0.512
			l1.056,3.456c-1.663,0.512-2.783,0.864-4.768,0.864c-3.999,0-6.047-2.56-6.047-6.591v-12.511h-4.608V318.805z"/>
		<path style="fill:#FFFFFF;" d="M689.109,324.98c4.896,0,7.455,3.296,7.455,7.616c0,0.832-0.128,1.6-0.192,1.983h-10.687
			c0.447,2.4,2.271,3.456,4.607,3.456c1.439,0,2.688-0.384,4.096-1.088l1.536,2.816c-1.792,1.152-4.16,1.855-6.271,1.855
			c-4.928,0-8.8-3.072-8.8-8.319C680.854,328.116,684.886,324.98,689.109,324.98z M692.309,331.667c0-1.824-0.96-3.104-3.104-3.104
			c-1.696,0-3.2,0.992-3.584,3.104H692.309z"/>
		<path style="fill:#FFFFFF;" d="M699.445,325.364h3.52l0.352,1.983h0.128c0.608-1.312,1.568-2.368,3.392-2.368
			c1.408,0,2.4,0.896,2.784,2.592c0.576-1.44,1.696-2.592,3.487-2.592c2.208,0,3.521,1.952,3.521,5.12v11.135h-4.416v-10.783
			c0-0.992-0.256-1.472-0.896-1.472c-0.608,0-1.057,0.512-1.473,1.536v10.719h-3.615v-10.783c0-0.992-0.32-1.472-0.928-1.472
			c-0.608,0-0.992,0.512-1.44,1.536v10.719h-4.415V325.364z"/>
		<path style="fill:#FFFFFF;" d="M727.508,324.98c4.896,0,7.455,3.296,7.455,7.616c0,0.832-0.128,1.6-0.192,1.983h-10.687
			c0.447,2.4,2.271,3.456,4.607,3.456c1.439,0,2.688-0.384,4.096-1.088l1.536,2.816c-1.792,1.152-4.16,1.855-6.271,1.855
			c-4.928,0-8.8-3.072-8.8-8.319C719.252,328.116,723.284,324.98,727.508,324.98z M730.707,331.667c0-1.824-0.96-3.104-3.104-3.104
			c-1.696,0-3.2,0.992-3.584,3.104H730.707z"/>
		<path style="fill:#FFFFFF;" d="M738.995,325.364h3.84l0.352,2.112h0.128c1.376-1.344,3.104-2.496,5.472-2.496
			c3.584,0,5.184,2.464,5.184,6.463v9.792h-4.703v-9.183c0-2.112-0.608-3.072-2.336-3.072c-1.28,0-2.112,0.576-3.231,1.664v10.591
			h-4.704V325.364z"/>
		<path style="fill:#FFFFFF;" d="M761.458,329.044h-3.968v-3.488l4.192-0.192l0.607-4.224h3.872v4.224h6.688v3.68h-6.688v5.567
			c0,2.4,1.023,3.328,3.327,3.328c1.216,0,2.272-0.256,3.2-0.576l0.832,3.392c-1.408,0.416-3.168,0.864-5.216,0.864
			c-5.056,0-6.848-2.815-6.848-6.975V329.044z"/>
		<path style="fill:#FFFFFF;" d="M779.121,344.883c3.809-3.712,5.44-7.488,5.44-12.543s-1.632-8.831-5.44-12.543l2.624-2.08
			c4.16,3.68,6.752,8.607,6.752,14.623s-2.592,10.943-6.752,14.623L779.121,344.883z"/>
		<path style="fill:#FFFFFF;" d="M800.112,345.427c2.784-0.96,4.16-2.528,4.16-4.544c-0.128,0.032-0.224,0.032-0.353,0.032
			c-1.791,0-3.455-1.152-3.455-3.264c0-1.984,1.6-3.296,3.584-3.296c2.623,0,3.967,2.048,3.967,5.503
			c0,4.064-2.304,6.976-6.719,8.319L800.112,345.427z M800.177,327.508c0-2.08,1.504-3.744,3.712-3.744s3.711,1.664,3.711,3.744
			c0,2.112-1.503,3.776-3.711,3.776S800.177,329.62,800.177,327.508z"/>
		<path style="fill:#FFFFFF;" d="M203.784,381.603c2.624,0,3.231-0.448,3.231-2.24c0-1.728-0.128-3.264-0.128-5.215
			c0-2.432,0.896-3.36,3.2-3.744v-0.128c-2.304-0.384-3.2-1.312-3.2-3.744c0-1.888,0.128-3.52,0.128-5.215
			c0-1.792-0.608-2.24-3.231-2.24h-1.312v-2.496h2.464c4.096,0,5.952,1.088,5.952,4.543c0,2.24-0.352,3.488-0.352,5.472
			c0,1.12,0.928,2.304,4.416,2.368v2.752c-3.488,0.064-4.416,1.248-4.416,2.368c0,2.016,0.352,3.2,0.352,5.472
			c0,3.456-1.856,4.544-5.952,4.544h-2.464v-2.496H203.784z"/>
		<path style="fill:#FFFFFF;" d="M126.985,419.603c2.624,0,3.231-0.448,3.231-2.239c0-1.729-0.128-3.264-0.128-5.216
			c0-2.433,0.896-3.36,3.2-3.744v-0.128c-2.304-0.384-3.2-1.313-3.2-3.744c0-1.887,0.128-3.52,0.128-5.215
			c0-1.792-0.608-2.24-3.231-2.24h-1.312v-2.496h2.464c4.096,0,5.952,1.088,5.952,4.544c0,2.24-0.352,3.487-0.352,5.472
			c0,1.12,0.928,2.304,4.416,2.367v2.752c-3.488,0.064-4.416,1.248-4.416,2.368c0,2.017,0.352,3.2,0.352,5.472
			c0,3.456-1.856,4.544-5.952,4.544h-2.464v-2.496H126.985z"/>
		<path style="fill:#FFFFFF;" d="M145.545,420.883c3.808-3.712,5.439-7.488,5.439-12.543c0-5.057-1.632-8.832-5.439-12.543
			l2.624-2.08c4.16,3.68,6.751,8.607,6.751,14.623s-2.592,10.943-6.751,14.623L145.545,420.883z"/>
		<path style="fill:#FFFFFF;" d="M166.537,421.427c2.784-0.96,4.16-2.528,4.16-4.544c-0.128,0.032-0.224,0.032-0.352,0.032
			c-1.792,0-3.456-1.151-3.456-3.264c0-1.983,1.6-3.296,3.583-3.296c2.624,0,3.968,2.048,3.968,5.504
			c0,4.063-2.304,6.975-6.72,8.318L166.537,421.427z M166.601,403.508c0-2.08,1.504-3.744,3.711-3.744
			c2.208,0,3.712,1.664,3.712,3.744c0,2.111-1.504,3.775-3.712,3.775C168.104,407.283,166.601,405.619,166.601,403.508z"/>
	</g>
</g>
<g id="jfx:p06">
	<g>
		<path style="fill:#FFFFFF;" d="M124.297,242.806h9.312v16.415c0,1.952,1.248,2.592,2.56,2.592c0.736,0,1.504-0.128,2.496-0.512
			l1.056,3.456c-1.664,0.512-2.784,0.864-4.768,0.864c-4,0-6.048-2.56-6.048-6.591v-12.511h-4.607V242.806z"/>
		<path style="fill:#FFFFFF;" d="M144.041,249.366h11.071v15.871h-4.704v-12.191h-6.368V249.366z M149.417,244.182
			c0-1.728,1.312-2.943,3.136-2.943c1.824,0,3.136,1.216,3.136,2.943c0,1.728-1.312,2.848-3.136,2.848
			C150.729,247.03,149.417,245.91,149.417,244.182z"/>
		<path style="fill:#FFFFFF;" d="M164.521,260.245c1.824,1.152,3.648,1.888,5.76,1.888c2.144,0,3.04-0.512,3.04-1.344
			c0-0.96-1.696-1.504-4.255-2.208c-2.784-0.768-5.664-2.112-5.664-4.64c0-2.943,2.784-4.959,7.327-4.959
			c2.816,0,5.184,1.12,6.848,2.176l-2.112,2.816c-1.44-0.864-2.976-1.504-4.64-1.504c-1.984,0-2.752,0.448-2.752,1.248
			c0,0.96,1.824,1.44,4.064,2.016c3.136,0.832,5.855,2.016,5.855,4.768c0,2.88-2.72,5.12-7.808,5.12
			c-2.848,0-5.759-1.088-7.775-2.432L164.521,260.245z"/>
		<path style="fill:#FFFFFF;" d="M185.48,253.045h-3.967v-3.488l4.191-0.192l0.608-4.224h3.872v4.224h6.688v3.68h-6.688v5.567
			c0,2.4,1.024,3.328,3.328,3.328c1.216,0,2.271-0.256,3.2-0.576l0.832,3.392c-1.408,0.416-3.168,0.864-5.216,0.864
			c-5.056,0-6.848-2.815-6.848-6.975V253.045z"/>
		<path style="fill:#FFFFFF;" d="M208.711,258.101c2.208,0,3.712,1.664,3.712,3.775s-1.504,3.744-3.712,3.744
			c-2.208,0-3.711-1.632-3.711-3.744S206.504,258.101,208.711,258.101z"/>
		<path style="fill:#FFFFFF;" d="M236.135,246.742c-0.992-0.384-2.112-0.608-3.328-0.608c-2.016,0-2.976,0.864-2.976,2.784v0.448
			h5.472v3.68h-5.472v12.191h-4.704v-12.191h-4.191v-3.488l4.191-0.192v-0.416c0-3.648,2.144-6.528,7.104-6.528
			c1.823,0,3.455,0.416,4.799,0.864L236.135,246.742z"/>
		<path style="fill:#FFFFFF;" d="M247.111,248.981c4.191,0,8.095,3.04,8.095,8.319c0,5.28-3.903,8.319-8.095,8.319
			c-4.192,0-8.096-3.04-8.096-8.319C239.016,252.021,242.919,248.981,247.111,248.981z M247.111,261.813
			c2.176,0,3.264-1.76,3.264-4.512c0-2.751-1.088-4.512-3.264-4.512s-3.264,1.76-3.264,4.512
			C243.848,260.053,244.936,261.813,247.111,261.813z"/>
		<path style="fill:#FFFFFF;" d="M260.423,249.366h3.84l0.384,3.456h0.096c1.568-2.592,3.904-3.84,6.432-3.84
			c1.408,0,2.144,0.224,3.072,0.64l-0.96,3.936c-0.992-0.288-1.632-0.448-2.816-0.448c-1.951,0-3.999,1.024-5.344,3.872v8.255
			h-4.703V249.366z"/>
		<path style="fill:#FFFFFF;" d="M278.918,244.374h13.759v3.967h-9.055v4.192h7.679v3.936h-7.679v4.8h9.375v3.968h-14.079V244.374z"
			/>
		<path style="fill:#FFFFFF;" d="M307.524,255.029c-0.16-1.44-1.248-2.304-3.392-2.304c-1.536,0-3.04,0.576-4.832,1.472
			l-1.664-3.072c2.177-1.248,4.704-2.144,7.424-2.144c4.448,0,7.168,2.304,7.168,7.167v9.087h-3.84l-0.353-1.792h-0.128
			c-1.6,1.216-3.584,2.176-5.631,2.176c-3.2,0-5.216-2.112-5.216-4.799C297.062,257.269,300.005,255.477,307.524,255.029z
			 M303.78,261.973c1.408,0,2.624-0.64,3.744-1.504v-2.624c-4.672,0.256-5.951,1.248-5.951,2.624
			C301.573,261.493,302.437,261.973,303.78,261.973z"/>
		<path style="fill:#FFFFFF;" d="M325.636,248.981c2.496,0,4.607,0.896,5.951,2.144l-2.176,2.912
			c-1.216-0.864-2.336-1.248-3.52-1.248c-2.72,0-4.607,1.76-4.607,4.512c0,2.752,1.824,4.512,4.447,4.512
			c1.664,0,3.072-0.704,4.192-1.504l1.92,2.976c-1.92,1.6-4.384,2.335-6.56,2.335c-4.992,0-8.832-3.04-8.832-8.319
			C316.452,252.021,320.74,248.981,325.636,248.981z"/>
		<path style="fill:#FFFFFF;" d="M335.812,242.806h4.704v5.503l-0.256,3.04c1.247-1.216,2.976-2.368,5.375-2.368
			c3.552,0,5.151,2.464,5.151,6.463v9.792h-4.703v-9.183c0-2.112-0.608-3.072-2.336-3.072c-1.28,0-2.112,0.576-3.231,1.664v10.591
			h-4.704V242.806z"/>
		<path style="fill:#FFFFFF;" d="M358.499,256.341c0-6.016,2.592-10.943,6.751-14.623l2.624,2.08
			c-3.808,3.712-5.439,7.487-5.439,12.543s1.632,8.832,5.439,12.543l-2.624,2.08C361.091,267.284,358.499,262.356,358.499,256.341z"
			/>
		<path style="fill:#FFFFFF;" d="M381.922,248.981c4.896,0,7.455,3.296,7.455,7.616c0,0.832-0.128,1.6-0.192,1.983h-10.687
			c0.447,2.4,2.271,3.456,4.607,3.456c1.439,0,2.688-0.384,4.096-1.088l1.536,2.816c-1.792,1.152-4.16,1.855-6.271,1.855
			c-4.928,0-8.8-3.072-8.8-8.319C373.666,252.117,377.698,248.981,381.922,248.981z M385.121,255.669
			c0-1.824-0.96-3.104-3.104-3.104c-1.696,0-3.2,0.992-3.584,3.104H385.121z"/>
		<path style="fill:#FFFFFF;" d="M393.089,242.806h9.312v16.415c0,1.952,1.248,2.592,2.561,2.592c0.735,0,1.504-0.128,2.495-0.512
			l1.056,3.456c-1.663,0.512-2.783,0.864-4.768,0.864c-3.999,0-6.047-2.56-6.047-6.591v-12.511h-4.608V242.806z"/>
		<path style="fill:#FFFFFF;" d="M420.32,248.981c4.896,0,7.455,3.296,7.455,7.616c0,0.832-0.128,1.6-0.192,1.983h-10.687
			c0.447,2.4,2.271,3.456,4.607,3.456c1.439,0,2.688-0.384,4.096-1.088l1.536,2.816c-1.792,1.152-4.16,1.855-6.271,1.855
			c-4.928,0-8.8-3.072-8.8-8.319C412.064,252.117,416.097,248.981,420.32,248.981z M423.52,255.669c0-1.824-0.96-3.104-3.104-3.104
			c-1.696,0-3.2,0.992-3.584,3.104H423.52z"/>
		<path style="fill:#FFFFFF;" d="M430.656,249.366h3.52l0.352,1.983h0.128c0.608-1.312,1.568-2.368,3.392-2.368
			c1.408,0,2.4,0.896,2.784,2.592c0.576-1.44,1.696-2.592,3.487-2.592c2.208,0,3.521,1.952,3.521,5.12v11.135h-4.416v-10.783
			c0-0.992-0.256-1.472-0.896-1.472c-0.608,0-1.057,0.512-1.473,1.536v10.719h-3.615v-10.783c0-0.992-0.32-1.472-0.928-1.472
			c-0.608,0-0.992,0.512-1.44,1.536v10.719h-4.415V249.366z"/>
		<path style="fill:#FFFFFF;" d="M458.719,248.981c4.896,0,7.455,3.296,7.455,7.616c0,0.832-0.128,1.6-0.192,1.983h-10.687
			c0.447,2.4,2.271,3.456,4.607,3.456c1.439,0,2.688-0.384,4.096-1.088l1.536,2.816c-1.792,1.152-4.16,1.855-6.271,1.855
			c-4.928,0-8.8-3.072-8.8-8.319C450.463,252.117,454.495,248.981,458.719,248.981z M461.918,255.669
			c0-1.824-0.96-3.104-3.104-3.104c-1.696,0-3.2,0.992-3.584,3.104H461.918z"/>
		<path style="fill:#FFFFFF;" d="M470.206,249.366h3.84l0.352,2.112h0.128c1.376-1.344,3.104-2.496,5.472-2.496
			c3.584,0,5.184,2.464,5.184,6.463v9.792h-4.703v-9.183c0-2.112-0.608-3.072-2.336-3.072c-1.28,0-2.112,0.576-3.231,1.664v10.591
			h-4.704V249.366z"/>
		<path style="fill:#FFFFFF;" d="M492.669,253.045h-3.968v-3.488l4.192-0.192l0.607-4.224h3.872v4.224h6.688v3.68h-6.688v5.567
			c0,2.4,1.023,3.328,3.327,3.328c1.216,0,2.272-0.256,3.2-0.576l0.832,3.392c-1.408,0.416-3.168,0.864-5.216,0.864
			c-5.056,0-6.848-2.815-6.848-6.975V253.045z"/>
		<path style="fill:#FFFFFF;" d="M529.468,254.037h11.263v3.552h-11.263V254.037z"/>
		<path style="fill:#FFFFFF;" d="M560.187,256.885l-12.352,8v-4.256l8.479-5.312v-0.128l-8.479-5.312v-4.256l12.352,8V256.885z"/>
		<path style="fill:#FFFFFF;" d="M369.833,298.181c1.568,1.28,3.521,2.176,5.344,2.176c2.176,0,3.136-0.768,3.136-2.016
			c0-1.312-1.216-1.728-3.231-2.496l-2.688-1.152c-2.336-0.864-4.448-2.656-4.448-5.696c0-3.456,3.136-6.208,7.647-6.208
			c2.528,0,5.056,0.96,6.943,2.752l-2.399,2.976c-1.44-1.056-2.752-1.664-4.544-1.664c-1.823,0-2.88,0.704-2.88,1.888
			c0,1.28,1.408,1.728,3.424,2.464l2.528,1.088c2.752,1.024,4.479,2.72,4.479,5.664c0,3.456-2.912,6.463-8.096,6.463
			c-2.815,0-5.695-1.024-7.936-3.008L369.833,298.181z"/>
		<path style="fill:#FFFFFF;" d="M388.937,306.532c1.824,0,2.815-0.832,3.328-2.08l0.319-0.832l-6.879-15.455h4.672l2.655,6.816
			c0.576,1.504,1.088,3.104,1.6,4.768h0.128c0.416-1.568,0.96-3.2,1.44-4.768l2.336-6.816h4.447l-6.271,16.031
			c-1.536,4-3.424,6.047-7.424,6.047c-0.928,0-1.76-0.128-2.432-0.32l0.832-3.584C388.104,306.468,388.521,306.532,388.937,306.532z
			"/>
		<path style="fill:#FFFFFF;" d="M407.72,299.045c1.824,1.152,3.647,1.888,5.76,1.888c2.144,0,3.04-0.512,3.04-1.344
			c0-0.96-1.696-1.504-4.256-2.208c-2.784-0.768-5.664-2.112-5.664-4.64c0-2.943,2.784-4.959,7.328-4.959
			c2.815,0,5.184,1.12,6.847,2.176l-2.111,2.816c-1.44-0.864-2.976-1.504-4.64-1.504c-1.984,0-2.752,0.448-2.752,1.248
			c0,0.96,1.824,1.44,4.063,2.016c3.136,0.832,5.855,2.016,5.855,4.768c0,2.88-2.72,5.12-7.807,5.12
			c-2.849,0-5.76-1.088-7.775-2.432L407.72,299.045z"/>
		<path style="fill:#FFFFFF;" d="M428.679,291.846h-3.968v-3.488l4.192-0.192l0.607-4.224h3.872v4.224h6.688v3.68h-6.688v5.567
			c0,2.4,1.023,3.328,3.327,3.328c1.216,0,2.272-0.256,3.2-0.576l0.832,3.392c-1.408,0.416-3.168,0.864-5.216,0.864
			c-5.056,0-6.848-2.815-6.848-6.975V291.846z"/>
		<path style="fill:#FFFFFF;" d="M452.326,287.782c4.896,0,7.455,3.296,7.455,7.616c0,0.832-0.128,1.6-0.192,1.984h-10.687
			c0.447,2.399,2.271,3.456,4.607,3.456c1.439,0,2.688-0.384,4.096-1.088l1.536,2.816c-1.792,1.152-4.16,1.855-6.271,1.855
			c-4.928,0-8.8-3.072-8.8-8.319C444.07,290.917,448.103,287.782,452.326,287.782z M455.525,294.469c0-1.824-0.96-3.104-3.104-3.104
			c-1.696,0-3.2,0.992-3.584,3.104H455.525z"/>
		<path style="fill:#FFFFFF;" d="M462.662,288.166h3.52l0.352,1.984h0.128c0.608-1.312,1.568-2.368,3.392-2.368
			c1.408,0,2.4,0.896,2.784,2.592c0.576-1.44,1.696-2.592,3.487-2.592c2.208,0,3.521,1.952,3.521,5.12v11.135h-4.416v-10.783
			c0-0.992-0.256-1.472-0.896-1.472c-0.608,0-1.057,0.512-1.473,1.536v10.719h-3.615v-10.783c0-0.992-0.32-1.472-0.928-1.472
			c-0.608,0-0.992,0.512-1.44,1.536v10.719h-4.415V288.166z"/>
		<path style="fill:#FFFFFF;" d="M490.309,296.901c2.208,0,3.711,1.664,3.711,3.775s-1.503,3.744-3.711,3.744
			s-3.712-1.632-3.712-3.744S488.101,296.901,490.309,296.901z"/>
		<path style="fill:#FFFFFF;" d="M509.508,287.782c4.191,0,8.095,3.04,8.095,8.319c0,5.28-3.903,8.319-8.095,8.319
			c-4.192,0-8.096-3.04-8.096-8.319C501.412,290.822,505.315,287.782,509.508,287.782z M509.508,300.613
			c2.176,0,3.264-1.76,3.264-4.512c0-2.751-1.088-4.512-3.264-4.512s-3.264,1.76-3.264,4.512
			C506.244,298.853,507.332,300.613,509.508,300.613z"/>
		<path style="fill:#FFFFFF;" d="M535.906,304.037h-3.84l-0.352-2.272h-0.128c-1.408,1.6-3.072,2.656-5.344,2.656
			c-3.616,0-5.152-2.464-5.152-6.463v-9.792h4.704v9.184c0,2.112,0.544,3.072,2.304,3.072c1.184,0,2.016-0.416,3.104-1.824v-10.432
			h4.704V304.037z"/>
		<path style="fill:#FFFFFF;" d="M543.874,291.846h-3.968v-3.488l4.192-0.192l0.607-4.224h3.872v4.224h6.688v3.68h-6.688v5.567
			c0,2.4,1.023,3.328,3.327,3.328c1.216,0,2.272-0.256,3.2-0.576l0.832,3.392c-1.408,0.416-3.168,0.864-5.216,0.864
			c-5.056,0-6.848-2.815-6.848-6.975V291.846z"/>
		<path style="fill:#FFFFFF;" d="M567.105,296.901c2.208,0,3.711,1.664,3.711,3.775s-1.503,3.744-3.711,3.744
			s-3.712-1.632-3.712-3.744S564.897,296.901,567.105,296.901z"/>
		<path style="fill:#FFFFFF;" d="M583.713,305.285v4.64h-4.704v-21.759h3.84l0.352,1.6h0.097c1.279-1.152,3.039-1.984,4.735-1.984
			c3.968,0,6.367,3.168,6.367,8.063c0,5.439-3.327,8.575-6.879,8.575c-1.408,0-2.816-0.608-3.968-1.728L583.713,305.285z
			 M586.433,300.581c1.76,0,3.136-1.408,3.136-4.672c0-2.848-0.928-4.288-2.912-4.288c-1.023,0-1.952,0.448-2.943,1.472v6.432
			C584.608,300.293,585.633,300.581,586.433,300.581z"/>
		<path style="fill:#FFFFFF;" d="M599.616,288.166h3.84l0.384,3.456h0.096c1.568-2.592,3.904-3.84,6.432-3.84
			c1.408,0,2.144,0.224,3.072,0.64l-0.96,3.936c-0.992-0.288-1.632-0.448-2.816-0.448c-1.951,0-3.999,1.024-5.344,3.872v8.255
			h-4.703V288.166z"/>
		<path style="fill:#FFFFFF;" d="M617.631,288.166h11.071v15.871h-4.703v-12.191h-6.368V288.166z M623.007,282.982
			c0-1.728,1.312-2.943,3.136-2.943s3.136,1.216,3.136,2.943c0,1.728-1.312,2.848-3.136,2.848S623.007,284.71,623.007,282.982z"/>
		<path style="fill:#FFFFFF;" d="M636.606,288.166h3.84l0.352,2.112h0.128c1.376-1.344,3.104-2.496,5.472-2.496
			c3.584,0,5.184,2.464,5.184,6.463v9.792h-4.703v-9.183c0-2.112-0.608-3.072-2.336-3.072c-1.28,0-2.112,0.576-3.231,1.664v10.591
			h-4.704V288.166z"/>
		<path style="fill:#FFFFFF;" d="M659.069,291.846h-3.968v-3.488l4.192-0.192l0.607-4.224h3.872v4.224h6.688v3.68h-6.688v5.567
			c0,2.4,1.023,3.328,3.327,3.328c1.216,0,2.272-0.256,3.2-0.576l0.832,3.392c-1.408,0.416-3.168,0.864-5.216,0.864
			c-5.056,0-6.848-2.815-6.848-6.975V291.846z"/>
		<path style="fill:#FFFFFF;" d="M674.685,281.606h9.312v16.415c0,1.952,1.248,2.592,2.561,2.592c0.735,0,1.504-0.128,2.495-0.512
			l1.056,3.456c-1.663,0.512-2.783,0.864-4.768,0.864c-3.999,0-6.047-2.56-6.047-6.591v-12.511h-4.608V281.606z"/>
		<path style="fill:#FFFFFF;" d="M694.204,288.166h3.84l0.352,2.112h0.128c1.376-1.344,3.104-2.496,5.472-2.496
			c3.584,0,5.184,2.464,5.184,6.463v9.792h-4.703v-9.183c0-2.112-0.608-3.072-2.336-3.072c-1.28,0-2.112,0.576-3.231,1.664v10.591
			h-4.704V288.166z"/>
		<path style="fill:#FFFFFF;" d="M716.892,295.141c0-6.016,2.592-10.943,6.751-14.623l2.624,2.08
			c-3.808,3.712-5.439,7.487-5.439,12.543s1.632,8.832,5.439,12.543l-2.624,2.08C719.483,306.084,716.892,301.157,716.892,295.141z"
			/>
		<path style="fill:#FFFFFF;" d="M740.314,287.782c4.896,0,7.455,3.296,7.455,7.616c0,0.832-0.128,1.6-0.192,1.984h-10.687
			c0.447,2.399,2.271,3.456,4.607,3.456c1.439,0,2.688-0.384,4.096-1.088l1.536,2.816c-1.792,1.152-4.16,1.855-6.271,1.855
			c-4.928,0-8.8-3.072-8.8-8.319C732.059,290.917,736.091,287.782,740.314,287.782z M743.514,294.469
			c0-1.824-0.96-3.104-3.104-3.104c-1.696,0-3.2,0.992-3.584,3.104H743.514z"/>
		<path style="fill:#FFFFFF;" d="M751.481,281.606h9.312v16.415c0,1.952,1.248,2.592,2.561,2.592c0.735,0,1.504-0.128,2.495-0.512
			l1.056,3.456c-1.663,0.512-2.783,0.864-4.768,0.864c-3.999,0-6.047-2.56-6.047-6.591v-12.511h-4.608V281.606z"/>
		<path style="fill:#FFFFFF;" d="M778.713,287.782c4.896,0,7.455,3.296,7.455,7.616c0,0.832-0.128,1.6-0.192,1.984h-10.687
			c0.447,2.399,2.271,3.456,4.607,3.456c1.439,0,2.688-0.384,4.096-1.088l1.536,2.816c-1.792,1.152-4.16,1.855-6.271,1.855
			c-4.928,0-8.8-3.072-8.8-8.319C770.457,290.917,774.489,287.782,778.713,287.782z M781.912,294.469
			c0-1.824-0.96-3.104-3.104-3.104c-1.696,0-3.2,0.992-3.584,3.104H781.912z"/>
		<path style="fill:#FFFFFF;" d="M789.049,288.166h3.52l0.352,1.984h0.128c0.608-1.312,1.568-2.368,3.392-2.368
			c1.408,0,2.4,0.896,2.784,2.592c0.576-1.44,1.696-2.592,3.487-2.592c2.208,0,3.521,1.952,3.521,5.12v11.135h-4.416v-10.783
			c0-0.992-0.256-1.472-0.896-1.472c-0.608,0-1.057,0.512-1.473,1.536v10.719h-3.615v-10.783c0-0.992-0.32-1.472-0.928-1.472
			c-0.608,0-0.992,0.512-1.44,1.536v10.719h-4.415V288.166z"/>
		<path style="fill:#FFFFFF;" d="M817.111,287.782c4.896,0,7.455,3.296,7.455,7.616c0,0.832-0.128,1.6-0.192,1.984h-10.687
			c0.447,2.399,2.271,3.456,4.607,3.456c1.439,0,2.688-0.384,4.096-1.088l1.536,2.816c-1.792,1.152-4.16,1.855-6.271,1.855
			c-4.928,0-8.8-3.072-8.8-8.319C808.855,290.917,812.888,287.782,817.111,287.782z M820.311,294.469
			c0-1.824-0.96-3.104-3.104-3.104c-1.696,0-3.2,0.992-3.584,3.104H820.311z"/>
		<path style="fill:#FFFFFF;" d="M828.599,288.166h3.84l0.352,2.112h0.128c1.376-1.344,3.104-2.496,5.472-2.496
			c3.584,0,5.184,2.464,5.184,6.463v9.792h-4.703v-9.183c0-2.112-0.608-3.072-2.336-3.072c-1.28,0-2.112,0.576-3.231,1.664v10.591
			h-4.704V288.166z"/>
		<path style="fill:#FFFFFF;" d="M851.062,291.846h-3.968v-3.488l4.192-0.192l0.607-4.224h3.872v4.224h6.688v3.68h-6.688v5.567
			c0,2.4,1.023,3.328,3.327,3.328c1.216,0,2.272-0.256,3.2-0.576l0.832,3.392c-1.408,0.416-3.168,0.864-5.216,0.864
			c-5.056,0-6.848-2.815-6.848-6.975V291.846z"/>
		<path style="fill:#FFFFFF;" d="M868.725,307.685c3.809-3.712,5.44-7.488,5.44-12.543s-1.632-8.831-5.44-12.543l2.624-2.08
			c4.16,3.68,6.752,8.607,6.752,14.623s-2.592,10.943-6.752,14.623L868.725,307.685z"/>
		<path style="fill:#FFFFFF;" d="M887.924,307.685c3.809-3.712,5.44-7.488,5.44-12.543s-1.632-8.831-5.44-12.543l2.624-2.08
			c4.16,3.68,6.752,8.607,6.752,14.623s-2.592,10.943-6.752,14.623L887.924,307.685z"/>
		<path style="fill:#FFFFFF;" d="M908.915,308.229c2.784-0.96,4.16-2.528,4.16-4.544c-0.128,0.032-0.224,0.032-0.353,0.032
			c-1.791,0-3.455-1.152-3.455-3.264c0-1.983,1.6-3.295,3.584-3.295c2.623,0,3.967,2.048,3.967,5.503
			c0,4.064-2.304,6.976-6.719,8.319L908.915,308.229z M908.979,290.31c0-2.08,1.504-3.744,3.712-3.744s3.711,1.664,3.711,3.744
			c0,2.112-1.503,3.776-3.711,3.776S908.979,292.421,908.979,290.31z"/>
	</g>
</g>
</svg>
