<?xml version="1.0" encoding="iso-8859-1"?>
<!-- Generator: Adobe Illustrator 16.1.1, SVG Export Plug-In . SVG Version: 6.00 Build 0)  -->
<!DOCTYPE svg PUBLIC "-//W3C//DTD SVG 1.1//EN" "http://www.w3.org/Graphics/SVG/1.1/DTD/svg11.dtd">
<svg version="1.1" xmlns="http://www.w3.org/2000/svg" xmlns:xlink="http://www.w3.org/1999/xlink" x="0px" y="0px" width="1024px"
	 height="768px" viewBox="0 0 1024 768" style="enable-background:new 0 0 1024 768;" xml:space="preserve">
<g id="jfx:p00">
	<image style="overflow:visible;" width="1024" height="768" xlink:href="BB806607.jpg" >
	</image>
</g>
<g id="jfx:p01">
	<rect style="opacity:0.6;" width="1024" height="768"/>
</g>
<g id="jfx:p02">
	<g>
		<path style="fill:#FFFFFF;stroke:#FFFFFF;" d="M88.68,100.439c3.28,1.68,8.32,3.36,13.52,3.36c5.601,0,8.561-2.32,8.561-5.84
			c0-3.36-2.56-5.28-9.041-7.6c-8.96-3.12-14.8-8.08-14.8-15.92c0-9.2,7.68-16.24,20.4-16.24c6.081,0,10.561,1.28,13.761,2.72
			l-2.72,9.84c-2.16-1.04-6-2.56-11.28-2.56s-7.84,2.4-7.84,5.2c0,3.44,3.04,4.96,10,7.6c9.52,3.521,14,8.48,14,16.081
			c0,9.04-6.96,16.72-21.76,16.72c-6.16,0-12.24-1.6-15.28-3.28L88.68,100.439z"/>
		<path style="fill:#FFFFFF;stroke:#FFFFFF;" d="M144.68,62.678v11.2h8.72v8.96h-8.72v14.16c0,4.72,1.12,6.88,4.8,6.88
			c1.52,0,2.72-0.16,3.6-0.32l0.08,9.2c-1.6,0.64-4.48,1.04-7.92,1.04c-3.92,0-7.2-1.36-9.12-3.36c-2.24-2.32-3.36-6.08-3.36-11.6
			v-16h-5.2v-8.96h5.2v-8.48L144.68,62.678z"/>
		<path style="fill:#FFFFFF;stroke:#FFFFFF;" d="M160.438,86.758c0-5.76-0.16-9.52-0.32-12.88h10.48l0.4,7.2h0.32
			c2-5.68,6.8-8.08,10.561-8.08c1.12,0,1.68,0,2.56,0.16v11.44c-0.88-0.16-1.92-0.32-3.28-0.32c-4.48,0-7.52,2.4-8.32,6.16
			c-0.16,0.8-0.24,1.76-0.24,2.72v19.84h-12.161V86.758z"/>
		<path style="fill:#FFFFFF;stroke:#FFFFFF;" d="M200.198,97.319c0.4,5.04,5.36,7.44,11.041,7.44c4.16,0,7.52-0.56,10.8-1.6
			l1.6,8.24c-4,1.6-8.88,2.4-14.16,2.4c-13.28,0-20.88-7.68-20.88-19.92c0-9.92,6.16-20.88,19.76-20.88
			c12.641,0,17.44,9.84,17.44,19.521c0,2.08-0.24,3.92-0.4,4.8H200.198z M214.519,88.999c0-2.96-1.28-7.92-6.88-7.92
			c-5.12,0-7.2,4.64-7.521,7.92H214.519z"/>
		<path style="fill:#FFFFFF;stroke:#FFFFFF;" d="M255.319,112.999l-0.72-3.92h-0.24c-2.56,3.12-6.56,4.8-11.2,4.8
			c-7.92,0-12.641-5.76-12.641-12c0-10.16,9.121-15.041,22.961-14.96v-0.56c0-2.08-1.12-5.04-7.12-5.04c-4,0-8.24,1.36-10.8,2.96
			l-2.24-7.84c2.72-1.52,8.08-3.44,15.2-3.44c13.041,0,17.201,7.68,17.201,16.88v13.601c0,3.76,0.16,7.36,0.56,9.52H255.319z
			 M253.879,94.519c-6.4-0.08-11.36,1.44-11.36,6.16c0,3.12,2.08,4.64,4.8,4.64c3.04,0,5.52-2,6.32-4.48
			c0.16-0.64,0.24-1.36,0.24-2.08V94.519z"/>
		<path style="fill:#FFFFFF;stroke:#FFFFFF;" d="M275.318,86.358c0-4.88-0.16-9.04-0.32-12.48h10.24l0.56,5.28h0.24
			c1.68-2.48,5.12-6.16,11.84-6.16c5.041,0,9.04,2.56,10.721,6.64h0.16c1.439-2,3.199-3.6,5.04-4.72c2.16-1.28,4.56-1.92,7.439-1.92
			c7.521,0,13.2,5.28,13.2,16.96v23.041H322.6v-21.28c0-5.68-1.84-8.96-5.76-8.96c-2.801,0-4.801,1.92-5.601,4.24
			c-0.32,0.88-0.479,2.16-0.479,3.12v22.88h-11.841v-21.92c0-4.96-1.76-8.32-5.6-8.32c-3.12,0-4.96,2.4-5.68,4.4
			c-0.4,0.96-0.48,2.08-0.48,3.041v22.8h-11.84V86.358z"/>
	</g>
</g>
<g id="jfx:p03">
	<g>
		<path style="fill:#FFFFFF;" d="M54.404,179.674c1.568,1.28,3.52,2.176,5.343,2.176c2.176,0,3.136-0.768,3.136-2.016
			c0-1.312-1.216-1.728-3.231-2.496l-2.688-1.152c-2.336-0.864-4.448-2.656-4.448-5.696c0-3.456,3.136-6.208,7.647-6.208
			c2.528,0,5.056,0.96,6.944,2.752l-2.4,2.976c-1.44-1.056-2.752-1.664-4.544-1.664c-1.824,0-2.879,0.704-2.879,1.888
			c0,1.28,1.408,1.728,3.423,2.464l2.528,1.088c2.752,1.024,4.48,2.72,4.48,5.664c0,3.456-2.912,6.463-8.096,6.463
			c-2.815,0-5.695-1.024-7.935-3.008L54.404,179.674z"/>
		<path style="fill:#FFFFFF;" d="M74.852,173.339h-3.967v-3.488l4.191-0.192l0.608-4.224h3.872v4.224h6.688v3.68h-6.688v5.567
			c0,2.4,1.024,3.328,3.328,3.328c1.216,0,2.271-0.256,3.2-0.576l0.832,3.392c-1.408,0.416-3.168,0.864-5.216,0.864
			c-5.056,0-6.848-2.815-6.848-6.975V173.339z"/>
		<path style="fill:#FFFFFF;" d="M92.196,169.659h3.839l0.384,3.456h0.096c1.568-2.592,3.904-3.84,6.432-3.84
			c1.408,0,2.144,0.224,3.072,0.64l-0.96,3.936c-0.992-0.288-1.632-0.448-2.816-0.448c-1.952,0-4,1.024-5.343,3.872v8.255h-4.704
			V169.659z"/>
		<path style="fill:#FFFFFF;" d="M117.699,169.275c4.896,0,7.456,3.296,7.456,7.616c0,0.832-0.128,1.6-0.192,1.983h-10.688
			c0.448,2.4,2.272,3.456,4.608,3.456c1.44,0,2.688-0.384,4.096-1.088l1.536,2.816c-1.792,1.152-4.16,1.855-6.271,1.855
			c-4.928,0-8.799-3.072-8.799-8.319C109.443,172.411,113.475,169.275,117.699,169.275z M120.898,175.962
			c0-1.824-0.96-3.104-3.104-3.104c-1.696,0-3.2,0.992-3.584,3.104H120.898z"/>
		<path style="fill:#FFFFFF;" d="M139.298,175.323c-0.16-1.44-1.248-2.304-3.392-2.304c-1.536,0-3.04,0.576-4.832,1.472
			l-1.664-3.072c2.176-1.248,4.704-2.144,7.423-2.144c4.448,0,7.167,2.304,7.167,7.167v9.087h-3.84l-0.352-1.792h-0.128
			c-1.6,1.216-3.583,2.176-5.631,2.176c-3.2,0-5.216-2.112-5.216-4.799C128.835,177.563,131.779,175.771,139.298,175.323z
			 M135.555,182.266c1.408,0,2.624-0.64,3.744-1.504v-2.624c-4.671,0.256-5.952,1.248-5.952,2.624
			C133.347,181.786,134.211,182.266,135.555,182.266z"/>
		<path style="fill:#FFFFFF;" d="M147.235,169.659h3.52l0.352,1.983h0.128c0.608-1.312,1.568-2.368,3.392-2.368
			c1.408,0,2.4,0.896,2.784,2.592c0.576-1.44,1.696-2.592,3.488-2.592c2.208,0,3.52,1.952,3.52,5.12v11.135h-4.415v-10.783
			c0-0.992-0.257-1.472-0.896-1.472c-0.608,0-1.056,0.512-1.472,1.536v10.719h-3.616v-10.783c0-0.992-0.32-1.472-0.928-1.472
			s-0.992,0.512-1.44,1.536v10.719h-4.416V169.659z"/>
		<path style="fill:#FFFFFF;" d="M168.995,173.915l12.351-8v4.256l-8.479,5.312v0.128l8.479,5.312v4.256l-12.351-8V173.915z"/>
		<path style="fill:#FFFFFF;" d="M191.713,168.635h-6.239v-3.967h17.215v3.967h-6.24v16.895h-4.735V168.635z"/>
		<path style="fill:#FFFFFF;" d="M219.168,177.178l-12.352,8v-4.256l8.479-5.312v-0.128l-8.479-5.312v-4.256l12.352,8V177.178z"/>
		<path style="fill:#FFFFFF;" d="M259.902,167.035c-0.991-0.384-2.111-0.608-3.327-0.608c-2.016,0-2.976,0.864-2.976,2.784v0.448
			h5.472v3.68h-5.472v12.191h-4.704v-12.191h-4.191v-3.488l4.191-0.192v-0.416c0-3.648,2.144-6.528,7.104-6.528
			c1.824,0,3.456,0.416,4.8,0.864L259.902,167.035z"/>
		<path style="fill:#FFFFFF;" d="M263.806,169.659h11.071v15.871h-4.703v-12.191h-6.368V169.659z M269.182,164.475
			c0-1.728,1.312-2.943,3.136-2.943s3.136,1.216,3.136,2.943c0,1.728-1.312,2.848-3.136,2.848S269.182,166.203,269.182,164.475z"/>
		<path style="fill:#FFFFFF;" d="M282.461,163.1h9.312v16.415c0,1.952,1.248,2.592,2.561,2.592c0.735,0,1.504-0.128,2.495-0.512
			l1.056,3.456c-1.663,0.512-2.783,0.864-4.768,0.864c-3.999,0-6.047-2.56-6.047-6.591v-12.511h-4.608V163.1z"/>
		<path style="fill:#FFFFFF;" d="M305.245,173.339h-3.968v-3.488l4.192-0.192l0.607-4.224h3.872v4.224h6.688v3.68h-6.688v5.567
			c0,2.4,1.023,3.328,3.327,3.328c1.216,0,2.272-0.256,3.2-0.576l0.832,3.392c-1.408,0.416-3.168,0.864-5.216,0.864
			c-5.056,0-6.848-2.815-6.848-6.975V173.339z"/>
		<path style="fill:#FFFFFF;" d="M328.892,169.275c4.896,0,7.455,3.296,7.455,7.616c0,0.832-0.128,1.6-0.192,1.983h-10.687
			c0.447,2.4,2.271,3.456,4.607,3.456c1.439,0,2.688-0.384,4.096-1.088l1.536,2.816c-1.792,1.152-4.16,1.855-6.271,1.855
			c-4.928,0-8.8-3.072-8.8-8.319C320.636,172.411,324.668,169.275,328.892,169.275z M332.091,175.962
			c0-1.824-0.96-3.104-3.104-3.104c-1.696,0-3.2,0.992-3.584,3.104H332.091z"/>
		<path style="fill:#FFFFFF;" d="M341.788,169.659h3.84l0.384,3.456h0.096c1.568-2.592,3.904-3.84,6.432-3.84
			c1.408,0,2.144,0.224,3.072,0.64l-0.96,3.936c-0.992-0.288-1.632-0.448-2.816-0.448c-1.951,0-3.999,1.024-5.344,3.872v8.255
			h-4.703V169.659z"/>
		<path style="fill:#FFFFFF;" d="M363.067,176.634c0-6.016,2.592-10.943,6.751-14.623l2.624,2.08
			c-3.808,3.712-5.439,7.487-5.439,12.543s1.632,8.832,5.439,12.543l-2.624,2.08C365.659,187.578,363.067,182.65,363.067,176.634z"
			/>
		<path style="fill:#FFFFFF;" d="M378.842,164.667h7.615c4.512,0,8.159,1.664,8.159,6.719c0,4.896-3.743,7.072-8.159,7.072h-2.912
			v7.071h-4.703V164.667z M386.169,174.714c2.592,0,3.808-1.152,3.808-3.328s-1.312-2.976-3.808-2.976h-2.624v6.303H386.169z"/>
		<path style="fill:#FFFFFF;" d="M399.385,169.659h3.84l0.384,3.456h0.096c1.568-2.592,3.904-3.84,6.432-3.84
			c1.408,0,2.144,0.224,3.072,0.64l-0.96,3.936c-0.992-0.288-1.632-0.448-2.816-0.448c-1.951,0-3.999,1.024-5.344,3.872v8.255
			h-4.703V169.659z"/>
		<path style="fill:#FFFFFF;" d="M424.888,169.275c4.896,0,7.455,3.296,7.455,7.616c0,0.832-0.128,1.6-0.192,1.983h-10.687
			c0.447,2.4,2.271,3.456,4.607,3.456c1.439,0,2.688-0.384,4.096-1.088l1.536,2.816c-1.792,1.152-4.16,1.855-6.271,1.855
			c-4.928,0-8.8-3.072-8.8-8.319C416.632,172.411,420.665,169.275,424.888,169.275z M428.087,175.962
			c0-1.824-0.96-3.104-3.104-3.104c-1.696,0-3.2,0.992-3.584,3.104H428.087z"/>
		<path style="fill:#FFFFFF;" d="M442.359,169.275c1.824,0,2.944,0.672,4.064,1.696l-0.16-2.464V163.1h4.703v22.43h-3.84
			l-0.352-1.632h-0.096c-1.185,1.152-2.816,2.016-4.416,2.016c-4.031,0-6.688-3.136-6.688-8.319S438.904,169.275,442.359,169.275z
			 M443.479,182.074c1.056,0,1.952-0.416,2.784-1.472v-6.432c-0.864-0.768-1.729-1.056-2.656-1.056
			c-1.728,0-3.199,1.408-3.199,4.416C440.408,180.666,441.527,182.074,443.479,182.074z"/>
		<path style="fill:#FFFFFF;" d="M455.798,169.659h11.071v15.871h-4.703v-12.191h-6.368V169.659z M461.174,164.475
			c0-1.728,1.312-2.943,3.136-2.943s3.136,1.216,3.136,2.943c0,1.728-1.312,2.848-3.136,2.848S461.174,166.203,461.174,164.475z"/>
		<path style="fill:#FFFFFF;" d="M483.797,169.275c2.496,0,4.607,0.896,5.951,2.144l-2.176,2.912
			c-1.216-0.864-2.336-1.248-3.52-1.248c-2.72,0-4.607,1.76-4.607,4.512c0,2.752,1.824,4.512,4.447,4.512
			c1.664,0,3.072-0.704,4.192-1.504l1.92,2.976c-1.92,1.6-4.384,2.335-6.56,2.335c-4.992,0-8.832-3.04-8.832-8.319
			C474.614,172.315,478.902,169.275,483.797,169.275z"/>
		<path style="fill:#FFFFFF;" d="M504.084,175.323c-0.16-1.44-1.248-2.304-3.392-2.304c-1.536,0-3.04,0.576-4.832,1.472
			l-1.664-3.072c2.177-1.248,4.704-2.144,7.424-2.144c4.448,0,7.168,2.304,7.168,7.167v9.087h-3.84l-0.353-1.792h-0.128
			c-1.6,1.216-3.584,2.176-5.631,2.176c-3.2,0-5.216-2.112-5.216-4.799C493.622,177.563,496.565,175.771,504.084,175.323z
			 M500.34,182.266c1.408,0,2.624-0.64,3.744-1.504v-2.624c-4.672,0.256-5.951,1.248-5.951,2.624
			C498.133,181.786,498.997,182.266,500.34,182.266z"/>
		<path style="fill:#FFFFFF;" d="M516.436,173.339h-3.967v-3.488l4.192-0.192l0.607-4.224h3.873v4.224h6.688v3.68h-6.688v5.567
			c0,2.4,1.023,3.328,3.326,3.328c1.217,0,2.273-0.256,3.201-0.576l0.832,3.392c-1.408,0.416-3.168,0.864-5.217,0.864
			c-5.055,0-6.848-2.815-6.848-6.975V173.339z"/>
		<path style="fill:#FFFFFF;" d="M540.084,169.275c4.895,0,7.455,3.296,7.455,7.616c0,0.832-0.129,1.6-0.193,1.983H536.66
			c0.447,2.4,2.271,3.456,4.607,3.456c1.439,0,2.688-0.384,4.096-1.088l1.535,2.816c-1.791,1.152-4.16,1.855-6.271,1.855
			c-4.928,0-8.799-3.072-8.799-8.319C531.828,172.411,535.859,169.275,540.084,169.275z M543.283,175.962
			c0-1.824-0.961-3.104-3.104-3.104c-1.697,0-3.201,0.992-3.584,3.104H543.283z"/>
		<path style="fill:#FFFFFF;" d="M552.979,173.915l12.352-8v4.256l-8.48,5.312v0.128l8.48,5.312v4.256l-12.352-8V173.915z"/>
		<path style="fill:#FFFFFF;" d="M579.857,169.531c0-1.344-1.023-2.016-2.367-2.016c-1.313,0-2.305,0.608-3.264,1.472l-2.625-2.4
			c1.537-1.696,3.68-2.879,6.209-2.879c3.68,0,6.559,1.696,6.559,5.215c0,4.192-5.215,4.736-4.832,8.448h-4.096
			C574.738,173.083,579.857,171.899,579.857,169.531z M577.617,179.45c1.824,0,3.201,1.312,3.201,3.2
			c0,1.92-1.377,3.264-3.201,3.264s-3.199-1.344-3.199-3.264C574.418,180.762,575.793,179.45,577.617,179.45z"/>
		<path style="fill:#FFFFFF;" d="M610.672,180.538c1.824,1.152,3.648,1.888,5.76,1.888c2.145,0,3.041-0.512,3.041-1.344
			c0-0.96-1.697-1.504-4.256-2.208c-2.785-0.768-5.664-2.112-5.664-4.64c0-2.943,2.783-4.959,7.328-4.959
			c2.814,0,5.184,1.12,6.846,2.176l-2.111,2.816c-1.439-0.864-2.975-1.504-4.639-1.504c-1.984,0-2.752,0.448-2.752,1.248
			c0,0.96,1.824,1.44,4.063,2.016c3.137,0.832,5.855,2.016,5.855,4.768c0,2.88-2.719,5.12-7.807,5.12
			c-2.848,0-5.76-1.088-7.775-2.432L610.672,180.538z"/>
		<path style="fill:#FFFFFF;" d="M642.863,185.53h-3.84l-0.352-2.272h-0.129c-1.408,1.6-3.072,2.656-5.344,2.656
			c-3.615,0-5.152-2.464-5.152-6.463v-9.791h4.705v9.183c0,2.112,0.543,3.072,2.303,3.072c1.184,0,2.016-0.416,3.104-1.824v-10.431
			h4.705V185.53z"/>
		<path style="fill:#FFFFFF;" d="M652.271,186.778v4.64h-4.705v-21.758h3.84l0.352,1.6h0.098c1.279-1.152,3.039-1.984,4.734-1.984
			c3.969,0,6.367,3.168,6.367,8.063c0,5.439-3.326,8.575-6.879,8.575c-1.408,0-2.816-0.608-3.967-1.728L652.271,186.778z
			 M654.99,182.074c1.76,0,3.137-1.408,3.137-4.672c0-2.848-0.928-4.288-2.912-4.288c-1.023,0-1.953,0.448-2.943,1.472v6.432
			C653.166,181.786,654.191,182.074,654.99,182.074z"/>
		<path style="fill:#FFFFFF;" d="M674.479,169.275c4.895,0,7.455,3.296,7.455,7.616c0,0.832-0.129,1.6-0.193,1.983h-10.686
			c0.447,2.4,2.271,3.456,4.607,3.456c1.439,0,2.688-0.384,4.096-1.088l1.535,2.816c-1.791,1.152-4.16,1.855-6.271,1.855
			c-4.928,0-8.799-3.072-8.799-8.319C666.223,172.411,670.254,169.275,674.479,169.275z M677.678,175.962
			c0-1.824-0.961-3.104-3.104-3.104c-1.697,0-3.201,0.992-3.584,3.104H677.678z"/>
		<path style="fill:#FFFFFF;" d="M687.373,169.659h3.84l0.385,3.456h0.096c1.568-2.592,3.904-3.84,6.432-3.84
			c1.408,0,2.143,0.224,3.072,0.64l-0.961,3.936c-0.992-0.288-1.631-0.448-2.816-0.448c-1.951,0-3.998,1.024-5.344,3.872v8.255
			h-4.703V169.659z"/>
		<path style="fill:#FFFFFF;" d="M729.291,168.635h-6.238v-3.967h17.215v3.967h-6.24v16.895h-4.736V168.635z"/>
		<path style="fill:#FFFFFF;" d="M756.746,177.178l-12.352,8v-4.256l8.48-5.312v-0.128l-8.48-5.312v-4.256l12.352,8V177.178z"/>
		<path style="fill:#FFFFFF;" d="M786.666,186.778v4.64h-4.705v-21.758h3.84l0.352,1.6h0.098c1.279-1.152,3.039-1.984,4.734-1.984
			c3.969,0,6.367,3.168,6.367,8.063c0,5.439-3.326,8.575-6.879,8.575c-1.408,0-2.816-0.608-3.967-1.728L786.666,186.778z
			 M789.385,182.074c1.76,0,3.137-1.408,3.137-4.672c0-2.848-0.928-4.288-2.912-4.288c-1.023,0-1.953,0.448-2.943,1.472v6.432
			C787.561,181.786,788.586,182.074,789.385,182.074z"/>
		<path style="fill:#FFFFFF;" d="M802.568,169.659h3.84l0.385,3.456h0.096c1.568-2.592,3.904-3.84,6.432-3.84
			c1.408,0,2.143,0.224,3.072,0.64l-0.961,3.936c-0.992-0.288-1.631-0.448-2.816-0.448c-1.951,0-3.998,1.024-5.344,3.872v8.255
			h-4.703V169.659z"/>
		<path style="fill:#FFFFFF;" d="M828.072,169.275c4.895,0,7.455,3.296,7.455,7.616c0,0.832-0.129,1.6-0.193,1.983h-10.686
			c0.447,2.4,2.271,3.456,4.607,3.456c1.439,0,2.688-0.384,4.096-1.088l1.535,2.816c-1.791,1.152-4.16,1.855-6.271,1.855
			c-4.928,0-8.799-3.072-8.799-8.319C819.816,172.411,823.848,169.275,828.072,169.275z M831.271,175.962
			c0-1.824-0.961-3.104-3.104-3.104c-1.697,0-3.201,0.992-3.584,3.104H831.271z"/>
		<path style="fill:#FFFFFF;" d="M845.543,169.275c1.824,0,2.943,0.672,4.064,1.696l-0.16-2.464V163.1h4.703v22.43h-3.84
			l-0.352-1.632h-0.096c-1.186,1.152-2.816,2.016-4.416,2.016c-4.031,0-6.688-3.136-6.688-8.319S842.088,169.275,845.543,169.275z
			 M846.662,182.074c1.057,0,1.953-0.416,2.785-1.472v-6.432c-0.865-0.768-1.729-1.056-2.656-1.056
			c-1.729,0-3.199,1.408-3.199,4.416C843.592,180.666,844.711,182.074,846.662,182.074z"/>
		<path style="fill:#FFFFFF;" d="M858.982,169.659h11.07v15.871h-4.703v-12.191h-6.367V169.659z M864.357,164.475
			c0-1.728,1.313-2.943,3.137-2.943s3.135,1.216,3.135,2.943c0,1.728-1.311,2.848-3.135,2.848S864.357,166.203,864.357,164.475z"/>
		<path style="fill:#FFFFFF;" d="M886.98,169.275c2.496,0,4.607,0.896,5.951,2.144l-2.176,2.912
			c-1.215-0.864-2.336-1.248-3.52-1.248c-2.719,0-4.607,1.76-4.607,4.512c0,2.752,1.824,4.512,4.447,4.512
			c1.664,0,3.072-0.704,4.193-1.504l1.92,2.976c-1.92,1.6-4.385,2.335-6.561,2.335c-4.992,0-8.832-3.04-8.832-8.319
			C877.797,172.315,882.086,169.275,886.98,169.275z"/>
		<path style="fill:#FFFFFF;" d="M907.268,175.323c-0.16-1.44-1.248-2.304-3.391-2.304c-1.537,0-3.041,0.576-4.832,1.472
			l-1.664-3.072c2.176-1.248,4.703-2.144,7.424-2.144c4.447,0,7.168,2.304,7.168,7.167v9.087h-3.84l-0.354-1.792h-0.127
			c-1.6,1.216-3.584,2.176-5.631,2.176c-3.201,0-5.217-2.112-5.217-4.799C896.805,177.563,899.748,175.771,907.268,175.323z
			 M903.523,182.266c1.408,0,2.625-0.64,3.744-1.504v-2.624c-4.672,0.256-5.951,1.248-5.951,2.624
			C901.316,181.786,902.18,182.266,903.523,182.266z"/>
		<path style="fill:#FFFFFF;" d="M919.619,173.339h-3.967v-3.488l4.191-0.192l0.607-4.224h3.873v4.224h6.688v3.68h-6.688v5.567
			c0,2.4,1.023,3.328,3.326,3.328c1.217,0,2.273-0.256,3.201-0.576l0.832,3.392c-1.408,0.416-3.168,0.864-5.217,0.864
			c-5.055,0-6.848-2.815-6.848-6.975V173.339z"/>
		<path style="fill:#FFFFFF;" d="M943.268,169.275c4.895,0,7.455,3.296,7.455,7.616c0,0.832-0.129,1.6-0.193,1.983h-10.686
			c0.447,2.4,2.271,3.456,4.607,3.456c1.439,0,2.688-0.384,4.096-1.088l1.535,2.816c-1.791,1.152-4.16,1.855-6.271,1.855
			c-4.928,0-8.799-3.072-8.799-8.319C935.012,172.411,939.043,169.275,943.268,169.275z M946.467,175.962
			c0-1.824-0.961-3.104-3.104-3.104c-1.697,0-3.201,0.992-3.584,3.104H946.467z"/>
		<path style="fill:#FFFFFF;" d="M956.482,189.178c3.809-3.712,5.439-7.488,5.439-12.543s-1.631-8.831-5.439-12.543l2.623-2.08
			c4.16,3.68,6.752,8.607,6.752,14.623s-2.592,10.943-6.752,14.623L956.482,189.178z"/>
		<path style="fill:#FFFFFF;" d="M54.404,227.674c1.568,1.28,3.52,2.176,5.343,2.176c2.176,0,3.136-0.768,3.136-2.016
			c0-1.312-1.216-1.728-3.231-2.496l-2.688-1.152c-2.336-0.864-4.448-2.656-4.448-5.696c0-3.456,3.136-6.208,7.647-6.208
			c2.528,0,5.056,0.96,6.944,2.752l-2.4,2.976c-1.44-1.056-2.752-1.664-4.544-1.664c-1.824,0-2.879,0.704-2.879,1.888
			c0,1.28,1.408,1.728,3.423,2.464l2.528,1.088c2.752,1.024,4.48,2.72,4.48,5.664c0,3.456-2.912,6.463-8.096,6.463
			c-2.815,0-5.695-1.024-7.935-3.008L54.404,227.674z"/>
		<path style="fill:#FFFFFF;" d="M74.852,221.339h-3.967v-3.488l4.191-0.192l0.608-4.224h3.872v4.224h6.688v3.68h-6.688v5.567
			c0,2.4,1.024,3.328,3.328,3.328c1.216,0,2.271-0.256,3.2-0.576l0.832,3.392c-1.408,0.416-3.168,0.864-5.216,0.864
			c-5.056,0-6.848-2.815-6.848-6.975V221.339z"/>
		<path style="fill:#FFFFFF;" d="M92.196,217.659h3.839l0.384,3.456h0.096c1.568-2.592,3.904-3.84,6.432-3.84
			c1.408,0,2.144,0.224,3.072,0.64l-0.96,3.936c-0.992-0.288-1.632-0.448-2.816-0.448c-1.952,0-4,1.024-5.343,3.872v8.255h-4.704
			V217.659z"/>
		<path style="fill:#FFFFFF;" d="M117.699,217.275c4.896,0,7.456,3.296,7.456,7.616c0,0.832-0.128,1.6-0.192,1.983h-10.688
			c0.448,2.4,2.272,3.456,4.608,3.456c1.44,0,2.688-0.384,4.096-1.088l1.536,2.816c-1.792,1.152-4.16,1.855-6.271,1.855
			c-4.928,0-8.799-3.072-8.799-8.319C109.443,220.411,113.475,217.275,117.699,217.275z M120.898,223.962
			c0-1.824-0.96-3.104-3.104-3.104c-1.696,0-3.2,0.992-3.584,3.104H120.898z"/>
		<path style="fill:#FFFFFF;" d="M139.298,223.323c-0.16-1.44-1.248-2.304-3.392-2.304c-1.536,0-3.04,0.576-4.832,1.472
			l-1.664-3.072c2.176-1.248,4.704-2.144,7.423-2.144c4.448,0,7.167,2.304,7.167,7.167v9.087h-3.84l-0.352-1.792h-0.128
			c-1.6,1.216-3.583,2.176-5.631,2.176c-3.2,0-5.216-2.112-5.216-4.799C128.835,225.563,131.779,223.771,139.298,223.323z
			 M135.555,230.266c1.408,0,2.624-0.64,3.744-1.504v-2.624c-4.671,0.256-5.952,1.248-5.952,2.624
			C133.347,229.786,134.211,230.266,135.555,230.266z"/>
		<path style="fill:#FFFFFF;" d="M147.235,217.659h3.52l0.352,1.983h0.128c0.608-1.312,1.568-2.368,3.392-2.368
			c1.408,0,2.4,0.896,2.784,2.592c0.576-1.44,1.696-2.592,3.488-2.592c2.208,0,3.52,1.952,3.52,5.12v11.135h-4.415v-10.783
			c0-0.992-0.257-1.472-0.896-1.472c-0.608,0-1.056,0.512-1.472,1.536v10.719h-3.616v-10.783c0-0.992-0.32-1.472-0.928-1.472
			s-0.992,0.512-1.44,1.536v10.719h-4.416V217.659z"/>
		<path style="fill:#FFFFFF;" d="M168.995,221.915l12.351-8v4.256l-8.479,5.312v0.128l8.479,5.312v4.256l-12.351-8V221.915z"/>
		<path style="fill:#FFFFFF;" d="M191.713,216.635h-6.239v-3.967h17.215v3.967h-6.24v16.895h-4.735V216.635z"/>
		<path style="fill:#FFFFFF;" d="M219.168,225.178l-12.352,8v-4.256l8.479-5.312v-0.128l-8.479-5.312v-4.256l12.352,8V225.178z"/>
		<path style="fill:#FFFFFF;" d="M245.887,228.538c1.824,1.152,3.647,1.888,5.76,1.888c2.144,0,3.04-0.512,3.04-1.344
			c0-0.96-1.696-1.504-4.256-2.208c-2.784-0.768-5.664-2.112-5.664-4.64c0-2.943,2.784-4.959,7.328-4.959
			c2.815,0,5.184,1.12,6.847,2.176l-2.111,2.816c-1.44-0.864-2.976-1.504-4.64-1.504c-1.984,0-2.752,0.448-2.752,1.248
			c0,0.96,1.824,1.44,4.063,2.016c3.136,0.832,5.855,2.016,5.855,4.768c0,2.88-2.72,5.12-7.807,5.12
			c-2.849,0-5.76-1.088-7.775-2.432L245.887,228.538z"/>
		<path style="fill:#FFFFFF;" d="M270.878,217.275c4.191,0,8.095,3.04,8.095,8.319c0,5.28-3.903,8.319-8.095,8.319
			c-4.192,0-8.096-3.04-8.096-8.319C262.783,220.315,266.686,217.275,270.878,217.275z M270.878,230.106
			c2.176,0,3.264-1.76,3.264-4.512c0-2.751-1.088-4.512-3.264-4.512s-3.264,1.76-3.264,4.512
			C267.615,228.346,268.703,230.106,270.878,230.106z"/>
		<path style="fill:#FFFFFF;" d="M284.19,217.659h3.84l0.384,3.456h0.096c1.568-2.592,3.904-3.84,6.432-3.84
			c1.408,0,2.144,0.224,3.072,0.64l-0.96,3.936c-0.992-0.288-1.632-0.448-2.816-0.448c-1.951,0-3.999,1.024-5.344,3.872v8.255
			h-4.703V217.659z"/>
		<path style="fill:#FFFFFF;" d="M305.245,221.339h-3.968v-3.488l4.192-0.192l0.607-4.224h3.872v4.224h6.688v3.68h-6.688v5.567
			c0,2.4,1.023,3.328,3.327,3.328c1.216,0,2.272-0.256,3.2-0.576l0.832,3.392c-1.408,0.416-3.168,0.864-5.216,0.864
			c-5.056,0-6.848-2.815-6.848-6.975V221.339z"/>
		<path style="fill:#FFFFFF;" d="M328.892,217.275c4.896,0,7.455,3.296,7.455,7.616c0,0.832-0.128,1.6-0.192,1.983h-10.687
			c0.447,2.4,2.271,3.456,4.607,3.456c1.439,0,2.688-0.384,4.096-1.088l1.536,2.816c-1.792,1.152-4.16,1.855-6.271,1.855
			c-4.928,0-8.8-3.072-8.8-8.319C320.636,220.411,324.668,217.275,328.892,217.275z M332.091,223.962
			c0-1.824-0.96-3.104-3.104-3.104c-1.696,0-3.2,0.992-3.584,3.104H332.091z"/>
		<path style="fill:#FFFFFF;" d="M346.363,217.275c1.824,0,2.944,0.672,4.064,1.696l-0.16-2.464V211.1h4.703v22.43h-3.84
			l-0.352-1.632h-0.096c-1.185,1.152-2.816,2.016-4.416,2.016c-4.031,0-6.688-3.136-6.688-8.319S342.908,217.275,346.363,217.275z
			 M347.483,230.074c1.056,0,1.952-0.416,2.784-1.472v-6.432c-0.864-0.768-1.729-1.056-2.656-1.056
			c-1.728,0-3.199,1.408-3.199,4.416C344.412,228.666,345.531,230.074,347.483,230.074z"/>
		<path style="fill:#FFFFFF;" d="M363.067,224.634c0-6.016,2.592-10.943,6.751-14.623l2.624,2.08
			c-3.808,3.712-5.439,7.487-5.439,12.543s1.632,8.832,5.439,12.543l-2.624,2.08C365.659,235.578,363.067,230.65,363.067,224.634z"
			/>
		<path style="fill:#FFFFFF;" d="M388.185,212.283c2.656,0,4.768,1.28,6.176,2.656l-2.592,2.912
			c-0.992-0.896-2.08-1.504-3.584-1.504c-2.943,0-5.119,2.528-5.119,6.719c0,4.288,2.176,6.784,5.312,6.784
			c1.504,0,2.688-0.736,3.712-1.856l2.592,2.848c-1.729,2.016-3.968,3.072-6.592,3.072c-5.376,0-9.855-3.68-9.855-10.687
			C378.234,216.315,382.618,212.283,388.185,212.283z"/>
		<path style="fill:#FFFFFF;" d="M405.273,217.275c4.191,0,8.095,3.04,8.095,8.319c0,5.28-3.903,8.319-8.095,8.319
			c-4.192,0-8.096-3.04-8.096-8.319C397.177,220.315,401.081,217.275,405.273,217.275z M405.273,230.106
			c2.176,0,3.264-1.76,3.264-4.512c0-2.751-1.088-4.512-3.264-4.512s-3.264,1.76-3.264,4.512
			C402.009,228.346,403.097,230.106,405.273,230.106z"/>
		<path style="fill:#FFFFFF;" d="M416.025,217.659h3.52l0.352,1.983h0.128c0.608-1.312,1.568-2.368,3.392-2.368
			c1.408,0,2.4,0.896,2.784,2.592c0.576-1.44,1.696-2.592,3.487-2.592c2.208,0,3.521,1.952,3.521,5.12v11.135h-4.416v-10.783
			c0-0.992-0.256-1.472-0.896-1.472c-0.608,0-1.057,0.512-1.473,1.536v10.719h-3.615v-10.783c0-0.992-0.32-1.472-0.928-1.472
			c-0.608,0-0.992,0.512-1.44,1.536v10.719h-4.415V217.659z"/>
		<path style="fill:#FFFFFF;" d="M441.08,234.778v4.64h-4.704v-21.758h3.84l0.352,1.6h0.097c1.279-1.152,3.039-1.984,4.735-1.984
			c3.968,0,6.367,3.168,6.367,8.063c0,5.439-3.327,8.575-6.879,8.575c-1.408,0-2.816-0.608-3.968-1.728L441.08,234.778z
			 M443.799,230.074c1.76,0,3.136-1.408,3.136-4.672c0-2.848-0.928-4.288-2.912-4.288c-1.023,0-1.952,0.448-2.943,1.472v6.432
			C441.975,229.786,443,230.074,443.799,230.074z"/>
		<path style="fill:#FFFFFF;" d="M465.686,223.323c-0.16-1.44-1.248-2.304-3.392-2.304c-1.536,0-3.04,0.576-4.832,1.472
			l-1.664-3.072c2.177-1.248,4.704-2.144,7.424-2.144c4.448,0,7.168,2.304,7.168,7.167v9.087h-3.84l-0.353-1.792h-0.128
			c-1.6,1.216-3.584,2.176-5.631,2.176c-3.2,0-5.216-2.112-5.216-4.799C455.223,225.563,458.167,223.771,465.686,223.323z
			 M461.942,230.266c1.408,0,2.624-0.64,3.744-1.504v-2.624c-4.672,0.256-5.951,1.248-5.951,2.624
			C459.735,229.786,460.598,230.266,461.942,230.266z"/>
		<path style="fill:#FFFFFF;" d="M476.182,217.659h3.84l0.384,3.456h0.096c1.568-2.592,3.904-3.84,6.432-3.84
			c1.408,0,2.144,0.224,3.072,0.64l-0.96,3.936c-0.992-0.288-1.632-0.448-2.816-0.448c-1.951,0-3.999,1.024-5.344,3.872v8.255
			h-4.703V217.659z"/>
		<path style="fill:#FFFFFF;" d="M504.084,223.323c-0.16-1.44-1.248-2.304-3.392-2.304c-1.536,0-3.04,0.576-4.832,1.472
			l-1.664-3.072c2.177-1.248,4.704-2.144,7.424-2.144c4.448,0,7.168,2.304,7.168,7.167v9.087h-3.84l-0.353-1.792h-0.128
			c-1.6,1.216-3.584,2.176-5.631,2.176c-3.2,0-5.216-2.112-5.216-4.799C493.622,225.563,496.565,223.771,504.084,223.323z
			 M500.34,230.266c1.408,0,2.624-0.64,3.744-1.504v-2.624c-4.672,0.256-5.951,1.248-5.951,2.624
			C498.133,229.786,498.997,230.266,500.34,230.266z"/>
		<path style="fill:#FFFFFF;" d="M516.436,221.339h-3.967v-3.488l4.192-0.192l0.607-4.224h3.873v4.224h6.688v3.68h-6.688v5.567
			c0,2.4,1.023,3.328,3.326,3.328c1.217,0,2.273-0.256,3.201-0.576l0.832,3.392c-1.408,0.416-3.168,0.864-5.217,0.864
			c-5.055,0-6.848-2.815-6.848-6.975V221.339z"/>
		<path style="fill:#FFFFFF;" d="M539.668,217.275c4.191,0,8.094,3.04,8.094,8.319c0,5.28-3.902,8.319-8.094,8.319
			c-4.193,0-8.096-3.04-8.096-8.319C531.572,220.315,535.475,217.275,539.668,217.275z M539.668,230.106
			c2.176,0,3.264-1.76,3.264-4.512c0-2.751-1.088-4.512-3.264-4.512s-3.264,1.76-3.264,4.512
			C536.404,228.346,537.492,230.106,539.668,230.106z"/>
		<path style="fill:#FFFFFF;" d="M552.979,217.659h3.84l0.385,3.456h0.096c1.568-2.592,3.904-3.84,6.432-3.84
			c1.408,0,2.143,0.224,3.072,0.64l-0.961,3.936c-0.992-0.288-1.631-0.448-2.816-0.448c-1.951,0-3.998,1.024-5.344,3.872v8.255
			h-4.703V217.659z"/>
		<path style="fill:#FFFFFF;" d="M572.178,221.915l12.352-8v4.256l-8.48,5.312v0.128l8.48,5.312v4.256l-12.352-8V221.915z"/>
		<path style="fill:#FFFFFF;" d="M599.057,217.531c0-1.344-1.023-2.016-2.367-2.016c-1.313,0-2.305,0.608-3.264,1.472l-2.625-2.4
			c1.537-1.696,3.68-2.879,6.209-2.879c3.68,0,6.559,1.696,6.559,5.215c0,4.192-5.215,4.736-4.832,8.448h-4.096
			C593.938,221.083,599.057,219.899,599.057,217.531z M596.816,227.45c1.824,0,3.201,1.312,3.201,3.2
			c0,1.92-1.377,3.264-3.201,3.264s-3.199-1.344-3.199-3.264C593.617,228.762,594.992,227.45,596.816,227.45z"/>
		<path style="fill:#FFFFFF;" d="M629.871,228.538c1.824,1.152,3.648,1.888,5.76,1.888c2.145,0,3.041-0.512,3.041-1.344
			c0-0.96-1.697-1.504-4.256-2.208c-2.785-0.768-5.664-2.112-5.664-4.64c0-2.943,2.783-4.959,7.328-4.959
			c2.814,0,5.184,1.12,6.846,2.176l-2.111,2.816c-1.439-0.864-2.975-1.504-4.639-1.504c-1.984,0-2.752,0.448-2.752,1.248
			c0,0.96,1.824,1.44,4.063,2.016c3.137,0.832,5.855,2.016,5.855,4.768c0,2.88-2.719,5.12-7.807,5.12
			c-2.848,0-5.76-1.088-7.775-2.432L629.871,228.538z"/>
		<path style="fill:#FFFFFF;" d="M662.063,233.53h-3.84l-0.352-2.272h-0.129c-1.408,1.6-3.072,2.656-5.344,2.656
			c-3.615,0-5.152-2.464-5.152-6.463v-9.791h4.705v9.183c0,2.112,0.543,3.072,2.303,3.072c1.184,0,2.016-0.416,3.104-1.824v-10.431
			h4.705V233.53z"/>
		<path style="fill:#FFFFFF;" d="M671.471,234.778v4.64h-4.705v-21.758h3.84l0.352,1.6h0.098c1.279-1.152,3.039-1.984,4.734-1.984
			c3.969,0,6.367,3.168,6.367,8.063c0,5.439-3.326,8.575-6.879,8.575c-1.408,0-2.816-0.608-3.967-1.728L671.471,234.778z
			 M674.189,230.074c1.76,0,3.137-1.408,3.137-4.672c0-2.848-0.928-4.288-2.912-4.288c-1.023,0-1.953,0.448-2.943,1.472v6.432
			C672.365,229.786,673.391,230.074,674.189,230.074z"/>
		<path style="fill:#FFFFFF;" d="M693.678,217.275c4.895,0,7.455,3.296,7.455,7.616c0,0.832-0.129,1.6-0.193,1.983h-10.686
			c0.447,2.4,2.271,3.456,4.607,3.456c1.439,0,2.688-0.384,4.096-1.088l1.535,2.816c-1.791,1.152-4.16,1.855-6.271,1.855
			c-4.928,0-8.799-3.072-8.799-8.319C685.422,220.411,689.453,217.275,693.678,217.275z M696.877,223.962
			c0-1.824-0.961-3.104-3.104-3.104c-1.697,0-3.201,0.992-3.584,3.104H696.877z"/>
		<path style="fill:#FFFFFF;" d="M706.572,217.659h3.84l0.385,3.456h0.096c1.568-2.592,3.904-3.84,6.432-3.84
			c1.408,0,2.143,0.224,3.072,0.64l-0.961,3.936c-0.992-0.288-1.631-0.448-2.816-0.448c-1.951,0-3.998,1.024-5.344,3.872v8.255
			h-4.703V217.659z"/>
		<path style="fill:#FFFFFF;" d="M748.49,216.635h-6.238v-3.967h17.215v3.967h-6.24v16.895h-4.736V216.635z"/>
		<path style="fill:#FFFFFF;" d="M775.945,225.178l-12.352,8v-4.256l8.48-5.312v-0.128l-8.48-5.312v-4.256l12.352,8V225.178z"/>
		<path style="fill:#FFFFFF;" d="M810.184,217.275c2.496,0,4.607,0.896,5.951,2.144l-2.176,2.912
			c-1.215-0.864-2.336-1.248-3.52-1.248c-2.719,0-4.607,1.76-4.607,4.512c0,2.752,1.824,4.512,4.447,4.512
			c1.664,0,3.072-0.704,4.193-1.504l1.92,2.976c-1.92,1.6-4.385,2.335-6.561,2.335c-4.992,0-8.832-3.04-8.832-8.319
			C801,220.315,805.289,217.275,810.184,217.275z"/>
		<path style="fill:#FFFFFF;" d="M827.656,217.275c4.191,0,8.094,3.04,8.094,8.319c0,5.28-3.902,8.319-8.094,8.319
			c-4.193,0-8.096-3.04-8.096-8.319C819.561,220.315,823.463,217.275,827.656,217.275z M827.656,230.106
			c2.176,0,3.264-1.76,3.264-4.512c0-2.751-1.088-4.512-3.264-4.512s-3.264,1.76-3.264,4.512
			C824.393,228.346,825.48,230.106,827.656,230.106z"/>
		<path style="fill:#FFFFFF;" d="M838.408,217.659h3.52l0.352,1.983h0.127c0.609-1.312,1.568-2.368,3.393-2.368
			c1.408,0,2.4,0.896,2.783,2.592c0.576-1.44,1.697-2.592,3.488-2.592c2.207,0,3.52,1.952,3.52,5.12v11.135h-4.416v-10.783
			c0-0.992-0.256-1.472-0.895-1.472c-0.609,0-1.057,0.512-1.473,1.536v10.719h-3.615v-10.783c0-0.992-0.32-1.472-0.928-1.472
			c-0.609,0-0.992,0.512-1.441,1.536v10.719h-4.414V217.659z"/>
		<path style="fill:#FFFFFF;" d="M863.463,234.778v4.64h-4.705v-21.758h3.84l0.352,1.6h0.098c1.279-1.152,3.039-1.984,4.734-1.984
			c3.969,0,6.367,3.168,6.367,8.063c0,5.439-3.326,8.575-6.879,8.575c-1.408,0-2.816-0.608-3.967-1.728L863.463,234.778z
			 M866.182,230.074c1.76,0,3.137-1.408,3.137-4.672c0-2.848-0.928-4.288-2.912-4.288c-1.023,0-1.953,0.448-2.943,1.472v6.432
			C864.357,229.786,865.383,230.074,866.182,230.074z"/>
		<path style="fill:#FFFFFF;" d="M879.686,237.178c3.809-3.712,5.439-7.488,5.439-12.543s-1.631-8.831-5.439-12.543l2.623-2.08
			c4.16,3.68,6.752,8.607,6.752,14.623s-2.592,10.943-6.752,14.623L879.686,237.178z"/>
		<path style="fill:#FFFFFF;" d="M54.404,275.674c1.568,1.28,3.52,2.176,5.343,2.176c2.176,0,3.136-0.768,3.136-2.016
			c0-1.312-1.216-1.728-3.231-2.496l-2.688-1.152c-2.336-0.864-4.448-2.656-4.448-5.696c0-3.456,3.136-6.208,7.647-6.208
			c2.528,0,5.056,0.96,6.944,2.752l-2.4,2.976c-1.44-1.056-2.752-1.664-4.544-1.664c-1.824,0-2.879,0.704-2.879,1.888
			c0,1.28,1.408,1.728,3.423,2.464l2.528,1.088c2.752,1.024,4.48,2.72,4.48,5.664c0,3.456-2.912,6.463-8.096,6.463
			c-2.815,0-5.695-1.024-7.935-3.008L54.404,275.674z"/>
		<path style="fill:#FFFFFF;" d="M74.852,269.339h-3.967v-3.488l4.191-0.192l0.608-4.224h3.872v4.224h6.688v3.68h-6.688v5.567
			c0,2.4,1.024,3.328,3.328,3.328c1.216,0,2.271-0.256,3.2-0.576l0.832,3.392c-1.408,0.416-3.168,0.864-5.216,0.864
			c-5.056,0-6.848-2.815-6.848-6.975V269.339z"/>
		<path style="fill:#FFFFFF;" d="M92.196,265.659h3.839l0.384,3.456h0.096c1.568-2.592,3.904-3.84,6.432-3.84
			c1.408,0,2.144,0.224,3.072,0.64l-0.96,3.936c-0.992-0.288-1.632-0.448-2.816-0.448c-1.952,0-4,1.024-5.343,3.872v8.255h-4.704
			V265.659z"/>
		<path style="fill:#FFFFFF;" d="M117.699,265.275c4.896,0,7.456,3.296,7.456,7.616c0,0.832-0.128,1.6-0.192,1.983h-10.688
			c0.448,2.4,2.272,3.456,4.608,3.456c1.44,0,2.688-0.384,4.096-1.088l1.536,2.816c-1.792,1.152-4.16,1.855-6.271,1.855
			c-4.928,0-8.799-3.072-8.799-8.319C109.443,268.411,113.475,265.275,117.699,265.275z M120.898,271.962
			c0-1.824-0.96-3.104-3.104-3.104c-1.696,0-3.2,0.992-3.584,3.104H120.898z"/>
		<path style="fill:#FFFFFF;" d="M139.298,271.323c-0.16-1.44-1.248-2.304-3.392-2.304c-1.536,0-3.04,0.576-4.832,1.472
			l-1.664-3.072c2.176-1.248,4.704-2.144,7.423-2.144c4.448,0,7.167,2.304,7.167,7.167v9.087h-3.84l-0.352-1.792h-0.128
			c-1.6,1.216-3.583,2.176-5.631,2.176c-3.2,0-5.216-2.112-5.216-4.799C128.835,273.563,131.779,271.771,139.298,271.323z
			 M135.555,278.266c1.408,0,2.624-0.64,3.744-1.504v-2.624c-4.671,0.256-5.952,1.248-5.952,2.624
			C133.347,277.786,134.211,278.266,135.555,278.266z"/>
		<path style="fill:#FFFFFF;" d="M147.235,265.659h3.52l0.352,1.983h0.128c0.608-1.312,1.568-2.368,3.392-2.368
			c1.408,0,2.4,0.896,2.784,2.592c0.576-1.44,1.696-2.592,3.488-2.592c2.208,0,3.52,1.952,3.52,5.12v11.135h-4.415v-10.783
			c0-0.992-0.257-1.472-0.896-1.472c-0.608,0-1.056,0.512-1.472,1.536v10.719h-3.616v-10.783c0-0.992-0.32-1.472-0.928-1.472
			s-0.992,0.512-1.44,1.536v10.719h-4.416V265.659z"/>
		<path style="fill:#FFFFFF;" d="M168.995,269.915l12.351-8v4.256l-8.479,5.312v0.128l8.479,5.312v4.256l-12.351-8V269.915z"/>
		<path style="fill:#FFFFFF;" d="M186.53,260.667h4.704v13.311c0,2.496,0.928,3.872,2.911,3.872c1.984,0,2.944-1.376,2.944-3.872
			v-13.311h4.543v12.831c0,5.407-2.432,8.415-7.487,8.415c-5.088,0-7.615-3.008-7.615-8.415V260.667z"/>
		<path style="fill:#FFFFFF;" d="M219.168,273.178l-12.352,8v-4.256l8.479-5.312v-0.128l-8.479-5.312v-4.256l12.352,8V273.178z"/>
		<path style="fill:#FFFFFF;" d="M243.232,265.659h3.52l0.352,1.983h0.128c0.608-1.312,1.568-2.368,3.392-2.368
			c1.408,0,2.4,0.896,2.784,2.592c0.576-1.44,1.696-2.592,3.487-2.592c2.208,0,3.521,1.952,3.521,5.12v11.135h-4.416v-10.783
			c0-0.992-0.256-1.472-0.896-1.472c-0.608,0-1.057,0.512-1.473,1.536v10.719h-3.615v-10.783c0-0.992-0.32-1.472-0.928-1.472
			c-0.608,0-0.992,0.512-1.44,1.536v10.719h-4.415V265.659z"/>
		<path style="fill:#FFFFFF;" d="M273.694,271.323c-0.16-1.44-1.248-2.304-3.392-2.304c-1.536,0-3.04,0.576-4.832,1.472
			l-1.664-3.072c2.177-1.248,4.704-2.144,7.424-2.144c4.448,0,7.168,2.304,7.168,7.167v9.087h-3.84l-0.353-1.792h-0.128
			c-1.6,1.216-3.584,2.176-5.631,2.176c-3.2,0-5.216-2.112-5.216-4.799C263.231,273.563,266.174,271.771,273.694,271.323z
			 M269.95,278.266c1.408,0,2.624-0.64,3.744-1.504v-2.624c-4.672,0.256-5.951,1.248-5.951,2.624
			C267.743,277.786,268.606,278.266,269.95,278.266z"/>
		<path style="fill:#FFFFFF;" d="M287.486,282.778v4.64h-4.704v-21.758h3.84l0.352,1.6h0.097c1.279-1.152,3.039-1.984,4.735-1.984
			c3.968,0,6.367,3.168,6.367,8.063c0,5.439-3.327,8.575-6.879,8.575c-1.408,0-2.816-0.608-3.968-1.728L287.486,282.778z
			 M290.206,278.074c1.76,0,3.136-1.408,3.136-4.672c0-2.848-0.928-4.288-2.912-4.288c-1.023,0-1.952,0.448-2.943,1.472v6.432
			C288.381,277.786,289.406,278.074,290.206,278.074z"/>
		<path style="fill:#FFFFFF;" d="M305.469,272.634c0-6.016,2.592-10.943,6.751-14.623l2.624,2.08
			c-3.808,3.712-5.439,7.487-5.439,12.543s1.632,8.832,5.439,12.543l-2.624,2.08C308.061,283.578,305.469,278.65,305.469,272.634z"
			/>
		<path style="fill:#FFFFFF;" d="M320.957,260.667h4.703l2.112,7.391l0.704,2.88h0.096l0.704-2.88l2.016-7.391h4.704v20.862h-3.809
			v-6.815c0-2.272,0.385-7.2,0.608-9.439H332.7l-1.632,5.728l-1.601,4.96h-2.079l-1.601-4.96l-1.567-5.728h-0.128
			c0.224,2.24,0.607,7.167,0.607,9.439v6.815h-3.743V260.667z"/>
		<path style="fill:#FFFFFF;" d="M350.491,271.323c-0.16-1.44-1.248-2.304-3.392-2.304c-1.536,0-3.04,0.576-4.832,1.472
			l-1.664-3.072c2.177-1.248,4.704-2.144,7.424-2.144c4.448,0,7.168,2.304,7.168,7.167v9.087h-3.84l-0.353-1.792h-0.128
			c-1.6,1.216-3.584,2.176-5.631,2.176c-3.2,0-5.216-2.112-5.216-4.799C340.028,273.563,342.971,271.771,350.491,271.323z
			 M346.747,278.266c1.408,0,2.624-0.64,3.744-1.504v-2.624c-4.672,0.256-5.951,1.248-5.951,2.624
			C344.54,277.786,345.403,278.266,346.747,278.266z"/>
		<path style="fill:#FFFFFF;" d="M364.283,282.778v4.64h-4.704v-21.758h3.84l0.352,1.6h0.097c1.279-1.152,3.039-1.984,4.735-1.984
			c3.968,0,6.367,3.168,6.367,8.063c0,5.439-3.327,8.575-6.879,8.575c-1.408,0-2.816-0.608-3.968-1.728L364.283,282.778z
			 M367.002,278.074c1.76,0,3.136-1.408,3.136-4.672c0-2.848-0.928-4.288-2.912-4.288c-1.023,0-1.952,0.448-2.943,1.472v6.432
			C365.178,277.786,366.203,278.074,367.002,278.074z"/>
		<path style="fill:#FFFFFF;" d="M383.482,282.778v4.64h-4.704v-21.758h3.84l0.352,1.6h0.097c1.279-1.152,3.039-1.984,4.735-1.984
			c3.968,0,6.367,3.168,6.367,8.063c0,5.439-3.327,8.575-6.879,8.575c-1.408,0-2.816-0.608-3.968-1.728L383.482,282.778z
			 M386.202,278.074c1.76,0,3.136-1.408,3.136-4.672c0-2.848-0.928-4.288-2.912-4.288c-1.023,0-1.952,0.448-2.943,1.472v6.432
			C384.377,277.786,385.402,278.074,386.202,278.074z"/>
		<path style="fill:#FFFFFF;" d="M405.689,265.275c4.896,0,7.455,3.296,7.455,7.616c0,0.832-0.128,1.6-0.192,1.983h-10.687
			c0.447,2.4,2.271,3.456,4.607,3.456c1.439,0,2.688-0.384,4.096-1.088l1.536,2.816c-1.792,1.152-4.16,1.855-6.271,1.855
			c-4.928,0-8.8-3.072-8.8-8.319C397.433,268.411,401.465,265.275,405.689,265.275z M408.888,271.962
			c0-1.824-0.96-3.104-3.104-3.104c-1.696,0-3.2,0.992-3.584,3.104H408.888z"/>
		<path style="fill:#FFFFFF;" d="M418.584,265.659h3.84l0.384,3.456h0.096c1.568-2.592,3.904-3.84,6.432-3.84
			c1.408,0,2.144,0.224,3.072,0.64l-0.96,3.936c-0.992-0.288-1.632-0.448-2.816-0.448c-1.951,0-3.999,1.024-5.344,3.872v8.255
			h-4.703V265.659z"/>
		<path style="fill:#FFFFFF;" d="M437.784,269.915l12.351-8v4.256l-8.479,5.312v0.128l8.479,5.312v4.256l-12.351-8V269.915z"/>
		<path style="fill:#FFFFFF;" d="M464.663,265.531c0-1.344-1.024-2.016-2.368-2.016c-1.312,0-2.304,0.608-3.264,1.472l-2.624-2.4
			c1.536-1.696,3.68-2.879,6.208-2.879c3.68,0,6.56,1.696,6.56,5.215c0,4.192-5.216,4.736-4.832,8.448h-4.096
			C459.542,269.083,464.663,267.899,464.663,265.531z M462.422,275.45c1.824,0,3.2,1.312,3.2,3.2c0,1.92-1.376,3.264-3.2,3.264
			s-3.2-1.344-3.2-3.264C459.222,276.762,460.598,275.45,462.422,275.45z"/>
		<path style="fill:#FFFFFF;" d="M495.477,276.538c1.824,1.152,3.647,1.888,5.76,1.888c2.144,0,3.04-0.512,3.04-1.344
			c0-0.96-1.696-1.504-4.256-2.208c-2.784-0.768-5.664-2.112-5.664-4.64c0-2.943,2.784-4.959,7.328-4.959
			c2.815,0,5.184,1.12,6.847,2.176l-2.111,2.816c-1.44-0.864-2.976-1.504-4.64-1.504c-1.984,0-2.752,0.448-2.752,1.248
			c0,0.96,1.824,1.44,4.063,2.016c3.136,0.832,5.855,2.016,5.855,4.768c0,2.88-2.72,5.12-7.807,5.12
			c-2.849,0-5.76-1.088-7.775-2.432L495.477,276.538z"/>
		<path style="fill:#FFFFFF;" d="M527.668,281.53h-3.84l-0.352-2.272h-0.129c-1.408,1.6-3.072,2.656-5.344,2.656
			c-3.615,0-5.152-2.464-5.152-6.463v-9.791h4.705v9.183c0,2.112,0.543,3.072,2.303,3.072c1.184,0,2.016-0.416,3.104-1.824v-10.431
			h4.705V281.53z"/>
		<path style="fill:#FFFFFF;" d="M537.076,282.778v4.64h-4.705v-21.758h3.84l0.352,1.6h0.098c1.279-1.152,3.039-1.984,4.734-1.984
			c3.969,0,6.367,3.168,6.367,8.063c0,5.439-3.326,8.575-6.879,8.575c-1.408,0-2.816-0.608-3.967-1.728L537.076,282.778z
			 M539.795,278.074c1.76,0,3.137-1.408,3.137-4.672c0-2.848-0.928-4.288-2.912-4.288c-1.023,0-1.953,0.448-2.943,1.472v6.432
			C537.971,277.786,538.996,278.074,539.795,278.074z"/>
		<path style="fill:#FFFFFF;" d="M559.283,265.275c4.895,0,7.455,3.296,7.455,7.616c0,0.832-0.129,1.6-0.193,1.983h-10.686
			c0.447,2.4,2.271,3.456,4.607,3.456c1.439,0,2.688-0.384,4.096-1.088l1.535,2.816c-1.791,1.152-4.16,1.855-6.271,1.855
			c-4.928,0-8.799-3.072-8.799-8.319C551.027,268.411,555.059,265.275,559.283,265.275z M562.482,271.962
			c0-1.824-0.961-3.104-3.104-3.104c-1.697,0-3.201,0.992-3.584,3.104H562.482z"/>
		<path style="fill:#FFFFFF;" d="M572.178,265.659h3.84l0.385,3.456h0.096c1.568-2.592,3.904-3.84,6.432-3.84
			c1.408,0,2.143,0.224,3.072,0.64l-0.961,3.936c-0.992-0.288-1.631-0.448-2.816-0.448c-1.951,0-3.998,1.024-5.344,3.872v8.255
			h-4.703V265.659z"/>
		<path style="fill:#FFFFFF;" d="M614.096,264.635h-6.238v-3.967h17.215v3.967h-6.24v16.895h-4.736V264.635z"/>
		<path style="fill:#FFFFFF;" d="M631.887,285.722c2.785-0.96,4.16-2.528,4.16-4.544c-0.127,0.032-0.223,0.032-0.352,0.032
			c-1.791,0-3.455-1.152-3.455-3.264c0-1.984,1.6-3.296,3.584-3.296c2.623,0,3.967,2.048,3.967,5.503
			c0,4.064-2.305,6.976-6.719,8.319L631.887,285.722z"/>
		<path style="fill:#FFFFFF;" d="M656.654,265.531c0-1.344-1.023-2.016-2.367-2.016c-1.313,0-2.305,0.608-3.264,1.472l-2.625-2.4
			c1.537-1.696,3.68-2.879,6.209-2.879c3.68,0,6.559,1.696,6.559,5.215c0,4.192-5.215,4.736-4.832,8.448h-4.096
			C651.535,269.083,656.654,267.899,656.654,265.531z M654.414,275.45c1.824,0,3.201,1.312,3.201,3.2
			c0,1.92-1.377,3.264-3.201,3.264s-3.199-1.344-3.199-3.264C651.215,276.762,652.59,275.45,654.414,275.45z"/>
		<path style="fill:#FFFFFF;" d="M693.678,265.275c4.895,0,7.455,3.296,7.455,7.616c0,0.832-0.129,1.6-0.193,1.983h-10.686
			c0.447,2.4,2.271,3.456,4.607,3.456c1.439,0,2.688-0.384,4.096-1.088l1.535,2.816c-1.791,1.152-4.16,1.855-6.271,1.855
			c-4.928,0-8.799-3.072-8.799-8.319C685.422,268.411,689.453,265.275,693.678,265.275z M696.877,271.962
			c0-1.824-0.961-3.104-3.104-3.104c-1.697,0-3.201,0.992-3.584,3.104H696.877z"/>
		<path style="fill:#FFFFFF;" d="M709.549,273.274l-5.152-7.615h5.057l1.631,2.56c0.48,0.896,1.121,1.824,1.664,2.72h0.129
			c0.416-0.896,0.895-1.856,1.311-2.72l1.408-2.56h4.928l-5.184,8.159l5.504,7.711h-5.057l-1.822-2.624
			c-0.576-0.896-1.248-1.855-1.824-2.751h-0.129c-0.48,0.896-0.992,1.824-1.471,2.751l-1.568,2.624h-4.928L709.549,273.274z"/>
		<path style="fill:#FFFFFF;" d="M727.627,269.339h-3.967v-3.488l4.191-0.192l0.607-4.224h3.873v4.224h6.688v3.68h-6.688v5.567
			c0,2.4,1.023,3.328,3.326,3.328c1.217,0,2.273-0.256,3.201-0.576l0.832,3.392c-1.408,0.416-3.168,0.864-5.217,0.864
			c-5.055,0-6.848-2.815-6.848-6.975V269.339z"/>
		<path style="fill:#FFFFFF;" d="M751.275,265.275c4.895,0,7.455,3.296,7.455,7.616c0,0.832-0.129,1.6-0.193,1.983h-10.686
			c0.447,2.4,2.271,3.456,4.607,3.456c1.439,0,2.688-0.384,4.096-1.088l1.535,2.816c-1.791,1.152-4.16,1.855-6.271,1.855
			c-4.928,0-8.799-3.072-8.799-8.319C743.02,268.411,747.051,265.275,751.275,265.275z M754.475,271.962
			c0-1.824-0.961-3.104-3.104-3.104c-1.697,0-3.201,0.992-3.584,3.104H754.475z"/>
		<path style="fill:#FFFFFF;" d="M762.762,265.659h3.84l0.352,2.112h0.129c1.375-1.344,3.104-2.496,5.471-2.496
			c3.584,0,5.184,2.464,5.184,6.463v9.792h-4.703v-9.183c0-2.112-0.607-3.072-2.336-3.072c-1.279,0-2.111,0.576-3.23,1.664v10.591
			h-4.705V265.659z"/>
		<path style="fill:#FFFFFF;" d="M787.945,265.275c1.824,0,2.943,0.672,4.064,1.696l-0.16-2.464V259.1h4.703v22.43h-3.84
			l-0.352-1.632h-0.096c-1.186,1.152-2.816,2.016-4.416,2.016c-4.031,0-6.688-3.136-6.688-8.319S784.49,265.275,787.945,265.275z
			 M789.064,278.074c1.057,0,1.953-0.416,2.785-1.472v-6.432c-0.865-0.768-1.729-1.056-2.656-1.056
			c-1.729,0-3.199,1.408-3.199,4.416C785.994,276.666,787.113,278.074,789.064,278.074z"/>
		<path style="fill:#FFFFFF;" d="M802.664,276.538c1.824,1.152,3.648,1.888,5.76,1.888c2.145,0,3.041-0.512,3.041-1.344
			c0-0.96-1.697-1.504-4.256-2.208c-2.785-0.768-5.664-2.112-5.664-4.64c0-2.943,2.783-4.959,7.328-4.959
			c2.814,0,5.184,1.12,6.846,2.176l-2.111,2.816c-1.439-0.864-2.975-1.504-4.639-1.504c-1.984,0-2.752,0.448-2.752,1.248
			c0,0.96,1.824,1.44,4.063,2.016c3.137,0.832,5.855,2.016,5.855,4.768c0,2.88-2.719,5.12-7.807,5.12
			c-2.848,0-5.76-1.088-7.775-2.432L802.664,276.538z"/>
		<path style="fill:#FFFFFF;" d="M839.303,260.667h4.705v13.311c0,2.496,0.928,3.872,2.91,3.872c1.984,0,2.945-1.376,2.945-3.872
			v-13.311h4.543v12.831c0,5.407-2.432,8.415-7.488,8.415c-5.088,0-7.615-3.008-7.615-8.415V260.667z"/>
		<path style="fill:#FFFFFF;" d="M871.941,273.178l-12.352,8v-4.256l8.48-5.312v-0.128l-8.48-5.312v-4.256l12.352,8V273.178z"/>
		<path style="fill:#FFFFFF;" d="M896.006,265.659h3.52l0.352,1.983h0.127c0.609-1.312,1.568-2.368,3.393-2.368
			c1.408,0,2.4,0.896,2.783,2.592c0.576-1.44,1.697-2.592,3.488-2.592c2.207,0,3.52,1.952,3.52,5.12v11.135h-4.416v-10.783
			c0-0.992-0.256-1.472-0.895-1.472c-0.609,0-1.057,0.512-1.473,1.536v10.719h-3.615v-10.783c0-0.992-0.32-1.472-0.928-1.472
			c-0.609,0-0.992,0.512-1.441,1.536v10.719h-4.414V265.659z"/>
		<path style="fill:#FFFFFF;" d="M918.084,285.178c3.809-3.712,5.439-7.488,5.439-12.543s-1.631-8.831-5.439-12.543l2.623-2.08
			c4.16,3.68,6.752,8.607,6.752,14.623s-2.592,10.943-6.752,14.623L918.084,285.178z"/>
		<path style="fill:#FFFFFF;" d="M57.316,312.635h-6.24v-3.967h17.215v3.967h-6.239v16.895h-4.736V312.635z"/>
		<path style="fill:#FFFFFF;" d="M92.196,313.659h3.839l0.384,3.456h0.096c1.568-2.592,3.904-3.84,6.432-3.84
			c1.408,0,2.144,0.224,3.072,0.64l-0.96,3.936c-0.992-0.288-1.632-0.448-2.816-0.448c-1.952,0-4,1.024-5.343,3.872v8.255h-4.704
			V313.659z"/>
		<path style="fill:#FFFFFF;" d="M117.699,313.275c4.896,0,7.456,3.296,7.456,7.616c0,0.832-0.128,1.6-0.192,1.983h-10.688
			c0.448,2.4,2.272,3.456,4.608,3.456c1.44,0,2.688-0.384,4.096-1.088l1.536,2.816c-1.792,1.152-4.16,1.855-6.271,1.855
			c-4.928,0-8.799-3.072-8.799-8.319C109.443,316.411,113.475,313.275,117.699,313.275z M120.898,319.962
			c0-1.824-0.96-3.104-3.104-3.104c-1.696,0-3.2,0.992-3.584,3.104H120.898z"/>
		<path style="fill:#FFFFFF;" d="M135.171,313.275c1.824,0,2.943,0.672,4.063,1.696l-0.16-2.464V307.1h4.704v22.43h-3.839
			l-0.352-1.632h-0.096c-1.184,1.152-2.815,2.016-4.416,2.016c-4.032,0-6.688-3.136-6.688-8.319S131.715,313.275,135.171,313.275z
			 M136.291,326.074c1.056,0,1.952-0.416,2.784-1.472v-6.432c-0.864-0.768-1.728-1.056-2.656-1.056c-1.728,0-3.2,1.408-3.2,4.416
			C133.219,324.666,134.339,326.074,136.291,326.074z"/>
		<path style="fill:#FFFFFF;" d="M162.881,329.53h-3.839l-0.352-2.272h-0.128c-1.408,1.6-3.072,2.656-5.344,2.656
			c-3.616,0-5.151-2.464-5.151-6.463v-9.791h4.704v9.183c0,2.112,0.544,3.072,2.304,3.072c1.184,0,2.016-0.416,3.104-1.824v-10.431
			h4.703V329.53z"/>
		<path style="fill:#FFFFFF;" d="M176.61,313.275c2.496,0,4.607,0.896,5.951,2.144l-2.176,2.912
			c-1.216-0.864-2.336-1.248-3.52-1.248c-2.72,0-4.607,1.76-4.607,4.512c0,2.752,1.824,4.512,4.447,4.512
			c1.664,0,3.072-0.704,4.192-1.504l1.92,2.976c-1.92,1.6-4.384,2.335-6.56,2.335c-4.992,0-8.832-3.04-8.832-8.319
			C167.426,316.315,171.714,313.275,176.61,313.275z"/>
		<path style="fill:#FFFFFF;" d="M194.498,313.275c4.896,0,7.455,3.296,7.455,7.616c0,0.832-0.128,1.6-0.192,1.983h-10.687
			c0.447,2.4,2.271,3.456,4.607,3.456c1.439,0,2.688-0.384,4.096-1.088l1.536,2.816c-1.792,1.152-4.16,1.855-6.271,1.855
			c-4.928,0-8.8-3.072-8.8-8.319C186.242,316.411,190.274,313.275,194.498,313.275z M197.697,319.962
			c0-1.824-0.96-3.104-3.104-3.104c-1.696,0-3.2,0.992-3.584,3.104H197.697z"/>
		<path style="fill:#FFFFFF;" d="M209.473,320.634c0-6.016,2.592-10.943,6.751-14.623l2.624,2.08
			c-3.808,3.712-5.439,7.487-5.439,12.543s1.632,8.832,5.439,12.543l-2.624,2.08C212.065,331.578,209.473,326.65,209.473,320.634z"
			/>
		<path style="fill:#FFFFFF;" d="M230.112,312.635h-6.239v-3.967h17.215v3.967h-6.24v16.895h-4.735V312.635z"/>
		<path style="fill:#FFFFFF;" d="M263.583,307.1h4.704v5.503l-0.128,2.496c1.247-1.152,2.88-1.824,4.415-1.824
			c3.968,0,6.399,3.168,6.399,8.031c0,5.472-3.327,8.607-6.879,8.607c-1.472,0-3.008-0.736-4.32-2.112h-0.128l-0.384,1.728h-3.68
			V307.1z M271.039,326.074c1.728,0,3.104-1.408,3.104-4.672c0-2.848-0.928-4.288-2.912-4.288c-1.023,0-1.952,0.448-2.943,1.472
			v6.432C269.182,325.786,270.207,326.074,271.039,326.074z"/>
		<path style="fill:#FFFFFF;" d="M292.893,319.323c-0.16-1.44-1.248-2.304-3.392-2.304c-1.536,0-3.04,0.576-4.832,1.472
			l-1.664-3.072c2.177-1.248,4.704-2.144,7.424-2.144c4.448,0,7.168,2.304,7.168,7.167v9.087h-3.84l-0.353-1.792h-0.128
			c-1.6,1.216-3.584,2.176-5.631,2.176c-3.2,0-5.216-2.112-5.216-4.799C282.43,321.563,285.374,319.771,292.893,319.323z
			 M289.149,326.266c1.408,0,2.624-0.64,3.744-1.504v-2.624c-4.672,0.256-5.951,1.248-5.951,2.624
			C286.942,325.786,287.805,326.266,289.149,326.266z"/>
		<path style="fill:#FFFFFF;" d="M303.485,324.538c1.824,1.152,3.647,1.888,5.76,1.888c2.144,0,3.04-0.512,3.04-1.344
			c0-0.96-1.696-1.504-4.256-2.208c-2.784-0.768-5.664-2.112-5.664-4.64c0-2.943,2.784-4.959,7.328-4.959
			c2.815,0,5.184,1.12,6.847,2.176l-2.111,2.816c-1.44-0.864-2.976-1.504-4.64-1.504c-1.984,0-2.752,0.448-2.752,1.248
			c0,0.96,1.824,1.44,4.063,2.016c3.136,0.832,5.855,2.016,5.855,4.768c0,2.88-2.72,5.12-7.807,5.12
			c-2.849,0-5.76-1.088-7.775-2.432L303.485,324.538z"/>
		<path style="fill:#FFFFFF;" d="M328.892,313.275c4.896,0,7.455,3.296,7.455,7.616c0,0.832-0.128,1.6-0.192,1.983h-10.687
			c0.447,2.4,2.271,3.456,4.607,3.456c1.439,0,2.688-0.384,4.096-1.088l1.536,2.816c-1.792,1.152-4.16,1.855-6.271,1.855
			c-4.928,0-8.8-3.072-8.8-8.319C320.636,316.411,324.668,313.275,328.892,313.275z M332.091,319.962
			c0-1.824-0.96-3.104-3.104-3.104c-1.696,0-3.2,0.992-3.584,3.104H332.091z"/>
		<path style="fill:#FFFFFF;" d="M343.899,333.722c2.784-0.96,4.16-2.528,4.16-4.544c-0.128,0.032-0.224,0.032-0.353,0.032
			c-1.791,0-3.455-1.152-3.455-3.264c0-1.984,1.6-3.296,3.584-3.296c2.623,0,3.967,2.048,3.967,5.503
			c0,4.064-2.304,6.976-6.719,8.319L343.899,333.722z"/>
		<path style="fill:#FFFFFF;" d="M379.162,308.667h6.527c4.32,0,7.647,1.184,7.647,5.184c0,1.856-1.119,3.872-3.583,4.512v0.128
			c2.976,0.544,4.543,2.112,4.543,4.896c0,4.256-3.487,6.144-7.999,6.144h-7.136V308.667z M385.465,317.083
			c2.304,0,3.264-0.992,3.264-2.56s-1.023-2.208-3.231-2.208h-1.632v4.768H385.465z M385.914,325.882c2.56,0,3.775-0.96,3.775-2.848
			c0-1.824-1.184-2.624-3.775-2.624h-2.048v5.471H385.914z"/>
		<path style="fill:#FFFFFF;" d="M398.201,313.659h11.071v15.871h-4.703v-12.191h-6.368V313.659z M403.577,308.475
			c0-1.728,1.312-2.943,3.136-2.943s3.136,1.216,3.136,2.943c0,1.728-1.312,2.848-3.136,2.848S403.577,310.203,403.577,308.475z"/>
		<path style="fill:#FFFFFF;" d="M417.176,313.659h3.84l0.352,2.112h0.128c1.376-1.344,3.104-2.496,5.472-2.496
			c3.584,0,5.184,2.464,5.184,6.463v9.792h-4.703v-9.183c0-2.112-0.608-3.072-2.336-3.072c-1.28,0-2.112,0.576-3.231,1.664v10.591
			h-4.704V313.659z"/>
		<path style="fill:#FFFFFF;" d="M446.487,319.323c-0.16-1.44-1.248-2.304-3.392-2.304c-1.536,0-3.04,0.576-4.832,1.472
			l-1.664-3.072c2.177-1.248,4.704-2.144,7.424-2.144c4.448,0,7.168,2.304,7.168,7.167v9.087h-3.84l-0.353-1.792h-0.128
			c-1.6,1.216-3.584,2.176-5.631,2.176c-3.2,0-5.216-2.112-5.216-4.799C436.024,321.563,438.967,319.771,446.487,319.323z
			 M442.743,326.266c1.408,0,2.624-0.64,3.744-1.504v-2.624c-4.672,0.256-5.951,1.248-5.951,2.624
			C440.536,325.786,441.399,326.266,442.743,326.266z"/>
		<path style="fill:#FFFFFF;" d="M456.983,313.659h3.84l0.384,3.456h0.096c1.568-2.592,3.904-3.84,6.432-3.84
			c1.408,0,2.144,0.224,3.072,0.64l-0.96,3.936c-0.992-0.288-1.632-0.448-2.816-0.448c-1.951,0-3.999,1.024-5.344,3.872v8.255
			h-4.703V313.659z"/>
		<path style="fill:#FFFFFF;" d="M476.694,332.025c1.824,0,2.815-0.832,3.328-2.08l0.319-0.832l-6.879-15.455h4.672l2.655,6.815
			c0.576,1.504,1.088,3.104,1.6,4.768h0.128c0.416-1.568,0.96-3.2,1.44-4.768l2.336-6.815h4.447l-6.271,16.031
			c-1.536,4-3.424,6.047-7.424,6.047c-0.928,0-1.76-0.128-2.432-0.32l0.832-3.584C475.862,331.961,476.278,332.025,476.694,332.025z
			"/>
		<path style="fill:#FFFFFF;" d="M492.885,319.002c0-6.815,3.424-10.719,8.384-10.719c4.959,0,8.383,3.936,8.383,10.719
			c0,6.815-3.424,10.911-8.383,10.911C496.309,329.914,492.885,325.818,492.885,319.002z M504.821,319.002
			c0-4.16-1.376-6.655-3.552-6.655s-3.552,2.496-3.552,6.655c0,4.192,1.376,6.848,3.552,6.848S504.821,323.194,504.821,319.002z"/>
		<path style="fill:#FFFFFF;" d="M517.877,330.778v4.64h-4.705v-21.758h3.84l0.352,1.6h0.098c1.279-1.152,3.039-1.984,4.734-1.984
			c3.969,0,6.367,3.168,6.367,8.063c0,5.439-3.326,8.575-6.879,8.575c-1.408,0-2.816-0.608-3.967-1.728L517.877,330.778z
			 M520.596,326.074c1.76,0,3.137-1.408,3.137-4.672c0-2.848-0.928-4.288-2.912-4.288c-1.023,0-1.953,0.448-2.943,1.472v6.432
			C518.771,325.786,519.797,326.074,520.596,326.074z"/>
		<path style="fill:#FFFFFF;" d="M540.084,313.275c4.895,0,7.455,3.296,7.455,7.616c0,0.832-0.129,1.6-0.193,1.983H536.66
			c0.447,2.4,2.271,3.456,4.607,3.456c1.439,0,2.688-0.384,4.096-1.088l1.535,2.816c-1.791,1.152-4.16,1.855-6.271,1.855
			c-4.928,0-8.799-3.072-8.799-8.319C531.828,316.411,535.859,313.275,540.084,313.275z M543.283,319.962
			c0-1.824-0.961-3.104-3.104-3.104c-1.697,0-3.201,0.992-3.584,3.104H543.283z"/>
		<path style="fill:#FFFFFF;" d="M552.979,313.659h3.84l0.385,3.456h0.096c1.568-2.592,3.904-3.84,6.432-3.84
			c1.408,0,2.143,0.224,3.072,0.64l-0.961,3.936c-0.992-0.288-1.631-0.448-2.816-0.448c-1.951,0-3.998,1.024-5.344,3.872v8.255
			h-4.703V313.659z"/>
		<path style="fill:#FFFFFF;" d="M580.881,319.323c-0.16-1.44-1.248-2.304-3.391-2.304c-1.537,0-3.041,0.576-4.832,1.472
			l-1.664-3.072c2.176-1.248,4.703-2.144,7.424-2.144c4.447,0,7.168,2.304,7.168,7.167v9.087h-3.84l-0.354-1.792h-0.127
			c-1.6,1.216-3.584,2.176-5.631,2.176c-3.201,0-5.217-2.112-5.217-4.799C570.418,321.563,573.361,319.771,580.881,319.323z
			 M577.137,326.266c1.408,0,2.625-0.64,3.744-1.504v-2.624c-4.672,0.256-5.951,1.248-5.951,2.624
			C574.93,325.786,575.793,326.266,577.137,326.266z"/>
		<path style="fill:#FFFFFF;" d="M593.232,317.339h-3.967v-3.488l4.191-0.192l0.607-4.224h3.873v4.224h6.688v3.68h-6.688v5.567
			c0,2.4,1.023,3.328,3.326,3.328c1.217,0,2.273-0.256,3.201-0.576l0.832,3.392c-1.408,0.416-3.168,0.864-5.217,0.864
			c-5.055,0-6.848-2.815-6.848-6.975V317.339z"/>
		<path style="fill:#FFFFFF;" d="M616.465,313.275c4.191,0,8.094,3.04,8.094,8.319c0,5.28-3.902,8.319-8.094,8.319
			c-4.193,0-8.096-3.04-8.096-8.319C608.369,316.315,612.271,313.275,616.465,313.275z M616.465,326.106
			c2.176,0,3.264-1.76,3.264-4.512c0-2.751-1.088-4.512-3.264-4.512s-3.264,1.76-3.264,4.512
			C613.201,324.346,614.289,326.106,616.465,326.106z"/>
		<path style="fill:#FFFFFF;" d="M629.775,313.659h3.84l0.385,3.456h0.096c1.568-2.592,3.904-3.84,6.432-3.84
			c1.408,0,2.143,0.224,3.072,0.64l-0.961,3.936c-0.992-0.288-1.631-0.448-2.816-0.448c-1.951,0-3.998,1.024-5.344,3.872v8.255
			h-4.703V313.659z"/>
		<path style="fill:#FFFFFF;" d="M648.975,317.915l12.352-8v4.256l-8.48,5.312v0.128l8.48,5.312v4.256l-12.352-8V317.915z"/>
		<path style="fill:#FFFFFF;" d="M671.693,312.635h-6.238v-3.967h17.215v3.967h-6.24v16.895h-4.736V312.635z"/>
		<path style="fill:#FFFFFF;" d="M699.148,321.178l-12.352,8v-4.256l8.48-5.312v-0.128l-8.48-5.312v-4.256l12.352,8V321.178z"/>
		<path style="fill:#FFFFFF;" d="M725.771,313.659h3.84l0.385,3.456h0.096c1.568-2.592,3.904-3.84,6.432-3.84
			c1.408,0,2.143,0.224,3.072,0.64l-0.961,3.936c-0.992-0.288-1.631-0.448-2.816-0.448c-1.951,0-3.998,1.024-5.344,3.872v8.255
			h-4.703V313.659z"/>
		<path style="fill:#FFFFFF;" d="M751.275,313.275c4.895,0,7.455,3.296,7.455,7.616c0,0.832-0.129,1.6-0.193,1.983h-10.686
			c0.447,2.4,2.271,3.456,4.607,3.456c1.439,0,2.688-0.384,4.096-1.088l1.535,2.816c-1.791,1.152-4.16,1.855-6.271,1.855
			c-4.928,0-8.799-3.072-8.799-8.319C743.02,316.411,747.051,313.275,751.275,313.275z M754.475,319.962
			c0-1.824-0.961-3.104-3.104-3.104c-1.697,0-3.201,0.992-3.584,3.104H754.475z"/>
		<path style="fill:#FFFFFF;" d="M768.746,313.275c1.824,0,2.943,0.672,4.064,1.696l-0.16-2.464V307.1h4.703v22.43h-3.84
			l-0.352-1.632h-0.096c-1.186,1.152-2.816,2.016-4.416,2.016c-4.031,0-6.688-3.136-6.688-8.319S765.291,313.275,768.746,313.275z
			 M769.865,326.074c1.057,0,1.953-0.416,2.785-1.472v-6.432c-0.865-0.768-1.729-1.056-2.656-1.056
			c-1.729,0-3.199,1.408-3.199,4.416C766.795,324.666,767.914,326.074,769.865,326.074z"/>
		<path style="fill:#FFFFFF;" d="M796.457,329.53h-3.84l-0.352-2.272h-0.129c-1.408,1.6-3.072,2.656-5.344,2.656
			c-3.615,0-5.152-2.464-5.152-6.463v-9.791h4.705v9.183c0,2.112,0.543,3.072,2.303,3.072c1.184,0,2.016-0.416,3.104-1.824v-10.431
			h4.705V329.53z"/>
		<path style="fill:#FFFFFF;" d="M810.184,313.275c2.496,0,4.607,0.896,5.951,2.144l-2.176,2.912
			c-1.215-0.864-2.336-1.248-3.52-1.248c-2.719,0-4.607,1.76-4.607,4.512c0,2.752,1.824,4.512,4.447,4.512
			c1.664,0,3.072-0.704,4.193-1.504l1.92,2.976c-1.92,1.6-4.385,2.335-6.561,2.335c-4.992,0-8.832-3.04-8.832-8.319
			C801,316.315,805.289,313.275,810.184,313.275z"/>
		<path style="fill:#FFFFFF;" d="M828.072,313.275c4.895,0,7.455,3.296,7.455,7.616c0,0.832-0.129,1.6-0.193,1.983h-10.686
			c0.447,2.4,2.271,3.456,4.607,3.456c1.439,0,2.688-0.384,4.096-1.088l1.535,2.816c-1.791,1.152-4.16,1.855-6.271,1.855
			c-4.928,0-8.799-3.072-8.799-8.319C819.816,316.411,823.848,313.275,828.072,313.275z M831.271,319.962
			c0-1.824-0.961-3.104-3.104-3.104c-1.697,0-3.201,0.992-3.584,3.104H831.271z"/>
		<path style="fill:#FFFFFF;" d="M840.967,313.659h3.84l0.385,3.456h0.096c1.568-2.592,3.904-3.84,6.432-3.84
			c1.408,0,2.143,0.224,3.072,0.64l-0.961,3.936c-0.992-0.288-1.631-0.448-2.816-0.448c-1.951,0-3.998,1.024-5.344,3.872v8.255
			h-4.703V313.659z"/>
		<path style="fill:#FFFFFF;" d="M860.486,333.178c3.809-3.712,5.439-7.488,5.439-12.543s-1.631-8.831-5.439-12.543l2.623-2.08
			c4.16,3.68,6.752,8.607,6.752,14.623s-2.592,10.943-6.752,14.623L860.486,333.178z"/>
	</g>
</g>
<g id="jfx:p04">
	<g>
		<path style="fill:#FFFFFF;stroke:#FFFFFF;" d="M104.391,440.463c1.968,1.009,4.993,2.017,8.113,2.017
			c3.36,0,5.136-1.392,5.136-3.505c0-2.016-1.536-3.168-5.424-4.56c-5.376-1.872-8.881-4.849-8.881-9.554
			c0-5.52,4.608-9.744,12.241-9.744c3.648,0,6.336,0.768,8.257,1.633l-1.632,5.904c-1.296-0.625-3.6-1.537-6.769-1.537
			s-4.705,1.44-4.705,3.121c0,2.064,1.824,2.977,6,4.561c5.713,2.111,8.401,5.088,8.401,9.648c0,5.424-4.176,10.033-13.057,10.033
			c-3.696,0-7.345-0.961-9.169-1.969L104.391,440.463z"/>
		<path style="fill:#FFFFFF;stroke:#FFFFFF;" d="M137.992,417.805v6.721h5.232v5.377h-5.232v8.497c0,2.832,0.672,4.128,2.88,4.128
			c0.912,0,1.632-0.096,2.16-0.191l0.048,5.52c-0.96,0.385-2.688,0.625-4.752,0.625c-2.352,0-4.32-0.816-5.472-2.017
			c-1.344-1.392-2.016-3.648-2.016-6.96v-9.602h-3.121v-5.377h3.121v-5.088L137.992,417.805z"/>
		<path style="fill:#FFFFFF;stroke:#FFFFFF;" d="M147.446,432.255c0-3.456-0.096-5.713-0.192-7.729h6.289l0.24,4.32h0.192
			c1.2-3.408,4.08-4.848,6.336-4.848c0.672,0,1.008,0,1.536,0.096v6.865c-0.528-0.097-1.152-0.192-1.968-0.192
			c-2.688,0-4.512,1.44-4.992,3.696c-0.096,0.48-0.144,1.057-0.144,1.632V448h-7.297V432.255z"/>
		<path style="fill:#FFFFFF;stroke:#FFFFFF;" d="M171.302,438.592c0.24,3.023,3.216,4.464,6.625,4.464
			c2.496,0,4.512-0.336,6.48-0.96l0.96,4.944c-2.4,0.96-5.329,1.44-8.497,1.44c-7.969,0-12.529-4.609-12.529-11.953
			c0-5.953,3.696-12.529,11.857-12.529c7.584,0,10.465,5.904,10.465,11.713c0,1.248-0.144,2.352-0.24,2.881H171.302z
			 M179.895,433.599c0-1.776-0.768-4.753-4.128-4.753c-3.072,0-4.32,2.785-4.513,4.753H179.895z"/>
		<path style="fill:#FFFFFF;stroke:#FFFFFF;" d="M204.375,448l-0.432-2.352h-0.144c-1.536,1.871-3.936,2.879-6.721,2.879
			c-4.752,0-7.584-3.455-7.584-7.199c0-6.098,5.473-9.025,13.777-8.978v-0.336c0-1.248-0.672-3.024-4.272-3.024
			c-2.4,0-4.944,0.816-6.48,1.776l-1.344-4.704c1.632-0.912,4.849-2.064,9.121-2.064c7.825,0,10.321,4.608,10.321,10.129v8.16
			c0,2.257,0.096,4.417,0.336,5.713H204.375z M203.51,436.911c-3.84-0.048-6.816,0.864-6.816,3.696c0,1.872,1.248,2.784,2.88,2.784
			c1.824,0,3.312-1.2,3.792-2.688c0.096-0.384,0.144-0.816,0.144-1.248V436.911z"/>
		<path style="fill:#FFFFFF;stroke:#FFFFFF;" d="M216.373,432.015c0-2.929-0.096-5.425-0.192-7.489h6.145l0.336,3.169h0.144
			c1.008-1.488,3.072-3.696,7.104-3.696c3.024,0,5.424,1.536,6.433,3.984h0.096c0.864-1.2,1.92-2.16,3.024-2.832
			c1.296-0.769,2.736-1.152,4.464-1.152c4.513,0,7.921,3.168,7.921,10.177V448h-7.104v-12.77c0-3.408-1.104-5.376-3.457-5.376
			c-1.68,0-2.88,1.151-3.36,2.544c-0.192,0.528-0.288,1.297-0.288,1.873V448h-7.105v-13.153c0-2.976-1.056-4.992-3.36-4.992
			c-1.872,0-2.976,1.44-3.408,2.64c-0.24,0.576-0.288,1.248-0.288,1.824V448h-7.104V432.015z"/>
		<path style="fill:#FFFFFF;stroke:#FFFFFF;" d="M257.508,433.166l23.042-10.704v5.089l-17.425,7.633v0.096l17.425,7.633V448
			l-23.042-10.705V433.166z"/>
		<path style="fill:#FFFFFF;stroke:#FFFFFF;" d="M292.74,421.789h-8.688v-6.145h24.866v6.145h-8.833V448h-7.345V421.789z"/>
		<path style="fill:#FFFFFF;stroke:#FFFFFF;" d="M335.461,437.439L312.419,448v-5.088l17.81-7.633v-0.096l-17.81-7.633v-5.089
			l23.042,10.561V437.439z"/>
	</g>
	<g>
		<rect x="439.225" y="406.125" style="opacity:0.5;fill:#FFFFFF;stroke:#FFFFFF;" width="60" height="60"/>
		<g>
			<path style="fill:#FFFFFF;stroke:#FFFFFF;" d="M460.028,422.709v5.6h4.359v4.479h-4.359v7.08c0,2.359,0.56,3.439,2.4,3.439
				c0.76,0,1.36-0.08,1.799-0.16l0.04,4.599c-0.8,0.32-2.239,0.521-3.959,0.521c-1.96,0-3.6-0.68-4.56-1.68
				c-1.12-1.16-1.68-3.04-1.68-5.799v-8h-2.6v-4.479h2.6v-4.239L460.028,422.709z"/>
			<path style="fill:#FFFFFF;stroke:#FFFFFF;" d="M474.908,427.269h-0.08l-4.959,2.36l-1-4.561l6.879-3.199h5.039v25.996h-5.879
				V427.269z"/>
		</g>
	</g>
	<g>
		<rect x="369.222" y="406.125" style="opacity:0.5;fill:#FFFFFF;stroke:#FFFFFF;" width="60" height="60"/>
		<g>
			<path style="fill:#FFFFFF;stroke:#FFFFFF;" d="M390.024,422.709v5.6h4.359v4.479h-4.359v7.08c0,2.359,0.56,3.439,2.4,3.439
				c0.76,0,1.36-0.08,1.799-0.16l0.04,4.599c-0.8,0.32-2.239,0.521-3.959,0.521c-1.96,0-3.6-0.68-4.56-1.68
				c-1.12-1.16-1.68-3.04-1.68-5.799v-8h-2.6v-4.479h2.6v-4.239L390.024,422.709z"/>
			<path style="fill:#FFFFFF;stroke:#FFFFFF;" d="M416.342,434.748c0,8.038-3.239,13.557-9.878,13.557
				c-6.719,0-9.678-6.039-9.718-13.397c0-7.519,3.2-13.478,9.918-13.478C413.622,421.43,416.342,427.629,416.342,434.748z
				 M402.864,434.907c-0.04,5.959,1.399,8.799,3.759,8.799c2.359,0,3.639-2.96,3.639-8.878c0-5.76-1.24-8.799-3.679-8.799
				C404.344,426.029,402.824,428.869,402.864,434.907z"/>
		</g>
	</g>
	<g>
		<rect x="507.395" y="406.125" style="opacity:0.5;fill:#FFFFFF;stroke:#FFFFFF;" width="60.002" height="60"/>
		<g>
			<path style="fill:#FFFFFF;stroke:#FFFFFF;" d="M528.199,422.709v5.6h4.359v4.479h-4.359v7.08c0,2.359,0.561,3.439,2.4,3.439
				c0.76,0,1.359-0.08,1.799-0.16l0.04,4.599c-0.8,0.32-2.239,0.521-3.959,0.521c-1.96,0-3.6-0.68-4.56-1.68
				c-1.119-1.16-1.68-3.04-1.68-5.799v-8h-2.6v-4.479h2.6v-4.239L528.199,422.709z"/>
			<path style="fill:#FFFFFF;stroke:#FFFFFF;" d="M535.32,447.865v-3.68l3.359-3.039c5.68-5.079,8.438-7.999,8.519-11.038
				c0-2.12-1.28-3.8-4.279-3.8c-2.239,0-4.199,1.12-5.56,2.16l-1.719-4.359c1.959-1.48,4.999-2.68,8.518-2.68
				c5.88,0,9.119,3.439,9.119,8.158c0,4.359-3.16,7.839-6.919,11.199l-2.399,1.999v0.08h9.799v4.999H535.32z"/>
		</g>
	</g>
	<g>
		<rect x="575.568" y="406.125" style="opacity:0.5;fill:#FFFFFF;stroke:#FFFFFF;" width="60.003" height="60"/>
		<g>
			<path style="fill:#FFFFFF;stroke:#FFFFFF;" d="M596.371,422.709v5.6h4.359v4.479h-4.359v7.08c0,2.359,0.56,3.439,2.399,3.439
				c0.76,0,1.36-0.08,1.8-0.16l0.039,4.599c-0.799,0.32-2.238,0.521-3.959,0.521c-1.959,0-3.6-0.68-4.559-1.68
				c-1.12-1.16-1.68-3.04-1.68-5.799v-8h-2.6v-4.479h2.6v-4.239L596.371,422.709z"/>
			<path style="fill:#FFFFFF;stroke:#FFFFFF;" d="M604.572,441.906c1.079,0.561,3.559,1.6,6.038,1.6c3.159,0,4.759-1.52,4.759-3.479
				c0-2.56-2.559-3.72-5.238-3.72h-2.48v-4.359h2.36c2.04-0.039,4.64-0.799,4.64-2.999c0-1.56-1.28-2.72-3.84-2.72
				c-2.119,0-4.359,0.92-5.439,1.561l-1.239-4.4c1.56-0.999,4.679-1.959,8.038-1.959c5.56,0,8.639,2.92,8.639,6.479
				c0,2.76-1.56,4.92-4.759,6.039v0.08c3.119,0.561,5.639,2.92,5.639,6.319c0,4.599-4.039,7.958-10.638,7.958
				c-3.359,0-6.199-0.879-7.719-1.84L604.572,441.906z"/>
		</g>
	</g>
	<g>
		<rect x="643.742" y="406.125" style="opacity:0.5;fill:#FFFFFF;stroke:#FFFFFF;" width="60.003" height="60"/>
		<g>
			<path style="fill:#FFFFFF;stroke:#FFFFFF;" d="M664.541,422.709v5.6h4.359v4.479h-4.359v7.08c0,2.359,0.561,3.439,2.4,3.439
				c0.76,0,1.359-0.08,1.799-0.16l0.041,4.599c-0.801,0.32-2.24,0.521-3.959,0.521c-1.961,0-3.6-0.68-4.561-1.68
				c-1.119-1.16-1.68-3.04-1.68-5.799v-8h-2.6v-4.479h2.6v-4.239L664.541,422.709z"/>
			<path style="fill:#FFFFFF;stroke:#FFFFFF;" d="M682.421,447.865v-6.199h-11.519v-3.959l9.839-15.838h7.438v15.238h3.119v4.559
				h-3.119v6.199H682.421z M682.421,437.107v-5.76c0-1.56,0.08-3.159,0.2-4.839h-0.16c-0.84,1.68-1.52,3.2-2.4,4.839l-3.479,5.68
				v0.08H682.421z"/>
		</g>
	</g>
	<g>
		<rect x="711.915" y="406.125" style="opacity:0.5;fill:#FFFFFF;stroke:#FFFFFF;" width="60.003" height="60"/>
		<g>
			<path style="fill:#FFFFFF;stroke:#FFFFFF;" d="M732.713,422.709v5.6h4.359v4.479h-4.359v7.08c0,2.359,0.56,3.439,2.399,3.439
				c0.76,0,1.36-0.08,1.8-0.16l0.039,4.599c-0.799,0.32-2.238,0.521-3.959,0.521c-1.959,0-3.6-0.68-4.559-1.68
				c-1.12-1.16-1.68-3.04-1.68-5.799v-8h-2.6v-4.479h2.6v-4.239L732.713,422.709z"/>
			<path style="fill:#FFFFFF;stroke:#FFFFFF;" d="M757.19,426.869h-10.078l-0.56,3.999c0.56-0.08,1.039-0.08,1.68-0.08
				c2.479,0,4.999,0.56,6.838,1.88c1.961,1.32,3.16,3.479,3.16,6.519c0,4.839-4.159,9.118-11.158,9.118
				c-3.16,0-5.799-0.719-7.238-1.479l1.08-4.56c1.159,0.561,3.519,1.28,5.879,1.28c2.52,0,5.199-1.2,5.199-3.96
				c0-2.679-2.12-4.318-7.319-4.318c-1.44,0-2.44,0.08-3.52,0.24l1.72-13.639h14.317V426.869z"/>
		</g>
	</g>
	<g>
		<rect x="780.088" y="406.125" style="opacity:0.5;fill:#FFFFFF;stroke:#FFFFFF;" width="60.003" height="60"/>
		<g>
			<path style="fill:#FFFFFF;stroke:#FFFFFF;" d="M800.883,422.709v5.6h4.359v4.479h-4.359v7.08c0,2.359,0.561,3.439,2.4,3.439
				c0.76,0,1.359-0.08,1.799-0.16l0.041,4.599c-0.801,0.32-2.24,0.521-3.959,0.521c-1.961,0-3.6-0.68-4.561-1.68
				c-1.119-1.16-1.68-3.04-1.68-5.799v-8h-2.6v-4.479h2.6v-4.239L800.883,422.709z"/>
			<path style="fill:#FFFFFF;stroke:#FFFFFF;" d="M824.602,426.189c-0.68-0.041-1.4,0-2.359,0.08
				c-5.399,0.439-7.799,3.199-8.479,6.238h0.119c1.28-1.32,3.08-2.08,5.52-2.08c4.359,0,8.039,3.08,8.039,8.479
				c0,5.16-3.959,9.398-9.599,9.398c-6.919,0-10.318-5.158-10.318-11.357c0-4.879,1.8-8.959,4.599-11.559
				c2.6-2.359,5.959-3.639,10.039-3.839c1.119-0.08,1.84-0.08,2.439-0.04V426.189z M821.282,439.227c0-2.399-1.28-4.479-3.88-4.479
				c-1.639,0-2.999,0.999-3.6,2.318c-0.159,0.32-0.239,0.801-0.239,1.521c0.12,2.759,1.44,5.239,4.199,5.239
				C819.922,443.826,821.282,441.866,821.282,439.227z"/>
		</g>
	</g>
	<g>
		<rect x="848.262" y="406.125" style="opacity:0.5;fill:#FFFFFF;stroke:#FFFFFF;" width="60.003" height="60"/>
		<g>
			<path style="fill:#FFFFFF;stroke:#FFFFFF;" d="M869.055,422.709v5.6h4.359v4.479h-4.359v7.08c0,2.359,0.56,3.439,2.399,3.439
				c0.76,0,1.36-0.08,1.8-0.16l0.039,4.599c-0.799,0.32-2.238,0.521-3.959,0.521c-1.959,0-3.6-0.68-4.559-1.68
				c-1.12-1.16-1.68-3.04-1.68-5.799v-8h-2.6v-4.479h2.6v-4.239L869.055,422.709z"/>
			<path style="fill:#FFFFFF;stroke:#FFFFFF;" d="M894.813,421.869v3.84l-10.719,22.156h-6.438l10.718-20.916v-0.08h-11.918v-5
				H894.813z"/>
		</g>
	</g>
</g>
<g id="jfx:p05">
	<g>
		<path style="fill:#FFFFFF;stroke:#FFFFFF;" d="M104.391,620.475c1.968,1.009,4.993,2.017,8.113,2.017
			c3.36,0,5.136-1.392,5.136-3.505c0-2.016-1.536-3.168-5.424-4.56c-5.376-1.872-8.881-4.849-8.881-9.554
			c0-5.52,4.608-9.744,12.241-9.744c3.648,0,6.336,0.768,8.257,1.633l-1.632,5.904c-1.296-0.625-3.6-1.537-6.769-1.537
			s-4.705,1.44-4.705,3.121c0,2.064,1.824,2.977,6,4.561c5.713,2.111,8.401,5.088,8.401,9.648c0,5.424-4.176,10.033-13.057,10.033
			c-3.696,0-7.345-0.961-9.169-1.969L104.391,620.475z"/>
		<path style="fill:#FFFFFF;stroke:#FFFFFF;" d="M137.992,597.816v6.721h5.232v5.377h-5.232v8.497c0,2.832,0.672,4.128,2.88,4.128
			c0.912,0,1.632-0.096,2.16-0.191l0.048,5.52c-0.96,0.385-2.688,0.625-4.752,0.625c-2.352,0-4.32-0.816-5.472-2.017
			c-1.344-1.392-2.016-3.648-2.016-6.96v-9.602h-3.121v-5.377h3.121v-5.088L137.992,597.816z"/>
		<path style="fill:#FFFFFF;stroke:#FFFFFF;" d="M147.446,612.267c0-3.456-0.096-5.713-0.192-7.729h6.289l0.24,4.32h0.192
			c1.2-3.408,4.08-4.848,6.336-4.848c0.672,0,1.008,0,1.536,0.096v6.865c-0.528-0.097-1.152-0.192-1.968-0.192
			c-2.688,0-4.512,1.44-4.992,3.696c-0.096,0.48-0.144,1.057-0.144,1.632v11.905h-7.297V612.267z"/>
		<path style="fill:#FFFFFF;stroke:#FFFFFF;" d="M171.302,618.604c0.24,3.023,3.216,4.464,6.625,4.464
			c2.496,0,4.512-0.336,6.48-0.96l0.96,4.944c-2.4,0.96-5.329,1.44-8.497,1.44c-7.969,0-12.529-4.609-12.529-11.953
			c0-5.953,3.696-12.529,11.857-12.529c7.584,0,10.465,5.904,10.465,11.713c0,1.248-0.144,2.352-0.24,2.881H171.302z
			 M179.895,613.61c0-1.776-0.768-4.753-4.128-4.753c-3.072,0-4.32,2.785-4.513,4.753H179.895z"/>
		<path style="fill:#FFFFFF;stroke:#FFFFFF;" d="M204.375,628.012l-0.432-2.352h-0.144c-1.536,1.871-3.936,2.879-6.721,2.879
			c-4.752,0-7.584-3.455-7.584-7.199c0-6.098,5.473-9.025,13.777-8.978v-0.336c0-1.248-0.672-3.024-4.272-3.024
			c-2.4,0-4.944,0.816-6.48,1.776l-1.344-4.704c1.632-0.912,4.849-2.064,9.121-2.064c7.825,0,10.321,4.608,10.321,10.129v8.16
			c0,2.257,0.096,4.417,0.336,5.713H204.375z M203.51,616.923c-3.84-0.048-6.816,0.864-6.816,3.696c0,1.872,1.248,2.784,2.88,2.784
			c1.824,0,3.312-1.2,3.792-2.688c0.096-0.384,0.144-0.816,0.144-1.248V616.923z"/>
		<path style="fill:#FFFFFF;stroke:#FFFFFF;" d="M216.373,612.026c0-2.929-0.096-5.425-0.192-7.489h6.145l0.336,3.169h0.144
			c1.008-1.488,3.072-3.696,7.104-3.696c3.024,0,5.424,1.536,6.433,3.984h0.096c0.864-1.2,1.92-2.16,3.024-2.832
			c1.296-0.769,2.736-1.152,4.464-1.152c4.513,0,7.921,3.168,7.921,10.177v13.825h-7.104v-12.77c0-3.408-1.104-5.376-3.457-5.376
			c-1.68,0-2.88,1.151-3.36,2.544c-0.192,0.528-0.288,1.297-0.288,1.873v13.729h-7.105v-13.153c0-2.976-1.056-4.992-3.36-4.992
			c-1.872,0-2.976,1.44-3.408,2.64c-0.24,0.576-0.288,1.248-0.288,1.824v13.682h-7.104V612.026z"/>
		<path style="fill:#FFFFFF;stroke:#FFFFFF;" d="M257.508,613.178l23.042-10.704v5.089l-17.425,7.633v0.096l17.425,7.633v5.088
			l-23.042-10.705V613.178z"/>
		<path style="fill:#FFFFFF;stroke:#FFFFFF;" d="M293.796,595.656v18.627c0,5.568,2.112,8.4,5.856,8.4c3.84,0,5.953-2.688,5.953-8.4
			v-18.627h7.296v18.146c0,9.984-5.04,14.736-13.489,14.736c-8.161,0-12.961-4.512-12.961-14.832v-18.051H293.796z"/>
		<path style="fill:#FFFFFF;stroke:#FFFFFF;" d="M341.893,617.451l-23.042,10.561v-5.088l17.81-7.633v-0.096l-17.81-7.633v-5.089
			l23.042,10.561V617.451z"/>
	</g>
	<g>
		<rect x="439.225" y="586.143" style="opacity:0.5;fill:#FFFFFF;stroke:#FFFFFF;" width="60" height="60"/>
		<g>
			<path style="fill:#FFFFFF;stroke:#FFFFFF;" d="M471.667,621.598c0,2.561,0.08,4.64,0.16,6.279h-5.279l-0.28-2.76h-0.12
				c-0.76,1.2-2.6,3.199-6.119,3.199c-3.959,0-6.879-2.479-6.879-8.518V608.32h6.119v10.518c0,2.84,0.92,4.56,3.04,4.56
				c1.68,0,2.64-1.159,3.04-2.12c0.16-0.359,0.2-0.84,0.2-1.318V608.32h6.119V621.598z"/>
			<path style="fill:#FFFFFF;stroke:#FFFFFF;" d="M483.548,607.28h-0.08l-4.959,2.36l-1-4.561l6.879-3.199h5.039v25.996h-5.879
				V607.28z"/>
		</g>
	</g>
	<g>
		<rect x="369.222" y="586.143" style="opacity:0.5;fill:#FFFFFF;stroke:#FFFFFF;" width="60" height="60"/>
		<g>
			<path style="fill:#FFFFFF;stroke:#FFFFFF;" d="M401.662,621.598c0,2.561,0.08,4.64,0.16,6.279h-5.279l-0.28-2.76h-0.12
				c-0.76,1.2-2.6,3.199-6.119,3.199c-3.959,0-6.879-2.479-6.879-8.518V608.32h6.119v10.518c0,2.84,0.92,4.56,3.04,4.56
				c1.68,0,2.64-1.159,3.04-2.12c0.16-0.359,0.2-0.84,0.2-1.318V608.32h6.119V621.598z"/>
			<path style="fill:#FFFFFF;stroke:#FFFFFF;" d="M424.982,614.76c0,8.038-3.239,13.557-9.878,13.557
				c-6.719,0-9.678-6.039-9.718-13.397c0-7.519,3.199-13.478,9.918-13.478C422.262,601.441,424.982,607.641,424.982,614.76z
				 M411.504,614.919c-0.04,5.959,1.399,8.799,3.759,8.799c2.359,0,3.639-2.96,3.639-8.878c0-5.76-1.24-8.799-3.679-8.799
				C412.984,606.041,411.464,608.881,411.504,614.919z"/>
		</g>
	</g>
	<g>
		<rect x="507.395" y="586.143" style="opacity:0.5;fill:#FFFFFF;stroke:#FFFFFF;" width="60.002" height="60"/>
		<g>
			<path style="fill:#FFFFFF;stroke:#FFFFFF;" d="M539.838,621.598c0,2.561,0.08,4.64,0.16,6.279h-5.279l-0.28-2.76h-0.12
				c-0.76,1.2-2.6,3.199-6.119,3.199c-3.959,0-6.879-2.479-6.879-8.518V608.32h6.119v10.518c0,2.84,0.92,4.56,3.039,4.56
				c1.68,0,2.641-1.159,3.04-2.12c0.16-0.359,0.2-0.84,0.2-1.318V608.32h6.119V621.598z"/>
			<path style="fill:#FFFFFF;stroke:#FFFFFF;" d="M543.961,627.877v-3.68l3.359-3.039c5.679-5.079,8.438-7.999,8.518-11.038
				c0-2.12-1.279-3.8-4.279-3.8c-2.239,0-4.199,1.12-5.559,2.16l-1.72-4.359c1.96-1.48,4.999-2.68,8.519-2.68
				c5.879,0,9.119,3.439,9.119,8.158c0,4.359-3.16,7.839-6.92,11.199l-2.398,1.999v0.08h9.798v4.999H543.961z"/>
		</g>
	</g>
	<g>
		<rect x="575.568" y="586.143" style="opacity:0.5;fill:#FFFFFF;stroke:#FFFFFF;" width="60.003" height="60"/>
		<g>
			<path style="fill:#FFFFFF;stroke:#FFFFFF;" d="M608.009,621.598c0,2.561,0.08,4.64,0.16,6.279h-5.279l-0.28-2.76h-0.119
				c-0.76,1.2-2.6,3.199-6.119,3.199c-3.959,0-6.879-2.479-6.879-8.518V608.32h6.119v10.518c0,2.84,0.92,4.56,3.039,4.56
				c1.68,0,2.64-1.159,3.039-2.12c0.16-0.359,0.2-0.84,0.2-1.318V608.32h6.119V621.598z"/>
			<path style="fill:#FFFFFF;stroke:#FFFFFF;" d="M613.212,621.918c1.079,0.561,3.56,1.6,6.038,1.6c3.16,0,4.76-1.52,4.76-3.479
				c0-2.56-2.56-3.72-5.238-3.72h-2.48v-4.359h2.359c2.04-0.039,4.64-0.799,4.64-2.999c0-1.56-1.28-2.72-3.839-2.72
				c-2.12,0-4.359,0.92-5.439,1.561l-1.24-4.4c1.561-0.999,4.68-1.959,8.039-1.959c5.559,0,8.639,2.92,8.639,6.479
				c0,2.76-1.561,4.92-4.76,6.039v0.08c3.119,0.561,5.639,2.92,5.639,6.319c0,4.599-4.039,7.958-10.638,7.958
				c-3.359,0-6.198-0.879-7.719-1.84L613.212,621.918z"/>
		</g>
	</g>
	<g>
		<rect x="643.742" y="586.143" style="opacity:0.5;fill:#FFFFFF;stroke:#FFFFFF;" width="60.003" height="60"/>
		<g>
			<path style="fill:#FFFFFF;stroke:#FFFFFF;" d="M676.18,621.598c0,2.561,0.08,4.64,0.16,6.279h-5.279l-0.279-2.76h-0.121
				c-0.76,1.2-2.6,3.199-6.119,3.199c-3.959,0-6.879-2.479-6.879-8.518V608.32h6.119v10.518c0,2.84,0.92,4.56,3.04,4.56
				c1.68,0,2.64-1.159,3.04-2.12c0.16-0.359,0.199-0.84,0.199-1.318V608.32h6.119V621.598z"/>
			<path style="fill:#FFFFFF;stroke:#FFFFFF;" d="M691.061,627.877v-6.199h-11.518v-3.959l9.838-15.838h7.439v15.238h3.119v4.559
				h-3.119v6.199H691.061z M691.061,617.119v-5.76c0-1.56,0.08-3.159,0.2-4.839h-0.159c-0.84,1.68-1.521,3.2-2.4,4.839l-3.479,5.68
				v0.08H691.061z"/>
		</g>
	</g>
	<g>
		<rect x="711.915" y="586.143" style="opacity:0.5;fill:#FFFFFF;stroke:#FFFFFF;" width="60.003" height="60"/>
		<g>
			<path style="fill:#FFFFFF;stroke:#FFFFFF;" d="M744.351,621.598c0,2.561,0.08,4.64,0.16,6.279h-5.279l-0.28-2.76h-0.119
				c-0.76,1.2-2.6,3.199-6.119,3.199c-3.959,0-6.879-2.479-6.879-8.518V608.32h6.119v10.518c0,2.84,0.92,4.56,3.039,4.56
				c1.68,0,2.64-1.159,3.039-2.12c0.16-0.359,0.2-0.84,0.2-1.318V608.32h6.119V621.598z"/>
			<path style="fill:#FFFFFF;stroke:#FFFFFF;" d="M765.83,606.881h-10.078l-0.56,3.999c0.56-0.08,1.04-0.08,1.68-0.08
				c2.479,0,4.999,0.56,6.839,1.88c1.96,1.32,3.16,3.479,3.16,6.519c0,4.839-4.16,9.118-11.158,9.118
				c-3.16,0-5.799-0.719-7.239-1.479l1.08-4.56c1.159,0.561,3.519,1.28,5.879,1.28c2.52,0,5.199-1.2,5.199-3.96
				c0-2.679-2.12-4.318-7.319-4.318c-1.439,0-2.439,0.08-3.52,0.24l1.721-13.639h14.316V606.881z"/>
		</g>
	</g>
	<g>
		<rect x="780.088" y="586.143" style="opacity:0.5;fill:#FFFFFF;stroke:#FFFFFF;" width="60.003" height="60"/>
		<g>
			<path style="fill:#FFFFFF;stroke:#FFFFFF;" d="M812.521,621.598c0,2.561,0.08,4.64,0.16,6.279h-5.279l-0.279-2.76h-0.121
				c-0.76,1.2-2.6,3.199-6.119,3.199c-3.959,0-6.879-2.479-6.879-8.518V608.32h6.119v10.518c0,2.84,0.92,4.56,3.04,4.56
				c1.68,0,2.64-1.159,3.04-2.12c0.16-0.359,0.199-0.84,0.199-1.318V608.32h6.119V621.598z"/>
			<path style="fill:#FFFFFF;stroke:#FFFFFF;" d="M833.242,606.201c-0.68-0.041-1.4,0-2.359,0.08
				c-5.4,0.439-7.799,3.199-8.479,6.238h0.119c1.279-1.32,3.08-2.08,5.52-2.08c4.359,0,8.039,3.08,8.039,8.479
				c0,5.16-3.96,9.398-9.6,9.398c-6.918,0-10.318-5.158-10.318-11.357c0-4.879,1.801-8.959,4.6-11.559
				c2.6-2.359,5.959-3.639,10.039-3.839c1.119-0.08,1.84-0.08,2.439-0.04V606.201z M829.922,619.238
				c0-2.399-1.279-4.479-3.879-4.479c-1.64,0-3,0.999-3.6,2.318c-0.16,0.32-0.24,0.801-0.24,1.521
				c0.121,2.759,1.44,5.239,4.199,5.239C828.563,623.838,829.922,621.878,829.922,619.238z"/>
		</g>
	</g>
	<g>
		<rect x="848.262" y="586.143" style="opacity:0.5;fill:#FFFFFF;stroke:#FFFFFF;" width="60.003" height="60"/>
		<g>
			<path style="fill:#FFFFFF;stroke:#FFFFFF;" d="M880.692,621.598c0,2.561,0.08,4.64,0.16,6.279h-5.279l-0.28-2.76h-0.119
				c-0.76,1.2-2.6,3.199-6.119,3.199c-3.959,0-6.879-2.479-6.879-8.518V608.32h6.119v10.518c0,2.84,0.92,4.56,3.039,4.56
				c1.68,0,2.64-1.159,3.039-2.12c0.16-0.359,0.2-0.84,0.2-1.318V608.32h6.119V621.598z"/>
			<path style="fill:#FFFFFF;stroke:#FFFFFF;" d="M903.452,601.881v3.84l-10.718,22.156h-6.439l10.719-20.916v-0.08h-11.918v-5
				H903.452z"/>
		</g>
	</g>
	<g>
		<line style="fill:none;stroke:#F15A24;stroke-width:5;" x1="399.222" y1="489" x2="399.222" y2="558"/>
		<polyline style="fill:none;stroke:#F15A24;stroke-width:5;" points="416.9,542.322 399.222,560 381.544,542.322 		"/>
	</g>
	<g>
		<line style="fill:none;stroke:#F15A24;stroke-width:5;" x1="467.369" y1="489" x2="467.369" y2="558"/>
		<polyline style="fill:none;stroke:#F15A24;stroke-width:5;" points="485.046,542.322 467.369,560 449.691,542.322 		"/>
	</g>
	<g>
		<line style="fill:none;stroke:#F15A24;stroke-width:5;" x1="535.516" y1="489" x2="535.516" y2="558"/>
		<polyline style="fill:none;stroke:#F15A24;stroke-width:5;" points="553.194,542.322 535.516,560 517.837,542.322 		"/>
	</g>
	<g>
		<line style="fill:none;stroke:#F15A24;stroke-width:5;" x1="603.665" y1="489" x2="603.665" y2="558"/>
		<polyline style="fill:none;stroke:#F15A24;stroke-width:5;" points="621.344,542.322 603.665,560 585.986,542.322 		"/>
	</g>
	<g>
		<line style="fill:none;stroke:#F15A24;stroke-width:5;" x1="671.814" y1="489" x2="671.814" y2="558"/>
		<polyline style="fill:none;stroke:#F15A24;stroke-width:5;" points="689.493,542.322 671.814,560 654.136,542.322 		"/>
	</g>
	<g>
		<line style="fill:none;stroke:#F15A24;stroke-width:5;" x1="739.964" y1="489" x2="739.964" y2="558"/>
		<polyline style="fill:none;stroke:#F15A24;stroke-width:5;" points="757.643,542.322 739.964,560 722.285,542.322 		"/>
	</g>
	<g>
		<line style="fill:none;stroke:#F15A24;stroke-width:5;" x1="808.113" y1="489" x2="808.113" y2="558"/>
		<polyline style="fill:none;stroke:#F15A24;stroke-width:5;" points="825.792,542.322 808.113,560 790.435,542.322 		"/>
	</g>
	<g>
		<line style="fill:none;stroke:#F15A24;stroke-width:5;" x1="876.256" y1="489" x2="876.256" y2="558"/>
		<polyline style="fill:none;stroke:#F15A24;stroke-width:5;" points="893.935,542.322 876.256,560 858.577,542.322 		"/>
	</g>
	<g>
		<path style="fill:#F15A24;stroke:#000000;stroke-width:2;" d="M585.398,513.363c0-3.416-0.111-6.328-0.224-8.735h7.168
			l0.392,3.696h0.168c1.176-1.736,3.584-4.313,8.289-4.313c3.527,0,6.328,1.792,7.504,4.648h0.111c1.008-1.4,2.24-2.521,3.528-3.305
			c1.512-0.896,3.192-1.344,5.208-1.344c5.264,0,9.24,3.696,9.24,11.872v16.128h-8.289v-14.896c0-3.976-1.287-6.271-4.031-6.271
			c-1.96,0-3.359,1.344-3.92,2.969c-0.225,0.615-0.336,1.512-0.336,2.184v16.016h-8.288v-15.344c0-3.473-1.231-5.824-3.92-5.824
			c-2.185,0-3.472,1.68-3.976,3.08c-0.281,0.672-0.336,1.456-0.336,2.128v15.96h-8.289V513.363z"/>
		<path style="fill:#F15A24;stroke:#000000;stroke-width:2;" d="M649.126,532.012l-0.504-2.744h-0.168
			c-1.792,2.184-4.593,3.36-7.84,3.36c-5.544,0-8.849-4.032-8.849-8.4c0-7.112,6.385-10.528,16.072-10.472v-0.393
			c0-1.455-0.783-3.527-4.984-3.527c-2.799,0-5.768,0.951-7.56,2.072l-1.567-5.488c1.903-1.064,5.655-2.408,10.64-2.408
			c9.128,0,12.04,5.376,12.04,11.816v9.52c0,2.632,0.111,5.152,0.392,6.664H649.126z M648.118,519.076
			c-4.479-0.057-7.952,1.008-7.952,4.312c0,2.185,1.456,3.248,3.359,3.248c2.129,0,3.865-1.399,4.425-3.136
			c0.112-0.448,0.168-0.952,0.168-1.456V519.076z"/>
		<path style="fill:#F15A24;stroke:#000000;stroke-width:2;" d="M663.126,513.813c0-3.584-0.112-6.664-0.224-9.185h7.392
			l0.392,3.808h0.112c2.017-2.912,5.151-4.424,9.128-4.424c5.992,0,11.368,5.208,11.368,13.943c0,9.969-6.328,14.673-12.433,14.673
			c-3.303,0-5.879-1.345-7.111-3.136h-0.112V543.1h-8.512V513.813z M671.638,520.252c0,0.672,0.056,1.287,0.169,1.792
			c0.559,2.296,2.52,4.032,4.983,4.032c3.696,0,5.88-3.08,5.88-7.729c0-4.367-1.96-7.672-5.768-7.672
			c-2.408,0-4.537,1.792-5.096,4.313c-0.113,0.447-0.169,1.008-0.169,1.512V520.252z"/>
	</g>
</g>
<g id="jfx:p06">
	<g>
		<path style="fill:#F15A24;" d="M77.503,579.644c0-4.032-0.112-6.663-0.224-9.016h7.336l0.28,5.04h0.224
			c1.4-3.977,4.76-5.656,7.392-5.656c0.784,0,1.176,0,1.792,0.112v8.008c-0.616-0.112-1.344-0.224-2.296-0.224
			c-3.136,0-5.264,1.68-5.824,4.312c-0.112,0.56-0.168,1.231-0.168,1.904v13.888h-8.512V579.644z"/>
		<path style="fill:#F15A24;" d="M105.334,587.035c0.28,3.529,3.752,5.209,7.728,5.209c2.912,0,5.264-0.393,7.56-1.121l1.12,5.769
			c-2.8,1.12-6.216,1.681-9.912,1.681c-9.296,0-14.616-5.377-14.616-13.944c0-6.944,4.312-14.616,13.832-14.616
			c8.848,0,12.208,6.889,12.208,13.664c0,1.456-0.168,2.744-0.28,3.359H105.334z M115.358,581.212c0-2.072-0.896-5.544-4.816-5.544
			c-3.584,0-5.04,3.248-5.264,5.544H115.358z"/>
		<path style="fill:#F15A24;" d="M154.894,558.252v31.584c0,3.08,0.112,6.328,0.224,8.176h-7.56l-0.392-4.032h-0.112
			c-1.736,3.08-5.04,4.648-8.568,4.648c-6.496,0-11.704-5.544-11.704-14.056c-0.056-9.24,5.712-14.561,12.264-14.561
			c3.36,0,5.992,1.176,7.224,3.08h0.112v-14.84H154.894z M146.382,582.22c0-0.448-0.056-1.063-0.112-1.512
			c-0.504-2.296-2.352-4.2-4.984-4.2c-3.864,0-5.88,3.473-5.88,7.784c0,4.647,2.296,7.56,5.824,7.56c2.464,0,4.424-1.68,4.928-4.088
			c0.168-0.615,0.224-1.232,0.224-1.96V582.22z"/>
		<path style="fill:#F15A24;" d="M187.542,589.22c0,3.584,0.112,6.496,0.224,8.792h-7.392l-0.392-3.863h-0.168
			c-1.064,1.68-3.64,4.479-8.568,4.479c-5.544,0-9.632-3.472-9.632-11.929v-16.071h8.568v14.728c0,3.977,1.288,6.385,4.256,6.385
			c2.352,0,3.696-1.625,4.256-2.969c0.224-0.504,0.28-1.176,0.28-1.848v-16.296h8.568V589.22z"/>
		<path style="fill:#F15A24;" d="M214.925,597.34c-1.512,0.672-4.368,1.232-7.616,1.232c-8.848,0-14.504-5.377-14.504-14
			c0-8.008,5.488-14.561,15.68-14.561c2.24,0,4.704,0.393,6.496,1.064l-1.344,6.328c-1.008-0.448-2.52-0.84-4.76-0.84
			c-4.48,0-7.392,3.191-7.336,7.672c0,5.039,3.36,7.672,7.504,7.672c2.016,0,3.584-0.336,4.872-0.84L214.925,597.34z"/>
		<path style="fill:#F15A24;" d="M226.18,587.035c0.28,3.529,3.752,5.209,7.728,5.209c2.912,0,5.264-0.393,7.56-1.121l1.12,5.769
			c-2.8,1.12-6.216,1.681-9.912,1.681c-9.296,0-14.616-5.377-14.616-13.944c0-6.944,4.312-14.616,13.832-14.616
			c8.848,0,12.208,6.889,12.208,13.664c0,1.456-0.168,2.744-0.28,3.359H226.18z M236.204,581.212c0-2.072-0.896-5.544-4.816-5.544
			c-3.584,0-5.04,3.248-5.264,5.544H236.204z"/>
	</g>
	<g>
		<path style="fill:#FFFFFF;stroke:#FFFFFF;" d="M232.713,520.5c0.096-1.536,0.192-4.368,0.192-7.009v-27.074h7.297v13.394h0.096
			c1.392-2.017,3.84-3.313,7.104-3.313c5.617,0,9.745,4.656,9.697,11.857c0,8.448-5.376,12.672-10.753,12.672
			c-2.736,0-5.376-1.008-7.057-3.791h-0.096l-0.288,3.264H232.713z M240.202,510.516c0,0.479,0.048,0.912,0.144,1.295
			c0.48,1.969,2.16,3.457,4.272,3.457c3.121,0,5.041-2.4,5.041-6.625c0-3.648-1.632-6.528-5.041-6.528
			c-1.968,0-3.792,1.488-4.272,3.601c-0.096,0.432-0.144,0.863-0.144,1.344V510.516z"/>
		<path style="fill:#FFFFFF;stroke:#FFFFFF;" d="M274.954,520.5l-0.432-2.352h-0.144c-1.536,1.871-3.936,2.879-6.721,2.879
			c-4.752,0-7.584-3.455-7.584-7.199c0-6.098,5.473-9.025,13.777-8.978v-0.336c0-1.248-0.672-3.024-4.272-3.024
			c-2.4,0-4.944,0.816-6.48,1.776l-1.344-4.704c1.632-0.912,4.849-2.064,9.121-2.064c7.825,0,10.321,4.608,10.321,10.129v8.16
			c0,2.257,0.096,4.417,0.336,5.713H274.954z M274.089,509.411c-3.84-0.048-6.816,0.864-6.816,3.696c0,1.872,1.248,2.784,2.88,2.784
			c1.824,0,3.312-1.2,3.792-2.688c0.096-0.384,0.144-0.816,0.144-1.248V509.411z"/>
		<path style="fill:#FFFFFF;stroke:#FFFFFF;" d="M286.905,514.115c1.344,0.816,4.128,1.776,6.289,1.776
			c2.208,0,3.12-0.769,3.12-1.968c0-1.201-0.72-1.776-3.456-2.688c-4.849-1.632-6.721-4.272-6.673-7.057
			c0-4.368,3.744-7.681,9.553-7.681c2.736,0,5.185,0.624,6.625,1.344l-1.296,5.041c-1.056-0.576-3.072-1.344-5.088-1.344
			c-1.776,0-2.784,0.719-2.784,1.92c0,1.104,0.912,1.68,3.792,2.688c4.464,1.537,6.337,3.793,6.385,7.249
			c0,4.368-3.457,7.585-10.177,7.585c-3.072,0-5.809-0.672-7.585-1.633L286.905,514.115z"/>
		<path style="fill:#FFFFFF;stroke:#FFFFFF;" d="M313.401,511.092c0.24,3.023,3.216,4.464,6.625,4.464
			c2.496,0,4.512-0.336,6.48-0.96l0.96,4.944c-2.4,0.96-5.328,1.44-8.497,1.44c-7.969,0-12.529-4.609-12.529-11.953
			c0-5.953,3.696-12.529,11.857-12.529c7.585,0,10.465,5.904,10.465,11.713c0,1.248-0.144,2.352-0.24,2.881H313.401z
			 M321.994,506.099c0-1.776-0.768-4.753-4.128-4.753c-3.072,0-4.32,2.785-4.513,4.753H321.994z"/>
	</g>
</g>
<g id="jfx:p07">
	<line style="fill:none;stroke:#F15A24;stroke-width:5;stroke-linecap:square;" x1="339.611" y1="564" x2="339.611" y2="591.012"/>
	<polyline style="fill:none;stroke:#F15A24;stroke-width:5;" points="280,530.782 280,564 399.223,564 399.223,477 	"/>
</g>
<g id="jfx:p08">
	
		<line style="fill:none;stroke:#F15A24;stroke-width:5;stroke-linecap:square;" x1="404.419" y1="591.521" x2="404.419" y2="618.533"/>
	<polyline style="fill:none;stroke:#F15A24;stroke-width:5;stroke-linecap:square;" points="339.611,591.012 469.227,591.012 
		469.227,477 	"/>
</g>
<g id="jfx:p09">
	
		<line style="fill:none;stroke:#F15A24;stroke-width:5;stroke-linecap:square;" x1="469.422" y1="621.524" x2="469.422" y2="648.536"/>
	<polyline style="fill:none;stroke:#F15A24;stroke-width:5;stroke-linecap:square;" points="404.614,621.015 534.23,621.015 
		534.23,477.003 	"/>
	
		<line style="fill:none;stroke:#F15A24;stroke-width:5;stroke-linecap:square;" x1="534.427" y1="651.527" x2="534.427" y2="678.539"/>
	<polyline style="fill:none;stroke:#F15A24;stroke-width:5;stroke-linecap:square;" points="469.618,651.018 599.237,651.018 
		599.237,478.009 	"/>
	
		<line style="fill:none;stroke:#F15A24;stroke-width:5;stroke-linecap:square;" x1="599.433" y1="679.529" x2="599.433" y2="706.541"/>
	<polyline style="fill:none;stroke:#F15A24;stroke-width:5;stroke-linecap:square;" points="534.621,679.02 664.243,679.02 
		664.243,478.02 	"/>
	<g>
		<path style="fill:#F15A24;" d="M686.887,564.477c0-3.023,2.072-5.208,5.04-5.208s4.983,2.128,4.983,5.208
			c0,2.969-2.016,5.152-5.039,5.152C688.959,569.629,686.887,567.445,686.887,564.477z"/>
		<path style="fill:#F15A24;" d="M701.446,564.477c0-3.023,2.072-5.208,5.04-5.208c2.969,0,4.984,2.128,4.984,5.208
			c0,2.969-2.016,5.152-5.04,5.152C703.519,569.629,701.446,567.445,701.446,564.477z"/>
		<path style="fill:#F15A24;" d="M716.006,564.477c0-3.023,2.072-5.208,5.04-5.208s4.983,2.128,4.983,5.208
			c0,2.969-2.016,5.152-5.039,5.152C718.078,569.629,716.006,567.445,716.006,564.477z"/>
		<path style="fill:#F15A24;" d="M730.565,564.477c0-3.023,2.072-5.208,5.04-5.208c2.969,0,4.984,2.128,4.984,5.208
			c0,2.969-2.016,5.152-5.04,5.152C732.638,569.629,730.565,567.445,730.565,564.477z"/>
		<path style="fill:#F15A24;" d="M745.125,564.477c0-3.023,2.072-5.208,5.04-5.208s4.983,2.128,4.983,5.208
			c0,2.969-2.016,5.152-5.039,5.152C747.197,569.629,745.125,567.445,745.125,564.477z"/>
		<path style="fill:#F15A24;" d="M759.685,564.477c0-3.023,2.072-5.208,5.04-5.208c2.969,0,4.984,2.128,4.984,5.208
			c0,2.969-2.016,5.152-5.04,5.152C761.757,569.629,759.685,567.445,759.685,564.477z"/>
	</g>
</g>
</svg>
