<?xml version="1.0" encoding="iso-8859-1"?>
<!-- Generator: Adobe Illustrator 16.2.0, SVG Export Plug-In . SVG Version: 6.00 Build 0)  -->
<!DOCTYPE svg PUBLIC "-//W3C//DTD SVG 1.1//EN" "http://www.w3.org/Graphics/SVG/1.1/DTD/svg11.dtd">
<svg version="1.1" xmlns="http://www.w3.org/2000/svg" xmlns:xlink="http://www.w3.org/1999/xlink" x="0px" y="0px" width="1024px"
	 height="768px" viewBox="0 0 1024 768" style="enable-background:new 0 0 1024 768;" xml:space="preserve">
<g id="jfx:p00">
	<image style="overflow:visible;" width="1024" height="768" xlink:href="8AB0E9CE.jpg" >
	</image>
</g>
<g id="jfx:p01">
	<g>
		<path style="fill:#FFFFFF;" d="M70.041,111.798c3.2-0.64,9.68-1.12,15.76-1.12c7.44,0,12,0.72,15.92,3.04
			c3.76,2,6.48,5.68,6.48,10.561c0,4.8-2.8,9.28-8.88,11.52v0.16c6.16,1.68,10.721,6.32,10.721,13.28c0,4.88-2.24,8.72-5.601,11.44
			c-3.92,3.12-10.48,4.88-21.2,4.88c-6,0-10.48-0.4-13.2-0.8V111.798z M82.121,132.438h4c6.4,0,9.84-2.64,9.84-6.64
			c0-4.08-3.12-6.24-8.64-6.24c-2.64,0-4.16,0.16-5.2,0.32V132.438z M82.121,156.359c1.2,0.16,2.64,0.16,4.72,0.16
			c5.52,0,10.4-2.08,10.4-7.76c0-5.44-4.88-7.6-10.96-7.6h-4.16V156.359z"/>
		<path style="fill:#FFFFFF;" d="M140.2,164.999l-0.72-3.92h-0.24c-2.56,3.12-6.56,4.8-11.2,4.8c-7.92,0-12.641-5.76-12.641-12
			c0-10.16,9.121-15.041,22.961-14.96v-0.56c0-2.08-1.12-5.04-7.12-5.04c-4,0-8.24,1.36-10.8,2.96l-2.24-7.84
			c2.72-1.52,8.08-3.44,15.2-3.44c13.041,0,17.201,7.68,17.201,16.88v13.601c0,3.76,0.16,7.36,0.56,9.52H140.2z M138.76,146.519
			c-6.4-0.08-11.36,1.44-11.36,6.16c0,3.12,2.08,4.64,4.8,4.64c3.04,0,5.52-2,6.32-4.48c0.16-0.64,0.24-1.36,0.24-2.08V146.519z"/>
		<path style="fill:#FFFFFF;" d="M189.561,164.039c-2.16,0.96-6.24,1.76-10.88,1.76c-12.64,0-20.72-7.68-20.72-20
			c0-11.44,7.84-20.801,22.4-20.801c3.2,0,6.72,0.56,9.28,1.52l-1.92,9.041c-1.44-0.64-3.6-1.2-6.8-1.2
			c-6.4,0-10.56,4.56-10.48,10.96c0,7.2,4.8,10.96,10.721,10.96c2.88,0,5.12-0.48,6.96-1.2L189.561,164.039z"/>
		<path style="fill:#FFFFFF;" d="M208.439,142.358h0.16c0.88-1.6,1.84-3.2,2.8-4.72l7.92-11.76h14.641l-14,15.84l16,23.281H221
			l-9.44-16.081l-3.12,3.84v12.24h-12.161v-56.801h12.161V142.358z"/>
		<path style="fill:#FFFFFF;" d="M277,125.878c-0.16,2.48-0.32,5.76-0.32,11.601v21.84c0,7.52-1.52,13.68-5.92,17.601
			c-4.32,3.68-10.16,4.8-15.92,4.8c-5.12,0-10.561-1.04-14.081-3.04l2.4-9.2c2.48,1.44,6.8,2.96,11.36,2.96
			c5.76,0,10.161-3.12,10.161-10.32v-2.56h-0.16c-2.32,3.28-6.08,5.12-10.561,5.12c-9.68,0-16.56-7.84-16.56-19.121
			c0-12.561,8.16-20.561,17.76-20.561c5.36,0,8.72,2.32,10.72,5.52h0.16l0.4-4.64H277z M264.519,141.798c0-0.8-0.08-1.6-0.24-2.24
			c-0.88-3.2-3.2-5.36-6.56-5.36c-4.4,0-8,4-8,11.12c0,5.84,2.88,10.4,8,10.4c3.12,0,5.6-2.08,6.4-4.96c0.32-0.88,0.4-2.16,0.4-3.2
			V141.798z"/>
		<path style="fill:#FFFFFF;" d="M286.438,138.758c0-5.76-0.16-9.52-0.32-12.88h10.48l0.4,7.2h0.32c2-5.68,6.8-8.08,10.561-8.08
			c1.12,0,1.68,0,2.56,0.16v11.44c-0.88-0.16-1.92-0.32-3.28-0.32c-4.48,0-7.52,2.4-8.32,6.16c-0.16,0.8-0.24,1.76-0.24,2.72v19.84
			h-12.161V138.758z"/>
		<path style="fill:#FFFFFF;" d="M355.478,144.999c0,14.32-10.16,20.88-20.641,20.88c-11.44,0-20.24-7.52-20.24-20.16
			c0-12.641,8.32-20.721,20.88-20.721C347.478,124.998,355.478,133.238,355.478,144.999z M327.157,145.398c0,6.72,2.8,11.76,8,11.76
			c4.72,0,7.76-4.72,7.76-11.76c0-5.84-2.24-11.76-7.76-11.76C329.317,133.638,327.157,139.639,327.157,145.398z"/>
		<path style="fill:#FFFFFF;" d="M399.877,152.439c0,5.12,0.16,9.28,0.32,12.56h-10.561l-0.56-5.52h-0.24
			c-1.52,2.4-5.2,6.4-12.24,6.4c-7.92,0-13.76-4.96-13.76-17.04v-22.961h12.24v21.041c0,5.68,1.84,9.121,6.08,9.121
			c3.36,0,5.28-2.32,6.08-4.24c0.32-0.72,0.4-1.68,0.4-2.64v-23.281h12.24V152.439z"/>
		<path style="fill:#FFFFFF;" d="M447.556,108.198v45.121c0,4.4,0.16,9.04,0.32,11.68h-10.8l-0.56-5.76h-0.16
			c-2.48,4.4-7.2,6.64-12.24,6.64c-9.28,0-16.72-7.92-16.72-20.08c-0.08-13.201,8.16-20.801,17.521-20.801
			c4.8,0,8.56,1.68,10.32,4.4h0.16v-21.201H447.556z M435.396,142.438c0-0.64-0.08-1.52-0.16-2.16c-0.72-3.28-3.36-6-7.12-6
			c-5.52,0-8.4,4.96-8.4,11.12c0,6.64,3.28,10.8,8.32,10.8c3.52,0,6.32-2.4,7.04-5.84c0.24-0.88,0.32-1.76,0.32-2.8V142.438z"/>
	</g>
	<g>
		<path style="fill:#FFFFFF;" d="M70.041,219.054h12.24v43.681h21.44v10.24H70.041V219.054z"/>
		<path style="fill:#FFFFFF;" d="M132.76,272.976l-0.72-3.92h-0.24c-2.56,3.12-6.56,4.8-11.2,4.8c-7.92,0-12.641-5.76-12.641-12
			c0-10.16,9.121-15.041,22.961-14.96v-0.56c0-2.08-1.12-5.04-7.12-5.04c-4,0-8.24,1.36-10.8,2.96l-2.24-7.84
			c2.72-1.52,8.08-3.44,15.2-3.44c13.041,0,17.201,7.68,17.201,16.88v13.601c0,3.76,0.16,7.36,0.56,9.52H132.76z M131.32,254.495
			c-6.4-0.08-11.36,1.44-11.36,6.16c0,3.12,2.08,4.64,4.8,4.64c3.04,0,5.52-2,6.32-4.48c0.16-0.64,0.24-1.36,0.24-2.08V254.495z"/>
		<path style="fill:#FFFFFF;" d="M152.759,246.335c0-4.88-0.16-9.04-0.32-12.48h10.24l0.56,5.28h0.24
			c1.68-2.48,5.12-6.16,11.84-6.16c5.041,0,9.041,2.56,10.72,6.64h0.16c1.44-2,3.2-3.6,5.04-4.72c2.16-1.28,4.56-1.92,7.44-1.92
			c7.52,0,13.2,5.28,13.2,16.96v23.041h-11.84v-21.28c0-5.68-1.84-8.96-5.76-8.96c-2.8,0-4.8,1.92-5.6,4.24
			c-0.32,0.88-0.48,2.16-0.48,3.12v22.88h-11.84v-21.92c0-4.96-1.76-8.32-5.6-8.32c-3.12,0-4.96,2.4-5.68,4.4
			c-0.4,0.96-0.48,2.08-0.48,3.041v22.8h-11.84V246.335z"/>
		<path style="fill:#FFFFFF;" d="M221.238,272.976c0.16-2.56,0.32-7.28,0.32-11.68v-45.121h12.161v22.32h0.16
			c2.32-3.36,6.4-5.52,11.84-5.52c9.36,0,16.241,7.76,16.161,19.761c0,14.08-8.96,21.12-17.92,21.12c-4.56,0-8.96-1.68-11.76-6.32
			h-0.16l-0.48,5.44H221.238z M233.719,256.335c0,0.8,0.08,1.521,0.24,2.16c0.8,3.28,3.6,5.76,7.12,5.76c5.2,0,8.4-4,8.4-11.04
			c0-6.081-2.72-10.88-8.4-10.88c-3.28,0-6.32,2.48-7.12,6c-0.16,0.72-0.24,1.44-0.24,2.24V256.335z"/>
		<path style="fill:#FFFFFF;" d="M307.318,216.174v45.121c0,4.4,0.16,9.04,0.32,11.68h-10.8l-0.56-5.76h-0.16
			c-2.48,4.4-7.2,6.64-12.24,6.64c-9.28,0-16.72-7.92-16.72-20.08c-0.08-13.201,8.16-20.801,17.521-20.801
			c4.8,0,8.56,1.68,10.32,4.4h0.16v-21.201H307.318z M295.158,250.415c0-0.64-0.08-1.52-0.16-2.16c-0.72-3.28-3.36-6-7.12-6
			c-5.52,0-8.4,4.96-8.4,11.12c0,6.64,3.28,10.8,8.32,10.8c3.52,0,6.32-2.4,7.04-5.84c0.24-0.88,0.32-1.76,0.32-2.8V250.415z"/>
		<path style="fill:#FFFFFF;" d="M339.317,272.976l-0.72-3.92h-0.24c-2.56,3.12-6.56,4.8-11.2,4.8c-7.92,0-12.641-5.76-12.641-12
			c0-10.16,9.121-15.041,22.961-14.96v-0.56c0-2.08-1.12-5.04-7.12-5.04c-4,0-8.24,1.36-10.8,2.96l-2.24-7.84
			c2.72-1.52,8.08-3.44,15.2-3.44c13.041,0,17.201,7.68,17.201,16.88v13.601c0,3.76,0.16,7.36,0.56,9.52H339.317z M337.877,254.495
			c-6.4-0.08-11.36,1.44-11.36,6.16c0,3.12,2.08,4.64,4.8,4.64c3.04,0,5.52-2,6.32-4.48c0.16-0.64,0.24-1.36,0.24-2.08V254.495z"/>
		<path style="fill:#FFFFFF;" d="M376.277,260.416c3.28,1.68,8.32,3.36,13.521,3.36c5.6,0,8.56-2.32,8.56-5.84
			c0-3.36-2.56-5.28-9.041-7.6c-8.96-3.12-14.8-8.08-14.8-15.92c0-9.2,7.68-16.24,20.401-16.24c6.08,0,10.56,1.28,13.76,2.72
			l-2.72,9.84c-2.16-1.04-6-2.56-11.28-2.56s-7.84,2.4-7.84,5.2c0,3.44,3.04,4.96,10,7.6c9.52,3.521,14,8.48,14,16.081
			c0,9.04-6.96,16.72-21.76,16.72c-6.16,0-12.24-1.6-15.28-3.28L376.277,260.416z"/>
		<path style="fill:#FFFFFF;" d="M427.797,233.854l5.84,19.201c0.64,2.32,1.44,5.2,1.92,7.28h0.24c0.56-2.08,1.2-5.04,1.76-7.28
			l4.8-19.201h13.04l-9.12,25.761c-5.6,15.521-9.36,21.761-13.761,25.681c-4.24,3.68-8.72,4.96-11.76,5.36l-2.56-10.32
			c1.52-0.24,3.44-0.96,5.28-2.08c1.84-0.96,3.84-2.88,5.04-4.88c0.4-0.56,0.64-1.2,0.64-1.76c0-0.4-0.08-1.04-0.56-2l-14.32-35.761
			H427.797z"/>
		<path style="fill:#FFFFFF;" d="M460.516,246.335c0-4.88-0.16-9.04-0.319-12.48h10.56l0.561,5.36h0.239
			c1.601-2.48,5.601-6.24,12.081-6.24c8,0,14,5.28,14,16.8v23.201h-12.16v-21.681c0-5.04-1.76-8.48-6.16-8.48
			c-3.36,0-5.36,2.32-6.16,4.56c-0.32,0.72-0.48,1.92-0.48,3.04v22.561h-12.16V246.335z"/>
		<path style="fill:#FFFFFF;" d="M520.996,222.654v11.2h8.721v8.96h-8.721v14.16c0,4.72,1.121,6.88,4.801,6.88
			c1.52,0,2.721-0.16,3.6-0.32l0.08,9.2c-1.6,0.64-4.48,1.04-7.92,1.04c-3.92,0-7.201-1.36-9.121-3.36
			c-2.24-2.32-3.359-6.08-3.359-11.6v-16h-5.2v-8.96h5.2v-8.48L520.996,222.654z"/>
		<path style="fill:#FFFFFF;" d="M558.996,272.976l-0.721-3.92h-0.24c-2.559,3.12-6.559,4.8-11.199,4.8
			c-7.92,0-12.641-5.76-12.641-12c0-10.16,9.121-15.041,22.961-14.96v-0.56c0-2.08-1.121-5.04-7.121-5.04
			c-4,0-8.24,1.36-10.799,2.96l-2.24-7.84c2.719-1.52,8.08-3.44,15.199-3.44c13.041,0,17.201,7.68,17.201,16.88v13.601
			c0,3.76,0.16,7.36,0.561,9.52H558.996z M557.557,254.495c-6.4-0.08-11.361,1.44-11.361,6.16c0,3.12,2.08,4.64,4.801,4.64
			c3.039,0,5.52-2,6.32-4.48c0.16-0.64,0.24-1.36,0.24-2.08V254.495z"/>
		<path style="fill:#FFFFFF;" d="M588.275,233.854l3.84,6.48c1.121,2,2.16,4,3.201,5.84h0.16c1.039-2.08,2-4.08,3.039-6l3.441-6.32
			h13.199l-12.881,18.641l13.041,20.48h-13.76l-3.92-7.04c-1.121-1.92-2.08-3.92-3.041-5.92h-0.24c-0.959,2.08-2,4-2.959,5.92
			l-3.68,7.04h-13.361l13.281-19.92l-12.961-19.201H588.275z"/>
	</g>
	<g>
		<path style="fill:#FFFFFF;" d="M82.281,330.079V384h-12.24v-53.921H82.281z"/>
		<path style="fill:#FFFFFF;" d="M106.04,333.679v11.2h8.72v8.96h-8.72V368c0,4.72,1.12,6.88,4.8,6.88c1.52,0,2.72-0.16,3.6-0.32
			l0.08,9.2c-1.6,0.64-4.48,1.04-7.92,1.04c-3.92,0-7.2-1.36-9.12-3.36c-2.24-2.32-3.36-6.08-3.36-11.6v-16h-5.2v-8.96h5.2v-8.48
			L106.04,333.679z"/>
		<path style="fill:#FFFFFF;" d="M131.159,368.32c0.4,5.04,5.36,7.44,11.041,7.44c4.16,0,7.52-0.56,10.8-1.6l1.6,8.24
			c-4,1.6-8.88,2.4-14.16,2.4c-13.28,0-20.88-7.68-20.88-19.92c0-9.92,6.16-20.88,19.76-20.88c12.641,0,17.44,9.84,17.44,19.521
			c0,2.08-0.24,3.92-0.4,4.8H131.159z M145.479,360c0-2.96-1.28-7.92-6.88-7.92c-5.12,0-7.2,4.64-7.521,7.92H145.479z"/>
		<path style="fill:#FFFFFF;" d="M164.039,357.759c0-5.76-0.16-9.52-0.32-12.88h10.48l0.4,7.2h0.32c2-5.68,6.8-8.08,10.561-8.08
			c1.12,0,1.68,0,2.56,0.16v11.44c-0.88-0.16-1.92-0.32-3.28-0.32c-4.48,0-7.52,2.4-8.32,6.16c-0.16,0.8-0.24,1.76-0.24,2.72V384
			h-12.161V357.759z"/>
		<path style="fill:#FFFFFF;" d="M216.679,384l-0.72-3.92h-0.24c-2.56,3.12-6.56,4.8-11.2,4.8c-7.92,0-12.641-5.76-12.641-12
			c0-10.16,9.121-15.041,22.961-14.96v-0.56c0-2.08-1.12-5.04-7.12-5.04c-4,0-8.24,1.36-10.8,2.96l-2.24-7.84
			c2.72-1.52,8.08-3.44,15.2-3.44c13.041,0,17.201,7.68,17.201,16.88v13.601c0,3.76,0.16,7.36,0.56,9.52H216.679z M215.239,365.52
			c-6.4-0.08-11.36,1.44-11.36,6.16c0,3.12,2.08,4.64,4.8,4.64c3.04,0,5.52-2,6.32-4.48c0.16-0.64,0.24-1.36,0.24-2.08V365.52z"/>
		<path style="fill:#FFFFFF;" d="M250.279,333.679v11.2h8.72v8.96h-8.72V368c0,4.72,1.12,6.88,4.8,6.88c1.52,0,2.72-0.16,3.6-0.32
			l0.08,9.2c-1.6,0.64-4.48,1.04-7.92,1.04c-3.92,0-7.2-1.36-9.12-3.36c-2.24-2.32-3.36-6.08-3.36-11.6v-16h-5.2v-8.96h5.2v-8.48
			L250.279,333.679z"/>
		<path style="fill:#FFFFFF;" d="M278.598,333.999c0,3.36-2.56,6.08-6.56,6.08c-3.84,0-6.4-2.72-6.32-6.08
			c-0.08-3.52,2.48-6.16,6.4-6.16C276.038,327.839,278.518,330.479,278.598,333.999z M266.038,384v-39.121h12.161V384H266.038z"/>
		<path style="fill:#FFFFFF;" d="M326.598,364c0,14.32-10.16,20.88-20.641,20.88c-11.44,0-20.24-7.52-20.24-20.16
			c0-12.641,8.32-20.721,20.88-20.721C318.598,343.999,326.598,352.239,326.598,364z M298.277,364.399c0,6.72,2.8,11.76,8,11.76
			c4.72,0,7.76-4.72,7.76-11.76c0-5.84-2.24-11.76-7.76-11.76C300.437,352.639,298.277,358.64,298.277,364.399z"/>
		<path style="fill:#FFFFFF;" d="M334.116,357.359c0-4.88-0.16-9.04-0.32-12.48h10.56l0.56,5.36h0.24c1.6-2.48,5.6-6.24,12.08-6.24
			c8,0,14,5.28,14,16.8V384h-12.16v-21.681c0-5.04-1.76-8.48-6.16-8.48c-3.36,0-5.36,2.32-6.16,4.56c-0.32,0.72-0.48,1.92-0.48,3.04
			V384h-12.161V357.359z"/>
		<path style="fill:#FFFFFF;" d="M410.116,370.16l-3.84,13.84h-12.641l16.48-53.921h16L442.837,384h-13.12l-4.16-13.84H410.116z
			 M423.796,361.04l-3.36-11.44c-0.96-3.2-1.92-7.2-2.72-10.4h-0.16c-0.8,3.2-1.6,7.28-2.48,10.4l-3.2,11.44H423.796z"/>
		<path style="fill:#FFFFFF;" d="M450.036,330.799c3.76-0.64,9.04-1.12,16.48-1.12c7.52,0,12.88,1.44,16.48,4.32
			c3.439,2.72,5.76,7.2,5.76,12.48c0,5.28-1.76,9.76-4.96,12.8c-4.16,3.92-10.32,5.68-17.521,5.68c-1.6,0-3.04-0.08-4.16-0.24V384
			h-12.08V330.799z M462.116,355.279c1.04,0.24,2.32,0.32,4.08,0.32c6.48,0,10.48-3.28,10.48-8.8c0-4.96-3.44-7.92-9.521-7.92
			c-2.479,0-4.16,0.24-5.04,0.48V355.279z"/>
		<path style="fill:#FFFFFF;" d="M508.755,330.079V384h-12.24v-53.921H508.755z"/>
	</g>
</g>
<g id="jfx:p02">
	<g>
		<path style="fill:#FFFFFF;" d="M126.983,411.447c2.56-0.512,7.744-0.895,12.607-0.895c5.952,0,9.6,0.575,12.735,2.432
			c3.008,1.6,5.184,4.543,5.184,8.447c0,3.84-2.24,7.423-7.104,9.215v0.128c4.928,1.345,8.575,5.056,8.575,10.624
			c0,3.903-1.792,6.975-4.479,9.15c-3.136,2.496-8.383,3.904-16.959,3.904c-4.799,0-8.383-0.32-10.559-0.641V411.447z
			 M136.646,427.959h3.2c5.12,0,7.871-2.112,7.871-5.313c0-3.264-2.496-4.991-6.911-4.991c-2.112,0-3.328,0.128-4.16,0.257V427.959z
			 M136.646,447.094c0.959,0.127,2.112,0.127,3.775,0.127c4.416,0,8.319-1.663,8.319-6.207c0-4.352-3.903-6.08-8.767-6.08h-3.328
			V447.094z"/>
		<path style="fill:#FFFFFF;" d="M194.82,443.957c0,4.096,0.128,7.424,0.256,10.048h-8.447l-0.448-4.415h-0.192
			c-1.216,1.92-4.16,5.119-9.792,5.119c-6.335,0-11.007-3.968-11.007-13.631v-18.367h9.791v16.831c0,4.544,1.472,7.296,4.864,7.296
			c2.688,0,4.224-1.856,4.864-3.393c0.256-0.576,0.32-1.344,0.32-2.111v-18.623h9.792V443.957z"/>
		<path style="fill:#FFFFFF;" d="M202.63,408.568h9.727v45.437h-9.727V408.568z"/>
		<path style="fill:#FFFFFF;" d="M229.957,435.895h0.128c0.704-1.28,1.472-2.561,2.24-3.775l6.335-9.408h11.711l-11.199,12.672
			l12.799,18.622h-11.967l-7.551-12.863l-2.496,3.071v9.792h-9.727v-45.437h9.727V435.895z"/>
		<path style="fill:#FFFFFF;" d="M307.65,431.99c0,14.143-8.576,22.719-21.183,22.719c-12.799,0-20.287-9.664-20.287-21.951
			c0-12.926,8.255-22.59,20.991-22.59C300.418,410.168,307.65,420.088,307.65,431.99z M276.484,432.566
			c0,8.447,3.968,14.398,10.495,14.398c6.592,0,10.368-6.271,10.368-14.654c0-7.744-3.712-14.398-10.432-14.398
			C280.324,417.912,276.484,424.184,276.484,432.566z"/>
		<path style="fill:#FFFFFF;" d="M313.732,433.207c0-4.096-0.128-7.616-0.256-10.496h8.447l0.448,4.352h0.128
			c2.304-3.328,5.888-5.055,10.432-5.055c6.847,0,12.991,5.951,12.991,15.934c0,11.392-7.231,16.768-14.207,16.768
			c-3.775,0-6.719-1.536-8.127-3.584h-0.128v15.551h-9.727V433.207z M323.459,440.566c0,0.768,0.064,1.471,0.192,2.047
			c0.64,2.624,2.879,4.607,5.695,4.607c4.224,0,6.72-3.52,6.72-8.83c0-4.992-2.24-8.768-6.592-8.768
			c-2.752,0-5.184,2.047-5.823,4.928c-0.128,0.512-0.192,1.151-0.192,1.728V440.566z"/>
		<path style="fill:#FFFFFF;" d="M359.491,441.462c0.32,4.032,4.288,5.952,8.832,5.952c3.328,0,6.016-0.449,8.639-1.281l1.28,6.592
			c-3.2,1.28-7.104,1.92-11.327,1.92c-10.623,0-16.703-6.143-16.703-15.935c0-7.936,4.928-16.702,15.807-16.702
			c10.111,0,13.951,7.871,13.951,15.614c0,1.664-0.192,3.136-0.32,3.84H359.491z M370.946,434.807c0-2.368-1.024-6.336-5.503-6.336
			c-4.096,0-5.76,3.712-6.016,6.336H370.946z"/>
		<path style="fill:#FFFFFF;" d="M385.796,433.015c0-4.608-0.128-7.616-0.256-10.304h8.383l0.32,5.76h0.256
			c1.6-4.543,5.44-6.463,8.448-6.463c0.896,0,1.344,0,2.048,0.127v9.152c-0.704-0.129-1.536-0.256-2.624-0.256
			c-3.584,0-6.016,1.919-6.655,4.927c-0.128,0.64-0.192,1.408-0.192,2.176v15.871h-9.727V433.015z"/>
		<path style="fill:#FFFFFF;" d="M427.906,454.005l-0.576-3.136h-0.192c-2.048,2.496-5.248,3.84-8.959,3.84
			c-6.335,0-10.111-4.607-10.111-9.6c0-8.127,7.295-12.031,18.367-11.967v-0.448c0-1.663-0.896-4.032-5.696-4.032
			c-3.2,0-6.591,1.088-8.639,2.369l-1.792-6.272c2.176-1.216,6.463-2.751,12.159-2.751c10.431,0,13.759,6.143,13.759,13.502v10.88
			c0,3.008,0.128,5.888,0.448,7.615H427.906z M426.754,439.223c-5.12-0.064-9.087,1.151-9.087,4.927c0,2.496,1.664,3.712,3.84,3.712
			c2.432,0,4.416-1.6,5.056-3.584c0.128-0.512,0.192-1.088,0.192-1.664V439.223z"/>
		<path style="fill:#FFFFFF;" d="M454.786,413.752v8.959h6.976v7.168h-6.976v11.327c0,3.775,0.896,5.503,3.84,5.503
			c1.216,0,2.176-0.127,2.88-0.256l0.064,7.359c-1.28,0.512-3.583,0.832-6.335,0.832c-3.136,0-5.76-1.088-7.295-2.688
			c-1.792-1.855-2.688-4.863-2.688-9.279v-12.799h-4.16v-7.168h4.16v-6.783L454.786,413.752z"/>
		<path style="fill:#FFFFFF;" d="M477.442,414.008c0,2.688-2.048,4.863-5.248,4.863c-3.071,0-5.119-2.176-5.055-4.863
			c-0.064-2.816,1.984-4.928,5.12-4.928S477.378,411.191,477.442,414.008z M467.395,454.005v-31.294h9.727v31.294H467.395z"/>
		<path style="fill:#FFFFFF;" d="M515.84,438.006c0,11.455-8.127,16.703-16.511,16.703c-9.151,0-16.191-6.016-16.191-16.127
			s6.656-16.574,16.703-16.574C509.44,422.008,515.84,428.599,515.84,438.006z M493.185,438.326c0,5.375,2.24,9.407,6.399,9.407
			c3.776,0,6.208-3.776,6.208-9.407c0-4.672-1.792-9.407-6.208-9.407C494.913,428.919,493.185,433.719,493.185,438.326z"/>
		<path style="fill:#FFFFFF;" d="M521.857,432.694c0-3.903-0.129-7.231-0.256-9.983h8.447l0.447,4.288h0.193
			c1.279-1.983,4.479-4.991,9.662-4.991c6.4,0,11.199,4.223,11.199,13.438v18.559h-9.727v-17.343c0-4.031-1.408-6.783-4.928-6.783
			c-2.688,0-4.287,1.855-4.928,3.647c-0.256,0.576-0.385,1.536-0.385,2.432v18.047h-9.727V432.694z"/>
	</g>
</g>
<g id="jfx:p03">
	<g>
		<path style="fill:#FFFFFF;" d="M126.983,481.451c3.008-0.512,7.231-0.895,13.183-0.895c6.016,0,10.303,1.151,13.183,3.455
			c2.752,2.176,4.607,5.76,4.607,9.983s-1.408,7.808-3.968,10.239c-3.328,3.136-8.255,4.543-14.015,4.543
			c-1.28,0-2.432-0.063-3.328-0.191v15.423h-9.664V481.451z M136.646,501.035c0.832,0.191,1.855,0.256,3.264,0.256
			c5.184,0,8.383-2.625,8.383-7.04c0-3.968-2.752-6.335-7.615-6.335c-1.984,0-3.328,0.191-4.032,0.383V501.035z"/>
		<path style="fill:#FFFFFF;" d="M181.637,524.009l-0.576-3.136h-0.192c-2.048,2.496-5.248,3.84-8.959,3.84
			c-6.335,0-10.111-4.607-10.111-9.6c0-8.127,7.295-12.031,18.367-11.967v-0.448c0-1.663-0.896-4.032-5.696-4.032
			c-3.2,0-6.591,1.088-8.639,2.369l-1.792-6.272c2.176-1.216,6.463-2.751,12.159-2.751c10.431,0,13.759,6.143,13.759,13.502v10.88
			c0,3.008,0.128,5.888,0.448,7.615H181.637z M180.485,509.227c-5.12-0.064-9.087,1.151-9.087,4.927c0,2.496,1.664,3.712,3.84,3.712
			c2.432,0,4.416-1.6,5.056-3.584c0.128-0.512,0.192-1.088,0.192-1.664V509.227z"/>
		<path style="fill:#FFFFFF;" d="M197.639,503.019c0-4.608-0.128-7.616-0.256-10.304h8.383l0.32,5.76h0.256
			c1.6-4.543,5.44-6.463,8.448-6.463c0.896,0,1.344,0,2.048,0.127v9.152c-0.704-0.129-1.536-0.256-2.624-0.256
			c-3.584,0-6.016,1.919-6.655,4.927c-0.128,0.64-0.192,1.408-0.192,2.176v15.871h-9.727V503.019z"/>
		<path style="fill:#FFFFFF;" d="M239.749,524.009l-0.576-3.136h-0.192c-2.048,2.496-5.248,3.84-8.959,3.84
			c-6.335,0-10.111-4.607-10.111-9.6c0-8.127,7.295-12.031,18.367-11.967v-0.448c0-1.663-0.896-4.032-5.696-4.032
			c-3.2,0-6.591,1.088-8.639,2.369l-1.792-6.272c2.176-1.216,6.463-2.751,12.159-2.751c10.431,0,13.759,6.143,13.759,13.502v10.88
			c0,3.008,0.128,5.888,0.448,7.615H239.749z M238.597,509.227c-5.12-0.064-9.087,1.151-9.087,4.927c0,2.496,1.664,3.712,3.84,3.712
			c2.432,0,4.416-1.6,5.056-3.584c0.128-0.512,0.192-1.088,0.192-1.664V509.227z"/>
		<path style="fill:#FFFFFF;" d="M255.75,478.572h9.727v45.437h-9.727V478.572z"/>
		<path style="fill:#FFFFFF;" d="M273.35,478.572h9.727v45.437h-9.727V478.572z"/>
		<path style="fill:#FFFFFF;" d="M298.437,511.466c0.32,4.032,4.288,5.952,8.832,5.952c3.328,0,6.016-0.449,8.639-1.281l1.28,6.592
			c-3.2,1.28-7.104,1.92-11.327,1.92c-10.623,0-16.703-6.143-16.703-15.935c0-7.936,4.928-16.702,15.807-16.702
			c10.111,0,13.951,7.871,13.951,15.614c0,1.664-0.192,3.136-0.32,3.84H298.437z M309.892,504.811c0-2.368-1.024-6.336-5.503-6.336
			c-4.096,0-5.76,3.712-6.016,6.336H309.892z"/>
		<path style="fill:#FFFFFF;" d="M324.741,478.572h9.727v45.437h-9.727V478.572z"/>
		<path style="fill:#FFFFFF;" d="M395.074,501.994c0,14.143-8.576,22.719-21.183,22.719c-12.799,0-20.287-9.664-20.287-21.951
			c0-12.926,8.255-22.59,20.991-22.59C387.842,480.172,395.074,490.092,395.074,501.994z M363.908,502.57
			c0,8.447,3.968,14.398,10.495,14.398c6.592,0,10.368-6.271,10.368-14.654c0-7.744-3.712-14.398-10.432-14.398
			C367.748,487.916,363.908,494.188,363.908,502.57z"/>
		<path style="fill:#FFFFFF;" d="M401.156,503.211c0-4.096-0.128-7.616-0.256-10.496h8.447l0.448,4.352h0.128
			c2.304-3.328,5.888-5.055,10.432-5.055c6.847,0,12.991,5.951,12.991,15.934c0,11.392-7.231,16.768-14.207,16.768
			c-3.775,0-6.719-1.536-8.127-3.584h-0.128v15.551h-9.727V503.211z M410.883,510.57c0,0.768,0.064,1.471,0.192,2.047
			c0.64,2.624,2.879,4.607,5.695,4.607c4.224,0,6.72-3.52,6.72-8.83c0-4.992-2.24-8.768-6.592-8.768
			c-2.752,0-5.184,2.047-5.823,4.928c-0.128,0.512-0.192,1.151-0.192,1.728V510.57z"/>
		<path style="fill:#FFFFFF;" d="M446.915,511.466c0.32,4.032,4.288,5.952,8.832,5.952c3.328,0,6.016-0.449,8.639-1.281l1.28,6.592
			c-3.2,1.28-7.104,1.92-11.327,1.92c-10.623,0-16.703-6.143-16.703-15.935c0-7.936,4.928-16.702,15.807-16.702
			c10.111,0,13.951,7.871,13.951,15.614c0,1.664-0.192,3.136-0.32,3.84H446.915z M458.37,504.811c0-2.368-1.024-6.336-5.503-6.336
			c-4.096,0-5.76,3.712-6.016,6.336H458.37z"/>
		<path style="fill:#FFFFFF;" d="M473.22,503.019c0-4.608-0.128-7.616-0.256-10.304h8.383l0.32,5.76h0.256
			c1.6-4.543,5.44-6.463,8.448-6.463c0.896,0,1.344,0,2.048,0.127v9.152c-0.704-0.129-1.536-0.256-2.624-0.256
			c-3.584,0-6.016,1.919-6.655,4.927c-0.128,0.64-0.192,1.408-0.192,2.176v15.871h-9.727V503.019z"/>
		<path style="fill:#FFFFFF;" d="M515.33,524.009l-0.576-3.136h-0.191c-2.048,2.496-5.249,3.84-8.96,3.84
			c-6.335,0-10.111-4.607-10.111-9.6c0-8.127,7.295-12.031,18.366-11.967v-0.448c0-1.663-0.896-4.032-5.695-4.032
			c-3.2,0-6.592,1.088-8.64,2.369l-1.792-6.272c2.176-1.216,6.463-2.751,12.159-2.751c10.432,0,13.758,6.143,13.758,13.502v10.88
			c0,3.008,0.129,5.888,0.449,7.615H515.33z M514.178,509.227c-5.12-0.064-9.087,1.151-9.087,4.927c0,2.496,1.664,3.712,3.84,3.712
			c2.432,0,4.416-1.6,5.056-3.584c0.127-0.512,0.191-1.088,0.191-1.664V509.227z"/>
		<path style="fill:#FFFFFF;" d="M542.211,483.756v8.959h6.975v7.168h-6.975v11.327c0,3.775,0.895,5.503,3.84,5.503
			c1.215,0,2.176-0.127,2.879-0.256l0.064,7.359c-1.281,0.512-3.584,0.832-6.336,0.832c-3.137,0-5.76-1.088-7.295-2.688
			c-1.793-1.855-2.688-4.863-2.688-9.279v-12.799h-4.16v-7.168h4.16v-6.783L542.211,483.756z"/>
		<path style="fill:#FFFFFF;" d="M564.865,484.012c0,2.688-2.047,4.863-5.248,4.863c-3.07,0-5.119-2.176-5.055-4.863
			c-0.064-2.816,1.984-4.928,5.119-4.928C562.818,479.084,564.801,481.195,564.865,484.012z M554.818,524.009v-31.294h9.727v31.294
			H554.818z"/>
		<path style="fill:#FFFFFF;" d="M603.264,508.01c0,11.455-8.127,16.703-16.512,16.703c-9.15,0-16.189-6.016-16.189-16.127
			s6.654-16.574,16.701-16.574C596.863,492.012,603.264,498.603,603.264,508.01z M580.609,508.33c0,5.375,2.24,9.407,6.398,9.407
			c3.775,0,6.209-3.776,6.209-9.407c0-4.672-1.793-9.407-6.209-9.407C582.336,498.923,580.609,503.723,580.609,508.33z"/>
		<path style="fill:#FFFFFF;" d="M609.281,502.698c0-3.903-0.129-7.231-0.256-9.983h8.447l0.447,4.288h0.193
			c1.279-1.983,4.479-4.991,9.662-4.991c6.4,0,11.199,4.223,11.199,13.438v18.559h-9.727v-17.343c0-4.031-1.408-6.783-4.928-6.783
			c-2.688,0-4.287,1.855-4.928,3.647c-0.256,0.576-0.385,1.536-0.385,2.432v18.047h-9.727V502.698z"/>
	</g>
</g>
<g id="jfx:p04">
	<g>
		<path style="fill:#FFFFFF;" d="M68.984,571.457c3.584-0.576,8.255-0.896,13.183-0.896c8.191,0,13.503,1.472,17.663,4.607
			c4.48,3.327,7.295,8.64,7.295,16.255c0,8.256-3.008,13.951-7.167,17.471c-4.543,3.775-11.455,5.567-19.902,5.567
			c-5.056,0-8.64-0.319-11.071-0.64V571.457z M78.775,606.654c0.832,0.192,2.176,0.192,3.392,0.192
			c8.832,0.063,14.591-4.8,14.591-15.103c0.064-8.959-5.184-13.695-13.567-13.695c-2.176,0-3.584,0.191-4.416,0.384V606.654z"/>
		<path style="fill:#FFFFFF;" d="M120.695,601.471c0.32,4.032,4.288,5.952,8.832,5.952c3.328,0,6.016-0.448,8.639-1.28l1.28,6.592
			c-3.2,1.279-7.104,1.92-11.327,1.92c-10.623,0-16.703-6.144-16.703-15.936c0-7.936,4.928-16.702,15.807-16.702
			c10.111,0,13.951,7.871,13.951,15.614c0,1.664-0.192,3.137-0.32,3.84H120.695z M132.15,594.815c0-2.368-1.024-6.335-5.503-6.335
			c-4.096,0-5.76,3.711-6.016,6.335H132.15z"/>
		<path style="fill:#FFFFFF;" d="M154.231,582.721l4.224,14.527c0.768,2.623,1.344,5.119,1.792,7.615h0.192
			c0.512-2.561,1.024-4.928,1.728-7.615l4.032-14.527h10.239l-11.647,31.293h-9.727l-11.391-31.293H154.231z"/>
		<path style="fill:#FFFFFF;" d="M188.407,601.471c0.32,4.032,4.288,5.952,8.832,5.952c3.328,0,6.016-0.448,8.639-1.28l1.28,6.592
			c-3.2,1.279-7.104,1.92-11.327,1.92c-10.623,0-16.703-6.144-16.703-15.936c0-7.936,4.928-16.702,15.807-16.702
			c10.111,0,13.951,7.871,13.951,15.614c0,1.664-0.192,3.137-0.32,3.84H188.407z M199.862,594.815c0-2.368-1.024-6.335-5.503-6.335
			c-4.096,0-5.76,3.711-6.016,6.335H199.862z"/>
		<path style="fill:#FFFFFF;" d="M214.712,568.578h9.727v45.436h-9.727V568.578z"/>
		<path style="fill:#FFFFFF;" d="M263.221,598.016c0,11.455-8.127,16.703-16.511,16.703c-9.151,0-16.191-6.016-16.191-16.127
			s6.656-16.575,16.703-16.575C256.822,582.017,263.221,588.607,263.221,598.016z M240.567,598.336c0,5.375,2.24,9.406,6.399,9.406
			c3.776,0,6.208-3.775,6.208-9.406c0-4.672-1.792-9.408-6.208-9.408C242.295,588.928,240.567,593.728,240.567,598.336z"/>
		<path style="fill:#FFFFFF;" d="M269.239,593.216c0-4.096-0.128-7.616-0.256-10.495h8.447l0.448,4.352h0.128
			c2.304-3.328,5.888-5.056,10.432-5.056c6.847,0,12.991,5.952,12.991,15.935c0,11.391-7.231,16.768-14.207,16.768
			c-3.775,0-6.719-1.537-8.127-3.584h-0.128v15.551h-9.727V593.216z M278.966,600.575c0,0.769,0.064,1.472,0.192,2.048
			c0.64,2.623,2.879,4.607,5.695,4.607c4.224,0,6.72-3.52,6.72-8.831c0-4.991-2.24-8.768-6.592-8.768
			c-2.752,0-5.184,2.048-5.823,4.928c-0.128,0.513-0.192,1.151-0.192,1.728V600.575z"/>
		<path style="fill:#FFFFFF;" d="M314.998,601.471c0.32,4.032,4.288,5.952,8.832,5.952c3.328,0,6.016-0.448,8.639-1.28l1.28,6.592
			c-3.2,1.279-7.104,1.92-11.327,1.92c-10.623,0-16.703-6.144-16.703-15.936c0-7.936,4.928-16.702,15.807-16.702
			c10.111,0,13.951,7.871,13.951,15.614c0,1.664-0.192,3.137-0.32,3.84H314.998z M326.453,594.815c0-2.368-1.024-6.335-5.503-6.335
			c-4.096,0-5.76,3.711-6.016,6.335H326.453z"/>
		<path style="fill:#FFFFFF;" d="M341.303,593.023c0-4.607-0.128-7.615-0.256-10.303h8.383l0.32,5.76h0.256
			c1.6-4.544,5.44-6.464,8.448-6.464c0.896,0,1.344,0,2.048,0.128v9.151c-0.704-0.128-1.536-0.256-2.624-0.256
			c-3.584,0-6.016,1.919-6.655,4.927c-0.128,0.641-0.192,1.408-0.192,2.176v15.871h-9.727V593.023z"/>
		<path style="fill:#FFFFFF;" d="M378.87,571.457c3.008-0.512,7.231-0.896,13.183-0.896c6.016,0,10.303,1.151,13.183,3.456
			c2.752,2.176,4.607,5.76,4.607,9.982c0,4.225-1.408,7.808-3.968,10.24c-3.328,3.135-8.255,4.543-14.015,4.543
			c-1.28,0-2.432-0.064-3.328-0.191v15.422h-9.664V571.457z M388.533,591.04c0.832,0.192,1.855,0.256,3.264,0.256
			c5.184,0,8.383-2.624,8.383-7.04c0-3.967-2.752-6.335-7.615-6.335c-1.984,0-3.328,0.192-4.032,0.384V591.04z"/>
		<path style="fill:#FFFFFF;" d="M415.733,593.023c0-4.607-0.128-7.615-0.256-10.303h8.383l0.32,5.76h0.256
			c1.6-4.544,5.44-6.464,8.448-6.464c0.896,0,1.344,0,2.048,0.128v9.151c-0.704-0.128-1.536-0.256-2.624-0.256
			c-3.584,0-6.016,1.919-6.655,4.927c-0.128,0.641-0.192,1.408-0.192,2.176v15.871h-9.727V593.023z"/>
		<path style="fill:#FFFFFF;" d="M447.541,601.471c0.319,4.032,4.287,5.952,8.831,5.952c3.328,0,6.016-0.448,8.64-1.28l1.279,6.592
			c-3.199,1.279-7.104,1.92-11.327,1.92c-10.623,0-16.703-6.144-16.703-15.936c0-7.936,4.928-16.702,15.807-16.702
			c10.111,0,13.951,7.871,13.951,15.614c0,1.664-0.192,3.137-0.32,3.84H447.541z M458.996,594.815c0-2.368-1.024-6.335-5.504-6.335
			c-4.096,0-5.76,3.711-6.016,6.335H458.996z"/>
		<path style="fill:#FFFFFF;" d="M481.076,582.721l4.224,14.527c0.769,2.623,1.345,5.119,1.792,7.615h0.192
			c0.512-2.561,1.023-4.928,1.728-7.615l4.032-14.527h10.239l-11.647,31.293h-9.728l-11.391-31.293H481.076z"/>
		<path style="fill:#FFFFFF;" d="M517.813,574.018c0,2.688-2.049,4.863-5.249,4.863c-3.071,0-5.119-2.176-5.056-4.863
			c-0.063-2.816,1.984-4.928,5.12-4.928C515.764,569.09,517.748,571.201,517.813,574.018z M507.764,614.014v-31.293h9.728v31.293
			H507.764z"/>
		<path style="fill:#FFFFFF;" d="M532.787,601.471c0.32,4.032,4.287,5.952,8.832,5.952c3.326,0,6.016-0.448,8.639-1.28l1.279,6.592
			c-3.199,1.279-7.104,1.92-11.326,1.92c-10.623,0-16.703-6.144-16.703-15.936c0-7.936,4.928-16.702,15.807-16.702
			c10.111,0,13.951,7.871,13.951,15.614c0,1.664-0.191,3.137-0.32,3.84H532.787z M544.242,594.815c0-2.368-1.023-6.335-5.504-6.335
			c-4.096,0-5.76,3.711-6.016,6.335H544.242z"/>
		<path style="fill:#FFFFFF;" d="M565.811,582.721l2.496,12.799c0.641,3.264,1.281,6.719,1.793,10.303h0.127
			c0.641-3.584,1.537-7.167,2.305-10.238l3.328-12.863h7.678l3.137,12.479c0.832,3.52,1.664,7.039,2.303,10.623h0.129
			c0.447-3.584,1.088-7.104,1.791-10.687l2.689-12.415h9.535l-9.6,31.293h-9.152l-2.943-11.007
			c-0.768-3.071-1.344-5.888-1.984-9.728h-0.127c-0.576,3.904-1.217,6.783-2.049,9.728l-3.135,11.007h-9.152l-9.086-31.293H565.811z
			"/>
	</g>
	<g>
		<path style="fill:#FFFFFF;" d="M125.688,650.932h7.297v13.393h0.096c0.768-1.008,1.728-1.775,2.88-2.4
			c1.056-0.576,2.448-0.912,3.792-0.912c4.656,0,8.208,3.217,8.208,10.273v13.729h-7.296v-12.912c0-3.072-1.056-5.186-3.792-5.186
			c-1.92,0-3.12,1.248-3.648,2.545c-0.192,0.48-0.24,1.104-0.24,1.632v13.921h-7.297V650.932z"/>
		<path style="fill:#FFFFFF;" d="M161.976,654.819v6.721h5.232v5.376h-5.232v8.498c0,2.832,0.672,4.127,2.88,4.127
			c0.912,0,1.632-0.096,2.16-0.191l0.048,5.521c-0.96,0.384-2.688,0.624-4.752,0.624c-2.352,0-4.32-0.816-5.472-2.016
			c-1.344-1.393-2.016-3.648-2.016-6.961v-9.602h-3.121v-5.376h3.121v-5.089L161.976,654.819z"/>
		<path style="fill:#FFFFFF;" d="M179.591,654.819v6.721h5.232v5.376h-5.232v8.498c0,2.832,0.672,4.127,2.88,4.127
			c0.912,0,1.632-0.096,2.16-0.191l0.048,5.521c-0.96,0.384-2.688,0.624-4.752,0.624c-2.352,0-4.32-0.816-5.472-2.016
			c-1.344-1.393-2.016-3.648-2.016-6.961v-9.602h-3.121v-5.376h3.121v-5.089L179.591,654.819z"/>
		<path style="fill:#FFFFFF;" d="M189.046,669.412c0-3.072-0.096-5.712-0.192-7.872h6.336l0.336,3.265h0.096
			c1.728-2.496,4.417-3.793,7.825-3.793c5.136,0,9.745,4.465,9.745,11.953c0,8.545-5.424,12.577-10.657,12.577
			c-2.833,0-5.041-1.151-6.097-2.688h-0.096v11.666h-7.297V669.412z M196.343,674.934c0,0.576,0.048,1.104,0.144,1.535
			c0.48,1.969,2.16,3.457,4.272,3.457c3.168,0,5.041-2.641,5.041-6.625c0-3.744-1.68-6.576-4.944-6.576
			c-2.064,0-3.888,1.536-4.368,3.696c-0.096,0.384-0.144,0.864-0.144,1.296V674.934z"/>
		<path style="fill:#FFFFFF;" d="M217.222,665.668c0-2.592,1.776-4.416,4.32-4.416c2.544,0,4.224,1.776,4.272,4.416
			c0,2.496-1.729,4.369-4.321,4.369C218.998,670.037,217.222,668.164,217.222,665.668z M217.222,681.174
			c0-2.545,1.776-4.416,4.32-4.416c2.544,0,4.224,1.824,4.272,4.416c0,2.496-1.729,4.368-4.321,4.368
			C218.998,685.542,217.222,683.67,217.222,681.174z"/>
		<path style="fill:#FFFFFF;" d="M228.069,686.934l10.273-34.803h4.848l-10.272,34.803H228.069z"/>
		<path style="fill:#FFFFFF;" d="M243.957,686.934l10.273-34.803h4.848l-10.272,34.803H243.957z"/>
		<path style="fill:#FFFFFF;" d="M257.157,689.334c1.92-0.144,3.408-0.576,4.32-1.535c1.056-1.104,1.44-2.977,1.44-7.633V661.54
			h7.345v20.354c0,5.136-1.152,8.256-3.313,10.272s-5.568,2.88-9.073,2.88L257.157,689.334z M270.454,655.012
			c0,2.016-1.488,3.648-3.937,3.648c-2.304,0-3.792-1.633-3.792-3.648c0-2.112,1.488-3.696,3.888-3.696
			C268.965,651.315,270.406,652.899,270.454,655.012z"/>
		<path style="fill:#FFFFFF;" d="M298.726,650.932v27.074c0,2.641,0.096,5.424,0.192,7.008h-6.48l-0.336-3.455h-0.096
			c-1.488,2.64-4.32,3.983-7.344,3.983c-5.569,0-10.033-4.753-10.033-12.049c-0.048-7.921,4.896-12.481,10.513-12.481
			c2.88,0,5.136,1.008,6.192,2.641h0.096v-12.721H298.726z M291.43,671.477c0-0.384-0.048-0.912-0.096-1.296
			c-0.432-1.968-2.016-3.601-4.272-3.601c-3.312,0-5.041,2.977-5.041,6.673c0,3.984,1.968,6.481,4.993,6.481
			c2.112,0,3.792-1.441,4.224-3.505c0.144-0.528,0.192-1.056,0.192-1.681V671.477z"/>
		<path style="fill:#FFFFFF;" d="M311.877,671.43h0.096c0.528-0.961,1.104-1.921,1.68-2.833l4.752-7.057h8.785l-8.4,9.505
			l9.601,13.969h-8.977l-5.665-9.648l-1.872,2.305v7.344h-7.297v-34.082h7.297V671.43z"/>
		<path style="fill:#FFFFFF;" d="M329.204,676.854c0-3.744,2.16-6.336,5.568-7.824v-0.145c-3.024-1.536-4.512-4.08-4.512-6.816
			c0-5.281,4.752-8.785,10.993-8.785c7.297,0,10.321,4.225,10.321,8.018c0,2.688-1.44,5.328-4.513,6.863v0.145
			c3.024,1.152,5.712,3.744,5.712,7.777c0,5.664-4.752,9.456-12.001,9.456C332.852,685.542,329.204,681.078,329.204,676.854z
			 M345.333,676.613c0-2.736-2.016-4.368-4.896-5.137c-2.4,0.672-3.792,2.4-3.792,4.656c-0.048,2.257,1.68,4.369,4.417,4.369
			C343.653,680.502,345.333,678.822,345.333,676.613z M337.125,661.828c0,2.112,1.92,3.457,4.416,4.225
			c1.68-0.48,3.168-2.017,3.168-3.984c0-1.92-1.104-3.84-3.792-3.84C338.42,658.229,337.125,659.859,337.125,661.828z"/>
		<path style="fill:#FFFFFF;" d="M356.708,681.126c0-2.593,1.776-4.464,4.32-4.464c2.544,0,4.272,1.824,4.272,4.464
			c0,2.544-1.729,4.416-4.321,4.416C358.483,685.542,356.708,683.67,356.708,681.126z"/>
		<path style="fill:#FFFFFF;" d="M364.867,689.334c1.92-0.144,3.408-0.576,4.32-1.535c1.056-1.104,1.44-2.977,1.44-7.633V661.54
			h7.345v20.354c0,5.136-1.152,8.256-3.313,10.272s-5.568,2.88-9.073,2.88L364.867,689.334z M378.164,655.012
			c0,2.016-1.488,3.648-3.937,3.648c-2.304,0-3.792-1.633-3.792-3.648c0-2.112,1.488-3.696,3.888-3.696
			C376.675,651.315,378.116,652.899,378.164,655.012z"/>
		<path style="fill:#FFFFFF;" d="M397.027,685.014l-0.432-2.352h-0.144c-1.536,1.872-3.936,2.88-6.721,2.88
			c-4.752,0-7.584-3.456-7.584-7.2c0-6.097,5.473-9.025,13.777-8.977v-0.336c0-1.248-0.672-3.025-4.272-3.025
			c-2.4,0-4.944,0.816-6.48,1.777l-1.344-4.705c1.632-0.912,4.849-2.064,9.121-2.064c7.825,0,10.321,4.609,10.321,10.129v8.161
			c0,2.257,0.096,4.417,0.336,5.712H397.027z M396.163,673.926c-3.84-0.049-6.816,0.863-6.816,3.695c0,1.873,1.248,2.785,2.88,2.785
			c1.824,0,3.312-1.201,3.792-2.689c0.096-0.383,0.144-0.815,0.144-1.248V673.926z"/>
		<path style="fill:#FFFFFF;" d="M414.451,661.54l3.168,10.897c0.576,1.968,1.008,3.84,1.344,5.712h0.144
			c0.384-1.92,0.768-3.696,1.296-5.712l3.024-10.897h7.681l-8.737,23.474h-7.297l-8.544-23.474H414.451z"/>
		<path style="fill:#FFFFFF;" d="M447.812,685.014l-0.432-2.352h-0.144c-1.536,1.872-3.936,2.88-6.721,2.88
			c-4.752,0-7.584-3.456-7.584-7.2c0-6.097,5.473-9.025,13.777-8.977v-0.336c0-1.248-0.672-3.025-4.272-3.025
			c-2.4,0-4.944,0.816-6.48,1.777l-1.344-4.705c1.632-0.912,4.849-2.064,9.121-2.064c7.825,0,10.321,4.609,10.321,10.129v8.161
			c0,2.257,0.096,4.417,0.336,5.712H447.812z M446.947,673.926c-3.84-0.049-6.816,0.863-6.816,3.695c0,1.873,1.248,2.785,2.88,2.785
			c1.824,0,3.312-1.201,3.792-2.689c0.096-0.383,0.144-0.815,0.144-1.248V673.926z"/>
		<path style="fill:#FFFFFF;" d="M459.283,681.126c0-2.593,1.776-4.464,4.32-4.464c2.544,0,4.272,1.824,4.272,4.464
			c0,2.544-1.729,4.416-4.321,4.416C461.059,685.542,459.283,683.67,459.283,681.126z"/>
		<path style="fill:#FFFFFF;" d="M472.29,669.029c0-2.929-0.096-5.425-0.192-7.489h6.336l0.336,3.216h0.144
			c0.96-1.488,3.36-3.744,7.249-3.744c4.801,0,8.401,3.168,8.401,10.081v13.921h-7.296v-13.009c0-3.024-1.056-5.089-3.697-5.089
			c-2.016,0-3.216,1.393-3.696,2.736c-0.192,0.433-0.288,1.152-0.288,1.824v13.537h-7.297V669.029z"/>
		<path style="fill:#FFFFFF;" d="M506.035,675.605c0.24,3.023,3.216,4.465,6.624,4.465c2.498,0,4.513-0.336,6.48-0.961l0.961,4.945
			c-2.4,0.959-5.328,1.439-8.497,1.439c-7.969,0-12.529-4.608-12.529-11.953c0-5.952,3.696-12.529,11.857-12.529
			c7.584,0,10.465,5.904,10.465,11.713c0,1.248-0.145,2.353-0.24,2.881H506.035z M514.627,670.613c0-1.776-0.768-4.753-4.128-4.753
			c-3.072,0-4.32,2.784-4.512,4.753H514.627z"/>
		<path style="fill:#FFFFFF;" d="M533.922,654.819v6.721h5.232v5.376h-5.232v8.498c0,2.832,0.672,4.127,2.881,4.127
			c0.912,0,1.633-0.096,2.16-0.191l0.049,5.521c-0.961,0.384-2.689,0.624-4.754,0.624c-2.352,0-4.32-0.816-5.473-2.016
			c-1.344-1.393-2.016-3.648-2.016-6.961v-9.602h-3.119v-5.376h3.119v-5.089L533.922,654.819z"/>
		<path style="fill:#FFFFFF;" d="M541.217,686.934l10.273-34.803h4.848l-10.273,34.803H541.217z"/>
		<path style="fill:#FFFFFF;" d="M559.266,650.932h7.295v34.082h-7.295V650.932z"/>
		<path style="fill:#FFFFFF;" d="M585.811,685.014l-0.432-2.352h-0.145c-1.537,1.872-3.938,2.88-6.721,2.88
			c-4.752,0-7.584-3.456-7.584-7.2c0-6.097,5.471-9.025,13.775-8.977v-0.336c0-1.248-0.672-3.025-4.271-3.025
			c-2.4,0-4.945,0.816-6.48,1.777l-1.344-4.705c1.631-0.912,4.848-2.064,9.121-2.064c7.824,0,10.32,4.609,10.32,10.129v8.161
			c0,2.257,0.096,4.417,0.336,5.712H585.811z M584.945,673.926c-3.84-0.049-6.816,0.863-6.816,3.695
			c0,1.873,1.248,2.785,2.881,2.785c1.824,0,3.313-1.201,3.793-2.689c0.096-0.383,0.143-0.815,0.143-1.248V673.926z"/>
		<path style="fill:#FFFFFF;" d="M597.809,669.029c0-2.929-0.096-5.425-0.191-7.489h6.145l0.336,3.169h0.143
			c1.01-1.488,3.072-3.697,7.105-3.697c3.023,0,5.424,1.537,6.434,3.984h0.096c0.863-1.199,1.92-2.16,3.023-2.832
			c1.297-0.768,2.736-1.152,4.465-1.152c4.512,0,7.92,3.168,7.92,10.178v13.824h-7.104v-12.769c0-3.408-1.105-5.376-3.457-5.376
			c-1.68,0-2.881,1.151-3.359,2.543c-0.193,0.529-0.289,1.297-0.289,1.873v13.729h-7.104v-13.152c0-2.977-1.057-4.992-3.361-4.992
			c-1.871,0-2.977,1.439-3.408,2.64c-0.24,0.576-0.287,1.248-0.287,1.824v13.681h-7.105V669.029z"/>
		<path style="fill:#FFFFFF;" d="M638.896,685.014c0.096-1.535,0.191-4.367,0.191-7.008v-27.074h7.297v13.393h0.096
			c1.393-2.016,3.84-3.313,7.105-3.313c5.615,0,9.744,4.656,9.695,11.857c0,8.449-5.375,12.673-10.752,12.673
			c-2.736,0-5.377-1.008-7.057-3.792h-0.096l-0.289,3.264H638.896z M646.385,675.029c0,0.48,0.047,0.912,0.145,1.296
			c0.479,1.968,2.16,3.456,4.271,3.456c3.121,0,5.041-2.4,5.041-6.624c0-3.648-1.633-6.528-5.041-6.528
			c-1.969,0-3.793,1.488-4.271,3.6c-0.098,0.433-0.145,0.864-0.145,1.344V675.029z"/>
		<path style="fill:#FFFFFF;" d="M690.545,650.932v27.074c0,2.641,0.096,5.424,0.191,7.008h-6.48l-0.336-3.455h-0.096
			c-1.488,2.64-4.32,3.983-7.344,3.983c-5.568,0-10.033-4.753-10.033-12.049c-0.049-7.921,4.896-12.481,10.512-12.481
			c2.881,0,5.137,1.008,6.193,2.641h0.096v-12.721H690.545z M683.248,671.477c0-0.384-0.047-0.912-0.096-1.296
			c-0.432-1.968-2.016-3.601-4.271-3.601c-3.313,0-5.041,2.977-5.041,6.673c0,3.984,1.969,6.481,4.992,6.481
			c2.111,0,3.793-1.441,4.225-3.505c0.145-0.528,0.191-1.056,0.191-1.681V671.477z"/>
		<path style="fill:#FFFFFF;" d="M709.744,685.014l-0.432-2.352h-0.145c-1.537,1.872-3.938,2.88-6.721,2.88
			c-4.752,0-7.584-3.456-7.584-7.2c0-6.097,5.471-9.025,13.775-8.977v-0.336c0-1.248-0.672-3.025-4.271-3.025
			c-2.4,0-4.945,0.816-6.48,1.777l-1.344-4.705c1.631-0.912,4.848-2.064,9.121-2.064c7.824,0,10.32,4.609,10.32,10.129v8.161
			c0,2.257,0.096,4.417,0.336,5.712H709.744z M708.879,673.926c-3.84-0.049-6.816,0.863-6.816,3.695
			c0,1.873,1.248,2.785,2.881,2.785c1.824,0,3.313-1.201,3.793-2.689c0.096-0.383,0.143-0.815,0.143-1.248V673.926z"/>
		<path style="fill:#FFFFFF;" d="M719.582,686.934l10.273-34.803h4.848l-10.273,34.803H719.582z"/>
	</g>
</g>
</svg>
