<?xml version="1.0" encoding="iso-8859-1"?>
<!-- Generator: Adobe Illustrator 16.1.1, SVG Export Plug-In . SVG Version: 6.00 Build 0)  -->
<!DOCTYPE svg PUBLIC "-//W3C//DTD SVG 1.1//EN" "http://www.w3.org/Graphics/SVG/1.1/DTD/svg11.dtd">
<svg version="1.1" xmlns="http://www.w3.org/2000/svg" xmlns:xlink="http://www.w3.org/1999/xlink" x="0px" y="0px" width="1024px"
	 height="768px" viewBox="0 0 1024 768" style="enable-background:new 0 0 1024 768;" xml:space="preserve">
<g id="jfx:p00">
	<image style="overflow:visible;" width="1024" height="768" xlink:href="CEEB79E0.jpg" >
	</image>
</g>
<g id="jfx:p01">
	<g>
		<g>
			<path style="fill:#FFFFFF;" d="M673.897,79.015h15.2v42.603c0,19.201-9.2,25.902-24.001,25.902c-3.5,0-8.101-0.6-11.101-1.6
				l1.7-12.301c2.1,0.7,4.8,1.2,7.8,1.2c6.4,0,10.401-2.9,10.401-13.401V79.015z"/>
			<path style="fill:#FFFFFF;" d="M729.098,146.419l-0.9-4.9h-0.3c-3.2,3.9-8.2,6-14.001,6c-9.9,0-15.801-7.201-15.801-15.001
				c0-12.701,11.4-18.801,28.702-18.701v-0.7c0-2.6-1.4-6.3-8.901-6.3c-5,0-10.3,1.7-13.5,3.7l-2.801-9.8
				c3.4-1.9,10.101-4.3,19.001-4.3c16.302,0,21.502,9.601,21.502,21.101v17.001c0,4.701,0.2,9.201,0.7,11.901H729.098z
				 M727.298,123.317c-8.001-0.1-14.201,1.8-14.201,7.701c0,3.9,2.601,5.8,6,5.8c3.801,0,6.9-2.5,7.9-5.601
				c0.2-0.8,0.301-1.7,0.301-2.6V123.317z"/>
			<path style="fill:#FFFFFF;" d="M765.396,97.516l6.601,22.701c1.2,4.1,2.1,8,2.8,11.901h0.3c0.801-4,1.601-7.701,2.7-11.901
				l6.301-22.701h16.001l-18.201,48.903h-15.201l-17.801-48.903H765.396z"/>
			<path style="fill:#FFFFFF;" d="M834.897,146.419l-0.9-4.9h-0.3c-3.2,3.9-8.2,6-14.001,6c-9.9,0-15.801-7.201-15.801-15.001
				c0-12.701,11.4-18.801,28.702-18.701v-0.7c0-2.6-1.4-6.3-8.901-6.3c-5,0-10.3,1.7-13.5,3.7l-2.801-9.8
				c3.4-1.9,10.101-4.3,19.001-4.3c16.302,0,21.502,9.601,21.502,21.101v17.001c0,4.701,0.2,9.201,0.7,11.901H834.897z
				 M833.098,123.317c-8.001-0.1-14.201,1.8-14.201,7.701c0,3.9,2.601,5.8,6,5.8c3.801,0,6.9-2.5,7.9-5.601
				c0.2-0.8,0.301-1.7,0.301-2.6V123.317z"/>
			<path style="fill:#FFFFFF;" d="M860.396,79.015h41.202v12.501h-25.901v15.401h24.202v12.401h-24.202v27.102h-15.301V79.015z"/>
			<path style="fill:#FFFFFF;" d="M948.597,146.419l-6.101-12.201c-2.5-4.7-4.1-8.201-6-12.101h-0.2c-1.399,3.9-3.1,7.4-5.2,12.101
				l-5.601,12.201h-17.4l19.501-34.102l-18.801-33.302h17.501l5.9,12.301c2,4.101,3.5,7.4,5.1,11.201h0.2
				c1.601-4.3,2.9-7.3,4.601-11.201l5.7-12.301h17.401l-19.001,32.902l20.001,34.502H948.597z"/>
		</g>
	</g>
</g>
<g id="jfx:p02">
	<g>
		<g>
			<path style="fill:#FFFFFF;" d="M398.361,223.224c3.2-0.64,9.68-1.12,15.76-1.12c7.44,0,12,0.72,15.92,3.04
				c3.76,2,6.48,5.68,6.48,10.561c0,4.8-2.8,9.28-8.88,11.52v0.16c6.16,1.68,10.721,6.32,10.721,13.28c0,4.88-2.24,8.72-5.601,11.44
				c-3.92,3.12-10.48,4.88-21.2,4.88c-6,0-10.48-0.4-13.2-0.8V223.224z M410.441,243.864h4c6.4,0,9.84-2.64,9.84-6.64
				c0-4.08-3.12-6.24-8.64-6.24c-2.64,0-4.16,0.16-5.2,0.32V243.864z M410.441,267.785c1.2,0.16,2.64,0.16,4.72,0.16
				c5.52,0,10.4-2.08,10.4-7.76c0-5.44-4.88-7.6-10.96-7.6h-4.16V267.785z"/>
			<path style="fill:#FFFFFF;" d="M468.521,276.425l-0.72-3.92h-0.24c-2.56,3.12-6.56,4.8-11.2,4.8c-7.92,0-12.641-5.76-12.641-12
				c0-10.16,9.121-15.041,22.961-14.96v-0.56c0-2.08-1.12-5.04-7.12-5.04c-4,0-8.24,1.36-10.8,2.96l-2.24-7.84
				c2.72-1.52,8.08-3.44,15.2-3.44c13.041,0,17.201,7.68,17.201,16.88v13.601c0,3.76,0.16,7.36,0.56,9.52H468.521z M467.081,257.944
				c-6.4-0.08-11.36,1.44-11.36,6.16c0,3.12,2.08,4.64,4.8,4.64c3.04,0,5.52-2,6.32-4.48c0.16-0.64,0.24-1.36,0.24-2.08V257.944z"/>
			<path style="fill:#FFFFFF;" d="M488.441,265.785c2.24,1.36,6.88,2.96,10.48,2.96c3.68,0,5.2-1.28,5.2-3.28
				c0-2-1.2-2.96-5.76-4.48c-8.08-2.72-11.2-7.12-11.12-11.76c0-7.28,6.24-12.8,15.92-12.8c4.56,0,8.64,1.04,11.04,2.24l-2.16,8.4
				c-1.76-0.96-5.12-2.24-8.48-2.24c-2.96,0-4.64,1.2-4.64,3.2c0,1.84,1.52,2.8,6.32,4.48c7.44,2.56,10.561,6.32,10.641,12.08
				c0,7.28-5.761,12.64-16.961,12.64c-5.12,0-9.68-1.12-12.64-2.72L488.441,265.785z"/>
			<path style="fill:#FFFFFF;" d="M535.801,226.424c0,3.36-2.561,6.08-6.561,6.08c-3.84,0-6.4-2.72-6.32-6.08
				c-0.08-3.52,2.48-6.16,6.4-6.16S535.721,222.904,535.801,226.424z M523.24,276.425v-39.121h12.16v39.121H523.24z"/>
			<path style="fill:#FFFFFF;" d="M574.52,275.465c-2.16,0.96-6.24,1.76-10.88,1.76c-12.641,0-20.721-7.68-20.721-20
				c0-11.44,7.841-20.801,22.4-20.801c3.2,0,6.721,0.56,9.28,1.52l-1.92,9.041c-1.439-0.64-3.6-1.2-6.8-1.2
				c-6.4,0-10.561,4.56-10.48,10.96c0,7.2,4.8,10.96,10.721,10.96c2.88,0,5.12-0.48,6.96-1.2L574.52,275.465z"/>
			<path style="fill:#FFFFFF;" d="M581.158,265.785c2.24,1.36,6.88,2.96,10.48,2.96c3.68,0,5.2-1.28,5.2-3.28
				c0-2-1.2-2.96-5.761-4.48c-8.08-2.72-11.2-7.12-11.12-11.76c0-7.28,6.24-12.8,15.921-12.8c4.56,0,8.64,1.04,11.04,2.24l-2.16,8.4
				c-1.76-0.96-5.12-2.24-8.48-2.24c-2.96,0-4.64,1.2-4.64,3.2c0,1.84,1.52,2.8,6.32,4.48c7.439,2.56,10.56,6.32,10.64,12.08
				c0,7.28-5.76,12.64-16.96,12.64c-5.12,0-9.681-1.12-12.641-2.72L581.158,265.785z"/>
			<path style="fill:#FFFFFF;" d="M670.758,256.424c0,14.32-10.16,20.88-20.641,20.88c-11.439,0-20.24-7.52-20.24-20.16
				c0-12.641,8.32-20.721,20.881-20.721C662.758,236.424,670.758,244.664,670.758,256.424z M642.438,256.824
				c0,6.72,2.8,11.76,8,11.76c4.72,0,7.761-4.72,7.761-11.76c0-5.84-2.24-11.76-7.761-11.76
				C644.598,245.064,642.438,251.064,642.438,256.824z"/>
			<path style="fill:#FFFFFF;" d="M679.637,276.425v-30.161h-5.12v-8.96h5.12v-1.52c0-4.72,1.44-9.92,4.96-13.12
				c3.04-2.88,7.28-3.92,10.801-3.92c2.72,0,4.8,0.32,6.479,0.8l-0.479,9.36c-1.04-0.32-2.32-0.56-3.92-0.56
				c-4,0-5.681,3.12-5.681,6.96v2h7.841v8.96h-7.761v30.161H679.637z"/>
			<path style="fill:#FFFFFF;" d="M732.676,222.503h12.16v34.081c0,15.36-7.359,20.72-19.2,20.72c-2.8,0-6.48-0.48-8.88-1.28
				l1.359-9.84c1.681,0.56,3.841,0.96,6.24,0.96c5.12,0,8.32-2.32,8.32-10.72V222.503z"/>
			<path style="fill:#FFFFFF;" d="M776.836,276.425l-0.721-3.92h-0.24c-2.56,3.12-6.56,4.8-11.199,4.8
				c-7.921,0-12.641-5.76-12.641-12c0-10.16,9.12-15.041,22.961-14.96v-0.56c0-2.08-1.12-5.04-7.12-5.04
				c-4.001,0-8.24,1.36-10.801,2.96l-2.24-7.84c2.721-1.52,8.08-3.44,15.2-3.44c13.04,0,17.2,7.68,17.2,16.88v13.601
				c0,3.76,0.16,7.36,0.561,9.52H776.836z M775.396,257.944c-6.4-0.08-11.36,1.44-11.36,6.16c0,3.12,2.08,4.64,4.801,4.64
				c3.04,0,5.52-2,6.319-4.48c0.16-0.64,0.24-1.36,0.24-2.08V257.944z"/>
			<path style="fill:#FFFFFF;" d="M805.875,237.304l5.28,18.161c0.96,3.28,1.681,6.4,2.24,9.52h0.24c0.64-3.2,1.28-6.16,2.16-9.52
				l5.04-18.161h12.8l-14.56,39.121h-12.161l-14.24-39.121H805.875z"/>
			<path style="fill:#FFFFFF;" d="M861.476,276.425l-0.721-3.92h-0.24c-2.56,3.12-6.56,4.8-11.2,4.8c-7.92,0-12.64-5.76-12.64-12
				c0-10.16,9.12-15.041,22.96-14.96v-0.56c0-2.08-1.12-5.04-7.12-5.04c-4,0-8.24,1.36-10.8,2.96l-2.24-7.84
				c2.72-1.52,8.08-3.44,15.2-3.44c13.04,0,17.2,7.68,17.2,16.88v13.601c0,3.76,0.16,7.36,0.561,9.52H861.476z M860.035,257.944
				c-6.4-0.08-11.36,1.44-11.36,6.16c0,3.12,2.08,4.64,4.8,4.64c3.04,0,5.521-2,6.32-4.48c0.16-0.64,0.24-1.36,0.24-2.08V257.944z"
				/>
			<path style="fill:#FFFFFF;" d="M881.875,222.503h32.961v10h-20.721v12.32h19.36v9.92h-19.36v21.681h-12.24V222.503z"/>
			<path style="fill:#FFFFFF;" d="M952.435,276.425l-4.88-9.76c-2-3.76-3.28-6.56-4.8-9.68h-0.16c-1.12,3.12-2.48,5.92-4.16,9.68
				l-4.48,9.76h-13.92l15.601-27.281l-15.041-26.641h14.001l4.72,9.84c1.6,3.28,2.8,5.92,4.08,8.96h0.16
				c1.28-3.44,2.32-5.84,3.68-8.96l4.561-9.84h13.92l-15.2,26.321l16,27.601H952.435z"/>
		</g>
	</g>
</g>
<g id="jfx:p03">
	<g>
		<g>
			<path style="fill:#FFFFFF;" d="M663.076,316.502h32.961v10h-20.721v12.32h19.36v9.92h-19.36v21.681h-12.24V316.502z"/>
			<path style="fill:#FFFFFF;" d="M714.195,354.744c0.4,5.04,5.36,7.44,11.041,7.44c4.159,0,7.52-0.56,10.8-1.6l1.6,8.24
				c-4,1.6-8.88,2.4-14.16,2.4c-13.28,0-20.88-7.68-20.88-19.92c0-9.92,6.16-20.88,19.76-20.88c12.641,0,17.44,9.84,17.44,19.521
				c0,2.08-0.239,3.92-0.399,4.8H714.195z M728.516,346.423c0-2.96-1.279-7.92-6.88-7.92c-5.12,0-7.2,4.64-7.521,7.92H728.516z"/>
			<path style="fill:#FFFFFF;" d="M769.316,370.424l-0.721-3.92h-0.239c-2.561,3.12-6.561,4.8-11.2,4.8
				c-7.921,0-12.641-5.76-12.641-12c0-10.16,9.12-15.041,22.961-14.96v-0.56c0-2.08-1.12-5.04-7.12-5.04
				c-4.001,0-8.24,1.36-10.801,2.96l-2.24-7.84c2.721-1.52,8.08-3.44,15.2-3.44c13.041,0,17.201,7.68,17.201,16.88v13.601
				c0,3.76,0.159,7.36,0.56,9.52H769.316z M767.876,351.943c-6.4-0.08-11.36,1.44-11.36,6.16c0,3.12,2.08,4.64,4.801,4.64
				c3.04,0,5.52-2,6.319-4.48c0.16-0.64,0.24-1.36,0.24-2.08V351.943z"/>
			<path style="fill:#FFFFFF;" d="M802.916,320.103v11.2h8.721v8.96h-8.721v14.16c0,4.72,1.12,6.88,4.801,6.88
				c1.52,0,2.72-0.16,3.6-0.32l0.08,9.2c-1.601,0.64-4.48,1.04-7.92,1.04c-3.921,0-7.2-1.36-9.12-3.36
				c-2.24-2.32-3.36-6.08-3.36-11.6v-16h-5.2v-8.96h5.2v-8.48L802.916,320.103z"/>
			<path style="fill:#FFFFFF;" d="M855.556,357.864c0,5.12,0.16,9.28,0.32,12.56h-10.561l-0.56-5.52h-0.24
				c-1.52,2.4-5.2,6.4-12.24,6.4c-7.92,0-13.76-4.96-13.76-17.04v-22.961h12.24v21.041c0,5.68,1.84,9.121,6.08,9.121
				c3.359,0,5.28-2.32,6.08-4.24c0.319-0.72,0.399-1.68,0.399-2.64v-23.281h12.24V357.864z"/>
			<path style="fill:#FFFFFF;" d="M865.314,344.183c0-5.76-0.159-9.52-0.319-12.88h10.48l0.399,7.2h0.32
				c2-5.68,6.8-8.08,10.561-8.08c1.119,0,1.68,0,2.56,0.16v11.44c-0.88-0.16-1.92-0.32-3.28-0.32c-4.479,0-7.52,2.4-8.32,6.16
				c-0.159,0.8-0.239,1.76-0.239,2.72v19.84h-12.161V344.183z"/>
			<path style="fill:#FFFFFF;" d="M905.074,354.744c0.4,5.04,5.36,7.44,11.041,7.44c4.159,0,7.52-0.56,10.8-1.6l1.6,8.24
				c-4,1.6-8.88,2.4-14.16,2.4c-13.28,0-20.88-7.68-20.88-19.92c0-9.92,6.16-20.88,19.76-20.88c12.641,0,17.44,9.84,17.44,19.521
				c0,2.08-0.239,3.92-0.399,4.8H905.074z M919.395,346.423c0-2.96-1.279-7.92-6.88-7.92c-5.12,0-7.2,4.64-7.521,7.92H919.395z"/>
			<path style="fill:#FFFFFF;" d="M937.875,359.784c2.239,1.36,6.88,2.96,10.479,2.96c3.681,0,5.2-1.28,5.2-3.28
				c0-2-1.2-2.96-5.76-4.48c-8.08-2.72-11.2-7.12-11.12-11.76c0-7.28,6.24-12.8,15.92-12.8c4.561,0,8.641,1.04,11.04,2.24
				l-2.159,8.4c-1.761-0.96-5.12-2.24-8.48-2.24c-2.96,0-4.641,1.2-4.641,3.2c0,1.84,1.521,2.8,6.32,4.48
				c7.44,2.56,10.561,6.32,10.641,12.08c0,7.28-5.761,12.64-16.961,12.64c-5.12,0-9.68-1.12-12.64-2.72L937.875,359.784z"/>
		</g>
	</g>
</g>
</svg>
