<?xml version="1.0" encoding="iso-8859-1"?>
<!-- Generator: Adobe Illustrator 16.1.1, SVG Export Plug-In . SVG Version: 6.00 Build 0)  -->
<!DOCTYPE svg PUBLIC "-//W3C//DTD SVG 1.1//EN" "http://www.w3.org/Graphics/SVG/1.1/DTD/svg11.dtd">
<svg version="1.1" xmlns="http://www.w3.org/2000/svg" xmlns:xlink="http://www.w3.org/1999/xlink" x="0px" y="0px" width="1024px"
	 height="768px" viewBox="0 0 1024 768" style="enable-background:new 0 0 1024 768;" xml:space="preserve">
<g id="jfx:p00">
	<image style="overflow:visible;" width="1024" height="768" xlink:href="DFF13D35.jpg" >
	</image>
</g>
<g id="jfx:p01">
	<g>
		<path d="M127.442,78.015h15.201v42.603c0,19.201-9.2,25.902-24.001,25.902c-3.5,0-8.1-0.6-11.101-1.6l1.7-12.301
			c2.1,0.7,4.8,1.2,7.8,1.2c6.4,0,10.401-2.9,10.401-13.401V78.015z"/>
		<path d="M182.642,145.419l-0.9-4.9h-0.3c-3.2,3.9-8.201,6-14.001,6c-9.9,0-15.801-7.201-15.801-15.001
			c0-12.701,11.4-18.801,28.702-18.701v-0.7c0-2.6-1.4-6.3-8.901-6.3c-5,0-10.3,1.7-13.5,3.7l-2.8-9.8
			c3.4-1.9,10.101-4.3,19.001-4.3c16.301,0,21.501,9.601,21.501,21.101v17.001c0,4.701,0.2,9.201,0.7,11.901H182.642z
			 M180.842,122.317c-8-0.1-14.201,1.8-14.201,7.701c0,3.9,2.601,5.8,6,5.8c3.8,0,6.9-2.5,7.9-5.601c0.2-0.8,0.3-1.7,0.3-2.6
			V122.317z"/>
		<path d="M218.941,96.516l6.601,22.701c1.2,4.1,2.1,8,2.8,11.901h0.3c0.8-4,1.6-7.701,2.7-11.901l6.3-22.701h16.001l-18.201,48.903
			h-15.201L202.44,96.516H218.941z"/>
		<path d="M288.442,145.419l-0.9-4.9h-0.3c-3.2,3.9-8.201,6-14.001,6c-9.9,0-15.801-7.201-15.801-15.001
			c0-12.701,11.4-18.801,28.702-18.701v-0.7c0-2.6-1.4-6.3-8.901-6.3c-5,0-10.3,1.7-13.5,3.7l-2.8-9.8
			c3.4-1.9,10.101-4.3,19.001-4.3c16.301,0,21.501,9.601,21.501,21.101v17.001c0,4.701,0.2,9.201,0.7,11.901H288.442z
			 M286.642,122.317c-8-0.1-14.201,1.8-14.201,7.701c0,3.9,2.601,5.8,6,5.8c3.8,0,6.9-2.5,7.9-5.601c0.2-0.8,0.3-1.7,0.3-2.6
			V122.317z"/>
		<path d="M313.94,78.015h41.202v12.501h-25.901v15.401h24.202v12.401h-24.202v27.102H313.94V78.015z"/>
		<path d="M402.142,145.419l-6.101-12.201c-2.5-4.7-4.1-8.201-6-12.101h-0.2c-1.4,3.9-3.1,7.4-5.2,12.101l-5.601,12.201h-17.401
			l19.501-34.102l-18.801-33.302h17.501l5.9,12.301c2,4.101,3.5,7.4,5.1,11.201h0.2c1.6-4.3,2.9-7.3,4.6-11.201l5.701-12.301h17.401
			l-19.001,32.902l20.001,34.502H402.142z"/>
	</g>
</g>
<g id="jfx:p02">
	<g>
		<path d="M121.474,211.862c2.56-0.512,7.744-0.896,12.607-0.896c5.952,0,9.6,0.576,12.735,2.432c3.008,1.6,5.184,4.543,5.184,8.447
			c0,3.84-2.24,7.423-7.104,9.215v0.128c4.928,1.344,8.575,5.056,8.575,10.624c0,3.904-1.792,6.975-4.479,9.151
			c-3.136,2.496-8.383,3.903-16.959,3.903c-4.799,0-8.383-0.32-10.559-0.64V211.862z M131.137,228.373h3.2
			c5.12,0,7.871-2.112,7.871-5.312c0-3.264-2.496-4.992-6.911-4.992c-2.112,0-3.328,0.128-4.16,0.256V228.373z M131.137,247.507
			c0.959,0.128,2.112,0.128,3.775,0.128c4.416,0,8.319-1.664,8.319-6.208c0-4.352-3.903-6.08-8.767-6.08h-3.328V247.507z"/>
		<path d="M159.809,233.429c0-4.608-0.128-7.616-0.256-10.304h8.383l0.32,5.76h0.256c1.6-4.543,5.44-6.463,8.448-6.463
			c0.896,0,1.344,0,2.048,0.128v9.151c-0.704-0.128-1.536-0.256-2.624-0.256c-3.584,0-6.016,1.919-6.655,4.927
			c-0.128,0.64-0.192,1.408-0.192,2.176v15.871h-9.727V233.429z"/>
		<path d="M201.919,254.419l-0.576-3.136h-0.192c-2.048,2.496-5.248,3.84-8.959,3.84c-6.335,0-10.111-4.608-10.111-9.6
			c0-8.127,7.295-12.031,18.367-11.967v-0.448c0-1.664-0.896-4.032-5.696-4.032c-3.2,0-6.591,1.088-8.639,2.368l-1.792-6.272
			c2.176-1.216,6.463-2.751,12.159-2.751c10.431,0,13.759,6.144,13.759,13.503v10.879c0,3.008,0.128,5.887,0.448,7.615H201.919z
			 M200.767,239.636c-5.12-0.064-9.087,1.152-9.087,4.927c0,2.496,1.664,3.712,3.84,3.712c2.432,0,4.416-1.6,5.056-3.584
			c0.128-0.512,0.192-1.088,0.192-1.664V239.636z"/>
		<path d="M217.92,233.108c0-3.904-0.128-7.231-0.256-9.983h8.447l0.448,4.288h0.192c1.28-1.984,4.48-4.992,9.664-4.992
			c6.399,0,11.199,4.224,11.199,13.439v18.559h-9.728v-17.343c0-4.032-1.408-6.784-4.928-6.784c-2.688,0-4.288,1.856-4.927,3.648
			c-0.256,0.576-0.384,1.536-0.384,2.432v18.047h-9.727V233.108z"/>
		<path d="M285.758,208.982v36.093c0,3.52,0.128,7.231,0.256,9.343h-8.64l-0.448-4.607h-0.128c-1.984,3.52-5.76,5.312-9.792,5.312
			c-7.423,0-13.375-6.336-13.375-16.063c-0.064-10.559,6.527-16.639,14.015-16.639c3.84,0,6.847,1.344,8.255,3.52h0.128v-16.958
			H285.758z M276.031,236.372c0-0.512-0.064-1.216-0.128-1.728c-0.576-2.624-2.688-4.8-5.696-4.8c-4.416,0-6.719,3.968-6.719,8.896
			c0,5.312,2.624,8.639,6.655,8.639c2.816,0,5.056-1.92,5.632-4.671c0.192-0.704,0.256-1.408,0.256-2.24V236.372z"/>
		<path d="M306.815,254.419v-43.133h11.391l8.959,15.807c2.56,4.544,5.12,9.919,7.04,14.783h0.192
			c-0.64-5.696-0.832-11.52-0.832-17.983v-12.607h8.959v43.133h-10.239l-9.215-16.639c-2.56-4.608-5.375-10.175-7.487-15.231
			l-0.192,0.064c0.256,5.695,0.384,11.775,0.384,18.814v12.991H306.815z"/>
		<path d="M358.142,241.876c0.32,4.032,4.288,5.952,8.832,5.952c3.328,0,6.016-0.448,8.639-1.28l1.28,6.592
			c-3.2,1.28-7.104,1.92-11.327,1.92c-10.623,0-16.703-6.144-16.703-15.935c0-7.936,4.928-16.703,15.807-16.703
			c10.111,0,13.951,7.871,13.951,15.615c0,1.664-0.192,3.136-0.32,3.84H358.142z M369.597,235.22c0-2.368-1.024-6.335-5.503-6.335
			c-4.096,0-5.76,3.712-6.016,6.335H369.597z"/>
		<path d="M391.166,223.125l2.496,12.799c0.64,3.264,1.28,6.719,1.792,10.303h0.128c0.64-3.584,1.536-7.167,2.304-10.239
			l3.328-12.863h7.68l3.136,12.479c0.832,3.52,1.664,7.039,2.304,10.623h0.128c0.448-3.584,1.088-7.104,1.792-10.687l2.688-12.416
			h9.535l-9.6,31.294h-9.151l-2.943-11.007c-0.768-3.072-1.344-5.887-1.984-9.727h-0.128c-0.576,3.904-1.216,6.783-2.048,9.727
			l-3.136,11.007h-9.151l-9.087-31.294H391.166z"/>
		<path d="M482.299,252.435c-3.008,1.024-8.703,2.432-14.399,2.432c-7.871,0-13.567-1.984-17.535-5.823
			c-3.968-3.712-6.144-9.343-6.08-15.679c0.064-14.335,10.495-22.526,24.638-22.526c5.568,0,9.855,1.088,11.967,2.112l-2.048,7.807
			c-2.368-1.024-5.312-1.856-10.047-1.856c-8.127,0-14.271,4.608-14.271,13.951c0,8.896,5.568,14.143,13.567,14.143
			c2.24,0,4.032-0.256,4.8-0.64v-9.023h-6.655v-7.615h16.063V252.435z"/>
		<path d="M499.645,211.286v24.83c0,7.423,2.815,11.199,7.808,11.199c5.119,0,7.935-3.583,7.935-11.199v-24.83h9.728v24.19
			c0,13.311-6.72,19.646-17.982,19.646c-10.879,0-17.279-6.016-17.279-19.775v-24.062H499.645z"/>
		<path d="M543.355,211.286v43.133h-9.791v-43.133H543.355z"/>
		<path d="M564.731,211.286h9.791v34.941h17.151v8.191h-26.942V211.286z"/>
		<path d="M607.162,214.422c0,2.688-2.048,4.864-5.248,4.864c-3.071,0-5.119-2.176-5.056-4.864c-0.063-2.816,1.984-4.928,5.12-4.928
			S607.098,211.606,607.162,214.422z M597.114,254.419v-31.294h9.728v31.294H597.114z"/>
		<path d="M614.394,254.419c0.128-2.048,0.256-5.824,0.256-9.343v-36.093h9.728v17.854h0.128c1.856-2.688,5.12-4.416,9.472-4.416
			c7.487,0,12.991,6.208,12.927,15.807c0,11.263-7.167,16.895-14.335,16.895c-3.647,0-7.167-1.344-9.407-5.056h-0.128l-0.384,4.352
			H614.394z M624.377,241.108c0,0.64,0.064,1.216,0.192,1.728c0.64,2.624,2.88,4.607,5.695,4.607c4.16,0,6.72-3.2,6.72-8.831
			c0-4.864-2.176-8.704-6.72-8.704c-2.624,0-5.056,1.984-5.695,4.8c-0.128,0.576-0.192,1.152-0.192,1.792V241.108z"/>
		<path d="M652.921,233.429c0-4.608-0.128-7.616-0.256-10.304h8.384l0.32,5.76h0.256c1.6-4.543,5.439-6.463,8.447-6.463
			c0.896,0,1.344,0,2.048,0.128v9.151c-0.704-0.128-1.536-0.256-2.624-0.256c-3.584,0-6.016,1.919-6.655,4.927
			c-0.128,0.64-0.192,1.408-0.192,2.176v15.871h-9.728V233.429z"/>
		<path d="M695.031,254.419l-0.576-3.136h-0.191c-2.048,2.496-5.248,3.84-8.96,3.84c-6.335,0-10.111-4.608-10.111-9.6
			c0-8.127,7.296-12.031,18.367-11.967v-0.448c0-1.664-0.896-4.032-5.695-4.032c-3.2,0-6.592,1.088-8.64,2.368l-1.792-6.272
			c2.176-1.216,6.464-2.751,12.159-2.751c10.432,0,13.759,6.144,13.759,13.503v10.879c0,3.008,0.128,5.887,0.448,7.615H695.031z
			 M693.88,239.636c-5.12-0.064-9.088,1.152-9.088,4.927c0,2.496,1.664,3.712,3.84,3.712c2.432,0,4.416-1.6,5.056-3.584
			c0.128-0.512,0.192-1.088,0.192-1.664V239.636z"/>
		<path d="M711.032,233.429c0-4.608-0.128-7.616-0.256-10.304h8.384l0.32,5.76h0.256c1.6-4.543,5.439-6.463,8.447-6.463
			c0.896,0,1.344,0,2.048,0.128v9.151c-0.704-0.128-1.536-0.256-2.624-0.256c-3.584,0-6.016,1.919-6.655,4.927
			c-0.128,0.64-0.192,1.408-0.192,2.176v15.871h-9.728V233.429z"/>
		<path d="M742.647,223.125l4.672,15.359c0.512,1.856,1.151,4.16,1.536,5.824h0.191c0.448-1.664,0.96-4.032,1.408-5.824l3.84-15.359
			h10.431l-7.295,20.607c-4.479,12.415-7.487,17.407-11.008,20.542c-3.392,2.943-6.976,3.968-9.407,4.288l-2.048-8.255
			c1.216-0.192,2.752-0.768,4.224-1.664c1.473-0.768,3.072-2.304,4.032-3.904c0.319-0.448,0.512-0.96,0.512-1.408
			c0-0.32-0.064-0.832-0.448-1.6l-11.455-28.606H742.647z"/>
		<path d="M782.839,254.419v-24.126h-4.096v-7.167h4.096v-1.216c0-3.775,1.152-7.936,3.968-10.495
			c2.433-2.304,5.824-3.136,8.64-3.136c2.176,0,3.84,0.256,5.184,0.64l-0.384,7.487c-0.832-0.256-1.855-0.448-3.136-0.448
			c-3.2,0-4.544,2.496-4.544,5.568v1.6h6.271v7.167h-6.207v24.126H782.839z"/>
		<path d="M834.484,238.42c0,11.456-8.127,16.703-16.511,16.703c-9.151,0-16.19-6.016-16.19-16.127s6.655-16.575,16.702-16.575
			C828.085,222.421,834.484,229.013,834.484,238.42z M811.83,238.74c0,5.375,2.24,9.407,6.399,9.407
			c3.775,0,6.208-3.776,6.208-9.407c0-4.672-1.792-9.407-6.208-9.407C813.558,229.333,811.83,234.132,811.83,238.74z"/>
		<path d="M840.502,233.429c0-4.608-0.128-7.616-0.256-10.304h8.384l0.32,5.76h0.256c1.6-4.543,5.439-6.463,8.447-6.463
			c0.896,0,1.344,0,2.048,0.128v9.151c-0.704-0.128-1.536-0.256-2.624-0.256c-3.584,0-6.016,1.919-6.655,4.927
			c-0.128,0.64-0.192,1.408-0.192,2.176v15.871h-9.728V233.429z"/>
		<path d="M886.517,211.286h9.728v27.262c0,12.287-5.888,16.575-15.359,16.575c-2.239,0-5.184-0.384-7.104-1.024l1.088-7.872
			c1.345,0.448,3.072,0.768,4.992,0.768c4.096,0,6.655-1.856,6.655-8.576V211.286z"/>
		<path d="M921.844,254.419l-0.576-3.136h-0.191c-2.048,2.496-5.248,3.84-8.96,3.84c-6.335,0-10.111-4.608-10.111-9.6
			c0-8.127,7.296-12.031,18.367-11.967v-0.448c0-1.664-0.896-4.032-5.695-4.032c-3.2,0-6.592,1.088-8.64,2.368l-1.792-6.272
			c2.176-1.216,6.464-2.751,12.159-2.751c10.432,0,13.759,6.144,13.759,13.503v10.879c0,3.008,0.128,5.887,0.448,7.615H921.844z
			 M920.692,239.636c-5.12-0.064-9.088,1.152-9.088,4.927c0,2.496,1.664,3.712,3.84,3.712c2.432,0,4.416-1.6,5.056-3.584
			c0.128-0.512,0.192-1.088,0.192-1.664V239.636z"/>
		<path d="M945.076,223.125l4.225,14.527c0.768,2.624,1.344,5.12,1.791,7.615h0.192c0.512-2.56,1.023-4.928,1.728-7.615
			l4.032-14.527h10.239l-11.647,31.294h-9.728l-11.391-31.294H945.076z"/>
		<path d="M989.556,254.419l-0.576-3.136h-0.191c-2.048,2.496-5.248,3.84-8.96,3.84c-6.335,0-10.111-4.608-10.111-9.6
			c0-8.127,7.296-12.031,18.367-11.967v-0.448c0-1.664-0.896-4.032-5.695-4.032c-3.2,0-6.592,1.088-8.64,2.368l-1.792-6.272
			c2.176-1.216,6.464-2.751,12.159-2.751c10.432,0,13.759,6.144,13.759,13.503v10.879c0,3.008,0.128,5.887,0.448,7.615H989.556z
			 M988.404,239.636c-5.12-0.064-9.088,1.152-9.088,4.927c0,2.496,1.664,3.712,3.84,3.712c2.432,0,4.416-1.6,5.056-3.584
			c0.128-0.512,0.192-1.088,0.192-1.664V239.636z"/>
	</g>
</g>
<g id="jfx:p03">
	<g>
		
			<image style="overflow:visible;" width="697" height="767" xlink:href="DFF13D37.png"  transform="matrix(0.7355 0.1467 -0.1467 0.7355 360.2476 110.7271)">
		</image>
		<path style="fill:none;stroke:#000000;stroke-width:4;" d="M465.792,150.42c0,0,114.167-336.055,186.25-446.063"/>
		<path style="fill:none;stroke:#000000;stroke-width:4;" d="M713.734,229.854c0,0,127.977-331.042,204.551-437.973"/>
	</g>
</g>
<g>
	<rect id="jfx:p04" x="645" y="-295.643" width="12" height="6.643"/>
</g>
<g id="jfx:p05">
	<g>
		<path d="M130.479,351.286h26.366v8H140.27v9.855h15.487v7.936H140.27v17.343h-9.792V351.286z"/>
		<path d="M171.374,381.875c0.32,4.032,4.288,5.952,8.832,5.952c3.328,0,6.016-0.448,8.639-1.28l1.28,6.592
			c-3.2,1.28-7.104,1.92-11.327,1.92c-10.623,0-16.703-6.144-16.703-15.935c0-7.936,4.928-16.703,15.807-16.703
			c10.111,0,13.951,7.871,13.951,15.615c0,1.664-0.192,3.136-0.32,3.84H171.374z M182.829,375.22c0-2.368-1.024-6.335-5.503-6.335
			c-4.096,0-5.76,3.712-6.016,6.335H182.829z"/>
		<path d="M215.469,394.419l-0.576-3.136h-0.192c-2.048,2.495-5.248,3.84-8.959,3.84c-6.335,0-10.111-4.608-10.111-9.6
			c0-8.128,7.295-12.031,18.367-11.967v-0.448c0-1.664-0.896-4.032-5.696-4.032c-3.2,0-6.591,1.088-8.639,2.368l-1.792-6.272
			c2.176-1.216,6.463-2.751,12.159-2.751c10.431,0,13.759,6.144,13.759,13.503v10.88c0,3.008,0.128,5.887,0.448,7.615H215.469z
			 M214.317,379.636c-5.12-0.064-9.087,1.152-9.087,4.927c0,2.497,1.664,3.712,3.84,3.712c2.432,0,4.416-1.601,5.056-3.584
			c0.128-0.512,0.192-1.088,0.192-1.664V379.636z"/>
		<path d="M242.349,354.166v8.959h6.976v7.167h-6.976v11.328c0,3.776,0.896,5.503,3.84,5.503c1.216,0,2.176-0.128,2.88-0.256
			l0.064,7.359c-1.28,0.512-3.583,0.832-6.335,0.832c-3.136,0-5.76-1.088-7.295-2.688c-1.792-1.856-2.688-4.864-2.688-9.28v-12.799
			h-4.16v-7.167h4.16v-6.783L242.349,354.166z"/>
		<path d="M284.459,384.371c0,4.096,0.128,7.424,0.256,10.048h-8.447l-0.448-4.416h-0.192c-1.216,1.92-4.16,5.12-9.792,5.12
			c-6.335,0-11.007-3.968-11.007-13.632v-18.367h9.791v16.831c0,4.543,1.472,7.295,4.864,7.295c2.688,0,4.224-1.855,4.864-3.392
			c0.256-0.576,0.32-1.344,0.32-2.112v-18.623h9.792V384.371z"/>
		<path d="M292.269,373.428c0-4.608-0.128-7.616-0.256-10.304h8.383l0.32,5.76h0.256c1.6-4.543,5.44-6.463,8.448-6.463
			c0.896,0,1.344,0,2.048,0.128v9.151c-0.704-0.128-1.536-0.256-2.624-0.256c-3.584,0-6.016,1.919-6.655,4.927
			c-0.128,0.64-0.192,1.408-0.192,2.176v15.872h-9.727V373.428z"/>
		<path d="M324.076,381.875c0.32,4.032,4.288,5.952,8.832,5.952c3.328,0,6.016-0.448,8.639-1.28l1.28,6.592
			c-3.2,1.28-7.104,1.92-11.327,1.92c-10.623,0-16.703-6.144-16.703-15.935c0-7.936,4.928-16.703,15.807-16.703
			c10.111,0,13.951,7.871,13.951,15.615c0,1.664-0.192,3.136-0.32,3.84H324.076z M335.531,375.22c0-2.368-1.024-6.335-5.503-6.335
			c-4.096,0-5.76,3.712-6.016,6.335H335.531z"/>
		<path d="M350.316,385.907c1.792,1.088,5.503,2.368,8.383,2.368c2.944,0,4.16-1.024,4.16-2.624c0-1.6-0.96-2.368-4.607-3.584
			c-6.464-2.176-8.959-5.696-8.896-9.407c0-5.824,4.992-10.239,12.735-10.239c3.648,0,6.912,0.832,8.832,1.792l-1.728,6.72
			c-1.408-0.768-4.096-1.792-6.783-1.792c-2.368,0-3.712,0.96-3.712,2.56c0,1.472,1.216,2.24,5.056,3.583
			c5.952,2.048,8.447,5.056,8.511,9.664c0,5.823-4.607,10.111-13.567,10.111c-4.096,0-7.744-0.896-10.111-2.176L350.316,385.907z"/>
		<path d="M377.452,368.628c0-3.456,2.368-5.888,5.76-5.888c3.392,0,5.631,2.368,5.695,5.888c0,3.328-2.304,5.823-5.759,5.823
			C379.819,374.452,377.452,371.956,377.452,368.628z M377.452,389.299c0-3.392,2.368-5.888,5.76-5.888
			c3.392,0,5.631,2.433,5.695,5.888c0,3.328-2.304,5.824-5.759,5.824C379.819,395.123,377.452,392.627,377.452,389.299z"/>
		<path d="M408.363,384.371c2.624,1.345,6.656,2.688,10.815,2.688c4.479,0,6.848-1.856,6.848-4.672c0-2.688-2.048-4.224-7.231-6.08
			c-7.167-2.496-11.839-6.463-11.839-12.735c0-7.359,6.144-12.991,16.319-12.991c4.864,0,8.447,1.024,11.007,2.176l-2.176,7.872
			c-1.728-0.832-4.8-2.048-9.023-2.048s-6.271,1.92-6.271,4.16c0,2.752,2.432,3.968,7.999,6.08
			c7.616,2.816,11.199,6.784,11.199,12.863c0,7.231-5.567,13.375-17.407,13.375c-4.927,0-9.791-1.28-12.223-2.624L408.363,384.371z"
			/>
		<path d="M449.002,363.125l2.496,12.799c0.64,3.264,1.28,6.719,1.792,10.304h0.128c0.64-3.584,1.536-7.168,2.304-10.24
			l3.328-12.863h7.68l3.136,12.479c0.832,3.52,1.664,7.039,2.304,10.624h0.128c0.448-3.584,1.088-7.104,1.792-10.688l2.688-12.416
			h9.535l-9.6,31.294h-9.151l-2.943-11.008c-0.768-3.072-1.344-5.887-1.984-9.727h-0.128c-0.576,3.904-1.216,6.783-2.048,9.727
			l-3.136,11.008h-9.151l-9.087-31.294H449.002z"/>
		<path d="M500.905,354.421c0,2.688-2.048,4.864-5.248,4.864c-3.071,0-5.119-2.176-5.055-4.864c-0.064-2.816,1.984-4.928,5.12-4.928
			S500.841,351.605,500.905,354.421z M490.858,394.419v-31.294h9.727v31.294H490.858z"/>
		<path d="M508.393,373.108c0-3.904-0.128-7.231-0.255-9.983h8.447l0.448,4.288h0.192c1.279-1.984,4.479-4.992,9.663-4.992
			c6.399,0,11.199,4.224,11.199,13.439v18.559h-9.728v-17.343c0-4.032-1.408-6.784-4.928-6.784c-2.688,0-4.287,1.856-4.928,3.648
			c-0.256,0.576-0.384,1.536-0.384,2.432v18.047h-9.728V373.108z"/>
		<path d="M575.782,363.125c-0.128,1.984-0.256,4.608-0.256,9.279v17.471c0,6.016-1.216,10.943-4.735,14.079
			c-3.456,2.943-8.127,3.84-12.735,3.84c-4.096,0-8.447-0.832-11.263-2.432l1.92-7.359c1.983,1.151,5.439,2.367,9.087,2.367
			c4.607,0,8.128-2.496,8.128-8.255v-2.048H565.8c-1.856,2.623-4.864,4.096-8.447,4.096c-7.744,0-13.247-6.271-13.247-15.295
			c0-10.047,6.527-16.447,14.206-16.447c4.288,0,6.976,1.856,8.576,4.416h0.128l0.319-3.712H575.782z M565.8,375.86
			c0-0.64-0.064-1.28-0.192-1.792c-0.704-2.56-2.56-4.288-5.248-4.288c-3.52,0-6.399,3.2-6.399,8.896
			c0,4.671,2.304,8.319,6.399,8.319c2.496,0,4.48-1.664,5.12-3.968c0.256-0.704,0.32-1.728,0.32-2.56V375.86z"/>
		<path d="M614.566,360.373v13.951h13.375v6.016h-13.375v14.08h-6.271v-14.08H594.92v-6.016h13.375v-13.951H614.566z"/>
		<path d="M656.103,351.286h9.728v27.262c0,12.288-5.888,16.576-15.359,16.576c-2.239,0-5.184-0.385-7.104-1.024l1.089-7.871
			c1.344,0.447,3.071,0.768,4.991,0.768c4.096,0,6.655-1.855,6.655-8.576V351.286z"/>
		<path d="M691.43,394.419l-0.576-3.136h-0.191c-2.048,2.495-5.248,3.84-8.96,3.84c-6.335,0-10.111-4.608-10.111-9.6
			c0-8.128,7.296-12.031,18.367-11.967v-0.448c0-1.664-0.896-4.032-5.695-4.032c-3.2,0-6.592,1.088-8.64,2.368l-1.792-6.272
			c2.176-1.216,6.464-2.751,12.159-2.751c10.432,0,13.759,6.144,13.759,13.503v10.88c0,3.008,0.128,5.887,0.448,7.615H691.43z
			 M690.278,379.636c-5.12-0.064-9.088,1.152-9.088,4.927c0,2.497,1.664,3.712,3.84,3.712c2.432,0,4.416-1.601,5.056-3.584
			c0.128-0.512,0.192-1.088,0.192-1.664V379.636z"/>
		<path d="M714.662,363.125l4.224,14.527c0.769,2.624,1.345,5.12,1.792,7.616h0.192c0.512-2.56,1.023-4.928,1.728-7.616
			l4.032-14.527h10.239l-11.647,31.294h-9.728l-11.391-31.294H714.662z"/>
		<path d="M759.142,394.419l-0.576-3.136h-0.191c-2.048,2.495-5.248,3.84-8.96,3.84c-6.335,0-10.111-4.608-10.111-9.6
			c0-8.128,7.296-12.031,18.367-11.967v-0.448c0-1.664-0.896-4.032-5.695-4.032c-3.2,0-6.592,1.088-8.64,2.368l-1.792-6.272
			c2.176-1.216,6.464-2.751,12.159-2.751c10.432,0,13.759,6.144,13.759,13.503v10.88c0,3.008,0.128,5.887,0.448,7.615H759.142z
			 M757.99,379.636c-5.12-0.064-9.088,1.152-9.088,4.927c0,2.497,1.664,3.712,3.84,3.712c2.432,0,4.416-1.601,5.056-3.584
			c0.128-0.512,0.192-1.088,0.192-1.664V379.636z"/>
		<path d="M786.854,394.419v-5.888l5.376-4.864c9.087-8.127,13.503-12.799,13.631-17.663c0-3.392-2.048-6.08-6.848-6.08
			c-3.583,0-6.72,1.792-8.896,3.456l-2.751-6.976c3.136-2.368,7.999-4.288,13.631-4.288c9.407,0,14.591,5.503,14.591,13.055
			c0,6.976-5.056,12.543-11.071,17.919l-3.84,3.2v0.128h15.679v8H786.854z"/>
		<path d="M823.91,351.861c3.584-0.576,8.256-0.896,13.183-0.896c8.191,0,13.504,1.472,17.663,4.607
			c4.479,3.328,7.296,8.639,7.296,16.255c0,8.255-3.008,13.951-7.168,17.471c-4.544,3.776-11.455,5.567-19.902,5.567
			c-5.056,0-8.64-0.319-11.071-0.64V351.861z M833.701,387.06c0.832,0.191,2.176,0.191,3.392,0.191
			c8.832,0.064,14.592-4.8,14.592-15.103c0.063-8.959-5.184-13.695-13.567-13.695c-2.176,0-3.584,0.192-4.416,0.384V387.06z"/>
		<path d="M899.364,360.373v13.951h13.375v6.016h-13.375v14.08h-6.271v-14.08h-13.375v-6.016h13.375v-13.951H899.364z"/>
	</g>
	<g>
		<path d="M956.226,363.668c2,2,3.164,4.836,3.5,8.5c0.664-2,1.582-5.082,2.75-9.25l8.5,3c-2.5,7.5-5.586,14.086-9.25,19.75v1.25
			c0,0.836,0.25,1.25,0.75,1.25c0.664,0,1.414-0.832,2.25-2.5l7.25,3.5c-2.168,3-4,4.918-5.5,5.75c-1.668,1-3.5,1.5-5.5,1.5
			c-1.336,0-2.5-0.25-3.5-0.75s-2-1.582-3-3.25c-2.336,1.668-4.418,2.75-6.25,3.25c-1.668,0.5-3.418,0.75-5.25,0.75
			c-3.668,0-6.586-1.164-8.75-3.5c-2-2.164-3-5.332-3-9.5c0-7.164,2.582-13.332,7.75-18.5c2.664-2.664,6.082-4,10.25-4
			C952.058,360.918,954.39,361.836,956.226,363.668z M942.976,375.418c-1.168,2.836-1.75,5.5-1.75,8c0,1.336,0.332,2.418,1,3.25
			c0.664,0.836,1.582,1.25,2.75,1.25c1.332,0,2.582-0.25,3.75-0.75c1.164-0.5,2.332-1.414,3.5-2.75c0-1.332-0.168-4.082-0.5-8.25
			c-0.336-4.164-1.586-6.25-3.75-6.25C946.14,369.918,944.476,371.754,942.976,375.418z"/>
	</g>
</g>
</svg>
