<?xml version="1.0" encoding="iso-8859-1"?>
<!-- Generator: Adobe Illustrator 16.1.1, SVG Export Plug-In . SVG Version: 6.00 Build 0)  -->
<!DOCTYPE svg PUBLIC "-//W3C//DTD SVG 1.1//EN" "http://www.w3.org/Graphics/SVG/1.1/DTD/svg11.dtd">
<svg version="1.1" xmlns="http://www.w3.org/2000/svg" xmlns:xlink="http://www.w3.org/1999/xlink" x="0px" y="0px" width="1024px"
	 height="768px" viewBox="0 0 1024 768" style="enable-background:new 0 0 1024 768;" xml:space="preserve">
<g id="jfx:p00">
	<image style="overflow:visible;" width="1024" height="768" xlink:href="4DE9DFF0.jpg" >
	</image>
</g>
<g id="jfx:p01">
	<rect style="opacity:0.7;fill:#FFFFFF;" width="1024" height="768"/>
</g>
<g id="jfx:p02">
	<g>
		<path d="M212.883,185.495l-12.8-53.921h13.04l4.08,22.241c1.2,6.4,2.32,13.36,3.2,18.8h0.16c0.88-5.84,2.16-12.32,3.52-18.96
			l4.56-22.081h12.96l4.32,22.721c1.2,6.32,2.08,12.08,2.88,18.081h0.16c0.8-6,2-12.32,3.12-18.721l4.4-22.081h12.4l-13.92,53.921
			h-13.2l-4.56-23.201c-1.04-5.44-1.92-10.48-2.56-16.64h-0.16c-0.96,6.08-1.84,11.2-3.12,16.64l-5.12,23.201H212.883z"/>
		<path d="M274.801,128.694h12.161v22.32h0.16c1.28-1.68,2.88-2.96,4.8-4c1.76-0.96,4.08-1.52,6.32-1.52
			c7.76,0,13.68,5.36,13.68,17.121v22.88h-12.16v-21.521c0-5.12-1.76-8.64-6.32-8.64c-3.2,0-5.2,2.08-6.08,4.24
			c-0.32,0.8-0.4,1.84-0.4,2.72v23.201h-12.161V128.694z"/>
		<path d="M343.922,185.495l-0.72-3.92h-0.24c-2.56,3.12-6.56,4.8-11.2,4.8c-7.92,0-12.641-5.76-12.641-12
			c0-10.16,9.121-15.041,22.961-14.96v-0.56c0-2.08-1.12-5.04-7.12-5.04c-4,0-8.24,1.36-10.8,2.96l-2.24-7.84
			c2.72-1.52,8.08-3.44,15.2-3.44c13.041,0,17.201,7.68,17.201,16.88v13.601c0,3.76,0.16,7.36,0.56,9.52H343.922z M342.482,167.015
			c-6.4-0.08-11.36,1.44-11.36,6.16c0,3.12,2.08,4.64,4.8,4.64c3.04,0,5.52-2,6.32-4.48c0.16-0.64,0.24-1.36,0.24-2.08V167.015z"/>
		<path d="M377.522,135.174v11.2h8.72v8.96h-8.72v14.16c0,4.72,1.12,6.88,4.8,6.88c1.52,0,2.72-0.16,3.6-0.32l0.08,9.2
			c-1.6,0.64-4.48,1.04-7.92,1.04c-3.92,0-7.2-1.36-9.12-3.36c-2.24-2.32-3.36-6.08-3.36-11.6v-16h-5.2v-8.96h5.2v-8.48
			L377.522,135.174z"/>
		<path d="M409.361,174.855c2.24,1.36,6.88,2.96,10.48,2.96c3.68,0,5.2-1.28,5.2-3.28c0-2-1.2-2.96-5.76-4.48
			c-8.08-2.72-11.2-7.12-11.12-11.76c0-7.28,6.24-12.8,15.92-12.8c4.56,0,8.64,1.04,11.04,2.24l-2.16,8.4
			c-1.76-0.96-5.12-2.24-8.48-2.24c-2.96,0-4.64,1.2-4.64,3.2c0,1.84,1.52,2.8,6.32,4.48c7.44,2.56,10.56,6.32,10.64,12.08
			c0,7.28-5.76,12.64-16.96,12.64c-5.12,0-9.68-1.12-12.64-2.72L409.361,174.855z"/>
		<path d="M460.72,132.294c4.48-0.72,10.32-1.12,16.48-1.12c10.24,0,16.881,1.84,22.081,5.76c5.6,4.16,9.121,10.8,9.121,20.32
			c0,10.32-3.76,17.44-8.96,21.84c-5.68,4.72-14.32,6.96-24.88,6.96c-6.32,0-10.8-0.4-13.84-0.8V132.294z M472.96,176.295
			c1.04,0.24,2.72,0.24,4.24,0.24c11.041,0.08,18.241-6,18.241-18.881c0.08-11.2-6.48-17.12-16.96-17.12
			c-2.72,0-4.48,0.24-5.52,0.48V176.295z"/>
		<path d="M528.561,135.494c0,3.36-2.561,6.08-6.561,6.08c-3.84,0-6.4-2.72-6.32-6.08c-0.08-3.52,2.48-6.16,6.4-6.16
			S528.48,131.974,528.561,135.494z M516,185.495v-39.121h12.16v39.121H516z"/>
		<path d="M564,185.495v-30.161h-12.48v30.161h-12.24v-30.161h-5.121v-8.96h5.121v-0.8c0-4.64,1.199-9.28,4.479-12.561
			c2.64-2.64,6.479-4.32,12.001-4.32c2,0,4,0.48,5.199,0.96l-1.68,8.96c-0.96-0.32-2-0.56-3.12-0.56c-3.601,0-4.72,2.96-4.72,6.88
			v1.44H564v-1.52c0-4.72,1.439-9.92,4.959-13.12c3.041-2.88,7.201-3.92,10.801-3.92c2.641,0,4.801,0.32,6.48,0.8l-0.48,9.36
			c-1.119-0.32-2.32-0.56-4-0.56c-4,0-5.68,3.12-5.68,6.96v2h7.84v8.96h-7.76v30.161H564z"/>
		<path d="M599.279,169.815c0.4,5.04,5.359,7.44,11.039,7.44c4.16,0,7.521-0.56,10.801-1.6l1.6,8.24c-4,1.6-8.879,2.4-14.16,2.4
			c-13.279,0-20.881-7.68-20.881-19.92c0-9.92,6.16-20.88,19.762-20.88c12.641,0,17.439,9.84,17.439,19.521
			c0,2.08-0.24,3.92-0.4,4.8H599.279z M613.6,161.495c0-2.96-1.281-7.92-6.881-7.92c-5.119,0-7.199,4.64-7.52,7.92H613.6z"/>
		<path d="M632.158,159.254c0-5.76-0.16-9.52-0.318-12.88h10.479l0.4,7.2h0.32c2-5.68,6.801-8.08,10.561-8.08
			c1.119,0,1.68,0,2.561,0.16v11.44c-0.881-0.16-1.92-0.32-3.281-0.32c-4.48,0-7.52,2.4-8.32,6.16c-0.16,0.8-0.24,1.76-0.24,2.72
			v19.84h-12.16V159.254z"/>
		<path d="M671.918,169.815c0.4,5.04,5.361,7.44,11.041,7.44c4.16,0,7.52-0.56,10.801-1.6l1.6,8.24c-4,1.6-8.881,2.4-14.16,2.4
			c-13.281,0-20.881-7.68-20.881-19.92c0-9.92,6.16-20.88,19.76-20.88c12.641,0,17.441,9.84,17.441,19.521c0,2.08-0.24,3.92-0.4,4.8
			H671.918z M686.238,161.495c0-2.96-1.279-7.92-6.879-7.92c-5.121,0-7.201,4.64-7.521,7.92H686.238z"/>
		<path d="M704.799,158.854c0-4.88-0.16-9.04-0.32-12.48h10.561l0.561,5.36h0.238c1.602-2.48,5.602-6.24,12.082-6.24
			c8,0,14,5.28,14,16.8v23.201h-12.16v-21.681c0-5.04-1.76-8.48-6.16-8.48c-3.361,0-5.361,2.32-6.16,4.56
			c-0.32,0.72-0.48,1.92-0.48,3.04v22.561h-12.16V158.854z"/>
		<path d="M781.039,184.535c-2.16,0.96-6.24,1.76-10.881,1.76c-12.639,0-20.721-7.68-20.721-20c0-11.44,7.842-20.801,22.402-20.801
			c3.199,0,6.719,0.56,9.279,1.52l-1.92,9.041c-1.439-0.64-3.6-1.2-6.801-1.2c-6.4,0-10.561,4.56-10.48,10.96
			c0,7.2,4.801,10.96,10.721,10.96c2.881,0,5.121-0.48,6.961-1.2L781.039,184.535z"/>
		<path d="M797.117,169.815c0.4,5.04,5.361,7.44,11.041,7.44c4.16,0,7.52-0.56,10.801-1.6l1.6,8.24c-4,1.6-8.881,2.4-14.16,2.4
			c-13.281,0-20.881-7.68-20.881-19.92c0-9.92,6.16-20.88,19.76-20.88c12.641,0,17.441,9.84,17.441,19.521c0,2.08-0.24,3.92-0.4,4.8
			H797.117z M811.438,161.495c0-2.96-1.279-7.92-6.879-7.92c-5.121,0-7.201,4.64-7.521,7.92H811.438z"/>
	</g>
	<g>
		<path d="M296.284,290.495v-30.161h-5.12v-8.96h5.12v-1.52c0-4.72,1.44-9.92,4.96-13.12c3.04-2.88,7.28-3.92,10.8-3.92
			c2.72,0,4.8,0.32,6.48,0.8l-0.48,9.36c-1.04-0.32-2.32-0.56-3.92-0.56c-4,0-5.68,3.12-5.68,6.96v2h7.84v8.96h-7.76v30.161H296.284
			z"/>
		<path d="M322.203,264.254c0-5.76-0.16-9.52-0.32-12.88h10.48l0.4,7.2h0.32c2-5.68,6.8-8.08,10.561-8.08c1.12,0,1.68,0,2.56,0.16
			v11.44c-0.88-0.16-1.92-0.32-3.28-0.32c-4.48,0-7.52,2.4-8.32,6.16c-0.16,0.8-0.24,1.76-0.24,2.72v19.84h-12.161V264.254z"/>
		<path d="M391.244,270.495c0,14.32-10.16,20.88-20.641,20.88c-11.44,0-20.24-7.52-20.24-20.16c0-12.641,8.32-20.721,20.88-20.721
			C383.244,250.494,391.244,258.734,391.244,270.495z M362.923,270.895c0,6.72,2.8,11.76,8,11.76c4.72,0,7.76-4.72,7.76-11.76
			c0-5.84-2.24-11.76-7.76-11.76C365.083,259.134,362.923,265.135,362.923,270.895z"/>
		<path d="M398.762,263.854c0-4.88-0.16-9.04-0.32-12.48h10.24l0.56,5.28h0.24c1.68-2.48,5.12-6.16,11.84-6.16
			c5.041,0,9.041,2.56,10.72,6.64h0.16c1.44-2,3.2-3.6,5.04-4.72c2.16-1.28,4.56-1.92,7.44-1.92c7.52,0,13.2,5.28,13.2,16.96v23.041
			h-11.84v-21.28c0-5.68-1.84-8.96-5.76-8.96c-2.8,0-4.8,1.92-5.6,4.24c-0.32,0.88-0.48,2.16-0.48,3.12v22.88h-11.84v-21.92
			c0-4.96-1.76-8.32-5.6-8.32c-3.12,0-4.96,2.4-5.68,4.4c-0.4,0.96-0.48,2.08-0.48,3.041v22.8h-11.84V263.854z"/>
		<path d="M484.521,277.935c3.28,1.68,8.32,3.36,13.52,3.36c5.601,0,8.561-2.32,8.561-5.84c0-3.36-2.56-5.28-9.041-7.6
			c-8.96-3.12-14.8-8.08-14.8-15.92c0-9.2,7.68-16.24,20.4-16.24c6.081,0,10.561,1.28,13.761,2.72l-2.721,9.84
			c-2.16-1.04-6-2.56-11.28-2.56s-7.84,2.4-7.84,5.2c0,3.44,3.04,4.96,10,7.6c9.52,3.521,14,8.48,14,16.081
			c0,9.04-6.96,16.72-21.761,16.72c-6.16,0-12.24-1.6-15.28-3.28L484.521,277.935z"/>
		<path d="M535.32,251.374l3.12,16c0.8,4.08,1.601,8.4,2.24,12.88h0.159c0.801-4.48,1.921-8.96,2.881-12.8l4.16-16.081h9.6
			l3.92,15.601c1.041,4.4,2.08,8.8,2.881,13.28h0.16c0.56-4.48,1.359-8.88,2.24-13.36l3.359-15.521h11.92l-12,39.121h-11.439
			l-3.681-13.76c-0.96-3.84-1.681-7.36-2.479-12.16h-0.16c-0.721,4.88-1.521,8.48-2.561,12.16l-3.92,13.76h-11.44l-11.36-39.121
			H535.32z"/>
		<path d="M600.199,240.494c0,3.36-2.561,6.08-6.561,6.08c-3.84,0-6.4-2.72-6.32-6.08c-0.08-3.52,2.48-6.16,6.4-6.16
			S600.119,236.974,600.199,240.494z M587.639,290.495v-39.121h12.16v39.121H587.639z"/>
		<path d="M609.558,263.854c0-4.88-0.159-9.04-0.319-12.48h10.56l0.56,5.36h0.24c1.601-2.48,5.601-6.24,12.08-6.24
			c8.001,0,14.001,5.28,14.001,16.8v23.201h-12.16v-21.681c0-5.04-1.761-8.48-6.16-8.48c-3.36,0-5.36,2.32-6.16,4.56
			c-0.32,0.72-0.479,1.92-0.479,3.04v22.561h-12.161V263.854z"/>
		<path d="M693.799,251.374c-0.16,2.48-0.32,5.76-0.32,11.601v21.84c0,7.52-1.52,13.68-5.92,17.601c-4.32,3.68-10.16,4.8-15.92,4.8
			c-5.121,0-10.561-1.04-14.081-3.04l2.4-9.2c2.479,1.44,6.8,2.96,11.36,2.96c5.76,0,10.16-3.12,10.16-10.32v-2.56h-0.16
			c-2.32,3.28-6.08,5.12-10.561,5.12c-9.68,0-16.561-7.84-16.561-19.121c0-12.561,8.16-20.561,17.761-20.561
			c5.36,0,8.721,2.32,10.721,5.52h0.159l0.4-4.64H693.799z M681.318,267.294c0-0.8-0.08-1.6-0.24-2.24c-0.88-3.2-3.2-5.36-6.56-5.36
			c-4.4,0-8.001,4-8.001,11.12c0,5.84,2.881,10.4,8.001,10.4c3.12,0,5.6-2.08,6.399-4.96c0.32-0.88,0.4-2.16,0.4-3.2V267.294z"/>
		<path d="M709.396,273.055l-0.08-2.08c-0.239-4.08,1.12-8.24,4.721-12.56c2.56-3.04,4.64-5.6,4.64-8.32c0-2.8-1.84-4.64-5.84-4.8
			c-2.641,0-5.84,0.96-7.92,2.4l-2.721-8.72c2.88-1.68,7.681-3.28,13.36-3.28c10.561,0,15.36,5.84,15.36,12.48
			c0,6.08-3.76,10.08-6.8,13.44c-2.96,3.28-4.16,6.4-4.08,10v1.44H709.396z M707.316,284.095c0-4.24,2.96-7.28,7.12-7.28
			c4.32,0,7.12,3.04,7.2,7.28c0,4.16-2.88,7.28-7.2,7.28C710.196,291.375,707.316,288.255,707.316,284.095z"/>
	</g>
	<g>
		<path d="M398.204,145.014c2.48-7.84,5.92-15.68,9.6-21.68l7.36-0.64c-2.48,6.8-4.48,14.561-5.6,21.601L398.204,145.014z"/>
	</g>
</g>
<g id="jfx:p03">
	<g>
		<path style="fill:#DF5F00;" d="M275.503,435.707h82.399v25h-51.799v30.799h48.399v24.8h-48.399v54.199h-30.6V435.707z"/>
		<path style="fill:#DF5F00;" d="M451.901,570.505l-12.2-24.399c-5-9.4-8.2-16.4-12-24.199h-0.4c-2.8,7.799-6.2,14.799-10.4,24.199
			l-11.2,24.399h-34.799l38.999-68.198l-37.599-66.6h35l11.8,24.6c4,8.199,7,14.8,10.2,22.399h0.4c3.2-8.6,5.8-14.6,9.2-22.399
			l11.4-24.6h34.8l-38,65.799l39.999,68.999H451.901z"/>
		<path style="fill:#DF5F00;" d="M617.498,518.906c-0.6-16.2-1.199-35.8-1.199-55.4h-0.601c-4.2,17.2-9.8,36.4-14.999,52.199
			l-16.4,52.6h-23.8L546.1,516.105c-4.4-15.799-9-34.999-12.2-52.6H533.5c-0.801,18.2-1.4,39-2.4,55.8l-2.4,51.199H500.5
			l8.6-134.798h40.599l13.2,44.999c4.2,15.601,8.399,32.399,11.399,48.199h0.6c3.801-15.6,8.4-33.399,12.801-48.399l14.399-44.799
			h39.8l7.399,134.798h-29.8L617.498,518.906z"/>
		<path style="fill:#DF5F00;" d="M672.699,435.707h30.6v109.198h53.599v25.6h-84.198V435.707z"/>
	</g>
</g>
</svg>
