<?xml version="1.0" encoding="iso-8859-1"?>
<!-- Generator: Adobe Illustrator 16.1.1, SVG Export Plug-In . SVG Version: 6.00 Build 0)  -->
<!DOCTYPE svg PUBLIC "-//W3C//DTD SVG 1.1//EN" "http://www.w3.org/Graphics/SVG/1.1/DTD/svg11.dtd">
<svg version="1.1" xmlns="http://www.w3.org/2000/svg" xmlns:xlink="http://www.w3.org/1999/xlink" x="0px" y="0px" width="1024px"
	 height="768px" viewBox="0 0 1024 768" style="enable-background:new 0 0 1024 768;" xml:space="preserve">
<g id="jfx:p00">
	<image style="overflow:visible;" width="1024" height="768" xlink:href="714C38EC.jpg" >
	</image>
</g>
<g id="jfx:p01">
	<g>
		<path d="M118.858,111.542c-3.76,1.28-10.88,3.04-18,3.04c-9.84,0-16.96-2.48-21.92-7.28c-4.96-4.64-7.68-11.68-7.6-19.601
			c0.08-17.92,13.12-28.161,30.8-28.161c6.96,0,12.32,1.36,14.96,2.64l-2.56,9.76c-2.96-1.28-6.64-2.32-12.56-2.32
			c-10.16,0-17.84,5.76-17.84,17.44c0,11.12,6.96,17.68,16.96,17.68c2.8,0,5.041-0.32,6-0.8v-11.28h-8.32v-9.521h20.081V111.542z"/>
		<path d="M140.537,60.101v31.041c0,9.28,3.52,14,9.76,14c6.4,0,9.92-4.48,9.92-14V60.101h12.16v30.241
			c0,16.641-8.4,24.561-22.48,24.561c-13.601,0-21.601-7.52-21.601-24.72V60.101H140.537z"/>
		<path d="M195.176,60.101v53.921h-12.24V60.101H195.176z"/>
		<path d="M222.294,101.462c3.28,1.68,8.32,3.36,13.521,3.36c5.6,0,8.56-2.32,8.56-5.84c0-3.36-2.56-5.28-9.041-7.6
			c-8.96-3.12-14.8-8.08-14.8-15.92c0-9.2,7.68-16.24,20.401-16.24c6.08,0,10.56,1.28,13.76,2.72l-2.72,9.84
			c-2.16-1.04-6-2.56-11.28-2.56s-7.84,2.4-7.84,5.2c0,3.44,3.04,4.96,10,7.6c9.52,3.521,14,8.48,14,16.081
			c0,9.04-6.96,16.72-21.76,16.72c-6.16,0-12.24-1.6-15.28-3.28L222.294,101.462z"/>
		<path d="M278.294,63.701v11.2h8.72v8.96h-8.72v14.16c0,4.72,1.12,6.88,4.8,6.88c1.52,0,2.72-0.16,3.6-0.32l0.08,9.2
			c-1.6,0.64-4.48,1.04-7.92,1.04c-3.92,0-7.2-1.36-9.12-3.36c-2.24-2.32-3.36-6.08-3.36-11.6v-16h-5.2v-8.96h5.2v-8.48
			L278.294,63.701z"/>
		<path d="M294.053,87.781c0-5.76-0.16-9.52-0.32-12.88h10.48l0.4,7.2h0.32c2-5.68,6.8-8.08,10.561-8.08c1.12,0,1.68,0,2.56,0.16
			v11.44c-0.88-0.16-1.92-0.32-3.28-0.32c-4.48,0-7.52,2.4-8.32,6.16c-0.16,0.8-0.24,1.76-0.24,2.72v19.84h-12.161V87.781z"/>
		<path d="M361.333,101.462c0,5.12,0.16,9.28,0.32,12.56h-10.561l-0.56-5.52h-0.24c-1.52,2.4-5.2,6.4-12.24,6.4
			c-7.92,0-13.76-4.96-13.76-17.04V74.901h12.24v21.041c0,5.68,1.84,9.121,6.08,9.121c3.36,0,5.28-2.32,6.08-4.24
			c0.32-0.72,0.4-1.68,0.4-2.64V74.901h12.24V101.462z"/>
		<path d="M400.453,113.062c-2.16,0.96-6.24,1.76-10.88,1.76c-12.64,0-20.72-7.68-20.72-20c0-11.44,7.84-20.801,22.4-20.801
			c3.2,0,6.72,0.56,9.28,1.52l-1.92,9.041c-1.44-0.64-3.6-1.2-6.8-1.2c-6.4,0-10.56,4.56-10.48,10.96c0,7.2,4.8,10.96,10.721,10.96
			c2.88,0,5.12-0.48,6.96-1.2L400.453,113.062z"/>
		<path d="M420.772,63.701v11.2h8.72v8.96h-8.72v14.16c0,4.72,1.12,6.88,4.8,6.88c1.52,0,2.72-0.16,3.6-0.32l0.08,9.2
			c-1.6,0.64-4.48,1.04-7.92,1.04c-3.92,0-7.2-1.36-9.12-3.36c-2.24-2.32-3.36-6.08-3.36-11.6v-16h-5.2v-8.96h5.2v-8.48
			L420.772,63.701z"/>
		<path d="M473.412,101.462c0,5.12,0.16,9.28,0.32,12.56h-10.561l-0.56-5.52h-0.24c-1.521,2.4-5.2,6.4-12.24,6.4
			c-7.92,0-13.76-4.96-13.76-17.04V74.901h12.24v21.041c0,5.68,1.84,9.121,6.08,9.121c3.36,0,5.28-2.32,6.081-4.24
			c0.319-0.72,0.399-1.68,0.399-2.64V74.901h12.24V101.462z"/>
		<path d="M483.17,87.781c0-5.76-0.16-9.52-0.319-12.88h10.479l0.4,7.2h0.32c2-5.68,6.8-8.08,10.56-8.08c1.12,0,1.681,0,2.561,0.16
			v11.44c-0.88-0.16-1.92-0.32-3.28-0.32c-4.48,0-7.521,2.4-8.32,6.16c-0.16,0.8-0.24,1.76-0.24,2.72v19.84h-12.16V87.781z"/>
		<path d="M522.93,98.342c0.4,5.04,5.361,7.44,11.041,7.44c4.16,0,7.52-0.56,10.801-1.6l1.6,8.24c-4,1.6-8.881,2.4-14.16,2.4
			c-13.281,0-20.881-7.68-20.881-19.92c0-9.92,6.161-20.88,19.76-20.88c12.641,0,17.441,9.84,17.441,19.521
			c0,2.08-0.24,3.92-0.4,4.8H522.93z M537.25,90.021c0-2.96-1.279-7.92-6.879-7.92c-5.121,0-7.201,4.64-7.521,7.92H537.25z"/>
	</g>
</g>
<g id="jfx:p02">
	
		<line style="fill:none;stroke:#F89820;stroke-width:10;stroke-miterlimit:10;" x1="251.883" y1="222.778" x2="886.389" y2="222.778"/>
	<g>
		<rect x="494.137" y="174.278" width="250.005" height="100"/>
		<rect x="491.137" y="171.278" style="fill:#5382A1;" width="250.005" height="100"/>
	</g>
	<g>
		<path style="fill:#FFFFFF;" d="M535.605,235.954c-1.344,0.672-4.368,1.392-8.305,1.392c-11.185,0-16.945-6.96-16.945-16.177
			c0-11.041,7.873-17.186,17.666-17.186c3.792,0,6.672,0.768,7.969,1.44l-1.488,5.809c-1.488-0.624-3.553-1.2-6.145-1.2
			c-5.809,0-10.321,3.504-10.321,10.705c0,6.48,3.841,10.561,10.369,10.561c2.208,0,4.656-0.48,6.097-1.056L535.605,235.954z"/>
		<path style="fill:#FFFFFF;" d="M563.35,224.865c0,8.593-6.097,12.529-12.386,12.529c-6.864,0-12.145-4.512-12.145-12.097
			c0-7.585,4.992-12.433,12.529-12.433C558.549,212.864,563.35,217.809,563.35,224.865z M546.355,225.105
			c0,4.033,1.681,7.057,4.801,7.057c2.832,0,4.656-2.832,4.656-7.057c0-3.504-1.344-7.056-4.656-7.056
			C547.652,218.049,546.355,221.649,546.355,225.105z"/>
		<path style="fill:#FFFFFF;" d="M567.859,220.881c0-2.928-0.097-5.424-0.192-7.489h6.337l0.336,3.216h0.144
			c0.96-1.488,3.36-3.744,7.249-3.744c4.801,0,8.4,3.168,8.4,10.081v13.921h-7.296v-13.009c0-3.024-1.057-5.088-3.696-5.088
			c-2.017,0-3.217,1.392-3.697,2.736c-0.191,0.432-0.287,1.152-0.287,1.824v13.537h-7.297V220.881z"/>
		<path style="fill:#FFFFFF;" d="M604.147,206.671v6.721h5.232v5.376h-5.232v8.497c0,2.832,0.673,4.128,2.881,4.128
			c0.912,0,1.632-0.096,2.16-0.192l0.048,5.521c-0.96,0.384-2.688,0.624-4.753,0.624c-2.352,0-4.32-0.816-5.472-2.016
			c-1.345-1.392-2.017-3.648-2.017-6.96v-9.601h-3.12v-5.376h3.12v-5.088L604.147,206.671z"/>
		<path style="fill:#FFFFFF;" d="M613.603,221.121c0-3.457-0.096-5.713-0.191-7.729h6.288l0.24,4.32h0.192
			c1.199-3.408,4.08-4.848,6.336-4.848c0.672,0,1.008,0,1.536,0.096v6.865c-0.528-0.096-1.152-0.192-1.968-0.192
			c-2.688,0-4.513,1.44-4.992,3.696c-0.097,0.48-0.145,1.056-0.145,1.632v11.905h-7.297V221.121z"/>
		<path style="fill:#FFFFFF;" d="M655.028,224.865c0,8.593-6.097,12.529-12.386,12.529c-6.864,0-12.145-4.512-12.145-12.097
			c0-7.585,4.992-12.433,12.529-12.433C650.228,212.864,655.028,217.809,655.028,224.865z M638.034,225.105
			c0,4.033,1.681,7.057,4.801,7.057c2.832,0,4.656-2.832,4.656-7.057c0-3.504-1.344-7.056-4.656-7.056
			C639.331,218.049,638.034,221.649,638.034,225.105z"/>
		<path style="fill:#FFFFFF;" d="M659.538,202.783h7.297v34.083h-7.297V202.783z"/>
		<path style="fill:#FFFFFF;" d="M672.737,202.783h7.297v34.083h-7.297V202.783z"/>
		<path style="fill:#FFFFFF;" d="M691.554,227.458c0.24,3.024,3.217,4.464,6.625,4.464c2.496,0,4.512-0.336,6.48-0.96l0.96,4.944
			c-2.4,0.96-5.328,1.44-8.497,1.44c-7.969,0-12.529-4.608-12.529-11.953c0-5.952,3.696-12.529,11.857-12.529
			c7.585,0,10.465,5.904,10.465,11.713c0,1.248-0.144,2.352-0.24,2.88H691.554z M700.146,222.465c0-1.776-0.768-4.752-4.128-4.752
			c-3.072,0-4.32,2.784-4.513,4.752H700.146z"/>
		<path style="fill:#FFFFFF;" d="M711.281,221.121c0-3.457-0.096-5.713-0.191-7.729h6.288l0.24,4.32h0.192
			c1.199-3.408,4.08-4.848,6.336-4.848c0.672,0,1.008,0,1.536,0.096v6.865c-0.528-0.096-1.152-0.192-1.968-0.192
			c-2.688,0-4.513,1.44-4.992,3.696c-0.097,0.48-0.145,1.056-0.145,1.632v11.905h-7.297V221.121z"/>
	</g>
	<g>
		<rect x="226.889" y="174.278" width="250" height="100"/>
		<rect x="223.889" y="171.278" style="fill:#5382A1;" width="250" height="100"/>
	</g>
	<g>
		<path style="fill:#FFFFFF;" d="M308.464,236.866l-10.369-32.355h8.017l3.937,13.681c1.104,3.84,2.112,7.537,2.88,11.569h0.144
			c0.816-3.889,1.824-7.729,2.928-11.425l4.128-13.825h7.777l-10.897,32.355H308.464z"/>
		<path style="fill:#FFFFFF;" d="M338.656,206.864c0,2.016-1.536,3.648-3.937,3.648c-2.304,0-3.84-1.632-3.792-3.648
			c-0.048-2.112,1.488-3.696,3.84-3.696S338.608,204.751,338.656,206.864z M331.119,236.866v-23.474h7.297v23.474H331.119z"/>
		<path style="fill:#FFFFFF;" d="M349.887,227.458c0.24,3.024,3.216,4.464,6.625,4.464c2.496,0,4.512-0.336,6.48-0.96l0.96,4.944
			c-2.4,0.96-5.329,1.44-8.497,1.44c-7.969,0-12.529-4.608-12.529-11.953c0-5.952,3.696-12.529,11.857-12.529
			c7.584,0,10.465,5.904,10.465,11.713c0,1.248-0.144,2.352-0.24,2.88H349.887z M358.48,222.465c0-1.776-0.768-4.752-4.128-4.752
			c-3.072,0-4.32,2.784-4.513,4.752H358.48z"/>
		<path style="fill:#FFFFFF;" d="M374.655,213.392l1.872,9.601c0.48,2.448,0.96,5.04,1.344,7.729h0.096
			c0.48-2.688,1.152-5.376,1.729-7.681l2.496-9.649h5.76l2.353,9.361c0.624,2.64,1.248,5.28,1.728,7.969h0.096
			c0.336-2.688,0.816-5.329,1.344-8.017l2.017-9.313h7.152l-7.201,23.474h-6.865l-2.208-8.257c-0.576-2.304-1.008-4.416-1.488-7.296
			h-0.096c-0.432,2.928-0.912,5.088-1.536,7.296l-2.353,8.257h-6.864l-6.817-23.474H374.655z"/>
	</g>
	<g>
		<rect x="761.39" y="174.278" width="250" height="100"/>
		<rect x="758.39" y="171.278" style="fill:#5382A1;" width="250" height="100"/>
	</g>
	<g>
		<path style="fill:#FFFFFF;" d="M847.689,224.481c-0.144-3.888-0.288-8.593-0.288-13.297h-0.144
			c-1.009,4.128-2.353,8.737-3.601,12.529l-3.937,12.625h-5.712l-3.457-12.529c-1.056-3.792-2.16-8.401-2.928-12.625h-0.096
			c-0.192,4.368-0.337,9.361-0.576,13.393l-0.576,12.289h-6.769l2.063-32.355h9.745l3.168,10.801
			c1.009,3.744,2.017,7.776,2.736,11.569h0.145c0.912-3.744,2.016-8.017,3.072-11.617l3.456-10.753h9.553l1.776,32.355h-7.152
			L847.689,224.481z"/>
		<path style="fill:#FFFFFF;" d="M883.881,224.865c0,8.593-6.097,12.529-12.386,12.529c-6.864,0-12.145-4.512-12.145-12.097
			c0-7.585,4.992-12.433,12.529-12.433C879.08,212.864,883.881,217.809,883.881,224.865z M866.887,225.105
			c0,4.033,1.681,7.057,4.801,7.057c2.832,0,4.656-2.832,4.656-7.057c0-3.504-1.344-7.056-4.656-7.056
			C868.184,218.049,866.887,221.649,866.887,225.105z"/>
		<path style="fill:#FFFFFF;" d="M911.145,202.783v27.074c0,2.641,0.096,5.425,0.191,7.009h-6.48l-0.336-3.456h-0.096
			c-1.488,2.64-4.32,3.984-7.345,3.984c-5.568,0-10.033-4.752-10.033-12.049c-0.048-7.921,4.896-12.481,10.514-12.481
			c2.88,0,5.136,1.008,6.192,2.64h0.096v-12.721H911.145z M903.848,223.329c0-0.384-0.048-0.912-0.096-1.296
			c-0.433-1.968-2.017-3.6-4.272-3.6c-3.313,0-5.041,2.976-5.041,6.672c0,3.984,1.969,6.481,4.993,6.481
			c2.112,0,3.792-1.44,4.224-3.504c0.145-0.528,0.192-1.056,0.192-1.68V223.329z"/>
		<path style="fill:#FFFFFF;" d="M922.615,227.458c0.239,3.024,3.216,4.464,6.624,4.464c2.496,0,4.513-0.336,6.48-0.96l0.96,4.944
			c-2.399,0.96-5.328,1.44-8.496,1.44c-7.969,0-12.529-4.608-12.529-11.953c0-5.952,3.696-12.529,11.857-12.529
			c7.584,0,10.465,5.904,10.465,11.713c0,1.248-0.145,2.352-0.24,2.88H922.615z M931.208,222.465c0-1.776-0.769-4.752-4.129-4.752
			c-3.072,0-4.32,2.784-4.513,4.752H931.208z"/>
		<path style="fill:#FFFFFF;" d="M942.342,202.783h7.297v34.083h-7.297V202.783z"/>
	</g>
</g>
<g id="jfx:p03">
	<g>
		<path d="M566.438,318.888h9.728v27.262c0,12.287-5.888,16.575-15.359,16.575c-2.239,0-5.184-0.384-7.104-1.024l1.088-7.872
			c1.344,0.448,3.072,0.768,4.992,0.768c4.096,0,6.655-1.856,6.655-8.576V318.888z"/>
		<path d="M601.766,362.021l-0.576-3.136h-0.192c-2.048,2.496-5.247,3.84-8.959,3.84c-6.335,0-10.111-4.608-10.111-9.6
			c0-8.127,7.296-12.031,18.367-11.967v-0.448c0-1.664-0.896-4.032-5.696-4.032c-3.199,0-6.591,1.088-8.639,2.368l-1.792-6.272
			c2.176-1.216,6.463-2.751,12.159-2.751c10.431,0,13.759,6.144,13.759,13.503v10.879c0,3.008,0.128,5.887,0.448,7.615H601.766z
			 M600.613,347.238c-5.119-0.064-9.087,1.152-9.087,4.927c0,2.496,1.664,3.712,3.84,3.712c2.432,0,4.415-1.6,5.056-3.584
			c0.128-0.512,0.191-1.088,0.191-1.664V347.238z"/>
		<path d="M624.998,330.727l4.224,14.527c0.769,2.624,1.344,5.12,1.792,7.615h0.192c0.512-2.56,1.023-4.928,1.728-7.615
			l4.032-14.527h10.239l-11.647,31.294h-9.728l-11.391-31.294H624.998z"/>
		<path d="M669.478,362.021l-0.576-3.136h-0.192c-2.048,2.496-5.247,3.84-8.959,3.84c-6.335,0-10.111-4.608-10.111-9.6
			c0-8.127,7.296-12.031,18.367-11.967v-0.448c0-1.664-0.896-4.032-5.696-4.032c-3.199,0-6.591,1.088-8.639,2.368l-1.792-6.272
			c2.176-1.216,6.463-2.751,12.159-2.751c10.431,0,13.759,6.144,13.759,13.503v10.879c0,3.008,0.128,5.887,0.448,7.615H669.478z
			 M668.325,347.238c-5.119-0.064-9.087,1.152-9.087,4.927c0,2.496,1.664,3.712,3.84,3.712c2.432,0,4.415-1.6,5.056-3.584
			c0.128-0.512,0.191-1.088,0.191-1.664V347.238z"/>
	</g>
	<g>
		<path d="M299.189,318.888h9.728v27.262c0,12.287-5.888,16.575-15.359,16.575c-2.24,0-5.184-0.384-7.104-1.024l1.088-7.872
			c1.344,0.448,3.072,0.768,4.992,0.768c4.096,0,6.655-1.856,6.655-8.576V318.888z"/>
		<path d="M334.516,362.021l-0.576-3.136h-0.192c-2.048,2.496-5.248,3.84-8.959,3.84c-6.335,0-10.111-4.608-10.111-9.6
			c0-8.127,7.295-12.031,18.367-11.967v-0.448c0-1.664-0.896-4.032-5.696-4.032c-3.2,0-6.591,1.088-8.639,2.368l-1.792-6.272
			c2.176-1.216,6.463-2.751,12.159-2.751c10.431,0,13.759,6.144,13.759,13.503v10.879c0,3.008,0.128,5.887,0.448,7.615H334.516z
			 M333.364,347.238c-5.12-0.064-9.087,1.152-9.087,4.927c0,2.496,1.664,3.712,3.84,3.712c2.432,0,4.416-1.6,5.056-3.584
			c0.128-0.512,0.192-1.088,0.192-1.664V347.238z"/>
		<path d="M357.749,330.727l4.224,14.527c0.768,2.624,1.344,5.12,1.792,7.615h0.192c0.512-2.56,1.024-4.928,1.728-7.615
			l4.032-14.527h10.239l-11.647,31.294h-9.727l-11.391-31.294H357.749z"/>
		<path d="M402.228,362.021l-0.576-3.136h-0.192c-2.048,2.496-5.248,3.84-8.959,3.84c-6.335,0-10.111-4.608-10.111-9.6
			c0-8.127,7.295-12.031,18.367-11.967v-0.448c0-1.664-0.896-4.032-5.696-4.032c-3.2,0-6.591,1.088-8.639,2.368l-1.792-6.272
			c2.176-1.216,6.463-2.751,12.159-2.751c10.431,0,13.759,6.144,13.759,13.503v10.879c0,3.008,0.128,5.887,0.448,7.615H402.228z
			 M401.076,347.238c-5.12-0.064-9.087,1.152-9.087,4.927c0,2.496,1.664,3.712,3.84,3.712c2.432,0,4.416-1.6,5.056-3.584
			c0.128-0.512,0.192-1.088,0.192-1.664V347.238z"/>
	</g>
	<g>
		<path d="M833.688,318.888h9.728v27.262c0,12.287-5.888,16.575-15.359,16.575c-2.239,0-5.184-0.384-7.104-1.024l1.088-7.872
			c1.344,0.448,3.072,0.768,4.992,0.768c4.096,0,6.655-1.856,6.655-8.576V318.888z"/>
		<path d="M869.016,362.021l-0.576-3.136h-0.192c-2.048,2.496-5.247,3.84-8.959,3.84c-6.335,0-10.111-4.608-10.111-9.6
			c0-8.127,7.296-12.031,18.367-11.967v-0.448c0-1.664-0.896-4.032-5.696-4.032c-3.199,0-6.591,1.088-8.639,2.368l-1.792-6.272
			c2.176-1.216,6.463-2.751,12.159-2.751c10.431,0,13.759,6.144,13.759,13.503v10.879c0,3.008,0.128,5.887,0.448,7.615H869.016z
			 M867.863,347.238c-5.119-0.064-9.087,1.152-9.087,4.927c0,2.496,1.664,3.712,3.84,3.712c2.432,0,4.415-1.6,5.056-3.584
			c0.128-0.512,0.191-1.088,0.191-1.664V347.238z"/>
		<path d="M892.248,330.727l4.224,14.527c0.769,2.624,1.344,5.12,1.792,7.615h0.192c0.512-2.56,1.023-4.928,1.728-7.615
			l4.032-14.527h10.239l-11.647,31.294h-9.728l-11.391-31.294H892.248z"/>
		<path d="M936.728,362.021l-0.576-3.136h-0.192c-2.048,2.496-5.247,3.84-8.959,3.84c-6.335,0-10.111-4.608-10.111-9.6
			c0-8.127,7.296-12.031,18.367-11.967v-0.448c0-1.664-0.896-4.032-5.696-4.032c-3.199,0-6.591,1.088-8.639,2.368l-1.792-6.272
			c2.176-1.216,6.463-2.751,12.159-2.751c10.431,0,13.759,6.144,13.759,13.503v10.879c0,3.008,0.128,5.887,0.448,7.615H936.728z
			 M935.575,347.238c-5.119-0.064-9.087,1.152-9.087,4.927c0,2.496,1.664,3.712,3.84,3.712c2.432,0,4.415-1.6,5.056-3.584
			c0.128-0.512,0.191-1.088,0.191-1.664V347.238z"/>
	</g>
	<g>
		<path d="M21.044,351.974c2.624,1.344,6.656,2.688,10.815,2.688c4.479,0,6.848-1.856,6.848-4.672c0-2.688-2.048-4.224-7.231-6.08
			c-7.167-2.496-11.839-6.463-11.839-12.735c0-7.359,6.144-12.991,16.319-12.991c4.864,0,8.447,1.024,11.007,2.176l-2.176,7.872
			c-1.728-0.832-4.8-2.048-9.023-2.048s-6.271,1.92-6.271,4.16c0,2.752,2.432,3.968,7.999,6.08
			c7.616,2.816,11.199,6.784,11.199,12.863c0,7.231-5.567,13.375-17.407,13.375c-4.927,0-9.791-1.28-12.223-2.624L21.044,351.974z"
			/>
		<path d="M61.684,330.727l2.496,12.799c0.64,3.264,1.28,6.719,1.792,10.303H66.1c0.64-3.584,1.536-7.167,2.304-10.239l3.328-12.863
			h7.68l3.136,12.479c0.832,3.52,1.664,7.039,2.304,10.623h0.128c0.448-3.584,1.088-7.104,1.792-10.687l2.688-12.416h9.535
			l-9.6,31.294h-9.151l-2.943-11.007c-0.768-3.072-1.344-5.887-1.984-9.727h-0.128c-0.576,3.904-1.216,6.783-2.048,9.727
			l-3.136,11.007h-9.151l-9.087-31.294H61.684z"/>
		<path d="M113.587,322.024c0,2.688-2.048,4.864-5.248,4.864c-3.071,0-5.119-2.176-5.055-4.864c-0.064-2.816,1.984-4.928,5.12-4.928
			S113.523,319.208,113.587,322.024z M103.54,362.021v-31.294h9.727v31.294H103.54z"/>
		<path d="M121.075,340.71c0-3.904-0.128-7.231-0.256-9.983h8.447l0.448,4.288h0.192c1.28-1.984,4.48-4.992,9.664-4.992
			c6.399,0,11.199,4.224,11.199,13.439v18.559h-9.728v-17.343c0-4.032-1.408-6.784-4.928-6.784c-2.688,0-4.288,1.856-4.927,3.648
			c-0.256,0.576-0.384,1.536-0.384,2.432v18.047h-9.727V340.71z"/>
		<path d="M188.464,330.727c-0.128,1.984-0.256,4.608-0.256,9.279v17.471c0,6.015-1.216,10.943-4.736,14.079
			c-3.456,2.944-8.127,3.84-12.735,3.84c-4.096,0-8.448-0.832-11.263-2.432l1.92-7.359c1.983,1.152,5.439,2.368,9.087,2.368
			c4.608,0,8.127-2.496,8.127-8.255v-2.048h-0.128c-1.856,2.624-4.864,4.096-8.447,4.096c-7.744,0-13.247-6.271-13.247-15.295
			c0-10.047,6.527-16.447,14.207-16.447c4.288,0,6.976,1.856,8.575,4.416h0.128l0.32-3.712H188.464z M178.481,343.462
			c0-0.64-0.064-1.28-0.192-1.792c-0.704-2.56-2.56-4.288-5.248-4.288c-3.52,0-6.399,3.2-6.399,8.896
			c0,4.671,2.304,8.319,6.399,8.319c2.496,0,4.479-1.664,5.12-3.968c0.256-0.704,0.32-1.728,0.32-2.56V343.462z"/>
	</g>
</g>
<g id="jfx:p04">
	<g>
		<path style="fill:#F89820;" d="M255.792,426.765h32.96v10.001h-20.72v12.32h19.36v9.92h-19.36v21.681h-12.24V426.765z"/>
		<path style="fill:#F89820;" d="M326.351,480.687l-4.88-9.761c-2-3.76-3.28-6.56-4.8-9.68h-0.16c-1.12,3.12-2.48,5.92-4.16,9.68
			l-4.48,9.761h-13.92l15.6-27.281l-15.041-26.641h14l4.72,9.841c1.6,3.28,2.8,5.92,4.08,8.96h0.16c1.28-3.44,2.32-5.84,3.68-8.96
			l4.56-9.841h13.92l-15.2,26.321l16,27.601H326.351z"/>
		<path style="fill:#F89820;" d="M392.591,460.046c-0.24-6.48-0.48-14.32-0.48-22.16h-0.24c-1.68,6.88-3.92,14.56-6,20.88
			l-6.56,21.041h-9.521l-5.76-20.881c-1.76-6.32-3.6-14-4.88-21.04h-0.16c-0.32,7.279-0.56,15.6-0.96,22.32l-0.96,20.48h-11.28
			l3.44-53.922h16.241l5.28,18.001c1.68,6.24,3.36,12.96,4.56,19.28h0.24c1.52-6.24,3.36-13.36,5.12-19.36l5.76-17.921h15.92
			l2.96,53.922h-11.92L392.591,460.046z"/>
		<path style="fill:#F89820;" d="M414.669,426.765h12.24v43.682h21.44v10.24h-33.681V426.765z"/>
	</g>
	<g>
		<g>
			<path d="M528.774,451.481c-1.456,0.729-4.732,1.508-8.996,1.508c-12.116,0-18.356-7.54-18.356-17.524
				c0-11.96,8.528-18.616,19.137-18.616c4.107,0,7.228,0.832,8.632,1.56l-1.612,6.292c-1.611-0.676-3.848-1.3-6.656-1.3
				c-6.292,0-11.18,3.796-11.18,11.597c0,7.021,4.16,11.44,11.232,11.44c2.392,0,5.044-0.521,6.604-1.145L528.774,451.481z"/>
			<path d="M558.83,439.469c0,9.309-6.604,13.573-13.417,13.573c-7.436,0-13.156-4.889-13.156-13.104
				c0-8.217,5.408-13.469,13.572-13.469C553.63,426.469,558.83,431.825,558.83,439.469z M540.421,439.729
				c0,4.368,1.82,7.644,5.2,7.644c3.068,0,5.045-3.067,5.045-7.644c0-3.797-1.456-7.645-5.045-7.645
				C541.825,432.085,540.421,435.985,540.421,439.729z"/>
			<path d="M563.717,435.153c0-3.173-0.104-5.877-0.208-8.112h6.864l0.364,3.483h0.156c1.04-1.611,3.64-4.056,7.852-4.056
				c5.2,0,9.101,3.432,9.101,10.92v15.081h-7.904v-14.093c0-3.276-1.144-5.512-4.004-5.512c-2.185,0-3.484,1.508-4.004,2.964
				c-0.208,0.468-0.313,1.248-0.313,1.976v14.665h-7.904V435.153z"/>
			<path d="M603.029,419.761v7.28h5.668v5.824h-5.668v9.204c0,3.068,0.728,4.472,3.12,4.472c0.987,0,1.768-0.104,2.34-0.208
				l0.052,5.98c-1.04,0.416-2.912,0.676-5.148,0.676c-2.548,0-4.68-0.884-5.928-2.184c-1.456-1.508-2.185-3.952-2.185-7.54v-10.4
				h-3.38v-5.824h3.38v-5.513L603.029,419.761z"/>
			<path d="M613.272,435.413c0-3.744-0.104-6.188-0.208-8.372h6.812l0.261,4.68h0.208c1.3-3.692,4.42-5.252,6.864-5.252
				c0.728,0,1.092,0,1.664,0.104v7.437c-0.572-0.104-1.248-0.208-2.133-0.208c-2.912,0-4.888,1.561-5.408,4.004
				c-0.104,0.521-0.155,1.145-0.155,1.769v12.896h-7.904V435.413z"/>
			<path d="M658.148,439.469c0,9.309-6.604,13.573-13.417,13.573c-7.436,0-13.156-4.889-13.156-13.104
				c0-8.217,5.408-13.469,13.572-13.469C652.948,426.469,658.148,431.825,658.148,439.469z M639.739,439.729
				c0,4.368,1.82,7.644,5.2,7.644c3.068,0,5.045-3.067,5.045-7.644c0-3.797-1.456-7.645-5.045-7.645
				C641.144,432.085,639.739,435.985,639.739,439.729z"/>
			<path d="M663.035,415.548h7.904v36.922h-7.904V415.548z"/>
			<path d="M677.335,415.548h7.904v36.922h-7.904V415.548z"/>
			<path d="M697.719,442.277c0.261,3.276,3.484,4.836,7.177,4.836c2.704,0,4.888-0.364,7.021-1.04l1.04,5.356
				c-2.601,1.04-5.772,1.56-9.205,1.56c-8.632,0-13.572-4.992-13.572-12.948c0-6.448,4.004-13.572,12.845-13.572
				c8.216,0,11.336,6.396,11.336,12.688c0,1.352-0.155,2.548-0.26,3.12H697.719z M707.027,436.869c0-1.924-0.832-5.148-4.472-5.148
				c-3.328,0-4.681,3.017-4.889,5.148H707.027z"/>
			<path d="M719.091,435.413c0-3.744-0.104-6.188-0.208-8.372h6.813l0.26,4.68h0.208c1.3-3.692,4.42-5.252,6.864-5.252
				c0.729,0,1.092,0,1.664,0.104v7.437c-0.572-0.104-1.248-0.208-2.132-0.208c-2.912,0-4.889,1.561-5.408,4.004
				c-0.104,0.521-0.156,1.145-0.156,1.769v12.896h-7.904V435.413z"/>
		</g>
		<g>
			<path d="M587.897,491.479c-1.456,0.729-4.731,1.508-8.996,1.508c-12.116,0-18.356-7.54-18.356-17.524
				c0-11.96,8.528-18.616,19.137-18.616c4.108,0,7.229,0.832,8.632,1.56l-1.611,6.292c-1.612-0.676-3.849-1.3-6.656-1.3
				c-6.293,0-11.181,3.796-11.181,11.597c0,7.021,4.16,11.44,11.232,11.44c2.392,0,5.044-0.521,6.604-1.145L587.897,491.479z"/>
			<path d="M592.836,455.545h7.904v36.922h-7.904V455.545z"/>
			<path d="M621.593,492.467l-0.468-2.548h-0.156c-1.664,2.027-4.265,3.12-7.28,3.12c-5.148,0-8.217-3.744-8.217-7.801
				c0-6.604,5.929-9.776,14.925-9.725v-0.363c0-1.353-0.728-3.276-4.628-3.276c-2.601,0-5.356,0.884-7.021,1.924l-1.456-5.096
				c1.769-0.988,5.252-2.236,9.881-2.236c8.476,0,11.18,4.992,11.18,10.973v8.84c0,2.444,0.104,4.784,0.364,6.188H621.593z
				 M620.656,480.454c-4.16-0.052-7.384,0.937-7.384,4.004c0,2.028,1.352,3.017,3.12,3.017c1.976,0,3.588-1.3,4.108-2.912
				c0.104-0.416,0.155-0.884,0.155-1.353V480.454z"/>
			<path d="M634.54,485.551c1.456,0.884,4.473,1.924,6.813,1.924c2.392,0,3.38-0.832,3.38-2.132c0-1.301-0.78-1.925-3.744-2.912
				c-5.252-1.769-7.28-4.629-7.229-7.645c0-4.732,4.057-8.32,10.349-8.32c2.964,0,5.616,0.676,7.177,1.456l-1.404,5.46
				c-1.145-0.624-3.328-1.456-5.513-1.456c-1.924,0-3.016,0.78-3.016,2.08c0,1.196,0.988,1.82,4.108,2.912
				c4.836,1.664,6.864,4.108,6.916,7.853c0,4.732-3.744,8.216-11.024,8.216c-3.328,0-6.292-0.728-8.217-1.768L634.54,485.551z"/>
			<path d="M657.107,485.551c1.456,0.884,4.473,1.924,6.813,1.924c2.392,0,3.38-0.832,3.38-2.132c0-1.301-0.78-1.925-3.744-2.912
				c-5.252-1.769-7.28-4.629-7.229-7.645c0-4.732,4.057-8.32,10.349-8.32c2.964,0,5.616,0.676,7.177,1.456l-1.404,5.46
				c-1.145-0.624-3.328-1.456-5.513-1.456c-1.924,0-3.016,0.78-3.016,2.08c0,1.196,0.988,1.82,4.108,2.912
				c4.836,1.664,6.864,4.108,6.916,7.853c0,4.732-3.744,8.216-11.024,8.216c-3.328,0-6.292-0.728-8.217-1.768L657.107,485.551z"/>
		</g>
	</g>
	<g>
		<path d="M833.688,432.857h9.728v27.262c0,12.287-5.888,16.575-15.358,16.575c-2.24,0-5.184-0.385-7.104-1.024l1.088-7.871
			c1.344,0.447,3.071,0.768,4.991,0.768c4.096,0,6.655-1.855,6.655-8.575V432.857z"/>
		<path d="M869.016,475.99l-0.575-3.136h-0.192c-2.048,2.495-5.248,3.84-8.959,3.84c-6.336,0-10.111-4.608-10.111-9.6
			c0-8.128,7.295-12.031,18.366-11.967v-0.448c0-1.664-0.896-4.032-5.695-4.032c-3.2,0-6.592,1.088-8.64,2.368l-1.792-6.271
			c2.176-1.216,6.464-2.752,12.159-2.752c10.432,0,13.759,6.144,13.759,13.503v10.88c0,3.008,0.128,5.887,0.448,7.615H869.016z
			 M867.864,461.207c-5.12-0.063-9.088,1.152-9.088,4.928c0,2.496,1.664,3.712,3.84,3.712c2.432,0,4.416-1.601,5.056-3.584
			c0.128-0.512,0.192-1.088,0.192-1.664V461.207z"/>
		<path d="M892.249,444.696l4.224,14.527c0.768,2.623,1.344,5.119,1.792,7.615h0.191c0.512-2.56,1.024-4.928,1.729-7.615
			l4.031-14.527h10.239l-11.647,31.294h-9.727l-11.392-31.294H892.249z"/>
		<path d="M936.728,475.99l-0.575-3.136h-0.192c-2.048,2.495-5.248,3.84-8.959,3.84c-6.336,0-10.111-4.608-10.111-9.6
			c0-8.128,7.295-12.031,18.366-11.967v-0.448c0-1.664-0.896-4.032-5.695-4.032c-3.2,0-6.592,1.088-8.64,2.368l-1.792-6.271
			c2.176-1.216,6.464-2.752,12.159-2.752c10.432,0,13.759,6.144,13.759,13.503v10.88c0,3.008,0.128,5.887,0.448,7.615H936.728z
			 M935.576,461.207c-5.12-0.063-9.088,1.152-9.088,4.928c0,2.496,1.664,3.712,3.84,3.712c2.432,0,4.416-1.601,5.056-3.584
			c0.128-0.512,0.192-1.088,0.192-1.664V461.207z"/>
	</g>
	<g>
		<path d="M29.235,432.857h9.728v27.262c0,12.287-5.888,16.575-15.359,16.575c-2.24,0-5.184-0.385-7.104-1.024l1.088-7.871
			c1.344,0.447,3.072,0.768,4.992,0.768c4.096,0,6.655-1.855,6.655-8.575V432.857z"/>
		<path d="M64.563,475.99l-0.576-3.136h-0.192c-2.048,2.495-5.248,3.84-8.959,3.84c-6.335,0-10.111-4.608-10.111-9.6
			c0-8.128,7.295-12.031,18.367-11.967v-0.448c0-1.664-0.896-4.032-5.696-4.032c-3.2,0-6.591,1.088-8.639,2.368l-1.792-6.271
			c2.176-1.216,6.463-2.752,12.159-2.752c10.431,0,13.759,6.144,13.759,13.503v10.88c0,3.008,0.128,5.887,0.448,7.615H64.563z
			 M63.411,461.207c-5.12-0.063-9.087,1.152-9.087,4.928c0,2.496,1.664,3.712,3.84,3.712c2.432,0,4.416-1.601,5.056-3.584
			c0.128-0.512,0.192-1.088,0.192-1.664V461.207z"/>
		<path d="M87.795,444.696l4.224,14.527c0.768,2.623,1.344,5.119,1.792,7.615h0.192c0.512-2.56,1.024-4.928,1.728-7.615
			l4.032-14.527h10.239L98.354,475.99h-9.727l-11.391-31.294H87.795z"/>
		<path d="M132.274,475.99l-0.576-3.136h-0.192c-2.048,2.495-5.248,3.84-8.959,3.84c-6.335,0-10.111-4.608-10.111-9.6
			c0-8.128,7.295-12.031,18.367-11.967v-0.448c0-1.664-0.896-4.032-5.696-4.032c-3.2,0-6.591,1.088-8.639,2.368l-1.792-6.271
			c2.176-1.216,6.463-2.752,12.159-2.752c10.431,0,13.759,6.144,13.759,13.503v10.88c0,3.008,0.128,5.887,0.448,7.615H132.274z
			 M131.123,461.207c-5.12-0.063-9.087,1.152-9.087,4.928c0,2.496,1.664,3.712,3.84,3.712c2.432,0,4.416-1.601,5.056-3.584
			c0.128-0.512,0.192-1.088,0.192-1.664V461.207z"/>
		<path d="M148.596,432.857h26.366v7.999h-16.575v9.855h15.487v7.936h-15.487v17.343h-9.792V432.857z"/>
		<path d="M205.042,475.99l-3.904-7.808c-1.6-3.008-2.624-5.248-3.839-7.743h-0.128c-0.896,2.495-1.984,4.735-3.328,7.743
			l-3.583,7.808h-11.135l12.479-21.822l-12.031-21.311h11.199l3.776,7.871c1.28,2.624,2.24,4.735,3.264,7.168h0.128
			c1.024-2.752,1.856-4.672,2.944-7.168l3.648-7.871h11.135l-12.159,21.054l12.799,22.079H205.042z"/>
	</g>
</g>
</svg>
