<?xml version="1.0" encoding="iso-8859-1"?>
<!-- Generator: Adobe Illustrator 16.1.1, SVG Export Plug-In . SVG Version: 6.00 Build 0)  -->
<!DOCTYPE svg PUBLIC "-//W3C//DTD SVG 1.1//EN" "http://www.w3.org/Graphics/SVG/1.1/DTD/svg11.dtd">
<svg version="1.1" xmlns="http://www.w3.org/2000/svg" xmlns:xlink="http://www.w3.org/1999/xlink" x="0px" y="0px" width="1024px"
	 height="768px" viewBox="0 0 1024 768" style="enable-background:new 0 0 1024 768;" xml:space="preserve">
<g id="jfx:p00">
	<image style="overflow:visible;" width="1024" height="768" xlink:href="E46A5A94.jpg" >
	</image>
</g>
<g id="jfx:p01">
	<rect style="opacity:0.7;fill:#FFFFFF;" width="1024" height="768"/>
</g>
<g id="jfx:p02">
	<g>
		<path d="M102.381,119.329v-33.6h12.4v33.84c0,7.067-1.607,12.327-4.82,15.78c-3.214,3.453-8.167,5.18-14.86,5.18
			c-3.494,0-6.614-0.454-9.36-1.36l1.44-9.84c2.346,0.641,4.533,0.96,6.56,0.96c3.12,0,5.34-0.886,6.66-2.659
			C101.721,125.856,102.381,123.09,102.381,119.329z"/>
		<path d="M158.061,116.529v13.601c0,3.946,0.213,7.119,0.64,9.52h-11.12l-0.72-3.92h-0.32c-2.693,3.2-6.507,4.8-11.44,4.8
			c-3.84,0-6.96-1.166-9.36-3.5c-2.4-2.333-3.6-5.166-3.6-8.5c0-4.853,2.033-8.573,6.1-11.16c4.066-2.586,9.9-3.88,17.5-3.88v-0.479
			c0-3.254-2.454-4.88-7.36-4.88c-4,0-7.707,0.986-11.12,2.96l-2.32-7.841c4.346-2.399,9.546-3.6,15.6-3.6
			c5.76,0,10.12,1.454,13.08,4.36S158.061,111.09,158.061,116.529z M146.141,125.169v-4c-7.84,0-11.76,2.027-11.76,6.08
			c0,1.467,0.44,2.607,1.32,3.42c0.88,0.814,2.093,1.221,3.64,1.221c1.68,0,3.233-0.587,4.66-1.76
			C145.427,128.956,146.141,127.303,146.141,125.169z"/>
		<path d="M163.82,100.529h13.44c5.146,16.854,7.76,26.054,7.84,27.601h0.32c0.48-2.667,1.173-5.613,2.08-8.841l5.36-18.76h13.12
			l-15.04,39.12h-12.48L163.82,100.529z"/>
		<path d="M245.019,116.529v13.601c0,3.946,0.213,7.119,0.64,9.52h-11.12l-0.72-3.92h-0.32c-2.693,3.2-6.507,4.8-11.44,4.8
			c-3.84,0-6.96-1.166-9.36-3.5c-2.4-2.333-3.6-5.166-3.6-8.5c0-4.853,2.033-8.573,6.1-11.16c4.066-2.586,9.9-3.88,17.5-3.88v-0.479
			c0-3.254-2.454-4.88-7.36-4.88c-4,0-7.707,0.986-11.12,2.96l-2.32-7.841c4.346-2.399,9.546-3.6,15.6-3.6
			c5.76,0,10.12,1.454,13.08,4.36S245.019,111.09,245.019,116.529z M233.099,125.169v-4c-7.84,0-11.76,2.027-11.76,6.08
			c0,1.467,0.44,2.607,1.32,3.42c0.88,0.814,2.093,1.221,3.64,1.221c1.68,0,3.233-0.587,4.66-1.76
			C232.385,128.956,233.099,127.303,233.099,125.169z"/>
		<path d="M255.338,139.649v-53.92h34.08v10.08h-21.68v12.24h20.24v10h-20.24v21.6H255.338z"/>
		<path d="M342.858,139.649h-14.48c-6.48-12.56-9.813-19.04-10-19.44h-0.16c-0.587,1.547-1.587,3.787-3,6.721l-6.04,12.72h-14.32
			l16.24-27.28l-15.68-26.64h14.4c4.8,9.52,7.84,15.787,9.12,18.8h0.16c1.146-3.2,4.026-9.466,8.64-18.8h14.32l-15.84,26.24
			L342.858,139.649z"/>
		<path d="M366.296,139.649v-53.92h34.08v10.08h-21.68v12.24h20.24v10h-20.24v21.6H366.296z"/>
		<path d="M444.776,124.05h-26c0.213,2.319,1.38,4.127,3.5,5.42s4.766,1.939,7.94,1.939c4.053,0,7.787-0.56,11.2-1.68l1.6,8.24
			c-4.054,1.706-8.907,2.56-14.56,2.56c-6.694,0-11.94-1.786-15.74-5.36c-3.8-3.572-5.7-8.453-5.7-14.64
			c0-5.68,1.826-10.58,5.48-14.7c3.653-4.12,8.573-6.18,14.76-6.18c5.707,0,10.133,1.84,13.28,5.52c3.146,3.681,4.72,8.4,4.72,14.16
			C445.256,121.224,445.097,122.796,444.776,124.05z M418.696,115.569h15.04c0-1.84-0.54-3.593-1.62-5.26
			c-1.08-1.666-2.914-2.5-5.5-2.5c-2.134,0-3.9,0.714-5.3,2.14C419.917,111.376,419.042,113.249,418.696,115.569z"/>
		<path d="M485.896,116.529v13.601c0,3.946,0.213,7.119,0.64,9.52h-11.12l-0.72-3.92h-0.32c-2.693,3.2-6.507,4.8-11.44,4.8
			c-3.84,0-6.96-1.166-9.36-3.5c-2.4-2.333-3.6-5.166-3.6-8.5c0-4.853,2.033-8.573,6.1-11.16c4.066-2.586,9.9-3.88,17.5-3.88v-0.479
			c0-3.254-2.454-4.88-7.36-4.88c-4,0-7.707,0.986-11.12,2.96l-2.32-7.841c4.346-2.399,9.546-3.6,15.6-3.6
			c5.76,0,10.12,1.454,13.08,4.36S485.896,111.09,485.896,116.529z M473.976,125.169v-4c-7.84,0-11.76,2.027-11.76,6.08
			c0,1.467,0.44,2.607,1.32,3.42c0.88,0.814,2.093,1.221,3.64,1.221c1.68,0,3.233-0.587,4.66-1.76
			C473.262,128.956,473.976,127.303,473.976,125.169z"/>
		<path d="M497.495,93.169l12.08-3.279v10.64h8.88v9.12h-8.88v13.76c0,2.587,0.38,4.407,1.14,5.46c0.76,1.054,2.006,1.58,3.74,1.58
			c1.601,0,2.854-0.133,3.76-0.399l0.08,9.359c-1.946,0.746-4.64,1.12-8.08,1.12c-3.733,0-6.787-1.113-9.16-3.34
			c-2.374-2.227-3.56-6.153-3.56-11.78v-15.76h-5.28v-9.12h5.28V93.169z"/>
		<path d="M563.573,100.529v26.48c0,4.187,0.107,8.399,0.32,12.64h-10.719l-0.561-5.68h-0.32c-2.773,4.373-6.961,6.56-12.561,6.56
			c-4.48,0-7.959-1.46-10.439-4.38c-2.479-2.92-3.72-7.14-3.72-12.66v-22.96h12.399v20.88c0,6.134,2.133,9.2,6.4,9.2
			c1.785,0,3.365-0.653,4.74-1.96c1.373-1.307,2.061-2.973,2.061-5v-23.12H563.573z"/>
		<path d="M573.654,139.649v-26.08c0-5.866-0.106-10.213-0.32-13.04h10.641l0.399,7.44h0.32c0.96-2.693,2.446-4.754,4.46-6.181
			c2.013-1.426,4.153-2.14,6.42-2.14c1.253,0,2.133,0.08,2.64,0.24v11.6c-1.04-0.266-2.159-0.399-3.359-0.399
			c-2.294,0-4.334,0.646-6.12,1.939c-1.787,1.294-2.68,3.58-2.68,6.86v19.76H573.654z"/>
		<path d="M640.215,124.05h-26c0.213,2.319,1.38,4.127,3.5,5.42c2.119,1.293,4.766,1.939,7.939,1.939c4.054,0,7.786-0.56,11.2-1.68
			l1.6,8.24c-4.054,1.706-8.906,2.56-14.56,2.56c-6.693,0-11.94-1.786-15.74-5.36c-3.8-3.572-5.7-8.453-5.7-14.64
			c0-5.68,1.826-10.58,5.48-14.7c3.653-4.12,8.573-6.18,14.76-6.18c5.706,0,10.133,1.84,13.28,5.52c3.146,3.681,4.72,8.4,4.72,14.16
			C640.694,121.224,640.534,122.796,640.215,124.05z M614.135,115.569h15.04c0-1.84-0.54-3.593-1.62-5.26
			c-1.08-1.666-2.914-2.5-5.5-2.5c-2.134,0-3.9,0.714-5.3,2.14C615.354,111.376,614.48,113.249,614.135,115.569z"/>
		<path d="M645.733,137.729l2.24-8.8c1.44,0.826,3.206,1.526,5.3,2.1c2.094,0.574,3.953,0.86,5.58,0.86c3.573,0,5.36-1.066,5.36-3.2
			c0-1.066-0.434-1.894-1.3-2.48c-0.867-0.586-2.407-1.226-4.62-1.92c-7.681-2.373-11.521-6.266-11.521-11.68
			c0-3.76,1.5-6.86,4.5-9.3c3-2.44,6.94-3.66,11.82-3.66c4.267,0,8.053,0.773,11.36,2.32l-2.16,8.479
			c-3.094-1.493-6.027-2.24-8.8-2.24c-3.2,0-4.801,1.04-4.801,3.12c0,0.934,0.486,1.721,1.46,2.36s2.674,1.347,5.101,2.12
			c3.732,1.174,6.479,2.727,8.24,4.66c1.76,1.934,2.64,4.38,2.64,7.34c0,3.867-1.521,6.953-4.561,9.26s-7.279,3.46-12.72,3.46
			C653.84,140.529,649.467,139.597,645.733,137.729z"/>
	</g>
</g>
<g id="jfx:p03">
	<g>
		<path d="M136.288,254.458v-42.368c3.477-0.64,7.787-0.96,12.928-0.96c6.613,0,11.328,1.014,14.144,3.04
			c2.816,2.027,4.224,4.662,4.224,7.904c0,2.027-0.613,3.846-1.84,5.456c-1.227,1.611-3.003,2.843-5.328,3.696v0.128
			c2.73,0.726,4.864,2.032,6.4,3.92s2.304,4.123,2.304,6.704c0,3.776-1.579,6.907-4.736,9.392s-8.917,3.728-17.28,3.728
			C142.922,255.098,139.317,254.884,136.288,254.458z M146.08,218.617v9.92h3.328c2.624,0,4.645-0.469,6.064-1.408
			c1.418-0.938,2.128-2.24,2.128-3.904c0-3.285-2.39-4.928-7.168-4.928C148.448,218.297,146.997,218.404,146.08,218.617z
			 M146.08,235.578v12.032c0.533,0.128,1.856,0.192,3.968,0.192c2.709,0,4.827-0.533,6.352-1.6c1.525-1.066,2.288-2.602,2.288-4.608
			c0-1.962-0.79-3.456-2.368-4.48s-3.819-1.536-6.72-1.536H146.08z"/>
		<path d="M175.584,254.649v-20.864c0-4.693-0.086-8.171-0.256-10.432h8.512l0.32,5.952h0.256c0.768-2.154,1.957-3.802,3.568-4.944
			c1.61-1.141,3.322-1.712,5.136-1.712c1.002,0,1.707,0.064,2.112,0.192v9.28c-0.832-0.213-1.728-0.32-2.688-0.32
			c-1.835,0-3.467,0.518-4.896,1.552c-1.43,1.035-2.144,2.864-2.144,5.488v15.808H175.584z"/>
		<path d="M232.352,238.649c0,5.12-1.611,9.184-4.832,12.192c-3.221,3.008-7.264,4.512-12.128,4.512
			c-4.907,0-8.928-1.477-12.064-4.432c-3.136-2.955-4.704-6.853-4.704-11.696c0-4.971,1.579-8.976,4.736-12.016
			c3.157-3.04,7.338-4.56,12.544-4.56c4.864,0,8.821,1.494,11.872,4.48C230.826,230.116,232.352,233.957,232.352,238.649z
			 M208.8,239.033c0,2.774,0.603,5.014,1.808,6.72c1.205,1.707,2.821,2.56,4.848,2.56c1.984,0,3.579-0.843,4.784-2.528
			c1.205-1.685,1.808-3.957,1.808-6.816c0-2.73-0.576-4.96-1.728-6.688c-1.152-1.728-2.752-2.592-4.8-2.592
			c-2.112,0-3.76,0.87-4.944,2.608C209.392,234.037,208.8,236.281,208.8,239.033z"/>
		<path d="M235.231,223.354h10.048c2.475,11.904,3.968,19.605,4.48,23.104h0.128c0.341-2.176,0.917-4.811,1.728-7.904l3.968-15.2
			h7.872c3.306,12.693,5.162,20.395,5.568,23.104h0.128c0.32-3.285,1.856-10.987,4.608-23.104h9.664l-9.728,31.296h-9.344
			c-2.24-8.17-3.526-12.96-3.856-14.368c-0.331-1.408-0.752-3.53-1.264-6.368h-0.128c-0.491,3.392-1.12,6.411-1.888,9.056
			l-3.36,11.68h-9.344L235.231,223.354z"/>
		<path d="M286.302,253.113l1.792-7.04c1.152,0.662,2.565,1.222,4.24,1.68c1.674,0.459,3.163,0.688,4.464,0.688
			c2.858,0,4.288-0.853,4.288-2.56c0-0.853-0.347-1.515-1.04-1.984c-0.693-0.469-1.925-0.981-3.696-1.536
			c-6.144-1.898-9.216-5.013-9.216-9.344c0-3.008,1.2-5.488,3.6-7.44c2.4-1.952,5.552-2.928,9.456-2.928
			c3.413,0,6.442,0.619,9.088,1.856l-1.728,6.784c-2.475-1.195-4.821-1.792-7.04-1.792c-2.56,0-3.84,0.832-3.84,2.496
			c0,0.747,0.389,1.376,1.168,1.888c0.779,0.512,2.139,1.078,4.08,1.696c2.986,0.939,5.184,2.181,6.592,3.728
			c1.408,1.547,2.112,3.504,2.112,5.872c0,3.094-1.216,5.563-3.648,7.408c-2.432,1.846-5.824,2.768-10.176,2.768
			C292.787,255.354,289.289,254.607,286.302,253.113z"/>
		<path d="M345.053,242.169h-20.8c0.17,1.856,1.104,3.301,2.8,4.336c1.696,1.035,3.813,1.552,6.352,1.552
			c3.243,0,6.229-0.448,8.96-1.344l1.28,6.592c-3.243,1.365-7.125,2.048-11.648,2.048c-5.355,0-9.552-1.429-12.592-4.288
			c-3.04-2.858-4.56-6.763-4.56-11.712c0-4.544,1.461-8.464,4.384-11.76c2.922-3.296,6.858-4.944,11.808-4.944
			c4.565,0,8.106,1.472,10.624,4.416c2.517,2.944,3.776,6.72,3.776,11.328C345.438,239.908,345.31,241.167,345.053,242.169z
			 M324.189,235.385h12.032c0-1.472-0.432-2.875-1.296-4.208c-0.864-1.333-2.331-2-4.4-2c-1.707,0-3.12,0.571-4.24,1.712
			C325.166,232.031,324.466,233.529,324.189,235.385z"/>
		<path d="M351.325,254.649v-20.864c0-4.693-0.086-8.171-0.256-10.432h8.512l0.32,5.952h0.256c0.768-2.154,1.957-3.802,3.567-4.944
			c1.611-1.141,3.323-1.712,5.137-1.712c1.002,0,1.706,0.064,2.111,0.192v9.28c-0.832-0.213-1.728-0.32-2.688-0.32
			c-1.835,0-3.467,0.518-4.896,1.552s-2.144,2.864-2.144,5.488v15.808H351.325z"/>
	</g>
</g>
<g id="jfx:p04">
	<g>
		<path d="M214.563,340.051c-0.683-17.109-1.024-28.714-1.024-34.816h-0.192c-1.046,4.587-4.544,15.958-10.496,34.112h-7.744
			c-3.563-12.522-5.696-20.203-6.4-23.04c-0.704-2.837-1.515-6.528-2.432-11.072h-0.128c-0.277,8.619-0.512,14.827-0.704,18.624
			l-0.832,16.192h-9.216l2.752-43.136h13.44c3.307,11.008,5.296,17.819,5.968,20.432c0.672,2.614,1.349,5.723,2.032,9.328h0.256
			c1.579-6.677,2.923-11.68,4.032-15.008l4.928-14.752h13.184l2.304,43.136H214.563z"/>
		<path d="M260.065,327.571h-20.8c0.17,1.856,1.104,3.301,2.8,4.336c1.696,1.035,3.813,1.552,6.352,1.552
			c3.243,0,6.229-0.448,8.96-1.344l1.28,6.592c-3.243,1.365-7.125,2.048-11.648,2.048c-5.355,0-9.552-1.429-12.592-4.288
			c-3.04-2.858-4.56-6.763-4.56-11.712c0-4.544,1.461-8.464,4.384-11.76c2.922-3.296,6.858-4.944,11.808-4.944
			c4.565,0,8.106,1.472,10.624,4.416c2.517,2.944,3.776,6.72,3.776,11.328C260.45,325.31,260.322,326.568,260.065,327.571z
			 M239.202,320.787h12.032c0-1.472-0.432-2.875-1.296-4.208c-0.864-1.333-2.331-2-4.4-2c-1.707,0-3.12,0.571-4.24,1.712
			C240.178,317.432,239.479,318.931,239.202,320.787z"/>
		<path d="M287.649,294.483h9.92v36.224c0,3.414,0.085,6.528,0.256,9.344h-8.832l-0.384-4.736h-0.128
			c-2.176,3.627-5.589,5.44-10.24,5.44c-3.861,0-7.12-1.499-9.776-4.496c-2.656-2.997-3.984-6.853-3.984-11.568
			c0-5.013,1.403-9.04,4.208-12.08s6.224-4.56,10.256-4.56c4.01,0,6.869,1.195,8.576,3.584h0.128V294.483z M287.649,325.843v-3.648
			c0-1.92-0.566-3.499-1.696-4.736c-1.131-1.237-2.592-1.856-4.384-1.856c-2.176,0-3.894,0.806-5.152,2.416
			c-1.259,1.611-1.888,3.728-1.888,6.352c0,2.603,0.629,4.672,1.888,6.208c1.259,1.536,2.955,2.304,5.088,2.304
			c1.536,0,2.944-0.56,4.224-1.68C287.009,330.083,287.649,328.296,287.649,325.843z"/>
		<path d="M316.064,299.475c0,1.494-0.512,2.731-1.536,3.712c-1.024,0.981-2.368,1.472-4.032,1.472s-3.008-0.49-4.032-1.472
			c-1.024-0.981-1.536-2.219-1.536-3.712c0-1.493,0.517-2.73,1.552-3.712c1.035-0.981,2.373-1.472,4.016-1.472
			c1.643,0,2.981,0.491,4.016,1.472C315.547,296.744,316.064,297.982,316.064,299.475z M315.489,340.051h-9.92v-31.296h9.92V340.051
			z"/>
		<path d="M350.112,321.555v10.88c0,3.158,0.171,5.696,0.512,7.616h-8.896l-0.576-3.136h-0.256c-2.155,2.56-5.206,3.84-9.152,3.84
			c-3.072,0-5.568-0.933-7.488-2.8c-1.92-1.866-2.88-4.133-2.88-6.8c0-3.882,1.626-6.858,4.88-8.928
			c3.253-2.069,7.92-3.104,14-3.104v-0.384c0-2.603-1.963-3.904-5.888-3.904c-3.2,0-6.166,0.79-8.896,2.368l-1.856-6.272
			c3.477-1.92,7.637-2.88,12.48-2.88c4.608,0,8.096,1.163,10.464,3.488C348.929,313.864,350.112,317.203,350.112,321.555z
			 M340.577,328.467v-3.2c-6.272,0-9.408,1.622-9.408,4.864c0,1.173,0.352,2.085,1.056,2.736c0.704,0.651,1.674,0.976,2.912,0.976
			c1.344,0,2.586-0.469,3.728-1.408C340.005,331.496,340.577,330.174,340.577,328.467z"/>
	</g>
</g>
<g id="jfx:p05">
	<g>
		<path d="M247.717,416.492l1.536,7.68c-2.944,1.322-6.806,1.984-11.584,1.984c-7.275,0-12.987-1.979-17.136-5.936
			c-4.149-3.957-6.224-9.211-6.224-15.761c0-6.911,2.261-12.448,6.784-16.608c4.522-4.159,10.347-6.239,17.472-6.239
			c4.8,0,8.533,0.661,11.2,1.984l-2.048,7.808c-2.667-1.152-5.568-1.729-8.704-1.729c-4.331,0-7.792,1.26-10.384,3.776
			c-2.592,2.518-3.888,5.995-3.888,10.433c0,4.33,1.275,7.76,3.824,10.287c2.549,2.528,6.053,3.793,10.512,3.793
			C242.298,417.965,245.178,417.474,247.717,416.492z"/>
		<path d="M255.652,425.452v-45.568h9.92v18.112h0.128c0.96-1.322,2.256-2.41,3.888-3.264c1.632-0.854,3.365-1.28,5.2-1.28
			c3.477,0,6.234,1.206,8.272,3.616c2.037,2.41,3.056,5.835,3.056,10.271v18.112h-9.92v-16.96c0-4.693-1.75-7.04-5.248-7.04
			c-1.451,0-2.709,0.496-3.776,1.487c-1.067,0.992-1.6,2.353-1.6,4.08v18.433H255.652z"/>
		<path d="M320.675,406.956v10.88c0,3.158,0.171,5.696,0.512,7.616h-8.896l-0.576-3.136h-0.256c-2.155,2.56-5.206,3.84-9.152,3.84
			c-3.072,0-5.568-0.934-7.488-2.801c-1.92-1.865-2.88-4.133-2.88-6.799c0-3.883,1.626-6.859,4.88-8.929s7.92-3.104,14-3.104v-0.383
			c0-2.604-1.963-3.904-5.888-3.904c-3.2,0-6.166,0.789-8.896,2.367l-1.856-6.271c3.477-1.92,7.637-2.88,12.48-2.88
			c4.608,0,8.096,1.163,10.464,3.487C319.492,399.266,320.675,402.604,320.675,406.956z M311.14,413.868v-3.2
			c-6.272,0-9.408,1.621-9.408,4.864c0,1.173,0.352,2.085,1.056,2.735c0.704,0.651,1.674,0.977,2.912,0.977
			c1.344,0,2.586-0.469,3.728-1.408C310.568,416.897,311.14,415.575,311.14,413.868z"/>
		<path d="M328.675,425.452v-20.864c0-4.693-0.086-8.17-0.256-10.432h8.512l0.32,5.951h0.256c0.768-2.154,1.957-3.802,3.568-4.943
			c1.61-1.141,3.322-1.712,5.136-1.712c1.002,0,1.707,0.063,2.112,0.192v9.279c-0.832-0.213-1.728-0.32-2.688-0.32
			c-1.835,0-3.467,0.518-4.896,1.553c-1.43,1.035-2.144,2.863-2.144,5.488v15.808H328.675z"/>
		<path d="M354.915,388.268l9.664-2.623v8.512h7.104v7.296h-7.104v11.008c0,2.069,0.304,3.526,0.912,4.368
			c0.608,0.844,1.605,1.264,2.992,1.264c1.28,0,2.283-0.105,3.008-0.32l0.064,7.488c-1.558,0.598-3.712,0.896-6.464,0.896
			c-2.987,0-5.429-0.891-7.328-2.672c-1.899-1.781-2.848-4.923-2.848-9.424v-12.608h-4.224v-7.296h4.224V388.268z"/>
	</g>
</g>
<g id="jfx:p06">
	<g>
		<path d="M287.719,501.895l1.536,7.68c-2.944,1.322-6.806,1.984-11.584,1.984c-7.275,0-12.987-1.979-17.136-5.937
			c-4.149-3.957-6.224-9.21-6.224-15.76c0-6.912,2.261-12.448,6.784-16.608c4.522-4.159,10.347-6.239,17.472-6.239
			c4.8,0,8.533,0.661,11.2,1.983l-2.048,7.809c-2.667-1.152-5.568-1.729-8.704-1.729c-4.331,0-7.792,1.259-10.384,3.776
			s-3.888,5.995-3.888,10.432c0,4.331,1.275,7.76,3.824,10.288c2.549,2.528,6.053,3.792,10.512,3.792
			C282.3,503.366,285.18,502.876,287.719,501.895z"/>
		<path d="M294.311,508.807l2.048-8.128c3.69,1.877,7.445,2.815,11.264,2.815c2.197,0,3.909-0.416,5.136-1.248
			c1.226-0.832,1.84-1.973,1.84-3.424c0-1.301-0.555-2.389-1.664-3.264c-1.109-0.875-3.029-1.771-5.76-2.688
			c-8.235-2.73-12.352-7.019-12.352-12.864c0-3.775,1.514-6.885,4.544-9.327c3.029-2.443,7.061-3.664,12.096-3.664
			c4.395,0,8.235,0.747,11.52,2.239l-2.24,7.872c-3.008-1.408-6.144-2.111-9.408-2.111c-2.005,0-3.573,0.384-4.704,1.151
			c-1.131,0.769-1.696,1.771-1.696,3.008c0,1.132,0.475,2.097,1.424,2.896s3.227,1.84,6.832,3.12
			c3.989,1.408,6.907,3.151,8.752,5.231s2.768,4.667,2.768,7.761c0,3.968-1.558,7.189-4.672,9.664
			c-3.115,2.475-7.467,3.712-13.056,3.712C302.204,511.559,297.979,510.642,294.311,508.807z"/>
		<path d="M329.958,508.807l2.048-8.128c3.69,1.877,7.445,2.815,11.264,2.815c2.197,0,3.909-0.416,5.136-1.248
			c1.226-0.832,1.84-1.973,1.84-3.424c0-1.301-0.555-2.389-1.664-3.264c-1.109-0.875-3.029-1.771-5.76-2.688
			c-8.235-2.73-12.352-7.019-12.352-12.864c0-3.775,1.514-6.885,4.544-9.327c3.029-2.443,7.061-3.664,12.096-3.664
			c4.395,0,8.235,0.747,11.52,2.239l-2.24,7.872c-3.008-1.408-6.144-2.111-9.408-2.111c-2.005,0-3.573,0.384-4.704,1.151
			c-1.131,0.769-1.696,1.771-1.696,3.008c0,1.132,0.475,2.097,1.424,2.896s3.227,1.84,6.832,3.12
			c3.989,1.408,6.907,3.151,8.752,5.231s2.768,4.667,2.768,7.761c0,3.968-1.558,7.189-4.672,9.664
			c-3.115,2.475-7.467,3.712-13.056,3.712C337.851,511.559,333.627,510.642,329.958,508.807z"/>
	</g>
</g>
<g id="jfx:p07">
	<g>
		<path d="M319.658,584.991H306.73l-3.2,11.265h-10.304l13.632-43.137h13.056l14.016,43.137h-10.752L319.658,584.991z
			 M308.202,577.695h9.92c-2.603-8.426-4.288-14.208-5.056-17.344h-0.128l-2.048,8.192L308.202,577.695z"/>
		<path d="M339.498,596.256v-21.248c0-3.093-0.086-6.442-0.256-10.048h8.576l0.448,4.416h0.256c2.325-3.413,5.632-5.12,9.92-5.12
			c3.52,0,6.32,1.189,8.4,3.567c2.08,2.379,3.12,5.733,3.12,10.064v18.368h-9.92v-17.088c0-4.65-1.728-6.977-5.184-6.977
			c-1.408,0-2.667,0.534-3.776,1.601c-1.11,1.066-1.664,2.581-1.664,4.544v17.92H339.498z"/>
		<path d="M388.393,555.68c0,1.493-0.512,2.73-1.536,3.712c-1.024,0.981-2.368,1.472-4.032,1.472s-3.008-0.49-4.032-1.472
			c-1.024-0.981-1.536-2.219-1.536-3.712s0.517-2.73,1.552-3.712s2.373-1.472,4.016-1.472c1.643,0,2.981,0.49,4.016,1.472
			C387.875,552.949,388.393,554.187,388.393,555.68z M387.817,596.256h-9.92V564.96h9.92V596.256z"/>
		<path d="M395.817,596.256v-21.248c0-3.093-0.086-6.442-0.256-10.048h8.32l0.448,4.352h0.192c2.219-3.37,5.44-5.056,9.664-5.056
			c2.026,0,3.818,0.479,5.376,1.439c1.557,0.96,2.688,2.315,3.392,4.064h0.128c2.624-3.669,6.059-5.504,10.304-5.504
			c3.307,0,5.936,1.194,7.888,3.584c1.952,2.39,2.928,5.781,2.928,10.176v18.24h-9.6v-16.832c0-4.821-1.6-7.232-4.8-7.232
			c-1.43,0-2.619,0.55-3.568,1.648c-0.95,1.099-1.424,2.533-1.424,4.304v18.112h-9.6v-17.28c0-2.176-0.405-3.851-1.216-5.024
			c-0.811-1.173-1.963-1.76-3.456-1.76c-1.387,0-2.587,0.556-3.6,1.664c-1.013,1.109-1.52,2.561-1.52,4.353v18.048H395.817z"/>
		<path d="M478.824,577.76v10.88c0,3.157,0.171,5.696,0.512,7.616h-8.896l-0.576-3.137h-0.256c-2.155,2.561-5.206,3.841-9.152,3.841
			c-3.072,0-5.568-0.934-7.488-2.801c-1.92-1.866-2.88-4.133-2.88-6.8c0-3.882,1.626-6.858,4.88-8.928s7.92-3.104,14-3.104v-0.384
			c0-2.603-1.963-3.903-5.888-3.903c-3.2,0-6.166,0.789-8.896,2.367l-1.856-6.271c3.477-1.92,7.637-2.88,12.48-2.88
			c4.608,0,8.096,1.163,10.464,3.487C477.641,570.069,478.824,573.407,478.824,577.76z M469.289,584.672v-3.2
			c-6.272,0-9.408,1.621-9.408,4.864c0,1.173,0.352,2.085,1.056,2.735c0.704,0.651,1.674,0.977,2.912,0.977
			c1.344,0,2.586-0.469,3.728-1.408C468.717,587.701,469.289,586.379,469.289,584.672z"/>
		<path d="M488.104,559.071l9.664-2.624v8.513h7.104v7.296h-7.104v11.008c0,2.069,0.304,3.525,0.912,4.368
			c0.608,0.843,1.605,1.264,2.992,1.264c1.28,0,2.283-0.106,3.008-0.32l0.064,7.488c-1.558,0.597-3.712,0.896-6.464,0.896
			c-2.987,0-5.429-0.891-7.328-2.672c-1.899-1.781-2.848-4.923-2.848-9.425v-12.607h-4.224v-7.296h4.224V559.071z"/>
		<path d="M521.19,555.68c0,1.493-0.513,2.73-1.536,3.712c-1.024,0.981-2.368,1.472-4.032,1.472s-3.007-0.49-4.031-1.472
			c-1.024-0.981-1.536-2.219-1.536-3.712s0.517-2.73,1.552-3.712s2.373-1.472,4.016-1.472s2.981,0.49,4.016,1.472
			C520.673,552.949,521.19,554.187,521.19,555.68z M520.614,596.256h-9.919V564.96h9.919V596.256z"/>
		<path d="M560.422,580.256c0,5.12-1.611,9.184-4.832,12.191c-3.222,3.009-7.264,4.513-12.128,4.513
			c-4.907,0-8.928-1.478-12.063-4.433c-3.137-2.954-4.704-6.853-4.704-11.695c0-4.971,1.578-8.977,4.735-12.017
			s7.339-4.56,12.544-4.56c4.864,0,8.821,1.493,11.872,4.479C558.896,571.723,560.422,575.563,560.422,580.256z M536.87,580.64
			c0,2.773,0.603,5.014,1.808,6.72c1.205,1.707,2.821,2.561,4.849,2.561c1.983,0,3.578-0.843,4.783-2.528
			c1.205-1.685,1.809-3.957,1.809-6.816c0-2.73-0.576-4.96-1.729-6.688c-1.151-1.729-2.752-2.592-4.8-2.592
			c-2.111,0-3.76,0.869-4.943,2.607C537.462,575.643,536.87,577.888,536.87,580.64z"/>
		<path d="M566.565,596.256v-21.248c0-3.093-0.086-6.442-0.256-10.048h8.575l0.448,4.416h0.256c2.325-3.413,5.633-5.12,9.92-5.12
			c3.521,0,6.32,1.189,8.4,3.567c2.08,2.379,3.12,5.733,3.12,10.064v18.368h-9.92v-17.088c0-4.65-1.729-6.977-5.185-6.977
			c-1.407,0-2.667,0.534-3.775,1.601c-1.109,1.066-1.664,2.581-1.664,4.544v17.92H566.565z"/>
		<path d="M608.805,598.815h-6.528l13.504-46.399h6.593L608.805,598.815z"/>
		<path d="M653.284,570.08v8h-16.576v10.111h18.496v8.064h-28.416v-43.137h27.52v8.064h-17.6v8.896H653.284z"/>
		<path d="M672.675,596.256h-9.92v-24h-4.096v-7.296h4.096v-1.152c0-2.624,0.522-5.045,1.568-7.264
			c1.045-2.219,2.587-3.867,4.624-4.944s4.24-1.616,6.608-1.616c1.706,0,3.434,0.214,5.184,0.641l-0.32,7.615
			c-0.96-0.298-2.026-0.447-3.2-0.447c-1.472,0-2.607,0.496-3.407,1.487c-0.801,0.992-1.2,2.353-1.2,4.08v1.601h6.336v7.296h-6.272
			V596.256z"/>
		<path d="M694.946,596.256h-9.92v-24h-4.096v-7.296h4.096v-1.152c0-2.624,0.522-5.045,1.568-7.264
			c1.045-2.219,2.587-3.867,4.624-4.944s4.24-1.616,6.608-1.616c1.706,0,3.434,0.214,5.184,0.641l-0.32,7.615
			c-0.96-0.298-2.026-0.447-3.2-0.447c-1.472,0-2.607,0.496-3.407,1.487c-0.801,0.992-1.2,2.353-1.2,4.08v1.601h6.336v7.296h-6.272
			V596.256z"/>
		<path d="M734.563,583.775h-20.801c0.171,1.856,1.104,3.302,2.801,4.336c1.695,1.035,3.813,1.553,6.352,1.553
			c3.242,0,6.229-0.448,8.96-1.345l1.28,6.592c-3.243,1.365-7.126,2.049-11.648,2.049c-5.354,0-9.552-1.43-12.592-4.288
			s-4.56-6.763-4.56-11.712c0-4.544,1.461-8.464,4.384-11.761c2.923-3.296,6.858-4.943,11.808-4.943
			c4.565,0,8.106,1.472,10.624,4.416c2.518,2.943,3.776,6.72,3.776,11.328C734.946,581.515,734.818,582.773,734.563,583.775z
			 M713.698,576.991h12.032c0-1.472-0.433-2.874-1.296-4.208c-0.864-1.333-2.331-2-4.4-2c-1.707,0-3.12,0.571-4.24,1.713
			C714.674,573.637,713.976,575.136,713.698,576.991z"/>
		<path d="M763.81,588.191l1.216,7.232c-2.41,1.023-5.461,1.536-9.151,1.536c-5.163,0-9.28-1.456-12.353-4.368
			c-3.071-2.912-4.607-6.811-4.607-11.696c0-4.885,1.652-8.88,4.96-11.984c3.307-3.104,7.775-4.655,13.408-4.655
			c2.88,0,5.461,0.427,7.743,1.279l-1.6,7.297c-1.621-0.683-3.521-1.024-5.696-1.024c-2.581,0-4.667,0.811-6.256,2.432
			c-1.59,1.622-2.384,3.712-2.384,6.272c0,2.667,0.826,4.784,2.479,6.352c1.653,1.568,3.771,2.353,6.353,2.353
			C760.034,589.216,761.996,588.875,763.81,588.191z"/>
		<path d="M771.937,559.071l9.664-2.624v8.513h7.104v7.296h-7.104v11.008c0,2.069,0.305,3.525,0.912,4.368
			c0.608,0.843,1.605,1.264,2.992,1.264c1.28,0,2.282-0.106,3.008-0.32l0.064,7.488c-1.558,0.597-3.712,0.896-6.464,0.896
			c-2.987,0-5.43-0.891-7.328-2.672c-1.899-1.781-2.849-4.923-2.849-9.425v-12.607h-4.224v-7.296h4.224V559.071z"/>
	</g>
</g>
<g id="jfx:p08">
	<g>
		<path d="M336.301,681.466v-42.368c3.477-0.641,7.787-0.96,12.928-0.96c6.613,0,11.328,1.014,14.144,3.04s4.224,4.661,4.224,7.903
			c0,2.027-0.613,3.846-1.84,5.456c-1.227,1.611-3.003,2.844-5.328,3.696v0.128c2.73,0.726,4.864,2.032,6.4,3.92
			c1.536,1.889,2.304,4.123,2.304,6.704c0,3.776-1.579,6.907-4.736,9.393s-8.917,3.728-17.28,3.728
			C342.935,682.105,339.33,681.892,336.301,681.466z M346.093,645.625v9.921h3.328c2.624,0,4.645-0.47,6.064-1.408
			c1.418-0.938,2.128-2.24,2.128-3.904c0-3.285-2.39-4.928-7.168-4.928C348.461,645.306,347.01,645.412,346.093,645.625z
			 M346.093,662.586v12.031c0.533,0.128,1.856,0.192,3.968,0.192c2.709,0,4.827-0.533,6.352-1.601
			c1.525-1.066,2.288-2.602,2.288-4.607c0-1.963-0.79-3.456-2.368-4.48c-1.579-1.023-3.819-1.535-6.72-1.535H346.093z"/>
		<path d="M386.092,641.081c0,1.494-0.512,2.731-1.536,3.713c-1.024,0.981-2.368,1.472-4.032,1.472s-3.008-0.49-4.032-1.472
			c-1.024-0.981-1.536-2.219-1.536-3.713c0-1.492,0.517-2.73,1.552-3.712c1.035-0.98,2.373-1.472,4.016-1.472
			c1.643,0,2.981,0.491,4.016,1.472C385.575,638.351,386.092,639.589,386.092,641.081z M385.517,681.657h-9.92v-31.296h9.92V681.657
			z"/>
		<path d="M393.517,681.657v-21.248c0-3.093-0.086-6.442-0.256-10.048h8.576l0.448,4.416h0.256c2.325-3.413,5.632-5.12,9.92-5.12
			c3.52,0,6.32,1.189,8.4,3.568s3.12,5.733,3.12,10.063v18.368h-9.92v-17.088c0-4.65-1.728-6.976-5.184-6.976
			c-1.408,0-2.667,0.533-3.776,1.6c-1.11,1.067-1.664,2.582-1.664,4.544v17.92H393.517z"/>
		<path d="M453.228,636.09h9.92v36.224c0,3.413,0.085,6.528,0.256,9.344h-8.832l-0.384-4.735h-0.128
			c-2.176,3.627-5.589,5.439-10.24,5.439c-3.861,0-7.12-1.498-9.776-4.496c-2.656-2.997-3.984-6.853-3.984-11.567
			c0-5.014,1.403-9.04,4.208-12.08s6.224-4.561,10.256-4.561c4.01,0,6.869,1.195,8.576,3.584h0.128V636.09z M453.228,667.449v-3.647
			c0-1.92-0.566-3.499-1.696-4.736c-1.131-1.237-2.592-1.856-4.384-1.856c-2.176,0-3.894,0.806-5.152,2.416
			c-1.259,1.611-1.888,3.729-1.888,6.353c0,2.603,0.629,4.672,1.888,6.208s2.955,2.304,5.088,2.304c1.536,0,2.944-0.56,4.224-1.68
			C452.588,671.689,453.228,669.903,453.228,667.449z"/>
	</g>
</g>
</svg>
