<?xml version="1.0" encoding="iso-8859-1"?>
<!-- Generator: Adobe Illustrator 16.1.1, SVG Export Plug-In . SVG Version: 6.00 Build 0)  -->
<!DOCTYPE svg PUBLIC "-//W3C//DTD SVG 1.1//EN" "http://www.w3.org/Graphics/SVG/1.1/DTD/svg11.dtd">
<svg version="1.1" xmlns="http://www.w3.org/2000/svg" xmlns:xlink="http://www.w3.org/1999/xlink" x="0px" y="0px" width="1024px"
	 height="768px" viewBox="0 0 1024 768" style="enable-background:new 0 0 1024 768;" xml:space="preserve">
<g id="jfx:p00">
	<image style="overflow:visible;" width="1024" height="768" xlink:href="23F37463.jpg" >
	</image>
</g>
<g id="jfx:p01">
	<rect style="opacity:0.8;fill:#0B1C49;" width="1024" height="768"/>
</g>
<g id="jfx:p02">
	<g>
		<path style="fill:#FFFFFF;" d="M138.565,635.115c-0.3-8.1-0.6-17.9-0.6-27.701h-0.3c-2.1,8.6-4.9,18.201-7.5,26.102l-8.2,26.301
			h-11.901l-7.2-26.102c-2.2-7.9-4.5-17.5-6.101-26.301h-0.2c-0.4,9.1-0.7,19.501-1.2,27.901l-1.2,25.602H80.061l4.3-67.404h20.301
			l6.601,22.501c2.1,7.801,4.2,16.201,5.7,24.102h0.3c1.9-7.8,4.2-16.701,6.4-24.201l7.2-22.401h19.901l3.7,67.404h-14.901
			L138.565,635.115z"/>
		<path style="fill:#FFFFFF;" d="M181.361,598.413c0,4.2-3.2,7.601-8.2,7.601c-4.801,0-8.001-3.4-7.901-7.601
			c-0.1-4.4,3.1-7.7,8-7.7S181.261,594.013,181.361,598.413z M165.661,660.917v-48.903h15.201v48.903H165.661z"/>
		<path style="fill:#FFFFFF;" d="M192.959,647.616c2.8,1.7,8.601,3.7,13.101,3.7c4.601,0,6.5-1.6,6.5-4.1
			c0-2.501-1.5-3.701-7.2-5.602c-10.101-3.399-14.001-8.9-13.901-14.7c0-9.101,7.8-16.001,19.901-16.001
			c5.701,0,10.801,1.3,13.801,2.8l-2.7,10.501c-2.2-1.2-6.4-2.801-10.601-2.801c-3.7,0-5.8,1.5-5.8,4.001c0,2.3,1.9,3.5,7.9,5.601
			c9.301,3.199,13.201,7.9,13.301,15.101c0,9.101-7.2,15.801-21.201,15.801c-6.4,0-12.101-1.399-15.801-3.4L192.959,647.616z"/>
		<path style="fill:#FFFFFF;" d="M273.161,659.717c-2.7,1.2-7.801,2.2-13.601,2.2c-15.801,0-25.901-9.601-25.901-25.001
			c0-14.301,9.8-26.002,28.001-26.002c4,0,8.401,0.699,11.601,1.9l-2.4,11.301c-1.8-0.801-4.5-1.5-8.5-1.5
			c-8,0-13.201,5.699-13.101,13.7c0,9.001,6,13.7,13.4,13.7c3.601,0,6.4-0.6,8.701-1.5L273.161,659.717z"/>
		<path style="fill:#FFFFFF;" d="M280.458,652.816c0-5.4,3.7-9.301,9-9.301s8.9,3.801,8.9,9.301c0,5.301-3.6,9.201-9,9.201
			C284.158,662.018,280.458,658.117,280.458,652.816z"/>
		<path style="fill:#FFFFFF;" d="M328.257,593.513h41.202v12.501h-25.901v15.4h24.202v12.401h-24.202v27.102h-15.301V593.513z"/>
		<path style="fill:#FFFFFF;" d="M392.157,641.316c0.5,6.3,6.7,9.3,13.801,9.3c5.2,0,9.4-0.7,13.5-2l2,10.301
			c-5,2-11.101,3-17.701,3c-16.601,0-26.102-9.601-26.102-24.901c0-12.4,7.7-26.102,24.702-26.102
			c15.801,0,21.801,12.301,21.801,24.401c0,2.601-0.3,4.9-0.5,6.001H392.157z M410.058,630.915c0-3.7-1.6-9.9-8.601-9.9
			c-6.4,0-9,5.8-9.4,9.9H410.058z"/>
		<path style="fill:#FFFFFF;" d="M461.058,660.917l-0.9-4.9h-0.3c-3.2,3.9-8.201,6.001-14.001,6.001
			c-9.9,0-15.801-7.201-15.801-15.002c0-12.7,11.4-18.801,28.701-18.701v-0.699c0-2.601-1.399-6.301-8.9-6.301
			c-5,0-10.3,1.7-13.5,3.7l-2.8-9.8c3.4-1.9,10.101-4.301,19.001-4.301c16.301,0,21.502,9.601,21.502,21.102v17
			c0,4.701,0.199,9.201,0.699,11.901H461.058z M459.257,637.815c-8-0.1-14.201,1.8-14.201,7.7c0,3.9,2.601,5.801,6,5.801
			c3.8,0,6.9-2.5,7.9-5.601c0.2-0.8,0.3-1.7,0.3-2.601V637.815z"/>
		<path style="fill:#FFFFFF;" d="M503.057,598.014v14h10.9v11.201h-10.9v17.701c0,5.9,1.4,8.6,6,8.6c1.9,0,3.4-0.199,4.5-0.399
			l0.101,11.501c-2,0.8-5.601,1.3-9.9,1.3c-4.9,0-9.001-1.7-11.401-4.2c-2.8-2.9-4.2-7.601-4.2-14.501v-20.001h-6.5v-11.201h6.5
			v-10.6L503.057,598.014z"/>
		<path style="fill:#FFFFFF;" d="M568.857,645.216c0,6.4,0.2,11.601,0.4,15.701h-13.201l-0.7-6.9h-0.3
			c-1.9,3-6.5,8.001-15.301,8.001c-9.9,0-17.201-6.201-17.201-21.302v-28.702h15.301v26.302c0,7.101,2.3,11.401,7.601,11.401
			c4.2,0,6.601-2.9,7.601-5.301c0.4-0.9,0.5-2.1,0.5-3.301v-29.102h15.301V645.216z"/>
		<path style="fill:#FFFFFF;" d="M581.054,628.115c0-7.201-0.2-11.9-0.4-16.102h13.101l0.5,9.001h0.4
			c2.5-7.101,8.501-10.101,13.201-10.101c1.399,0,2.1,0,3.2,0.199v14.302c-1.101-0.2-2.4-0.4-4.101-0.4c-5.601,0-9.4,3.001-10.4,7.7
			c-0.2,1-0.3,2.201-0.3,3.4v24.802h-15.201V628.115z"/>
		<path style="fill:#FFFFFF;" d="M630.753,641.316c0.5,6.3,6.701,9.3,13.801,9.3c5.2,0,9.401-0.7,13.501-2l2,10.301
			c-5,2-11.101,3-17.701,3c-16.601,0-26.102-9.601-26.102-24.901c0-12.4,7.701-26.102,24.702-26.102
			c15.801,0,21.801,12.301,21.801,24.401c0,2.601-0.3,4.9-0.5,6.001H630.753z M648.654,630.915c0-3.7-1.6-9.9-8.601-9.9
			c-6.4,0-9,5.8-9.4,9.9H648.654z"/>
		<path style="fill:#FFFFFF;" d="M671.752,647.616c2.801,1.7,8.601,3.7,13.102,3.7c4.6,0,6.5-1.6,6.5-4.1
			c0-2.501-1.5-3.701-7.2-5.602c-10.101-3.399-14.001-8.9-13.901-14.7c0-9.101,7.801-16.001,19.901-16.001
			c5.7,0,10.801,1.3,13.801,2.8l-2.7,10.501c-2.2-1.2-6.4-2.801-10.601-2.801c-3.7,0-5.8,1.5-5.8,4.001c0,2.3,1.899,3.5,7.9,5.601
			c9.3,3.199,13.2,7.9,13.301,15.101c0,9.101-7.201,15.801-21.201,15.801c-6.4,0-12.102-1.399-15.802-3.4L671.752,647.616z"/>
	</g>
</g>
</svg>
