<?xml version="1.0" encoding="iso-8859-1"?>
<!-- Generator: Adobe Illustrator 16.1.1, SVG Export Plug-In . SVG Version: 6.00 Build 0)  -->
<!DOCTYPE svg PUBLIC "-//W3C//DTD SVG 1.1//EN" "http://www.w3.org/Graphics/SVG/1.1/DTD/svg11.dtd">
<svg version="1.1" xmlns="http://www.w3.org/2000/svg" xmlns:xlink="http://www.w3.org/1999/xlink" x="0px" y="0px" width="1024px"
	 height="768px" viewBox="0 0 1024 768" style="enable-background:new 0 0 1024 768;" xml:space="preserve">
<g id="jfx:p00">
	<image style="overflow:visible;" width="1024" height="768" xlink:href="1B2A939B.jpg" >
	</image>
</g>
<g id="jfx:p01">
	<g>
		<path style="fill:#FFFFFF;" d="M301.504,174.619h15.201v42.603c0,19.201-9.2,25.902-24.001,25.902c-3.5,0-8.1-0.6-11.101-1.6
			l1.7-12.301c2.1,0.7,4.8,1.2,7.8,1.2c6.4,0,10.401-2.9,10.401-13.401V174.619z"/>
		<path style="fill:#FFFFFF;" d="M356.705,242.023l-0.9-4.9h-0.3c-3.2,3.9-8.201,6-14.001,6c-9.9,0-15.801-7.201-15.801-15.001
			c0-12.701,11.4-18.801,28.702-18.701v-0.7c0-2.6-1.4-6.3-8.901-6.3c-5,0-10.3,1.7-13.5,3.7l-2.8-9.8
			c3.4-1.9,10.101-4.3,19.001-4.3c16.301,0,21.501,9.601,21.501,21.101v17.001c0,4.701,0.2,9.201,0.7,11.901H356.705z
			 M354.905,218.922c-8-0.1-14.201,1.8-14.201,7.701c0,3.9,2.601,5.8,6,5.8c3.8,0,6.9-2.5,7.9-5.601c0.2-0.8,0.3-1.7,0.3-2.6
			V218.922z"/>
		<path style="fill:#FFFFFF;" d="M393.003,193.121l6.601,22.701c1.2,4.1,2.1,8,2.8,11.901h0.3c0.8-4,1.6-7.701,2.7-11.901
			l6.3-22.701h16.001l-18.201,48.903h-15.201l-17.801-48.903H393.003z"/>
		<path style="fill:#FFFFFF;" d="M462.504,242.023l-0.9-4.9h-0.3c-3.2,3.9-8.201,6-14.001,6c-9.9,0-15.801-7.201-15.801-15.001
			c0-12.701,11.4-18.801,28.702-18.701v-0.7c0-2.6-1.4-6.3-8.901-6.3c-5,0-10.3,1.7-13.5,3.7l-2.8-9.8
			c3.4-1.9,10.101-4.3,19.001-4.3c16.301,0,21.501,9.601,21.501,21.101v17.001c0,4.701,0.2,9.201,0.7,11.901H462.504z
			 M460.705,218.922c-8-0.1-14.201,1.8-14.201,7.701c0,3.9,2.601,5.8,6,5.8c3.8,0,6.9-2.5,7.9-5.601c0.2-0.8,0.3-1.7,0.3-2.6
			V218.922z"/>
		<path style="fill:#FFFFFF;" d="M488.503,226.322c4.1,2.101,10.4,4.201,16.901,4.201c7,0,10.701-2.9,10.701-7.301
			c0-4.2-3.2-6.6-11.301-9.5c-11.201-3.9-18.501-10.101-18.501-19.901c0-11.5,9.601-20.301,25.501-20.301
			c7.6,0,13.201,1.6,17.202,3.4l-3.4,12.301c-2.701-1.3-7.501-3.2-14.101-3.2c-6.601,0-9.801,3-9.801,6.5c0,4.3,3.8,6.2,12.5,9.5
			c11.901,4.4,17.501,10.601,17.501,20.101c0,11.301-8.7,20.901-27.201,20.901c-7.701,0-15.301-2-19.102-4.1L488.503,226.322z"/>
		<path style="fill:#FFFFFF;" d="M578.205,240.823c-2.701,1.2-7.801,2.2-13.602,2.2c-15.801,0-25.901-9.601-25.901-25.001
			c0-14.301,9.8-26.001,28.001-26.001c4.001,0,8.401,0.7,11.602,1.9l-2.4,11.301c-1.801-0.8-4.5-1.5-8.5-1.5
			c-8.001,0-13.201,5.7-13.102,13.701c0,9,6,13.701,13.4,13.701c3.602,0,6.4-0.6,8.701-1.5L578.205,240.823z"/>
		<path style="fill:#FFFFFF;" d="M586.602,209.222c0-7.201-0.2-11.901-0.4-16.101h13.102l0.5,9h0.399
			c2.5-7.101,8.501-10.101,13.2-10.101c1.4,0,2.101,0,3.201,0.2v14.301c-1.101-0.2-2.4-0.4-4.101-0.4c-5.601,0-9.4,3-10.4,7.701
			c-0.2,1-0.3,2.2-0.3,3.4v24.802h-15.201V209.222z"/>
		<path style="fill:#FFFFFF;" d="M640.301,179.52c0,4.2-3.199,7.601-8.2,7.601c-4.8,0-8-3.4-7.9-7.601c-0.1-4.4,3.101-7.7,8.001-7.7
			S640.201,175.119,640.301,179.52z M624.601,242.023v-48.903h15.2v48.903H624.601z"/>
		<path style="fill:#FFFFFF;" d="M651.999,209.521c0-6.4-0.2-11.901-0.4-16.401H664.8l0.7,6.8h0.199c3.601-5.2,9.201-7.9,16.302-7.9
			c10.7,0,20.301,9.3,20.301,24.901c0,17.801-11.301,26.202-22.201,26.202c-5.9,0-10.501-2.4-12.701-5.601H667.2v24.302h-15.201
			V209.521z M667.2,221.022c0,1.2,0.1,2.3,0.3,3.2c1,4.101,4.5,7.201,8.9,7.201c6.601,0,10.501-5.5,10.501-13.801
			c0-7.801-3.501-13.701-10.301-13.701c-4.301,0-8.101,3.2-9.101,7.701c-0.2,0.8-0.3,1.8-0.3,2.7V221.022z"/>
		<path style="fill:#FFFFFF;" d="M728.799,179.12v14.001h10.9v11.201h-10.9v17.701c0,5.9,1.4,8.6,6,8.6c1.9,0,3.4-0.2,4.5-0.4
			l0.101,11.501c-2,0.8-5.601,1.3-9.9,1.3c-4.9,0-9.001-1.7-11.401-4.2c-2.8-2.9-4.2-7.601-4.2-14.501v-20.001h-6.5v-11.201h6.5
			V182.52L728.799,179.12z"/>
	</g>
	<g>
		<path style="fill:#FFFFFF;" d="M801.079,691.758h5.472v15.334c0,6.911-3.313,9.322-8.639,9.322c-1.26,0-2.916-0.215-3.996-0.576
			l0.612-4.427c0.756,0.252,1.728,0.433,2.808,0.433c2.304,0,3.743-1.045,3.743-4.824V691.758z"/>
		<path style="fill:#FFFFFF;" d="M816.596,693.521c0,1.512-1.152,2.735-2.952,2.735c-1.728,0-2.88-1.224-2.844-2.735
			c-0.036-1.584,1.116-2.771,2.88-2.771S816.559,691.938,816.596,693.521z M810.943,716.019v-17.602h5.472v17.602H810.943z"/>
		<path style="fill:#FFFFFF;" d="M820.807,704.032c0-2.196-0.072-4.067-0.144-5.615h4.607l0.252,2.376h0.108
			c0.756-1.116,2.303-2.771,5.327-2.771c2.268,0,4.067,1.151,4.823,2.986h0.072c0.647-0.899,1.439-1.619,2.268-2.123
			c0.972-0.576,2.052-0.863,3.348-0.863c3.383,0,5.939,2.375,5.939,7.631v10.366h-5.328v-9.575c0-2.555-0.828-4.031-2.592-4.031
			c-1.26,0-2.159,0.864-2.52,1.908c-0.144,0.396-0.216,0.972-0.216,1.403v10.295h-5.327v-9.862c0-2.232-0.792-3.744-2.52-3.744
			c-1.404,0-2.232,1.08-2.556,1.98c-0.181,0.432-0.216,0.936-0.216,1.367v10.259h-5.328V704.032z"/>
		<path style="fill:#FFFFFF;" d="M859.219,691.758h5.507v19.653h9.647v4.607h-15.154V691.758z"/>
		<path style="fill:#FFFFFF;" d="M887.441,716.019l-0.324-1.764h-0.108c-1.151,1.403-2.952,2.159-5.04,2.159
			c-3.563,0-5.687-2.592-5.687-5.398c0-4.572,4.104-6.768,10.331-6.731v-0.252c0-0.937-0.504-2.269-3.204-2.269
			c-1.8,0-3.708,0.613-4.859,1.332l-1.008-3.527c1.224-0.684,3.636-1.547,6.839-1.547c5.867,0,7.739,3.455,7.739,7.594v6.119
			c0,1.692,0.072,3.313,0.252,4.284H887.441z M886.793,707.703c-2.88-0.035-5.111,0.648-5.111,2.771c0,1.404,0.936,2.088,2.16,2.088
			c1.367,0,2.482-0.899,2.844-2.016c0.071-0.287,0.107-0.611,0.107-0.936V707.703z"/>
		<path style="fill:#FFFFFF;" d="M896.406,711.23c1.008,0.613,3.096,1.332,4.715,1.332c1.656,0,2.34-0.575,2.34-1.475
			c0-0.9-0.54-1.332-2.592-2.017c-3.635-1.224-5.039-3.204-5.004-5.291c0-3.276,2.809-5.759,7.164-5.759
			c2.051,0,3.887,0.467,4.967,1.008l-0.972,3.779c-0.792-0.432-2.304-1.008-3.815-1.008c-1.332,0-2.088,0.539-2.088,1.439
			c0,0.828,0.684,1.26,2.844,2.016c3.348,1.152,4.752,2.844,4.787,5.436c0,3.275-2.592,5.688-7.631,5.688
			c-2.304,0-4.355-0.504-5.688-1.225L896.406,711.23z"/>
		<path style="fill:#FFFFFF;" d="M917.537,705.832h0.072c0.395-0.721,0.827-1.439,1.26-2.124l3.563-5.291h6.588l-6.299,7.127
			l7.198,10.475h-6.731l-4.247-7.235l-1.403,1.729v5.507h-5.472v-25.557h5.472V705.832z"/>
		<path style="fill:#FFFFFF;" d="M935.789,708.963c0.18,2.268,2.411,3.348,4.967,3.348c1.872,0,3.384-0.252,4.859-0.719l0.721,3.707
			c-1.801,0.72-3.996,1.08-6.372,1.08c-5.976,0-9.395-3.456-9.395-8.963c0-4.464,2.771-9.395,8.891-9.395
			c5.688,0,7.847,4.427,7.847,8.782c0,0.937-0.107,1.764-0.18,2.159H935.789z M942.232,705.22c0-1.331-0.576-3.563-3.096-3.563
			c-2.305,0-3.24,2.088-3.385,3.563H942.232z"/>
		<path style="fill:#FFFFFF;" d="M954.688,698.417l2.628,8.639c0.287,1.044,0.647,2.34,0.863,3.275h0.108
			c0.252-0.936,0.54-2.268,0.792-3.275l2.16-8.639h5.867l-4.104,11.591c-2.521,6.982-4.212,9.79-6.191,11.555
			c-1.908,1.655-3.924,2.23-5.291,2.411l-1.152-4.644c0.684-0.107,1.547-0.432,2.375-0.936c0.828-0.432,1.729-1.296,2.268-2.195
			c0.181-0.252,0.289-0.541,0.289-0.793c0-0.18-0.037-0.468-0.252-0.899l-6.443-16.09H954.688z"/>
	</g>
</g>
<g id="jfx:p02">
	<g>
		<path style="fill:#FFFFFF;" d="M387.802,282.017c4.9-0.8,12.201-1.4,20.301-1.4c10,0,17.001,1.5,21.801,5.3
			c4,3.2,6.2,7.901,6.2,14.101c0,8.601-6.101,14.501-11.901,16.601v0.3c4.701,1.9,7.301,6.4,9,12.601
			c2.101,7.6,4.201,16.401,5.5,19.001h-15.601c-1.1-1.9-2.7-7.4-4.7-15.701c-1.8-8.4-4.7-10.7-10.9-10.8h-4.601v26.501h-15.101
			V282.017z M402.903,311.018h6c7.601,0,12.101-3.8,12.101-9.701c0-6.2-4.2-9.3-11.201-9.4c-3.7,0-5.8,0.3-6.9,0.5V311.018z"/>
		<path style="fill:#FFFFFF;" d="M446.601,277.516h15.201v27.902h0.2c1.6-2.1,3.6-3.7,6-5c2.2-1.2,5.101-1.9,7.901-1.9
			c9.7,0,17.101,6.7,17.101,21.401v28.602h-15.201v-26.902c0-6.4-2.2-10.8-7.9-10.8c-4,0-6.5,2.6-7.601,5.3c-0.4,1-0.5,2.3-0.5,3.4
			v29.002h-15.201V277.516z"/>
		<path style="fill:#FFFFFF;" d="M520.901,286.017c0,4.2-3.2,7.601-8.201,7.601c-4.8,0-8-3.4-7.9-7.601c-0.1-4.4,3.101-7.7,8-7.7
			C517.701,278.316,520.801,281.616,520.901,286.017z M505.201,348.521v-48.903h15.201v48.903H505.201z"/>
		<path style="fill:#FFFFFF;" d="M532.6,315.218c0-6.1-0.201-11.3-0.4-15.601H545.4l0.699,6.7h0.301c2-3.1,7-7.8,15.1-7.8
			c10.002,0,17.502,6.6,17.502,21.001v29.002h-15.201v-27.102c0-6.3-2.2-10.601-7.701-10.601c-4.199,0-6.699,2.9-7.699,5.7
			c-0.4,0.9-0.601,2.4-0.601,3.8v28.202h-15.2V315.218z"/>
		<path style="fill:#FFFFFF;" d="M639.502,323.519c0,17.901-12.701,26.102-25.803,26.102c-14.301,0-25.301-9.4-25.301-25.202
			c0-15.801,10.4-25.901,26.102-25.901C629.501,298.518,639.502,308.818,639.502,323.519z M604.1,324.019
			c0,8.4,3.5,14.701,10,14.701c5.9,0,9.701-5.9,9.701-14.701c0-7.3-2.801-14.701-9.701-14.701
			C606.799,309.318,604.1,316.818,604.1,324.019z"/>
	</g>
</g>
<g id="jfx:p03">
	<g>
		<path style="fill:#FFFFFF;" d="M329.553,348.521v-67.404h17.801l14.001,24.702c4,7.101,8,15.501,11,23.102h0.3
			c-1-8.901-1.3-18.001-1.3-28.102v-19.701h14.001v67.404h-16.001l-14.401-26.001c-4-7.201-8.4-15.901-11.701-23.802l-0.3,0.1
			c0.4,8.9,0.6,18.401,0.6,29.402v20.301H329.553z"/>
		<path style="fill:#FFFFFF;" d="M425.853,348.521l-0.9-4.9h-0.3c-3.2,3.9-8.201,6-14.001,6c-9.901,0-15.801-7.201-15.801-15.001
			c0-12.701,11.4-18.801,28.702-18.701v-0.7c0-2.6-1.4-6.3-8.901-6.3c-5,0-10.3,1.7-13.5,3.7l-2.8-9.8
			c3.4-1.9,10.101-4.3,19.001-4.3c16.301,0,21.501,9.601,21.501,21.101v17.001c0,4.701,0.2,9.201,0.7,11.901H425.853z
			 M424.053,325.42c-8-0.1-14.201,1.8-14.201,7.701c0,3.9,2.601,5.8,6,5.8c3.8,0,6.9-2.5,7.9-5.601c0.2-0.8,0.3-1.7,0.3-2.6V325.42z
			"/>
		<path style="fill:#FFFFFF;" d="M450.751,335.221c2.8,1.7,8.601,3.7,13.101,3.7c4.601,0,6.5-1.6,6.5-4.1c0-2.5-1.5-3.7-7.201-5.601
			c-10.101-3.4-14-8.9-13.9-14.701c0-9.101,7.8-16.001,19.901-16.001c5.701,0,10.801,1.3,13.801,2.8l-2.7,10.501
			c-2.2-1.2-6.4-2.8-10.601-2.8c-3.7,0-5.8,1.5-5.8,4c0,2.3,1.9,3.5,7.9,5.6c9.301,3.2,13.201,7.9,13.301,15.101
			c0,9.101-7.2,15.801-21.201,15.801c-6.4,0-12.101-1.4-15.801-3.4L450.751,335.221z"/>
		<path style="fill:#FFFFFF;" d="M494.25,277.517h15.201v27.902h0.2c1.6-2.1,3.6-3.7,6-5c2.201-1.2,5.102-1.9,7.901-1.9
			c9.7,0,17.101,6.7,17.101,21.401v28.602h-15.201V321.62c0-6.4-2.199-10.8-7.9-10.8c-4,0-6.5,2.6-7.6,5.3c-0.4,1-0.5,2.3-0.5,3.4
			v29.002H494.25V277.517z"/>
		<path style="fill:#FFFFFF;" d="M601.152,323.52c0,17.901-12.701,26.102-25.802,26.102c-14.301,0-25.302-9.4-25.302-25.202
			c0-15.801,10.4-25.901,26.102-25.901C591.152,298.519,601.152,308.819,601.152,323.52z M565.75,324.02
			c0,8.4,3.5,14.701,10.001,14.701c5.9,0,9.7-5.9,9.7-14.701c0-7.3-2.8-14.701-9.7-14.701
			C568.45,309.319,565.75,316.819,565.75,324.02z"/>
		<path style="fill:#FFFFFF;" d="M610.549,315.72c0-7.201-0.199-11.901-0.4-16.101h13.102l0.5,9h0.4
			c2.5-7.101,8.5-10.101,13.2-10.101c1.4,0,2.101,0,3.2,0.2v14.301c-1.1-0.2-2.4-0.4-4.1-0.4c-5.601,0-9.4,3-10.401,7.701
			c-0.2,1-0.3,2.2-0.3,3.4v24.802h-15.201V315.72z"/>
		<path style="fill:#FFFFFF;" d="M648.549,315.219c0-6.1-0.201-11.3-0.4-15.601h13.201l0.699,6.7h0.301c2-3.1,7-7.8,15.1-7.8
			c10.002,0,17.502,6.6,17.502,21.001v29.002H679.75V321.42c0-6.3-2.2-10.601-7.7-10.601c-4.2,0-6.7,2.9-7.7,5.7
			c-0.4,0.9-0.601,2.4-0.601,3.8v28.202h-15.2V315.219z"/>
	</g>
</g>
<g id="jfx:p04">
	<g>
		<path style="fill:#FFFFFF;" d="M329.218,366.277v37.744h-8.568v-37.744H329.218z"/>
		<path style="fill:#FFFFFF;" d="M336.33,385.373c0-3.417-0.112-6.329-0.224-8.736h7.392l0.392,3.752h0.168
			c1.12-1.736,3.92-4.368,8.456-4.368c5.6,0,9.8,3.696,9.8,11.761v16.239h-8.512v-15.176c0-3.528-1.232-5.936-4.312-5.936
			c-2.352,0-3.752,1.624-4.312,3.192c-0.224,0.504-0.336,1.344-0.336,2.128v15.792h-8.512V385.373z"/>
		<path style="fill:#FFFFFF;" d="M375.474,376.637l3.696,12.712c0.672,2.296,1.176,4.479,1.568,6.664h0.168
			c0.448-2.24,0.896-4.312,1.512-6.664l3.528-12.712h8.96l-10.192,27.384h-8.512l-9.968-27.384H375.474z"/>
		<path style="fill:#FFFFFF;" d="M425.873,390.021c0,10.024-7.112,14.616-14.448,14.616c-8.008,0-14.168-5.264-14.168-14.112
			c0-8.848,5.824-14.504,14.616-14.504C420.273,376.021,425.873,381.789,425.873,390.021z M406.049,390.301
			c0,4.703,1.96,8.232,5.6,8.232c3.304,0,5.432-3.305,5.432-8.232c0-4.088-1.568-8.232-5.432-8.232
			C407.561,382.068,406.049,386.269,406.049,390.301z"/>
		<path style="fill:#FFFFFF;" d="M439.648,388.172h0.112c0.616-1.119,1.288-2.239,1.96-3.303l5.544-8.232h10.248l-9.8,11.088
			l11.2,16.296H448.44l-6.608-11.256l-2.184,2.688v8.567h-8.512v-39.76h8.512V388.172z"/>
		<path style="fill:#FFFFFF;" d="M468.04,393.045c0.28,3.527,3.752,5.207,7.728,5.207c2.912,0,5.264-0.392,7.56-1.119l1.12,5.768
			c-2.8,1.12-6.216,1.68-9.912,1.68c-9.296,0-14.616-5.375-14.616-13.943c0-6.944,4.312-14.616,13.832-14.616
			c8.848,0,12.208,6.888,12.208,13.664c0,1.456-0.168,2.744-0.28,3.36H468.04z M478.064,387.221c0-2.072-0.896-5.544-4.816-5.544
			c-3.584,0-5.04,3.248-5.264,5.544H478.064z"/>
		<path style="fill:#FFFFFF;" d="M491.336,366.781c3.136-0.504,7.224-0.784,11.536-0.784c7.168,0,11.815,1.288,15.456,4.032
			c3.92,2.912,6.384,7.56,6.384,14.224c0,7.224-2.632,12.208-6.272,15.289c-3.976,3.304-10.023,4.871-17.416,4.871
			c-4.424,0-7.56-0.279-9.688-0.56V366.781z M499.904,397.58c0.728,0.168,1.904,0.168,2.968,0.168
			c7.728,0.057,12.769-4.199,12.769-13.215c0.055-7.84-4.537-11.984-11.873-11.984c-1.904,0-3.136,0.168-3.864,0.336V397.58z"/>
		<path style="fill:#FFFFFF;" d="M536.416,376.637l4.088,13.439c0.448,1.625,1.008,3.641,1.344,5.096h0.168
			c0.393-1.455,0.84-3.527,1.232-5.096l3.359-13.439h9.129l-6.385,18.031c-3.92,10.865-6.551,15.232-9.631,17.977
			c-2.969,2.576-6.104,3.472-8.232,3.752l-1.792-7.225c1.063-0.168,2.407-0.672,3.696-1.455c1.287-0.672,2.688-2.016,3.527-3.416
			c0.28-0.393,0.448-0.84,0.448-1.232c0-0.279-0.056-0.729-0.392-1.4l-10.024-25.031H536.416z"/>
		<path style="fill:#FFFFFF;" d="M559.32,385.373c0-3.417-0.112-6.329-0.225-8.736h7.393l0.392,3.752h0.168
			c1.12-1.736,3.92-4.368,8.456-4.368c5.6,0,9.8,3.696,9.8,11.761v16.239h-8.513v-15.176c0-3.528-1.231-5.936-4.312-5.936
			c-2.352,0-3.752,1.624-4.312,3.192c-0.225,0.504-0.336,1.344-0.336,2.128v15.792h-8.512V385.373z"/>
		<path style="fill:#FFFFFF;" d="M607.703,404.021l-0.504-2.744h-0.168c-1.791,2.185-4.592,3.36-7.84,3.36
			c-5.544,0-8.848-4.032-8.848-8.4c0-7.111,6.384-10.527,16.072-10.472v-0.392c0-1.457-0.784-3.528-4.984-3.528
			c-2.8,0-5.768,0.952-7.561,2.072l-1.567-5.488c1.903-1.064,5.655-2.408,10.64-2.408c9.129,0,12.04,5.376,12.04,11.815v9.521
			c0,2.632,0.112,5.151,0.392,6.664H607.703z M606.695,391.084c-4.479-0.056-7.951,1.009-7.951,4.313
			c0,2.184,1.455,3.248,3.359,3.248c2.128,0,3.864-1.4,4.424-3.136c0.112-0.448,0.168-0.952,0.168-1.456V391.084z"/>
		<path style="fill:#FFFFFF;" d="M621.703,385.373c0-3.417-0.111-6.329-0.224-8.736h7.168l0.392,3.696h0.168
			c1.177-1.736,3.584-4.312,8.289-4.312c3.527,0,6.327,1.792,7.504,4.648h0.111c1.008-1.4,2.24-2.52,3.528-3.304
			c1.512-0.896,3.192-1.344,5.208-1.344c5.264,0,9.24,3.696,9.24,11.872v16.128h-8.289v-14.896c0-3.977-1.287-6.272-4.031-6.272
			c-1.96,0-3.36,1.344-3.92,2.968c-0.225,0.616-0.336,1.512-0.336,2.184v16.017h-8.288v-15.344c0-3.472-1.231-5.824-3.92-5.824
			c-2.185,0-3.472,1.68-3.976,3.08c-0.281,0.672-0.336,1.456-0.336,2.128v15.96h-8.289V385.373z"/>
		<path style="fill:#FFFFFF;" d="M678.654,369.021c0,2.352-1.791,4.256-4.592,4.256c-2.688,0-4.479-1.904-4.424-4.256
			c-0.056-2.464,1.736-4.312,4.48-4.312S678.599,366.557,678.654,369.021z M669.863,404.021v-27.384h8.512v27.384H669.863z"/>
		<path style="fill:#FFFFFF;" d="M705.758,403.349c-1.512,0.672-4.368,1.231-7.615,1.231c-8.849,0-14.504-5.375-14.504-14
			c0-8.007,5.487-14.56,15.68-14.56c2.239,0,4.703,0.392,6.495,1.064l-1.344,6.328c-1.008-0.448-2.52-0.84-4.76-0.84
			c-4.479,0-7.392,3.192-7.336,7.671c0,5.041,3.36,7.672,7.504,7.672c2.016,0,3.584-0.336,4.872-0.84L705.758,403.349z"/>
	</g>
</g>
<g id="jfx:p05">
	<g>
		<path style="fill:#F89820;" d="M372.605,100.611c0,22.102-13.401,35.502-33.102,35.502c-20.001,0-31.702-15.101-31.702-34.302
			c0-20.201,12.901-35.302,32.802-35.302C361.305,66.509,372.605,82.01,372.605,100.611z M323.902,101.512
			c0,13.201,6.201,22.501,16.401,22.501c10.301,0,16.201-9.801,16.201-22.901c0-12.101-5.8-22.501-16.301-22.501
			C329.903,78.61,323.902,88.411,323.902,101.512z"/>
		<path style="fill:#F89820;" d="M382.102,102.512c0-6.4-0.2-11.901-0.4-16.401h13.201l0.7,6.8h0.2c3.6-5.2,9.201-7.9,16.301-7.9
			c10.701,0,20.301,9.3,20.301,24.901c0,17.801-11.301,26.202-22.201,26.202c-5.9,0-10.5-2.4-12.701-5.601h-0.2v24.302h-15.201
			V102.512z M397.302,114.012c0,1.2,0.1,2.3,0.3,3.2c1,4.101,4.5,7.201,8.901,7.201c6.6,0,10.5-5.5,10.5-13.801
			c0-7.801-3.5-13.701-10.301-13.701c-4.3,0-8.1,3.2-9.101,7.701c-0.2,0.8-0.3,1.8-0.3,2.7V114.012z"/>
		<path style="fill:#F89820;" d="M453.602,115.413c0.5,6.3,6.7,9.3,13.801,9.3c5.2,0,9.4-0.7,13.5-2l2,10.301
			c-5,2-11.101,3-17.701,3c-16.601,0-26.102-9.601-26.102-24.901c0-12.401,7.7-26.102,24.702-26.102
			c15.801,0,21.801,12.301,21.801,24.401c0,2.6-0.3,4.9-0.5,6H453.602z M471.502,105.012c0-3.7-1.6-9.9-8.601-9.9
			c-6.4,0-9,5.8-9.4,9.9H471.502z"/>
		<path style="fill:#F89820;" d="M494.701,101.711c0-6.1-0.2-11.3-0.4-15.601h13.201l0.7,6.7h0.3c2-3.1,7-7.8,15.1-7.8
			c10.002,0,17.502,6.6,17.502,21.001v29.002h-15.201v-27.102c0-6.3-2.2-10.601-7.701-10.601c-4.199,0-6.7,2.9-7.7,5.7
			c-0.4,0.9-0.6,2.4-0.6,3.8v28.202h-15.201V101.711z"/>
		<path style="fill:#5382A1;" d="M567.001,67.609h15.2v42.603c0,19.201-9.199,25.902-24.001,25.902c-3.5,0-8.101-0.6-11.101-1.6
			l1.7-12.301c2.101,0.7,4.8,1.2,7.8,1.2c6.4,0,10.401-2.9,10.401-13.401V67.609z"/>
		<path style="fill:#5382A1;" d="M594.9,68.51c5.6-0.9,12.9-1.4,20.601-1.4c12.801,0,21.101,2.3,27.602,7.201
			c7.001,5.2,11.401,13.5,11.401,25.401c0,12.901-4.701,21.801-11.201,27.302c-7.101,5.9-17.901,8.701-31.102,8.701
			c-7.9,0-13.502-0.5-17.301-1V68.51z M610.201,123.513c1.299,0.3,3.4,0.3,5.3,0.3c13.801,0.1,22.802-7.5,22.802-23.602
			c0.1-14-8.102-21.401-21.201-21.401c-3.4,0-5.602,0.3-6.9,0.6V123.513z"/>
		<path style="fill:#5382A1;" d="M664.5,67.609h15.101v29.802h0.3c1.5-2.6,3.101-5,4.601-7.4l15.302-22.401h18.701l-22.303,28.702
			l23.502,38.702h-17.801L685.4,105.912l-5.8,7.1v22.001H664.5V67.609z"/>
	</g>
	<path style="fill:none;stroke:#F89820;stroke-width:10;stroke-linecap:round;stroke-miterlimit:10;" d="M728.156,116.548
		c63.53,34.361,103.345,83.667,103.345,138.444c0,103.824-143.045,187.994-319.501,187.994c-176.455,0-319.5-84.169-319.5-187.994
		c0-53.274,37.659-101.373,98.167-135.582"/>
</g>
<g id="jfx:p06">
	<g>
		<path style="fill:#FFFFFF;" d="M399.503,497.022v-37.743h9.968l7.84,13.831c2.24,3.976,4.48,8.681,6.16,12.937h0.168
			c-0.56-4.984-0.728-10.08-0.728-15.736v-11.031h7.84v37.743h-8.96l-8.064-14.56c-2.24-4.032-4.704-8.904-6.552-13.328
			l-0.168,0.056c0.224,4.984,0.336,10.304,0.336,16.464v11.368H399.503z"/>
		<path style="fill:#FFFFFF;" d="M464.91,483.022c0,10.024-7.112,14.616-14.448,14.616c-8.008,0-14.168-5.264-14.168-14.112
			c0-8.848,5.824-14.504,14.616-14.504C459.31,469.022,464.91,474.791,464.91,483.022z M445.086,483.303
			c0,4.703,1.96,8.232,5.6,8.232c3.304,0,5.432-3.305,5.432-8.232c0-4.088-1.568-8.232-5.432-8.232
			C446.598,475.07,445.086,479.271,445.086,483.303z"/>
		<path style="fill:#FFFFFF;" d="M496.718,457.263v31.584c0,3.079,0.112,6.327,0.224,8.176h-7.56l-0.392-4.032h-0.112
			c-1.736,3.08-5.04,4.648-8.568,4.648c-6.496,0-11.704-5.544-11.704-14.057c-0.056-9.239,5.712-14.56,12.264-14.56
			c3.36,0,5.992,1.177,7.224,3.08h0.112v-14.84H496.718z M488.206,481.23c0-0.447-0.056-1.064-0.112-1.512
			c-0.504-2.297-2.352-4.2-4.984-4.2c-3.864,0-5.88,3.472-5.88,7.784c0,4.648,2.296,7.56,5.824,7.56c2.464,0,4.424-1.68,4.928-4.088
			c0.168-0.616,0.224-1.231,0.224-1.96V481.23z"/>
		<path style="fill:#FFFFFF;" d="M510.102,486.047c0.28,3.527,3.752,5.207,7.728,5.207c2.912,0,5.265-0.392,7.561-1.119l1.12,5.768
			c-2.801,1.12-6.217,1.68-9.912,1.68c-9.296,0-14.616-5.375-14.616-13.943c0-6.944,4.312-14.616,13.832-14.616
			c8.848,0,12.208,6.888,12.208,13.664c0,1.456-0.168,2.744-0.28,3.36H510.102z M520.125,480.223c0-2.072-0.896-5.544-4.815-5.544
			c-3.584,0-5.04,3.248-5.264,5.544H520.125z"/>
		<path style="fill:#FFFFFF;" d="M532.501,492.486c0-3.023,2.072-5.208,5.04-5.208c2.969,0,4.984,2.128,4.984,5.208
			c0,2.969-2.016,5.152-5.04,5.152C534.573,497.639,532.501,495.455,532.501,492.486z"/>
		<path style="fill:#FFFFFF;" d="M542.021,502.063c2.24-0.168,3.977-0.672,5.04-1.792c1.232-1.288,1.681-3.472,1.681-8.903v-21.729
			h8.567v23.744c0,5.992-1.344,9.632-3.863,11.983c-2.521,2.353-6.496,3.36-10.584,3.36L542.021,502.063z M557.533,462.022
			c0,2.353-1.736,4.257-4.592,4.257c-2.688,0-4.425-1.904-4.425-4.257c0-2.464,1.736-4.312,4.536-4.312
			C555.797,457.711,557.477,459.559,557.533,462.022z"/>
		<path style="fill:#FFFFFF;" d="M579.54,497.022l-0.504-2.744h-0.168c-1.792,2.185-4.593,3.36-7.84,3.36
			c-5.545,0-8.849-4.032-8.849-8.4c0-7.111,6.384-10.527,16.072-10.472v-0.392c0-1.457-0.784-3.528-4.984-3.528
			c-2.8,0-5.768,0.952-7.56,2.071l-1.568-5.487c1.904-1.063,5.656-2.408,10.641-2.408c9.128,0,12.039,5.376,12.039,11.815v9.521
			c0,2.632,0.112,5.151,0.393,6.664H579.54z M578.532,484.086c-4.48-0.056-7.952,1.009-7.952,4.313c0,2.184,1.456,3.248,3.359,3.248
			c2.128,0,3.864-1.4,4.425-3.136c0.111-0.448,0.168-0.952,0.168-1.456V484.086z"/>
		<path style="fill:#FFFFFF;" d="M593.54,478.654c0-4.031-0.112-6.664-0.225-9.016h7.336l0.28,5.04h0.224
			c1.4-3.976,4.761-5.656,7.393-5.656c0.784,0,1.176,0,1.792,0.112v8.008c-0.616-0.111-1.344-0.225-2.296-0.225
			c-3.137,0-5.265,1.681-5.824,4.313c-0.112,0.561-0.168,1.232-0.168,1.904v13.888h-8.512V478.654z"/>
	</g>
	<g>
		<path style="fill:#FFFFFF;" d="M324.772,635.021l-8.96-37.743h9.128l2.856,15.567c0.84,4.48,1.624,9.353,2.24,13.16h0.112
			c0.616-4.088,1.512-8.624,2.464-13.272l3.192-15.455h9.072l3.024,15.903c0.84,4.424,1.456,8.456,2.016,12.656h0.112
			c0.56-4.2,1.4-8.624,2.184-13.104l3.08-15.455h8.68l-9.744,37.743h-9.24l-3.192-16.239c-0.728-3.809-1.344-7.336-1.792-11.648
			h-0.112c-0.672,4.256-1.288,7.84-2.184,11.648l-3.584,16.239H324.772z"/>
		<path style="fill:#FFFFFF;" d="M374.667,624.046c0.28,3.528,3.752,5.208,7.728,5.208c2.912,0,5.264-0.393,7.56-1.12l1.12,5.768
			c-2.8,1.12-6.216,1.681-9.912,1.681c-9.296,0-14.616-5.376-14.616-13.944c0-6.944,4.312-14.616,13.832-14.616
			c8.848,0,12.208,6.889,12.208,13.664c0,1.456-0.168,2.744-0.28,3.36H374.667z M384.691,618.222c0-2.072-0.896-5.544-4.816-5.544
			c-3.584,0-5.04,3.248-5.264,5.544H384.691z"/>
		<path style="fill:#FFFFFF;" d="M397.459,635.021c0.112-1.792,0.224-5.096,0.224-8.176v-31.584h8.512v15.624h0.112
			c1.624-2.352,4.48-3.864,8.288-3.864c6.552,0,11.368,5.433,11.312,13.832c0,9.856-6.272,14.784-12.544,14.784
			c-3.192,0-6.272-1.176-8.232-4.424h-0.112l-0.336,3.808H397.459z M406.195,623.374c0,0.56,0.056,1.063,0.168,1.512
			c0.56,2.296,2.52,4.032,4.984,4.032c3.64,0,5.88-2.8,5.88-7.729c0-4.256-1.904-7.615-5.88-7.615c-2.296,0-4.424,1.735-4.984,4.199
			c-0.112,0.504-0.168,1.009-0.168,1.568V623.374z"/>
		<path style="fill:#FFFFFF;" d="M431.45,597.278h8.456v16.688h0.168c0.84-1.456,1.736-2.8,2.576-4.144l8.568-12.544h10.472
			l-12.488,16.071l13.16,21.672h-9.968l-9.24-16.296l-3.248,3.977v12.319h-8.456V597.278z"/>
		<path style="fill:#FFFFFF;" d="M474.346,600.021c0,2.353-1.792,4.257-4.592,4.257c-2.688,0-4.48-1.904-4.424-4.257
			c-0.056-2.464,1.736-4.312,4.48-4.312S474.29,597.558,474.346,600.021z M465.554,635.021v-27.384h8.512v27.384H465.554z"/>
		<path style="fill:#FFFFFF;" d="M490.417,599.798v7.84h6.104v6.272h-6.104v9.911c0,3.305,0.784,4.816,3.36,4.816
			c1.064,0,1.904-0.112,2.52-0.224l0.056,6.439c-1.12,0.448-3.136,0.729-5.544,0.729c-2.744,0-5.04-0.952-6.384-2.353
			c-1.568-1.624-2.352-4.256-2.352-8.12V613.91h-3.64v-6.272h3.64v-5.936L490.417,599.798z"/>
		<path style="fill:#FFFFFF;" d="M498.929,637.262l11.984-40.6h5.656l-11.984,40.6H498.929z"/>
		<path style="fill:#FFFFFF;" d="M527.656,597.278h8.512v23.855c0,10.752-5.152,14.504-13.439,14.504
			c-1.96,0-4.536-0.336-6.217-0.896l0.952-6.889c1.176,0.393,2.688,0.672,4.368,0.672c3.584,0,5.824-1.624,5.824-7.504V597.278z"/>
		<path style="fill:#FFFFFF;" d="M558.567,635.021l-0.504-2.744h-0.168c-1.792,2.185-4.592,3.36-7.84,3.36
			c-5.544,0-8.848-4.032-8.848-8.4c0-7.111,6.384-10.527,16.071-10.472v-0.392c0-1.456-0.783-3.528-4.983-3.528
			c-2.8,0-5.769,0.952-7.561,2.072l-1.567-5.488c1.903-1.063,5.655-2.408,10.64-2.408c9.128,0,12.04,5.376,12.04,11.816v9.52
			c0,2.632,0.112,5.152,0.392,6.664H558.567z M557.56,622.086c-4.479-0.057-7.952,1.008-7.952,4.312c0,2.185,1.456,3.248,3.36,3.248
			c2.128,0,3.864-1.399,4.424-3.136c0.112-0.448,0.168-0.952,0.168-1.456V622.086z"/>
		<path style="fill:#FFFFFF;" d="M578.896,607.638l3.696,12.712c0.672,2.296,1.176,4.48,1.567,6.664h0.168
			c0.448-2.24,0.896-4.312,1.513-6.664l3.527-12.712h8.96l-10.191,27.384h-8.512l-9.969-27.384H578.896z"/>
		<path style="fill:#FFFFFF;" d="M617.815,635.021l-0.504-2.744h-0.168c-1.792,2.185-4.593,3.36-7.84,3.36
			c-5.545,0-8.849-4.032-8.849-8.4c0-7.111,6.384-10.527,16.072-10.472v-0.392c0-1.456-0.784-3.528-4.984-3.528
			c-2.8,0-5.768,0.952-7.56,2.072l-1.568-5.488c1.904-1.063,5.656-2.408,10.641-2.408c9.128,0,12.039,5.376,12.039,11.816v9.52
			c0,2.632,0.112,5.152,0.393,6.664H617.815z M616.808,622.086c-4.48-0.057-7.952,1.008-7.952,4.312
			c0,2.185,1.456,3.248,3.359,3.248c2.128,0,3.864-1.399,4.425-3.136c0.111-0.448,0.168-0.952,0.168-1.456V622.086z"/>
		<path style="fill:#FFFFFF;" d="M632.095,597.278h23.072v7h-14.504v8.623h13.552v6.944h-13.552v15.176h-8.568V597.278z"/>
		<path style="fill:#FFFFFF;" d="M681.486,635.021l-3.416-6.832c-1.399-2.632-2.296-4.592-3.359-6.775h-0.112
			c-0.784,2.184-1.735,4.144-2.912,6.775l-3.136,6.832h-9.744l10.92-19.096l-10.527-18.647h9.8l3.304,6.888
			c1.12,2.296,1.96,4.144,2.856,6.271h0.111c0.896-2.407,1.624-4.088,2.576-6.271l3.192-6.888h9.744l-10.641,18.424l11.2,19.319
			H681.486z"/>
	</g>
	<g>
		<path style="fill:#FFFFFF;" d="M329.056,528.783c2.632-0.449,6.328-0.785,11.536-0.785c5.264,0,9.016,1.009,11.536,3.024
			c2.408,1.904,4.032,5.04,4.032,8.736s-1.232,6.831-3.472,8.96c-2.912,2.744-7.224,3.976-12.264,3.976
			c-1.12,0-2.128-0.056-2.912-0.168v13.496h-8.456V528.783z M337.512,545.918c0.728,0.168,1.624,0.225,2.856,0.225
			c4.536,0,7.336-2.296,7.336-6.16c0-3.472-2.408-5.544-6.664-5.544c-1.736,0-2.912,0.168-3.528,0.336V545.918z"/>
		<path style="fill:#FFFFFF;" d="M361.312,547.654c0-4.031-0.112-6.664-0.224-9.016h7.336l0.28,5.04h0.224
			c1.4-3.976,4.76-5.656,7.392-5.656c0.784,0,1.176,0,1.792,0.112v8.008c-0.616-0.111-1.344-0.225-2.296-0.225
			c-3.136,0-5.264,1.681-5.824,4.313c-0.112,0.561-0.168,1.232-0.168,1.904v13.888h-8.512V547.654z"/>
		<path style="fill:#FFFFFF;" d="M409.639,552.022c0,10.024-7.112,14.616-14.448,14.616c-8.008,0-14.168-5.264-14.168-14.112
			c0-8.848,5.824-14.504,14.616-14.504C404.039,538.022,409.639,543.791,409.639,552.022z M389.815,552.303
			c0,4.703,1.96,8.232,5.6,8.232c3.304,0,5.432-3.305,5.432-8.232c0-4.088-1.568-8.232-5.432-8.232
			C391.327,544.07,389.815,548.271,389.815,552.303z"/>
		<path style="fill:#FFFFFF;" d="M409.247,571.063c2.24-0.168,3.976-0.672,5.04-1.792c1.232-1.288,1.68-3.472,1.68-8.903v-21.729
			h8.568v23.744c0,5.992-1.344,9.632-3.864,11.983c-2.52,2.353-6.496,3.36-10.584,3.36L409.247,571.063z M424.759,531.022
			c0,2.353-1.736,4.257-4.592,4.257c-2.688,0-4.424-1.904-4.424-4.257c0-2.464,1.736-4.312,4.536-4.312
			C423.023,526.711,424.703,528.559,424.759,531.022z"/>
		<path style="fill:#FFFFFF;" d="M437.75,555.047c0.28,3.527,3.752,5.207,7.728,5.207c2.912,0,5.264-0.392,7.56-1.119l1.12,5.768
			c-2.8,1.12-6.216,1.68-9.912,1.68c-9.296,0-14.616-5.375-14.616-13.943c0-6.944,4.312-14.616,13.832-14.616
			c8.848,0,12.208,6.888,12.208,13.664c0,1.456-0.168,2.744-0.28,3.36H437.75z M447.774,549.223c0-2.072-0.896-5.544-4.816-5.544
			c-3.584,0-5.04,3.248-5.264,5.544H447.774z"/>
		<path style="fill:#FFFFFF;" d="M481.318,565.351c-1.512,0.672-4.368,1.231-7.616,1.231c-8.848,0-14.504-5.375-14.504-14
			c0-8.008,5.488-14.56,15.68-14.56c2.24,0,4.704,0.392,6.496,1.063l-1.344,6.328c-1.008-0.447-2.52-0.84-4.76-0.84
			c-4.48,0-7.392,3.192-7.336,7.672c0,5.041,3.36,7.672,7.504,7.672c2.016,0,3.584-0.336,4.872-0.84L481.318,565.351z"/>
		<path style="fill:#FFFFFF;" d="M495.542,530.799v7.84h6.104v6.271h-6.104v9.912c0,3.305,0.784,4.816,3.36,4.816
			c1.064,0,1.904-0.112,2.52-0.225l0.056,6.44c-1.12,0.448-3.136,0.728-5.544,0.728c-2.744,0-5.04-0.951-6.384-2.352
			c-1.568-1.624-2.352-4.256-2.352-8.12v-11.2h-3.64v-6.271h3.64v-5.936L495.542,530.799z"/>
		<path style="fill:#FFFFFF;" d="M526.956,556.334l-2.688,9.688h-8.848l11.535-37.743h11.2l11.704,37.743h-9.184l-2.912-9.688
			H526.956z M536.532,549.951l-2.352-8.009c-0.672-2.239-1.344-5.04-1.904-7.28h-0.112c-0.56,2.24-1.119,5.097-1.735,7.28
			l-2.24,8.009H536.532z"/>
		<path style="fill:#FFFFFF;" d="M560.948,538.639l3.695,12.712c0.672,2.296,1.176,4.479,1.568,6.664h0.168
			c0.448-2.24,0.896-4.312,1.512-6.664l3.528-12.712h8.96l-10.192,27.384h-8.512l-9.968-27.384H560.948z"/>
		<path style="fill:#FFFFFF;" d="M599.867,566.022l-0.504-2.744h-0.168c-1.792,2.185-4.592,3.36-7.84,3.36
			c-5.544,0-8.848-4.032-8.848-8.4c0-7.111,6.384-10.527,16.071-10.472v-0.392c0-1.457-0.783-3.528-4.983-3.528
			c-2.8,0-5.769,0.952-7.561,2.071l-1.567-5.487c1.903-1.063,5.655-2.408,10.64-2.408c9.128,0,12.04,5.376,12.04,11.815v9.521
			c0,2.632,0.112,5.151,0.392,6.664H599.867z M598.859,553.086c-4.479-0.056-7.952,1.009-7.952,4.313
			c0,2.184,1.456,3.248,3.36,3.248c2.128,0,3.864-1.4,4.424-3.136c0.112-0.448,0.168-0.952,0.168-1.456V553.086z"/>
		<path style="fill:#FFFFFF;" d="M623.388,530.799v7.84h6.104v6.271h-6.104v9.912c0,3.305,0.783,4.816,3.359,4.816
			c1.064,0,1.904-0.112,2.521-0.225l0.056,6.44c-1.12,0.448-3.136,0.728-5.544,0.728c-2.744,0-5.04-0.951-6.384-2.352
			c-1.568-1.624-2.353-4.256-2.353-8.12v-11.2h-3.64v-6.271h3.64v-5.936L623.388,530.799z"/>
		<path style="fill:#FFFFFF;" d="M649.986,566.022l-0.504-2.744h-0.168c-1.792,2.185-4.592,3.36-7.84,3.36
			c-5.544,0-8.848-4.032-8.848-8.4c0-7.111,6.384-10.527,16.071-10.472v-0.392c0-1.457-0.783-3.528-4.983-3.528
			c-2.8,0-5.769,0.952-7.561,2.071l-1.567-5.487c1.903-1.063,5.655-2.408,10.64-2.408c9.128,0,12.04,5.376,12.04,11.815v9.521
			c0,2.632,0.112,5.151,0.392,6.664H649.986z M648.979,553.086c-4.479-0.056-7.952,1.009-7.952,4.313
			c0,2.184,1.456,3.248,3.36,3.248c2.128,0,3.864-1.4,4.424-3.136c0.112-0.448,0.168-0.952,0.168-1.456V553.086z"/>
		<path style="fill:#FFFFFF;" d="M663.986,547.654c0-4.031-0.111-6.664-0.224-9.016h7.336l0.28,5.04h0.224
			c1.4-3.976,4.76-5.656,7.392-5.656c0.784,0,1.177,0,1.792,0.112v8.008c-0.615-0.111-1.344-0.225-2.296-0.225
			c-3.136,0-5.264,1.681-5.823,4.313c-0.112,0.561-0.169,1.232-0.169,1.904v13.888h-8.512V547.654z"/>
	</g>
</g>
</svg>
