<?xml version="1.0" encoding="iso-8859-1"?>
<!-- Generator: Adobe Illustrator 16.1.1, SVG Export Plug-In . SVG Version: 6.00 Build 0)  -->
<!DOCTYPE svg PUBLIC "-//W3C//DTD SVG 1.1//EN" "http://www.w3.org/Graphics/SVG/1.1/DTD/svg11.dtd">
<svg version="1.1" xmlns="http://www.w3.org/2000/svg" xmlns:xlink="http://www.w3.org/1999/xlink" x="0px" y="0px" width="1024px"
	 height="768px" viewBox="0 0 1024 768" style="enable-background:new 0 0 1024 768;" xml:space="preserve">
<g id="jfx:p00">
	<image style="overflow:visible;" width="1024" height="768" xlink:href="FFE34DDA.jpg" >
	</image>
</g>
<g id="jfx:p01">
	<g>
		<path style="fill:#FFFFFF;" d="M301.826,67.521c5.6-0.9,12.9-1.4,20.601-1.4c12.801,0,21.101,2.3,27.602,7.201
			c7,5.2,11.401,13.5,11.401,25.401c0,12.901-4.7,21.801-11.201,27.302c-7.101,5.9-17.901,8.701-31.102,8.701
			c-7.9,0-13.501-0.5-17.301-1V67.521z M317.126,122.524c1.3,0.3,3.4,0.3,5.3,0.3c13.801,0.1,22.801-7.5,22.801-23.602
			c0.1-14-8.101-21.401-21.201-21.401c-3.4,0-5.601,0.3-6.9,0.6V122.524z"/>
		<path style="fill:#FFFFFF;" d="M398.727,134.025l-0.9-4.9h-0.3c-3.2,3.9-8.201,6-14.001,6c-9.901,0-15.801-7.201-15.801-15.001
			c0-12.701,11.4-18.801,28.702-18.701v-0.7c0-2.6-1.4-6.3-8.901-6.3c-5,0-10.3,1.7-13.5,3.7l-2.8-9.8
			c3.4-1.9,10.101-4.3,19.001-4.3c16.301,0,21.501,9.601,21.501,21.101v17.001c0,4.701,0.2,9.201,0.7,11.901H398.727z
			 M396.927,110.923c-8-0.1-14.201,1.8-14.201,7.701c0,3.9,2.601,5.8,6,5.8c3.8,0,6.9-2.5,7.9-5.601c0.2-0.8,0.3-1.7,0.3-2.6
			V110.923z"/>
		<path style="fill:#FFFFFF;" d="M440.727,71.121v14.001h10.9v11.201h-10.9v17.701c0,5.9,1.4,8.6,6,8.6c1.9,0,3.4-0.2,4.5-0.4
			l0.1,11.501c-2,0.8-5.601,1.3-9.901,1.3c-4.9,0-9-1.7-11.4-4.2c-2.8-2.9-4.2-7.601-4.2-14.501V96.323h-6.5V85.122h6.5V74.521
			L440.727,71.121z"/>
		<path style="fill:#FFFFFF;" d="M472.125,114.424c0.5,6.3,6.7,9.3,13.801,9.3c5.2,0,9.4-0.7,13.5-2l2,10.301
			c-5,2-11.101,3-17.701,3c-16.601,0-26.102-9.601-26.102-24.901c0-12.401,7.7-26.102,24.702-26.102
			c15.801,0,21.801,12.301,21.801,24.401c0,2.6-0.3,4.9-0.5,6H472.125z M490.026,104.023c0-3.7-1.6-9.9-8.601-9.9
			c-6.4,0-9,5.8-9.4,9.9H490.026z"/>
		<path style="fill:#FFFFFF;" d="M576.826,134.025c-1.399-1.5-2.8-3-4.4-4.8c-4.399,3.4-10.5,5.9-18.501,5.9
			c-16.301,0-23.501-9.701-23.501-19.101c0-8.901,5.101-15.301,12.801-19.301v-0.4c-2.9-3.2-5.101-8.201-5.101-13.001
			c0-8.5,6.7-17.801,20.201-17.801c10.4,0,18.302,6.101,18.302,15.801c0,6.8-4.001,12.601-13.301,17.301l-0.101,0.4
			c3.9,4.3,8.001,9.2,11.301,12.601c2.7-4.2,4.801-10.4,5.7-16.401h13.601c-1.8,10.201-5.2,18.901-11.2,25.602
			c3.8,4.3,7.7,8.7,11.9,13.201H576.826z M565.326,120.724c-4.2-4.2-9.701-10.301-15.201-16.501c-2.8,2-5.301,4.9-5.301,9.3
			c0,5.701,4.301,10.601,11.201,10.601C560.025,124.125,563.326,122.624,565.326,120.724z M551.725,81.922
			c0,3.4,1.601,6.4,4.601,9.701c4.9-3.4,7.4-6,7.4-9.901c0-3.2-1.9-6.7-5.9-6.7C553.925,75.021,551.725,78.421,551.725,81.922z"/>
		<path style="fill:#FFFFFF;" d="M634.924,79.421h-18.102V66.621h51.804v12.801h-18.401v54.604h-15.301V79.421z"/>
		<path style="fill:#FFFFFF;" d="M691.923,71.521c0,4.2-3.2,7.601-8.2,7.601c-4.801,0-8.001-3.4-7.901-7.601
			c-0.1-4.4,3.101-7.7,8.001-7.7S691.823,67.121,691.923,71.521z M676.222,134.025V85.122h15.201v48.903H676.222z"/>
		<path style="fill:#FFFFFF;" d="M703.621,100.723c0-6.1-0.2-11.3-0.4-15.601h12.801l0.7,6.6h0.3c2.101-3.1,6.4-7.7,14.801-7.7
			c6.301,0,11.301,3.2,13.401,8.3h0.2c1.8-2.5,4-4.5,6.3-5.9c2.7-1.6,5.7-2.4,9.301-2.4c9.4,0,16.501,6.6,16.501,21.201v28.802
			h-14.801v-26.602c0-7.101-2.3-11.201-7.2-11.201c-3.501,0-6.001,2.4-7.001,5.3c-0.399,1.1-0.6,2.7-0.6,3.9v28.602h-14.801v-27.402
			c0-6.2-2.2-10.4-7.001-10.4c-3.9,0-6.2,3-7.101,5.5c-0.5,1.2-0.6,2.6-0.6,3.8v28.502h-14.801V100.723z"/>
		<path style="fill:#FFFFFF;" d="M801.319,114.424c0.5,6.3,6.701,9.3,13.801,9.3c5.201,0,9.401-0.7,13.501-2l2,10.301
			c-5,2-11.101,3-17.701,3c-16.601,0-26.102-9.601-26.102-24.901c0-12.401,7.701-26.102,24.702-26.102
			c15.801,0,21.801,12.301,21.801,24.401c0,2.6-0.3,4.9-0.5,6H801.319z M819.221,104.023c0-3.7-1.6-9.9-8.601-9.9
			c-6.4,0-9,5.8-9.4,9.9H819.221z"/>
		<path style="fill:#FFFFFF;" d="M878.819,116.724l-4.801,17.301h-15.801l20.602-67.404h20.001l20.901,67.404H903.32l-5.2-17.301
			H878.819z M895.92,105.323l-4.2-14.301c-1.2-4-2.4-9-3.4-13.001h-0.2c-1,4-2,9.101-3.1,13.001l-4,14.301H895.92z"/>
		<path style="fill:#FFFFFF;" d="M928.717,67.521c4.7-0.8,11.301-1.4,20.601-1.4c9.401,0,16.102,1.8,20.602,5.4
			c4.301,3.4,7.2,9,7.2,15.601s-2.2,12.201-6.2,16.001c-5.2,4.9-12.9,7.101-21.901,7.101c-2,0-3.8-0.1-5.2-0.3v24.102h-15.101
			V67.521z M943.817,98.123c1.3,0.3,2.9,0.4,5.101,0.4c8.101,0,13.101-4.101,13.101-11.001c0-6.2-4.3-9.9-11.9-9.9
			c-3.101,0-5.2,0.3-6.301,0.6V98.123z"/>
		<path style="fill:#FFFFFF;" d="M1002.117,66.621v67.404h-15.301V66.621H1002.117z"/>
	</g>
</g>
<g id="jfx:p02">
	<g>
		<path style="fill:#FFFFFF;" d="M200.481,216.319c3.92-0.64,9.76-1.12,16.24-1.12c8,0,13.6,1.2,17.44,4.24
			c3.2,2.56,4.96,6.32,4.96,11.28c0,6.88-4.88,11.6-9.52,13.28v0.24c3.76,1.52,5.84,5.12,7.2,10.081c1.68,6.08,3.36,13.12,4.4,15.2
			h-12.48c-0.88-1.52-2.16-5.92-3.76-12.56c-1.44-6.72-3.76-8.561-8.72-8.641h-3.68v21.201h-12.08V216.319z M212.562,239.52h4.8
			c6.08,0,9.68-3.04,9.68-7.76c0-4.96-3.36-7.44-8.96-7.521c-2.96,0-4.64,0.24-5.52,0.4V239.52z"/>
		<path style="fill:#FFFFFF;" d="M256.88,253.84c0.4,5.04,5.36,7.44,11.041,7.44c4.16,0,7.52-0.56,10.8-1.6l1.6,8.24
			c-4,1.6-8.88,2.4-14.16,2.4c-13.28,0-20.88-7.68-20.88-19.92c0-9.92,6.16-20.88,19.76-20.88c12.641,0,17.44,9.84,17.44,19.521
			c0,2.08-0.24,3.92-0.4,4.8H256.88z M271.201,245.52c0-2.96-1.28-7.92-6.88-7.92c-5.12,0-7.2,4.64-7.521,7.92H271.201z"/>
		<path style="fill:#FFFFFF;" d="M289.76,243.52c0-5.12-0.16-9.521-0.32-13.121H300l0.56,5.44h0.16c2.88-4.16,7.36-6.32,13.041-6.32
			c8.56,0,16.24,7.44,16.24,19.92c0,14.24-9.04,20.96-17.76,20.96c-4.72,0-8.4-1.92-10.161-4.48h-0.16v19.44H289.76V243.52z
			 M301.92,252.72c0,0.96,0.08,1.84,0.24,2.56c0.8,3.28,3.6,5.76,7.12,5.76c5.28,0,8.4-4.4,8.4-11.041c0-6.24-2.8-10.96-8.24-10.96
			c-3.44,0-6.48,2.56-7.28,6.16c-0.16,0.64-0.24,1.44-0.24,2.16V252.72z"/>
		<path style="fill:#FFFFFF;" d="M337.599,212.719h12.161v56.801h-12.161V212.719z"/>
		<path style="fill:#FFFFFF;" d="M381.839,269.521l-0.72-3.92h-0.24c-2.56,3.12-6.56,4.8-11.2,4.8c-7.92,0-12.641-5.76-12.641-12
			c0-10.16,9.121-15.041,22.961-14.96v-0.56c0-2.08-1.12-5.04-7.12-5.04c-4,0-8.24,1.36-10.8,2.96l-2.24-7.84
			c2.72-1.52,8.08-3.44,15.2-3.44c13.041,0,17.201,7.68,17.201,16.88V260c0,3.76,0.16,7.36,0.56,9.52H381.839z M380.399,251.04
			c-6.4-0.08-11.36,1.44-11.36,6.16c0,3.12,2.08,4.64,4.8,4.64c3.04,0,5.52-2,6.32-4.48c0.16-0.64,0.24-1.36,0.24-2.08V251.04z"/>
		<path style="fill:#FFFFFF;" d="M431.2,268.561c-2.16,0.96-6.24,1.76-10.88,1.76c-12.64,0-20.72-7.68-20.72-20
			c0-11.44,7.84-20.801,22.4-20.801c3.2,0,6.72,0.56,9.28,1.52l-1.92,9.041c-1.44-0.64-3.6-1.2-6.8-1.2
			c-6.4,0-10.56,4.56-10.48,10.96c0,7.2,4.8,10.96,10.721,10.96c2.88,0,5.12-0.48,6.96-1.2L431.2,268.561z"/>
		<path style="fill:#FFFFFF;" d="M447.278,253.84c0.4,5.04,5.36,7.44,11.041,7.44c4.16,0,7.52-0.56,10.8-1.6l1.6,8.24
			c-4,1.6-8.88,2.4-14.16,2.4c-13.28,0-20.88-7.68-20.88-19.92c0-9.92,6.16-20.88,19.76-20.88c12.641,0,17.44,9.84,17.44,19.521
			c0,2.08-0.24,3.92-0.4,4.8H447.278z M461.599,245.52c0-2.96-1.28-7.92-6.88-7.92c-5.12,0-7.2,4.64-7.521,7.92H461.599z"/>
		<path style="fill:#FFFFFF;" d="M496.718,216.319c4.48-0.72,10.32-1.12,16.48-1.12c10.24,0,16.881,1.84,22.081,5.76
			c5.6,4.16,9.12,10.8,9.12,20.32c0,10.32-3.76,17.44-8.96,21.84c-5.681,4.72-14.32,6.96-24.881,6.96c-6.32,0-10.8-0.4-13.84-0.8
			V216.319z M508.958,260.32c1.04,0.24,2.72,0.24,4.24,0.24c11.041,0.08,18.241-6,18.241-18.881c0.08-11.2-6.48-17.12-16.961-17.12
			c-2.72,0-4.48,0.24-5.52,0.48V260.32z"/>
		<path style="fill:#FFFFFF;" d="M574.239,269.521l-0.721-3.92h-0.239c-2.561,3.12-6.561,4.8-11.2,4.8
			c-7.921,0-12.641-5.76-12.641-12c0-10.16,9.12-15.041,22.961-14.96v-0.56c0-2.08-1.12-5.04-7.12-5.04
			c-4.001,0-8.24,1.36-10.801,2.96l-2.24-7.84c2.721-1.52,8.08-3.44,15.2-3.44c13.04,0,17.2,7.68,17.2,16.88V260
			c0,3.76,0.16,7.36,0.561,9.52H574.239z M572.799,251.04c-6.4-0.08-11.36,1.44-11.36,6.16c0,3.12,2.08,4.64,4.801,4.64
			c3.04,0,5.52-2,6.319-4.48c0.16-0.64,0.24-1.36,0.24-2.08V251.04z"/>
		<path style="fill:#FFFFFF;" d="M607.839,219.199v11.2h8.72v8.96h-8.72v14.16c0,4.72,1.12,6.88,4.8,6.88
			c1.521,0,2.721-0.16,3.601-0.32l0.08,9.2c-1.601,0.64-4.48,1.04-7.921,1.04c-3.92,0-7.2-1.36-9.12-3.36
			c-2.239-2.32-3.359-6.08-3.359-11.6v-16h-5.2v-8.96h5.2v-8.48L607.839,219.199z"/>
		<path style="fill:#FFFFFF;" d="M632.958,253.84c0.4,5.04,5.36,7.44,11.04,7.44c4.16,0,7.521-0.56,10.801-1.6l1.6,8.24
			c-4,1.6-8.88,2.4-14.16,2.4c-13.28,0-20.881-7.68-20.881-19.92c0-9.92,6.16-20.88,19.761-20.88c12.641,0,17.44,9.84,17.44,19.521
			c0,2.08-0.24,3.92-0.4,4.8H632.958z M647.278,245.52c0-2.96-1.28-7.92-6.88-7.92c-5.12,0-7.2,4.64-7.521,7.92H647.278z"/>
		<path style="fill:#FFFFFF;" d="M662.238,272.721l17.12-58.001h8.08l-17.12,58.001H662.238z"/>
		<path style="fill:#FFFFFF;" d="M732.318,268c-2.24,1.12-7.28,2.32-13.84,2.32c-18.641,0-28.241-11.6-28.241-26.96
			c0-18.4,13.12-28.641,29.441-28.641c6.319,0,11.12,1.28,13.28,2.4l-2.48,9.68c-2.48-1.04-5.92-2-10.24-2
			c-9.681,0-17.2,5.84-17.2,17.84c0,10.8,6.4,17.601,17.28,17.601c3.68,0,7.76-0.8,10.16-1.76L732.318,268z"/>
		<path style="fill:#FFFFFF;" d="M762.157,269.521l-0.721-3.92h-0.24c-2.56,3.12-6.56,4.8-11.2,4.8c-7.92,0-12.64-5.76-12.64-12
			c0-10.16,9.12-15.041,22.96-14.96v-0.56c0-2.08-1.12-5.04-7.12-5.04c-4,0-8.24,1.36-10.8,2.96l-2.24-7.84
			c2.72-1.52,8.08-3.44,15.2-3.44c13.04,0,17.2,7.68,17.2,16.88V260c0,3.76,0.16,7.36,0.561,9.52H762.157z M760.717,251.04
			c-6.4-0.08-11.36,1.44-11.36,6.16c0,3.12,2.08,4.64,4.8,4.64c3.04,0,5.521-2,6.32-4.48c0.16-0.64,0.24-1.36,0.24-2.08V251.04z"/>
		<path style="fill:#FFFFFF;" d="M782.156,212.719h12.16v56.801h-12.16V212.719z"/>
		<path style="fill:#FFFFFF;" d="M813.516,253.84c0.4,5.04,5.36,7.44,11.04,7.44c4.16,0,7.521-0.56,10.801-1.6l1.6,8.24
			c-4,1.6-8.88,2.4-14.16,2.4c-13.28,0-20.881-7.68-20.881-19.92c0-9.92,6.16-20.88,19.761-20.88c12.641,0,17.44,9.84,17.44,19.521
			c0,2.08-0.24,3.92-0.4,4.8H813.516z M827.836,245.52c0-2.96-1.28-7.92-6.88-7.92c-5.12,0-7.2,4.64-7.521,7.92H827.836z"/>
		<path style="fill:#FFFFFF;" d="M846.396,242.88c0-4.88-0.16-9.04-0.319-12.48h10.56l0.561,5.36h0.239
			c1.601-2.48,5.601-6.24,12.081-6.24c8,0,14,5.28,14,16.8v23.201h-12.16V247.84c0-5.04-1.76-8.48-6.16-8.48
			c-3.36,0-5.36,2.32-6.16,4.56c-0.32,0.72-0.48,1.92-0.48,3.04v22.561h-12.16V242.88z"/>
		<path style="fill:#FFFFFF;" d="M931.196,212.719v45.121c0,4.4,0.16,9.04,0.32,11.68h-10.801l-0.56-5.76h-0.16
			c-2.479,4.4-7.2,6.64-12.24,6.64c-9.28,0-16.721-7.92-16.721-20.08c-0.08-13.201,8.16-20.801,17.521-20.801
			c4.801,0,8.561,1.68,10.32,4.4h0.16v-21.201H931.196z M919.036,246.96c0-0.64-0.08-1.52-0.16-2.16c-0.72-3.28-3.359-6-7.12-6
			c-5.52,0-8.4,4.96-8.4,11.12c0,6.64,3.28,10.8,8.32,10.8c3.521,0,6.32-2.4,7.04-5.84c0.24-0.88,0.32-1.76,0.32-2.8V246.96z"/>
		<path style="fill:#FFFFFF;" d="M963.196,269.521l-0.721-3.92h-0.24c-2.56,3.12-6.56,4.8-11.2,4.8c-7.92,0-12.64-5.76-12.64-12
			c0-10.16,9.12-15.041,22.96-14.96v-0.56c0-2.08-1.12-5.04-7.12-5.04c-4,0-8.24,1.36-10.8,2.96l-2.24-7.84
			c2.72-1.52,8.08-3.44,15.2-3.44c13.04,0,17.2,7.68,17.2,16.88V260c0,3.76,0.16,7.36,0.561,9.52H963.196z M961.756,251.04
			c-6.4-0.08-11.36,1.44-11.36,6.16c0,3.12,2.08,4.64,4.8,4.64c3.04,0,5.521-2,6.32-4.48c0.16-0.64,0.24-1.36,0.24-2.08V251.04z"/>
		<path style="fill:#FFFFFF;" d="M983.195,243.28c0-5.76-0.16-9.52-0.319-12.88h10.479l0.4,7.2h0.32c2-5.68,6.8-8.08,10.56-8.08
			c1.12,0,1.681,0,2.561,0.16v11.44c-0.88-0.16-1.92-0.32-3.28-0.32c-4.48,0-7.521,2.4-8.32,6.16c-0.16,0.8-0.24,1.76-0.24,2.72
			v19.84h-12.16V243.28z"/>
	</g>
</g>
<g id="jfx:p03">
	<g>
		<path style="fill:#FFFFFF;" d="M311.522,301.797c3.2-0.64,9.68-1.12,15.76-1.12c7.44,0,12,0.72,15.92,3.04
			c3.76,2,6.48,5.68,6.48,10.561c0,4.8-2.8,9.28-8.88,11.52v0.16c6.16,1.68,10.721,6.32,10.721,13.28c0,4.88-2.24,8.72-5.601,11.44
			c-3.92,3.12-10.48,4.88-21.2,4.88c-6,0-10.48-0.4-13.2-0.8V301.797z M323.602,322.438h4c6.4,0,9.84-2.64,9.84-6.64
			c0-4.08-3.12-6.24-8.64-6.24c-2.64,0-4.16,0.16-5.2,0.32V322.438z M323.602,346.358c1.2,0.16,2.64,0.16,4.72,0.16
			c5.52,0,10.4-2.08,10.4-7.76c0-5.44-4.88-7.6-10.96-7.6h-4.16V346.358z"/>
		<path style="fill:#FFFFFF;" d="M381.682,354.999l-0.72-3.92h-0.24c-2.56,3.12-6.56,4.8-11.2,4.8c-7.92,0-12.641-5.76-12.641-12
			c0-10.16,9.121-15.041,22.961-14.96v-0.56c0-2.08-1.12-5.04-7.12-5.04c-4,0-8.24,1.36-10.8,2.96l-2.24-7.84
			c2.72-1.52,8.08-3.44,15.2-3.44c13.041,0,17.201,7.68,17.201,16.88v13.601c0,3.76,0.16,7.36,0.56,9.52H381.682z M380.242,336.518
			c-6.4-0.08-11.36,1.44-11.36,6.16c0,3.12,2.08,4.64,4.8,4.64c3.04,0,5.52-2,6.32-4.48c0.16-0.64,0.24-1.36,0.24-2.08V336.518z"/>
		<path style="fill:#FFFFFF;" d="M401.602,344.358c2.24,1.36,6.88,2.96,10.48,2.96c3.68,0,5.2-1.28,5.2-3.28c0-2-1.2-2.96-5.76-4.48
			c-8.08-2.72-11.2-7.12-11.12-11.76c0-7.28,6.24-12.8,15.92-12.8c4.56,0,8.64,1.04,11.04,2.24l-2.16,8.4
			c-1.76-0.96-5.12-2.24-8.48-2.24c-2.96,0-4.64,1.2-4.64,3.2c0,1.84,1.52,2.8,6.32,4.48c7.44,2.56,10.56,6.32,10.64,12.08
			c0,7.28-5.76,12.64-16.96,12.64c-5.12,0-9.68-1.12-12.64-2.72L401.602,344.358z"/>
		<path style="fill:#FFFFFF;" d="M445.761,339.318c0.4,5.04,5.36,7.44,11.041,7.44c4.16,0,7.52-0.56,10.8-1.6l1.6,8.24
			c-4,1.6-8.88,2.4-14.16,2.4c-13.28,0-20.88-7.68-20.88-19.92c0-9.92,6.16-20.88,19.76-20.88c12.641,0,17.44,9.84,17.44,19.521
			c0,2.08-0.24,3.92-0.4,4.8H445.761z M460.081,330.998c0-2.96-1.28-7.92-6.88-7.92c-5.12,0-7.2,4.64-7.521,7.92H460.081z"/>
		<path style="fill:#FFFFFF;" d="M516.562,298.197v45.121c0,4.4,0.16,9.04,0.32,11.68h-10.801l-0.56-5.76h-0.16
			c-2.48,4.4-7.2,6.64-12.24,6.64c-9.28,0-16.72-7.92-16.72-20.08c-0.08-13.201,8.16-20.801,17.521-20.801
			c4.8,0,8.56,1.68,10.32,4.4h0.16v-21.201H516.562z M504.401,332.438c0-0.64-0.08-1.52-0.16-2.16c-0.72-3.28-3.36-6-7.12-6
			c-5.52,0-8.4,4.96-8.4,11.12c0,6.64,3.28,10.8,8.32,10.8c3.52,0,6.32-2.4,7.04-5.84c0.24-0.88,0.32-1.76,0.32-2.8V332.438z"/>
		<path style="fill:#FFFFFF;" d="M581.121,334.998c0,14.32-10.16,20.88-20.641,20.88c-11.44,0-20.24-7.52-20.24-20.16
			c0-12.641,8.32-20.721,20.88-20.721C573.121,314.998,581.121,323.238,581.121,334.998z M552.8,335.398
			c0,6.72,2.801,11.76,8.001,11.76c4.72,0,7.76-4.72,7.76-11.76c0-5.84-2.24-11.76-7.76-11.76
			C554.96,323.638,552.8,329.638,552.8,335.398z"/>
		<path style="fill:#FFFFFF;" d="M588.64,328.358c0-4.88-0.16-9.04-0.32-12.48h10.561l0.56,5.36h0.24
			c1.601-2.48,5.601-6.24,12.08-6.24c8.001,0,14.001,5.28,14.001,16.8v23.201h-12.16v-21.681c0-5.04-1.761-8.48-6.16-8.48
			c-3.36,0-5.36,2.32-6.16,4.56c-0.32,0.72-0.48,1.92-0.48,3.04v22.561h-12.16V328.358z"/>
		<path style="fill:#FFFFFF;" d="M662.64,301.077h12.16v34.081c0,15.36-7.36,20.72-19.2,20.72c-2.801,0-6.48-0.48-8.881-1.28
			l1.36-9.84c1.68,0.56,3.84,0.96,6.24,0.96c5.12,0,8.32-2.32,8.32-10.72V301.077z"/>
		<path style="fill:#FFFFFF;" d="M723.199,334.998c0,14.32-10.16,20.88-20.64,20.88c-11.44,0-20.241-7.52-20.241-20.16
			c0-12.641,8.32-20.721,20.881-20.721C715.199,314.998,723.199,323.238,723.199,334.998z M694.879,335.398
			c0,6.72,2.8,11.76,8,11.76c4.721,0,7.761-4.72,7.761-11.76c0-5.84-2.24-11.76-7.761-11.76
			C697.039,323.638,694.879,329.638,694.879,335.398z"/>
		<path style="fill:#FFFFFF;" d="M768.639,298.197v45.121c0,4.4,0.16,9.04,0.32,11.68h-10.801l-0.56-5.76h-0.16
			c-2.479,4.4-7.2,6.64-12.24,6.64c-9.28,0-16.721-7.92-16.721-20.08c-0.079-13.201,8.16-20.801,17.521-20.801
			c4.801,0,8.561,1.68,10.32,4.4h0.16v-21.201H768.639z M756.479,332.438c0-0.64-0.08-1.52-0.16-2.16c-0.72-3.28-3.359-6-7.12-6
			c-5.52,0-8.4,4.96-8.4,11.12c0,6.64,3.28,10.8,8.32,10.8c3.521,0,6.32-2.4,7.04-5.84c0.24-0.88,0.32-1.76,0.32-2.8V332.438z"/>
		<path style="fill:#FFFFFF;" d="M800.639,354.999l-0.721-3.92h-0.24c-2.56,3.12-6.56,4.8-11.2,4.8c-7.92,0-12.64-5.76-12.64-12
			c0-10.16,9.12-15.041,22.96-14.96v-0.56c0-2.08-1.12-5.04-7.12-5.04c-4,0-8.24,1.36-10.8,2.96l-2.24-7.84
			c2.72-1.52,8.08-3.44,15.2-3.44c13.04,0,17.2,7.68,17.2,16.88v13.601c0,3.76,0.16,7.36,0.561,9.52H800.639z M799.198,336.518
			c-6.4-0.08-11.36,1.44-11.36,6.16c0,3.12,2.08,4.64,4.8,4.64c3.04,0,5.521-2,6.32-4.48c0.16-0.64,0.24-1.36,0.24-2.08V336.518z"/>
		<path style="fill:#FFFFFF;" d="M847.599,311.317h-14.48v-10.24h41.44v10.24h-14.72v43.681h-12.24V311.317z"/>
		<path style="fill:#FFFFFF;" d="M893.197,304.998c0,3.36-2.561,6.08-6.561,6.08c-3.84,0-6.399-2.72-6.319-6.08
			c-0.08-3.52,2.479-6.16,6.399-6.16S893.117,301.478,893.197,304.998z M880.637,354.999v-39.121h12.16v39.121H880.637z"/>
		<path style="fill:#FFFFFF;" d="M902.556,328.358c0-4.88-0.16-9.04-0.319-12.48h10.24l0.56,5.28h0.24
			c1.68-2.48,5.12-6.16,11.84-6.16c5.04,0,9.04,2.56,10.721,6.64h0.16c1.439-2,3.199-3.6,5.04-4.72c2.16-1.28,4.56-1.92,7.439-1.92
			c7.521,0,13.201,5.28,13.201,16.96v23.041h-11.841v-21.28c0-5.68-1.84-8.96-5.76-8.96c-2.801,0-4.801,1.92-5.601,4.24
			c-0.32,0.88-0.479,2.16-0.479,3.12v22.88h-11.841v-21.92c0-4.96-1.76-8.32-5.6-8.32c-3.12,0-4.961,2.4-5.681,4.4
			c-0.399,0.96-0.479,2.08-0.479,3.041v22.8h-11.841V328.358z"/>
		<path style="fill:#FFFFFF;" d="M980.715,339.318c0.4,5.04,5.36,7.44,11.04,7.44c4.16,0,7.521-0.56,10.801-1.6l1.6,8.24
			c-4,1.6-8.88,2.4-14.16,2.4c-13.28,0-20.881-7.68-20.881-19.92c0-9.92,6.16-20.88,19.761-20.88c12.641,0,17.44,9.84,17.44,19.521
			c0,2.08-0.24,3.92-0.4,4.8H980.715z M995.035,330.998c0-2.96-1.28-7.92-6.88-7.92c-5.12,0-7.2,4.64-7.521,7.92H995.035z"/>
	</g>
</g>
<g id="jfx:p04">
	<g>
		<path style="fill:#FFFFFF;" d="M710.158,403.887v43.133h-9.791v-43.133H710.158z"/>
		<path style="fill:#FFFFFF;" d="M718.287,425.709c0-3.904-0.129-7.231-0.256-9.983h8.191l0.447,4.224h0.191
			c1.345-1.983,4.096-4.928,9.472-4.928c4.032,0,7.231,2.048,8.575,5.312h0.129c1.151-1.6,2.559-2.88,4.031-3.775
			c1.729-1.024,3.647-1.536,5.951-1.536c6.016,0,10.56,4.224,10.56,13.567v18.431h-9.472v-17.023c0-4.543-1.472-7.167-4.607-7.167
			c-2.24,0-3.84,1.536-4.479,3.392c-0.256,0.704-0.384,1.728-0.384,2.496v18.303h-9.472v-17.535c0-3.968-1.407-6.655-4.479-6.655
			c-2.496,0-3.968,1.92-4.544,3.52c-0.319,0.769-0.384,1.664-0.384,2.432v18.239h-9.471V425.709z"/>
		<path style="fill:#FFFFFF;" d="M773.326,425.709c0-3.904-0.129-7.231-0.256-9.983h8.191l0.447,4.224h0.191
			c1.345-1.983,4.096-4.928,9.472-4.928c4.032,0,7.231,2.048,8.575,5.312h0.129c1.151-1.6,2.559-2.88,4.031-3.775
			c1.729-1.024,3.647-1.536,5.951-1.536c6.016,0,10.56,4.224,10.56,13.567v18.431h-9.472v-17.023c0-4.543-1.472-7.167-4.607-7.167
			c-2.24,0-3.84,1.536-4.479,3.392c-0.256,0.704-0.384,1.728-0.384,2.496v18.303h-9.472v-17.535c0-3.968-1.407-6.655-4.479-6.655
			c-2.496,0-3.968,1.92-4.544,3.52c-0.319,0.769-0.384,1.664-0.384,2.432v18.239h-9.471V425.709z"/>
		<path style="fill:#FFFFFF;" d="M857.867,436.972c0,4.096,0.127,7.424,0.256,10.048h-8.447l-0.449-4.416h-0.191
			c-1.216,1.92-4.16,5.12-9.791,5.12c-6.336,0-11.008-3.968-11.008-13.632v-18.366h9.791v16.831c0,4.543,1.473,7.295,4.864,7.295
			c2.688,0,4.224-1.855,4.864-3.392c0.256-0.576,0.319-1.344,0.319-2.111v-18.623h9.792V436.972z"/>
		<path style="fill:#FFFFFF;" d="M876.555,406.767v8.959h6.977v7.167h-6.977v11.328c0,3.775,0.896,5.503,3.84,5.503
			c1.217,0,2.176-0.128,2.881-0.256l0.063,7.359c-1.28,0.512-3.583,0.832-6.335,0.832c-3.137,0-5.76-1.088-7.296-2.688
			c-1.792-1.856-2.688-4.864-2.688-9.279v-12.8h-4.159v-7.167h4.159v-6.783L876.555,406.767z"/>
		<path style="fill:#FFFFFF;" d="M906.954,447.02l-0.575-3.136h-0.193c-2.047,2.495-5.247,3.84-8.959,3.84
			c-6.335,0-10.111-4.608-10.111-9.6c0-8.128,7.296-12.031,18.367-11.967v-0.448c0-1.664-0.896-4.032-5.695-4.032
			c-3.2,0-6.592,1.088-8.64,2.368l-1.792-6.271c2.176-1.216,6.463-2.752,12.159-2.752c10.431,0,13.759,6.144,13.759,13.503v10.88
			c0,3.008,0.128,5.887,0.448,7.615H906.954z M905.803,432.236c-5.12-0.063-9.088,1.152-9.088,4.928c0,2.496,1.664,3.712,3.84,3.712
			c2.432,0,4.416-1.601,5.056-3.584c0.128-0.512,0.192-1.088,0.192-1.664V432.236z"/>
		<path style="fill:#FFFFFF;" d="M922.699,447.02c0.129-2.048,0.256-5.824,0.256-9.344v-36.093h9.728v17.854h0.128
			c1.855-2.688,5.119-4.416,9.472-4.416c7.487,0,12.991,6.208,12.927,15.807c0,11.264-7.168,16.896-14.335,16.896
			c-3.647,0-7.167-1.345-9.407-5.056h-0.128l-0.384,4.352H922.699z M932.683,433.708c0,0.641,0.063,1.216,0.192,1.729
			c0.64,2.623,2.879,4.607,5.695,4.607c4.16,0,6.72-3.2,6.72-8.831c0-4.864-2.176-8.704-6.72-8.704c-2.624,0-5.056,1.984-5.695,4.8
			c-0.129,0.576-0.192,1.152-0.192,1.792V433.708z"/>
		<path style="fill:#FFFFFF;" d="M961.227,401.583h9.728v45.437h-9.728V401.583z"/>
		<path style="fill:#FFFFFF;" d="M986.314,434.477c0.319,4.031,4.287,5.951,8.831,5.951c3.327,0,6.016-0.448,8.64-1.28l1.279,6.592
			c-3.199,1.28-7.104,1.92-11.327,1.92c-10.623,0-16.702-6.144-16.702-15.935c0-7.936,4.928-16.703,15.807-16.703
			c10.111,0,13.951,7.871,13.951,15.615c0,1.664-0.192,3.136-0.32,3.84H986.314z M997.77,427.82c0-2.367-1.024-6.335-5.504-6.335
			c-4.096,0-5.76,3.712-6.016,6.335H997.77z"/>
	</g>
	<g>
		<path style="fill:#FFFFFF;" d="M382.482,476.463c3.584-0.575,8.255-0.896,13.183-0.896c8.191,0,13.503,1.472,17.663,4.607
			c4.48,3.328,7.295,8.64,7.295,16.255c0,8.256-3.008,13.951-7.167,17.471c-4.543,3.776-11.455,5.567-19.902,5.567
			c-5.056,0-8.64-0.319-11.071-0.64V476.463z M392.274,511.661c0.832,0.191,2.176,0.191,3.392,0.191
			c8.832,0.064,14.591-4.8,14.591-15.103c0.064-8.959-5.184-13.695-13.567-13.695c-2.176,0-3.584,0.192-4.416,0.384V511.661z"/>
		<path style="fill:#FFFFFF;" d="M444.497,519.021l-0.576-3.136h-0.192c-2.048,2.495-5.248,3.84-8.959,3.84
			c-6.335,0-10.111-4.608-10.111-9.6c0-8.128,7.295-12.031,18.367-11.967v-0.448c0-1.664-0.896-4.032-5.696-4.032
			c-3.2,0-6.591,1.088-8.639,2.368l-1.792-6.271c2.176-1.216,6.463-2.752,12.159-2.752c10.431,0,13.759,6.144,13.759,13.503v10.88
			c0,3.008,0.128,5.887,0.448,7.615H444.497z M443.345,504.237c-5.12-0.063-9.087,1.152-9.087,4.928c0,2.496,1.664,3.712,3.84,3.712
			c2.432,0,4.416-1.601,5.056-3.584c0.128-0.512,0.192-1.088,0.192-1.664V504.237z"/>
		<path style="fill:#FFFFFF;" d="M471.377,478.768v8.959h6.976v7.167h-6.976v11.328c0,3.775,0.896,5.503,3.84,5.503
			c1.216,0,2.176-0.128,2.88-0.256l0.064,7.359c-1.28,0.512-3.583,0.832-6.335,0.832c-3.136,0-5.76-1.088-7.295-2.688
			c-1.792-1.856-2.688-4.864-2.688-9.279v-12.8h-4.16v-7.167h4.16v-6.783L471.377,478.768z"/>
		<path style="fill:#FFFFFF;" d="M491.473,506.478c0.32,4.031,4.288,5.951,8.832,5.951c3.328,0,6.016-0.448,8.639-1.28l1.28,6.592
			c-3.2,1.28-7.104,1.92-11.327,1.92c-10.623,0-16.703-6.144-16.703-15.935c0-7.936,4.928-16.703,15.807-16.703
			c10.111,0,13.951,7.871,13.951,15.615c0,1.664-0.192,3.136-0.32,3.84H491.473z M502.928,499.821c0-2.367-1.024-6.335-5.503-6.335
			c-4.096,0-5.76,3.712-6.016,6.335H502.928z"/>
		<path style="fill:#FFFFFF;" d="M514.898,521.58l13.694-46.396h6.464l-13.695,46.396H514.898z"/>
		<path style="fill:#FFFFFF;" d="M547.601,484.079h-11.583v-8.191h33.149v8.191h-11.774v34.941h-9.792V484.079z"/>
		<path style="fill:#FFFFFF;" d="M584.08,479.023c0,2.688-2.048,4.863-5.248,4.863c-3.071,0-5.119-2.176-5.055-4.863
			c-0.064-2.816,1.983-4.928,5.119-4.928S584.016,476.207,584.08,479.023z M574.033,519.021v-31.294h9.727v31.294H574.033z"/>
		<path style="fill:#FFFFFF;" d="M591.568,497.71c0-3.904-0.129-7.231-0.256-9.983h8.191l0.447,4.224h0.191
			c1.345-1.983,4.096-4.928,9.472-4.928c4.032,0,7.231,2.048,8.575,5.312h0.129c1.151-1.6,2.559-2.88,4.031-3.775
			c1.729-1.024,3.647-1.536,5.951-1.536c6.016,0,10.56,4.224,10.56,13.567v18.431h-9.472v-17.023c0-4.543-1.472-7.167-4.607-7.167
			c-2.24,0-3.84,1.536-4.479,3.392c-0.256,0.704-0.384,1.728-0.384,2.496v18.303h-9.472v-17.535c0-3.968-1.407-6.655-4.479-6.655
			c-2.496,0-3.968,1.92-4.544,3.52c-0.319,0.769-0.384,1.664-0.384,2.432v18.239h-9.471V497.71z"/>
		<path style="fill:#FFFFFF;" d="M654.094,506.478c0.32,4.031,4.288,5.951,8.832,5.951c3.328,0,6.016-0.448,8.639-1.28l1.28,6.592
			c-3.2,1.28-7.104,1.92-11.327,1.92c-10.623,0-16.703-6.144-16.703-15.935c0-7.936,4.928-16.703,15.808-16.703
			c10.11,0,13.95,7.871,13.95,15.615c0,1.664-0.191,3.136-0.319,3.84H654.094z M665.549,499.821c0-2.367-1.023-6.335-5.503-6.335
			c-4.096,0-5.76,3.712-6.016,6.335H665.549z"/>
		<path style="fill:#FFFFFF;" d="M733.132,497.006c0,14.143-8.575,22.719-21.183,22.719c-12.799,0-20.287-9.664-20.287-21.951
			c0-12.927,8.256-22.59,20.991-22.59C725.9,475.184,733.132,485.103,733.132,497.006z M701.966,497.582
			c0,8.447,3.968,14.398,10.495,14.398c6.592,0,10.367-6.271,10.367-14.654c0-7.744-3.711-14.399-10.432-14.399
			C705.806,482.927,701.966,489.198,701.966,497.582z"/>
		<path style="fill:#FFFFFF;" d="M739.215,498.222c0-4.096-0.129-7.615-0.256-10.495h8.447l0.447,4.352h0.128
			c2.304-3.328,5.888-5.056,10.432-5.056c6.848,0,12.991,5.952,12.991,15.935c0,11.392-7.231,16.768-14.207,16.768
			c-3.775,0-6.72-1.536-8.128-3.584h-0.128v15.551h-9.727V498.222z M748.941,505.581c0,0.769,0.064,1.472,0.192,2.048
			c0.64,2.624,2.88,4.607,5.695,4.607c4.224,0,6.72-3.52,6.72-8.831c0-4.991-2.24-8.768-6.592-8.768
			c-2.752,0-5.184,2.048-5.823,4.928c-0.128,0.513-0.192,1.152-0.192,1.729V505.581z"/>
		<path style="fill:#FFFFFF;" d="M784.974,506.478c0.319,4.031,4.287,5.951,8.831,5.951c3.327,0,6.016-0.448,8.64-1.28l1.279,6.592
			c-3.199,1.28-7.104,1.92-11.327,1.92c-10.623,0-16.702-6.144-16.702-15.935c0-7.936,4.927-16.703,15.807-16.703
			c10.111,0,13.951,7.871,13.951,15.615c0,1.664-0.192,3.136-0.32,3.84H784.974z M796.429,499.821c0-2.367-1.024-6.335-5.504-6.335
			c-4.096,0-5.76,3.712-6.016,6.335H796.429z"/>
		<path style="fill:#FFFFFF;" d="M811.277,498.03c0-4.608-0.128-7.616-0.256-10.304h8.384l0.32,5.76h0.256
			c1.6-4.544,5.439-6.464,8.447-6.464c0.896,0,1.344,0,2.048,0.128v9.151c-0.704-0.128-1.536-0.256-2.624-0.256
			c-3.584,0-6.016,1.92-6.655,4.928c-0.128,0.64-0.192,1.408-0.192,2.176v15.871h-9.728V498.03z"/>
		<path style="fill:#FFFFFF;" d="M853.388,519.021l-0.576-3.136h-0.191c-2.048,2.495-5.248,3.84-8.96,3.84
			c-6.335,0-10.111-4.608-10.111-9.6c0-8.128,7.296-12.031,18.367-11.967v-0.448c0-1.664-0.896-4.032-5.695-4.032
			c-3.2,0-6.592,1.088-8.64,2.368l-1.792-6.271c2.176-1.216,6.464-2.752,12.159-2.752c10.432,0,13.759,6.144,13.759,13.503v10.88
			c0,3.008,0.128,5.887,0.448,7.615H853.388z M852.236,504.237c-5.12-0.063-9.088,1.152-9.088,4.928c0,2.496,1.664,3.712,3.84,3.712
			c2.432,0,4.416-1.601,5.056-3.584c0.128-0.512,0.192-1.088,0.192-1.664V504.237z"/>
		<path style="fill:#FFFFFF;" d="M880.269,478.768v8.959h6.976v7.167h-6.976v11.328c0,3.775,0.896,5.503,3.84,5.503
			c1.216,0,2.176-0.128,2.879-0.256l0.064,7.359c-1.28,0.512-3.584,0.832-6.336,0.832c-3.136,0-5.759-1.088-7.295-2.688
			c-1.792-1.856-2.688-4.864-2.688-9.279v-12.8h-4.16v-7.167h4.16v-6.783L880.269,478.768z"/>
		<path style="fill:#FFFFFF;" d="M902.924,479.023c0,2.688-2.048,4.863-5.248,4.863c-3.071,0-5.119-2.176-5.056-4.863
			c-0.063-2.816,1.984-4.928,5.12-4.928S902.859,476.207,902.924,479.023z M892.876,519.021v-31.294h9.728v31.294H892.876z"/>
		<path style="fill:#FFFFFF;" d="M941.321,503.021c0,11.455-8.127,16.703-16.511,16.703c-9.151,0-16.19-6.016-16.19-16.127
			s6.655-16.575,16.702-16.575C934.922,487.022,941.321,493.614,941.321,503.021z M918.667,503.342c0,5.375,2.24,9.407,6.399,9.407
			c3.775,0,6.208-3.776,6.208-9.407c0-4.672-1.792-9.407-6.208-9.407C920.395,493.935,918.667,498.733,918.667,503.342z"/>
		<path style="fill:#FFFFFF;" d="M947.339,497.71c0-3.904-0.128-7.231-0.256-9.983h8.447l0.448,4.288h0.192
			c1.279-1.984,4.479-4.992,9.663-4.992c6.399,0,11.199,4.224,11.199,13.439v18.559h-9.728v-17.343c0-4.032-1.408-6.784-4.928-6.784
			c-2.688,0-4.287,1.856-4.928,3.648c-0.256,0.576-0.384,1.536-0.384,2.432v18.047h-9.728V497.71z"/>
		<path style="fill:#FFFFFF;" d="M984.779,510.509c1.792,1.088,5.504,2.368,8.383,2.368c2.944,0,4.16-1.024,4.16-2.624
			s-0.96-2.368-4.607-3.584c-6.464-2.176-8.96-5.695-8.896-9.407c0-5.823,4.991-10.239,12.735-10.239
			c3.647,0,6.911,0.832,8.831,1.792l-1.728,6.72c-1.408-0.769-4.096-1.792-6.784-1.792c-2.367,0-3.712,0.96-3.712,2.56
			c0,1.472,1.217,2.24,5.056,3.584c5.952,2.048,8.448,5.056,8.512,9.663c0,5.823-4.607,10.111-13.567,10.111
			c-4.096,0-7.743-0.896-10.11-2.176L984.779,510.509z"/>
	</g>
</g>
<g id="jfx:p05">
	<g>
		<path style="fill:#FFFFFF;" d="M393.234,548.464c3.584-0.575,8.255-0.896,13.183-0.896c8.191,0,13.503,1.472,17.663,4.607
			c4.48,3.328,7.295,8.64,7.295,16.255c0,8.256-3.008,13.951-7.167,17.471c-4.543,3.776-11.455,5.567-19.902,5.567
			c-5.056,0-8.64-0.319-11.071-0.64V548.464z M403.025,583.662c0.832,0.191,2.176,0.191,3.392,0.191
			c8.832,0.064,14.591-4.8,14.591-15.103c0.064-8.959-5.184-13.695-13.567-13.695c-2.176,0-3.584,0.192-4.416,0.384V583.662z"/>
		<path style="fill:#FFFFFF;" d="M447.505,551.024c0,2.688-2.048,4.863-5.248,4.863c-3.071,0-5.119-2.176-5.055-4.863
			c-0.064-2.816,1.984-4.928,5.12-4.928S447.441,548.208,447.505,551.024z M437.458,591.021v-31.294h9.727v31.294H437.458z"/>
		<path style="fill:#FFFFFF;" d="M454.929,582.51c1.792,1.088,5.503,2.368,8.383,2.368c2.944,0,4.16-1.024,4.16-2.624
			s-0.96-2.368-4.607-3.584c-6.464-2.176-8.959-5.695-8.896-9.407c0-5.823,4.992-10.239,12.735-10.239
			c3.648,0,6.912,0.832,8.832,1.792l-1.728,6.72c-1.408-0.769-4.096-1.792-6.783-1.792c-2.368,0-3.712,0.96-3.712,2.56
			c0,1.472,1.216,2.24,5.056,3.584c5.952,2.048,8.447,5.056,8.511,9.663c0,5.823-4.607,10.111-13.567,10.111
			c-4.096,0-7.744-0.896-10.111-2.176L454.929,582.51z"/>
		<path style="fill:#FFFFFF;" d="M482.064,565.231c0-3.456,2.368-5.888,5.76-5.888c3.392,0,5.631,2.367,5.695,5.888
			c0,3.327-2.304,5.823-5.759,5.823C484.432,571.055,482.064,568.559,482.064,565.231z M482.064,585.901
			c0-3.392,2.368-5.888,5.76-5.888c3.392,0,5.631,2.433,5.695,5.888c0,3.328-2.304,5.824-5.759,5.824
			C484.432,591.726,482.064,589.229,482.064,585.901z"/>
		<path style="fill:#FFFFFF;" d="M520.976,556.08h-11.583v-8.191h33.15v8.191h-11.775v34.941h-9.791V556.08z"/>
		<path style="fill:#FFFFFF;" d="M578.317,575.022c0,11.455-8.128,16.703-16.511,16.703c-9.151,0-16.191-6.016-16.191-16.127
			s6.656-16.575,16.703-16.575C571.918,559.023,578.317,565.615,578.317,575.022z M555.663,575.343c0,5.375,2.239,9.407,6.399,9.407
			c3.775,0,6.207-3.776,6.207-9.407c0-4.672-1.792-9.407-6.207-9.407C557.391,565.936,555.663,570.734,555.663,575.343z"/>
		<path style="fill:#FFFFFF;" d="M615.245,575.022c0,11.455-8.128,16.703-16.511,16.703c-9.151,0-16.191-6.016-16.191-16.127
			s6.656-16.575,16.703-16.575C608.846,559.023,615.245,565.615,615.245,575.022z M592.591,575.343c0,5.375,2.239,9.407,6.399,9.407
			c3.775,0,6.207-3.776,6.207-9.407c0-4.672-1.792-9.407-6.207-9.407C594.318,565.936,592.591,570.734,592.591,575.343z"/>
		<path style="fill:#FFFFFF;" d="M670.988,574.511c-0.192-5.184-0.385-11.455-0.385-17.727h-0.191
			c-1.344,5.503-3.136,11.646-4.8,16.702l-5.248,16.831h-7.615l-4.607-16.703c-1.408-5.056-2.88-11.199-3.903-16.83h-0.128
			c-0.257,5.823-0.448,12.479-0.769,17.854l-0.768,16.383h-9.023l2.752-43.133h12.991l4.224,14.398
			c1.344,4.992,2.688,10.367,3.647,15.423h0.191c1.217-4.991,2.688-10.687,4.096-15.486l4.608-14.335h12.734l2.368,43.133h-9.535
			L670.988,574.511z"/>
		<path style="fill:#FFFFFF;" d="M706.125,591.021l-0.576-3.136h-0.192c-2.048,2.495-5.247,3.84-8.959,3.84
			c-6.335,0-10.111-4.608-10.111-9.6c0-8.128,7.296-12.031,18.367-11.967v-0.448c0-1.664-0.896-4.032-5.696-4.032
			c-3.199,0-6.591,1.088-8.639,2.368l-1.792-6.271c2.176-1.216,6.463-2.752,12.159-2.752c10.431,0,13.759,6.144,13.759,13.503v10.88
			c0,3.008,0.128,5.887,0.448,7.615H706.125z M704.973,576.238c-5.119-0.063-9.087,1.152-9.087,4.928
			c0,2.496,1.664,3.712,3.84,3.712c2.432,0,4.415-1.601,5.056-3.584c0.128-0.512,0.191-1.088,0.191-1.664V576.238z"/>
		<path style="fill:#FFFFFF;" d="M722.126,569.711c0-3.904-0.128-7.231-0.256-9.983h8.447l0.448,4.288h0.191
			c1.28-1.984,4.48-4.992,9.664-4.992c6.399,0,11.199,4.224,11.199,13.439v18.559h-9.728v-17.343c0-4.032-1.408-6.784-4.928-6.784
			c-2.688,0-4.288,1.856-4.928,3.648c-0.256,0.576-0.384,1.536-0.384,2.432v18.047h-9.728V569.711z"/>
		<path style="fill:#FFFFFF;" d="M766.926,559.728l4.672,15.358c0.512,1.856,1.151,4.16,1.536,5.824h0.191
			c0.448-1.664,0.96-4.032,1.408-5.824l3.84-15.358h10.431l-7.295,20.606c-4.479,12.415-7.487,17.407-11.008,20.543
			c-3.392,2.943-6.976,3.968-9.407,4.287l-2.048-8.255c1.216-0.192,2.752-0.769,4.224-1.664c1.472-0.769,3.072-2.304,4.032-3.904
			c0.319-0.447,0.512-0.96,0.512-1.407c0-0.32-0.064-0.832-0.448-1.601l-11.455-28.605H766.926z"/>
		<path style="fill:#FFFFFF;" d="M838.027,589.806c-1.792,0.896-5.823,1.855-11.071,1.855c-14.911,0-22.59-9.279-22.59-21.566
			c0-14.719,10.495-22.91,23.55-22.91c5.056,0,8.896,1.023,10.623,1.92l-1.983,7.743c-1.984-0.832-4.736-1.6-8.191-1.6
			c-7.743,0-13.759,4.672-13.759,14.271c0,8.64,5.119,14.079,13.822,14.079c2.944,0,6.208-0.64,8.128-1.408L838.027,589.806z"/>
		<path style="fill:#FFFFFF;" d="M844.108,545.585h9.728v45.437h-9.728V545.585z"/>
		<path style="fill:#FFFFFF;" d="M879.499,591.021l-0.576-3.136h-0.191c-2.048,2.495-5.248,3.84-8.96,3.84
			c-6.335,0-10.111-4.608-10.111-9.6c0-8.128,7.296-12.031,18.367-11.967v-0.448c0-1.664-0.896-4.032-5.695-4.032
			c-3.2,0-6.592,1.088-8.64,2.368l-1.792-6.271c2.176-1.216,6.464-2.752,12.159-2.752c10.432,0,13.759,6.144,13.759,13.503v10.88
			c0,3.008,0.128,5.887,0.448,7.615H879.499z M878.348,576.238c-5.12-0.063-9.088,1.152-9.088,4.928c0,2.496,1.664,3.712,3.84,3.712
			c2.432,0,4.416-1.601,5.056-3.584c0.128-0.512,0.192-1.088,0.192-1.664V576.238z"/>
		<path style="fill:#FFFFFF;" d="M895.437,582.51c1.792,1.088,5.504,2.368,8.383,2.368c2.944,0,4.16-1.024,4.16-2.624
			s-0.96-2.368-4.607-3.584c-6.464-2.176-8.96-5.695-8.896-9.407c0-5.823,4.991-10.239,12.735-10.239
			c3.647,0,6.911,0.832,8.831,1.792l-1.728,6.72c-1.408-0.769-4.096-1.792-6.784-1.792c-2.367,0-3.712,0.96-3.712,2.56
			c0,1.472,1.217,2.24,5.056,3.584c5.952,2.048,8.448,5.056,8.512,9.663c0,5.823-4.607,10.111-13.567,10.111
			c-4.096,0-7.743-0.896-10.11-2.176L895.437,582.51z"/>
		<path style="fill:#FFFFFF;" d="M923.212,582.51c1.792,1.088,5.504,2.368,8.383,2.368c2.944,0,4.16-1.024,4.16-2.624
			s-0.96-2.368-4.607-3.584c-6.464-2.176-8.96-5.695-8.896-9.407c0-5.823,4.991-10.239,12.735-10.239
			c3.647,0,6.911,0.832,8.831,1.792l-1.728,6.72c-1.408-0.769-4.096-1.792-6.784-1.792c-2.367,0-3.712,0.96-3.712,2.56
			c0,1.472,1.217,2.24,5.056,3.584c5.952,2.048,8.448,5.056,8.512,9.663c0,5.823-4.607,10.111-13.567,10.111
			c-4.096,0-7.743-0.896-10.11-2.176L923.212,582.51z"/>
		<path style="fill:#FFFFFF;" d="M958.539,578.479c0.319,4.031,4.287,5.951,8.831,5.951c3.328,0,6.016-0.448,8.64-1.28l1.279,6.592
			c-3.199,1.28-7.104,1.92-11.327,1.92c-10.623,0-16.702-6.144-16.702-15.935c0-7.936,4.927-16.703,15.807-16.703
			c10.111,0,13.951,7.871,13.951,15.615c0,1.664-0.192,3.136-0.32,3.84H958.539z M969.994,571.822c0-2.367-1.024-6.335-5.504-6.335
			c-4.096,0-5.76,3.712-6.016,6.335H969.994z"/>
		<path style="fill:#FFFFFF;" d="M984.779,582.51c1.792,1.088,5.504,2.368,8.383,2.368c2.944,0,4.16-1.024,4.16-2.624
			s-0.96-2.368-4.607-3.584c-6.464-2.176-8.96-5.695-8.896-9.407c0-5.823,4.991-10.239,12.735-10.239
			c3.647,0,6.911,0.832,8.831,1.792l-1.728,6.72c-1.408-0.769-4.096-1.792-6.784-1.792c-2.367,0-3.712,0.96-3.712,2.56
			c0,1.472,1.217,2.24,5.056,3.584c5.952,2.048,8.448,5.056,8.512,9.663c0,5.823-4.607,10.111-13.567,10.111
			c-4.096,0-7.743-0.896-10.11-2.176L984.779,582.51z"/>
	</g>
</g>
</svg>
