<?xml version="1.0" encoding="iso-8859-1"?>
<!-- Generator: Adobe Illustrator 16.1.1, SVG Export Plug-In . SVG Version: 6.00 Build 0)  -->
<!DOCTYPE svg PUBLIC "-//W3C//DTD SVG 1.1//EN" "http://www.w3.org/Graphics/SVG/1.1/DTD/svg11.dtd">
<svg version="1.1" xmlns="http://www.w3.org/2000/svg" xmlns:xlink="http://www.w3.org/1999/xlink" x="0px" y="0px" width="1024px"
	 height="768px" viewBox="0 0 1024 768" style="enable-background:new 0 0 1024 768;" xml:space="preserve">
<g id="jfx:p00">
	<image style="overflow:visible;" width="1024" height="768" xlink:href="1A4AB57E.jpg" >
	</image>
</g>
<g id="jfx:p01">
	<rect style="opacity:0.6;fill:#FFFFFF;" width="1024" height="768"/>
</g>
<g id="jfx:p02">
	<g>
		<path d="M80.826,104.421H62.725V91.62h51.803v12.801H96.127v54.604H80.826V104.421z"/>
		<path d="M133.525,110.122l7.301,24.001c0.8,2.9,1.8,6.5,2.4,9.101h0.3c0.7-2.601,1.5-6.301,2.2-9.101l6-24.001h16.301
			l-11.4,32.202c-7,19.401-11.701,27.202-17.201,32.102c-5.3,4.6-10.9,6.201-14.701,6.701l-3.2-12.901c1.9-0.3,4.3-1.2,6.6-2.6
			c2.3-1.2,4.8-3.601,6.301-6.101c0.5-0.7,0.8-1.5,0.8-2.2c0-0.5-0.1-1.3-0.7-2.5l-17.901-44.703H133.525z"/>
		<path d="M174.424,126.522c0-6.4-0.2-11.901-0.4-16.401h13.201l0.7,6.8h0.2c3.6-5.2,9.201-7.9,16.301-7.9
			c10.701,0,20.301,9.3,20.301,24.901c0,17.801-11.301,26.202-22.201,26.202c-5.9,0-10.5-2.4-12.701-5.601h-0.2v24.302h-15.201
			V126.522z M189.625,138.023c0,1.2,0.1,2.3,0.3,3.2c1,4.101,4.5,7.201,8.901,7.201c6.6,0,10.5-5.5,10.5-13.801
			c0-7.801-3.5-13.701-10.301-13.701c-4.3,0-8.1,3.2-9.101,7.701c-0.2,0.8-0.3,1.8-0.3,2.7V138.023z"/>
		<path d="M245.924,139.423c0.5,6.3,6.7,9.3,13.801,9.3c5.2,0,9.4-0.7,13.5-2l2,10.301c-5,2-11.101,3-17.701,3
			c-16.601,0-26.102-9.601-26.102-24.901c0-12.401,7.7-26.102,24.702-26.102c15.801,0,21.801,12.301,21.801,24.401
			c0,2.6-0.3,4.9-0.5,6H245.924z M263.825,129.022c0-3.7-1.6-9.9-8.601-9.9c-6.4,0-9,5.8-9.4,9.9H263.825z"/>
		<path d="M323.423,141.723l-4.8,17.301h-15.801l20.601-67.404h20.001l20.901,67.404h-16.401l-5.2-17.301H323.423z M340.524,130.323
			l-4.2-14.301c-1.2-4-2.4-9-3.4-13.001h-0.2c-1,4-2,9.101-3.1,13.001l-4,14.301H340.524z"/>
		<path d="M372.822,125.722c0-6.1-0.2-11.3-0.4-15.601h13.201l0.7,6.7h0.3c2-3.1,7-7.8,15.101-7.8
			c10.001,0,17.501,6.6,17.501,21.001v29.002h-15.201v-27.102c0-6.3-2.2-10.601-7.701-10.601c-4.2,0-6.7,2.9-7.7,5.7
			c-0.4,0.9-0.6,2.4-0.6,3.8v28.202h-15.201V125.722z"/>
		<path d="M431.421,125.722c0-6.1-0.2-11.3-0.4-15.601h13.201l0.7,6.7h0.3c2-3.1,7-7.8,15.101-7.8
			c10.001,0,17.501,6.6,17.501,21.001v29.002h-15.2v-27.102c0-6.3-2.2-10.601-7.701-10.601c-4.2,0-6.7,2.9-7.7,5.7
			c-0.4,0.9-0.6,2.4-0.6,3.8v28.202h-15.201V125.722z"/>
		<path d="M538.324,134.023c0,17.901-12.701,26.102-25.802,26.102c-14.301,0-25.302-9.4-25.302-25.202
			c0-15.801,10.401-25.901,26.102-25.901C528.322,109.021,538.324,119.322,538.324,134.023z M502.921,134.523
			c0,8.4,3.5,14.701,10.001,14.701c5.9,0,9.701-5.9,9.701-14.701c0-7.3-2.801-14.701-9.701-14.701
			C505.622,119.822,502.921,127.322,502.921,134.523z"/>
		<path d="M564.721,96.121v14.001h10.9v11.201h-10.9v17.701c0,5.9,1.4,8.6,6,8.6c1.9,0,3.4-0.2,4.5-0.4l0.102,11.501
			c-2,0.8-5.602,1.3-9.9,1.3c-4.9,0-9.002-1.7-11.402-4.2c-2.799-2.9-4.199-7.601-4.199-14.501v-20.001h-6.5v-11.201h6.5V99.521
			L564.721,96.121z"/>
		<path d="M612.221,159.024l-0.9-4.9h-0.299c-3.201,3.9-8.201,6-14.002,6c-9.9,0-15.801-7.201-15.801-15.001
			c0-12.701,11.4-18.801,28.701-18.701v-0.7c0-2.6-1.398-6.3-8.9-6.3c-5,0-10.301,1.7-13.5,3.7l-2.801-9.8
			c3.4-1.9,10.102-4.3,19.002-4.3c16.301,0,21.502,9.601,21.502,21.101v17.001c0,4.701,0.199,9.201,0.699,11.901H612.221z
			 M610.42,135.923c-8-0.1-14.199,1.8-14.199,7.701c0,3.9,2.6,5.8,6,5.8c3.801,0,6.9-2.5,7.9-5.601c0.199-0.8,0.299-1.7,0.299-2.6
			V135.923z"/>
		<path d="M654.221,96.121v14.001h10.9v11.201h-10.9v17.701c0,5.9,1.4,8.6,6,8.6c1.9,0,3.4-0.2,4.5-0.4l0.1,11.501
			c-2,0.8-5.6,1.3-9.9,1.3c-4.9,0-9-1.7-11.4-4.2c-2.801-2.9-4.201-7.601-4.201-14.501v-20.001h-6.5v-11.201h6.5V99.521
			L654.221,96.121z"/>
		<path d="M689.619,96.521c0,4.2-3.199,7.601-8.201,7.601c-4.799,0-8-3.4-7.9-7.601c-0.1-4.4,3.102-7.7,8.002-7.7
			S689.52,92.12,689.619,96.521z M673.918,159.024v-48.903h15.201v48.903H673.918z"/>
		<path d="M749.619,134.023c0,17.901-12.701,26.102-25.801,26.102c-14.301,0-25.303-9.4-25.303-25.202
			c0-15.801,10.402-25.901,26.102-25.901C739.619,109.021,749.619,119.322,749.619,134.023z M714.217,134.523
			c0,8.4,3.5,14.701,10.002,14.701c5.9,0,9.699-5.9,9.699-14.701c0-7.3-2.799-14.701-9.699-14.701
			C716.918,119.822,714.217,127.322,714.217,134.523z"/>
		<path d="M759.016,125.722c0-6.1-0.199-11.3-0.4-15.601h13.201l0.701,6.7h0.299c2-3.1,7-7.8,15.102-7.8c10,0,17.5,6.6,17.5,21.001
			v29.002h-15.199v-27.102c0-6.3-2.201-10.601-7.701-10.601c-4.201,0-6.701,2.9-7.701,5.7c-0.4,0.9-0.6,2.4-0.6,3.8v28.202h-15.201
			V125.722z"/>
		<path d="M817.516,145.724c2.801,1.7,8.6,3.7,13.102,3.7c4.6,0,6.5-1.6,6.5-4.1c0-2.5-1.5-3.7-7.201-5.601
			c-10.1-3.4-14-8.9-13.9-14.701c0-9.101,7.801-16.001,19.9-16.001c5.701,0,10.801,1.3,13.801,2.8l-2.699,10.501
			c-2.201-1.2-6.4-2.8-10.602-2.8c-3.699,0-5.799,1.5-5.799,4c0,2.3,1.898,3.5,7.9,5.6c9.299,3.2,13.199,7.9,13.301,15.101
			c0,9.101-7.201,15.801-21.201,15.801c-6.4,0-12.102-1.4-15.803-3.4L817.516,145.724z"/>
	</g>
</g>
<g id="jfx:p03">
	<g>
		<path d="M185.082,295.159l-3.84,13.84h-12.641l16.48-53.921h16l16.72,53.921h-13.12l-4.16-13.84H185.082z M198.762,286.039
			l-3.36-11.44c-0.96-3.2-1.92-7.2-2.72-10.4h-0.16c-0.8,3.2-1.6,7.28-2.48,10.4l-3.2,11.44H198.762z"/>
		<path d="M224.601,282.358c0-4.88-0.16-9.04-0.32-12.48h10.56l0.56,5.36h0.24c1.6-2.48,5.6-6.24,12.08-6.24c8,0,14,5.28,14,16.8
			v23.201h-12.16v-21.681c0-5.04-1.76-8.48-6.16-8.48c-3.36,0-5.36,2.32-6.16,4.56c-0.32,0.72-0.48,1.92-0.48,3.04v22.561h-12.161
			V282.358z"/>
		<path d="M271.481,282.358c0-4.88-0.16-9.04-0.32-12.48h10.56l0.56,5.36h0.24c1.6-2.48,5.6-6.24,12.08-6.24c8,0,14,5.28,14,16.8
			v23.201h-12.16v-21.681c0-5.04-1.76-8.48-6.16-8.48c-3.36,0-5.36,2.32-6.16,4.56c-0.32,0.72-0.48,1.92-0.48,3.04v22.561h-12.161
			V282.358z"/>
		<path d="M357.002,288.999c0,14.32-10.16,20.88-20.641,20.88c-11.44,0-20.24-7.52-20.24-20.16c0-12.641,8.32-20.721,20.88-20.721
			C349.002,268.998,357.002,277.238,357.002,288.999z M328.681,289.398c0,6.72,2.8,11.76,8,11.76c4.72,0,7.76-4.72,7.76-11.76
			c0-5.84-2.24-11.76-7.76-11.76C330.841,277.638,328.681,283.639,328.681,289.398z"/>
		<path d="M378.121,258.678v11.2h8.72v8.96h-8.72v14.16c0,4.72,1.12,6.88,4.8,6.88c1.52,0,2.72-0.16,3.6-0.32l0.08,9.2
			c-1.6,0.64-4.48,1.04-7.92,1.04c-3.92,0-7.2-1.36-9.12-3.36c-2.24-2.32-3.36-6.08-3.36-11.6v-16H361v-8.96h5.2v-8.48
			L378.121,258.678z"/>
		<path d="M416.12,308.999l-0.72-3.92h-0.24c-2.56,3.12-6.56,4.8-11.2,4.8c-7.92,0-12.641-5.76-12.641-12
			c0-10.16,9.121-15.041,22.961-14.96v-0.56c0-2.08-1.12-5.04-7.12-5.04c-4,0-8.24,1.36-10.8,2.96l-2.24-7.84
			c2.72-1.52,8.08-3.44,15.2-3.44c13.041,0,17.201,7.68,17.201,16.88v13.601c0,3.76,0.16,7.36,0.56,9.52H416.12z M414.68,290.519
			c-6.4-0.08-11.36,1.44-11.36,6.16c0,3.12,2.08,4.64,4.8,4.64c3.04,0,5.52-2,6.32-4.48c0.16-0.64,0.24-1.36,0.24-2.08V290.519z"/>
		<path d="M449.72,258.678v11.2h8.72v8.96h-8.72v14.16c0,4.72,1.12,6.88,4.8,6.88c1.52,0,2.72-0.16,3.6-0.32l0.08,9.2
			c-1.6,0.64-4.48,1.04-7.92,1.04c-3.92,0-7.2-1.36-9.12-3.36c-2.24-2.32-3.36-6.08-3.36-11.6v-16h-5.2v-8.96h5.2v-8.48
			L449.72,258.678z"/>
		<path d="M478.04,258.998c0,3.36-2.56,6.08-6.56,6.08c-3.84,0-6.4-2.72-6.32-6.08c-0.08-3.52,2.48-6.16,6.4-6.16
			C475.479,252.838,477.959,255.478,478.04,258.998z M465.479,308.999v-39.121h12.161v39.121H465.479z"/>
		<path d="M526.039,288.999c0,14.32-10.16,20.88-20.641,20.88c-11.44,0-20.24-7.52-20.24-20.16c0-12.641,8.32-20.721,20.88-20.721
			C518.039,268.998,526.039,277.238,526.039,288.999z M497.718,289.398c0,6.72,2.8,11.76,8,11.76c4.72,0,7.76-4.72,7.76-11.76
			c0-5.84-2.24-11.76-7.76-11.76C499.878,277.638,497.718,283.639,497.718,289.398z"/>
		<path d="M533.558,282.358c0-4.88-0.159-9.04-0.319-12.48h10.56l0.56,5.36h0.24c1.601-2.48,5.6-6.24,12.08-6.24
			c8,0,14,5.28,14,16.8v23.201h-12.16v-21.681c0-5.04-1.76-8.48-6.16-8.48c-3.359,0-5.359,2.32-6.159,4.56
			c-0.32,0.72-0.479,1.92-0.479,3.04v22.561h-12.161V282.358z"/>
		<path d="M597.959,308.999v-30.161h-5.121v-8.96h5.121v-1.52c0-4.72,1.439-9.92,4.959-13.12c3.041-2.88,7.281-3.92,10.801-3.92
			c2.721,0,4.801,0.32,6.48,0.8l-0.48,9.36c-1.039-0.32-2.32-0.56-3.92-0.56c-4,0-5.68,3.12-5.68,6.96v2h7.84v8.96h-7.76v30.161
			H597.959z"/>
		<path d="M662.52,288.999c0,14.32-10.162,20.88-20.641,20.88c-11.441,0-20.242-7.52-20.242-20.16
			c0-12.641,8.32-20.721,20.881-20.721C654.518,268.998,662.52,277.238,662.52,288.999z M634.197,289.398
			c0,6.72,2.801,11.76,8,11.76c4.721,0,7.762-4.72,7.762-11.76c0-5.84-2.24-11.76-7.762-11.76
			C636.357,277.638,634.197,283.639,634.197,289.398z"/>
		<path d="M670.037,282.758c0-5.76-0.16-9.52-0.318-12.88h10.479l0.4,7.2h0.32c2-5.68,6.801-8.08,10.561-8.08
			c1.119,0,1.68,0,2.561,0.16v11.44c-0.881-0.16-1.92-0.32-3.281-0.32c-4.48,0-7.52,2.4-8.32,6.16c-0.16,0.8-0.24,1.76-0.24,2.72
			v19.84h-12.16V282.758z"/>
		<path d="M727.396,265.318h-14.48v-10.24h41.441v10.24h-14.721v43.681h-12.24V265.318z"/>
		<path d="M769.555,269.878l5.842,19.201c0.639,2.32,1.439,5.2,1.92,7.28h0.24c0.559-2.08,1.199-5.04,1.76-7.28l4.799-19.201h13.041
			l-9.121,25.761c-5.6,15.521-9.359,21.761-13.76,25.681c-4.24,3.68-8.721,4.96-11.76,5.36l-2.561-10.32
			c1.52-0.24,3.439-0.96,5.281-2.08c1.84-0.96,3.84-2.88,5.039-4.88c0.4-0.56,0.641-1.2,0.641-1.76c0-0.4-0.08-1.04-0.561-2
			l-14.32-35.761H769.555z"/>
		<path d="M802.275,282.999c0-5.12-0.16-9.521-0.32-13.121h10.561l0.561,5.44h0.16c2.879-4.16,7.359-6.32,13.039-6.32
			c8.561,0,16.24,7.44,16.24,19.92c0,14.24-9.039,20.96-17.76,20.96c-4.721,0-8.4-1.92-10.16-4.48h-0.16v19.44h-12.16V282.999z
			 M814.436,292.199c0,0.96,0.08,1.84,0.24,2.56c0.799,3.28,3.6,5.76,7.119,5.76c5.281,0,8.4-4.4,8.4-11.041
			c0-6.24-2.799-10.96-8.24-10.96c-3.439,0-6.48,2.56-7.279,6.16c-0.16,0.64-0.24,1.44-0.24,2.16V292.199z"/>
		<path d="M859.475,293.319c0.4,5.04,5.359,7.44,11.039,7.44c4.16,0,7.521-0.56,10.801-1.6l1.6,8.24c-4,1.6-8.879,2.4-14.16,2.4
			c-13.279,0-20.881-7.68-20.881-19.92c0-9.92,6.16-20.88,19.762-20.88c12.641,0,17.439,9.84,17.439,19.521
			c0,2.08-0.24,3.92-0.4,4.8H859.475z M873.795,284.999c0-2.96-1.281-7.92-6.881-7.92c-5.119,0-7.199,4.64-7.52,7.92H873.795z"/>
	</g>
</g>
<g id="jfx:p04">
	<g>
		<path style="fill:#F15A24;" d="M68.354,393.283c-2.88,1.297-5.376,1.729-8.785,1.729c-7.968,0-14.977-5.713-14.977-15.121
			c0-9.793,7.104-18.29,17.954-18.29c8.449,0,14.497,5.809,14.497,13.873c0,7.009-3.936,11.425-9.121,11.425
			c-2.256,0-3.889-1.152-4.128-3.696h-0.096c-1.488,2.448-3.648,3.696-6.192,3.696c-3.12,0-5.376-2.304-5.376-6.241
			c0-5.856,4.32-11.185,11.233-11.185c2.112,0,4.513,0.528,5.712,1.2l-1.44,8.881c-0.48,2.832-0.144,4.128,1.2,4.176
			c2.064,0.048,4.656-2.592,4.656-8.113c0-6.24-4.032-11.089-11.473-11.089c-7.344,0-13.777,5.761-13.777,14.929
			c0,8.016,5.136,12.577,12.289,12.577c2.448,0,5.04-0.527,6.96-1.535L68.354,393.283z M64.082,373.458
			c-0.384-0.096-0.864-0.192-1.488-0.192c-3.168,0-5.665,3.12-5.665,6.816c0,1.824,0.816,2.977,2.4,2.977
			c1.776,0,3.648-2.256,4.08-5.041L64.082,373.458z"/>
		<path style="fill:#F15A24;" d="M89.568,357.665v18.626c0,5.568,2.112,8.4,5.856,8.4c3.84,0,5.953-2.688,5.953-8.4v-18.626h7.297
			v18.146c0,9.984-5.041,14.736-13.489,14.736c-8.161,0-12.961-4.512-12.961-14.833v-18.05H89.568z"/>
		<path style="fill:#F15A24;" d="M114.767,374.034c0-2.928-0.096-5.424-0.192-7.489h6.336l0.336,3.216h0.144
			c0.96-1.488,3.36-3.744,7.249-3.744c4.801,0,8.401,3.168,8.401,10.081v13.921h-7.296V377.01c0-3.024-1.056-5.088-3.697-5.088
			c-2.016,0-3.216,1.392-3.696,2.736c-0.192,0.432-0.288,1.152-0.288,1.824v13.537h-7.297V374.034z"/>
		<path style="fill:#F15A24;" d="M151.056,359.825v6.721h5.232v5.376h-5.232v8.497c0,2.832,0.672,4.128,2.88,4.128
			c0.912,0,1.632-0.096,2.16-0.192l0.048,5.52c-0.96,0.385-2.688,0.625-4.752,0.625c-2.352,0-4.32-0.816-5.472-2.017
			c-1.344-1.392-2.016-3.648-2.016-6.96v-9.601h-3.121v-5.376h3.121v-5.088L151.056,359.825z"/>
		<path style="fill:#F15A24;" d="M173.855,390.02l-0.432-2.352h-0.144c-1.536,1.871-3.936,2.879-6.721,2.879
			c-4.752,0-7.584-3.455-7.584-7.2c0-6.097,5.473-9.025,13.777-8.977v-0.336c0-1.248-0.672-3.024-4.272-3.024
			c-2.4,0-4.944,0.816-6.48,1.776l-1.344-4.705c1.632-0.912,4.849-2.064,9.121-2.064c7.825,0,10.321,4.608,10.321,10.129v8.161
			c0,2.256,0.096,4.417,0.336,5.712H173.855z M172.991,378.931c-3.84-0.048-6.816,0.864-6.816,3.696c0,1.872,1.248,2.784,2.88,2.784
			c1.824,0,3.312-1.2,3.792-2.688c0.096-0.384,0.144-0.816,0.144-1.248V378.931z"/>
		<path style="fill:#F15A24;" d="M193.391,360.017c0,2.016-1.536,3.648-3.937,3.648c-2.304,0-3.84-1.632-3.792-3.648
			c-0.048-2.112,1.488-3.696,3.84-3.696S193.343,357.905,193.391,360.017z M185.854,390.02v-23.474h7.297v23.474H185.854z"/>
		<path style="fill:#F15A24;" d="M199.005,374.034c0-2.928-0.096-5.424-0.192-7.489h6.336l0.336,3.216h0.144
			c0.96-1.488,3.36-3.744,7.249-3.744c4.801,0,8.401,3.168,8.401,10.081v13.921h-7.296V377.01c0-3.024-1.056-5.088-3.697-5.088
			c-2.016,0-3.216,1.392-3.696,2.736c-0.192,0.432-0.288,1.152-0.288,1.824v13.537h-7.297V374.034z"/>
		<path style="fill:#F15A24;" d="M235.294,359.825v6.721h5.232v5.376h-5.232v8.497c0,2.832,0.672,4.128,2.88,4.128
			c0.912,0,1.632-0.096,2.16-0.192l0.048,5.52c-0.96,0.385-2.688,0.625-4.752,0.625c-2.352,0-4.32-0.816-5.472-2.017
			c-1.344-1.392-2.016-3.648-2.016-6.96v-9.601h-3.121v-5.376h3.121v-5.088L235.294,359.825z"/>
		<path style="fill:#F15A24;" d="M250.365,380.611c0.24,3.024,3.216,4.464,6.625,4.464c2.496,0,4.512-0.336,6.48-0.96l0.96,4.944
			c-2.4,0.96-5.329,1.44-8.497,1.44c-7.969,0-12.529-4.609-12.529-11.954c0-5.952,3.696-12.529,11.857-12.529
			c7.584,0,10.465,5.904,10.465,11.713c0,1.248-0.144,2.352-0.24,2.88H250.365z M258.958,375.618c0-1.776-0.768-4.752-4.128-4.752
			c-3.072,0-4.32,2.784-4.513,4.752H258.958z"/>
		<path style="fill:#F15A24;" d="M292.846,355.937v27.074c0,2.641,0.096,5.425,0.192,7.009h-6.48l-0.336-3.456h-0.096
			c-1.488,2.64-4.32,3.983-7.344,3.983c-5.569,0-10.033-4.752-10.033-12.048c-0.048-7.921,4.896-12.481,10.513-12.481
			c2.88,0,5.136,1.008,6.192,2.64h0.096v-12.721H292.846z M285.55,376.482c0-0.384-0.048-0.912-0.096-1.296
			c-0.432-1.968-2.016-3.6-4.272-3.6c-3.312,0-5.041,2.976-5.041,6.672c0,3.984,1.968,6.481,4.993,6.481
			c2.112,0,3.792-1.44,4.224-3.504c0.144-0.528,0.192-1.056,0.192-1.68V376.482z"/>
		<path d="M308.875,382.483c1.968,1.008,4.993,2.016,8.113,2.016c3.36,0,5.136-1.392,5.136-3.504c0-2.016-1.536-3.168-5.424-4.56
			c-5.376-1.873-8.881-4.849-8.881-9.553c0-5.521,4.608-9.745,12.241-9.745c3.648,0,6.336,0.768,8.257,1.632l-1.632,5.904
			c-1.296-0.624-3.6-1.536-6.769-1.536s-4.705,1.44-4.705,3.12c0,2.064,1.824,2.977,6.001,4.561c5.712,2.112,8.4,5.088,8.4,9.649
			c0,5.424-4.176,10.033-13.057,10.033c-3.696,0-7.345-0.961-9.168-1.969L308.875,382.483z"/>
		<path d="M342.476,359.825v6.721h5.232v5.376h-5.232v8.497c0,2.832,0.672,4.128,2.88,4.128c0.912,0,1.632-0.096,2.16-0.192
			l0.048,5.52c-0.96,0.385-2.688,0.625-4.752,0.625c-2.352,0-4.32-0.816-5.472-2.017c-1.344-1.392-2.016-3.648-2.016-6.96v-9.601
			h-3.121v-5.376h3.121v-5.088L342.476,359.825z"/>
		<path d="M351.93,374.274c0-3.457-0.096-5.713-0.192-7.729h6.289l0.24,4.32h0.192c1.2-3.408,4.08-4.848,6.336-4.848
			c0.672,0,1.008,0,1.536,0.096v6.865c-0.528-0.096-1.152-0.192-1.968-0.192c-2.688,0-4.512,1.44-4.992,3.696
			c-0.096,0.48-0.144,1.056-0.144,1.632v11.905h-7.297V374.274z"/>
		<path d="M377.706,360.017c0,2.016-1.536,3.648-3.937,3.648c-2.304,0-3.84-1.632-3.792-3.648c-0.048-2.112,1.488-3.696,3.84-3.696
			S377.658,357.905,377.706,360.017z M370.169,390.02v-23.474h7.297v23.474H370.169z"/>
		<path d="M383.321,374.034c0-2.928-0.096-5.424-0.192-7.489h6.336l0.336,3.216h0.144c0.96-1.488,3.36-3.744,7.249-3.744
			c4.801,0,8.401,3.168,8.401,10.081v13.921h-7.296V377.01c0-3.024-1.056-5.088-3.697-5.088c-2.016,0-3.216,1.392-3.696,2.736
			c-0.192,0.432-0.288,1.152-0.288,1.824v13.537h-7.297V374.034z"/>
		<path d="M433.866,366.545c-0.096,1.488-0.191,3.457-0.191,6.96v13.105c0,4.512-0.912,8.209-3.553,10.561
			c-2.592,2.209-6.096,2.881-9.553,2.881c-3.072,0-6.336-0.625-8.449-1.824l1.44-5.521c1.488,0.864,4.08,1.776,6.816,1.776
			c3.457,0,6.096-1.873,6.096-6.193v-1.535h-0.096c-1.392,1.968-3.648,3.072-6.336,3.072c-5.809,0-9.937-4.705-9.937-11.474
			c0-7.537,4.896-12.337,10.657-12.337c3.216,0,5.232,1.392,6.433,3.312h0.096l0.24-2.784H433.866z M426.378,376.098
			c0-0.48-0.048-0.96-0.144-1.344c-0.528-1.92-1.921-3.216-3.937-3.216c-2.641,0-4.801,2.4-4.801,6.672
			c0,3.504,1.729,6.241,4.801,6.241c1.872,0,3.36-1.248,3.84-2.977c0.192-0.528,0.24-1.296,0.24-1.92V376.098z"/>
		<path d="M464.682,387.092h-0.096c-1.488,2.207-3.841,3.455-6.961,3.455c-5.089,0-9.745-4.464-9.745-11.952
			c0-8.401,5.377-12.577,10.369-12.577c3.024,0,5.232,1.104,6.528,3.264h0.096l0.192-2.736h7.057
			c-0.048,2.256-0.144,4.608-0.144,7.057v25.922h-7.297V387.092z M464.682,376.386c0-0.384-0.048-0.816-0.145-1.2
			c-0.384-1.872-1.968-3.504-4.176-3.504c-3.36,0-5.041,2.832-5.041,6.625c0,3.936,1.872,6.48,4.944,6.48
			c2.064,0,3.745-1.392,4.225-3.313c0.145-0.48,0.192-1.104,0.192-1.584V376.386z"/>
		<path d="M499.914,382.483c0,3.072,0.096,5.568,0.191,7.537h-6.336l-0.337-3.313h-0.144c-0.912,1.44-3.12,3.84-7.345,3.84
			c-4.752,0-8.257-2.976-8.257-10.224v-13.777h7.345v12.625c0,3.409,1.104,5.473,3.648,5.473c2.017,0,3.168-1.392,3.648-2.544
			c0.191-0.432,0.24-1.008,0.24-1.584v-13.969h7.345V382.483z"/>
		<path d="M511.384,380.611c0.24,3.024,3.216,4.464,6.624,4.464c2.497,0,4.513-0.336,6.48-0.96l0.961,4.944
			c-2.4,0.96-5.329,1.44-8.497,1.44c-7.969,0-12.529-4.609-12.529-11.954c0-5.952,3.696-12.529,11.857-12.529
			c7.584,0,10.465,5.904,10.465,11.713c0,1.248-0.145,2.352-0.24,2.88H511.384z M519.977,375.618c0-1.776-0.769-4.752-4.129-4.752
			c-3.072,0-4.32,2.784-4.512,4.752H519.977z"/>
		<path d="M531.111,374.274c0-3.457-0.097-5.713-0.192-7.729h6.288l0.24,4.32h0.192c1.2-3.408,4.08-4.848,6.336-4.848
			c0.673,0,1.009,0,1.536,0.096v6.865c-0.527-0.096-1.151-0.192-1.968-0.192c-2.688,0-4.513,1.44-4.992,3.696
			c-0.097,0.48-0.145,1.056-0.145,1.632v11.905h-7.296V374.274z"/>
		<path d="M554.822,366.545l3.505,11.521c0.384,1.392,0.864,3.12,1.152,4.369h0.144c0.336-1.249,0.72-3.024,1.056-4.369
			l2.881-11.521h7.824l-5.473,15.458c-3.359,9.313-5.616,13.058-8.256,15.409c-2.545,2.208-5.232,2.977-7.057,3.217l-1.536-6.193
			c0.912-0.144,2.063-0.576,3.168-1.248c1.104-0.576,2.304-1.729,3.024-2.928c0.24-0.336,0.384-0.721,0.384-1.057
			c0-0.24-0.048-0.623-0.336-1.199l-8.593-21.458H554.822z"/>
		<path d="M571.621,395.732c1.488-4.273,2.784-9.266,3.505-13.634l7.345-0.48c-1.585,4.897-3.745,9.937-6.049,13.681
			L571.621,395.732z M574.214,370.674c0-2.592,1.728-4.417,4.272-4.417c2.544,0,4.224,1.776,4.272,4.417
			c0,2.496-1.681,4.368-4.272,4.368C575.941,375.042,574.166,373.17,574.214,370.674z"/>
		<path d="M45.312,417.664h7.344v26.211h12.865v6.145H45.312V417.664z"/>
		<path d="M77.136,420.018c0,2.016-1.536,3.647-3.937,3.647c-2.304,0-3.84-1.632-3.792-3.647c-0.048-2.113,1.488-3.697,3.84-3.697
			S77.088,417.904,77.136,420.018z M69.599,450.02v-23.475h7.297v23.475H69.599z"/>
		<path d="M82.703,443.635c1.344,0.816,4.128,1.776,6.289,1.776c2.208,0,3.12-0.769,3.12-1.968c0-1.201-0.72-1.776-3.456-2.688
			c-4.849-1.632-6.721-4.272-6.673-7.057c0-4.368,3.744-7.681,9.553-7.681c2.736,0,5.185,0.624,6.625,1.344l-1.296,5.041
			c-1.056-0.576-3.072-1.344-5.088-1.344c-1.776,0-2.784,0.719-2.784,1.92c0,1.104,0.912,1.68,3.792,2.688
			c4.464,1.537,6.337,3.793,6.385,7.249c0,4.368-3.457,7.585-10.177,7.585c-3.072,0-5.809-0.672-7.585-1.633L82.703,443.635z"/>
		<path d="M111.743,419.824v6.721h5.232v5.377h-5.232v8.497c0,2.832,0.672,4.128,2.88,4.128c0.912,0,1.632-0.096,2.16-0.191
			l0.048,5.52c-0.96,0.385-2.688,0.625-4.752,0.625c-2.352,0-4.32-0.816-5.472-2.017c-1.344-1.392-2.016-3.648-2.016-6.96v-9.602
			h-3.121v-5.377h3.121v-5.088L111.743,419.824z"/>
		<path d="M121.054,435.186l23.042-10.704v5.089l-17.425,7.633v0.096l17.425,7.633v5.088l-23.042-10.705V435.186z"/>
		<path style="fill:#F15A24;" d="M173.087,453.283c-2.88,1.297-5.376,1.729-8.785,1.729c-7.968,0-14.977-5.713-14.977-15.121
			c0-9.793,7.104-18.289,17.954-18.289c8.449,0,14.497,5.809,14.497,13.873c0,7.008-3.936,11.425-9.121,11.425
			c-2.256,0-3.889-1.152-4.128-3.696h-0.096c-1.488,2.448-3.648,3.696-6.192,3.696c-3.12,0-5.376-2.304-5.376-6.241
			c0-5.855,4.32-11.185,11.233-11.185c2.112,0,4.513,0.528,5.712,1.2l-1.44,8.881c-0.48,2.832-0.144,4.129,1.2,4.176
			c2.064,0.049,4.656-2.592,4.656-8.112c0-6.24-4.032-11.089-11.473-11.089c-7.344,0-13.777,5.761-13.777,14.93
			c0,8.016,5.136,12.576,12.289,12.576c2.448,0,5.04-0.527,6.96-1.535L173.087,453.283z M168.815,433.458
			c-0.384-0.096-0.864-0.192-1.488-0.192c-3.168,0-5.665,3.121-5.665,6.816c0,1.824,0.816,2.977,2.4,2.977
			c1.776,0,3.648-2.256,4.08-5.04L168.815,433.458z"/>
		<path style="fill:#F15A24;" d="M187.005,450.02v-32.355h8.544l6.721,11.857c1.92,3.408,3.84,7.441,5.28,11.09h0.144
			c-0.48-4.273-0.624-8.642-0.624-13.49v-9.457h6.721v32.355h-7.681l-6.913-12.48c-1.92-3.457-4.032-7.633-5.617-11.426
			l-0.144,0.049c0.192,4.271,0.288,8.832,0.288,14.113v9.744H187.005z"/>
		<path style="fill:#F15A24;" d="M243.07,438.019c0,8.593-6.097,12.528-12.385,12.528c-6.864,0-12.145-4.512-12.145-12.096
			c0-7.586,4.993-12.434,12.529-12.434C238.27,426.018,243.07,430.962,243.07,438.019z M226.077,438.258
			c0,4.033,1.68,7.057,4.801,7.057c2.832,0,4.656-2.832,4.656-7.057c0-3.504-1.344-7.056-4.656-7.056
			C227.373,431.202,226.077,434.803,226.077,438.258z"/>
		<path style="fill:#F15A24;" d="M247.58,434.034c0-2.929-0.096-5.425-0.192-7.489h6.336l0.336,3.217h0.144
			c0.96-1.488,3.36-3.744,7.249-3.744c4.801,0,8.401,3.168,8.401,10.08v13.922h-7.296v-13.01c0-3.023-1.056-5.088-3.696-5.088
			c-2.017,0-3.216,1.393-3.697,2.736c-0.192,0.432-0.288,1.152-0.288,1.824v13.537h-7.297V434.034z"/>
		<path style="fill:#F15A24;" d="M275.948,450.02v-32.355h8.544l6.721,11.857c1.92,3.408,3.84,7.441,5.28,11.09h0.144
			c-0.48-4.273-0.624-8.642-0.624-13.49v-9.457h6.721v32.355h-7.681l-6.913-12.48c-1.92-3.457-4.032-7.633-5.617-11.426
			l-0.144,0.049c0.192,4.271,0.288,8.832,0.288,14.113v9.744H275.948z"/>
		<path style="fill:#F15A24;" d="M330.958,442.482c0,3.072,0.096,5.568,0.192,7.537h-6.336l-0.336-3.313h-0.144
			c-0.912,1.44-3.12,3.84-7.345,3.84c-4.752,0-8.257-2.976-8.257-10.225v-13.777h7.345v12.625c0,3.409,1.104,5.473,3.648,5.473
			c2.016,0,3.168-1.392,3.648-2.544c0.192-0.432,0.24-1.008,0.24-1.584v-13.97h7.345V442.482z"/>
		<path style="fill:#F15A24;" d="M336.811,415.937h7.297v34.083h-7.297V415.937z"/>
		<path style="fill:#F15A24;" d="M350.011,415.937h7.297v34.083h-7.297V415.937z"/>
		<path d="M373.386,442.482c1.968,1.009,4.993,2.017,8.113,2.017c3.36,0,5.136-1.392,5.136-3.505c0-2.016-1.536-3.168-5.424-4.56
			c-5.376-1.872-8.881-4.849-8.881-9.554c0-5.52,4.608-9.744,12.241-9.744c3.648,0,6.336,0.768,8.257,1.633l-1.632,5.904
			c-1.296-0.625-3.6-1.537-6.769-1.537s-4.705,1.44-4.705,3.121c0,2.064,1.824,2.977,6.001,4.561c5.712,2.111,8.4,5.088,8.4,9.648
			c0,5.424-4.176,10.033-13.057,10.033c-3.696,0-7.345-0.961-9.168-1.969L373.386,442.482z"/>
		<path d="M406.986,419.824v6.721h5.232v5.377h-5.232v8.497c0,2.832,0.672,4.128,2.88,4.128c0.912,0,1.632-0.096,2.16-0.191
			l0.048,5.52c-0.96,0.385-2.688,0.625-4.752,0.625c-2.352,0-4.32-0.816-5.472-2.017c-1.344-1.392-2.016-3.648-2.016-6.96v-9.602
			h-3.121v-5.377h3.121v-5.088L406.986,419.824z"/>
		<path d="M416.441,434.274c0-3.456-0.096-5.713-0.192-7.729h6.289l0.24,4.32h0.192c1.2-3.408,4.08-4.848,6.336-4.848
			c0.673,0,1.009,0,1.536,0.096v6.865c-0.527-0.097-1.151-0.192-1.968-0.192c-2.688,0-4.513,1.44-4.992,3.696
			c-0.096,0.48-0.144,1.057-0.144,1.632v11.905h-7.297V434.274z"/>
		<path d="M442.217,420.018c0,2.016-1.536,3.647-3.937,3.647c-2.304,0-3.84-1.632-3.792-3.647c-0.048-2.113,1.488-3.697,3.84-3.697
			C440.681,416.32,442.169,417.904,442.217,420.018z M434.681,450.02v-23.475h7.296v23.475H434.681z"/>
		<path d="M447.832,434.034c0-2.929-0.097-5.425-0.192-7.489h6.337l0.336,3.217h0.144c0.96-1.488,3.36-3.744,7.249-3.744
			c4.8,0,8.4,3.168,8.4,10.08v13.922h-7.297v-13.01c0-3.023-1.056-5.088-3.696-5.088c-2.016,0-3.216,1.393-3.696,2.736
			c-0.191,0.432-0.288,1.152-0.288,1.824v13.537h-7.296V434.034z"/>
		<path d="M498.378,426.545c-0.097,1.488-0.192,3.457-0.192,6.961v13.105c0,4.512-0.912,8.209-3.553,10.561
			c-2.592,2.209-6.097,2.881-9.553,2.881c-3.072,0-6.336-0.625-8.448-1.824l1.439-5.521c1.488,0.864,4.081,1.776,6.817,1.776
			c3.456,0,6.096-1.873,6.096-6.193v-1.535h-0.096c-1.392,1.968-3.648,3.072-6.337,3.072c-5.808,0-9.937-4.705-9.937-11.474
			c0-7.536,4.896-12.337,10.657-12.337c3.216,0,5.232,1.393,6.433,3.313h0.096l0.24-2.785H498.378z M490.889,436.098
			c0-0.479-0.048-0.959-0.144-1.344c-0.528-1.92-1.921-3.216-3.937-3.216c-2.641,0-4.801,2.399-4.801,6.673
			c0,3.504,1.729,6.24,4.801,6.24c1.872,0,3.36-1.248,3.84-2.977c0.192-0.527,0.24-1.296,0.24-1.92V436.098z"/>
		<path d="M526.937,439.459l-23.042,10.561v-5.088l17.81-7.633v-0.096l-17.81-7.633v-5.089l23.042,10.561V439.459z"/>
		<path d="M542.293,443.635c1.345,0.816,4.129,1.776,6.289,1.776c2.208,0,3.12-0.769,3.12-1.968c0-1.201-0.72-1.776-3.456-2.688
			c-4.849-1.632-6.721-4.272-6.673-7.057c0-4.368,3.744-7.681,9.553-7.681c2.736,0,5.185,0.624,6.625,1.344l-1.297,5.041
			c-1.056-0.576-3.072-1.344-5.088-1.344c-1.776,0-2.784,0.719-2.784,1.92c0,1.104,0.912,1.68,3.792,2.688
			c4.465,1.537,6.337,3.793,6.385,7.249c0,4.368-3.456,7.585-10.177,7.585c-3.072,0-5.809-0.672-7.585-1.633L542.293,443.635z"/>
		<path d="M571.334,419.824v6.721h5.232v5.377h-5.232v8.497c0,2.832,0.672,4.128,2.88,4.128c0.912,0,1.633-0.096,2.16-0.191
			l0.049,5.52c-0.96,0.385-2.688,0.625-4.753,0.625c-2.352,0-4.32-0.816-5.473-2.017c-1.344-1.392-2.016-3.648-2.016-6.96v-9.602
			h-3.12v-5.377h3.12v-5.088L571.334,419.824z"/>
		<path d="M580.789,434.274c0-3.456-0.097-5.713-0.192-7.729h6.288l0.24,4.32h0.192c1.2-3.408,4.08-4.848,6.336-4.848
			c0.673,0,1.009,0,1.536,0.096v6.865c-0.527-0.097-1.151-0.192-1.968-0.192c-2.688,0-4.513,1.44-4.992,3.696
			c-0.097,0.48-0.145,1.057-0.145,1.632v11.905h-7.296V434.274z"/>
		<path d="M606.564,420.018c0,2.016-1.536,3.647-3.937,3.647c-2.304,0-3.84-1.632-3.792-3.647c-0.048-2.113,1.488-3.697,3.84-3.697
			C605.028,416.32,606.517,417.904,606.564,420.018z M599.028,450.02v-23.475h7.296v23.475H599.028z"/>
		<path d="M612.18,434.034c0-2.929-0.097-5.425-0.192-7.489h6.337l0.336,3.217h0.144c0.96-1.488,3.36-3.744,7.249-3.744
			c4.8,0,8.4,3.168,8.4,10.08v13.922h-7.297v-13.01c0-3.023-1.056-5.088-3.696-5.088c-2.016,0-3.216,1.393-3.696,2.736
			c-0.191,0.432-0.288,1.152-0.288,1.824v13.537h-7.296V434.034z"/>
		<path d="M662.726,426.545c-0.097,1.488-0.192,3.457-0.192,6.961v13.105c0,4.512-0.912,8.209-3.553,10.561
			c-2.592,2.209-6.097,2.881-9.553,2.881c-3.072,0-6.336-0.625-8.448-1.824l1.439-5.521c1.488,0.864,4.081,1.776,6.817,1.776
			c3.456,0,6.096-1.873,6.096-6.193v-1.535h-0.096c-1.392,1.968-3.648,3.072-6.337,3.072c-5.808,0-9.937-4.705-9.937-11.474
			c0-7.536,4.896-12.337,10.657-12.337c3.216,0,5.232,1.393,6.433,3.313h0.096l0.24-2.785H662.726z M655.236,436.098
			c0-0.479-0.048-0.959-0.144-1.344c-0.528-1.92-1.921-3.216-3.937-3.216c-2.641,0-4.801,2.399-4.801,6.673
			c0,3.504,1.729,6.24,4.801,6.24c1.872,0,3.36-1.248,3.84-2.977c0.192-0.527,0.24-1.296,0.24-1.92V436.098z"/>
		<path d="M668.338,443.635c1.345,0.816,4.129,1.776,6.289,1.776c2.208,0,3.12-0.769,3.12-1.968c0-1.201-0.72-1.776-3.456-2.688
			c-4.849-1.632-6.721-4.272-6.673-7.057c0-4.368,3.744-7.681,9.553-7.681c2.736,0,5.185,0.624,6.625,1.344l-1.297,5.041
			c-1.056-0.576-3.072-1.344-5.088-1.344c-1.776,0-2.784,0.719-2.784,1.92c0,1.104,0.912,1.68,3.792,2.688
			c4.465,1.537,6.337,3.793,6.385,7.249c0,4.368-3.456,7.585-10.177,7.585c-3.072,0-5.809-0.672-7.585-1.633L668.338,443.635z"/>
		<path d="M686.386,455.732c1.488-4.273,2.784-9.266,3.505-13.634l7.345-0.479c-1.585,4.896-3.745,9.937-6.049,13.681
			L686.386,455.732z M688.979,430.674c0-2.592,1.728-4.416,4.272-4.416c2.544,0,4.224,1.775,4.272,4.416
			c0,2.496-1.681,4.368-4.272,4.368C690.706,435.042,688.931,433.17,688.979,430.674z"/>
		<path d="M45.072,494.034c0-2.929-0.096-5.425-0.192-7.489h6.145l0.336,3.169h0.144c1.008-1.488,3.072-3.696,7.104-3.696
			c3.024,0,5.424,1.536,6.433,3.984h0.096c0.864-1.2,1.92-2.16,3.024-2.832c1.296-0.769,2.736-1.152,4.464-1.152
			c4.513,0,7.921,3.168,7.921,10.177v13.825h-7.104v-12.77c0-3.408-1.104-5.376-3.457-5.376c-1.68,0-2.88,1.151-3.36,2.544
			c-0.192,0.528-0.288,1.297-0.288,1.873v13.729h-7.105v-13.153c0-2.976-1.056-4.992-3.36-4.992c-1.872,0-2.976,1.44-3.408,2.64
			c-0.24,0.576-0.288,1.248-0.288,1.824v13.682h-7.104V494.034z"/>
		<path d="M91.824,486.545l3.504,11.521c0.384,1.393,0.864,3.12,1.152,4.369h0.144c0.336-1.249,0.72-3.025,1.056-4.369l2.88-11.521
			h7.824l-5.472,15.458c-3.36,9.313-5.617,13.058-8.257,15.409c-2.544,2.208-5.232,2.977-7.057,3.217l-1.536-6.193
			c0.912-0.144,2.064-0.576,3.168-1.248c1.104-0.576,2.304-1.729,3.024-2.928c0.24-0.336,0.384-0.721,0.384-1.057
			c0-0.24-0.048-0.623-0.336-1.199l-8.593-21.459H91.824z"/>
		<path d="M138.721,508.531c-2.256,0.768-6.529,1.824-10.801,1.824c-5.904,0-10.177-1.488-13.153-4.368
			c-2.977-2.784-4.608-7.009-4.561-11.761c0.048-10.754,7.873-16.898,18.481-16.898c4.176,0,7.393,0.816,8.977,1.585l-1.536,5.856
			c-1.776-0.768-3.984-1.393-7.537-1.393c-6.097,0-10.705,3.457-10.705,10.465c0,6.673,4.176,10.609,10.177,10.609
			c1.68,0,3.024-0.192,3.601-0.48v-6.768h-4.993v-5.713h12.049V508.531z"/>
		<path d="M144.19,494.274c0-3.456-0.096-5.713-0.192-7.729h6.289l0.24,4.32h0.192c1.2-3.408,4.08-4.848,6.336-4.848
			c0.672,0,1.008,0,1.536,0.096v6.865c-0.528-0.097-1.152-0.192-1.968-0.192c-2.688,0-4.512,1.44-4.992,3.696
			c-0.096,0.48-0.144,1.057-0.144,1.632v11.905h-7.297V494.274z"/>
		<path d="M175.774,510.02l-0.432-2.352h-0.144c-1.536,1.871-3.936,2.879-6.721,2.879c-4.752,0-7.584-3.455-7.584-7.199
			c0-6.098,5.473-9.025,13.777-8.978v-0.336c0-1.248-0.672-3.024-4.272-3.024c-2.4,0-4.944,0.816-6.48,1.776l-1.344-4.704
			c1.632-0.912,4.849-2.064,9.121-2.064c7.825,0,10.321,4.608,10.321,10.129v8.16c0,2.257,0.096,4.417,0.336,5.713H175.774z
			 M174.91,498.931c-3.84-0.048-6.816,0.864-6.816,3.696c0,1.872,1.248,2.784,2.88,2.784c1.824,0,3.312-1.2,3.792-2.688
			c0.096-0.384,0.144-0.816,0.144-1.248V498.931z"/>
		<path d="M187.773,494.418c0-3.072-0.096-5.713-0.192-7.873h6.336l0.336,3.265h0.096c1.728-2.496,4.417-3.792,7.825-3.792
			c5.136,0,9.745,4.465,9.745,11.953c0,8.545-5.424,12.576-10.657,12.576c-2.833,0-5.041-1.151-6.097-2.688h-0.096v11.665h-7.297
			V494.418z M195.07,499.938c0,0.576,0.048,1.104,0.144,1.536c0.48,1.969,2.16,3.457,4.272,3.457c3.168,0,5.041-2.641,5.041-6.625
			c0-3.744-1.68-6.576-4.944-6.576c-2.064,0-3.888,1.535-4.368,3.695c-0.096,0.385-0.144,0.865-0.144,1.297V499.938z"/>
		<path d="M216.477,475.937h7.297v13.394h0.096c0.768-1.008,1.728-1.776,2.88-2.4c1.056-0.576,2.448-0.912,3.792-0.912
			c4.656,0,8.208,3.217,8.208,10.273v13.729h-7.296v-12.913c0-3.072-1.056-5.185-3.792-5.185c-1.92,0-3.12,1.248-3.648,2.545
			c-0.192,0.479-0.24,1.104-0.24,1.631v13.922h-7.297V475.937z"/>
		<path d="M253.292,494.418v-4.465h24.771v4.465H253.292z M253.292,504.355v-4.465h24.771v4.465H253.292z"/>
		<path d="M303.116,476.849c-2.736,4.417-4.848,10.849-4.848,19.442c0,8.448,2.16,14.832,4.848,19.297h-5.088
			c-2.592-3.696-5.472-10.08-5.472-19.346c0.048-9.313,2.88-15.649,5.472-19.394H303.116z"/>
		<path style="fill:#F15A24;" d="M330.958,513.283c-2.88,1.297-5.376,1.729-8.785,1.729c-7.968,0-14.977-5.713-14.977-15.121
			c0-9.793,7.104-18.289,17.954-18.289c8.449,0,14.497,5.809,14.497,13.873c0,7.008-3.936,11.425-9.121,11.425
			c-2.256,0-3.889-1.152-4.128-3.696h-0.096c-1.488,2.448-3.648,3.696-6.192,3.696c-3.12,0-5.376-2.304-5.376-6.241
			c0-5.855,4.32-11.185,11.233-11.185c2.112,0,4.513,0.528,5.712,1.2l-1.44,8.881c-0.48,2.832-0.144,4.129,1.2,4.176
			c2.064,0.049,4.656-2.592,4.656-8.112c0-6.24-4.032-11.089-11.473-11.089c-7.344,0-13.777,5.761-13.777,14.93
			c0,8.016,5.136,12.576,12.289,12.576c2.448,0,5.04-0.527,6.96-1.535L330.958,513.283z M326.685,493.458
			c-0.384-0.096-0.864-0.192-1.488-0.192c-3.168,0-5.665,3.121-5.665,6.816c0,1.824,0.816,2.977,2.4,2.977
			c1.776,0,3.648-2.256,4.08-5.04L326.685,493.458z"/>
		<path style="fill:#F15A24;" d="M352.219,477.664v32.355h-7.344v-32.355H352.219z"/>
		<path style="fill:#F15A24;" d="M358.314,494.034c0-2.929-0.096-5.425-0.192-7.489h6.145l0.336,3.169h0.144
			c1.008-1.488,3.072-3.696,7.104-3.696c3.024,0,5.424,1.536,6.433,3.984h0.096c0.864-1.2,1.92-2.16,3.024-2.832
			c1.296-0.769,2.736-1.152,4.464-1.152c4.513,0,7.921,3.168,7.921,10.177v13.825h-7.104v-12.77c0-3.408-1.104-5.376-3.457-5.376
			c-1.68,0-2.88,1.151-3.36,2.544c-0.192,0.528-0.288,1.297-0.288,1.873v13.729h-7.105v-13.153c0-2.976-1.056-4.992-3.36-4.992
			c-1.872,0-2.976,1.44-3.408,2.64c-0.24,0.576-0.288,1.248-0.288,1.824v13.682h-7.104V494.034z"/>
		<path style="fill:#F15A24;" d="M399.593,494.034c0-2.929-0.096-5.425-0.192-7.489h6.145l0.336,3.169h0.144
			c1.008-1.488,3.072-3.696,7.104-3.696c3.024,0,5.424,1.536,6.433,3.984h0.096c0.864-1.2,1.92-2.16,3.024-2.832
			c1.296-0.769,2.737-1.152,4.464-1.152c4.513,0,7.921,3.168,7.921,10.177v13.825h-7.104v-12.77c0-3.408-1.104-5.376-3.456-5.376
			c-1.681,0-2.881,1.151-3.361,2.544c-0.192,0.528-0.288,1.297-0.288,1.873v13.729h-7.105v-13.153c0-2.976-1.056-4.992-3.36-4.992
			c-1.872,0-2.976,1.44-3.408,2.64c-0.24,0.576-0.288,1.248-0.288,1.824v13.682h-7.104V494.034z"/>
		<path style="fill:#F15A24;" d="M463.003,502.482c0,3.072,0.096,5.568,0.191,7.537h-6.336l-0.337-3.313h-0.144
			c-0.912,1.44-3.12,3.84-7.345,3.84c-4.752,0-8.257-2.976-8.257-10.225v-13.777h7.345v12.625c0,3.409,1.104,5.473,3.648,5.473
			c2.017,0,3.168-1.392,3.648-2.544c0.192-0.432,0.24-1.008,0.24-1.584v-13.97h7.345V502.482z"/>
		<path style="fill:#F15A24;" d="M477.017,479.824v6.721h5.232v5.377h-5.232v8.497c0,2.832,0.672,4.128,2.88,4.128
			c0.912,0,1.633-0.096,2.161-0.191l0.048,5.52c-0.96,0.385-2.688,0.625-4.753,0.625c-2.352,0-4.32-0.816-5.473-2.017
			c-1.344-1.392-2.016-3.648-2.016-6.96v-9.602h-3.12v-5.377h3.12v-5.088L477.017,479.824z"/>
		<path style="fill:#F15A24;" d="M499.816,510.02l-0.432-2.352h-0.145c-1.536,1.871-3.937,2.879-6.721,2.879
			c-4.752,0-7.584-3.455-7.584-7.199c0-6.098,5.472-9.025,13.776-8.978v-0.336c0-1.248-0.672-3.024-4.272-3.024
			c-2.399,0-4.944,0.816-6.48,1.776l-1.344-4.704c1.632-0.912,4.849-2.064,9.121-2.064c7.824,0,10.32,4.608,10.32,10.129v8.16
			c0,2.257,0.097,4.417,0.336,5.713H499.816z M498.952,498.931c-3.84-0.048-6.816,0.864-6.816,3.696c0,1.872,1.248,2.784,2.88,2.784
			c1.824,0,3.313-1.2,3.793-2.688c0.096-0.384,0.144-0.816,0.144-1.248V498.931z"/>
		<path style="fill:#F15A24;" d="M511.623,510.02c0.096-1.536,0.192-4.368,0.192-7.009v-27.074h7.296v13.394h0.097
			c1.392-2.017,3.84-3.313,7.104-3.313c5.616,0,9.744,4.656,9.696,11.857c0,8.448-5.376,12.672-10.753,12.672
			c-2.736,0-5.376-1.008-7.057-3.791h-0.096l-0.288,3.264H511.623z M519.111,500.035c0,0.479,0.048,0.912,0.145,1.295
			c0.479,1.969,2.16,3.457,4.272,3.457c3.12,0,5.04-2.4,5.04-6.625c0-3.648-1.632-6.528-5.04-6.528
			c-1.969,0-3.793,1.488-4.272,3.601c-0.097,0.432-0.145,0.863-0.145,1.344V500.035z"/>
		<path style="fill:#F15A24;" d="M540.52,475.937h7.296v34.083h-7.296V475.937z"/>
		<path style="fill:#F15A24;" d="M559.335,500.611c0.24,3.023,3.216,4.464,6.624,4.464c2.497,0,4.513-0.336,6.48-0.96l0.961,4.944
			c-2.4,0.96-5.329,1.44-8.497,1.44c-7.969,0-12.529-4.609-12.529-11.953c0-5.953,3.696-12.529,11.857-12.529
			c7.584,0,10.465,5.904,10.465,11.713c0,1.248-0.145,2.352-0.24,2.881H559.335z M567.928,495.618c0-1.776-0.769-4.753-4.129-4.753
			c-3.072,0-4.32,2.785-4.512,4.753H567.928z"/>
		<path d="M616.023,508.531c-2.256,0.768-6.528,1.824-10.801,1.824c-5.904,0-10.177-1.488-13.153-4.368
			c-2.976-2.784-4.608-7.009-4.561-11.761c0.049-10.754,7.873-16.898,18.482-16.898c4.176,0,7.393,0.816,8.977,1.585l-1.536,5.856
			c-1.776-0.768-3.984-1.393-7.537-1.393c-6.097,0-10.705,3.457-10.705,10.465c0,6.673,4.177,10.609,10.178,10.609
			c1.68,0,3.023-0.192,3.6-0.48v-6.768h-4.992v-5.713h12.049V508.531z"/>
		<path d="M621.493,494.274c0-3.456-0.097-5.713-0.192-7.729h6.288l0.24,4.32h0.192c1.2-3.408,4.08-4.848,6.336-4.848
			c0.673,0,1.009,0,1.536,0.096v6.865c-0.527-0.097-1.151-0.192-1.968-0.192c-2.688,0-4.513,1.44-4.992,3.696
			c-0.097,0.48-0.145,1.057-0.145,1.632v11.905h-7.296V494.274z"/>
		<path d="M653.077,510.02l-0.432-2.352h-0.145c-1.536,1.871-3.937,2.879-6.721,2.879c-4.752,0-7.584-3.455-7.584-7.199
			c0-6.098,5.472-9.025,13.776-8.978v-0.336c0-1.248-0.672-3.024-4.272-3.024c-2.399,0-4.944,0.816-6.48,1.776l-1.344-4.704
			c1.632-0.912,4.849-2.064,9.121-2.064c7.824,0,10.32,4.608,10.32,10.129v8.16c0,2.257,0.097,4.417,0.336,5.713H653.077z
			 M652.213,498.931c-3.84-0.048-6.816,0.864-6.816,3.696c0,1.872,1.248,2.784,2.88,2.784c1.824,0,3.313-1.2,3.793-2.688
			c0.096-0.384,0.144-0.816,0.144-1.248V498.931z"/>
		<path d="M665.076,494.418c0-3.072-0.097-5.713-0.192-7.873h6.337l0.336,3.265h0.096c1.729-2.496,4.416-3.792,7.824-3.792
			c5.137,0,9.745,4.465,9.745,11.953c0,8.545-5.425,12.576-10.657,12.576c-2.832,0-5.04-1.151-6.096-2.688h-0.097v11.665h-7.296
			V494.418z M672.372,499.938c0,0.576,0.048,1.104,0.145,1.536c0.479,1.969,2.16,3.457,4.272,3.457c3.168,0,5.04-2.641,5.04-6.625
			c0-3.744-1.68-6.576-4.944-6.576c-2.064,0-3.889,1.535-4.368,3.695c-0.097,0.385-0.145,0.865-0.145,1.297V499.938z"/>
		<path d="M693.779,475.937h7.296v13.394h0.097c0.768-1.008,1.728-1.776,2.88-2.4c1.056-0.576,2.448-0.912,3.792-0.912
			c4.656,0,8.209,3.217,8.209,10.273v13.729h-7.297v-12.913c0-3.072-1.056-5.185-3.792-5.185c-1.92,0-3.12,1.248-3.648,2.545
			c-0.192,0.479-0.24,1.104-0.24,1.631v13.922h-7.296V475.937z"/>
		<path d="M720.658,515.588c2.641-4.416,4.849-10.896,4.849-19.394s-2.16-14.882-4.849-19.346h5.089
			c2.544,3.696,5.473,9.985,5.473,19.346c-0.048,9.36-2.929,15.649-5.473,19.394H720.658z"/>
		<path d="M754.834,479.824v6.721h5.232v5.377h-5.232v8.497c0,2.832,0.672,4.128,2.88,4.128c0.912,0,1.633-0.096,2.16-0.191
			l0.049,5.52c-0.96,0.385-2.688,0.625-4.753,0.625c-2.352,0-4.32-0.816-5.473-2.017c-1.344-1.392-2.016-3.648-2.016-6.96v-9.602
			h-3.12v-5.377h3.12v-5.088L754.834,479.824z"/>
		<path d="M764.289,494.034c0-2.929-0.097-5.425-0.192-7.489h6.145l0.336,3.169h0.144c1.009-1.488,3.072-3.696,7.105-3.696
			c3.023,0,5.424,1.536,6.433,3.984h0.096c0.864-1.2,1.92-2.16,3.024-2.832c1.296-0.769,2.736-1.152,4.464-1.152
			c4.513,0,7.921,3.168,7.921,10.177v13.825h-7.104v-12.77c0-3.408-1.104-5.376-3.456-5.376c-1.681,0-2.881,1.151-3.36,2.544
			c-0.192,0.528-0.288,1.297-0.288,1.873v13.729h-7.104v-13.153c0-2.976-1.057-4.992-3.36-4.992c-1.872,0-2.977,1.44-3.408,2.64
			c-0.24,0.576-0.288,1.248-0.288,1.824v13.682h-7.104V494.034z"/>
		<path d="M805.568,494.418c0-3.072-0.097-5.713-0.192-7.873h6.337l0.336,3.265h0.096c1.729-2.496,4.416-3.792,7.824-3.792
			c5.137,0,9.745,4.465,9.745,11.953c0,8.545-5.425,12.576-10.657,12.576c-2.832,0-5.04-1.151-6.096-2.688h-0.097v11.665h-7.296
			V494.418z M812.864,499.938c0,0.576,0.048,1.104,0.145,1.536c0.479,1.969,2.16,3.457,4.272,3.457c3.168,0,5.04-2.641,5.04-6.625
			c0-3.744-1.68-6.576-4.944-6.576c-2.064,0-3.889,1.535-4.368,3.695c-0.097,0.385-0.145,0.865-0.145,1.297V499.938z"/>
		<path d="M861.537,508.531c-2.256,0.768-6.528,1.824-10.801,1.824c-5.904,0-10.177-1.488-13.153-4.368
			c-2.976-2.784-4.608-7.009-4.561-11.761c0.049-10.754,7.873-16.898,18.482-16.898c4.176,0,7.393,0.816,8.977,1.585l-1.536,5.856
			c-1.776-0.768-3.984-1.393-7.537-1.393c-6.097,0-10.705,3.457-10.705,10.465c0,6.673,4.177,10.609,10.178,10.609
			c1.68,0,3.023-0.192,3.6-0.48v-6.768h-4.992v-5.713h12.049V508.531z"/>
		<path d="M867.007,494.274c0-3.456-0.097-5.713-0.192-7.729h6.288l0.24,4.32h0.192c1.2-3.408,4.08-4.848,6.336-4.848
			c0.673,0,1.009,0,1.536,0.096v6.865c-0.527-0.097-1.151-0.192-1.968-0.192c-2.688,0-4.513,1.44-4.992,3.696
			c-0.097,0.48-0.145,1.057-0.145,1.632v11.905h-7.296V494.274z"/>
		<path d="M898.591,510.02l-0.432-2.352h-0.145c-1.536,1.871-3.937,2.879-6.721,2.879c-4.752,0-7.584-3.455-7.584-7.199
			c0-6.098,5.472-9.025,13.776-8.978v-0.336c0-1.248-0.672-3.024-4.272-3.024c-2.399,0-4.944,0.816-6.48,1.776l-1.344-4.704
			c1.632-0.912,4.849-2.064,9.121-2.064c7.824,0,10.32,4.608,10.32,10.129v8.16c0,2.257,0.097,4.417,0.336,5.713H898.591z
			 M897.727,498.931c-3.84-0.048-6.816,0.864-6.816,3.696c0,1.872,1.248,2.784,2.88,2.784c1.824,0,3.313-1.2,3.793-2.688
			c0.096-0.384,0.144-0.816,0.144-1.248V498.931z"/>
		<path d="M910.59,494.418c0-3.072-0.097-5.713-0.192-7.873h6.337l0.336,3.265h0.096c1.729-2.496,4.416-3.792,7.824-3.792
			c5.137,0,9.745,4.465,9.745,11.953c0,8.545-5.425,12.576-10.657,12.576c-2.832,0-5.04-1.151-6.096-2.688h-0.097v11.665h-7.296
			V494.418z M917.886,499.938c0,0.576,0.048,1.104,0.145,1.536c0.479,1.969,2.16,3.457,4.272,3.457c3.168,0,5.04-2.641,5.04-6.625
			c0-3.744-1.68-6.576-4.944-6.576c-2.064,0-3.889,1.535-4.368,3.695c-0.097,0.385-0.145,0.865-0.145,1.297V499.938z"/>
		<path d="M939.293,475.937h7.296v13.394h0.097c0.768-1.008,1.728-1.776,2.88-2.4c1.056-0.576,2.448-0.912,3.792-0.912
			c4.656,0,8.209,3.217,8.209,10.273v13.729h-7.297v-12.913c0-3.072-1.056-5.185-3.792-5.185c-1.92,0-3.12,1.248-3.648,2.545
			c-0.192,0.479-0.24,1.104-0.24,1.631v13.922h-7.296V475.937z"/>
		<path d="M964.588,515.732c1.488-4.273,2.784-9.266,3.505-13.634l7.345-0.479c-1.585,4.896-3.745,9.937-6.049,13.681
			L964.588,515.732z M967.181,490.674c0-2.592,1.728-4.416,4.272-4.416c2.544,0,4.224,1.775,4.272,4.416
			c0,2.496-1.681,4.368-4.272,4.368C968.908,495.042,967.133,493.17,967.181,490.674z"/>
		<path d="M62.689,569.443c-1.296,0.576-3.745,1.057-6.529,1.057c-7.584,0-12.433-4.608-12.433-12.002
			c0-6.864,4.705-12.48,13.441-12.48c1.92,0,4.032,0.336,5.568,0.912l-1.152,5.424c-0.864-0.384-2.161-0.72-4.081-0.72
			c-3.84,0-6.336,2.736-6.289,6.577c0,4.32,2.88,6.576,6.433,6.576c1.728,0,3.072-0.288,4.176-0.72L62.689,569.443z"/>
		<path d="M66.719,535.937h7.297v34.083h-7.297V535.937z"/>
		<path d="M93.264,570.02l-0.432-2.353h-0.144c-1.536,1.872-3.936,2.881-6.721,2.881c-4.752,0-7.584-3.457-7.584-7.201
			c0-6.097,5.473-9.024,13.777-8.977v-0.336c0-1.248-0.672-3.024-4.272-3.024c-2.4,0-4.944,0.816-6.48,1.776l-1.344-4.704
			c1.632-0.912,4.849-2.064,9.121-2.064c7.825,0,10.321,4.608,10.321,10.129v8.16c0,2.257,0.096,4.417,0.336,5.713H93.264z
			 M92.4,558.931c-3.84-0.048-6.816,0.864-6.816,3.696c0,1.872,1.248,2.784,2.88,2.784c1.824,0,3.312-1.2,3.792-2.688
			c0.096-0.384,0.144-0.815,0.144-1.248V558.931z"/>
		<path d="M105.215,563.635c1.344,0.816,4.128,1.776,6.289,1.776c2.208,0,3.12-0.769,3.12-1.968c0-1.2-0.72-1.776-3.456-2.688
			c-4.849-1.632-6.721-4.272-6.673-7.057c0-4.368,3.744-7.681,9.553-7.681c2.736,0,5.185,0.624,6.625,1.344l-1.296,5.041
			c-1.056-0.576-3.072-1.344-5.088-1.344c-1.776,0-2.784,0.719-2.784,1.92c0,1.104,0.912,1.68,3.792,2.688
			c4.464,1.536,6.337,3.793,6.385,7.249c0,4.368-3.457,7.585-10.177,7.585c-3.072,0-5.809-0.673-7.585-1.633L105.215,563.635z"/>
		<path d="M126.047,563.635c1.344,0.816,4.128,1.776,6.289,1.776c2.208,0,3.12-0.769,3.12-1.968c0-1.2-0.72-1.776-3.457-2.688
			c-4.848-1.632-6.72-4.272-6.672-7.057c0-4.368,3.744-7.681,9.553-7.681c2.736,0,5.185,0.624,6.625,1.344l-1.296,5.041
			c-1.056-0.576-3.072-1.344-5.088-1.344c-1.776,0-2.784,0.719-2.784,1.92c0,1.104,0.912,1.68,3.792,2.688
			c4.464,1.536,6.337,3.793,6.385,7.249c0,4.368-3.457,7.585-10.177,7.585c-3.072,0-5.809-0.673-7.585-1.633L126.047,563.635z"/>
		<path d="M156.862,538.097c2.352-0.384,5.856-0.672,9.745-0.672c4.8,0,8.161,0.72,10.465,2.544c1.92,1.536,2.977,3.793,2.977,6.769
			c0,4.128-2.928,6.961-5.713,7.969v0.145c2.256,0.912,3.504,3.072,4.321,6.048c1.008,3.648,2.016,7.873,2.64,9.121h-7.489
			c-0.528-0.912-1.296-3.553-2.256-7.537c-0.864-4.032-2.256-5.136-5.232-5.184h-2.208v12.721h-7.249V538.097z M164.111,552.018
			h2.88c3.648,0,5.808-1.824,5.808-4.656c0-2.977-2.016-4.465-5.376-4.512c-1.776,0-2.784,0.144-3.312,0.24V552.018z"/>
		<path d="M190.702,560.61c0.24,3.024,3.216,4.465,6.625,4.465c2.496,0,4.512-0.336,6.48-0.96l0.96,4.944
			c-2.4,0.96-5.329,1.44-8.497,1.44c-7.969,0-12.529-4.608-12.529-11.953c0-5.953,3.696-12.529,11.857-12.529
			c7.584,0,10.465,5.904,10.465,11.713c0,1.248-0.144,2.353-0.24,2.88H190.702z M199.295,555.618c0-1.776-0.768-4.753-4.128-4.753
			c-3.072,0-4.32,2.785-4.513,4.753H199.295z"/>
		<path d="M223.774,570.02l-0.432-2.353h-0.144c-1.536,1.872-3.936,2.881-6.721,2.881c-4.752,0-7.584-3.457-7.584-7.201
			c0-6.097,5.473-9.024,13.777-8.977v-0.336c0-1.248-0.672-3.024-4.272-3.024c-2.4,0-4.944,0.816-6.48,1.776l-1.344-4.704
			c1.632-0.912,4.849-2.064,9.121-2.064c7.825,0,10.321,4.608,10.321,10.129v8.16c0,2.257,0.096,4.417,0.336,5.713H223.774z
			 M222.91,558.931c-3.84-0.048-6.816,0.864-6.816,3.696c0,1.872,1.248,2.784,2.88,2.784c1.824,0,3.312-1.2,3.792-2.688
			c0.096-0.384,0.144-0.815,0.144-1.248V558.931z"/>
		<path d="M258.527,535.937v27.074c0,2.641,0.096,5.425,0.192,7.009h-6.48l-0.336-3.456h-0.096c-1.488,2.64-4.32,3.984-7.344,3.984
			c-5.569,0-10.033-4.753-10.033-12.05c-0.048-7.92,4.896-12.48,10.513-12.48c2.88,0,5.136,1.008,6.192,2.641h0.096v-12.722H258.527
			z M251.23,556.482c0-0.384-0.048-0.912-0.096-1.296c-0.432-1.968-2.016-3.601-4.272-3.601c-3.312,0-5.041,2.977-5.041,6.673
			c0,3.984,1.968,6.48,4.993,6.48c2.112,0,3.792-1.44,4.224-3.505c0.144-0.527,0.192-1.056,0.192-1.68V556.482z"/>
		<path d="M287.566,558.019c0,8.593-6.097,12.529-12.385,12.529c-6.864,0-12.145-4.513-12.145-12.098s4.993-12.433,12.529-12.433
			C282.766,546.018,287.566,550.962,287.566,558.019z M270.573,558.259c0,4.032,1.68,7.057,4.801,7.057
			c2.832,0,4.656-2.833,4.656-7.057c0-3.505-1.344-7.057-4.656-7.057C271.869,551.202,270.573,554.802,270.573,558.259z"/>
		<path d="M292.076,554.034c0-2.929-0.096-5.425-0.192-7.489h6.336l0.336,3.217h0.144c0.96-1.488,3.36-3.744,7.249-3.744
			c4.801,0,8.401,3.168,8.401,10.081v13.921h-7.296v-13.009c0-3.024-1.056-5.089-3.696-5.089c-2.017,0-3.216,1.393-3.697,2.736
			c-0.192,0.432-0.288,1.152-0.288,1.824v13.537h-7.297V554.034z"/>
		<path d="M320.204,535.937h7.297v34.083h-7.297V535.937z"/>
		<path d="M338.876,546.545l3.504,11.521c0.384,1.393,0.864,3.12,1.152,4.368h0.144c0.336-1.248,0.72-3.024,1.056-4.368l2.88-11.521
			h7.824l-5.472,15.458c-3.36,9.313-5.617,13.057-8.257,15.409c-2.544,2.208-5.232,2.977-7.057,3.217l-1.536-6.193
			c0.912-0.144,2.064-0.576,3.168-1.248c1.104-0.576,2.304-1.728,3.024-2.928c0.24-0.336,0.384-0.721,0.384-1.057
			c0-0.239-0.048-0.624-0.336-1.2l-8.593-21.458H338.876z"/>
		<path d="M358.748,537.664h7.344v26.211h12.865v6.145h-20.209V537.664z"/>
		<path d="M390.571,540.018c0,2.016-1.536,3.647-3.937,3.647c-2.304,0-3.84-1.632-3.792-3.647c-0.048-2.113,1.488-3.697,3.84-3.697
			S390.523,537.904,390.571,540.018z M383.035,570.02v-23.475h7.297v23.475H383.035z"/>
		<path d="M396.138,563.635c1.344,0.816,4.128,1.776,6.289,1.776c2.208,0,3.12-0.769,3.12-1.968c0-1.2-0.72-1.776-3.456-2.688
			c-4.849-1.632-6.721-4.272-6.673-7.057c0-4.368,3.744-7.681,9.553-7.681c2.736,0,5.185,0.624,6.625,1.344l-1.296,5.041
			c-1.056-0.576-3.072-1.344-5.088-1.344c-1.776,0-2.784,0.719-2.784,1.92c0,1.104,0.912,1.68,3.792,2.688
			c4.464,1.536,6.337,3.793,6.385,7.249c0,4.368-3.457,7.585-10.177,7.585c-3.072,0-5.809-0.673-7.585-1.633L396.138,563.635z"/>
		<path d="M425.179,539.824v6.721h5.232v5.377h-5.232v8.497c0,2.832,0.672,4.128,2.88,4.128c0.912,0,1.632-0.096,2.16-0.191
			l0.048,5.521c-0.96,0.384-2.688,0.624-4.752,0.624c-2.353,0-4.321-0.816-5.473-2.017c-1.344-1.393-2.016-3.648-2.016-6.961v-9.601
			h-3.121v-5.377h3.121v-5.088L425.179,539.824z"/>
		<path d="M434.489,555.187l23.042-10.705v5.089l-17.426,7.632v0.097l17.426,7.632v5.089l-23.042-10.705V555.187z"/>
		<path d="M469.722,543.809h-8.689v-6.145h24.866v6.145h-8.832v26.211h-7.345V543.809z"/>
		<path d="M512.442,559.459L489.4,570.02v-5.089l17.81-7.632v-0.097l-17.81-7.632v-5.089l23.042,10.561V559.459z"/>
		<path d="M535.384,540.018c0,2.016-1.536,3.647-3.937,3.647c-2.304,0-3.84-1.632-3.792-3.647c-0.048-2.113,1.488-3.697,3.84-3.697
			C533.848,536.32,535.336,537.904,535.384,540.018z M527.848,570.02v-23.475h7.296v23.475H527.848z"/>
		<path d="M540.999,554.034c0-2.929-0.097-5.425-0.192-7.489h6.145l0.336,3.169h0.144c1.009-1.488,3.072-3.696,7.105-3.696
			c3.023,0,5.424,1.536,6.433,3.984h0.096c0.864-1.2,1.92-2.16,3.024-2.832c1.296-0.769,2.736-1.152,4.464-1.152
			c4.513,0,7.921,3.168,7.921,10.177v13.825h-7.104v-12.77c0-3.408-1.104-5.376-3.456-5.376c-1.681,0-2.881,1.151-3.36,2.544
			c-0.192,0.528-0.288,1.296-0.288,1.872v13.729h-7.104v-13.153c0-2.976-1.057-4.992-3.36-4.992c-1.872,0-2.977,1.44-3.408,2.641
			c-0.24,0.575-0.288,1.248-0.288,1.823v13.682h-7.104V554.034z"/>
		<path d="M582.278,554.418c0-3.072-0.097-5.713-0.192-7.873h6.337l0.336,3.265h0.096c1.729-2.496,4.416-3.792,7.824-3.792
			c5.137,0,9.745,4.465,9.745,11.953c0,8.545-5.425,12.577-10.657,12.577c-2.832,0-5.04-1.152-6.096-2.688h-0.097v11.665h-7.296
			V554.418z M589.574,559.938c0,0.576,0.048,1.104,0.145,1.536c0.479,1.969,2.16,3.456,4.272,3.456c3.168,0,5.04-2.64,5.04-6.624
			c0-3.744-1.68-6.576-4.944-6.576c-2.064,0-3.889,1.535-4.368,3.695c-0.097,0.385-0.145,0.864-0.145,1.297V559.938z"/>
		<path d="M610.982,535.937h7.296v34.083h-7.296V535.937z"/>
		<path d="M629.798,560.61c0.24,3.024,3.216,4.465,6.624,4.465c2.497,0,4.513-0.336,6.48-0.96l0.961,4.944
			c-2.4,0.96-5.329,1.44-8.497,1.44c-7.969,0-12.529-4.608-12.529-11.953c0-5.953,3.696-12.529,11.857-12.529
			c7.584,0,10.465,5.904,10.465,11.713c0,1.248-0.145,2.353-0.24,2.88H629.798z M638.391,555.618c0-1.776-0.769-4.753-4.129-4.753
			c-3.072,0-4.32,2.785-4.512,4.753H638.391z"/>
		<path d="M649.525,554.034c0-2.929-0.097-5.425-0.192-7.489h6.145l0.336,3.169h0.144c1.009-1.488,3.072-3.696,7.105-3.696
			c3.023,0,5.424,1.536,6.433,3.984h0.096c0.864-1.2,1.92-2.16,3.024-2.832c1.296-0.769,2.736-1.152,4.464-1.152
			c4.513,0,7.921,3.168,7.921,10.177v13.825h-7.104v-12.77c0-3.408-1.104-5.376-3.456-5.376c-1.681,0-2.881,1.151-3.36,2.544
			c-0.192,0.528-0.288,1.296-0.288,1.872v13.729h-7.104v-13.153c0-2.976-1.057-4.992-3.36-4.992c-1.872,0-2.977,1.44-3.408,2.641
			c-0.24,0.575-0.288,1.248-0.288,1.823v13.682h-7.104V554.034z"/>
		<path d="M696.421,560.61c0.24,3.024,3.216,4.465,6.624,4.465c2.497,0,4.513-0.336,6.48-0.96l0.961,4.944
			c-2.4,0.96-5.329,1.44-8.497,1.44c-7.969,0-12.529-4.608-12.529-11.953c0-5.953,3.696-12.529,11.857-12.529
			c7.584,0,10.465,5.904,10.465,11.713c0,1.248-0.145,2.353-0.24,2.88H696.421z M705.014,555.618c0-1.776-0.769-4.753-4.129-4.753
			c-3.072,0-4.32,2.785-4.512,4.753H705.014z"/>
		<path d="M716.148,554.034c0-2.929-0.097-5.425-0.192-7.489h6.337l0.336,3.217h0.144c0.96-1.488,3.36-3.744,7.249-3.744
			c4.8,0,8.4,3.168,8.4,10.081v13.921h-7.297v-13.009c0-3.024-1.056-5.089-3.696-5.089c-2.016,0-3.216,1.393-3.696,2.736
			c-0.191,0.432-0.288,1.152-0.288,1.824v13.537h-7.296V554.034z"/>
		<path d="M752.437,539.824v6.721h5.232v5.377h-5.232v8.497c0,2.832,0.672,4.128,2.88,4.128c0.912,0,1.633-0.096,2.161-0.191
			l0.048,5.521c-0.96,0.384-2.688,0.624-4.753,0.624c-2.352,0-4.32-0.816-5.473-2.017c-1.344-1.393-2.016-3.648-2.016-6.961v-9.601
			h-3.12v-5.377h3.12v-5.088L752.437,539.824z"/>
		<path d="M761.843,563.635c1.345,0.816,4.129,1.776,6.289,1.776c2.208,0,3.12-0.769,3.12-1.968c0-1.2-0.72-1.776-3.456-2.688
			c-4.849-1.632-6.721-4.272-6.673-7.057c0-4.368,3.744-7.681,9.553-7.681c2.736,0,5.185,0.624,6.625,1.344l-1.297,5.041
			c-1.056-0.576-3.072-1.344-5.088-1.344c-1.776,0-2.784,0.719-2.784,1.92c0,1.104,0.912,1.68,3.792,2.688
			c4.465,1.536,6.337,3.793,6.385,7.249c0,4.368-3.456,7.585-10.177,7.585c-3.072,0-5.809-0.673-7.585-1.633L761.843,563.635z"/>
		<path style="fill:#F15A24;" d="M281.662,633.284c-2.88,1.296-5.376,1.728-8.785,1.728c-7.968,0-14.977-5.712-14.977-15.121
			c0-9.793,7.104-18.289,17.954-18.289c8.449,0,14.497,5.808,14.497,13.873c0,7.008-3.936,11.425-9.121,11.425
			c-2.256,0-3.889-1.152-4.128-3.696h-0.096c-1.488,2.448-3.648,3.696-6.192,3.696c-3.12,0-5.376-2.305-5.376-6.24
			c0-5.857,4.32-11.186,11.233-11.186c2.112,0,4.513,0.528,5.712,1.2l-1.44,8.881c-0.48,2.832-0.144,4.128,1.2,4.177
			c2.064,0.048,4.656-2.593,4.656-8.113c0-6.24-4.032-11.089-11.473-11.089c-7.344,0-13.777,5.761-13.777,14.93
			c0,8.017,5.136,12.577,12.289,12.577c2.448,0,5.04-0.528,6.96-1.536L281.662,633.284z M277.389,613.458
			c-0.384-0.096-0.864-0.192-1.488-0.192c-3.168,0-5.665,3.121-5.665,6.817c0,1.824,0.816,2.976,2.4,2.976
			c1.776,0,3.648-2.256,4.08-5.04L277.389,613.458z"/>
		<path style="fill:#F15A24;" d="M295.579,598.097c2.352-0.384,5.856-0.672,9.745-0.672c4.8,0,8.161,0.72,10.465,2.544
			c1.92,1.536,2.977,3.793,2.977,6.769c0,4.129-2.928,6.961-5.713,7.969v0.145c2.256,0.912,3.504,3.072,4.321,6.048
			c1.008,3.648,2.016,7.873,2.64,9.121h-7.489c-0.528-0.912-1.296-3.553-2.256-7.537c-0.864-4.032-2.256-5.136-5.232-5.184h-2.208
			v12.721h-7.249V598.097z M302.828,612.018h2.88c3.648,0,5.808-1.824,5.808-4.656c0-2.976-2.016-4.464-5.376-4.512
			c-1.776,0-2.784,0.144-3.312,0.239V612.018z"/>
		<path style="fill:#F15A24;" d="M329.419,620.61c0.24,3.024,3.216,4.465,6.625,4.465c2.496,0,4.512-0.336,6.48-0.96l0.96,4.944
			c-2.4,0.96-5.329,1.44-8.497,1.44c-7.969,0-12.529-4.608-12.529-11.953c0-5.953,3.696-12.529,11.857-12.529
			c7.584,0,10.465,5.904,10.465,11.713c0,1.248-0.144,2.353-0.24,2.88H329.419z M338.012,615.618c0-1.776-0.768-4.752-4.128-4.752
			c-3.072,0-4.32,2.784-4.513,4.752H338.012z"/>
		<path style="fill:#F15A24;" d="M362.491,630.02l-0.432-2.353h-0.144c-1.536,1.872-3.936,2.881-6.721,2.881
			c-4.752,0-7.584-3.457-7.584-7.201c0-6.097,5.473-9.024,13.777-8.977v-0.336c0-1.248-0.672-3.024-4.272-3.024
			c-2.4,0-4.944,0.816-6.48,1.776l-1.344-4.704c1.632-0.912,4.849-2.064,9.121-2.064c7.825,0,10.321,4.608,10.321,10.129v8.16
			c0,2.257,0.096,4.417,0.336,5.713H362.491z M361.627,618.931c-3.84-0.048-6.816,0.864-6.816,3.696c0,1.872,1.248,2.784,2.88,2.784
			c1.824,0,3.312-1.2,3.792-2.688c0.096-0.384,0.144-0.815,0.144-1.248V618.931z"/>
		<path style="fill:#F15A24;" d="M397.244,595.937v27.074c0,2.641,0.096,5.425,0.192,7.009h-6.48l-0.336-3.456h-0.096
			c-1.488,2.64-4.32,3.984-7.344,3.984c-5.569,0-10.033-4.753-10.033-12.05c-0.048-7.92,4.896-12.48,10.513-12.48
			c2.88,0,5.136,1.008,6.192,2.64h0.096v-12.721H397.244z M389.947,616.482c0-0.384-0.048-0.912-0.096-1.296
			c-0.432-1.969-2.016-3.601-4.272-3.601c-3.312,0-5.041,2.977-5.041,6.673c0,3.984,1.968,6.48,4.993,6.48
			c2.112,0,3.792-1.44,4.224-3.505c0.144-0.527,0.192-1.056,0.192-1.68V616.482z"/>
		<path style="fill:#F15A24;" d="M426.283,618.019c0,8.593-6.097,12.529-12.385,12.529c-6.864,0-12.145-4.513-12.145-12.098
			c0-7.584,4.993-12.433,12.529-12.433C421.483,606.018,426.283,610.962,426.283,618.019z M409.29,618.259
			c0,4.032,1.68,7.057,4.801,7.057c2.832,0,4.656-2.833,4.656-7.057c0-3.505-1.344-7.057-4.656-7.057
			C410.586,611.202,409.29,614.802,409.29,618.259z"/>
		<path style="fill:#F15A24;" d="M430.793,614.034c0-2.929-0.097-5.425-0.192-7.488h6.337l0.336,3.216h0.144
			c0.96-1.488,3.36-3.744,7.249-3.744c4.8,0,8.4,3.168,8.4,10.081v13.921h-7.297v-13.009c0-3.024-1.056-5.089-3.696-5.089
			c-2.016,0-3.216,1.393-3.696,2.736c-0.191,0.432-0.288,1.152-0.288,1.824v13.537h-7.296V614.034z"/>
		<path style="fill:#F15A24;" d="M458.921,595.937h7.296v34.083h-7.296V595.937z"/>
		<path style="fill:#F15A24;" d="M477.593,606.546l3.505,11.521c0.384,1.393,0.864,3.12,1.151,4.368h0.145
			c0.336-1.248,0.72-3.024,1.056-4.368l2.881-11.521h7.824l-5.473,15.457c-3.36,9.313-5.616,13.057-8.256,15.409
			c-2.545,2.208-5.232,2.977-7.057,3.217l-1.536-6.193c0.912-0.144,2.063-0.576,3.168-1.248c1.104-0.576,2.304-1.728,3.024-2.928
			c0.24-0.336,0.384-0.721,0.384-1.057c0-0.239-0.048-0.624-0.336-1.2l-8.593-21.457H477.593z"/>
		<path d="M507.159,597.665h7.345v26.21h12.865v6.145h-20.21V597.665z"/>
		<path d="M538.983,600.017c0,2.017-1.536,3.648-3.937,3.648c-2.304,0-3.84-1.632-3.792-3.648c-0.048-2.112,1.488-3.696,3.84-3.696
			C537.447,596.32,538.936,597.904,538.983,600.017z M531.447,630.02v-23.474h7.296v23.474H531.447z"/>
		<path d="M544.55,623.635c1.345,0.816,4.129,1.776,6.289,1.776c2.208,0,3.12-0.769,3.12-1.968c0-1.2-0.72-1.776-3.456-2.688
			c-4.849-1.632-6.721-4.272-6.673-7.057c0-4.368,3.744-7.681,9.553-7.681c2.736,0,5.185,0.624,6.625,1.344l-1.297,5.041
			c-1.056-0.576-3.072-1.345-5.088-1.345c-1.776,0-2.784,0.721-2.784,1.921c0,1.104,0.912,1.68,3.792,2.688
			c4.465,1.536,6.337,3.793,6.385,7.249c0,4.368-3.456,7.585-10.177,7.585c-3.072,0-5.809-0.673-7.585-1.633L544.55,623.635z"/>
		<path d="M573.59,599.825v6.721h5.232v5.376h-5.232v8.497c0,2.832,0.672,4.128,2.88,4.128c0.912,0,1.633-0.096,2.16-0.191
			l0.049,5.521c-0.96,0.384-2.688,0.624-4.753,0.624c-2.352,0-4.32-0.816-5.473-2.017c-1.344-1.393-2.016-3.648-2.016-6.961v-9.601
			h-3.12v-5.376h3.12v-5.089L573.59,599.825z"/>
		<path d="M582.9,615.187l23.042-10.705v5.088l-17.426,7.633v0.097l17.426,7.632v5.089L582.9,619.314V615.187z"/>
		<path style="fill:#F15A24;" d="M634.934,633.284c-2.88,1.296-5.376,1.728-8.784,1.728c-7.969,0-14.978-5.712-14.978-15.121
			c0-9.793,7.104-18.289,17.953-18.289c8.449,0,14.498,5.808,14.498,13.873c0,7.008-3.937,11.425-9.121,11.425
			c-2.256,0-3.889-1.152-4.129-3.696h-0.096c-1.488,2.448-3.648,3.696-6.192,3.696c-3.12,0-5.377-2.305-5.377-6.24
			c0-5.857,4.321-11.186,11.233-11.186c2.112,0,4.513,0.528,5.713,1.2l-1.44,8.881c-0.48,2.832-0.145,4.128,1.2,4.177
			c2.064,0.048,4.656-2.593,4.656-8.113c0-6.24-4.032-11.089-11.473-11.089c-7.345,0-13.777,5.761-13.777,14.93
			c0,8.017,5.137,12.577,12.289,12.577c2.448,0,5.04-0.528,6.96-1.536L634.934,633.284z M630.661,613.458
			c-0.384-0.096-0.863-0.192-1.487-0.192c-3.169,0-5.665,3.121-5.665,6.817c0,1.824,0.816,2.976,2.4,2.976
			c1.776,0,3.648-2.256,4.08-5.04L630.661,613.458z"/>
		<path style="fill:#F15A24;" d="M648.851,598.097c2.353-0.384,5.856-0.672,9.745-0.672c4.801,0,8.161,0.72,10.465,2.544
			c1.92,1.536,2.977,3.793,2.977,6.769c0,4.129-2.929,6.961-5.713,7.969v0.145c2.257,0.912,3.505,3.072,4.32,6.048
			c1.009,3.648,2.017,7.873,2.641,9.121h-7.489c-0.527-0.912-1.296-3.553-2.256-7.537c-0.864-4.032-2.256-5.136-5.232-5.184H656.1
			v12.721h-7.249V598.097z M656.1,612.018h2.88c3.648,0,5.809-1.824,5.809-4.656c0-2.976-2.016-4.464-5.376-4.512
			c-1.776,0-2.784,0.144-3.313,0.239V612.018z"/>
		<path style="fill:#F15A24;" d="M682.69,620.61c0.24,3.024,3.216,4.465,6.624,4.465c2.497,0,4.513-0.336,6.48-0.96l0.961,4.944
			c-2.4,0.96-5.329,1.44-8.497,1.44c-7.969,0-12.529-4.608-12.529-11.953c0-5.953,3.696-12.529,11.857-12.529
			c7.584,0,10.465,5.904,10.465,11.713c0,1.248-0.145,2.353-0.24,2.88H682.69z M691.283,615.618c0-1.776-0.769-4.752-4.129-4.752
			c-3.072,0-4.32,2.784-4.512,4.752H691.283z"/>
		<path style="fill:#F15A24;" d="M715.763,630.02l-0.432-2.353h-0.145c-1.536,1.872-3.937,2.881-6.721,2.881
			c-4.752,0-7.584-3.457-7.584-7.201c0-6.097,5.472-9.024,13.776-8.977v-0.336c0-1.248-0.672-3.024-4.272-3.024
			c-2.399,0-4.944,0.816-6.48,1.776l-1.344-4.704c1.632-0.912,4.849-2.064,9.121-2.064c7.824,0,10.32,4.608,10.32,10.129v8.16
			c0,2.257,0.097,4.417,0.336,5.713H715.763z M714.898,618.931c-3.84-0.048-6.816,0.864-6.816,3.696c0,1.872,1.248,2.784,2.88,2.784
			c1.824,0,3.313-1.2,3.793-2.688c0.096-0.384,0.144-0.815,0.144-1.248V618.931z"/>
		<path style="fill:#F15A24;" d="M750.516,595.937v27.074c0,2.641,0.096,5.425,0.191,7.009h-6.48l-0.336-3.456h-0.096
			c-1.488,2.64-4.32,3.984-7.345,3.984c-5.568,0-10.033-4.753-10.033-12.05c-0.048-7.92,4.896-12.48,10.513-12.48
			c2.881,0,5.137,1.008,6.193,2.64h0.096v-12.721H750.516z M743.219,616.482c0-0.384-0.048-0.912-0.096-1.296
			c-0.433-1.969-2.017-3.601-4.272-3.601c-3.313,0-5.041,2.977-5.041,6.673c0,3.984,1.969,6.48,4.992,6.48
			c2.112,0,3.793-1.44,4.225-3.505c0.145-0.527,0.192-1.056,0.192-1.68V616.482z"/>
		<path style="fill:#F15A24;" d="M779.555,618.019c0,8.593-6.097,12.529-12.385,12.529c-6.865,0-12.146-4.513-12.146-12.098
			c0-7.584,4.992-12.433,12.529-12.433C774.754,606.018,779.555,610.962,779.555,618.019z M762.562,618.259
			c0,4.032,1.68,7.057,4.8,7.057c2.833,0,4.656-2.833,4.656-7.057c0-3.505-1.344-7.057-4.656-7.057
			C763.857,611.202,762.562,614.802,762.562,618.259z"/>
		<path style="fill:#F15A24;" d="M784.064,614.034c0-2.929-0.097-5.425-0.192-7.488h6.337l0.336,3.216h0.144
			c0.96-1.488,3.36-3.744,7.249-3.744c4.8,0,8.4,3.168,8.4,10.081v13.921h-7.297v-13.009c0-3.024-1.056-5.089-3.696-5.089
			c-2.016,0-3.216,1.393-3.696,2.736c-0.191,0.432-0.288,1.152-0.288,1.824v13.537h-7.296V614.034z"/>
		<path style="fill:#F15A24;" d="M812.192,595.937h7.296v34.083h-7.296V595.937z"/>
		<path style="fill:#F15A24;" d="M830.864,606.546l3.505,11.521c0.384,1.393,0.864,3.12,1.151,4.368h0.145
			c0.336-1.248,0.72-3.024,1.056-4.368l2.881-11.521h7.824l-5.473,15.457c-3.36,9.313-5.616,13.057-8.256,15.409
			c-2.545,2.208-5.232,2.977-7.057,3.217l-1.536-6.193c0.912-0.144,2.063-0.576,3.168-1.248c1.104-0.576,2.304-1.728,3.024-2.928
			c0.24-0.336,0.384-0.721,0.384-1.057c0-0.239-0.048-0.624-0.336-1.2l-8.593-21.457H830.864z"/>
		<path d="M866.672,603.81h-8.689v-6.145h24.866v6.145h-8.832v26.21h-7.345V603.81z"/>
		<path d="M909.393,619.459l-23.042,10.561v-5.089l17.81-7.632v-0.097l-17.81-7.633v-5.088l23.042,10.561V619.459z"/>
		<path d="M923.311,614.37c3.312-0.096,3.648-1.824,3.648-3.265c0-1.199-0.145-2.448-0.288-3.744
			c-0.145-1.296-0.24-2.592-0.24-3.792c0-4.513,2.832-6.48,7.297-6.48h1.68v4.08h-0.864c-2.16,0-2.928,1.296-2.928,3.408
			c0,0.864,0.144,1.729,0.239,2.736c0.097,0.96,0.24,2.064,0.24,3.265c0.048,3.648-1.439,4.992-4.08,5.568v0.096
			c2.641,0.576,4.128,1.969,4.08,5.616c0,1.249-0.144,2.353-0.24,3.36c-0.096,0.961-0.239,1.872-0.239,2.688
			c0,2.112,0.72,3.456,2.928,3.456h0.864v4.033h-1.729c-4.271,0-7.248-1.729-7.248-6.529c0-1.2,0.096-2.496,0.24-3.792
			c0.144-1.296,0.288-2.544,0.288-3.744c0-1.345-0.337-3.169-3.648-3.265V614.37z"/>
		<path d="M950.575,618.066c-3.264,0.096-3.648,1.92-3.648,3.265c0,1.2,0.145,2.448,0.288,3.744
			c0.145,1.296,0.288,2.592,0.288,3.792c0,4.801-2.976,6.529-7.296,6.529h-1.729v-4.033h0.864c2.208-0.048,2.928-1.344,2.928-3.456
			c0-0.816-0.096-1.728-0.239-2.688c-0.097-1.008-0.24-2.111-0.24-3.36c-0.048-3.647,1.439-5.04,4.128-5.616v-0.096
			c-2.688-0.576-4.176-1.92-4.128-5.568c0-1.2,0.144-2.305,0.24-3.265c0.144-1.008,0.239-1.872,0.239-2.736
			c0-2.112-0.768-3.36-2.928-3.408h-0.864v-4.08h1.68c4.513,0,7.345,1.968,7.345,6.48c0,1.2-0.144,2.496-0.288,3.792
			c-0.144,1.296-0.288,2.545-0.288,3.744c0,1.44,0.385,3.169,3.648,3.265V618.066z"/>
	</g>
</g>
</svg>
