<?xml version="1.0" encoding="iso-8859-1"?>
<!-- Generator: Adobe Illustrator 16.1.1, SVG Export Plug-In . SVG Version: 6.00 Build 0)  -->
<!DOCTYPE svg PUBLIC "-//W3C//DTD SVG 1.1//EN" "http://www.w3.org/Graphics/SVG/1.1/DTD/svg11.dtd">
<svg version="1.1" xmlns="http://www.w3.org/2000/svg" xmlns:xlink="http://www.w3.org/1999/xlink" x="0px" y="0px" width="1024px"
	 height="768px" viewBox="0 0 1024 768" style="enable-background:new 0 0 1024 768;" xml:space="preserve">
<g id="jfx:p00">
	<image style="overflow:visible;" width="1024" height="768" xlink:href="322829DA.jpg" >
	</image>
</g>
<g id="jfx:p01">
	<rect style="opacity:0.5;" width="1024" height="768"/>
</g>
<g id="jfx:p02">
	<g>
		<path style="fill:#F8981D;" d="M70.302,51.446h15.201v42.603c0,19.201-9.2,25.902-24.001,25.902c-3.5,0-8.1-0.6-11.101-1.6
			l1.7-12.301c2.1,0.7,4.8,1.2,7.8,1.2c6.4,0,10.401-2.9,10.401-13.401V51.446z"/>
		<path style="fill:#F8981D;" d="M125.502,118.851l-0.9-4.9h-0.3c-3.2,3.9-8.201,6-14.001,6c-9.9,0-15.801-7.201-15.801-15.001
			c0-12.701,11.4-18.801,28.702-18.701v-0.7c0-2.6-1.4-6.3-8.901-6.3c-5,0-10.3,1.7-13.5,3.7l-2.8-9.8
			c3.4-1.9,10.101-4.3,19.001-4.3c16.301,0,21.501,9.601,21.501,21.101v17.001c0,4.701,0.2,9.201,0.7,11.901H125.502z
			 M123.703,95.749c-8-0.1-14.201,1.8-14.201,7.701c0,3.9,2.601,5.8,6,5.8c3.8,0,6.9-2.5,7.9-5.601c0.2-0.8,0.3-1.7,0.3-2.6V95.749z
			"/>
		<path style="fill:#F8981D;" d="M161.801,69.948l6.601,22.701c1.2,4.1,2.1,8,2.8,11.901h0.3c0.8-4,1.6-7.701,2.7-11.901l6.3-22.701
			h16.001l-18.201,48.903h-15.201L145.3,69.948H161.801z"/>
		<path style="fill:#F8981D;" d="M231.302,118.851l-0.9-4.9h-0.3c-3.2,3.9-8.201,6-14.001,6c-9.9,0-15.801-7.201-15.801-15.001
			c0-12.701,11.4-18.801,28.702-18.701v-0.7c0-2.6-1.4-6.3-8.901-6.3c-5,0-10.3,1.7-13.5,3.7l-2.8-9.8
			c3.4-1.9,10.101-4.3,19.001-4.3c16.301,0,21.501,9.601,21.501,21.101v17.001c0,4.701,0.2,9.201,0.7,11.901H231.302z
			 M229.502,95.749c-8-0.1-14.201,1.8-14.201,7.701c0,3.9,2.601,5.8,6,5.8c3.8,0,6.9-2.5,7.9-5.601c0.2-0.8,0.3-1.7,0.3-2.6V95.749z
			"/>
		<path style="fill:#F8981D;" d="M277.5,103.149c4.1,2.101,10.4,4.201,16.901,4.201c7,0,10.701-2.9,10.701-7.301
			c0-4.2-3.2-6.6-11.301-9.5c-11.201-3.9-18.501-10.101-18.501-19.901c0-11.5,9.601-20.301,25.501-20.301
			c7.601,0,13.201,1.6,17.201,3.4l-3.4,12.301c-2.7-1.3-7.5-3.2-14.101-3.2c-6.601,0-9.801,3-9.801,6.5c0,4.3,3.8,6.2,12.501,9.5
			c11.9,4.4,17.501,10.601,17.501,20.101c0,11.301-8.701,20.901-27.202,20.901c-7.701,0-15.301-2-19.101-4.1L277.5,103.149z"/>
		<path style="fill:#F8981D;" d="M371.102,90.349h-24.801v16.001h27.702v12.501H331V51.446h41.603v12.501h-26.302v14.001h24.801
			V90.349z"/>
		<path style="fill:#F8981D;" d="M444.701,90.349H419.9v16.001h27.702v12.501h-43.002V51.446h41.602v12.501H419.9v14.001h24.801
			V90.349z"/>
		<path style="fill:#F8981D;" d="M457.499,85.548c0-6.1-0.2-11.3-0.4-15.601h12.801l0.7,6.6h0.3c2.101-3.1,6.4-7.7,14.801-7.7
			c6.301,0,11.301,3.2,13.401,8.3h0.2c1.8-2.5,4-4.5,6.3-5.9c2.7-1.6,5.7-2.4,9.301-2.4c9.4,0,16.501,6.6,16.501,21.201v28.802
			h-14.801V92.249c0-7.101-2.3-11.201-7.2-11.201c-3.501,0-6.001,2.4-7.001,5.3c-0.399,1.1-0.6,2.7-0.6,3.9v28.602h-14.801V91.449
			c0-6.2-2.2-10.4-7.001-10.4c-3.9,0-6.2,3-7.101,5.5c-0.5,1.2-0.6,2.6-0.6,3.8v28.502h-14.801V85.548z"/>
		<path style="fill:#F8981D;" d="M543.098,118.851c0.2-3.2,0.4-9.101,0.4-14.601V47.846h15.201v27.902h0.199
			c2.9-4.2,8.001-6.9,14.801-6.9c11.701,0,20.302,9.701,20.202,24.701c0,17.601-11.201,26.402-22.401,26.402
			c-5.701,0-11.201-2.1-14.701-7.9h-0.2l-0.6,6.8H543.098z M558.699,98.049c0,1,0.1,1.9,0.3,2.7c1,4.1,4.5,7.2,8.9,7.2
			c6.5,0,10.501-5,10.501-13.801c0-7.6-3.4-13.601-10.501-13.601c-4.101,0-7.9,3.1-8.9,7.5c-0.2,0.9-0.3,1.8-0.3,2.8V98.049z"/>
		<path style="fill:#F8981D;" d="M614.997,99.25c0.5,6.3,6.701,9.3,13.801,9.3c5.201,0,9.401-0.7,13.501-2l2,10.301
			c-5,2-11.101,3-17.701,3c-16.601,0-26.102-9.601-26.102-24.901c0-12.401,7.701-26.102,24.702-26.102
			c15.801,0,21.801,12.301,21.801,24.401c0,2.6-0.3,4.9-0.5,6H614.997z M632.898,88.849c0-3.7-1.6-9.9-8.601-9.9
			c-6.4,0-9,5.8-9.4,9.9H632.898z"/>
		<path style="fill:#F8981D;" d="M703.499,47.846v56.403c0,5.5,0.2,11.301,0.4,14.601h-13.501l-0.7-7.2h-0.2
			c-3.1,5.5-9,8.3-15.301,8.3c-11.601,0-20.901-9.901-20.901-25.102c-0.1-16.501,10.201-26.001,21.901-26.001
			c6.001,0,10.701,2.1,12.901,5.5h0.2V47.846H703.499z M688.299,90.649c0-0.8-0.101-1.9-0.2-2.7c-0.9-4.1-4.2-7.5-8.9-7.5
			c-6.9,0-10.501,6.2-10.501,13.901c0,8.3,4.101,13.501,10.4,13.501c4.4,0,7.9-3,8.801-7.301c0.3-1.1,0.4-2.2,0.4-3.5V90.649z"/>
		<path style="fill:#F8981D;" d="M763.099,47.846v56.403c0,5.5,0.2,11.301,0.4,14.601h-13.501l-0.7-7.2h-0.2
			c-3.1,5.5-9,8.3-15.301,8.3c-11.601,0-20.901-9.901-20.901-25.102c-0.1-16.501,10.201-26.001,21.901-26.001
			c6.001,0,10.701,2.1,12.901,5.5h0.2V47.846H763.099z M747.898,90.649c0-0.8-0.101-1.9-0.2-2.7c-0.9-4.1-4.2-7.5-8.9-7.5
			c-6.9,0-10.501,6.2-10.501,13.901c0,8.3,4.101,13.501,10.4,13.501c4.4,0,7.9-3,8.801-7.301c0.3-1.1,0.4-2.2,0.4-3.5V90.649z"/>
		<path style="fill:#F8981D;" d="M786.996,99.25c0.5,6.3,6.701,9.3,13.801,9.3c5.2,0,9.401-0.7,13.501-2l2,10.301
			c-5,2-11.101,3-17.701,3c-16.601,0-26.102-9.601-26.102-24.901c0-12.401,7.701-26.102,24.702-26.102
			c15.801,0,21.801,12.301,21.801,24.401c0,2.6-0.3,4.9-0.5,6H786.996z M804.897,88.849c0-3.7-1.6-9.9-8.601-9.9
			c-6.4,0-9,5.8-9.4,9.9H804.897z"/>
		<path style="fill:#F8981D;" d="M875.498,47.846v56.403c0,5.5,0.2,11.301,0.4,14.601h-13.501l-0.7-7.2h-0.2
			c-3.1,5.5-9,8.3-15.301,8.3c-11.601,0-20.901-9.901-20.901-25.102c-0.1-16.501,10.201-26.001,21.901-26.001
			c6.001,0,10.701,2.1,12.901,5.5h0.2V47.846H875.498z M860.298,90.649c0-0.8-0.101-1.9-0.2-2.7c-0.9-4.1-4.2-7.5-8.9-7.5
			c-6.9,0-10.501,6.2-10.501,13.901c0,8.3,4.101,13.501,10.4,13.501c4.4,0,7.9-3,8.801-7.301c0.3-1.1,0.4-2.2,0.4-3.5V90.649z"/>
	</g>
</g>
<g id="jfx:p03">
	<g>
		<path style="fill:#FFFFFF;" d="M46.164,200.103h9.728v27.262c0,12.287-5.888,16.575-15.359,16.575
			c-2.24,0-5.184-0.384-7.104-1.024l1.088-7.872c1.344,0.448,3.072,0.768,4.992,0.768c4.096,0,6.655-1.856,6.655-8.576V200.103z"/>
		<path style="fill:#FFFFFF;" d="M81.491,243.235l-0.576-3.136h-0.192c-2.048,2.496-5.248,3.84-8.959,3.84
			c-6.335,0-10.111-4.608-10.111-9.6c0-8.127,7.295-12.031,18.367-11.967v-0.448c0-1.664-0.896-4.032-5.696-4.032
			c-3.2,0-6.591,1.088-8.639,2.368l-1.792-6.272c2.176-1.216,6.463-2.751,12.159-2.751c10.431,0,13.759,6.144,13.759,13.503v10.879
			c0,3.008,0.128,5.887,0.448,7.615H81.491z M80.339,228.453c-5.12-0.064-9.087,1.152-9.087,4.927c0,2.496,1.664,3.712,3.84,3.712
			c2.432,0,4.416-1.6,5.056-3.584c0.128-0.512,0.192-1.088,0.192-1.664V228.453z"/>
		<path style="fill:#FFFFFF;" d="M104.724,211.941l4.224,14.527c0.768,2.624,1.344,5.12,1.792,7.615h0.192
			c0.512-2.56,1.024-4.928,1.728-7.615l4.032-14.527h10.239l-11.647,31.294h-9.727l-11.391-31.294H104.724z"/>
		<path style="fill:#FFFFFF;" d="M149.203,243.235l-0.576-3.136h-0.192c-2.048,2.496-5.248,3.84-8.959,3.84
			c-6.335,0-10.111-4.608-10.111-9.6c0-8.127,7.295-12.031,18.367-11.967v-0.448c0-1.664-0.896-4.032-5.696-4.032
			c-3.2,0-6.591,1.088-8.639,2.368l-1.792-6.272c2.176-1.216,6.463-2.751,12.159-2.751c10.431,0,13.759,6.144,13.759,13.503v10.879
			c0,3.008,0.128,5.887,0.448,7.615H149.203z M148.051,228.453c-5.12-0.064-9.087,1.152-9.087,4.927c0,2.496,1.664,3.712,3.84,3.712
			c2.432,0,4.416-1.6,5.056-3.584c0.128-0.512,0.192-1.088,0.192-1.664V228.453z"/>
		<path style="fill:#FFFFFF;" d="M210.13,242.02c-1.792,0.896-5.824,1.856-11.071,1.856c-14.911,0-22.59-9.279-22.59-21.566
			c0-14.719,10.495-22.911,23.55-22.911c5.056,0,8.896,1.024,10.624,1.92l-1.984,7.744c-1.984-0.832-4.736-1.6-8.191-1.6
			c-7.744,0-13.759,4.672-13.759,14.271c0,8.639,5.12,14.079,13.823,14.079c2.944,0,6.208-0.64,8.127-1.408L210.13,242.02z"/>
		<path style="fill:#FFFFFF;" d="M234.002,243.235l-0.576-3.136h-0.192c-2.048,2.496-5.248,3.84-8.959,3.84
			c-6.335,0-10.111-4.608-10.111-9.6c0-8.127,7.295-12.031,18.367-11.967v-0.448c0-1.664-0.896-4.032-5.696-4.032
			c-3.2,0-6.591,1.088-8.639,2.368l-1.792-6.272c2.176-1.216,6.463-2.751,12.159-2.751c10.431,0,13.759,6.144,13.759,13.503v10.879
			c0,3.008,0.128,5.887,0.448,7.615H234.002z M232.85,228.453c-5.12-0.064-9.087,1.152-9.087,4.927c0,2.496,1.664,3.712,3.84,3.712
			c2.432,0,4.416-1.6,5.056-3.584c0.128-0.512,0.192-1.088,0.192-1.664V228.453z"/>
		<path style="fill:#FFFFFF;" d="M250.003,222.245c0-4.608-0.128-7.616-0.256-10.304h8.383l0.32,5.76h0.256
			c1.6-4.543,5.44-6.463,8.448-6.463c0.896,0,1.344,0,2.048,0.128v9.151c-0.704-0.128-1.536-0.256-2.624-0.256
			c-3.584,0-6.016,1.919-6.655,4.927c-0.128,0.64-0.192,1.408-0.192,2.176v15.871h-9.727V222.245z"/>
		<path style="fill:#FFFFFF;" d="M304.656,197.799v36.093c0,3.52,0.128,7.231,0.256,9.343h-8.64l-0.448-4.607h-0.128
			c-1.984,3.52-5.76,5.312-9.792,5.312c-7.423,0-13.375-6.336-13.375-16.063c-0.064-10.559,6.527-16.639,14.015-16.639
			c3.84,0,6.847,1.344,8.255,3.52h0.128v-16.958H304.656z M294.929,225.188c0-0.512-0.064-1.216-0.128-1.728
			c-0.576-2.624-2.688-4.8-5.696-4.8c-4.416,0-6.719,3.968-6.719,8.896c0,5.312,2.624,8.639,6.655,8.639
			c2.816,0,5.056-1.92,5.632-4.671c0.192-0.704,0.256-1.408,0.256-2.24V225.188z"/>
	</g>
	<g>
		<path style="fill:#FFFFFF;" d="M431.259,200.103h9.728v27.262c0,12.287-5.888,16.575-15.359,16.575
			c-2.24,0-5.184-0.384-7.104-1.024l1.088-7.872c1.344,0.448,3.072,0.768,4.992,0.768c4.096,0,6.655-1.856,6.655-8.576V200.103z"/>
		<path style="fill:#FFFFFF;" d="M466.586,243.235l-0.576-3.136h-0.192c-2.048,2.496-5.248,3.84-8.959,3.84
			c-6.335,0-10.111-4.608-10.111-9.6c0-8.127,7.295-12.031,18.367-11.967v-0.448c0-1.664-0.896-4.032-5.696-4.032
			c-3.2,0-6.591,1.088-8.639,2.368l-1.792-6.272c2.176-1.216,6.463-2.751,12.159-2.751c10.431,0,13.759,6.144,13.759,13.503v10.879
			c0,3.008,0.128,5.887,0.448,7.615H466.586z M465.434,228.453c-5.12-0.064-9.087,1.152-9.087,4.927c0,2.496,1.664,3.712,3.84,3.712
			c2.432,0,4.416-1.6,5.056-3.584c0.128-0.512,0.192-1.088,0.192-1.664V228.453z"/>
		<path style="fill:#FFFFFF;" d="M489.819,211.941l4.224,14.527c0.768,2.624,1.344,5.12,1.792,7.615h0.192
			c0.512-2.56,1.024-4.928,1.728-7.615l4.032-14.527h10.239l-11.647,31.294h-9.727l-11.391-31.294H489.819z"/>
		<path style="fill:#FFFFFF;" d="M534.298,243.235l-0.576-3.136h-0.192c-2.048,2.496-5.247,3.84-8.959,3.84
			c-6.335,0-10.111-4.608-10.111-9.6c0-8.127,7.296-12.031,18.367-11.967v-0.448c0-1.664-0.896-4.032-5.696-4.032
			c-3.199,0-6.591,1.088-8.639,2.368l-1.792-6.272c2.176-1.216,6.463-2.751,12.159-2.751c10.431,0,13.759,6.144,13.759,13.503
			v10.879c0,3.008,0.128,5.887,0.448,7.615H534.298z M533.146,228.453c-5.119-0.064-9.087,1.152-9.087,4.927
			c0,2.496,1.664,3.712,3.84,3.712c2.432,0,4.415-1.6,5.056-3.584c0.128-0.512,0.191-1.088,0.191-1.664V228.453z"/>
		<path style="fill:#FFFFFF;" d="M600.024,226.725c-0.192-5.184-0.385-11.455-0.385-17.727h-0.191
			c-1.344,5.503-3.136,11.647-4.8,16.703l-5.248,16.831h-7.615l-4.607-16.703c-1.408-5.056-2.88-11.199-3.903-16.831h-0.128
			c-0.257,5.823-0.448,12.479-0.769,17.854l-0.768,16.383h-9.023l2.752-43.133h12.991l4.224,14.399
			c1.344,4.992,2.688,10.367,3.647,15.423h0.191c1.217-4.992,2.688-10.687,4.096-15.487l4.608-14.335h12.734l2.368,43.133h-9.535
			L600.024,226.725z"/>
		<path style="fill:#FFFFFF;" d="M643.353,224.997h-15.871v10.239h17.727v8H617.69v-43.133h26.622v8h-16.831v8.959h15.871V224.997z"
			/>
	</g>
	<g>
		<path style="fill:#FFFFFF;" d="M768.157,174.101h9.728v27.262c0,12.287-5.888,16.575-15.359,16.575
			c-2.239,0-5.184-0.384-7.104-1.024l1.088-7.872c1.344,0.448,3.072,0.768,4.992,0.768c4.096,0,6.655-1.856,6.655-8.576V174.101z"/>
		<path style="fill:#FFFFFF;" d="M803.484,217.233l-0.576-3.136h-0.191c-2.049,2.496-5.248,3.84-8.959,3.84
			c-6.336,0-10.111-4.608-10.111-9.6c0-8.127,7.295-12.031,18.366-11.967v-0.448c0-1.664-0.896-4.032-5.696-4.032
			c-3.199,0-6.591,1.088-8.639,2.368l-1.792-6.272c2.176-1.216,6.464-2.751,12.159-2.751c10.432,0,13.759,6.144,13.759,13.503
			v10.879c0,3.008,0.128,5.887,0.448,7.615H803.484z M802.332,202.451c-5.119-0.064-9.087,1.152-9.087,4.927
			c0,2.496,1.664,3.712,3.84,3.712c2.432,0,4.415-1.6,5.056-3.584c0.128-0.512,0.191-1.088,0.191-1.664V202.451z"/>
		<path style="fill:#FFFFFF;" d="M826.717,185.939l4.225,14.527c0.768,2.624,1.344,5.12,1.791,7.615h0.192
			c0.512-2.56,1.024-4.928,1.728-7.615l4.032-14.527h10.239l-11.647,31.294h-9.728l-11.391-31.294H826.717z"/>
		<path style="fill:#FFFFFF;" d="M871.196,217.233l-0.575-3.136h-0.193c-2.047,2.496-5.247,3.84-8.959,3.84
			c-6.335,0-10.111-4.608-10.111-9.6c0-8.127,7.296-12.031,18.367-11.967v-0.448c0-1.664-0.896-4.032-5.695-4.032
			c-3.2,0-6.592,1.088-8.64,2.368l-1.792-6.272c2.176-1.216,6.463-2.751,12.159-2.751c10.431,0,13.759,6.144,13.759,13.503v10.879
			c0,3.008,0.128,5.887,0.448,7.615H871.196z M870.045,202.451c-5.12-0.064-9.088,1.152-9.088,4.927c0,2.496,1.664,3.712,3.84,3.712
			c2.432,0,4.416-1.6,5.056-3.584c0.128-0.512,0.192-1.088,0.192-1.664V202.451z"/>
		<path style="fill:#FFFFFF;" d="M900.766,207.186c2.623,1.344,6.655,2.688,10.814,2.688c4.48,0,6.848-1.856,6.848-4.672
			c0-2.688-2.047-4.224-7.23-6.08c-7.168-2.496-11.84-6.463-11.84-12.735c0-7.359,6.144-12.991,16.318-12.991
			c4.864,0,8.447,1.024,11.008,2.176l-2.176,7.872c-1.729-0.832-4.8-2.048-9.023-2.048s-6.271,1.92-6.271,4.16
			c0,2.752,2.432,3.968,7.999,6.08c7.616,2.816,11.199,6.784,11.199,12.863c0,7.231-5.567,13.375-17.407,13.375
			c-4.927,0-9.791-1.28-12.223-2.624L900.766,207.186z"/>
		<path style="fill:#FFFFFF;" d="M960.667,198.995h-15.87v10.239h17.727v8h-27.519v-43.133h26.622v8h-16.83v8.959h15.87V198.995z"/>
	</g>
	<g>
		<path style="fill:#FFFFFF;" d="M735.325,250.995h-15.87v10.239h17.727v8h-27.519v-43.133h26.622v8h-16.83v8.959h15.87V250.995z"/>
		<path style="fill:#FFFFFF;" d="M743.52,247.923c0-3.904-0.128-7.231-0.256-9.983h8.191l0.447,4.224h0.192
			c1.344-1.984,4.096-4.928,9.471-4.928c4.032,0,7.231,2.048,8.576,5.312h0.128c1.151-1.6,2.56-2.88,4.031-3.776
			c1.729-1.024,3.647-1.536,5.952-1.536c6.016,0,10.559,4.224,10.559,13.567v18.431h-9.471V252.21c0-4.543-1.473-7.167-4.608-7.167
			c-2.239,0-3.84,1.536-4.479,3.392c-0.256,0.704-0.384,1.728-0.384,2.496v18.303h-9.472v-17.535c0-3.968-1.407-6.656-4.479-6.656
			c-2.496,0-3.968,1.92-4.544,3.52c-0.319,0.768-0.384,1.664-0.384,2.432v18.239h-9.471V247.923z"/>
		<path style="fill:#FFFFFF;" d="M798.303,269.233c0.128-2.048,0.256-5.824,0.256-9.343v-36.093h9.727v17.854h0.128
			c1.856-2.688,5.12-4.416,9.472-4.416c7.487,0,12.991,6.208,12.927,15.807c0,11.263-7.167,16.895-14.335,16.895
			c-3.647,0-7.167-1.344-9.407-5.056h-0.128l-0.384,4.352H798.303z M808.285,255.922c0,0.64,0.064,1.216,0.192,1.728
			c0.64,2.624,2.88,4.607,5.695,4.607c4.16,0,6.72-3.2,6.72-8.831c0-4.864-2.176-8.704-6.72-8.704c-2.624,0-5.056,1.984-5.695,4.8
			c-0.128,0.576-0.192,1.152-0.192,1.792V255.922z"/>
		<path style="fill:#FFFFFF;" d="M844.317,256.69c0.319,4.032,4.287,5.952,8.831,5.952c3.328,0,6.016-0.448,8.64-1.28l1.279,6.592
			c-3.199,1.28-7.104,1.92-11.327,1.92c-10.623,0-16.702-6.144-16.702-15.935c0-7.936,4.928-16.703,15.807-16.703
			c10.111,0,13.951,7.871,13.951,15.615c0,1.664-0.192,3.136-0.32,3.84H844.317z M855.772,250.035c0-2.368-1.024-6.335-5.504-6.335
			c-4.096,0-5.76,3.712-6.016,6.335H855.772z"/>
		<path style="fill:#FFFFFF;" d="M900.955,223.797v36.093c0,3.52,0.129,7.231,0.257,9.343h-8.64l-0.448-4.607h-0.128
			c-1.983,3.52-5.76,5.312-9.791,5.312c-7.424,0-13.375-6.336-13.375-16.063c-0.064-10.559,6.527-16.639,14.015-16.639
			c3.84,0,6.848,1.344,8.256,3.52h0.128v-16.958H900.955z M891.229,251.187c0-0.512-0.064-1.216-0.128-1.728
			c-0.576-2.624-2.688-4.8-5.696-4.8c-4.415,0-6.719,3.968-6.719,8.896c0,5.312,2.623,8.639,6.655,8.639
			c2.815,0,5.056-1.92,5.632-4.671c0.191-0.704,0.256-1.408,0.256-2.24V251.187z"/>
		<path style="fill:#FFFFFF;" d="M939.099,223.797v36.093c0,3.52,0.129,7.231,0.257,9.343h-8.64l-0.448-4.607h-0.128
			c-1.983,3.52-5.76,5.312-9.791,5.312c-7.424,0-13.375-6.336-13.375-16.063c-0.064-10.559,6.527-16.639,14.015-16.639
			c3.84,0,6.848,1.344,8.256,3.52h0.128v-16.958H939.099z M929.372,251.187c0-0.512-0.064-1.216-0.128-1.728
			c-0.576-2.624-2.688-4.8-5.696-4.8c-4.415,0-6.719,3.968-6.719,8.896c0,5.312,2.623,8.639,6.655,8.639
			c2.815,0,5.056-1.92,5.632-4.671c0.191-0.704,0.256-1.408,0.256-2.24V251.187z"/>
		<path style="fill:#FFFFFF;" d="M954.396,256.69c0.319,4.032,4.287,5.952,8.831,5.952c3.328,0,6.016-0.448,8.64-1.28l1.279,6.592
			c-3.199,1.28-7.104,1.92-11.327,1.92c-10.623,0-16.702-6.144-16.702-15.935c0-7.936,4.928-16.703,15.807-16.703
			c10.111,0,13.951,7.871,13.951,15.615c0,1.664-0.192,3.136-0.32,3.84H954.396z M965.852,250.035c0-2.368-1.024-6.335-5.504-6.335
			c-4.096,0-5.76,3.712-6.016,6.335H965.852z"/>
		<path style="fill:#FFFFFF;" d="M1011.034,223.797v36.093c0,3.52,0.129,7.231,0.257,9.343h-8.64l-0.448-4.607h-0.128
			c-1.983,3.52-5.76,5.312-9.791,5.312c-7.424,0-13.375-6.336-13.375-16.063c-0.064-10.559,6.527-16.639,14.015-16.639
			c3.84,0,6.848,1.344,8.256,3.52h0.128v-16.958H1011.034z M1001.308,251.187c0-0.512-0.064-1.216-0.128-1.728
			c-0.576-2.624-2.688-4.8-5.696-4.8c-4.415,0-6.719,3.968-6.719,8.896c0,5.312,2.623,8.639,6.655,8.639
			c2.815,0,5.056-1.92,5.632-4.671c0.191-0.704,0.256-1.408,0.256-2.24V251.187z"/>
	</g>
</g>
<g id="jfx:p04">
	<g>
		<path style="fill:#FFFFFF;" d="M600.48,339.524c-1.792,0.896-5.824,1.856-11.071,1.856c-14.911,0-22.591-9.279-22.591-21.566
			c0-14.719,10.495-22.911,23.551-22.911c5.056,0,8.896,1.024,10.623,1.92l-1.983,7.744c-1.984-0.832-4.736-1.6-8.191-1.6
			c-7.744,0-13.76,4.672-13.76,14.271c0,8.639,5.12,14.079,13.823,14.079c2.944,0,6.208-0.64,8.128-1.408L600.48,339.524z"/>
		<path style="fill:#FFFFFF;" d="M606.882,298.183c3.584-0.576,8.255-0.896,13.183-0.896c8.191,0,13.503,1.472,17.663,4.607
			c4.479,3.328,7.295,8.639,7.295,16.255c0,8.255-3.008,13.951-7.167,17.471c-4.544,3.776-11.455,5.567-19.902,5.567
			c-5.056,0-8.64-0.32-11.071-0.64V298.183z M616.673,333.381c0.832,0.192,2.176,0.192,3.392,0.192
			c8.832,0.064,14.591-4.8,14.591-15.103c0.064-8.959-5.184-13.695-13.566-13.695c-2.176,0-3.584,0.192-4.416,0.384V333.381z"/>
		<path style="fill:#FFFFFF;" d="M683.104,339.524c-1.792,0.896-5.824,1.856-11.071,1.856c-14.911,0-22.591-9.279-22.591-21.566
			c0-14.719,10.495-22.911,23.551-22.911c5.056,0,8.896,1.024,10.623,1.92l-1.983,7.744c-1.984-0.832-4.736-1.6-8.191-1.6
			c-7.744,0-13.76,4.672-13.76,14.271c0,8.639,5.12,14.079,13.823,14.079c2.944,0,6.208-0.64,8.128-1.408L683.104,339.524z"/>
	</g>
	<g>
		<path style="fill:#FFFFFF;" d="M391.994,339.524c-1.792,0.896-5.824,1.856-11.071,1.856c-14.911,0-22.59-9.279-22.59-21.566
			c0-14.719,10.495-22.911,23.55-22.911c5.056,0,8.896,1.024,10.624,1.92l-1.984,7.744c-1.984-0.832-4.736-1.6-8.191-1.6
			c-7.744,0-13.759,4.672-13.759,14.271c0,8.639,5.12,14.079,13.823,14.079c2.944,0,6.208-0.64,8.127-1.408L391.994,339.524z"/>
		<path style="fill:#FFFFFF;" d="M398.395,297.607h9.792v34.941h17.15v8.191h-26.942V297.607z"/>
		<path style="fill:#FFFFFF;" d="M431.098,298.183c3.584-0.576,8.255-0.896,13.183-0.896c8.191,0,13.503,1.472,17.663,4.607
			c4.48,3.328,7.295,8.639,7.295,16.255c0,8.255-3.008,13.951-7.167,17.471c-4.543,3.776-11.455,5.567-19.902,5.567
			c-5.056,0-8.64-0.32-11.071-0.64V298.183z M440.89,333.381c0.832,0.192,2.176,0.192,3.392,0.192
			c8.832,0.064,14.591-4.8,14.591-15.103c0.064-8.959-5.184-13.695-13.567-13.695c-2.176,0-3.584,0.192-4.416,0.384V333.381z"/>
		<path style="fill:#FFFFFF;" d="M507.32,339.524c-1.792,0.896-5.824,1.856-11.071,1.856c-14.911,0-22.59-9.279-22.59-21.566
			c0-14.719,10.495-22.911,23.55-22.911c5.056,0,8.896,1.024,10.624,1.92l-1.984,7.744c-1.984-0.832-4.736-1.6-8.191-1.6
			c-7.744,0-13.759,4.672-13.759,14.271c0,8.639,5.12,14.079,13.823,14.079c2.944,0,6.208-0.64,8.127-1.408L507.32,339.524z"/>
	</g>
</g>
<g id="jfx:p05">
	
		<image style="overflow:visible;" width="159" height="101" xlink:href="322829DE.jpg"  transform="matrix(0.9999 0 0 0.9999 94.0171 398.4336)">
	</image>
	
		<image style="overflow:visible;" width="150" height="173" xlink:href="322829D9.jpg"  transform="matrix(0.9999 0 0 0.9999 356.0923 373.437)">
	</image>
	
		<image style="overflow:visible;" width="207" height="243" xlink:href="322829DB.jpg"  transform="matrix(0.7585 0 0 0.7585 543 367.7739)">
	</image>
	
		<image style="overflow:visible;" width="164" height="176" xlink:href="322829D8.jpg"  transform="matrix(0.9999 0 0 0.9999 787 367.7739)">
	</image>
</g>
<g id="jfx:p06">
	<g>
		<path style="fill:#FFFFFF;" d="M995.385,370.051h8.149c-3.573,5.22-14.087,9.462-31.551,12.727
			c-17.463,3.266-36.829,4.898-58.094,4.898c-11.177,0-24.176-0.358-39.002-1.078c-14.821-0.719-26.348-1.078-34.577-1.078
			c-11.176,0-21.614,0.945-31.317,2.836c-9.699,1.892-15.637,4.508-17.813,7.852h-9.546c-2.173-3.344-8.07-5.96-17.696-7.852
			c-9.623-1.891-20.102-2.836-31.434-2.836c-8.227,0-19.712,0.359-34.461,1.078c-14.746,0.72-27.785,1.078-39.118,1.078
			c-21.108,0-40.435-1.633-57.978-4.898c-17.54-3.265-28.018-7.507-31.434-12.727h8.149c4.348,3.656,11.449,6.336,21.305,8.039
			c9.859,1.704,20.687,2.555,32.481,2.555c9.161,0,21.229-0.352,36.207-1.055c14.982-0.703,27.749-1.055,38.303-1.055
			c15.681,0,30.892,1.156,45.638,3.469c14.749,2.313,26.158,5.766,34.228,10.359c8.229-4.5,19.872-7.929,34.927-10.289
			c15.059-2.359,30.426-3.539,46.103-3.539c10.559,0,23.325,0.352,38.303,1.055c14.979,0.703,27.047,1.055,36.207,1.055
			c11.796,0,22.623-0.851,32.482-2.555C983.702,376.387,990.88,373.707,995.385,370.051z"/>
	</g>
	<g>
		<path style="fill:#FFFFFF;" d="M694.157,432.1h9.728v27.262c0,12.287-5.888,16.575-15.359,16.575
			c-2.239,0-5.184-0.385-7.104-1.024l1.088-7.871c1.344,0.447,3.072,0.768,4.992,0.768c4.096,0,6.655-1.855,6.655-8.575V432.1z"/>
		<path style="fill:#FFFFFF;" d="M729.484,475.232l-0.576-3.136h-0.191c-2.049,2.495-5.248,3.84-8.959,3.84
			c-6.336,0-10.111-4.608-10.111-9.6c0-8.128,7.295-12.031,18.366-11.967v-0.448c0-1.664-0.896-4.032-5.696-4.032
			c-3.199,0-6.591,1.088-8.639,2.368l-1.792-6.271c2.176-1.216,6.464-2.752,12.159-2.752c10.432,0,13.759,6.144,13.759,13.503v10.88
			c0,3.008,0.128,5.887,0.448,7.615H729.484z M728.332,460.449c-5.119-0.063-9.087,1.152-9.087,4.928
			c0,2.496,1.664,3.712,3.84,3.712c2.432,0,4.415-1.601,5.056-3.584c0.128-0.512,0.191-1.088,0.191-1.664V460.449z"/>
		<path style="fill:#FFFFFF;" d="M752.717,443.938l4.225,14.527c0.768,2.623,1.344,5.119,1.791,7.615h0.192
			c0.512-2.56,1.024-4.928,1.728-7.615l4.032-14.527h10.239l-11.647,31.294h-9.728l-11.391-31.294H752.717z"/>
		<path style="fill:#FFFFFF;" d="M797.196,475.232l-0.575-3.136h-0.193c-2.047,2.495-5.247,3.84-8.959,3.84
			c-6.335,0-10.111-4.608-10.111-9.6c0-8.128,7.296-12.031,18.367-11.967v-0.448c0-1.664-0.896-4.032-5.695-4.032
			c-3.2,0-6.592,1.088-8.64,2.368l-1.792-6.271c2.176-1.216,6.463-2.752,12.159-2.752c10.431,0,13.759,6.144,13.759,13.503v10.88
			c0,3.008,0.128,5.887,0.448,7.615H797.196z M796.045,460.449c-5.12-0.063-9.088,1.152-9.088,4.928c0,2.496,1.664,3.712,3.84,3.712
			c2.432,0,4.416-1.601,5.056-3.584c0.128-0.512,0.192-1.088,0.192-1.664V460.449z"/>
		<path style="fill:#FFFFFF;" d="M826.766,465.185c2.623,1.345,6.655,2.688,10.814,2.688c4.48,0,6.848-1.856,6.848-4.672
			c0-2.688-2.047-4.224-7.23-6.08c-7.168-2.495-11.84-6.463-11.84-12.734c0-7.359,6.144-12.991,16.318-12.991
			c4.864,0,8.447,1.023,11.008,2.176l-2.176,7.871c-1.729-0.832-4.8-2.048-9.023-2.048s-6.271,1.92-6.271,4.16
			c0,2.752,2.432,3.968,7.999,6.079c7.616,2.816,11.199,6.784,11.199,12.863c0,7.231-5.567,13.375-17.407,13.375
			c-4.927,0-9.791-1.28-12.223-2.624L826.766,465.185z"/>
		<path style="fill:#FFFFFF;" d="M886.667,456.993h-15.87v10.239h17.727v8h-27.519V432.1h26.622v7.999h-16.83v8.959h15.87V456.993z"
			/>
	</g>
	<g>
		<path style="fill:#FFFFFF;" d="M661.325,508.993h-15.87v10.239h17.727v8h-27.519V484.1h26.622v7.999h-16.83v8.959h15.87V508.993z"
			/>
		<path style="fill:#FFFFFF;" d="M669.52,505.922c0-3.904-0.128-7.231-0.256-9.983h8.191l0.447,4.224h0.192
			c1.344-1.983,4.096-4.928,9.471-4.928c4.032,0,7.231,2.048,8.576,5.312h0.128c1.151-1.6,2.56-2.88,4.031-3.775
			c1.729-1.024,3.647-1.536,5.952-1.536c6.016,0,10.559,4.224,10.559,13.567v18.431h-9.471v-17.023c0-4.543-1.473-7.167-4.608-7.167
			c-2.239,0-3.84,1.536-4.479,3.392c-0.256,0.704-0.384,1.728-0.384,2.496v18.303h-9.472v-17.535c0-3.968-1.407-6.655-4.479-6.655
			c-2.496,0-3.968,1.92-4.544,3.52c-0.319,0.769-0.384,1.664-0.384,2.432v18.239h-9.471V505.922z"/>
		<path style="fill:#FFFFFF;" d="M724.303,527.232c0.128-2.048,0.256-5.824,0.256-9.344v-36.093h9.727v17.854h0.128
			c1.856-2.688,5.12-4.416,9.472-4.416c7.487,0,12.991,6.208,12.927,15.807c0,11.264-7.167,16.896-14.335,16.896
			c-3.647,0-7.167-1.345-9.407-5.056h-0.128l-0.384,4.352H724.303z M734.285,513.921c0,0.641,0.064,1.216,0.192,1.729
			c0.64,2.623,2.88,4.607,5.695,4.607c4.16,0,6.72-3.2,6.72-8.831c0-4.864-2.176-8.704-6.72-8.704c-2.624,0-5.056,1.984-5.695,4.8
			c-0.128,0.576-0.192,1.152-0.192,1.792V513.921z"/>
		<path style="fill:#FFFFFF;" d="M770.317,514.689c0.319,4.031,4.287,5.951,8.831,5.951c3.328,0,6.016-0.448,8.64-1.28l1.279,6.592
			c-3.199,1.28-7.104,1.92-11.327,1.92c-10.623,0-16.702-6.144-16.702-15.935c0-7.936,4.928-16.703,15.807-16.703
			c10.111,0,13.951,7.871,13.951,15.615c0,1.664-0.192,3.136-0.32,3.84H770.317z M781.772,508.033c0-2.367-1.024-6.335-5.504-6.335
			c-4.096,0-5.76,3.712-6.016,6.335H781.772z"/>
		<path style="fill:#FFFFFF;" d="M826.955,481.796v36.093c0,3.52,0.129,7.231,0.257,9.344h-8.64l-0.448-4.607h-0.128
			c-1.983,3.52-5.76,5.312-9.791,5.312c-7.424,0-13.375-6.336-13.375-16.063c-0.064-10.559,6.527-16.639,14.015-16.639
			c3.84,0,6.848,1.344,8.256,3.52h0.128v-16.958H826.955z M817.229,509.186c0-0.512-0.064-1.216-0.128-1.728
			c-0.576-2.624-2.688-4.8-5.696-4.8c-4.415,0-6.719,3.968-6.719,8.896c0,5.312,2.623,8.639,6.655,8.639
			c2.815,0,5.056-1.92,5.632-4.671c0.191-0.704,0.256-1.408,0.256-2.24V509.186z"/>
		<path style="fill:#FFFFFF;" d="M865.099,481.796v36.093c0,3.52,0.129,7.231,0.257,9.344h-8.64l-0.448-4.607h-0.128
			c-1.983,3.52-5.76,5.312-9.791,5.312c-7.424,0-13.375-6.336-13.375-16.063c-0.064-10.559,6.527-16.639,14.015-16.639
			c3.84,0,6.848,1.344,8.256,3.52h0.128v-16.958H865.099z M855.372,509.186c0-0.512-0.064-1.216-0.128-1.728
			c-0.576-2.624-2.688-4.8-5.696-4.8c-4.415,0-6.719,3.968-6.719,8.896c0,5.312,2.623,8.639,6.655,8.639
			c2.815,0,5.056-1.92,5.632-4.671c0.191-0.704,0.256-1.408,0.256-2.24V509.186z"/>
		<path style="fill:#FFFFFF;" d="M880.396,514.689c0.319,4.031,4.287,5.951,8.831,5.951c3.328,0,6.016-0.448,8.64-1.28l1.279,6.592
			c-3.199,1.28-7.104,1.92-11.327,1.92c-10.623,0-16.702-6.144-16.702-15.935c0-7.936,4.928-16.703,15.807-16.703
			c10.111,0,13.951,7.871,13.951,15.615c0,1.664-0.192,3.136-0.32,3.84H880.396z M891.852,508.033c0-2.367-1.024-6.335-5.504-6.335
			c-4.096,0-5.76,3.712-6.016,6.335H891.852z"/>
		<path style="fill:#FFFFFF;" d="M937.034,481.796v36.093c0,3.52,0.129,7.231,0.257,9.344h-8.64l-0.448-4.607h-0.128
			c-1.983,3.52-5.76,5.312-9.791,5.312c-7.424,0-13.375-6.336-13.375-16.063c-0.064-10.559,6.527-16.639,14.015-16.639
			c3.84,0,6.848,1.344,8.256,3.52h0.128v-16.958H937.034z M927.308,509.186c0-0.512-0.064-1.216-0.128-1.728
			c-0.576-2.624-2.688-4.8-5.696-4.8c-4.415,0-6.719,3.968-6.719,8.896c0,5.312,2.623,8.639,6.655,8.639
			c2.815,0,5.056-1.92,5.632-4.671c0.191-0.704,0.256-1.408,0.256-2.24V509.186z"/>
	</g>
	<rect x="430.485" y="353.999" style="fill:#FFFFFF;" width="8.412" height="52.998"/>
	<polygon style="fill:#FFFFFF;" points="465.097,390.402 434.691,420.808 404.286,390.402 434.691,406.997 	"/>
	<g>
		<path style="fill:#FFFFFF;" d="M337.259,456.1h9.728v27.262c0,12.287-5.888,16.575-15.359,16.575c-2.24,0-5.184-0.385-7.104-1.024
			l1.088-7.871c1.344,0.447,3.072,0.768,4.992,0.768c4.096,0,6.655-1.855,6.655-8.575V456.1z"/>
		<path style="fill:#FFFFFF;" d="M372.586,499.232l-0.576-3.136h-0.192c-2.048,2.495-5.248,3.84-8.959,3.84
			c-6.335,0-10.111-4.608-10.111-9.6c0-8.128,7.295-12.031,18.367-11.967v-0.448c0-1.664-0.896-4.032-5.696-4.032
			c-3.2,0-6.591,1.088-8.639,2.368l-1.792-6.271c2.176-1.216,6.463-2.752,12.159-2.752c10.431,0,13.759,6.144,13.759,13.503v10.88
			c0,3.008,0.128,5.887,0.448,7.615H372.586z M371.434,484.449c-5.12-0.063-9.087,1.152-9.087,4.928c0,2.496,1.664,3.712,3.84,3.712
			c2.432,0,4.416-1.601,5.056-3.584c0.128-0.512,0.192-1.088,0.192-1.664V484.449z"/>
		<path style="fill:#FFFFFF;" d="M395.819,467.938l4.224,14.527c0.768,2.623,1.344,5.119,1.792,7.615h0.192
			c0.512-2.56,1.024-4.928,1.728-7.615l4.032-14.527h10.239l-11.647,31.294h-9.727l-11.391-31.294H395.819z"/>
		<path style="fill:#FFFFFF;" d="M440.298,499.232l-0.576-3.136h-0.192c-2.048,2.495-5.248,3.84-8.959,3.84
			c-6.335,0-10.111-4.608-10.111-9.6c0-8.128,7.295-12.031,18.367-11.967v-0.448c0-1.664-0.896-4.032-5.696-4.032
			c-3.2,0-6.591,1.088-8.639,2.368l-1.792-6.271c2.176-1.216,6.463-2.752,12.159-2.752c10.431,0,13.759,6.144,13.759,13.503v10.88
			c0,3.008,0.128,5.887,0.448,7.615H440.298z M439.146,484.449c-5.12-0.063-9.087,1.152-9.087,4.928c0,2.496,1.664,3.712,3.84,3.712
			c2.432,0,4.416-1.601,5.056-3.584c0.128-0.512,0.192-1.088,0.192-1.664V484.449z"/>
		<path style="fill:#FFFFFF;" d="M506.024,482.722c-0.192-5.184-0.384-11.455-0.384-17.727h-0.192
			c-1.344,5.503-3.136,11.646-4.8,16.702l-5.248,16.831h-7.615l-4.608-16.703c-1.408-5.056-2.879-11.199-3.903-16.83h-0.128
			c-0.256,5.823-0.448,12.479-0.768,17.854l-0.768,16.383h-9.023l2.752-43.133h12.991l4.224,14.398
			c1.344,4.992,2.688,10.367,3.647,15.423h0.192c1.216-4.991,2.688-10.687,4.096-15.486l4.608-14.335h12.734l2.368,43.133h-9.535
			L506.024,482.722z"/>
		<path style="fill:#FFFFFF;" d="M549.353,480.993h-15.871v10.239h17.727v8H523.69V456.1h26.622v7.999h-16.831v8.959h15.871V480.993
			z"/>
	</g>
</g>
<g id="jfx:p07">
	
		<image style="overflow:visible;" width="159" height="101" xlink:href="322829E6.jpg"  transform="matrix(0.9999 0 0 0.9999 94.0171 558.4492)">
	</image>
	
		<image style="overflow:visible;" width="400" height="285" xlink:href="322829E9.jpg"  transform="matrix(0.4162 0 0 0.4162 355.5249 548.6367)">
	</image>
	
		<image style="overflow:visible;" width="304" height="448" xlink:href="322829EA.jpg"  transform="matrix(0.3816 0 0 0.3816 728 548.6367)">
	</image>
</g>
</svg>
