<?xml version="1.0" encoding="iso-8859-1"?>
<!-- Generator: Adobe Illustrator 16.1.1, SVG Export Plug-In . SVG Version: 6.00 Build 0)  -->
<!DOCTYPE svg PUBLIC "-//W3C//DTD SVG 1.1//EN" "http://www.w3.org/Graphics/SVG/1.1/DTD/svg11.dtd">
<svg version="1.1" xmlns="http://www.w3.org/2000/svg" xmlns:xlink="http://www.w3.org/1999/xlink" x="0px" y="0px" width="1024px"
	 height="768px" viewBox="0 0 1024 768" style="enable-background:new 0 0 1024 768;" xml:space="preserve">
<g id="jfx:p00">
	<image style="overflow:visible;" width="1024" height="768" xlink:href="184B605F.jpg" >
	</image>
</g>
<g id="jfx:p01">
	<rect style="opacity:0.5;" width="1024" height="768"/>
</g>
<g id="jfx:p02">
	<g>
		<path style="fill:#F8981D;" d="M70.302,51.446h15.201v42.603c0,19.201-9.2,25.902-24.001,25.902c-3.5,0-8.1-0.6-11.101-1.6
			l1.7-12.301c2.1,0.7,4.8,1.2,7.8,1.2c6.4,0,10.401-2.9,10.401-13.401V51.446z"/>
		<path style="fill:#F8981D;" d="M125.502,118.851l-0.9-4.9h-0.3c-3.2,3.9-8.201,6-14.001,6c-9.9,0-15.801-7.201-15.801-15.001
			c0-12.701,11.4-18.801,28.702-18.701v-0.7c0-2.6-1.4-6.3-8.901-6.3c-5,0-10.3,1.7-13.5,3.7l-2.8-9.8
			c3.4-1.9,10.101-4.3,19.001-4.3c16.301,0,21.501,9.601,21.501,21.101v17.001c0,4.701,0.2,9.201,0.7,11.901H125.502z
			 M123.703,95.749c-8-0.1-14.201,1.8-14.201,7.701c0,3.9,2.601,5.8,6,5.8c3.8,0,6.9-2.5,7.9-5.601c0.2-0.8,0.3-1.7,0.3-2.6V95.749z
			"/>
		<path style="fill:#F8981D;" d="M161.801,69.948l6.601,22.701c1.2,4.1,2.1,8,2.8,11.901h0.3c0.8-4,1.6-7.701,2.7-11.901l6.3-22.701
			h16.001l-18.201,48.903h-15.201L145.3,69.948H161.801z"/>
		<path style="fill:#F8981D;" d="M231.302,118.851l-0.9-4.9h-0.3c-3.2,3.9-8.201,6-14.001,6c-9.9,0-15.801-7.201-15.801-15.001
			c0-12.701,11.4-18.801,28.702-18.701v-0.7c0-2.6-1.4-6.3-8.901-6.3c-5,0-10.3,1.7-13.5,3.7l-2.8-9.8
			c3.4-1.9,10.101-4.3,19.001-4.3c16.301,0,21.501,9.601,21.501,21.101v17.001c0,4.701,0.2,9.201,0.7,11.901H231.302z
			 M229.502,95.749c-8-0.1-14.201,1.8-14.201,7.701c0,3.9,2.601,5.8,6,5.8c3.8,0,6.9-2.5,7.9-5.601c0.2-0.8,0.3-1.7,0.3-2.6V95.749z
			"/>
		<path style="fill:#F8981D;" d="M277.5,103.149c4.1,2.101,10.4,4.201,16.901,4.201c7,0,10.701-2.9,10.701-7.301
			c0-4.2-3.2-6.6-11.301-9.5c-11.201-3.9-18.501-10.101-18.501-19.901c0-11.5,9.601-20.301,25.501-20.301
			c7.601,0,13.201,1.6,17.201,3.4l-3.4,12.301c-2.7-1.3-7.5-3.2-14.101-3.2c-6.601,0-9.801,3-9.801,6.5c0,4.3,3.8,6.2,12.501,9.5
			c11.9,4.4,17.501,10.601,17.501,20.101c0,11.301-8.701,20.901-27.202,20.901c-7.701,0-15.301-2-19.101-4.1L277.5,103.149z"/>
		<path style="fill:#F8981D;" d="M371.102,90.349h-24.801v16.001h27.702v12.501H331V51.446h41.603v12.501h-26.302v14.001h24.801
			V90.349z"/>
		<path style="fill:#F8981D;" d="M444.701,90.349H419.9v16.001h27.702v12.501h-43.002V51.446h41.602v12.501H419.9v14.001h24.801
			V90.349z"/>
		<path style="fill:#F8981D;" d="M457.499,85.548c0-6.1-0.2-11.3-0.4-15.601h12.801l0.7,6.6h0.3c2.101-3.1,6.4-7.7,14.801-7.7
			c6.301,0,11.301,3.2,13.401,8.3h0.2c1.8-2.5,4-4.5,6.3-5.9c2.7-1.6,5.7-2.4,9.301-2.4c9.4,0,16.501,6.6,16.501,21.201v28.802
			h-14.801V92.249c0-7.101-2.3-11.201-7.2-11.201c-3.501,0-6.001,2.4-7.001,5.3c-0.399,1.1-0.6,2.7-0.6,3.9v28.602h-14.801V91.449
			c0-6.2-2.2-10.4-7.001-10.4c-3.9,0-6.2,3-7.101,5.5c-0.5,1.2-0.6,2.6-0.6,3.8v28.502h-14.801V85.548z"/>
		<path style="fill:#F8981D;" d="M543.098,118.851c0.2-3.2,0.4-9.101,0.4-14.601V47.846h15.201v27.902h0.199
			c2.9-4.2,8.001-6.9,14.801-6.9c11.701,0,20.302,9.701,20.202,24.701c0,17.601-11.201,26.402-22.401,26.402
			c-5.701,0-11.201-2.1-14.701-7.9h-0.2l-0.6,6.8H543.098z M558.699,98.049c0,1,0.1,1.9,0.3,2.7c1,4.1,4.5,7.2,8.9,7.2
			c6.5,0,10.501-5,10.501-13.801c0-7.6-3.4-13.601-10.501-13.601c-4.101,0-7.9,3.1-8.9,7.5c-0.2,0.9-0.3,1.8-0.3,2.8V98.049z"/>
		<path style="fill:#F8981D;" d="M614.997,99.25c0.5,6.3,6.701,9.3,13.801,9.3c5.201,0,9.401-0.7,13.501-2l2,10.301
			c-5,2-11.101,3-17.701,3c-16.601,0-26.102-9.601-26.102-24.901c0-12.401,7.701-26.102,24.702-26.102
			c15.801,0,21.801,12.301,21.801,24.401c0,2.6-0.3,4.9-0.5,6H614.997z M632.898,88.849c0-3.7-1.6-9.9-8.601-9.9
			c-6.4,0-9,5.8-9.4,9.9H632.898z"/>
		<path style="fill:#F8981D;" d="M703.499,47.846v56.403c0,5.5,0.2,11.301,0.4,14.601h-13.501l-0.7-7.2h-0.2
			c-3.1,5.5-9,8.3-15.301,8.3c-11.601,0-20.901-9.901-20.901-25.102c-0.1-16.501,10.201-26.001,21.901-26.001
			c6.001,0,10.701,2.1,12.901,5.5h0.2V47.846H703.499z M688.299,90.649c0-0.8-0.101-1.9-0.2-2.7c-0.9-4.1-4.2-7.5-8.9-7.5
			c-6.9,0-10.501,6.2-10.501,13.901c0,8.3,4.101,13.501,10.4,13.501c4.4,0,7.9-3,8.801-7.301c0.3-1.1,0.4-2.2,0.4-3.5V90.649z"/>
		<path style="fill:#F8981D;" d="M763.099,47.846v56.403c0,5.5,0.2,11.301,0.4,14.601h-13.501l-0.7-7.2h-0.2
			c-3.1,5.5-9,8.3-15.301,8.3c-11.601,0-20.901-9.901-20.901-25.102c-0.1-16.501,10.201-26.001,21.901-26.001
			c6.001,0,10.701,2.1,12.901,5.5h0.2V47.846H763.099z M747.898,90.649c0-0.8-0.101-1.9-0.2-2.7c-0.9-4.1-4.2-7.5-8.9-7.5
			c-6.9,0-10.501,6.2-10.501,13.901c0,8.3,4.101,13.501,10.4,13.501c4.4,0,7.9-3,8.801-7.301c0.3-1.1,0.4-2.2,0.4-3.5V90.649z"/>
		<path style="fill:#F8981D;" d="M786.996,99.25c0.5,6.3,6.701,9.3,13.801,9.3c5.2,0,9.401-0.7,13.501-2l2,10.301
			c-5,2-11.101,3-17.701,3c-16.601,0-26.102-9.601-26.102-24.901c0-12.401,7.701-26.102,24.702-26.102
			c15.801,0,21.801,12.301,21.801,24.401c0,2.6-0.3,4.9-0.5,6H786.996z M804.897,88.849c0-3.7-1.6-9.9-8.601-9.9
			c-6.4,0-9,5.8-9.4,9.9H804.897z"/>
		<path style="fill:#F8981D;" d="M875.498,47.846v56.403c0,5.5,0.2,11.301,0.4,14.601h-13.501l-0.7-7.2h-0.2
			c-3.1,5.5-9,8.3-15.301,8.3c-11.601,0-20.901-9.901-20.901-25.102c-0.1-16.501,10.201-26.001,21.901-26.001
			c6.001,0,10.701,2.1,12.901,5.5h0.2V47.846H875.498z M860.298,90.649c0-0.8-0.101-1.9-0.2-2.7c-0.9-4.1-4.2-7.5-8.9-7.5
			c-6.9,0-10.501,6.2-10.501,13.901c0,8.3,4.101,13.501,10.4,13.501c4.4,0,7.9-3,8.801-7.301c0.3-1.1,0.4-2.2,0.4-3.5V90.649z"/>
	</g>
</g>
<g id="jfx:p03">
	<g>
		<path style="fill:#F8981D;" d="M70.302,51.446h15.201v42.603c0,19.201-9.2,25.902-24.001,25.902c-3.5,0-8.1-0.6-11.101-1.6
			l1.7-12.301c2.1,0.7,4.8,1.2,7.8,1.2c6.4,0,10.401-2.9,10.401-13.401V51.446z"/>
		<path style="fill:#F8981D;" d="M125.502,118.851l-0.9-4.9h-0.3c-3.2,3.9-8.201,6-14.001,6c-9.9,0-15.801-7.201-15.801-15.001
			c0-12.701,11.4-18.801,28.702-18.701v-0.7c0-2.6-1.4-6.3-8.901-6.3c-5,0-10.3,1.7-13.5,3.7l-2.8-9.8
			c3.4-1.9,10.101-4.3,19.001-4.3c16.301,0,21.501,9.601,21.501,21.101v17.001c0,4.701,0.2,9.201,0.7,11.901H125.502z
			 M123.703,95.749c-8-0.1-14.201,1.8-14.201,7.701c0,3.9,2.601,5.8,6,5.8c3.8,0,6.9-2.5,7.9-5.601c0.2-0.8,0.3-1.7,0.3-2.6V95.749z
			"/>
		<path style="fill:#F8981D;" d="M161.801,69.948l6.601,22.701c1.2,4.1,2.1,8,2.8,11.901h0.3c0.8-4,1.6-7.701,2.7-11.901l6.3-22.701
			h16.001l-18.201,48.903h-15.201L145.3,69.948H161.801z"/>
		<path style="fill:#F8981D;" d="M231.302,118.851l-0.9-4.9h-0.3c-3.2,3.9-8.201,6-14.001,6c-9.9,0-15.801-7.201-15.801-15.001
			c0-12.701,11.4-18.801,28.702-18.701v-0.7c0-2.6-1.4-6.3-8.901-6.3c-5,0-10.3,1.7-13.5,3.7l-2.8-9.8
			c3.4-1.9,10.101-4.3,19.001-4.3c16.301,0,21.501,9.601,21.501,21.101v17.001c0,4.701,0.2,9.201,0.7,11.901H231.302z
			 M229.502,95.749c-8-0.1-14.201,1.8-14.201,7.701c0,3.9,2.601,5.8,6,5.8c3.8,0,6.9-2.5,7.9-5.601c0.2-0.8,0.3-1.7,0.3-2.6V95.749z
			"/>
		<path style="fill:#F8981D;" d="M277.5,103.149c4.1,2.101,10.4,4.201,16.901,4.201c7,0,10.701-2.9,10.701-7.301
			c0-4.2-3.2-6.6-11.301-9.5c-11.201-3.9-18.501-10.101-18.501-19.901c0-11.5,9.601-20.301,25.501-20.301
			c7.601,0,13.201,1.6,17.201,3.4l-3.4,12.301c-2.7-1.3-7.5-3.2-14.101-3.2c-6.601,0-9.801,3-9.801,6.5c0,4.3,3.8,6.2,12.501,9.5
			c11.9,4.4,17.501,10.601,17.501,20.101c0,11.301-8.701,20.901-27.202,20.901c-7.701,0-15.301-2-19.101-4.1L277.5,103.149z"/>
		<path style="fill:#F8981D;" d="M371.102,90.349h-24.801v16.001h27.702v12.501H331V51.446h41.603v12.501h-26.302v14.001h24.801
			V90.349z"/>
		<path style="fill:#F8981D;" d="M444.701,90.349H419.9v16.001h27.702v12.501h-43.002V51.446h41.602v12.501H419.9v14.001h24.801
			V90.349z"/>
		<path style="fill:#F8981D;" d="M457.499,85.548c0-6.1-0.2-11.3-0.4-15.601h12.801l0.7,6.6h0.3c2.101-3.1,6.4-7.7,14.801-7.7
			c6.301,0,11.301,3.2,13.401,8.3h0.2c1.8-2.5,4-4.5,6.3-5.9c2.7-1.6,5.7-2.4,9.301-2.4c9.4,0,16.501,6.6,16.501,21.201v28.802
			h-14.801V92.249c0-7.101-2.3-11.201-7.2-11.201c-3.501,0-6.001,2.4-7.001,5.3c-0.399,1.1-0.6,2.7-0.6,3.9v28.602h-14.801V91.449
			c0-6.2-2.2-10.4-7.001-10.4c-3.9,0-6.2,3-7.101,5.5c-0.5,1.2-0.6,2.6-0.6,3.8v28.502h-14.801V85.548z"/>
		<path style="fill:#F8981D;" d="M543.098,118.851c0.2-3.2,0.4-9.101,0.4-14.601V47.846h15.201v27.902h0.199
			c2.9-4.2,8.001-6.9,14.801-6.9c11.701,0,20.302,9.701,20.202,24.701c0,17.601-11.201,26.402-22.401,26.402
			c-5.701,0-11.201-2.1-14.701-7.9h-0.2l-0.6,6.8H543.098z M558.699,98.049c0,1,0.1,1.9,0.3,2.7c1,4.1,4.5,7.2,8.9,7.2
			c6.5,0,10.501-5,10.501-13.801c0-7.6-3.4-13.601-10.501-13.601c-4.101,0-7.9,3.1-8.9,7.5c-0.2,0.9-0.3,1.8-0.3,2.8V98.049z"/>
		<path style="fill:#F8981D;" d="M614.997,99.25c0.5,6.3,6.701,9.3,13.801,9.3c5.201,0,9.401-0.7,13.501-2l2,10.301
			c-5,2-11.101,3-17.701,3c-16.601,0-26.102-9.601-26.102-24.901c0-12.401,7.701-26.102,24.702-26.102
			c15.801,0,21.801,12.301,21.801,24.401c0,2.6-0.3,4.9-0.5,6H614.997z M632.898,88.849c0-3.7-1.6-9.9-8.601-9.9
			c-6.4,0-9,5.8-9.4,9.9H632.898z"/>
		<path style="fill:#F8981D;" d="M703.499,47.846v56.403c0,5.5,0.2,11.301,0.4,14.601h-13.501l-0.7-7.2h-0.2
			c-3.1,5.5-9,8.3-15.301,8.3c-11.601,0-20.901-9.901-20.901-25.102c-0.1-16.501,10.201-26.001,21.901-26.001
			c6.001,0,10.701,2.1,12.901,5.5h0.2V47.846H703.499z M688.299,90.649c0-0.8-0.101-1.9-0.2-2.7c-0.9-4.1-4.2-7.5-8.9-7.5
			c-6.9,0-10.501,6.2-10.501,13.901c0,8.3,4.101,13.501,10.4,13.501c4.4,0,7.9-3,8.801-7.301c0.3-1.1,0.4-2.2,0.4-3.5V90.649z"/>
		<path style="fill:#F8981D;" d="M763.099,47.846v56.403c0,5.5,0.2,11.301,0.4,14.601h-13.501l-0.7-7.2h-0.2
			c-3.1,5.5-9,8.3-15.301,8.3c-11.601,0-20.901-9.901-20.901-25.102c-0.1-16.501,10.201-26.001,21.901-26.001
			c6.001,0,10.701,2.1,12.901,5.5h0.2V47.846H763.099z M747.898,90.649c0-0.8-0.101-1.9-0.2-2.7c-0.9-4.1-4.2-7.5-8.9-7.5
			c-6.9,0-10.501,6.2-10.501,13.901c0,8.3,4.101,13.501,10.4,13.501c4.4,0,7.9-3,8.801-7.301c0.3-1.1,0.4-2.2,0.4-3.5V90.649z"/>
		<path style="fill:#F8981D;" d="M786.996,99.25c0.5,6.3,6.701,9.3,13.801,9.3c5.2,0,9.401-0.7,13.501-2l2,10.301
			c-5,2-11.101,3-17.701,3c-16.601,0-26.102-9.601-26.102-24.901c0-12.401,7.701-26.102,24.702-26.102
			c15.801,0,21.801,12.301,21.801,24.401c0,2.6-0.3,4.9-0.5,6H786.996z M804.897,88.849c0-3.7-1.6-9.9-8.601-9.9
			c-6.4,0-9,5.8-9.4,9.9H804.897z"/>
		<path style="fill:#F8981D;" d="M875.498,47.846v56.403c0,5.5,0.2,11.301,0.4,14.601h-13.501l-0.7-7.2h-0.2
			c-3.1,5.5-9,8.3-15.301,8.3c-11.601,0-20.901-9.901-20.901-25.102c-0.1-16.501,10.201-26.001,21.901-26.001
			c6.001,0,10.701,2.1,12.901,5.5h0.2V47.846H875.498z M860.298,90.649c0-0.8-0.101-1.9-0.2-2.7c-0.9-4.1-4.2-7.5-8.9-7.5
			c-6.9,0-10.501,6.2-10.501,13.901c0,8.3,4.101,13.501,10.4,13.501c4.4,0,7.9-3,8.801-7.301c0.3-1.1,0.4-2.2,0.4-3.5V90.649z"/>
	</g>
</g>
<g id="jfx:p04">
	<g>
		<path style="fill:#FFFFFF;" d="M74.694,245.845l-10.239-43.133h10.431l3.264,17.791c0.96,5.12,1.856,10.688,2.56,15.039h0.128
			c0.704-4.672,1.728-9.855,2.816-15.167l3.647-17.663h10.367l3.456,18.175c0.96,5.056,1.664,9.663,2.304,14.463h0.128
			c0.64-4.8,1.6-9.855,2.496-14.975l3.52-17.663h9.919l-11.135,43.133H97.797l-3.648-18.559c-0.832-4.352-1.536-8.383-2.048-13.311
			h-0.128c-0.768,4.864-1.472,8.959-2.496,13.311l-4.096,18.559H74.694z"/>
		<path style="fill:#FFFFFF;" d="M134.277,205.848c0,2.688-2.048,4.864-5.248,4.864c-3.071,0-5.119-2.176-5.055-4.864
			c-0.064-2.816,1.984-4.928,5.12-4.928S134.213,203.032,134.277,205.848z M124.23,245.845v-31.294h9.727v31.294H124.23z"/>
		<path style="fill:#FFFFFF;" d="M141.765,224.534c0-3.904-0.128-7.231-0.256-9.983h8.447l0.448,4.288h0.192
			c1.28-1.984,4.48-4.992,9.664-4.992c6.399,0,11.199,4.224,11.199,13.439v18.559h-9.728v-17.343c0-4.032-1.408-6.784-4.928-6.784
			c-2.688,0-4.288,1.856-4.927,3.648c-0.256,0.576-0.384,1.536-0.384,2.432v18.047h-9.727V224.534z"/>
		<path style="fill:#FFFFFF;" d="M176.389,248.404l13.695-46.396h6.464l-13.695,46.396H176.389z"/>
		<path style="fill:#FFFFFF;" d="M207.876,214.551l3.072,5.184c0.896,1.6,1.728,3.2,2.56,4.672h0.128
			c0.832-1.664,1.6-3.264,2.432-4.8l2.752-5.056h10.559l-10.303,14.911l10.431,16.383h-11.007l-3.136-5.632
			c-0.896-1.536-1.664-3.136-2.432-4.735h-0.192c-0.768,1.664-1.6,3.2-2.368,4.735l-2.944,5.632h-10.688l10.624-15.935
			l-10.368-15.359H207.876z"/>
		<path style="fill:#FFFFFF;" d="M231.813,234.965c0-4.992,2.88-8.447,7.423-10.431v-0.192c-4.032-2.048-6.016-5.439-6.016-9.087
			c0-7.04,6.336-11.711,14.655-11.711c9.727,0,13.759,5.631,13.759,10.687c0,3.584-1.92,7.104-6.016,9.151v0.192
			c4.032,1.536,7.616,4.992,7.616,10.367c0,7.552-6.336,12.607-15.999,12.607C236.676,246.549,231.813,240.597,231.813,234.965z
			 M253.315,234.646c0-3.647-2.688-5.824-6.527-6.848c-3.2,0.896-5.056,3.2-5.056,6.208c-0.064,3.008,2.24,5.824,5.887,5.824
			C251.075,239.829,253.315,237.589,253.315,234.646z M242.372,214.935c0,2.816,2.56,4.607,5.888,5.631
			c2.24-0.64,4.224-2.688,4.224-5.312c0-2.56-1.472-5.12-5.056-5.12C244.1,210.135,242.372,212.311,242.372,214.935z"/>
		<path style="fill:#FFFFFF;" d="M294.53,211.159c-1.088-0.064-2.24,0-3.776,0.128c-8.64,0.704-12.479,5.12-13.567,9.983h0.192
			c2.048-2.112,4.928-3.328,8.831-3.328c6.976,0,12.863,4.928,12.863,13.567c0,8.255-6.335,15.039-15.359,15.039
			c-11.071,0-16.511-8.255-16.511-18.175c0-7.808,2.88-14.335,7.359-18.495c4.16-3.776,9.535-5.824,16.063-6.144
			c1.792-0.128,2.944-0.128,3.904-0.064V211.159z M289.218,232.021c0-3.839-2.048-7.167-6.208-7.167c-2.624,0-4.799,1.6-5.759,3.711
			c-0.256,0.512-0.384,1.28-0.384,2.432c0.192,4.416,2.304,8.383,6.72,8.383C287.042,239.381,289.218,236.246,289.218,232.021z"/>
		<path style="fill:#FFFFFF;" d="M300.932,253.46c1.984-5.695,3.712-12.351,4.608-18.174l9.919-0.64
			c-2.112,6.527-4.992,13.247-8.063,18.239L300.932,253.46z"/>
		<path style="fill:#FFFFFF;" d="M328.771,214.551l3.072,5.184c0.896,1.6,1.728,3.2,2.56,4.672h0.128
			c0.832-1.664,1.6-3.264,2.432-4.8l2.752-5.056h10.559l-10.303,14.911l10.431,16.383h-11.007l-3.136-5.632
			c-0.896-1.536-1.664-3.136-2.432-4.735h-0.192c-0.768,1.664-1.6,3.2-2.368,4.735l-2.944,5.632h-10.688l10.624-15.935
			l-10.368-15.359H328.771z"/>
		<path style="fill:#FFFFFF;" d="M379.905,211.159c-1.088-0.064-2.24,0-3.776,0.128c-8.64,0.704-12.479,5.12-13.567,9.983h0.192
			c2.048-2.112,4.928-3.328,8.831-3.328c6.976,0,12.863,4.928,12.863,13.567c0,8.255-6.335,15.039-15.359,15.039
			c-11.071,0-16.511-8.255-16.511-18.175c0-7.808,2.88-14.335,7.359-18.495c4.16-3.776,9.535-5.824,16.063-6.144
			c1.792-0.128,2.944-0.128,3.904-0.064V211.159z M374.593,232.021c0-3.839-2.048-7.167-6.208-7.167c-2.624,0-4.799,1.6-5.759,3.711
			c-0.256,0.512-0.384,1.28-0.384,2.432c0.192,4.416,2.304,8.383,6.72,8.383C372.417,239.381,374.593,236.246,374.593,232.021z"/>
		<path style="fill:#FFFFFF;" d="M406.081,245.845v-9.919H387.65v-6.335l15.743-25.342h11.903v24.382h4.992v7.295h-4.992v9.919
			H406.081z M406.081,228.63v-9.215c0-2.496,0.128-5.056,0.32-7.743h-0.256c-1.344,2.688-2.432,5.12-3.84,7.743l-5.568,9.087v0.128
			H406.081z"/>
	</g>
	<g>
		<path style="fill:#FFFFFF;" d="M104.196,298.001c-0.192-5.184-0.384-11.455-0.384-17.727h-0.192
			c-1.344,5.503-3.136,11.647-4.8,16.703l-5.248,16.831h-7.615l-4.608-16.703c-1.408-5.056-2.879-11.199-3.903-16.831h-0.128
			c-0.256,5.823-0.448,12.479-0.768,17.854l-0.768,16.383h-9.023l2.752-43.133h12.991l4.224,14.399
			c1.344,4.992,2.688,10.367,3.647,15.423h0.192c1.216-4.992,2.688-10.687,4.096-15.487l4.608-14.335h12.735l2.368,43.133h-9.536
			L104.196,298.001z"/>
		<path style="fill:#FFFFFF;" d="M139.333,314.512l-0.576-3.136h-0.192c-2.048,2.496-5.248,3.84-8.959,3.84
			c-6.335,0-10.111-4.608-10.111-9.6c0-8.127,7.295-12.031,18.367-11.967v-0.448c0-1.664-0.896-4.032-5.696-4.032
			c-3.2,0-6.591,1.088-8.639,2.368l-1.792-6.272c2.176-1.216,6.463-2.751,12.159-2.751c10.431,0,13.759,6.144,13.759,13.503v10.879
			c0,3.008,0.128,5.887,0.448,7.615H139.333z M138.181,299.729c-5.12-0.064-9.087,1.152-9.087,4.927c0,2.496,1.664,3.712,3.84,3.712
			c2.432,0,4.416-1.6,5.056-3.584c0.128-0.512,0.192-1.088,0.192-1.664V299.729z"/>
		<path style="fill:#FFFFFF;" d="M178.821,313.744c-1.728,0.768-4.992,1.408-8.704,1.408c-10.111,0-16.575-6.144-16.575-15.999
			c0-9.151,6.271-16.639,17.919-16.639c2.56,0,5.375,0.448,7.423,1.216l-1.536,7.231c-1.152-0.512-2.88-0.96-5.439-0.96
			c-5.12,0-8.447,3.648-8.383,8.768c0,5.759,3.84,8.767,8.575,8.767c2.304,0,4.096-0.384,5.568-0.96L178.821,313.744z"/>
		<path style="fill:#FFFFFF;" d="M181.318,317.071l13.695-46.396h6.464l-13.695,46.396H181.318z"/>
		<path style="fill:#FFFFFF;" d="M212.805,283.218l3.072,5.184c0.896,1.6,1.728,3.2,2.56,4.672h0.128
			c0.832-1.664,1.6-3.264,2.432-4.8l2.752-5.056h10.559l-10.303,14.911l10.431,16.383h-11.007l-3.136-5.632
			c-0.896-1.536-1.664-3.136-2.432-4.735h-0.192c-0.768,1.664-1.6,3.2-2.368,4.735l-2.944,5.632h-10.688l10.624-15.935
			l-10.368-15.359H212.805z"/>
		<path style="fill:#FFFFFF;" d="M263.939,279.826c-1.088-0.064-2.24,0-3.776,0.128c-8.64,0.704-12.479,5.12-13.567,9.983h0.192
			c2.048-2.112,4.928-3.328,8.831-3.328c6.976,0,12.863,4.928,12.863,13.567c0,8.255-6.335,15.039-15.359,15.039
			c-11.071,0-16.511-8.255-16.511-18.175c0-7.808,2.88-14.335,7.359-18.495c4.16-3.776,9.535-5.824,16.063-6.144
			c1.792-0.128,2.944-0.128,3.904-0.064V279.826z M258.627,300.688c0-3.839-2.048-7.167-6.208-7.167c-2.624,0-4.799,1.6-5.759,3.711
			c-0.256,0.512-0.384,1.28-0.384,2.432c0.192,4.416,2.304,8.383,6.72,8.383C256.452,308.048,258.627,304.913,258.627,300.688z"/>
		<path style="fill:#FFFFFF;" d="M290.115,314.512v-9.919h-18.431v-6.335l15.743-25.342h11.903v24.382h4.992v7.295h-4.992v9.919
			H290.115z M290.115,297.297v-9.215c0-2.496,0.128-5.056,0.32-7.743h-0.256c-1.344,2.688-2.432,5.12-3.84,7.743l-5.568,9.087v0.128
			H290.115z"/>
	</g>
	<g>
		<path style="fill:#FFFFFF;" d="M68.039,373.13c2.624,1.344,6.656,2.688,10.815,2.688c4.479,0,6.848-1.856,6.848-4.672
			c0-2.688-2.048-4.224-7.231-6.08c-7.167-2.496-11.839-6.463-11.839-12.735c0-7.359,6.144-12.991,16.319-12.991
			c4.864,0,8.447,1.024,11.007,2.176l-2.176,7.872c-1.728-0.832-4.8-2.048-9.023-2.048s-6.271,1.92-6.271,4.16
			c0,2.752,2.432,3.968,7.999,6.08c7.616,2.816,11.199,6.784,11.199,12.863c0,7.231-5.567,13.375-17.407,13.375
			c-4.927,0-9.791-1.28-12.223-2.624L68.039,373.13z"/>
		<path style="fill:#FFFFFF;" d="M132.868,367.179c0,11.456-8.127,16.703-16.511,16.703c-9.151,0-16.191-6.016-16.191-16.127
			s6.656-16.575,16.703-16.575C126.469,351.18,132.868,357.771,132.868,367.179z M110.214,367.499c0,5.375,2.24,9.407,6.399,9.407
			c3.776,0,6.208-3.776,6.208-9.407c0-4.672-1.792-9.407-6.208-9.407C111.942,358.092,110.214,362.891,110.214,367.499z"/>
		<path style="fill:#FFFFFF;" d="M138.886,337.741h9.727v45.437h-9.727V337.741z"/>
		<path style="fill:#FFFFFF;" d="M174.276,383.178l-0.576-3.136h-0.192c-2.048,2.496-5.248,3.84-8.959,3.84
			c-6.335,0-10.111-4.608-10.111-9.6c0-8.127,7.295-12.031,18.367-11.967v-0.448c0-1.664-0.896-4.032-5.696-4.032
			c-3.2,0-6.591,1.088-8.639,2.368l-1.792-6.272c2.176-1.216,6.463-2.751,12.159-2.751c10.431,0,13.759,6.144,13.759,13.503v10.879
			c0,3.008,0.128,5.887,0.448,7.615H174.276z M173.125,368.395c-5.12-0.064-9.087,1.152-9.087,4.927c0,2.496,1.664,3.712,3.84,3.712
			c2.432,0,4.416-1.6,5.056-3.584c0.128-0.512,0.192-1.088,0.192-1.664V368.395z"/>
		<path style="fill:#FFFFFF;" d="M190.278,362.188c0-4.608-0.128-7.616-0.256-10.304h8.383l0.32,5.76h0.256
			c1.6-4.543,5.44-6.463,8.448-6.463c0.896,0,1.344,0,2.048,0.128v9.151c-0.704-0.128-1.536-0.256-2.624-0.256
			c-3.584,0-6.016,1.919-6.655,4.927c-0.128,0.64-0.192,1.408-0.192,2.176v15.871h-9.727V362.188z"/>
		<path style="fill:#FFFFFF;" d="M224.645,343.181c0,2.688-2.048,4.864-5.248,4.864c-3.071,0-5.119-2.176-5.055-4.864
			c-0.064-2.816,1.984-4.928,5.12-4.928S224.581,340.365,224.645,343.181z M214.597,383.178v-31.294h9.727v31.294H214.597z"/>
		<path style="fill:#FFFFFF;" d="M232.068,374.667c1.792,1.088,5.503,2.368,8.383,2.368c2.944,0,4.16-1.024,4.16-2.624
			c0-1.6-0.96-2.368-4.607-3.583c-6.464-2.176-8.959-5.696-8.896-9.407c0-5.824,4.992-10.239,12.735-10.239
			c3.648,0,6.912,0.832,8.832,1.792l-1.728,6.72c-1.408-0.768-4.096-1.792-6.783-1.792c-2.368,0-3.712,0.96-3.712,2.56
			c0,1.472,1.216,2.24,5.056,3.583c5.952,2.048,8.447,5.056,8.511,9.664c0,5.823-4.607,10.111-13.567,10.111
			c-4.096,0-7.744-0.896-10.111-2.176L232.068,374.667z"/>
		<path style="fill:#FFFFFF;" d="M257.028,385.737l13.695-46.396h6.464l-13.695,46.396H257.028z"/>
		<path style="fill:#FFFFFF;" d="M281.731,373.13c2.624,1.344,6.656,2.688,10.815,2.688c4.479,0,6.848-1.856,6.848-4.672
			c0-2.688-2.048-4.224-7.231-6.08c-7.167-2.496-11.839-6.463-11.839-12.735c0-7.359,6.144-12.991,16.319-12.991
			c4.864,0,8.447,1.024,11.007,2.176l-2.176,7.872c-1.728-0.832-4.8-2.048-9.023-2.048s-6.271,1.92-6.271,4.16
			c0,2.752,2.432,3.968,7.999,6.08c7.616,2.816,11.199,6.784,11.199,12.863c0,7.231-5.567,13.375-17.407,13.375
			c-4.927,0-9.791-1.28-12.223-2.624L281.731,373.13z"/>
		<path style="fill:#FFFFFF;" d="M315.971,340.621c3.008-0.512,7.231-0.896,13.183-0.896c6.016,0,10.303,1.152,13.183,3.456
			c2.752,2.176,4.607,5.76,4.607,9.983s-1.408,7.807-3.968,10.239c-3.328,3.136-8.255,4.543-14.015,4.543
			c-1.28,0-2.432-0.064-3.328-0.192v15.423h-9.664V340.621z M325.634,360.204c0.832,0.192,1.855,0.256,3.264,0.256
			c5.184,0,8.383-2.624,8.383-7.04c0-3.968-2.752-6.335-7.615-6.335c-1.984,0-3.328,0.192-4.032,0.384V360.204z"/>
		<path style="fill:#FFFFFF;" d="M363.202,372.106l-3.072,11.071h-10.111l13.183-43.133H376l13.375,43.133H378.88l-3.328-11.071
			H363.202z M374.145,364.811l-2.688-9.151c-0.768-2.56-1.536-5.759-2.176-8.319h-0.128c-0.64,2.56-1.28,5.824-1.984,8.319
			l-2.56,9.151H374.145z"/>
		<path style="fill:#FFFFFF;" d="M395.138,340.621c3.136-0.512,7.808-0.896,12.991-0.896c6.399,0,10.879,0.959,13.951,3.392
			c2.56,2.048,3.968,5.056,3.968,9.023c0,5.503-3.904,9.279-7.615,10.623v0.192c3.008,1.216,4.671,4.096,5.759,8.063
			c1.344,4.864,2.688,10.495,3.52,12.159h-9.983c-0.704-1.216-1.728-4.736-3.008-10.047c-1.152-5.375-3.008-6.847-6.976-6.912
			h-2.943v16.959h-9.664V340.621z M404.801,359.18h3.839c4.864,0,7.744-2.432,7.744-6.208c0-3.967-2.688-5.951-7.167-6.015
			c-2.368,0-3.712,0.192-4.416,0.32V359.18z"/>
		<path style="fill:#FFFFFF;" d="M464.767,381.962c-1.792,0.896-5.823,1.856-11.071,1.856c-14.911,0-22.59-9.279-22.59-21.566
			c0-14.719,10.495-22.911,23.55-22.911c5.056,0,8.896,1.024,10.623,1.92l-1.983,7.744c-1.984-0.832-4.735-1.6-8.191-1.6
			c-7.743,0-13.759,4.672-13.759,14.271c0,8.639,5.12,14.079,13.823,14.079c2.944,0,6.208-0.64,8.128-1.408L464.767,381.962z"/>
		<path style="fill:#FFFFFF;" d="M467.072,390.793c1.984-5.695,3.712-12.351,4.607-18.174l9.92-0.64
			c-2.112,6.527-4.992,13.247-8.063,18.238L467.072,390.793z"/>
		<path style="fill:#FFFFFF;" d="M488.128,373.13c2.623,1.344,6.655,2.688,10.814,2.688c4.48,0,6.848-1.856,6.848-4.672
			c0-2.688-2.048-4.224-7.231-6.08c-7.167-2.496-11.839-6.463-11.839-12.735c0-7.359,6.144-12.991,16.318-12.991
			c4.864,0,8.448,1.024,11.008,2.176l-2.176,7.872c-1.729-0.832-4.8-2.048-9.023-2.048s-6.271,1.92-6.271,4.16
			c0,2.752,2.432,3.968,7.999,6.08c7.615,2.816,11.199,6.784,11.199,12.863c0,7.231-5.567,13.375-17.406,13.375
			c-4.928,0-9.792-1.28-12.224-2.624L488.128,373.13z"/>
		<path style="fill:#FFFFFF;" d="M522.367,340.621c3.008-0.512,7.231-0.896,13.183-0.896c6.016,0,10.304,1.152,13.184,3.456
			c2.752,2.176,4.607,5.76,4.607,9.983s-1.408,7.807-3.968,10.239c-3.327,3.136-8.255,4.543-14.015,4.543
			c-1.28,0-2.432-0.064-3.328-0.192v15.423h-9.663V340.621z M532.03,360.204c0.832,0.192,1.856,0.256,3.264,0.256
			c5.184,0,8.384-2.624,8.384-7.04c0-3.968-2.752-6.335-7.615-6.335c-1.984,0-3.328,0.192-4.032,0.384V360.204z"/>
		<path style="fill:#FFFFFF;" d="M569.598,372.106l-3.071,11.071h-10.111l13.183-43.133h12.8l13.375,43.133h-10.495l-3.328-11.071
			H569.598z M580.541,364.811l-2.688-9.151c-0.768-2.56-1.536-5.759-2.176-8.319h-0.128c-0.64,2.56-1.28,5.824-1.984,8.319
			l-2.56,9.151H580.541z"/>
		<path style="fill:#FFFFFF;" d="M601.534,340.621c3.136-0.512,7.808-0.896,12.991-0.896c6.399,0,10.879,0.959,13.951,3.392
			c2.56,2.048,3.968,5.056,3.968,9.023c0,5.503-3.904,9.279-7.616,10.623v0.192c3.008,1.216,4.672,4.096,5.76,8.063
			c1.344,4.864,2.688,10.495,3.52,12.159h-9.982c-0.704-1.216-1.729-4.736-3.008-10.047c-1.152-5.375-3.008-6.847-6.976-6.912
			h-2.944v16.959h-9.663V340.621z M611.197,359.18h3.84c4.864,0,7.743-2.432,7.743-6.208c0-3.967-2.688-5.951-7.167-6.015
			c-2.368,0-3.712,0.192-4.416,0.32V359.18z"/>
		<path style="fill:#FFFFFF;" d="M671.163,381.962c-1.792,0.896-5.823,1.856-11.071,1.856c-14.911,0-22.59-9.279-22.59-21.566
			c0-14.719,10.495-22.911,23.55-22.911c5.056,0,8.896,1.024,10.623,1.92l-1.983,7.744c-1.984-0.832-4.735-1.6-8.191-1.6
			c-7.743,0-13.759,4.672-13.759,14.271c0,8.639,5.119,14.079,13.822,14.079c2.944,0,6.208-0.64,8.128-1.408L671.163,381.962z"/>
		<path style="fill:#FFFFFF;" d="M702.587,348.492c-1.088-0.064-2.24,0-3.776,0.128c-8.639,0.704-12.479,5.12-13.566,9.983h0.191
			c2.048-2.112,4.928-3.328,8.832-3.328c6.976,0,12.862,4.928,12.862,13.567c0,8.255-6.335,15.039-15.358,15.039
			c-11.071,0-16.511-8.255-16.511-18.175c0-7.808,2.88-14.335,7.359-18.495c4.16-3.776,9.535-5.824,16.063-6.144
			c1.792-0.128,2.944-0.128,3.904-0.064V348.492z M697.275,369.354c0-3.839-2.048-7.167-6.208-7.167c-2.624,0-4.8,1.6-5.76,3.711
			c-0.256,0.512-0.384,1.28-0.384,2.432c0.192,4.416,2.304,8.383,6.72,8.383C695.1,376.714,697.275,373.579,697.275,369.354z"/>
		<path style="fill:#FFFFFF;" d="M728.763,383.178v-9.919h-18.431v-6.335l15.743-25.342h11.903v24.382h4.991v7.295h-4.991v9.919
			H728.763z M728.763,365.963v-9.215c0-2.496,0.128-5.056,0.32-7.743h-0.256c-1.344,2.688-2.432,5.12-3.84,7.743l-5.567,9.087v0.128
			H728.763z"/>
		<path style="fill:#FFFFFF;" d="M744.508,390.793c1.984-5.695,3.712-12.351,4.607-18.174l9.92-0.64
			c-2.112,6.527-4.992,13.247-8.063,18.238L744.508,390.793z"/>
		<path style="fill:#FFFFFF;" d="M772.347,351.884l3.072,5.184c0.896,1.6,1.728,3.2,2.56,4.672h0.128
			c0.832-1.664,1.6-3.264,2.432-4.8l2.752-5.056h10.56l-10.304,14.911l10.432,16.383H782.97l-3.136-5.632
			c-0.896-1.536-1.664-3.136-2.432-4.735h-0.192c-0.768,1.664-1.6,3.2-2.367,4.735l-2.944,5.632h-10.687l10.623-15.935
			l-10.367-15.359H772.347z"/>
		<path style="fill:#FFFFFF;" d="M796.283,372.298c0-4.992,2.88-8.447,7.424-10.431v-0.192c-4.032-2.048-6.016-5.439-6.016-9.087
			c0-7.04,6.335-11.711,14.654-11.711c9.728,0,13.76,5.631,13.76,10.687c0,3.584-1.92,7.104-6.016,9.151v0.192
			c4.031,1.536,7.615,4.992,7.615,10.367c0,7.552-6.336,12.607-15.999,12.607C801.146,383.882,796.283,377.93,796.283,372.298z
			 M817.786,371.979c0-3.647-2.688-5.824-6.528-6.848c-3.199,0.896-5.056,3.2-5.056,6.208c-0.063,3.008,2.24,5.824,5.888,5.824
			C815.546,377.162,817.786,374.922,817.786,371.979z M806.843,352.268c0,2.816,2.56,4.607,5.888,5.631
			c2.239-0.64,4.224-2.688,4.224-5.312c0-2.56-1.473-5.12-5.056-5.12C808.57,347.468,806.843,349.644,806.843,352.268z"/>
		<path style="fill:#FFFFFF;" d="M859.001,348.492c-1.088-0.064-2.24,0-3.776,0.128c-8.639,0.704-12.479,5.12-13.566,9.983h0.191
			c2.048-2.112,4.928-3.328,8.832-3.328c6.976,0,12.862,4.928,12.862,13.567c0,8.255-6.335,15.039-15.358,15.039
			c-11.071,0-16.511-8.255-16.511-18.175c0-7.808,2.88-14.335,7.359-18.495c4.16-3.776,9.535-5.824,16.063-6.144
			c1.792-0.128,2.944-0.128,3.904-0.064V348.492z M853.689,369.354c0-3.839-2.048-7.167-6.208-7.167c-2.624,0-4.8,1.6-5.76,3.711
			c-0.256,0.512-0.384,1.28-0.384,2.432c0.192,4.416,2.304,8.383,6.72,8.383C851.514,376.714,853.689,373.579,853.689,369.354z"/>
		<path style="fill:#FFFFFF;" d="M865.402,390.793c1.984-5.695,3.712-12.351,4.607-18.174l9.92-0.64
			c-2.112,6.527-4.992,13.247-8.063,18.238L865.402,390.793z"/>
		<path style="fill:#FFFFFF;" d="M893.241,351.884l3.072,5.184c0.896,1.6,1.728,3.2,2.56,4.672h0.128
			c0.832-1.664,1.6-3.264,2.432-4.8l2.752-5.056h10.56l-10.304,14.911l10.432,16.383h-11.008l-3.136-5.632
			c-0.896-1.536-1.664-3.136-2.432-4.735h-0.192c-0.768,1.664-1.6,3.2-2.367,4.735l-2.944,5.632h-10.687l10.623-15.935
			l-10.367-15.359H893.241z"/>
		<path style="fill:#FFFFFF;" d="M944.376,348.492c-1.088-0.064-2.24,0-3.776,0.128c-8.639,0.704-12.479,5.12-13.566,9.983h0.191
			c2.048-2.112,4.928-3.328,8.832-3.328c6.976,0,12.862,4.928,12.862,13.567c0,8.255-6.335,15.039-15.358,15.039
			c-11.071,0-16.511-8.255-16.511-18.175c0-7.808,2.88-14.335,7.359-18.495c4.16-3.776,9.535-5.824,16.063-6.144
			c1.792-0.128,2.944-0.128,3.904-0.064V348.492z M939.064,369.354c0-3.839-2.048-7.167-6.208-7.167c-2.624,0-4.8,1.6-5.76,3.711
			c-0.256,0.512-0.384,1.28-0.384,2.432c0.192,4.416,2.304,8.383,6.72,8.383C936.889,376.714,939.064,373.579,939.064,369.354z"/>
		<path style="fill:#FFFFFF;" d="M970.552,383.178v-9.919h-18.431v-6.335l15.743-25.342h11.903v24.382h4.991v7.295h-4.991v9.919
			H970.552z M970.552,365.963v-9.215c0-2.496,0.128-5.056,0.32-7.743h-0.256c-1.344,2.688-2.432,5.12-3.84,7.743l-5.567,9.087v0.128
			H970.552z"/>
	</g>
	<g>
		<path style="fill:#FFFFFF;" d="M67.719,408.711h9.792v34.941h17.15v8.191H67.719V408.711z"/>
		<path style="fill:#FFFFFF;" d="M110.149,411.847c0,2.688-2.048,4.864-5.248,4.864c-3.071,0-5.119-2.176-5.055-4.864
			c-0.064-2.815,1.984-4.928,5.12-4.928S110.085,409.031,110.149,411.847z M100.102,451.844V420.55h9.727v31.294H100.102z"/>
		<path style="fill:#FFFFFF;" d="M117.637,430.533c0-3.904-0.128-7.231-0.256-9.983h8.447l0.448,4.288h0.192
			c1.28-1.984,4.48-4.992,9.664-4.992c6.399,0,11.199,4.225,11.199,13.439v18.559h-9.728v-17.343c0-4.032-1.408-6.784-4.928-6.784
			c-2.688,0-4.288,1.856-4.927,3.648c-0.256,0.576-0.384,1.536-0.384,2.432v18.047h-9.727V430.533z"/>
		<path style="fill:#FFFFFF;" d="M184.643,441.797c0,4.096,0.128,7.423,0.256,10.047h-8.447l-0.448-4.416h-0.192
			c-1.216,1.92-4.16,5.12-9.792,5.12c-6.335,0-11.007-3.968-11.007-13.632V420.55h9.791v16.831c0,4.543,1.472,7.295,4.864,7.295
			c2.688,0,4.224-1.855,4.864-3.391c0.256-0.576,0.32-1.345,0.32-2.112V420.55h9.792V441.797z"/>
		<path style="fill:#FFFFFF;" d="M199.876,420.55l3.072,5.184c0.896,1.601,1.728,3.2,2.56,4.672h0.128
			c0.832-1.664,1.6-3.264,2.432-4.8l2.752-5.056h10.559l-10.303,14.911l10.431,16.383h-11.007l-3.136-5.632
			c-0.896-1.536-1.664-3.136-2.432-4.735h-0.192c-0.768,1.664-1.6,3.199-2.368,4.735l-2.944,5.632h-10.688l10.624-15.936
			l-10.368-15.358H199.876z"/>
		<path style="fill:#FFFFFF;" d="M222.789,454.403l13.695-46.396h6.464l-13.695,46.396H222.789z"/>
		<path style="fill:#FFFFFF;" d="M254.275,420.55l3.072,5.184c0.896,1.601,1.728,3.2,2.56,4.672h0.128
			c0.832-1.664,1.6-3.264,2.432-4.8l2.752-5.056h10.559l-10.303,14.911l10.431,16.383h-11.007l-3.136-5.632
			c-0.896-1.536-1.664-3.136-2.432-4.735h-0.192c-0.768,1.664-1.6,3.199-2.368,4.735l-2.944,5.632H243.14l10.624-15.936
			l-10.368-15.358H254.275z"/>
		<path style="fill:#FFFFFF;" d="M278.212,440.965c0-4.992,2.88-8.447,7.423-10.432v-0.191c-4.032-2.049-6.016-5.439-6.016-9.088
			c0-7.039,6.336-11.711,14.655-11.711c9.727,0,13.759,5.631,13.759,10.688c0,3.584-1.92,7.104-6.016,9.15v0.192
			c4.032,1.536,7.616,4.991,7.616,10.367c0,7.552-6.336,12.607-15.999,12.607C283.076,452.548,278.212,446.596,278.212,440.965z
			 M299.714,440.645c0-3.647-2.688-5.824-6.527-6.848c-3.2,0.896-5.056,3.2-5.056,6.207c-0.064,3.008,2.24,5.824,5.887,5.824
			C297.475,445.828,299.714,443.588,299.714,440.645z M288.771,420.934c0,2.816,2.56,4.607,5.888,5.632
			c2.24-0.64,4.224-2.688,4.224-5.312c0-2.56-1.472-5.119-5.056-5.119C290.499,416.135,288.771,418.311,288.771,420.934z"/>
		<path style="fill:#FFFFFF;" d="M340.93,417.158c-1.088-0.064-2.24,0-3.776,0.128c-8.64,0.704-12.479,5.12-13.567,9.983h0.192
			c2.048-2.111,4.928-3.328,8.831-3.328c6.976,0,12.863,4.928,12.863,13.567c0,8.255-6.335,15.039-15.359,15.039
			c-11.071,0-16.511-8.255-16.511-18.175c0-7.808,2.88-14.335,7.359-18.494c4.16-3.776,9.535-5.824,16.063-6.145
			c1.792-0.127,2.944-0.127,3.904-0.063V417.158z M335.618,438.021c0-3.839-2.048-7.167-6.208-7.167c-2.624,0-4.799,1.6-5.759,3.711
			c-0.256,0.513-0.384,1.28-0.384,2.433c0.192,4.415,2.304,8.384,6.72,8.384C333.442,445.381,335.618,442.244,335.618,438.021z"/>
		<path style="fill:#FFFFFF;" d="M347.331,459.459c1.984-5.695,3.712-12.352,4.608-18.174l9.919-0.641
			c-2.112,6.527-4.992,13.247-8.063,18.238L347.331,459.459z"/>
		<path style="fill:#FFFFFF;" d="M375.17,420.55l3.072,5.184c0.896,1.601,1.728,3.2,2.56,4.672h0.128
			c0.832-1.664,1.6-3.264,2.432-4.8l2.752-5.056h10.559l-10.303,14.911l10.431,16.383h-11.007l-3.136-5.632
			c-0.896-1.536-1.664-3.136-2.432-4.735h-0.192c-0.768,1.664-1.6,3.199-2.368,4.735l-2.944,5.632h-10.688l10.624-15.936
			l-10.368-15.358H375.17z"/>
		<path style="fill:#FFFFFF;" d="M426.305,417.158c-1.088-0.064-2.24,0-3.776,0.128c-8.64,0.704-12.479,5.12-13.567,9.983h0.192
			c2.048-2.111,4.928-3.328,8.831-3.328c6.976,0,12.863,4.928,12.863,13.567c0,8.255-6.335,15.039-15.359,15.039
			c-11.071,0-16.511-8.255-16.511-18.175c0-7.808,2.88-14.335,7.359-18.494c4.16-3.776,9.535-5.824,16.063-6.145
			c1.792-0.127,2.944-0.127,3.904-0.063V417.158z M420.993,438.021c0-3.839-2.048-7.167-6.208-7.167c-2.624,0-4.799,1.6-5.759,3.711
			c-0.256,0.513-0.384,1.28-0.384,2.433c0.192,4.415,2.304,8.384,6.72,8.384C418.817,445.381,420.993,442.244,420.993,438.021z"/>
		<path style="fill:#FFFFFF;" d="M452.48,451.844v-9.92H434.05v-6.335l15.743-25.343h11.903v24.383h4.991v7.295h-4.991v9.92H452.48z
			 M452.48,434.629v-9.215c0-2.496,0.128-5.057,0.32-7.744h-0.256c-1.344,2.688-2.432,5.12-3.84,7.744l-5.568,9.087v0.128H452.48z"
			/>
	</g>
</g>
<g id="jfx:p05">
	<g>
		<path style="fill:#F8981D;" d="M321.323,498.922h12.24v43.682h21.44v10.24h-33.681V498.922z"/>
		<path style="fill:#F8981D;" d="M374.362,502.843c0,3.36-2.56,6.08-6.56,6.08c-3.84,0-6.4-2.72-6.32-6.08
			c-0.08-3.521,2.48-6.16,6.4-6.16C371.802,496.683,374.282,499.322,374.362,502.843z M361.802,552.844v-39.121h12.161v39.121
			H361.802z"/>
		<path style="fill:#F8981D;" d="M383.721,526.203c0-4.88-0.16-9.04-0.32-12.48h10.56l0.56,5.36h0.24c1.6-2.479,5.6-6.24,12.08-6.24
			c8,0,14,5.28,14,16.8v23.201h-12.16v-21.681c0-5.04-1.76-8.479-6.16-8.479c-3.36,0-5.36,2.319-6.16,4.56
			c-0.32,0.72-0.48,1.92-0.48,3.04v22.561h-12.161V526.203z"/>
		<path style="fill:#F8981D;" d="M467.481,540.283c0,5.121,0.16,9.28,0.32,12.561h-10.561l-0.56-5.52h-0.24
			c-1.52,2.399-5.2,6.399-12.24,6.399c-7.92,0-13.76-4.96-13.76-17.04v-22.961h12.24v21.041c0,5.68,1.84,9.12,6.08,9.12
			c3.36,0,5.28-2.32,6.08-4.24c0.32-0.72,0.4-1.681,0.4-2.64v-23.281h12.24V540.283z"/>
		<path style="fill:#F8981D;" d="M486.521,513.723l3.84,6.48c1.12,2,2.16,4,3.2,5.84h0.16c1.04-2.08,2-4.08,3.04-6l3.44-6.32h13.2
			l-12.88,18.641l13.041,20.48h-13.761l-3.92-7.04c-1.12-1.92-2.08-3.921-3.04-5.921h-0.24c-0.96,2.08-2,4.001-2.96,5.921
			l-3.68,7.04h-13.36l13.28-19.92l-12.96-19.201H486.521z"/>
		<path style="fill:#F8981D;" d="M515.16,556.044l17.12-58.001h8.08l-17.12,58.001H515.16z"/>
		<path style="fill:#F8981D;" d="M558.199,539.004l-3.84,13.84h-12.641l16.48-53.922H574.2l16.72,53.922h-13.119l-4.16-13.84
			H558.199z M571.88,529.883l-3.36-11.439c-0.959-3.201-1.92-7.201-2.72-10.4h-0.159c-0.801,3.199-1.601,7.279-2.48,10.4
			l-3.2,11.439H571.88z"/>
		<path style="fill:#F8981D;" d="M598.119,499.643c3.92-0.641,9.76-1.12,16.24-1.12c8,0,13.6,1.2,17.44,4.24
			c3.2,2.56,4.96,6.319,4.96,11.28c0,6.88-4.88,11.6-9.52,13.28v0.239c3.76,1.521,5.84,5.121,7.199,10.081
			c1.68,6.08,3.36,13.12,4.4,15.2h-12.48c-0.88-1.52-2.16-5.92-3.76-12.561c-1.439-6.72-3.76-8.561-8.721-8.641h-3.68v21.201h-12.08
			V499.643z M610.199,522.844H615c6.08,0,9.68-3.041,9.68-7.761c0-4.96-3.36-7.44-8.961-7.521c-2.959,0-4.64,0.24-5.52,0.4V522.844z
			"/>
		<path style="fill:#F8981D;" d="M691.159,532.203c-0.24-6.48-0.479-14.32-0.479-22.16h-0.24c-1.681,6.88-3.92,14.561-6,20.881
			l-6.561,21.04h-9.521l-5.761-20.881c-1.76-6.319-3.6-14-4.879-21.04h-0.16c-0.32,7.279-0.561,15.6-0.961,22.32l-0.959,20.48
			h-11.281l3.44-53.922h16.241l5.279,18.001c1.68,6.24,3.36,12.96,4.561,19.28h0.24c1.52-6.24,3.359-13.359,5.119-19.36
			l5.761-17.921h15.92l2.96,53.922h-11.92L691.159,532.203z"/>
	</g>
</g>
<g id="jfx:p06">
	<g>
		
			<image style="overflow:visible;" width="400" height="285" xlink:href="184B605D.jpg"  transform="matrix(0.9999 0 0 0.9999 57.5249 158.3901)">
		</image>
		
			<image style="overflow:visible;" width="400" height="285" xlink:href="184B6063.jpg"  transform="matrix(0.9999 0 0 0.9999 566.5254 158.3901)">
		</image>
	</g>
</g>
<g id="jfx:p07">
	<g>
		<path style="fill:#FFFFFF;" d="M387.488,208.126h14.591v40.893c0,18.431-8.832,24.862-23.039,24.862
			c-3.359,0-7.775-0.576-10.655-1.536l1.632-11.807c2.016,0.672,4.607,1.152,7.487,1.152c6.144,0,9.983-2.784,9.983-12.863V208.126z
			"/>
		<path style="fill:#FFFFFF;" d="M428.863,212.83c0,4.032-3.072,7.295-7.871,7.295c-4.608,0-7.68-3.264-7.583-7.295
			c-0.096-4.224,2.976-7.392,7.679-7.392S428.768,208.606,428.863,212.83z M413.792,272.825v-46.94h14.591v46.94H413.792z"/>
		<path style="fill:#FFFFFF;" d="M484.924,225.885c-0.192,2.976-0.384,6.911-0.384,13.919v26.206c0,9.023-1.824,16.415-7.104,21.118
			c-5.184,4.416-12.191,5.76-19.103,5.76c-6.144,0-12.671-1.248-16.895-3.647l2.879-11.04c2.976,1.728,8.16,3.552,13.631,3.552
			c6.911,0,12.191-3.744,12.191-12.383v-3.072h-0.192c-2.784,3.936-7.295,6.144-12.671,6.144c-11.615,0-19.871-9.408-19.871-22.942
			c0-15.071,9.791-24.67,21.31-24.67c6.432,0,10.463,2.784,12.863,6.624h0.192l0.48-5.567H484.924z M469.949,244.987
			c0-0.96-0.096-1.92-0.288-2.688c-1.056-3.84-3.84-6.432-7.872-6.432c-5.279,0-9.599,4.8-9.599,13.343
			c0,7.007,3.456,12.479,9.599,12.479c3.744,0,6.72-2.496,7.68-5.952c0.384-1.056,0.48-2.592,0.48-3.839V244.987z"/>
		<path style="fill:#FFFFFF;" d="M496.159,260.058c2.688,1.632,8.255,3.552,12.575,3.552c4.416,0,6.239-1.536,6.239-3.936
			s-1.439-3.552-6.911-5.376c-9.695-3.264-13.439-8.543-13.343-14.111c0-8.735,7.487-15.359,19.103-15.359
			c5.472,0,10.367,1.248,13.247,2.688l-2.592,10.079c-2.111-1.152-6.144-2.688-10.176-2.688c-3.551,0-5.567,1.44-5.567,3.84
			c0,2.208,1.824,3.36,7.583,5.375c8.928,3.072,12.672,7.583,12.768,14.495c0,8.735-6.911,15.167-20.351,15.167
			c-6.144,0-11.615-1.344-15.167-3.264L496.159,260.058z"/>
		<path style="fill:#FFFFFF;" d="M564.604,272.825l-0.863-4.704h-0.289c-3.071,3.744-7.871,5.76-13.438,5.76
			c-9.503,0-15.167-6.912-15.167-14.399c0-12.191,10.943-18.046,27.551-17.951v-0.672c0-2.496-1.345-6.047-8.544-6.047
			c-4.8,0-9.888,1.632-12.959,3.552l-2.688-9.407c3.264-1.824,9.695-4.128,18.239-4.128c15.647,0,20.638,9.215,20.638,20.254v16.319
			c0,4.512,0.193,8.832,0.673,11.423H564.604z M562.876,250.651c-7.68-0.096-13.632,1.728-13.632,7.392
			c0,3.744,2.496,5.567,5.76,5.567c3.648,0,6.624-2.4,7.584-5.375c0.191-0.768,0.288-1.632,0.288-2.496V250.651z"/>
		<path style="fill:#FFFFFF;" d="M598.686,225.885l3.743,19.198c0.96,4.896,1.92,10.08,2.688,15.455h0.192
			c0.959-5.375,2.304-10.751,3.455-15.359l4.992-19.294h11.52l4.703,18.718c1.248,5.28,2.496,10.56,3.456,15.935h0.192
			c0.672-5.375,1.631-10.655,2.688-16.031l4.031-18.623h14.303l-14.398,46.94h-13.727l-4.416-16.511
			c-1.152-4.608-2.016-8.832-2.977-14.591h-0.191c-0.864,5.855-1.824,10.175-3.072,14.591l-4.703,16.511h-13.727l-13.631-46.94
			H598.686z"/>
	</g>
</g>
<g id="jfx:p08">
	<g>
		<path style="fill:#FFFFFF;" d="M212.759,410.936c-2.8,1.399-9.101,2.899-17.301,2.899c-23.301,0-35.302-14.501-35.302-33.702
			c0-23.001,16.401-35.802,36.802-35.802c7.901,0,13.901,1.6,16.601,3l-3.1,12.101c-3.1-1.3-7.4-2.5-12.801-2.5
			c-12.101,0-21.501,7.3-21.501,22.301c0,13.501,8,22.001,21.602,22.001c4.6,0,9.701-1,12.701-2.2L212.759,410.936z"/>
		<path style="fill:#FFFFFF;" d="M270.557,387.834c0,17.9-12.701,26.102-25.802,26.102c-14.301,0-25.301-9.4-25.301-25.202
			c0-15.801,10.4-25.901,26.102-25.901C260.557,362.832,270.557,373.132,270.557,387.834z M235.155,388.334
			c0,8.4,3.5,14.7,10.001,14.7c5.9,0,9.7-5.9,9.7-14.7c0-7.301-2.8-14.701-9.7-14.701
			C237.855,373.633,235.155,381.133,235.155,388.334z"/>
		<path style="fill:#FFFFFF;" d="M279.954,379.533c0-6.1-0.2-11.3-0.4-15.601h12.801l0.7,6.6h0.3c2.101-3.1,6.4-7.7,14.801-7.7
			c6.3,0,11.3,3.2,13.401,8.3h0.2c1.8-2.5,4-4.5,6.3-5.9c2.7-1.6,5.701-2.4,9.301-2.4c9.4,0,16.501,6.6,16.501,21.201v28.802
			h-14.801v-26.602c0-7.101-2.3-11.201-7.201-11.201c-3.5,0-6,2.4-7,5.3c-0.4,1.1-0.6,2.7-0.6,3.9v28.602h-14.801v-27.401
			c0-6.201-2.2-10.401-7-10.401c-3.9,0-6.2,3-7.1,5.5c-0.5,1.2-0.6,2.6-0.6,3.8v28.502h-14.801V379.533z"/>
		<path style="fill:#FFFFFF;" d="M365.953,380.333c0-6.4-0.2-11.901-0.4-16.401h13.201l0.7,6.8h0.2c3.6-5.2,9.201-7.9,16.301-7.9
			c10.701,0,20.301,9.3,20.301,24.901c0,17.802-11.301,26.202-22.201,26.202c-5.9,0-10.5-2.4-12.701-5.602h-0.2v24.303h-15.201
			V380.333z M381.153,391.834c0,1.199,0.1,2.3,0.3,3.199c1,4.102,4.5,7.201,8.901,7.201c6.6,0,10.5-5.5,10.5-13.801
			c0-7.801-3.5-13.701-10.301-13.701c-4.3,0-8.1,3.2-9.101,7.701c-0.2,0.8-0.3,1.8-0.3,2.7V391.834z"/>
		<path style="fill:#FFFFFF;" d="M453.553,412.835l-0.9-4.9h-0.3c-3.2,3.9-8.201,6.001-14.001,6.001
			c-9.9,0-15.801-7.201-15.801-15.002c0-12.7,11.4-18.801,28.702-18.701v-0.7c0-2.6-1.4-6.3-8.901-6.3c-5,0-10.3,1.7-13.5,3.7
			l-2.8-9.8c3.4-1.9,10.101-4.3,19.001-4.3c16.301,0,21.501,9.601,21.501,21.101v17c0,4.701,0.2,9.201,0.7,11.901H453.553z
			 M451.753,389.733c-8-0.1-14.201,1.8-14.201,7.7c0,3.9,2.601,5.801,6,5.801c3.8,0,6.9-2.5,7.9-5.601c0.2-0.8,0.3-1.7,0.3-2.601
			V389.733z"/>
		<path style="fill:#FFFFFF;" d="M515.254,411.635c-2.7,1.2-7.801,2.2-13.601,2.2c-15.801,0-25.901-9.601-25.901-25.001
			c0-14.301,9.8-26.002,28.001-26.002c4,0,8.401,0.7,11.601,1.9l-2.4,11.301c-1.8-0.8-4.5-1.5-8.5-1.5
			c-8,0-13.201,5.7-13.101,13.701c0,9.001,6,13.7,13.4,13.7c3.601,0,6.4-0.6,8.7-1.5L515.254,411.635z"/>
		<path style="fill:#FFFFFF;" d="M540.651,349.931v14.001h10.9v11.201h-10.9v17.701c0,5.9,1.4,8.6,6,8.6c1.9,0,3.4-0.199,4.5-0.399
			l0.101,11.501c-2,0.8-5.601,1.3-9.9,1.3c-4.9,0-9.001-1.7-11.4-4.2c-2.801-2.9-4.201-7.601-4.201-14.501v-20.001h-6.5v-11.201h6.5
			v-10.601L540.651,349.931z"/>
		<path style="fill:#FFFFFF;" d="M581.049,346.331c4.7-0.8,11.301-1.4,20.601-1.4c9.401,0,16.102,1.8,20.602,5.4
			c4.301,3.4,7.2,9,7.2,15.601s-2.2,12.201-6.2,16.001c-5.2,4.901-12.9,7.1-21.901,7.1c-2,0-3.8-0.1-5.2-0.3v24.102h-15.101V346.331
			z M596.149,376.933c1.3,0.3,2.9,0.4,5.101,0.4c8.101,0,13.101-4.101,13.101-11.001c0-6.2-4.3-9.9-11.9-9.9
			c-3.101,0-5.2,0.3-6.301,0.6V376.933z"/>
		<path style="fill:#FFFFFF;" d="M638.648,380.033c0-7.201-0.2-11.901-0.4-16.101h13.101l0.5,9h0.4
			c2.5-7.101,8.501-10.101,13.201-10.101c1.399,0,2.1,0,3.2,0.2v14.301c-1.101-0.2-2.4-0.4-4.101-0.4c-5.601,0-9.4,3-10.4,7.701
			c-0.2,1-0.3,2.201-0.3,3.4v24.802h-15.201V380.033z"/>
		<path style="fill:#FFFFFF;" d="M724.95,387.834c0,17.9-12.701,26.102-25.802,26.102c-14.301,0-25.302-9.4-25.302-25.202
			c0-15.801,10.401-25.901,26.102-25.901C714.949,362.832,724.95,373.132,724.95,387.834z M689.548,388.334
			c0,8.4,3.5,14.7,10.001,14.7c5.9,0,9.7-5.9,9.7-14.7c0-7.301-2.8-14.701-9.7-14.701
			C692.248,373.633,689.548,381.133,689.548,388.334z"/>
		<path style="fill:#FFFFFF;" d="M736.047,412.835v-37.702h-6.4v-11.201h6.4v-2.1c0-13.501,10.5-21.102,25.602-21.102
			c5.2,0,11.4,1.2,14.4,3l-2.9,11.5c-2.399-1.3-6.3-2.5-11.101-2.5c-8,0-10.801,4.1-10.801,9.5v1.7h29.702v48.903h-15.201v-37.702
			h-14.4v37.702H736.047z"/>
		<path style="fill:#FFFFFF;" d="M793.146,341.831h15.201v71.004h-15.201V341.831z"/>
		<path style="fill:#FFFFFF;" d="M832.346,393.234c0.5,6.3,6.701,9.3,13.801,9.3c5.2,0,9.401-0.7,13.501-2l2,10.301
			c-5,2-11.101,3-17.701,3c-16.601,0-26.102-9.601-26.102-24.901c0-12.401,7.701-26.102,24.702-26.102
			c15.801,0,21.801,12.301,21.801,24.401c0,2.601-0.3,4.9-0.5,6.001H832.346z M850.247,382.833c0-3.7-1.6-9.9-8.601-9.9
			c-6.4,0-9,5.8-9.4,9.9H850.247z"/>
	</g>
	<g>
		<path style="fill:#FFFFFF;" d="M373.764,494.189c-0.24-6.48-0.48-14.32-0.48-22.16h-0.24c-1.68,6.88-3.92,14.561-6,20.881
			l-6.56,21.04h-9.521l-5.76-20.881c-1.76-6.319-3.6-14-4.88-21.04h-0.16c-0.32,7.279-0.56,15.6-0.96,22.32l-0.96,20.48h-11.28
			l3.44-53.922h16.241l5.28,18.001c1.68,6.24,3.36,12.96,4.56,19.28h0.24c1.52-6.24,3.36-13.359,5.12-19.36l5.76-17.921h15.92
			l2.96,53.922h-11.92L373.764,494.189z"/>
		<path style="fill:#FFFFFF;" d="M408.002,464.829c0,3.36-2.56,6.08-6.56,6.08c-3.84,0-6.4-2.72-6.32-6.08
			c-0.08-3.521,2.48-6.16,6.4-6.16C405.442,458.669,407.922,461.309,408.002,464.829z M395.442,514.83v-39.121h12.161v39.121
			H395.442z"/>
		<path style="fill:#FFFFFF;" d="M417.361,488.189c0-4.88-0.16-9.04-0.32-12.48h10.56l0.56,5.36h0.24c1.6-2.479,5.6-6.24,12.08-6.24
			c8,0,14,5.28,14,16.8v23.201h-12.16v-21.681c0-5.04-1.76-8.479-6.16-8.479c-3.36,0-5.36,2.319-6.16,4.56
			c-0.32,0.72-0.48,1.92-0.48,3.04v22.561h-12.161V488.189z"/>
		<path style="fill:#FFFFFF;" d="M463.361,482.59c0-4.32,2.96-7.361,7.2-7.361s7.04,2.961,7.12,7.361c0,4.16-2.88,7.279-7.2,7.279
			C466.321,489.869,463.361,486.75,463.361,482.59z M463.361,508.43c0-4.24,2.96-7.359,7.2-7.359s7.04,3.039,7.12,7.359
			c0,4.16-2.88,7.28-7.2,7.28C466.321,515.71,463.361,512.59,463.361,508.43z"/>
		<path style="fill:#FFFFFF;" d="M515.201,473.629h-0.16l-9.92,4.721l-2-9.121l13.76-6.399h10.08v52.001h-11.76V473.629z"/>
		<path style="fill:#FFFFFF;" d="M582.48,488.59c0,16.08-6.48,27.12-19.76,27.12c-13.441,0-19.361-12.08-19.441-26.8
			c0-15.041,6.4-26.961,19.841-26.961C577.041,461.949,582.48,474.35,582.48,488.59z M555.52,488.91
			c-0.08,11.92,2.801,17.6,7.521,17.6s7.28-5.92,7.28-17.76c0-11.521-2.48-17.602-7.359-17.602
			C558.48,471.148,555.439,476.829,555.52,488.91z"/>
		<path style="fill:#FFFFFF;" d="M636,494.189c-0.24-6.48-0.479-14.32-0.479-22.16h-0.24c-1.681,6.88-3.92,14.561-6,20.881
			l-6.56,21.04h-9.521l-5.76-20.881c-1.76-6.319-3.6-14-4.88-21.04h-0.16c-0.319,7.279-0.56,15.6-0.96,22.32l-0.96,20.48h-11.28
			l3.439-53.922h16.241l5.28,18.001c1.68,6.24,3.359,12.96,4.56,19.28h0.24c1.521-6.24,3.36-13.359,5.12-19.36l5.76-17.921h15.921
			l2.96,53.922h-11.92L636,494.189z"/>
		<path style="fill:#FFFFFF;" d="M658.078,461.629c3.2-0.641,9.681-1.12,15.761-1.12c7.44,0,12,0.72,15.921,3.04
			c3.76,2,6.479,5.68,6.479,10.561c0,4.8-2.8,9.279-8.88,11.52v0.16c6.16,1.68,10.721,6.32,10.721,13.281
			c0,4.879-2.24,8.72-5.602,11.439c-3.92,3.12-10.479,4.881-21.199,4.881c-6,0-10.48-0.4-13.201-0.801V461.629z M670.158,482.27h4
			c6.4,0,9.841-2.641,9.841-6.641c0-4.08-3.12-6.24-8.64-6.24c-2.641,0-4.16,0.16-5.201,0.32V482.27z M670.158,506.189
			c1.201,0.16,2.641,0.16,4.721,0.16c5.52,0,10.4-2.08,10.4-7.76c0-5.44-4.881-7.6-10.961-7.6h-4.16V506.189z"/>
	</g>
</g>
</svg>
