<?xml version="1.0" encoding="iso-8859-1"?>
<!-- Generator: Adobe Illustrator 16.1.1, SVG Export Plug-In . SVG Version: 6.00 Build 0)  -->
<!DOCTYPE svg PUBLIC "-//W3C//DTD SVG 1.1//EN" "http://www.w3.org/Graphics/SVG/1.1/DTD/svg11.dtd">
<svg version="1.1" xmlns="http://www.w3.org/2000/svg" xmlns:xlink="http://www.w3.org/1999/xlink" x="0px" y="0px" width="1024px"
	 height="768px" viewBox="0 0 1024 768" style="enable-background:new 0 0 1024 768;" xml:space="preserve">
<g id="jfx:p00">
	<image style="overflow:visible;" width="1024" height="768" xlink:href="857D1E00.jpg" >
	</image>
</g>
<g id="jfx:p01">
	<g>
		<path style="fill:#F8981D;" d="M57.102,52.347c5.6-0.9,12.9-1.4,20.601-1.4c12.801,0,21.101,2.3,27.602,7.201
			c7,5.2,11.401,13.5,11.401,25.401c0,12.901-4.7,21.801-11.201,27.302c-7.101,5.9-17.901,8.701-31.102,8.701
			c-7.9,0-13.501-0.5-17.301-1V52.347z M72.402,107.35c1.3,0.3,3.4,0.3,5.3,0.3c13.801,0.1,22.801-7.5,22.801-23.602
			c0.1-14-8.101-21.401-21.201-21.401c-3.4,0-5.601,0.3-6.9,0.6V107.35z"/>
		<path style="fill:#F8981D;" d="M126.202,86.049c0-7.201-0.2-11.901-0.4-16.101h13.101l0.5,9h0.4
			c2.5-7.101,8.5-10.101,13.201-10.101c1.4,0,2.1,0,3.2,0.2v14.301c-1.1-0.2-2.4-0.4-4.1-0.4c-5.6,0-9.4,3-10.401,7.701
			c-0.2,1-0.3,2.2-0.3,3.4v24.802h-15.201V86.049z"/>
		<path style="fill:#F8981D;" d="M212.503,93.849c0,17.901-12.701,26.102-25.802,26.102c-14.301,0-25.301-9.4-25.301-25.202
			c0-15.801,10.4-25.901,26.102-25.901C202.503,68.848,212.503,79.148,212.503,93.849z M177.101,94.349
			c0,8.4,3.5,14.701,10.001,14.701c5.9,0,9.7-5.9,9.7-14.701c0-7.3-2.8-14.701-9.7-14.701
			C179.801,79.648,177.101,87.148,177.101,94.349z"/>
		<path style="fill:#F8981D;" d="M221.9,86.349c0-6.4-0.2-11.901-0.4-16.401h13.201l0.7,6.8h0.2c3.6-5.2,9.201-7.9,16.301-7.9
			c10.701,0,20.301,9.3,20.301,24.901c0,17.801-11.301,26.202-22.201,26.202c-5.9,0-10.5-2.4-12.701-5.601h-0.2v24.302H221.9V86.349
			z M237.101,97.849c0,1.2,0.1,2.3,0.3,3.2c1,4.101,4.5,7.201,8.9,7.201c6.6,0,10.5-5.5,10.5-13.801
			c0-7.801-3.5-13.701-10.301-13.701c-4.3,0-8.1,3.2-9.1,7.701c-0.2,0.8-0.3,1.8-0.3,2.7V97.849z"/>
		<path style="fill:#F8981D;" d="M281.7,86.349c0-6.4-0.2-11.901-0.4-16.401H294.5l0.7,6.8h0.2c3.6-5.2,9.201-7.9,16.301-7.9
			c10.701,0,20.301,9.3,20.301,24.901c0,17.801-11.301,26.202-22.201,26.202c-5.9,0-10.5-2.4-12.701-5.601h-0.2v24.302H281.7V86.349
			z M296.9,97.849c0,1.2,0.1,2.3,0.3,3.2c1,4.101,4.5,7.201,8.901,7.201c6.6,0,10.5-5.5,10.5-13.801
			c0-7.801-3.5-13.701-10.301-13.701c-4.3,0-8.1,3.2-9.101,7.701c-0.2,0.8-0.3,1.8-0.3,2.7V97.849z"/>
		<path style="fill:#F8981D;" d="M353.2,99.25c0.5,6.3,6.7,9.3,13.801,9.3c5.2,0,9.4-0.7,13.5-2l2,10.301c-5,2-11.101,3-17.701,3
			c-16.601,0-26.102-9.601-26.102-24.901c0-12.401,7.7-26.102,24.702-26.102c15.801,0,21.801,12.301,21.801,24.401
			c0,2.6-0.3,4.9-0.5,6H353.2z M371.101,88.849c0-3.7-1.6-9.9-8.601-9.9c-6.4,0-9,5.8-9.4,9.9H371.101z"/>
		<path style="fill:#F8981D;" d="M441.701,47.846v56.403c0,5.5,0.2,11.301,0.4,14.601h-13.501l-0.7-7.2h-0.2
			c-3.1,5.5-9,8.3-15.301,8.3c-11.601,0-20.901-9.901-20.901-25.102c-0.1-16.501,10.201-26.001,21.901-26.001
			c6,0,10.701,2.1,12.901,5.5h0.2V47.846H441.701z M426.5,90.649c0-0.8-0.1-1.9-0.2-2.7c-0.9-4.1-4.201-7.5-8.901-7.5
			c-6.9,0-10.5,6.2-10.5,13.901c0,8.3,4.1,13.501,10.4,13.501c4.4,0,7.901-3,8.801-7.301c0.3-1.1,0.4-2.2,0.4-3.5V90.649z"/>
		<path style="fill:#F8981D;" d="M474.598,51.446H515.8v12.501h-25.901v15.401H514.1v12.401h-24.201v27.102h-15.301V51.446z"/>
		<path style="fill:#F8981D;" d="M538.497,99.25c0.5,6.3,6.701,9.3,13.801,9.3c5.201,0,9.401-0.7,13.501-2l2,10.301
			c-5,2-11.101,3-17.701,3c-16.601,0-26.102-9.601-26.102-24.901c0-12.401,7.701-26.102,24.702-26.102
			c15.801,0,21.801,12.301,21.801,24.401c0,2.6-0.3,4.9-0.5,6H538.497z M556.398,88.849c0-3.7-1.6-9.9-8.601-9.9
			c-6.4,0-9,5.8-9.4,9.9H556.398z"/>
		<path style="fill:#F8981D;" d="M607.398,118.851l-0.9-4.9h-0.3c-3.2,3.9-8.2,6-14.001,6c-9.9,0-15.801-7.201-15.801-15.001
			c0-12.701,11.4-18.801,28.701-18.701v-0.7c0-2.6-1.399-6.3-8.9-6.3c-5,0-10.301,1.7-13.501,3.7l-2.8-9.8
			c3.4-1.9,10.101-4.3,19.001-4.3c16.301,0,21.502,9.601,21.502,21.101v17.001c0,4.701,0.199,9.201,0.699,11.901H607.398z
			 M605.598,95.749c-8-0.1-14.2,1.8-14.2,7.701c0,3.9,2.6,5.8,6,5.8c3.801,0,6.9-2.5,7.9-5.601c0.2-0.8,0.3-1.7,0.3-2.6V95.749z"/>
		<path style="fill:#F8981D;" d="M649.397,55.947v14.001h10.9v11.201h-10.9V98.85c0,5.9,1.4,8.6,6,8.6c1.9,0,3.4-0.2,4.5-0.4
			l0.101,11.501c-2,0.8-5.601,1.3-9.9,1.3c-4.9,0-9.001-1.7-11.401-4.2c-2.8-2.9-4.2-7.601-4.2-14.501V81.148h-6.5V69.948h6.5
			V59.347L649.397,55.947z"/>
		<path style="fill:#F8981D;" d="M715.198,103.149c0,6.4,0.2,11.601,0.4,15.701h-13.201l-0.7-6.9h-0.3c-1.9,3-6.5,8-15.301,8
			c-9.9,0-17.201-6.2-17.201-21.301V69.948h15.301v26.301c0,7.101,2.3,11.401,7.601,11.401c4.2,0,6.601-2.9,7.601-5.3
			c0.4-0.9,0.5-2.1,0.5-3.3V69.948h15.301V103.149z"/>
		<path style="fill:#F8981D;" d="M727.395,86.049c0-7.201-0.2-11.901-0.4-16.101h13.101l0.5,9h0.4
			c2.5-7.101,8.501-10.101,13.201-10.101c1.399,0,2.1,0,3.2,0.2v14.301c-1.101-0.2-2.4-0.4-4.101-0.4c-5.601,0-9.4,3-10.4,7.701
			c-0.2,1-0.3,2.2-0.3,3.4v24.802h-15.201V86.049z"/>
		<path style="fill:#F8981D;" d="M777.094,99.25c0.5,6.3,6.701,9.3,13.801,9.3c5.2,0,9.401-0.7,13.501-2l2,10.301
			c-5,2-11.101,3-17.701,3c-16.601,0-26.102-9.601-26.102-24.901c0-12.401,7.701-26.102,24.702-26.102
			c15.801,0,21.801,12.301,21.801,24.401c0,2.6-0.3,4.9-0.5,6H777.094z M794.995,88.849c0-3.7-1.6-9.9-8.601-9.9
			c-6.4,0-9,5.8-9.4,9.9H794.995z"/>
		<path style="fill:#F8981D;" d="M818.093,105.55c2.801,1.7,8.601,3.7,13.102,3.7c4.6,0,6.5-1.6,6.5-4.1c0-2.5-1.5-3.7-7.2-5.601
			c-10.101-3.4-14.001-8.9-13.901-14.701c0-9.101,7.801-16.001,19.901-16.001c5.7,0,10.801,1.3,13.801,2.8l-2.7,10.501
			c-2.2-1.2-6.4-2.8-10.601-2.8c-3.7,0-5.8,1.5-5.8,4c0,2.3,1.899,3.5,7.9,5.6c9.3,3.2,13.2,7.9,13.301,15.101
			c0,9.101-7.201,15.801-21.201,15.801c-6.4,0-12.102-1.4-15.802-3.4L818.093,105.55z"/>
	</g>
</g>
<g id="jfx:p02">
	<g>
		<path style="fill:#FFFFFF;" d="M68.775,192.644c3.76-0.64,9.04-1.12,16.48-1.12c7.52,0,12.88,1.44,16.48,4.32
			c3.44,2.72,5.76,7.2,5.76,12.48c0,5.28-1.76,9.76-4.96,12.8c-4.16,3.92-10.32,5.68-17.521,5.68c-1.6,0-3.04-0.08-4.16-0.24v19.28
			h-12.08V192.644z M80.855,217.124c1.04,0.24,2.32,0.32,4.08,0.32c6.48,0,10.48-3.28,10.48-8.8c0-4.96-3.44-7.92-9.521-7.92
			c-2.48,0-4.16,0.24-5.04,0.48V217.124z"/>
		<path style="fill:#FFFFFF;" d="M114.854,219.604c0-5.76-0.16-9.52-0.32-12.88h10.48l0.4,7.2h0.32c2-5.68,6.8-8.08,10.561-8.08
			c1.12,0,1.68,0,2.56,0.16v11.44c-0.88-0.16-1.92-0.32-3.28-0.32c-4.48,0-7.52,2.4-8.32,6.16c-0.16,0.8-0.24,1.76-0.24,2.72v19.84
			h-12.161V219.604z"/>
		<path style="fill:#FFFFFF;" d="M183.895,225.844c0,14.32-10.16,20.88-20.641,20.88c-11.44,0-20.24-7.52-20.24-20.16
			c0-12.641,8.32-20.721,20.88-20.721C175.895,205.844,183.895,214.084,183.895,225.844z M155.574,226.244c0,6.72,2.8,11.76,8,11.76
			c4.72,0,7.76-4.72,7.76-11.76c0-5.84-2.24-11.76-7.76-11.76C157.734,214.484,155.574,220.484,155.574,226.244z"/>
		<path style="fill:#FFFFFF;" d="M183.333,253.045c3.2-0.24,5.68-0.96,7.2-2.56c1.76-1.84,2.4-4.96,2.4-12.72v-31.041h12.241v33.921
			c0,8.56-1.92,13.76-5.521,17.121c-3.6,3.36-9.28,4.8-15.12,4.8L183.333,253.045z M205.494,195.844c0,3.36-2.48,6.08-6.56,6.08
			c-3.84,0-6.32-2.72-6.32-6.08c0-3.52,2.48-6.16,6.48-6.16C203.014,189.684,205.414,192.324,205.494,195.844z"/>
		<path style="fill:#FFFFFF;" d="M224.053,230.165c0.4,5.04,5.36,7.44,11.041,7.44c4.16,0,7.52-0.56,10.8-1.6l1.6,8.24
			c-4,1.6-8.88,2.4-14.16,2.4c-13.28,0-20.88-7.68-20.88-19.92c0-9.92,6.16-20.88,19.76-20.88c12.641,0,17.44,9.84,17.44,19.521
			c0,2.08-0.24,3.92-0.4,4.8H224.053z M238.373,221.844c0-2.96-1.28-7.92-6.88-7.92c-5.12,0-7.2,4.64-7.521,7.92H238.373z"/>
		<path style="fill:#FFFFFF;" d="M286.293,244.885c-2.16,0.96-6.24,1.76-10.88,1.76c-12.64,0-20.72-7.68-20.72-20
			c0-11.44,7.84-20.801,22.4-20.801c3.2,0,6.72,0.56,9.28,1.52l-1.92,9.041c-1.44-0.64-3.6-1.2-6.8-1.2
			c-6.4,0-10.56,4.56-10.48,10.96c0,7.2,4.8,10.96,10.721,10.96c2.88,0,5.12-0.48,6.96-1.2L286.293,244.885z"/>
		<path style="fill:#FFFFFF;" d="M306.612,195.523v11.2h8.72v8.96h-8.72v14.16c0,4.72,1.12,6.88,4.8,6.88c1.52,0,2.72-0.16,3.6-0.32
			l0.08,9.2c-1.6,0.64-4.48,1.04-7.92,1.04c-3.92,0-7.2-1.36-9.12-3.36c-2.24-2.32-3.36-6.08-3.36-11.6v-16h-5.2v-8.96h5.2v-8.48
			L306.612,195.523z"/>
		<path style="fill:#FFFFFF;" d="M349.491,191.923h12.16v34.081c0,15.36-7.36,20.72-19.2,20.72c-2.8,0-6.48-0.48-8.88-1.28
			l1.36-9.84c1.68,0.56,3.84,0.96,6.24,0.96c5.12,0,8.32-2.32,8.32-10.72V191.923z"/>
		<path style="fill:#FFFFFF;" d="M383.971,195.844c0,3.36-2.56,6.08-6.56,6.08c-3.84,0-6.4-2.72-6.32-6.08
			c-0.08-3.52,2.48-6.16,6.4-6.16C381.411,189.684,383.891,192.324,383.971,195.844z M371.41,245.845v-39.121h12.161v39.121H371.41z
			"/>
		<path style="fill:#FFFFFF;" d="M430.69,206.724c-0.16,2.48-0.32,5.76-0.32,11.601v21.84c0,7.52-1.52,13.68-5.92,17.601
			c-4.32,3.68-10.16,4.8-15.92,4.8c-5.12,0-10.561-1.04-14.081-3.04l2.4-9.2c2.48,1.44,6.8,2.96,11.36,2.96
			c5.76,0,10.161-3.12,10.161-10.32v-2.56h-0.16c-2.32,3.28-6.08,5.12-10.561,5.12c-9.68,0-16.56-7.84-16.56-19.121
			c0-12.561,8.16-20.561,17.76-20.561c5.36,0,8.72,2.32,10.72,5.52h0.16l0.4-4.64H430.69z M418.21,222.644c0-0.8-0.08-1.6-0.24-2.24
			c-0.88-3.2-3.2-5.36-6.56-5.36c-4.4,0-8,4-8,11.12c0,5.84,2.88,10.4,8,10.4c3.12,0,5.6-2.08,6.4-4.96c0.32-0.88,0.4-2.16,0.4-3.2
			V222.644z"/>
		<path style="fill:#FFFFFF;" d="M440.049,235.205c2.24,1.36,6.88,2.96,10.48,2.96c3.68,0,5.2-1.28,5.2-3.28
			c0-2-1.2-2.96-5.761-4.48c-8.08-2.72-11.2-7.12-11.12-11.76c0-7.28,6.24-12.8,15.92-12.8c4.561,0,8.641,1.04,11.041,2.24
			l-2.16,8.4c-1.761-0.96-5.12-2.24-8.48-2.24c-2.96,0-4.64,1.2-4.64,3.2c0,1.84,1.52,2.8,6.319,4.48
			c7.44,2.56,10.561,6.32,10.641,12.08c0,7.28-5.76,12.64-16.96,12.64c-5.121,0-9.681-1.12-12.641-2.72L440.049,235.205z"/>
		<path style="fill:#FFFFFF;" d="M497.089,245.845l-0.721-3.92h-0.24c-2.56,3.12-6.56,4.8-11.2,4.8c-7.92,0-12.64-5.76-12.64-12
			c0-10.16,9.12-15.041,22.96-14.96v-0.56c0-2.08-1.12-5.04-7.12-5.04c-4,0-8.24,1.36-10.8,2.96l-2.24-7.84
			c2.72-1.52,8.08-3.44,15.2-3.44c13.04,0,17.2,7.68,17.2,16.88v13.601c0,3.76,0.16,7.36,0.561,9.52H497.089z M495.648,227.364
			c-6.4-0.08-11.36,1.44-11.36,6.16c0,3.12,2.08,4.64,4.8,4.64c3.04,0,5.521-2,6.32-4.48c0.16-0.64,0.24-1.36,0.24-2.08V227.364z"/>
		<path style="fill:#FFFFFF;" d="M525.488,206.724l3.12,16c0.8,4.08,1.6,8.4,2.24,12.88h0.16c0.8-4.48,1.92-8.96,2.88-12.8
			l4.16-16.081h9.6l3.921,15.601c1.04,4.4,2.08,8.8,2.88,13.28h0.16c0.56-4.48,1.359-8.88,2.239-13.36l3.36-15.521h11.92l-12,39.121
			h-11.44l-3.68-13.76c-0.96-3.84-1.68-7.36-2.48-12.16h-0.159c-0.721,4.88-1.521,8.48-2.561,12.16l-3.92,13.76h-11.44
			l-11.36-39.121H525.488z"/>
	</g>
</g>
<g id="jfx:p03">
	<g>
		<path style="fill:#FFFFFF;" d="M108.376,350.074c-2.24,1.12-7.28,2.32-13.84,2.32c-18.64,0-28.24-11.6-28.24-26.96
			c0-18.4,13.12-28.641,29.44-28.641c6.32,0,11.12,1.28,13.28,2.4l-2.48,9.68c-2.48-1.04-5.92-2-10.24-2
			c-9.68,0-17.2,5.84-17.2,17.84c0,10.8,6.4,17.601,17.28,17.601c3.68,0,7.76-0.8,10.16-1.76L108.376,350.074z"/>
		<path style="fill:#FFFFFF;" d="M154.615,331.593c0,14.32-10.16,20.88-20.641,20.88c-11.44,0-20.24-7.52-20.24-20.16
			c0-12.641,8.32-20.721,20.88-20.721C146.615,311.593,154.615,319.833,154.615,331.593z M126.294,331.993c0,6.72,2.8,11.76,8,11.76
			c4.72,0,7.76-4.72,7.76-11.76c0-5.84-2.24-11.76-7.76-11.76C128.454,320.233,126.294,326.233,126.294,331.993z"/>
		<path style="fill:#FFFFFF;" d="M162.133,294.792h12.161v56.801h-12.161V294.792z"/>
		<path style="fill:#FFFFFF;" d="M184.133,294.792h12.161v56.801h-12.161V294.792z"/>
		<path style="fill:#FFFFFF;" d="M215.493,335.914c0.4,5.04,5.36,7.44,11.041,7.44c4.16,0,7.52-0.56,10.8-1.6l1.6,8.24
			c-4,1.6-8.88,2.4-14.16,2.4c-13.28,0-20.88-7.68-20.88-19.92c0-9.92,6.16-20.88,19.76-20.88c12.641,0,17.44,9.84,17.44,19.521
			c0,2.08-0.24,3.92-0.4,4.8H215.493z M229.813,327.593c0-2.96-1.28-7.92-6.88-7.92c-5.12,0-7.2,4.64-7.521,7.92H229.813z"/>
		<path style="fill:#FFFFFF;" d="M277.733,350.634c-2.16,0.96-6.24,1.76-10.88,1.76c-12.64,0-20.72-7.68-20.72-20
			c0-11.44,7.84-20.801,22.4-20.801c3.2,0,6.72,0.56,9.28,1.52l-1.92,9.041c-1.44-0.64-3.6-1.2-6.8-1.2
			c-6.4,0-10.56,4.56-10.48,10.96c0,7.2,4.8,10.96,10.721,10.96c2.88,0,5.12-0.48,6.96-1.2L277.733,350.634z"/>
		<path style="fill:#FFFFFF;" d="M298.052,301.272v11.2h8.72v8.96h-8.72v14.16c0,4.72,1.12,6.88,4.8,6.88c1.52,0,2.72-0.16,3.6-0.32
			l0.08,9.2c-1.6,0.64-4.48,1.04-7.92,1.04c-3.92,0-7.2-1.36-9.12-3.36c-2.24-2.32-3.36-6.08-3.36-11.6v-16h-5.2v-8.96h5.2v-8.48
			L298.052,301.272z"/>
		<path style="fill:#FFFFFF;" d="M326.371,301.593c0,3.36-2.56,6.08-6.56,6.08c-3.84,0-6.4-2.72-6.32-6.08
			c-0.08-3.52,2.48-6.16,6.4-6.16C323.811,295.433,326.291,298.073,326.371,301.593z M313.811,351.594v-39.121h12.161v39.121
			H313.811z"/>
		<path style="fill:#FFFFFF;" d="M374.371,331.593c0,14.32-10.16,20.88-20.641,20.88c-11.44,0-20.24-7.52-20.24-20.16
			c0-12.641,8.32-20.721,20.88-20.721C366.371,311.593,374.371,319.833,374.371,331.593z M346.05,331.993c0,6.72,2.8,11.76,8,11.76
			c4.72,0,7.76-4.72,7.76-11.76c0-5.84-2.24-11.76-7.76-11.76C348.21,320.233,346.05,326.233,346.05,331.993z"/>
		<path style="fill:#FFFFFF;" d="M381.889,324.953c0-4.88-0.16-9.04-0.32-12.48h10.56l0.56,5.36h0.24c1.6-2.48,5.6-6.24,12.08-6.24
			c8,0,14,5.28,14,16.8v23.201h-12.16v-21.681c0-5.04-1.76-8.48-6.16-8.48c-3.36,0-5.36,2.32-6.16,4.56
			c-0.32,0.72-0.48,1.92-0.48,3.04v22.561h-12.161V324.953z"/>
		<path style="fill:#FFFFFF;" d="M445.329,297.672h12.24v43.681h21.44v10.24h-33.681V297.672z"/>
		<path style="fill:#FFFFFF;" d="M498.368,301.593c0,3.36-2.561,6.08-6.561,6.08c-3.84,0-6.399-2.72-6.319-6.08
			c-0.08-3.52,2.479-6.16,6.399-6.16S498.288,298.073,498.368,301.593z M485.808,351.594v-39.121h12.16v39.121H485.808z"/>
		<path style="fill:#FFFFFF;" d="M521.327,301.272v11.2h8.72v8.96h-8.72v14.16c0,4.72,1.12,6.88,4.8,6.88
			c1.521,0,2.721-0.16,3.601-0.32l0.08,9.2c-1.601,0.64-4.48,1.04-7.921,1.04c-3.92,0-7.2-1.36-9.12-3.36
			c-2.24-2.32-3.359-6.08-3.359-11.6v-16h-5.2v-8.96h5.2v-8.48L521.327,301.272z"/>
		<path style="fill:#FFFFFF;" d="M546.446,335.914c0.4,5.04,5.36,7.44,11.04,7.44c4.16,0,7.521-0.56,10.801-1.6l1.6,8.24
			c-4,1.6-8.88,2.4-14.16,2.4c-13.28,0-20.881-7.68-20.881-19.92c0-9.92,6.16-20.88,19.761-20.88c12.641,0,17.44,9.84,17.44,19.521
			c0,2.08-0.24,3.92-0.4,4.8H546.446z M560.767,327.593c0-2.96-1.28-7.92-6.88-7.92c-5.12,0-7.2,4.64-7.521,7.92H560.767z"/>
		<path style="fill:#FFFFFF;" d="M579.326,325.353c0-5.76-0.16-9.52-0.319-12.88h10.479l0.4,7.2h0.32c2-5.68,6.8-8.08,10.56-8.08
			c1.12,0,1.681,0,2.561,0.16v11.44c-0.88-0.16-1.92-0.32-3.28-0.32c-4.48,0-7.521,2.4-8.32,6.16c-0.16,0.8-0.24,1.76-0.24,2.72
			v19.84h-12.16V325.353z"/>
		<path style="fill:#FFFFFF;" d="M631.967,351.594l-0.721-3.92h-0.24c-2.56,3.12-6.56,4.8-11.2,4.8c-7.92,0-12.64-5.76-12.64-12
			c0-10.16,9.12-15.041,22.96-14.96v-0.56c0-2.08-1.12-5.04-7.12-5.04c-4,0-8.24,1.36-10.8,2.96l-2.24-7.84
			c2.72-1.52,8.08-3.44,15.2-3.44c13.04,0,17.2,7.68,17.2,16.88v13.601c0,3.76,0.16,7.36,0.561,9.52H631.967z M630.526,333.113
			c-6.4-0.08-11.36,1.44-11.36,6.16c0,3.12,2.08,4.64,4.8,4.64c3.04,0,5.521-2,6.32-4.48c0.16-0.64,0.24-1.36,0.24-2.08V333.113z"/>
		<path style="fill:#FFFFFF;" d="M651.966,294.792h12.16v56.801h-12.16V294.792z"/>
	</g>
</g>
<g id="jfx:p04">
	<g>
		<path style="fill:#FFFFFF;" d="M68.775,457.343v-53.921h14.24l11.2,19.76c3.2,5.681,6.4,12.4,8.8,18.48h0.24
			c-0.8-7.119-1.04-14.4-1.04-22.48v-15.76h11.2v53.921h-12.8l-11.521-20.8c-3.2-5.761-6.72-12.721-9.36-19.041l-0.24,0.08
			c0.32,7.12,0.48,14.721,0.48,23.521v16.24H68.775z"/>
		<path style="fill:#FFFFFF;" d="M132.935,441.662c0.4,5.041,5.36,7.44,11.041,7.44c4.16,0,7.52-0.56,10.8-1.601l1.6,8.24
			c-4,1.601-8.88,2.4-14.16,2.4c-13.28,0-20.88-7.68-20.88-19.92c0-9.92,6.16-20.881,19.76-20.881c12.641,0,17.44,9.84,17.44,19.521
			c0,2.08-0.24,3.92-0.4,4.8H132.935z M147.255,433.342c0-2.959-1.28-7.92-6.88-7.92c-5.12,0-7.2,4.641-7.521,7.92H147.255z"/>
		<path style="fill:#FFFFFF;" d="M174.215,418.222l3.12,16.001c0.8,4.08,1.6,8.4,2.24,12.88h0.16c0.8-4.479,1.92-8.96,2.88-12.8
			l4.16-16.081h9.6l3.92,15.601c1.04,4.4,2.08,8.801,2.88,13.28h0.16c0.56-4.479,1.36-8.88,2.24-13.36l3.36-15.521h11.92l-12,39.121
			h-11.44l-3.68-13.761c-0.96-3.84-1.68-7.359-2.48-12.16h-0.16c-0.72,4.881-1.52,8.48-2.56,12.16l-3.92,13.761h-11.44
			l-11.36-39.121H174.215z"/>
		<path style="fill:#FFFFFF;" d="M255.333,403.422v20.721h20.081v-20.721h12.16v53.921h-12.16v-22.561h-20.081v22.561h-12.24
			v-53.921H255.333z"/>
		<path style="fill:#FFFFFF;" d="M308.613,413.662h-14.48v-10.24h41.441v10.24h-14.721v43.681h-12.24V413.662z"/>
		<path style="fill:#FFFFFF;" d="M352.452,413.662h-14.48v-10.24h41.441v10.24h-14.721v43.681h-12.24V413.662z"/>
		<path style="fill:#FFFFFF;" d="M385.891,404.142c3.76-0.64,9.04-1.12,16.48-1.12c7.52,0,12.88,1.439,16.48,4.32
			c3.44,2.72,5.76,7.2,5.76,12.48c0,5.279-1.76,9.76-4.96,12.8c-4.16,3.921-10.32,5.681-17.521,5.681c-1.6,0-3.04-0.08-4.16-0.24
			v19.28h-12.08V404.142z M397.971,428.622c1.04,0.24,2.32,0.319,4.08,0.319c6.48,0,10.48-3.279,10.48-8.799
			c0-4.961-3.44-7.921-9.521-7.921c-2.48,0-4.16,0.24-5.04,0.479V428.622z"/>
		<path style="fill:#FFFFFF;" d="M488.131,455.822c-2.24,1.121-7.28,2.32-13.841,2.32c-18.641,0-28.24-11.6-28.24-26.961
			c0-18.4,13.12-28.641,29.44-28.641c6.32,0,11.12,1.281,13.28,2.4l-2.48,9.68c-2.479-1.039-5.92-2-10.24-2
			c-9.68,0-17.2,5.841-17.2,17.841c0,10.8,6.4,17.601,17.28,17.601c3.681,0,7.761-0.8,10.16-1.76L488.131,455.822z"/>
		<path style="fill:#FFFFFF;" d="M495.729,400.541h12.16v56.802h-12.16V400.541z"/>
		<path style="fill:#FFFFFF;" d="M530.289,407.342c0,3.359-2.561,6.08-6.561,6.08c-3.84,0-6.399-2.721-6.319-6.08
			c-0.08-3.52,2.479-6.16,6.399-6.16S530.209,403.822,530.289,407.342z M517.729,457.343v-39.121h12.16v39.121H517.729z"/>
		<path style="fill:#FFFFFF;" d="M549.008,441.662c0.4,5.041,5.36,7.44,11.04,7.44c4.16,0,7.521-0.56,10.801-1.601l1.6,8.24
			c-4,1.601-8.88,2.4-14.16,2.4c-13.28,0-20.881-7.68-20.881-19.92c0-9.92,6.16-20.881,19.761-20.881
			c12.641,0,17.44,9.84,17.44,19.521c0,2.08-0.24,3.92-0.4,4.8H549.008z M563.328,433.342c0-2.959-1.28-7.92-6.88-7.92
			c-5.12,0-7.2,4.641-7.521,7.92H563.328z"/>
		<path style="fill:#FFFFFF;" d="M581.888,430.702c0-4.88-0.16-9.04-0.319-12.48h10.56l0.561,5.36h0.239
			c1.601-2.48,5.601-6.24,12.081-6.24c8,0,14,5.28,14,16.801v23.2h-12.16v-21.681c0-5.04-1.76-8.48-6.16-8.48
			c-3.36,0-5.36,2.32-6.16,4.561c-0.32,0.721-0.48,1.92-0.48,3.04v22.561h-12.16V430.702z"/>
		<path style="fill:#FFFFFF;" d="M642.368,407.021v11.2h8.72v8.96h-8.72v14.16c0,4.721,1.12,6.881,4.8,6.881
			c1.521,0,2.721-0.16,3.601-0.32l0.08,9.2c-1.601,0.64-4.48,1.04-7.921,1.04c-3.92,0-7.2-1.359-9.12-3.359
			c-2.24-2.32-3.359-6.08-3.359-11.601v-16.001h-5.2v-8.96h5.2v-8.479L642.368,407.021z"/>
	</g>
</g>
<g id="jfx:p05">
	<g>
		<path style="fill:#F8981D;" d="M617.774,530.438h15.2v42.603c0,19.201-9.199,25.901-24.001,25.901c-3.5,0-8.101-0.6-11.101-1.6
			l1.7-12.301c2.101,0.7,4.8,1.2,7.8,1.2c6.4,0,10.401-2.9,10.401-13.401V530.438z"/>
		<path style="fill:#F8981D;" d="M672.975,597.842l-0.9-4.9h-0.299c-3.201,3.9-8.201,6-14.002,6c-9.9,0-15.801-7.2-15.801-15
			c0-12.701,11.4-18.802,28.702-18.701v-0.701c0-2.6-1.4-6.3-8.901-6.3c-5,0-10.3,1.7-13.5,3.7l-2.801-9.801
			c3.4-1.9,10.102-4.3,19.002-4.3c16.301,0,21.501,9.601,21.501,21.101v17.002c0,4.7,0.2,9.2,0.7,11.9H672.975z M671.175,574.74
			c-8.001-0.1-14.201,1.801-14.201,7.701c0,3.9,2.601,5.8,6.001,5.8c3.8,0,6.9-2.5,7.9-5.601c0.199-0.8,0.3-1.699,0.3-2.6V574.74z"
			/>
		<path style="fill:#F8981D;" d="M709.273,548.939l6.601,22.701c1.2,4.1,2.101,8,2.8,11.9h0.301c0.8-4,1.6-7.701,2.699-11.9
			l6.301-22.701h16.001l-18.201,48.902h-15.2l-17.802-48.902H709.273z"/>
		<path style="fill:#F8981D;" d="M778.774,597.842l-0.899-4.9h-0.301c-3.199,3.9-8.2,6-14,6c-9.9,0-15.801-7.2-15.801-15
			c0-12.701,11.4-18.802,28.701-18.701v-0.701c0-2.6-1.4-6.3-8.9-6.3c-5,0-10.301,1.7-13.501,3.7l-2.8-9.801
			c3.4-1.9,10.1-4.3,19-4.3c16.302,0,21.502,9.601,21.502,21.101v17.002c0,4.7,0.2,9.2,0.7,11.9H778.774z M776.975,574.74
			c-8-0.1-14.201,1.801-14.201,7.701c0,3.9,2.601,5.8,6,5.8c3.801,0,6.9-2.5,7.9-5.601c0.201-0.8,0.301-1.699,0.301-2.6V574.74z"/>
		<path style="fill:#F8981D;" d="M824.973,582.141c4.1,2.101,10.4,4.201,16.9,4.201c7.001,0,10.701-2.9,10.701-7.301
			c0-4.201-3.2-6.601-11.301-9.501c-11.201-3.9-18.501-10.101-18.501-19.901c0-11.5,9.601-20.301,25.501-20.301
			c7.602,0,13.201,1.6,17.201,3.4l-3.4,12.301c-2.699-1.301-7.5-3.201-14.1-3.201c-6.602,0-9.801,3-9.801,6.501
			c0,4.3,3.8,6.2,12.5,9.501c11.9,4.4,17.502,10.6,17.502,20.101c0,11.301-8.701,20.901-27.202,20.901c-7.7,0-15.302-2-19.101-4.1
			L824.973,582.141z"/>
		<path style="fill:#F8981D;" d="M918.574,569.34h-24.801v16.001h27.701v12.501h-43.002v-67.404h41.602v12.501h-26.301v14.001
			h24.801V569.34z"/>
		<path style="fill:#F8981D;" d="M954.471,586.842c1.9,0.199,3.601,0.199,6.602,0c4.6-0.301,9.3-1.601,12.801-4.001
			c4.199-2.899,7-7.101,8.199-12.001l-0.299-0.1c-2.9,3-7.102,4.7-13.002,4.7c-11,0-20.301-7.7-20.301-20.302
			c0-12.7,10.201-23.4,24.502-23.4c16.701,0,24.602,12.801,24.602,28.001c0,13.501-4.301,23.401-11.4,29.901
			c-6.201,5.602-14.701,8.701-24.803,9.102c-2.6,0.199-5.199,0.1-6.9,0V586.842z M963.672,554.239c0,5.601,3,10.4,9.201,10.4
			c4.1,0,7-2,8.4-4.3c0.5-0.9,0.799-1.9,0.799-3.801c0-6.9-2.6-13.701-9.5-13.701C967.372,542.838,963.572,547.438,963.672,554.239z
			"/>
	</g>
	<g>
		<path style="fill:#F7931E;" d="M845.979,446.998h57.008c0,0-0.285-39.986,0-74.5c0.441-53.5-33.333-74.5-73-74.5
			c-27,0-103.999,0-103.999,0v57c0,0,92.999,0,103.999,0s16.482,6.271,15.992,17.5C845.288,388.32,845.979,446.998,845.979,446.998z
			"/>
		<polygon style="fill:#F7931E;" points="873.681,492.349 931.886,443.967 815.475,443.967 		"/>
	</g>
</g>
</svg>
