<?xml version="1.0" encoding="iso-8859-1"?>
<!-- Generator: Adobe Illustrator 16.1.1, SVG Export Plug-In . SVG Version: 6.00 Build 0)  -->
<!DOCTYPE svg PUBLIC "-//W3C//DTD SVG 1.1//EN" "http://www.w3.org/Graphics/SVG/1.1/DTD/svg11.dtd">
<svg version="1.1" xmlns="http://www.w3.org/2000/svg" xmlns:xlink="http://www.w3.org/1999/xlink" x="0px" y="0px" width="1024px"
	 height="768px" viewBox="0 0 1024 768" style="enable-background:new 0 0 1024 768;" xml:space="preserve">
<g id="jfx:p00">
	<image style="overflow:visible;" width="1024" height="768" xlink:href="AE5CB97D.jpg" >
	</image>
</g>
<g id="jfx:p01">
	<rect style="opacity:0.5;fill:#0B1C49;" width="1024" height="768"/>
</g>
<g id="jfx:p02">
	<g>
		<path style="fill:#FFFFFF;" d="M119.118,88.173h12.24v43.681h21.44v10.24h-33.681V88.173z"/>
		<path style="fill:#FFFFFF;" d="M181.837,142.095l-0.72-3.92h-0.24c-2.56,3.12-6.56,4.8-11.2,4.8c-7.92,0-12.641-5.76-12.641-12
			c0-10.16,9.121-15.041,22.961-14.96v-0.56c0-2.08-1.12-5.04-7.12-5.04c-4,0-8.24,1.36-10.8,2.96l-2.24-7.84
			c2.72-1.52,8.08-3.44,15.2-3.44c13.041,0,17.201,7.68,17.201,16.88v13.601c0,3.76,0.16,7.36,0.56,9.52H181.837z M180.397,123.614
			c-6.4-0.08-11.36,1.44-11.36,6.16c0,3.12,2.08,4.64,4.8,4.64c3.04,0,5.52-2,6.32-4.48c0.16-0.64,0.24-1.36,0.24-2.08V123.614z"/>
		<path style="fill:#FFFFFF;" d="M201.836,115.454c0-4.88-0.16-9.04-0.32-12.48h10.24l0.56,5.28h0.24
			c1.68-2.48,5.12-6.16,11.84-6.16c5.041,0,9.041,2.56,10.72,6.64h0.16c1.44-2,3.2-3.6,5.04-4.72c2.16-1.28,4.56-1.92,7.44-1.92
			c7.52,0,13.2,5.28,13.2,16.96v23.041h-11.84v-21.28c0-5.68-1.84-8.96-5.76-8.96c-2.8,0-4.8,1.92-5.6,4.24
			c-0.32,0.88-0.48,2.16-0.48,3.12v22.88h-11.84v-21.92c0-4.96-1.76-8.32-5.6-8.32c-3.12,0-4.96,2.4-5.68,4.4
			c-0.4,0.96-0.48,2.08-0.48,3.041v22.8h-11.84V115.454z"/>
		<path style="fill:#FFFFFF;" d="M270.315,142.095c0.16-2.56,0.32-7.28,0.32-11.68V85.293h12.161v22.32h0.16
			c2.32-3.36,6.4-5.52,11.84-5.52c9.36,0,16.241,7.76,16.161,19.761c0,14.08-8.96,21.12-17.92,21.12c-4.56,0-8.96-1.68-11.76-6.32
			h-0.16l-0.48,5.44H270.315z M282.796,125.454c0,0.8,0.08,1.521,0.24,2.16c0.8,3.28,3.6,5.76,7.12,5.76c5.2,0,8.4-4,8.4-11.04
			c0-6.081-2.72-10.88-8.4-10.88c-3.28,0-6.32,2.48-7.12,6c-0.16,0.72-0.24,1.44-0.24,2.24V125.454z"/>
		<path style="fill:#FFFFFF;" d="M356.396,85.293v45.121c0,4.4,0.16,9.04,0.32,11.68h-10.8l-0.56-5.76h-0.16
			c-2.48,4.4-7.2,6.64-12.24,6.64c-9.28,0-16.72-7.92-16.72-20.08c-0.08-13.201,8.16-20.801,17.521-20.801
			c4.8,0,8.56,1.68,10.32,4.4h0.16V85.293H356.396z M344.235,119.534c0-0.64-0.08-1.52-0.16-2.16c-0.72-3.28-3.36-6-7.12-6
			c-5.52,0-8.4,4.96-8.4,11.12c0,6.64,3.28,10.8,8.32,10.8c3.52,0,6.32-2.4,7.04-5.84c0.24-0.88,0.32-1.76,0.32-2.8V119.534z"/>
		<path style="fill:#FFFFFF;" d="M388.395,142.095l-0.72-3.92h-0.24c-2.56,3.12-6.56,4.8-11.2,4.8c-7.92,0-12.641-5.76-12.641-12
			c0-10.16,9.121-15.041,22.961-14.96v-0.56c0-2.08-1.12-5.04-7.12-5.04c-4,0-8.24,1.36-10.8,2.96l-2.24-7.84
			c2.72-1.52,8.08-3.44,15.2-3.44c13.041,0,17.201,7.68,17.201,16.88v13.601c0,3.76,0.16,7.36,0.56,9.52H388.395z M386.955,123.614
			c-6.4-0.08-11.36,1.44-11.36,6.16c0,3.12,2.08,4.64,4.8,4.64c3.04,0,5.52-2,6.32-4.48c0.16-0.64,0.24-1.36,0.24-2.08V123.614z"/>
	</g>
	<g>
		<path style="fill:#FFFFFF;" d="M129.757,159.167h12.16v34.081c0,15.36-7.36,20.72-19.2,20.72c-2.8,0-6.48-0.48-8.88-1.28
			l1.36-9.84c1.68,0.56,3.84,0.96,6.24,0.96c5.12,0,8.32-2.32,8.32-10.72V159.167z"/>
		<path style="fill:#FFFFFF;" d="M173.917,213.089l-0.72-3.92h-0.24c-2.56,3.12-6.56,4.8-11.2,4.8c-7.92,0-12.641-5.76-12.641-12
			c0-10.16,9.121-15.041,22.961-14.96v-0.56c0-2.08-1.12-5.04-7.12-5.04c-4,0-8.24,1.36-10.8,2.96l-2.24-7.84
			c2.72-1.52,8.08-3.44,15.2-3.44c13.041,0,17.201,7.68,17.201,16.88v13.601c0,3.76,0.16,7.36,0.56,9.52H173.917z M172.477,194.608
			c-6.4-0.08-11.36,1.44-11.36,6.16c0,3.12,2.08,4.64,4.8,4.64c3.04,0,5.52-2,6.32-4.48c0.16-0.64,0.24-1.36,0.24-2.08V194.608z"/>
		<path style="fill:#FFFFFF;" d="M202.957,173.968l5.28,18.161c0.96,3.28,1.68,6.4,2.24,9.52h0.24c0.64-3.2,1.28-6.16,2.16-9.52
			l5.041-18.161h12.8l-14.561,39.121h-12.16l-14.24-39.121H202.957z"/>
		<path style="fill:#FFFFFF;" d="M258.557,213.089l-0.72-3.92h-0.24c-2.56,3.12-6.56,4.8-11.2,4.8c-7.92,0-12.641-5.76-12.641-12
			c0-10.16,9.121-15.041,22.961-14.96v-0.56c0-2.08-1.12-5.04-7.12-5.04c-4,0-8.24,1.36-10.8,2.96l-2.24-7.84
			c2.72-1.52,8.08-3.44,15.2-3.44c13.041,0,17.201,7.68,17.201,16.88v13.601c0,3.76,0.16,7.36,0.56,9.52H258.557z M257.117,194.608
			c-6.4-0.08-11.36,1.44-11.36,6.16c0,3.12,2.08,4.64,4.8,4.64c3.04,0,5.52-2,6.32-4.48c0.16-0.64,0.24-1.36,0.24-2.08V194.608z"/>
		<path style="fill:#FFFFFF;" d="M278.957,159.167h32.96v10h-20.72v12.32h19.36v9.92h-19.36v21.681h-12.24V159.167z"/>
		<path style="fill:#FFFFFF;" d="M349.516,213.089l-4.88-9.76c-2-3.76-3.28-6.56-4.8-9.68h-0.16c-1.12,3.12-2.48,5.92-4.16,9.68
			l-4.48,9.76h-13.92l15.6-27.281l-15.041-26.641h14l4.72,9.84c1.6,3.28,2.8,5.92,4.08,8.96h0.16c1.28-3.44,2.32-5.84,3.68-8.96
			l4.56-9.84h13.92l-15.2,26.321l16,27.601H349.516z"/>
	</g>
	<g>
		<path style="fill:#FFFFFF;" d="M164.719,263.442c-0.24-6.48-0.48-14.32-0.48-22.16h-0.24c-1.68,6.88-3.92,14.56-6,20.88
			l-6.56,21.041h-9.521l-5.76-20.881c-1.76-6.32-3.6-14-4.88-21.04h-0.16c-0.32,7.28-0.56,15.6-0.96,22.32l-0.96,20.48h-11.28
			l3.44-53.921h16.241l5.28,18c1.68,6.24,3.36,12.96,4.56,19.28h0.24c1.52-6.24,3.36-13.36,5.12-19.36l5.76-17.92h15.92l2.96,53.921
			h-11.92L164.719,263.442z"/>
		<path style="fill:#FFFFFF;" d="M198.958,234.082c0,3.36-2.56,6.08-6.56,6.08c-3.84,0-6.4-2.72-6.32-6.08
			c-0.08-3.52,2.48-6.16,6.4-6.16C196.397,227.922,198.877,230.562,198.958,234.082z M186.397,284.083v-39.121h12.161v39.121
			H186.397z"/>
		<path style="fill:#FFFFFF;" d="M208.236,273.443c2.24,1.36,6.88,2.96,10.48,2.96c3.68,0,5.2-1.28,5.2-3.28c0-2-1.2-2.96-5.76-4.48
			c-8.08-2.72-11.2-7.12-11.12-11.76c0-7.28,6.24-12.8,15.92-12.8c4.56,0,8.64,1.04,11.04,2.24l-2.16,8.4
			c-1.76-0.96-5.12-2.24-8.48-2.24c-2.96,0-4.64,1.2-4.64,3.2c0,1.84,1.52,2.8,6.32,4.48c7.44,2.56,10.56,6.32,10.64,12.08
			c0,7.28-5.76,12.64-16.96,12.64c-5.12,0-9.68-1.12-12.64-2.72L208.236,273.443z"/>
		<path style="fill:#FFFFFF;" d="M272.396,283.123c-2.16,0.96-6.24,1.76-10.88,1.76c-12.64,0-20.72-7.68-20.72-20
			c0-11.44,7.84-20.801,22.4-20.801c3.2,0,6.72,0.56,9.28,1.52l-1.92,9.041c-1.44-0.64-3.6-1.2-6.8-1.2
			c-6.4,0-10.56,4.56-10.48,10.96c0,7.2,4.8,10.96,10.721,10.96c2.88,0,5.12-0.48,6.96-1.2L272.396,283.123z"/>
		<path style="fill:#FFFFFF;" d="M278.234,277.603c0-4.32,2.96-7.44,7.2-7.44s7.12,3.04,7.12,7.44c0,4.24-2.88,7.36-7.2,7.36
			C281.194,284.963,278.234,281.843,278.234,277.603z"/>
		<path style="fill:#FFFFFF;" d="M316.474,230.162h32.96v10h-20.72v12.32h19.36v9.92h-19.36v21.681h-12.24V230.162z"/>
		<path style="fill:#FFFFFF;" d="M367.593,268.403c0.4,5.04,5.36,7.44,11.041,7.44c4.16,0,7.52-0.56,10.8-1.6l1.6,8.24
			c-4,1.6-8.88,2.4-14.16,2.4c-13.28,0-20.88-7.68-20.88-19.92c0-9.92,6.16-20.88,19.76-20.88c12.641,0,17.44,9.84,17.44,19.521
			c0,2.08-0.24,3.92-0.4,4.8H367.593z M381.914,260.083c0-2.96-1.28-7.92-6.88-7.92c-5.12,0-7.2,4.64-7.521,7.92H381.914z"/>
		<path style="fill:#FFFFFF;" d="M422.714,284.083l-0.72-3.92h-0.24c-2.56,3.12-6.56,4.8-11.2,4.8c-7.92,0-12.641-5.76-12.641-12
			c0-10.16,9.121-15.041,22.961-14.96v-0.56c0-2.08-1.12-5.04-7.12-5.04c-4,0-8.24,1.36-10.8,2.96l-2.24-7.84
			c2.72-1.52,8.08-3.44,15.2-3.44c13.041,0,17.201,7.68,17.201,16.88v13.601c0,3.76,0.16,7.36,0.56,9.52H422.714z M421.274,265.603
			c-6.4-0.08-11.36,1.44-11.36,6.16c0,3.12,2.08,4.64,4.8,4.64c3.04,0,5.52-2,6.32-4.48c0.16-0.64,0.24-1.36,0.24-2.08V265.603z"/>
		<path style="fill:#FFFFFF;" d="M456.314,233.762v11.2h8.72v8.96h-8.72v14.16c0,4.72,1.12,6.88,4.8,6.88c1.52,0,2.72-0.16,3.6-0.32
			l0.08,9.2c-1.6,0.64-4.48,1.04-7.92,1.04c-3.92,0-7.2-1.36-9.12-3.36c-2.24-2.32-3.36-6.08-3.36-11.6v-16h-5.2v-8.96h5.2v-8.48
			L456.314,233.762z"/>
		<path style="fill:#FFFFFF;" d="M508.954,271.523c0,5.12,0.16,9.28,0.32,12.56h-10.561l-0.56-5.52h-0.24
			c-1.521,2.4-5.2,6.4-12.24,6.4c-7.92,0-13.76-4.96-13.76-17.04v-22.961h12.24v21.041c0,5.68,1.84,9.121,6.08,9.121
			c3.36,0,5.28-2.32,6.081-4.24c0.319-0.72,0.399-1.68,0.399-2.64v-23.281h12.24V271.523z"/>
		<path style="fill:#FFFFFF;" d="M518.713,257.842c0-5.76-0.16-9.52-0.32-12.88h10.48l0.4,7.2h0.32c2-5.68,6.799-8.08,10.559-8.08
			c1.121,0,1.682,0,2.561,0.16v11.44c-0.879-0.16-1.92-0.32-3.279-0.32c-4.48,0-7.521,2.4-8.32,6.16c-0.16,0.8-0.24,1.76-0.24,2.72
			v19.84h-12.16V257.842z"/>
		<path style="fill:#FFFFFF;" d="M558.473,268.403c0.4,5.04,5.359,7.44,11.039,7.44c4.16,0,7.521-0.56,10.801-1.6l1.6,8.24
			c-4,1.6-8.879,2.4-14.16,2.4c-13.279,0-20.881-7.68-20.881-19.92c0-9.92,6.16-20.88,19.762-20.88
			c12.641,0,17.439,9.84,17.439,19.521c0,2.08-0.24,3.92-0.4,4.8H558.473z M572.793,260.083c0-2.96-1.281-7.92-6.881-7.92
			c-5.119,0-7.199,4.64-7.52,7.92H572.793z"/>
		<path style="fill:#FFFFFF;" d="M591.271,273.443c2.24,1.36,6.881,2.96,10.48,2.96c3.68,0,5.201-1.28,5.201-3.28
			c0-2-1.201-2.96-5.76-4.48c-8.08-2.72-11.201-7.12-11.121-11.76c0-7.28,6.24-12.8,15.92-12.8c4.561,0,8.641,1.04,11.041,2.24
			l-2.16,8.4c-1.76-0.96-5.121-2.24-8.48-2.24c-2.961,0-4.641,1.2-4.641,3.2c0,1.84,1.521,2.8,6.32,4.48
			c7.441,2.56,10.561,6.32,10.641,12.08c0,7.28-5.76,12.64-16.961,12.64c-5.119,0-9.68-1.12-12.641-2.72L591.271,273.443z"/>
	</g>
	<g>
		<path style="fill:#FFFFFF;" d="M129.757,301.157h12.16v34.081c0,15.36-7.36,20.72-19.2,20.72c-2.8,0-6.48-0.48-8.88-1.28
			l1.36-9.84c1.68,0.56,3.84,0.96,6.24,0.96c5.12,0,8.32-2.32,8.32-10.72V301.157z"/>
		<path style="fill:#FFFFFF;" d="M173.917,355.078l-0.72-3.92h-0.24c-2.56,3.12-6.56,4.8-11.2,4.8c-7.92,0-12.641-5.76-12.641-12
			c0-10.16,9.121-15.041,22.961-14.96v-0.56c0-2.08-1.12-5.04-7.12-5.04c-4,0-8.24,1.36-10.8,2.96l-2.24-7.84
			c2.72-1.52,8.08-3.44,15.2-3.44c13.041,0,17.201,7.68,17.201,16.88v13.601c0,3.76,0.16,7.36,0.56,9.52H173.917z M172.477,336.598
			c-6.4-0.08-11.36,1.44-11.36,6.16c0,3.12,2.08,4.64,4.8,4.64c3.04,0,5.52-2,6.32-4.48c0.16-0.64,0.24-1.36,0.24-2.08V336.598z"/>
		<path style="fill:#FFFFFF;" d="M202.957,315.957l5.28,18.161c0.96,3.28,1.68,6.4,2.24,9.52h0.24c0.64-3.2,1.28-6.16,2.16-9.52
			l5.041-18.161h12.8l-14.561,39.121h-12.16l-14.24-39.121H202.957z"/>
		<path style="fill:#FFFFFF;" d="M258.557,355.078l-0.72-3.92h-0.24c-2.56,3.12-6.56,4.8-11.2,4.8c-7.92,0-12.641-5.76-12.641-12
			c0-10.16,9.121-15.041,22.961-14.96v-0.56c0-2.08-1.12-5.04-7.12-5.04c-4,0-8.24,1.36-10.8,2.96l-2.24-7.84
			c2.72-1.52,8.08-3.44,15.2-3.44c13.041,0,17.201,7.68,17.201,16.88v13.601c0,3.76,0.16,7.36,0.56,9.52H258.557z M257.117,336.598
			c-6.4-0.08-11.36,1.44-11.36,6.16c0,3.12,2.08,4.64,4.8,4.64c3.04,0,5.52-2,6.32-4.48c0.16-0.64,0.24-1.36,0.24-2.08V336.598z"/>
		<path style="fill:#FFFFFF;" d="M295.516,342.518c3.28,1.68,8.32,3.36,13.521,3.36c5.6,0,8.56-2.32,8.56-5.84
			c0-3.36-2.56-5.28-9.041-7.6c-8.96-3.12-14.8-8.08-14.8-15.92c0-9.2,7.68-16.24,20.401-16.24c6.08,0,10.56,1.28,13.76,2.72
			l-2.72,9.84c-2.16-1.04-6-2.56-11.28-2.56s-7.84,2.4-7.84,5.2c0,3.44,3.04,4.96,10,7.6c9.52,3.521,14,8.48,14,16.081
			c0,9.04-6.96,16.72-21.76,16.72c-6.16,0-12.24-1.6-15.28-3.28L295.516,342.518z"/>
		<path style="fill:#FFFFFF;" d="M370.396,332.278h-19.84v12.8h22.16v10h-34.4v-53.921h33.281v10h-21.041v11.2h19.84V332.278z"/>
		<path style="fill:#FFFFFF;" d="M429.276,332.278h-19.84v12.8h22.161v10h-34.401v-53.921h33.281v10h-21.041v11.2h19.84V332.278z"/>
		<path style="fill:#FFFFFF;" d="M439.515,328.438c0-4.88-0.16-9.04-0.32-12.48h10.24l0.56,5.28h0.24
			c1.68-2.48,5.12-6.16,11.84-6.16c5.041,0,9.041,2.56,10.72,6.64h0.16c1.44-2,3.2-3.6,5.04-4.72c2.16-1.28,4.56-1.92,7.44-1.92
			c7.52,0,13.2,5.28,13.2,16.96v23.041h-11.84v-21.28c0-5.68-1.84-8.96-5.76-8.96c-2.8,0-4.8,1.92-5.6,4.24
			c-0.32,0.88-0.48,2.16-0.48,3.12v22.88h-11.84v-21.92c0-4.96-1.76-8.32-5.6-8.32c-3.12,0-4.96,2.4-5.68,4.4
			c-0.4,0.96-0.48,2.08-0.48,3.041v22.8h-11.84V328.438z"/>
		<path style="fill:#FFFFFF;" d="M507.995,355.078c0.159-2.56,0.319-7.28,0.319-11.68v-45.121h12.161v22.32h0.16
			c2.32-3.36,6.4-5.52,11.84-5.52c9.359,0,16.24,7.76,16.16,19.761c0,14.08-8.959,21.12-17.92,21.12c-4.561,0-8.961-1.68-11.76-6.32
			h-0.16l-0.48,5.44H507.995z M520.475,338.438c0,0.8,0.08,1.521,0.24,2.16c0.799,3.28,3.6,5.76,7.119,5.76c5.201,0,8.4-4,8.4-11.04
			c0-6.081-2.719-10.88-8.4-10.88c-3.279,0-6.32,2.48-7.119,6c-0.16,0.72-0.24,1.44-0.24,2.24V338.438z"/>
		<path style="fill:#FFFFFF;" d="M565.514,339.398c0.4,5.04,5.361,7.44,11.041,7.44c4.16,0,7.52-0.56,10.801-1.6l1.6,8.24
			c-4,1.6-8.881,2.4-14.16,2.4c-13.281,0-20.881-7.68-20.881-19.92c0-9.92,6.16-20.88,19.76-20.88
			c12.641,0,17.441,9.84,17.441,19.521c0,2.08-0.24,3.92-0.4,4.8H565.514z M579.834,331.078c0-2.96-1.279-7.92-6.879-7.92
			c-5.121,0-7.201,4.64-7.521,7.92H579.834z"/>
		<path style="fill:#FFFFFF;" d="M636.314,298.277v45.121c0,4.4,0.16,9.04,0.32,11.68h-10.801l-0.559-5.76h-0.16
			c-2.48,4.4-7.201,6.64-12.24,6.64c-9.281,0-16.721-7.92-16.721-20.08c-0.08-13.201,8.16-20.801,17.52-20.801
			c4.801,0,8.561,1.68,10.32,4.4h0.16v-21.201H636.314z M624.154,332.518c0-0.64-0.08-1.52-0.16-2.16c-0.719-3.28-3.359-6-7.119-6
			c-5.52,0-8.4,4.96-8.4,11.12c0,6.64,3.279,10.8,8.32,10.8c3.52,0,6.32-2.4,7.039-5.84c0.24-0.88,0.32-1.76,0.32-2.8V332.518z"/>
		<path style="fill:#FFFFFF;" d="M683.994,298.277v45.121c0,4.4,0.16,9.04,0.32,11.68h-10.801l-0.559-5.76h-0.16
			c-2.48,4.4-7.201,6.64-12.24,6.64c-9.281,0-16.721-7.92-16.721-20.08c-0.08-13.201,8.16-20.801,17.52-20.801
			c4.801,0,8.561,1.68,10.32,4.4h0.16v-21.201H683.994z M671.834,332.518c0-0.64-0.08-1.52-0.16-2.16c-0.719-3.28-3.359-6-7.119-6
			c-5.52,0-8.4,4.96-8.4,11.12c0,6.64,3.279,10.8,8.32,10.8c3.52,0,6.32-2.4,7.039-5.84c0.24-0.88,0.32-1.76,0.32-2.8V332.518z"/>
		<path style="fill:#FFFFFF;" d="M703.113,339.398c0.4,5.04,5.361,7.44,11.041,7.44c4.16,0,7.52-0.56,10.801-1.6l1.6,8.24
			c-4,1.6-8.881,2.4-14.16,2.4c-13.281,0-20.881-7.68-20.881-19.92c0-9.92,6.16-20.88,19.76-20.88
			c12.641,0,17.441,9.84,17.441,19.521c0,2.08-0.24,3.92-0.4,4.8H703.113z M717.434,331.078c0-2.96-1.279-7.92-6.879-7.92
			c-5.121,0-7.201,4.64-7.521,7.92H717.434z"/>
		<path style="fill:#FFFFFF;" d="M773.914,298.277v45.121c0,4.4,0.16,9.04,0.32,11.68h-10.801l-0.559-5.76h-0.16
			c-2.48,4.4-7.201,6.64-12.24,6.64c-9.281,0-16.721-7.92-16.721-20.08c-0.08-13.201,8.16-20.801,17.52-20.801
			c4.801,0,8.561,1.68,10.32,4.4h0.16v-21.201H773.914z M761.754,332.518c0-0.64-0.08-1.52-0.16-2.16c-0.719-3.28-3.359-6-7.119-6
			c-5.52,0-8.4,4.96-8.4,11.12c0,6.64,3.279,10.8,8.32,10.8c3.52,0,6.32-2.4,7.039-5.84c0.24-0.88,0.32-1.76,0.32-2.8V332.518z"/>
	</g>
</g>
<g id="jfx:p03">
	<g>
		<path style="fill:#FFFFFF;" d="M129.02,446.953h-0.128l-7.936,3.776l-1.6-7.296l11.007-5.119h8.063v41.597h-9.407V446.953z"/>
		<path style="fill:#FFFFFF;" d="M150.46,482.471l13.695-46.396h6.464l-13.695,46.396H150.46z"/>
		<path style="fill:#FFFFFF;" d="M175.035,470.376c1.728,0.896,5.696,2.56,9.664,2.56c5.056,0,7.615-2.432,7.615-5.567
			c0-4.096-4.096-5.952-8.383-5.952h-3.968v-6.975h3.776c3.264-0.064,7.423-1.28,7.423-4.801c0-2.495-2.048-4.352-6.144-4.352
			c-3.392,0-6.976,1.473-8.703,2.496l-1.984-7.039c2.496-1.6,7.487-3.136,12.863-3.136c8.896,0,13.823,4.671,13.823,10.367
			c0,4.415-2.496,7.871-7.616,9.663v0.128c4.992,0.896,9.023,4.672,9.023,10.111c0,7.359-6.463,12.735-17.023,12.735
			c-5.375,0-9.919-1.408-12.351-2.943L175.035,470.376z"/>
		<path style="fill:#FFFFFF;" d="M221.242,446.953h-0.128l-7.936,3.776l-1.6-7.296l11.007-5.119h8.063v41.597h-9.407V446.953z"/>
		<path style="fill:#FFFFFF;" d="M258.81,436.778h26.366v7.999h-16.575v9.855h15.487v7.936h-15.487v17.343h-9.792V436.778z"/>
		<path style="fill:#FFFFFF;" d="M299.705,467.368c0.32,4.032,4.288,5.952,8.832,5.952c3.328,0,6.016-0.449,8.639-1.281l1.28,6.592
			c-3.2,1.28-7.104,1.92-11.327,1.92c-10.623,0-16.703-6.143-16.703-15.935c0-7.936,4.928-16.702,15.807-16.702
			c10.111,0,13.951,7.871,13.951,15.614c0,1.664-0.192,3.136-0.32,3.84H299.705z M311.16,460.713c0-2.368-1.024-6.336-5.503-6.336
			c-4.096,0-5.76,3.712-6.016,6.336H311.16z"/>
		<path style="fill:#FFFFFF;" d="M343.8,479.911l-0.576-3.136h-0.192c-2.048,2.496-5.248,3.84-8.959,3.84
			c-6.335,0-10.111-4.607-10.111-9.6c0-8.127,7.295-12.031,18.367-11.967v-0.448c0-1.663-0.896-4.032-5.696-4.032
			c-3.2,0-6.591,1.088-8.639,2.369l-1.792-6.272c2.176-1.216,6.463-2.751,12.159-2.751c10.431,0,13.759,6.143,13.759,13.502v10.88
			c0,3.008,0.128,5.888,0.448,7.615H343.8z M342.648,465.129c-5.12-0.064-9.087,1.151-9.087,4.927c0,2.496,1.664,3.712,3.84,3.712
			c2.432,0,4.416-1.6,5.056-3.584c0.128-0.512,0.192-1.088,0.192-1.664V465.129z"/>
		<path style="fill:#FFFFFF;" d="M370.681,439.658v8.959h6.976v7.168h-6.976v11.327c0,3.775,0.896,5.503,3.84,5.503
			c1.216,0,2.176-0.127,2.88-0.256l0.064,7.359c-1.28,0.512-3.583,0.832-6.335,0.832c-3.136,0-5.76-1.088-7.295-2.688
			c-1.792-1.855-2.688-4.863-2.688-9.279v-12.799h-4.16v-7.168h4.16v-6.783L370.681,439.658z"/>
		<path style="fill:#FFFFFF;" d="M412.791,469.863c0,4.096,0.128,7.424,0.256,10.048H404.6l-0.448-4.415h-0.192
			c-1.216,1.92-4.16,5.119-9.792,5.119c-6.335,0-11.007-3.968-11.007-13.631v-18.367h9.791v16.831c0,4.544,1.472,7.296,4.864,7.296
			c2.688,0,4.224-1.856,4.864-3.393c0.256-0.576,0.32-1.344,0.32-2.111v-18.623h9.792V469.863z"/>
		<path style="fill:#FFFFFF;" d="M420.601,458.921c0-4.608-0.128-7.616-0.256-10.304h8.383l0.32,5.76h0.256
			c1.6-4.543,5.44-6.463,8.448-6.463c0.896,0,1.344,0,2.048,0.127v9.152c-0.704-0.129-1.536-0.256-2.624-0.256
			c-3.584,0-6.016,1.919-6.655,4.927c-0.128,0.64-0.192,1.408-0.192,2.176v15.871h-9.727V458.921z"/>
		<path style="fill:#FFFFFF;" d="M452.407,467.368c0.32,4.032,4.288,5.952,8.832,5.952c3.328,0,6.016-0.449,8.639-1.281l1.28,6.592
			c-3.2,1.28-7.104,1.92-11.327,1.92c-10.623,0-16.703-6.143-16.703-15.935c0-7.936,4.928-16.702,15.807-16.702
			c10.111,0,13.951,7.871,13.951,15.614c0,1.664-0.192,3.136-0.32,3.84H452.407z M463.862,460.713c0-2.368-1.024-6.336-5.503-6.336
			c-4.096,0-5.76,3.712-6.016,6.336H463.862z"/>
		<path style="fill:#FFFFFF;" d="M523.637,478.695c-1.791,0.896-5.822,1.855-11.071,1.855c-14.911,0-22.59-9.279-22.59-21.566
			c0-14.719,10.496-22.91,23.55-22.91c5.057,0,8.896,1.023,10.623,1.92l-1.982,7.744c-1.984-0.832-4.736-1.601-8.191-1.601
			c-7.744,0-13.759,4.672-13.759,14.271c0,8.64,5.119,14.08,13.822,14.08c2.945,0,6.209-0.641,8.129-1.408L523.637,478.695z"/>
		<path style="fill:#FFFFFF;" d="M560.629,463.912c0,11.455-8.127,16.703-16.512,16.703c-9.15,0-16.189-6.016-16.189-16.127
			s6.654-16.574,16.701-16.574C554.229,447.914,560.629,454.505,560.629,463.912z M537.975,464.232c0,5.375,2.24,9.407,6.398,9.407
			c3.775,0,6.209-3.776,6.209-9.407c0-4.672-1.793-9.407-6.209-9.407C539.701,454.825,537.975,459.625,537.975,464.232z"/>
		<path style="fill:#FFFFFF;" d="M566.646,458.601c0-3.903-0.129-7.231-0.256-9.983h8.191l0.447,4.225h0.193
			c1.344-1.984,4.096-4.928,9.471-4.928c4.031,0,7.23,2.047,8.574,5.311h0.129c1.152-1.6,2.561-2.879,4.031-3.775
			c1.729-1.023,3.648-1.535,5.951-1.535c6.016,0,10.561,4.223,10.561,13.566v18.431h-9.473v-17.022c0-4.544-1.471-7.168-4.607-7.168
			c-2.238,0-3.84,1.536-4.479,3.393c-0.256,0.703-0.385,1.727-0.385,2.495v18.303h-9.471v-17.534c0-3.969-1.408-6.656-4.48-6.656
			c-2.496,0-3.967,1.92-4.543,3.52c-0.32,0.769-0.385,1.664-0.385,2.432v18.239h-9.471V458.601z"/>
		<path style="fill:#FFFFFF;" d="M621.686,459.113c0-4.096-0.129-7.616-0.256-10.496h8.447l0.447,4.352h0.129
			c2.303-3.328,5.887-5.055,10.432-5.055c6.848,0,12.99,5.951,12.99,15.934c0,11.392-7.23,16.768-14.207,16.768
			c-3.775,0-6.719-1.536-8.127-3.584h-0.129v15.551h-9.727V459.113z M631.412,466.473c0,0.768,0.064,1.471,0.193,2.047
			c0.639,2.624,2.879,4.607,5.695,4.607c4.223,0,6.719-3.52,6.719-8.83c0-4.992-2.24-8.768-6.592-8.768
			c-2.752,0-5.184,2.047-5.822,4.928c-0.129,0.512-0.193,1.151-0.193,1.728V466.473z"/>
		<path style="fill:#FFFFFF;" d="M659.957,434.475h9.727v45.437h-9.727V434.475z"/>
		<path style="fill:#FFFFFF;" d="M685.045,467.368c0.318,4.032,4.287,5.952,8.83,5.952c3.328,0,6.016-0.449,8.641-1.281l1.279,6.592
			c-3.199,1.28-7.104,1.92-11.328,1.92c-10.623,0-16.701-6.143-16.701-15.935c0-7.936,4.926-16.702,15.807-16.702
			c10.111,0,13.951,7.871,13.951,15.614c0,1.664-0.193,3.136-0.32,3.84H685.045z M696.5,460.713c0-2.368-1.025-6.336-5.504-6.336
			c-4.096,0-5.76,3.712-6.016,6.336H696.5z"/>
		<path style="fill:#FFFFFF;" d="M722.229,439.658v8.959h6.975v7.168h-6.975v11.327c0,3.775,0.895,5.503,3.84,5.503
			c1.215,0,2.176-0.127,2.879-0.256l0.064,7.359c-1.281,0.512-3.584,0.832-6.336,0.832c-3.137,0-5.76-1.088-7.295-2.688
			c-1.793-1.855-2.688-4.863-2.688-9.279v-12.799h-4.16v-7.168h4.16v-6.783L722.229,439.658z"/>
		<path style="fill:#FFFFFF;" d="M742.324,467.368c0.318,4.032,4.287,5.952,8.83,5.952c3.328,0,6.016-0.449,8.641-1.281l1.279,6.592
			c-3.199,1.28-7.104,1.92-11.328,1.92c-10.623,0-16.701-6.143-16.701-15.935c0-7.936,4.926-16.702,15.807-16.702
			c10.111,0,13.951,7.871,13.951,15.614c0,1.664-0.193,3.136-0.32,3.84H742.324z M753.779,460.713c0-2.368-1.025-6.336-5.504-6.336
			c-4.096,0-5.76,3.712-6.016,6.336H753.779z"/>
	</g>
</g>
<g id="jfx:p04">
	<g>
		<path style="fill:#FFFFFF;" d="M116.604,549.916v-5.888l5.375-4.863c9.087-8.128,13.503-12.8,13.631-17.663
			c0-3.392-2.048-6.08-6.848-6.08c-3.583,0-6.719,1.793-8.895,3.457l-2.752-6.977c3.136-2.367,8-4.287,13.631-4.287
			c9.408,0,14.591,5.504,14.591,13.055c0,6.976-5.056,12.543-11.071,17.919l-3.84,3.2v0.127h15.679v8H116.604z"/>
		<path style="fill:#FFFFFF;" d="M150.46,552.476l13.695-46.396h6.464l-13.695,46.396H150.46z"/>
		<path style="fill:#FFFFFF;" d="M173.308,549.916v-5.888l5.375-4.863c9.087-8.128,13.503-12.8,13.631-17.663
			c0-3.392-2.048-6.08-6.848-6.08c-3.583,0-6.719,1.793-8.895,3.457l-2.752-6.977c3.136-2.367,8-4.287,13.631-4.287
			c9.408,0,14.591,5.504,14.591,13.055c0,6.976-5.056,12.543-11.071,17.919l-3.84,3.2v0.127h15.679v8H173.308z"/>
		<path style="fill:#FFFFFF;" d="M221.242,516.959h-0.128l-7.936,3.775l-1.6-7.296l11.007-5.12h8.063v41.598h-9.407V516.959z"/>
		<path style="fill:#FFFFFF;" d="M258.81,507.359c3.584-0.576,8.255-0.896,13.183-0.896c8.191,0,13.503,1.473,17.663,4.607
			c4.48,3.328,7.295,8.64,7.295,16.256c0,8.255-3.008,13.951-7.167,17.471c-4.543,3.775-11.455,5.566-19.902,5.566
			c-5.056,0-8.64-0.319-11.071-0.639V507.359z M268.602,542.557c0.832,0.191,2.176,0.191,3.392,0.191
			c8.832,0.064,14.591-4.799,14.591-15.103c0.064-8.959-5.184-13.694-13.567-13.694c-2.176,0-3.584,0.191-4.416,0.383V542.557z"/>
		<path style="fill:#FFFFFF;" d="M310.521,537.373c0.32,4.031,4.288,5.951,8.832,5.951c3.328,0,6.016-0.447,8.639-1.279l1.28,6.592
			c-3.2,1.279-7.104,1.92-11.327,1.92c-10.623,0-16.703-6.145-16.703-15.936c0-7.936,4.928-16.703,15.807-16.703
			c10.111,0,13.951,7.871,13.951,15.615c0,1.664-0.192,3.136-0.32,3.84H310.521z M321.977,530.717c0-2.367-1.024-6.335-5.503-6.335
			c-4.096,0-5.76,3.712-6.016,6.335H321.977z"/>
		<path style="fill:#FFFFFF;" d="M344.058,518.622l4.224,14.527c0.768,2.624,1.344,5.12,1.792,7.615h0.192
			c0.512-2.56,1.024-4.928,1.728-7.615l4.032-14.527h10.239l-11.647,31.294h-9.727l-11.391-31.294H344.058z"/>
		<path style="fill:#FFFFFF;" d="M378.233,537.373c0.32,4.031,4.288,5.951,8.832,5.951c3.328,0,6.016-0.447,8.639-1.279l1.28,6.592
			c-3.2,1.279-7.104,1.92-11.327,1.92c-10.623,0-16.703-6.145-16.703-15.936c0-7.936,4.928-16.703,15.807-16.703
			c10.111,0,13.951,7.871,13.951,15.615c0,1.664-0.192,3.136-0.32,3.84H378.233z M389.688,530.717c0-2.367-1.024-6.335-5.503-6.335
			c-4.096,0-5.76,3.712-6.016,6.335H389.688z"/>
		<path style="fill:#FFFFFF;" d="M404.538,504.479h9.727v45.437h-9.727V504.479z"/>
		<path style="fill:#FFFFFF;" d="M453.047,533.917c0,11.456-8.127,16.703-16.511,16.703c-9.151,0-16.191-6.016-16.191-16.127
			s6.656-16.575,16.703-16.575C446.648,517.918,453.047,524.51,453.047,533.917z M430.393,534.237c0,5.376,2.24,9.407,6.399,9.407
			c3.776,0,6.208-3.775,6.208-9.407c0-4.672-1.792-9.407-6.208-9.407C432.121,524.83,430.393,529.629,430.393,534.237z"/>
		<path style="fill:#FFFFFF;" d="M459.065,529.117c0-4.096-0.128-7.615-0.256-10.495h8.447l0.448,4.353h0.128
			c2.304-3.328,5.888-5.057,10.432-5.057c6.847,0,12.991,5.952,12.991,15.936c0,11.391-7.231,16.767-14.207,16.767
			c-3.775,0-6.719-1.536-8.127-3.584h-0.128v15.551h-9.727V529.117z M468.792,536.477c0,0.769,0.064,1.473,0.192,2.049
			c0.64,2.623,2.879,4.607,5.695,4.607c4.224,0,6.72-3.52,6.72-8.832c0-4.991-2.24-8.768-6.592-8.768
			c-2.752,0-5.184,2.049-5.823,4.928c-0.128,0.513-0.192,1.152-0.192,1.729V536.477z"/>
		<path style="fill:#FFFFFF;" d="M504.825,537.373c0.319,4.031,4.287,5.951,8.832,5.951c3.326,0,6.016-0.447,8.639-1.279
			l1.279,6.592c-3.199,1.279-7.104,1.92-11.327,1.92c-10.623,0-16.703-6.145-16.703-15.936c0-7.936,4.927-16.703,15.807-16.703
			c10.111,0,13.951,7.871,13.951,15.615c0,1.664-0.191,3.136-0.32,3.84H504.825z M516.279,530.717c0-2.367-1.023-6.335-5.503-6.335
			c-4.096,0-5.76,3.712-6.016,6.335H516.279z"/>
		<path style="fill:#FFFFFF;" d="M531.129,528.926c0-4.607-0.129-7.615-0.256-10.304h8.383l0.32,5.76h0.256
			c1.6-4.544,5.439-6.464,8.447-6.464c0.896,0,1.344,0,2.049,0.129v9.15c-0.705-0.127-1.537-0.256-2.625-0.256
			c-3.584,0-6.016,1.92-6.654,4.928c-0.129,0.641-0.193,1.408-0.193,2.176v15.871h-9.727V528.926z"/>
		<path style="fill:#FFFFFF;" d="M568.695,507.359c3.008-0.512,7.232-0.896,13.184-0.896c6.016,0,10.303,1.152,13.184,3.456
			c2.752,2.176,4.607,5.76,4.607,9.983s-1.408,7.807-3.969,10.239c-3.326,3.136-8.254,4.544-14.014,4.544
			c-1.281,0-2.432-0.064-3.328-0.192v15.423h-9.664V507.359z M578.359,526.941c0.832,0.192,1.855,0.256,3.264,0.256
			c5.184,0,8.383-2.623,8.383-7.039c0-3.968-2.752-6.336-7.615-6.336c-1.984,0-3.328,0.192-4.031,0.385V526.941z"/>
		<path style="fill:#FFFFFF;" d="M605.559,528.926c0-4.607-0.127-7.615-0.256-10.304h8.385l0.32,5.76h0.256
			c1.6-4.544,5.439-6.464,8.447-6.464c0.895,0,1.344,0,2.047,0.129v9.15c-0.703-0.127-1.535-0.256-2.623-0.256
			c-3.584,0-6.016,1.92-6.656,4.928c-0.127,0.641-0.191,1.408-0.191,2.176v15.871h-9.729V528.926z"/>
		<path style="fill:#FFFFFF;" d="M637.367,537.373c0.318,4.031,4.287,5.951,8.83,5.951c3.328,0,6.016-0.447,8.641-1.279l1.279,6.592
			c-3.199,1.279-7.104,1.92-11.328,1.92c-10.623,0-16.701-6.145-16.701-15.936c0-7.936,4.926-16.703,15.807-16.703
			c10.111,0,13.951,7.871,13.951,15.615c0,1.664-0.193,3.136-0.32,3.84H637.367z M648.822,530.717c0-2.367-1.025-6.335-5.504-6.335
			c-4.096,0-5.76,3.712-6.016,6.335H648.822z"/>
		<path style="fill:#FFFFFF;" d="M670.902,518.622l4.223,14.527c0.77,2.624,1.346,5.12,1.793,7.615h0.191
			c0.512-2.56,1.023-4.928,1.729-7.615l4.031-14.527h10.24l-11.648,31.294h-9.727l-11.391-31.294H670.902z"/>
		<path style="fill:#FFFFFF;" d="M707.639,509.919c0,2.688-2.049,4.864-5.248,4.864c-3.072,0-5.119-2.176-5.057-4.864
			c-0.063-2.815,1.984-4.928,5.121-4.928C705.59,504.991,707.574,507.104,707.639,509.919z M697.59,549.916v-31.294h9.729v31.294
			H697.59z"/>
		<path style="fill:#FFFFFF;" d="M722.613,537.373c0.32,4.031,4.287,5.951,8.832,5.951c3.326,0,6.016-0.447,8.639-1.279l1.279,6.592
			c-3.199,1.279-7.104,1.92-11.326,1.92c-10.623,0-16.703-6.145-16.703-15.936c0-7.936,4.928-16.703,15.807-16.703
			c10.111,0,13.951,7.871,13.951,15.615c0,1.664-0.191,3.136-0.32,3.84H722.613z M734.068,530.717c0-2.367-1.023-6.335-5.504-6.335
			c-4.096,0-5.76,3.712-6.016,6.335H734.068z"/>
		<path style="fill:#FFFFFF;" d="M755.637,518.622l2.496,12.8c0.641,3.264,1.281,6.719,1.793,10.303h0.127
			c0.641-3.584,1.537-7.168,2.305-10.239l3.328-12.863h7.678l3.137,12.479c0.832,3.52,1.664,7.039,2.303,10.623h0.129
			c0.447-3.584,1.088-7.104,1.791-10.688l2.689-12.415h9.535l-9.6,31.294h-9.152l-2.943-11.008
			c-0.768-3.071-1.344-5.887-1.984-9.727h-0.127c-0.576,3.904-1.217,6.783-2.049,9.727l-3.135,11.008h-9.152l-9.086-31.294H755.637z
			"/>
	</g>
</g>
<g id="jfx:p05">
	<g>
		<path style="fill:#FFFFFF;" d="M119.676,612.881c1.216,0.127,2.304,0.127,4.224,0c2.944-0.192,5.952-1.024,8.191-2.561
			c2.688-1.855,4.479-4.543,5.248-7.68l-0.192-0.063c-1.856,1.92-4.544,3.008-8.319,3.008c-7.04,0-12.991-4.928-12.991-12.991
			c0-8.127,6.527-14.975,15.679-14.975c10.688,0,15.743,8.191,15.743,17.918c0,8.641-2.752,14.976-7.296,19.135
			c-3.967,3.584-9.407,5.568-15.871,5.824c-1.664,0.128-3.328,0.064-4.416,0V612.881z M125.563,592.018
			c0,3.584,1.92,6.656,5.888,6.656c2.624,0,4.48-1.28,5.375-2.752c0.32-0.576,0.512-1.217,0.512-2.432
			c0-4.416-1.664-8.768-6.08-8.768C127.932,584.723,125.5,587.666,125.563,592.018z"/>
		<path style="fill:#FFFFFF;" d="M150.46,622.479l13.695-46.396h6.464l-13.695,46.396H150.46z"/>
		<path style="fill:#FFFFFF;" d="M176.379,612.881c1.216,0.127,2.304,0.127,4.224,0c2.944-0.192,5.952-1.024,8.191-2.561
			c2.688-1.855,4.479-4.543,5.248-7.68l-0.192-0.063c-1.856,1.92-4.544,3.008-8.319,3.008c-7.04,0-12.991-4.928-12.991-12.991
			c0-8.127,6.527-14.975,15.679-14.975c10.688,0,15.743,8.191,15.743,17.918c0,8.641-2.752,14.976-7.296,19.135
			c-3.967,3.584-9.407,5.568-15.871,5.824c-1.664,0.128-3.328,0.064-4.416,0V612.881z M182.267,592.018
			c0,3.584,1.92,6.656,5.888,6.656c2.624,0,4.48-1.28,5.375-2.752c0.32-0.576,0.512-1.217,0.512-2.432
			c0-4.416-1.664-8.768-6.08-8.768C184.635,584.723,182.203,587.666,182.267,592.018z"/>
		<path style="fill:#FFFFFF;" d="M262.074,576.787h26.366v8h-16.575v9.854h15.487v7.936h-15.487v17.343h-9.792V576.787z"/>
		<path style="fill:#FFFFFF;" d="M305.529,579.923c0,2.688-2.048,4.864-5.248,4.864c-3.071,0-5.119-2.176-5.055-4.864
			c-0.064-2.815,1.984-4.928,5.12-4.928S305.465,577.107,305.529,579.923z M295.481,619.92v-31.294h9.727v31.294H295.481z"/>
		<path style="fill:#FFFFFF;" d="M313.017,598.609c0-3.904-0.128-7.231-0.256-9.983h8.447l0.448,4.288h0.192
			c1.28-1.984,4.48-4.992,9.664-4.992c6.399,0,11.199,4.225,11.199,13.439v18.559h-9.728v-17.343c0-4.032-1.408-6.784-4.928-6.784
			c-2.688,0-4.288,1.856-4.927,3.648c-0.256,0.576-0.384,1.536-0.384,2.432v18.047h-9.727V598.609z"/>
		<path style="fill:#FFFFFF;" d="M368.311,619.92l-0.576-3.136h-0.192c-2.048,2.495-5.248,3.84-8.959,3.84
			c-6.335,0-10.111-4.608-10.111-9.6c0-8.128,7.295-12.03,18.367-11.967v-0.448c0-1.664-0.896-4.031-5.696-4.031
			c-3.2,0-6.591,1.088-8.639,2.367l-1.792-6.271c2.176-1.216,6.463-2.752,12.159-2.752c10.431,0,13.759,6.145,13.759,13.504v10.879
			c0,3.008,0.128,5.887,0.448,7.615H368.311z M367.159,605.137c-5.12-0.063-9.087,1.152-9.087,4.928c0,2.496,1.664,3.712,3.84,3.712
			c2.432,0,4.416-1.601,5.056-3.584c0.128-0.512,0.192-1.088,0.192-1.663V605.137z"/>
		<path style="fill:#FFFFFF;" d="M384.313,574.483h9.727v45.437h-9.727V574.483z"/>
		<path style="fill:#FFFFFF;" d="M415.16,577.363c3.136-0.512,7.808-0.896,12.991-0.896c6.399,0,10.879,0.96,13.951,3.393
			c2.56,2.047,3.968,5.055,3.968,9.023c0,5.503-3.904,9.279-7.615,10.623v0.191c3.008,1.216,4.671,4.096,5.759,8.063
			c1.344,4.864,2.688,10.495,3.52,12.159h-9.983c-0.704-1.216-1.728-4.736-3.008-10.047c-1.152-5.376-3.008-6.848-6.976-6.912
			h-2.943v16.959h-9.664V577.363z M424.823,595.922h3.839c4.864,0,7.744-2.432,7.744-6.208c0-3.968-2.688-5.951-7.167-6.015
			c-2.368,0-3.712,0.191-4.416,0.319V595.922z"/>
		<path style="fill:#FFFFFF;" d="M460.278,607.377c0.32,4.031,4.288,5.951,8.832,5.951c3.328,0,6.016-0.447,8.639-1.279l1.28,6.592
			c-3.2,1.279-7.104,1.92-11.327,1.92c-10.623,0-16.703-6.145-16.703-15.936c0-7.936,4.928-16.703,15.807-16.703
			c10.111,0,13.951,7.871,13.951,15.615c0,1.664-0.192,3.136-0.32,3.84H460.278z M471.733,600.721c0-2.367-1.024-6.335-5.503-6.335
			c-4.096,0-5.76,3.712-6.016,6.335H471.733z"/>
		<path style="fill:#FFFFFF;" d="M486.583,574.483h9.727v45.437h-9.727V574.483z"/>
		<path style="fill:#FFFFFF;" d="M511.67,607.377c0.319,4.031,4.287,5.951,8.832,5.951c3.326,0,6.016-0.447,8.639-1.279l1.279,6.592
			c-3.199,1.279-7.104,1.92-11.326,1.92c-10.624,0-16.703-6.145-16.703-15.936c0-7.936,4.927-16.703,15.806-16.703
			c10.111,0,13.951,7.871,13.951,15.615c0,1.664-0.191,3.136-0.32,3.84H511.67z M523.125,600.721c0-2.367-1.023-6.335-5.504-6.335
			c-4.096,0-5.759,3.712-6.015,6.335H523.125z"/>
		<path style="fill:#FFFFFF;" d="M555.766,619.92l-0.576-3.136h-0.191c-2.049,2.495-5.248,3.84-8.961,3.84
			c-6.334,0-10.111-4.608-10.111-9.6c0-8.128,7.297-12.03,18.367-11.967v-0.448c0-1.664-0.896-4.031-5.695-4.031
			c-3.199,0-6.592,1.088-8.639,2.367l-1.793-6.271c2.176-1.216,6.465-2.752,12.16-2.752c10.432,0,13.758,6.145,13.758,13.504v10.879
			c0,3.008,0.129,5.887,0.449,7.615H555.766z M554.613,605.137c-5.119-0.063-9.088,1.152-9.088,4.928
			c0,2.496,1.664,3.712,3.84,3.712c2.432,0,4.416-1.601,5.057-3.584c0.127-0.512,0.191-1.088,0.191-1.663V605.137z"/>
		<path style="fill:#FFFFFF;" d="M571.703,611.408c1.791,1.088,5.504,2.368,8.383,2.368c2.943,0,4.16-1.024,4.16-2.624
			s-0.961-2.367-4.607-3.584c-6.465-2.176-8.961-5.695-8.896-9.406c0-5.824,4.992-10.24,12.736-10.24c3.646,0,6.91,0.832,8.83,1.792
			l-1.727,6.72c-1.408-0.768-4.096-1.792-6.785-1.792c-2.367,0-3.711,0.96-3.711,2.56c0,1.473,1.217,2.24,5.055,3.584
			c5.953,2.048,8.449,5.056,8.512,9.664c0,5.822-4.607,10.111-13.566,10.111c-4.096,0-7.744-0.896-10.111-2.177L571.703,611.408z"/>
		<path style="fill:#FFFFFF;" d="M607.029,607.377c0.32,4.031,4.287,5.951,8.832,5.951c3.326,0,6.016-0.447,8.639-1.279l1.279,6.592
			c-3.199,1.279-7.104,1.92-11.326,1.92c-10.623,0-16.703-6.145-16.703-15.936c0-7.936,4.928-16.703,15.807-16.703
			c10.111,0,13.951,7.871,13.951,15.615c0,1.664-0.191,3.136-0.32,3.84H607.029z M618.484,600.721c0-2.367-1.023-6.335-5.504-6.335
			c-4.096,0-5.76,3.712-6.016,6.335H618.484z"/>
	</g>
</g>
</svg>
