<?xml version="1.0" encoding="iso-8859-1"?>
<!-- Generator: Adobe Illustrator 16.2.0, SVG Export Plug-In . SVG Version: 6.00 Build 0)  -->
<!DOCTYPE svg PUBLIC "-//W3C//DTD SVG 1.1//EN" "http://www.w3.org/Graphics/SVG/1.1/DTD/svg11.dtd">
<svg version="1.1" xmlns="http://www.w3.org/2000/svg" xmlns:xlink="http://www.w3.org/1999/xlink" x="0px" y="0px" width="1024px"
	 height="768px" viewBox="0 0 1024 768" style="enable-background:new 0 0 1024 768;" xml:space="preserve">
<g id="jfx:p00">
	<image style="overflow:visible;" width="1024" height="768" xlink:href="28159C81.jpg" >
	</image>
</g>
<g id="jfx:p01">
	<g>
		<g>
			<g>
				<path d="M461.098,700.561h7.296v20.449c0,9.217-4.416,12.434-11.521,12.434c-1.68,0-3.888-0.288-5.328-0.769l0.816-5.904
					c1.008,0.336,2.304,0.576,3.744,0.576c3.072,0,4.993-1.392,4.993-6.433V700.561z"/>
				<path d="M487.594,732.915l-0.432-2.353h-0.144c-1.536,1.873-3.936,2.881-6.721,2.881c-4.752,0-7.584-3.457-7.584-7.201
					c0-6.096,5.473-9.024,13.777-8.977v-0.336c0-1.248-0.672-3.024-4.272-3.024c-2.4,0-4.944,0.816-6.48,1.776l-1.344-4.705
					c1.632-0.912,4.849-2.063,9.121-2.063c7.825,0,10.321,4.608,10.321,10.129v8.161c0,2.256,0.096,4.416,0.336,5.712H487.594z
					 M486.729,721.826c-3.84-0.048-6.816,0.863-6.816,3.696c0,1.872,1.248,2.784,2.88,2.784c1.824,0,3.312-1.2,3.792-2.688
					c0.096-0.384,0.144-0.815,0.144-1.248V721.826z"/>
				<path d="M505.017,709.441l3.168,10.896c0.576,1.969,1.008,3.84,1.344,5.713h0.144c0.384-1.92,0.768-3.697,1.296-5.713
					l3.025-10.896h7.68l-8.736,23.474h-7.297l-8.544-23.474H505.017z"/>
				<path d="M538.377,732.915l-0.432-2.353h-0.145c-1.535,1.873-3.936,2.881-6.721,2.881c-4.752,0-7.584-3.457-7.584-7.201
					c0-6.096,5.473-9.024,13.777-8.977v-0.336c0-1.248-0.672-3.024-4.272-3.024c-2.4,0-4.944,0.816-6.48,1.776l-1.345-4.705
					c1.633-0.912,4.85-2.063,9.121-2.063c7.824,0,10.321,4.608,10.321,10.129v8.161c0,2.256,0.096,4.416,0.336,5.712H538.377z
					 M537.514,721.826c-3.841-0.048-6.816,0.863-6.816,3.696c0,1.872,1.248,2.784,2.88,2.784c1.824,0,3.312-1.2,3.792-2.688
					c0.096-0.384,0.145-0.815,0.145-1.248V721.826z"/>
				<path d="M567.609,702.912c0,2.017-1.537,3.648-3.937,3.648c-2.305,0-3.841-1.632-3.792-3.648
					c-0.049-2.111,1.487-3.695,3.84-3.695C566.072,699.217,567.561,700.801,567.609,702.912z M560.072,732.915v-23.474h7.297v23.474
					H560.072z"/>
				<path d="M573.224,716.93c0-2.928-0.097-5.424-0.192-7.488h6.337l0.336,3.216h0.144c0.961-1.488,3.361-3.744,7.249-3.744
					c4.801,0,8.401,3.168,8.401,10.081v13.921h-7.297v-13.009c0-3.024-1.057-5.089-3.696-5.089c-2.017,0-3.216,1.392-3.696,2.736
					c-0.192,0.433-0.288,1.152-0.288,1.824v13.537h-7.297V716.93z"/>
				<path d="M619.208,702.721v6.721h5.232v5.376h-5.232v8.497c0,2.832,0.673,4.128,2.88,4.128c0.912,0,1.633-0.096,2.16-0.192
					l0.049,5.521c-0.961,0.384-2.688,0.623-4.753,0.623c-2.353,0-4.32-0.815-5.472-2.016c-1.345-1.393-2.017-3.648-2.017-6.961
					v-9.601h-3.12v-5.376h3.12v-5.089L619.208,702.721z"/>
				<path d="M628.662,698.832h7.297v13.393h0.096c0.769-1.008,1.729-1.775,2.881-2.399c1.057-0.576,2.448-0.912,3.793-0.912
					c4.656,0,8.208,3.216,8.208,10.272v13.729h-7.296v-12.913c0-3.072-1.057-5.185-3.793-5.185c-1.92,0-3.12,1.248-3.648,2.544
					c-0.191,0.48-0.24,1.104-0.24,1.633v13.921h-7.297V698.832z"/>
				<path d="M662.407,723.506c0.239,3.024,3.216,4.465,6.624,4.465c2.496,0,4.513-0.336,6.48-0.96l0.961,4.944
					c-2.4,0.96-5.329,1.439-8.497,1.439c-7.969,0-12.529-4.607-12.529-11.953c0-5.951,3.696-12.528,11.857-12.528
					c7.585,0,10.465,5.904,10.465,11.713c0,1.248-0.144,2.353-0.24,2.88H662.407z M671,718.514c0-1.775-0.768-4.752-4.129-4.752
					c-3.072,0-4.32,2.783-4.512,4.752H671z"/>
				<path d="M692.07,700.992c1.92-0.384,5.809-0.672,9.457-0.672c4.464,0,7.2,0.432,9.553,1.824c2.256,1.2,3.889,3.408,3.889,6.336
					c0,2.881-1.681,5.568-5.329,6.913v0.097c3.696,1.008,6.433,3.791,6.433,7.968c0,2.929-1.344,5.232-3.36,6.864
					c-2.353,1.873-6.288,2.929-12.722,2.929c-3.6,0-6.288-0.239-7.92-0.479V700.992z M699.318,713.377h2.4
					c3.84,0,5.904-1.584,5.904-3.984c0-2.447-1.871-3.744-5.184-3.744c-1.584,0-2.496,0.096-3.121,0.192V713.377z M699.318,727.73
					c0.721,0.096,1.584,0.096,2.832,0.096c3.313,0,6.241-1.248,6.241-4.656c0-3.264-2.929-4.561-6.577-4.561h-2.496V727.73z"/>
				<path d="M744.008,720.914c0,8.593-6.097,12.529-12.385,12.529c-6.865,0-12.146-4.513-12.146-12.098
					c0-7.584,4.993-12.433,12.529-12.433C739.207,708.913,744.008,713.857,744.008,720.914z M727.014,721.154
					c0,4.032,1.681,7.057,4.801,7.057c2.832,0,4.656-2.832,4.656-7.057c0-3.504-1.344-7.057-4.656-7.057
					C728.311,714.098,727.014,717.697,727.014,721.154z"/>
				<path d="M754.086,709.441l2.305,3.888c0.672,1.2,1.296,2.4,1.92,3.505h0.096c0.624-1.248,1.2-2.449,1.824-3.601l2.064-3.792
					h7.92l-7.729,11.185l7.825,12.289h-8.257l-2.352-4.225c-0.673-1.151-1.248-2.353-1.824-3.552h-0.145
					c-0.576,1.248-1.2,2.4-1.776,3.552l-2.208,4.225h-8.017l7.969-11.953l-7.776-11.521H754.086z"/>
			</g>
		</g>
		<g>
			<g>
				<path d="M799.613,695.145v7.391h2.234v5.844h-2.234v2.922c1.145,1.146,2.234,2.063,3.266,2.75
					c0.457-0.572,0.801-0.973,1.031-1.203h-1.375V695.66h12.375v17.188h-1.719c0.572,0.344,1.031,0.631,1.375,0.859
					c0.457,0.23,0.744,0.402,0.859,0.516c-0.803,1.031-1.547,2.063-2.234,3.094c-1.49-0.916-2.922-1.891-4.297-2.922l1.891-1.547
					h-3.953l2.063,1.203c-1.031,1.719-2.234,3.266-3.609,4.641h2.578l1.547-2.406l6.016,1.891l-0.344,0.516h2.063l-2.75-2.234
					c1.145-1.031,2.234-2.234,3.266-3.609h-1.547V695.66h12.719v17.188h-1.547c1.031,0.803,2.004,1.547,2.922,2.234
					c-0.803,1.031-1.662,2.178-2.578,3.438c-1.605-1.26-3.209-2.691-4.813-4.297l1.375-1.375h-4.297l2.234,1.375
					c-0.918,1.49-2.063,2.98-3.438,4.469h11v4.813h-4.641c-0.688,1.262-1.605,2.637-2.75,4.125l6.531,2.75l-2.578,4.984
					c-2.293-1.146-4.24-2.063-5.844-2.75c-1.375-0.574-2.293-0.918-2.75-1.031c-4.469,1.832-9.453,3.035-14.953,3.609
					c-0.344-1.834-1.09-3.609-2.234-5.328c3.781,0,7.104-0.344,9.969-1.031l-1.547-0.516l-0.516,0.688l-5.328-2.578
					c0.688-0.916,1.375-1.891,2.063-2.922h-3.781v-4.813h3.438l-2.578-2.234l-1.375,2.922c-0.344-0.229-0.746-0.457-1.203-0.688
					v15.984h-6.188v-13.063c-0.688,1.375-1.434,2.75-2.234,4.125c-0.803-2.979-1.777-5.385-2.922-7.219
					c2.291-3.322,3.895-6.703,4.813-10.141h-2.578v-5.844h2.922v-7.391H799.613z M807.348,700.988h2.75v-1.203h-2.75V700.988z
					 M807.348,705.113h2.75v-1.203h-2.75V705.113z M807.348,709.582h2.75v-1.203h-2.75V709.582z M811.473,724.191l4.641,1.375
					c0.801-0.801,1.375-1.488,1.719-2.063h-5.672L811.473,724.191z M820.754,700.988h2.922v-1.203h-2.922V700.988z M820.754,705.113
					h2.922v-1.203h-2.922V705.113z M820.754,709.582h2.922v-1.203h-2.922V709.582z"/>
				<path d="M858.566,694.285v3.094h14.438v5.5h-2.75l2.75,4.125l-5.5,1.719v4.469h6.531v4.813h-6.531v4.125h5.328v5.156h-16.328
					v-5.156h5.156v-4.125h-6.531v-4.813h6.531v-3.438l-5.5,0.688c-0.459-1.832-1.146-3.494-2.063-4.984
					c3.322-0.229,5.729-0.516,7.219-0.859c1.604-0.344,4.066-0.916,7.391-1.719h-26.813c0,10.313-0.287,16.959-0.859,19.938
					c-0.459,2.865-1.834,6.875-4.125,12.031c-1.49-1.949-3.037-3.609-4.641-4.984c1.719-3.551,2.807-6.588,3.266-9.109
					c0.344-2.635,0.516-5.27,0.516-7.906v-15.469h15.297v-3.094H858.566z M853.066,706.488l-3.438,6.531h4.984
					c-0.344,3.553-0.631,6.131-0.859,7.734c-0.115,1.49-0.631,3.209-1.547,5.156c3.551,1.949,7.047,2.922,10.484,2.922h8.078
					c0.801,0,2.176-0.057,4.125-0.172c-0.803,1.605-1.375,3.379-1.719,5.328h-11.859c-2.293,0-4.412-0.287-6.359-0.859
					c-1.949-0.574-3.84-1.49-5.672-2.75c-1.834,1.832-3.896,3.494-6.188,4.984c-1.262-1.834-2.578-3.438-3.953-4.813
					c2.75-1.719,4.754-3.15,6.016-4.297c-1.262-2.063-2.406-4.238-3.438-6.531l3.953-1.719l-3.438-2.063l3.781-7.047h-3.266v-4.813
					h6.188l0.688-0.516L853.066,706.488z M846.879,718.176c0.572,1.49,1.031,2.465,1.375,2.922l0.688-3.438h-1.719L846.879,718.176z
					"/>
				<path d="M922.16,695.66l-1.375,5.5h10.656v5.844h-12.375c-0.918,2.637-1.777,4.813-2.578,6.531h14.609v20.625h-6.703v-1.719
					h-7.047v2.234h-6.188v-11.344c-1.031,1.375-2.121,2.75-3.266,4.125c-1.605-1.719-3.209-3.322-4.813-4.813
					c3.781-4.01,6.816-9.223,9.109-15.641h-3.438v-1.375c-1.262,2.178-2.293,3.84-3.094,4.984c-0.688,1.146-1.146,1.777-1.375,1.891
					c1.031,1.146,2.119,2.293,3.266,3.438l-3.438,5.156l-1.547-1.375v15.125h-6.188v-14.094l-3.094,2.406
					c-0.688-2.291-1.547-4.41-2.578-6.359c2.863-1.604,6.301-4.869,10.313-9.797h-8.766v-5.844h4.125v-5.844h6.188v5.844h2.406
					l0.516-0.344l3.266,3.266v-2.922h5.328c0.572-2.176,1.031-4.297,1.375-6.359L922.16,695.66z M917.348,726.598h7.047v-7.219
					h-7.047V726.598z"/>
				<path d="M975.27,711.129v7.047h-37.984v-7.047H975.27z"/>
			</g>
		</g>
	</g>
	<g>
		<g>
			<path d="M46.089,105.904l-12.8-53.921h13.04l4.08,22.241c1.2,6.4,2.32,13.36,3.2,18.8h0.16c0.88-5.84,2.16-12.32,3.52-18.96
				l4.56-22.081h12.96l4.32,22.721c1.2,6.32,2.08,12.08,2.88,18.081h0.16c0.8-6,2-12.32,3.12-18.721l4.4-22.081h12.4l-13.92,53.921
				h-13.2l-4.56-23.201c-1.04-5.44-1.92-10.48-2.56-16.64h-0.16c-0.96,6.08-1.84,11.2-3.12,16.64l-5.12,23.201H46.089z"/>
			<path d="M108.007,49.103h12.161v22.32h0.16c1.28-1.68,2.88-2.96,4.8-4c1.76-0.96,4.08-1.52,6.32-1.52
				c7.76,0,13.68,5.36,13.68,17.121v22.88h-12.16V84.383c0-5.12-1.76-8.64-6.32-8.64c-3.2,0-5.2,2.08-6.08,4.24
				c-0.32,0.8-0.4,1.84-0.4,2.72v23.201h-12.161V49.103z"/>
			<path d="M177.128,105.904l-0.72-3.92h-0.24c-2.56,3.12-6.56,4.8-11.2,4.8c-7.92,0-12.641-5.76-12.641-12
				c0-10.16,9.121-15.041,22.961-14.96v-0.56c0-2.08-1.12-5.04-7.12-5.04c-4,0-8.24,1.36-10.8,2.96l-2.24-7.84
				c2.72-1.52,8.08-3.44,15.2-3.44c13.041,0,17.201,7.68,17.201,16.88v13.601c0,3.76,0.16,7.36,0.56,9.52H177.128z M175.688,87.423
				c-6.4-0.08-11.36,1.44-11.36,6.16c0,3.12,2.08,4.64,4.8,4.64c3.04,0,5.52-2,6.32-4.48c0.16-0.64,0.24-1.36,0.24-2.08V87.423z"/>
			<path d="M210.728,55.583v11.2h8.72v8.96h-8.72v14.16c0,4.72,1.12,6.88,4.8,6.88c1.52,0,2.72-0.16,3.6-0.32l0.08,9.2
				c-1.6,0.64-4.48,1.04-7.92,1.04c-3.92,0-7.2-1.36-9.12-3.36c-2.24-2.32-3.36-6.08-3.36-11.6v-16h-5.2v-8.96h5.2v-8.48
				L210.728,55.583z"/>
			<path d="M242.567,95.264c2.24,1.36,6.88,2.96,10.48,2.96c3.68,0,5.2-1.28,5.2-3.28c0-2-1.2-2.96-5.76-4.48
				c-8.08-2.72-11.2-7.12-11.12-11.76c0-7.28,6.24-12.8,15.92-12.8c4.56,0,8.64,1.04,11.04,2.24l-2.16,8.4
				c-1.76-0.96-5.12-2.24-8.48-2.24c-2.96,0-4.64,1.2-4.64,3.2c0,1.84,1.52,2.8,6.32,4.48c7.44,2.56,10.56,6.32,10.64,12.08
				c0,7.28-5.76,12.64-16.96,12.64c-5.12,0-9.68-1.12-12.64-2.72L242.567,95.264z"/>
			<path d="M293.926,105.904V51.982h14.24l11.2,19.761c3.2,5.68,6.4,12.4,8.8,18.48h0.24c-0.8-7.12-1.04-14.4-1.04-22.48V51.982
				h11.201v53.921h-12.801l-11.52-20.8c-3.2-5.76-6.72-12.721-9.36-19.041l-0.24,0.08c0.32,7.12,0.48,14.72,0.48,23.521v16.24
				H293.926z"/>
			<path d="M358.084,90.224c0.4,5.04,5.36,7.44,11.041,7.44c4.16,0,7.52-0.56,10.8-1.6l1.6,8.24c-4,1.6-8.88,2.4-14.16,2.4
				c-13.28,0-20.88-7.68-20.88-19.92c0-9.92,6.16-20.88,19.76-20.88c12.641,0,17.44,9.84,17.44,19.521c0,2.08-0.24,3.92-0.4,4.8
				H358.084z M372.405,81.903c0-2.96-1.28-7.92-6.88-7.92c-5.12,0-7.2,4.64-7.521,7.92H372.405z"/>
			<path d="M399.365,66.783l3.12,16c0.8,4.08,1.6,8.4,2.24,12.88h0.16c0.8-4.48,1.92-8.96,2.88-12.8l4.16-16.081h9.6l3.921,15.601
				c1.04,4.4,2.08,8.8,2.88,13.28h0.16c0.56-4.48,1.359-8.88,2.239-13.36l3.36-15.521h11.92l-12,39.121h-11.44l-3.68-13.76
				c-0.96-3.84-1.68-7.36-2.48-12.16h-0.159c-0.721,4.88-1.521,8.48-2.561,12.16l-3.92,13.76h-11.44l-11.36-39.121H399.365z"/>
			<path d="M490.084,105.904l-0.721-3.92h-0.24c-2.56,3.12-6.56,4.8-11.2,4.8c-7.92,0-12.64-5.76-12.64-12
				c0-10.16,9.12-15.041,22.96-14.96v-0.56c0-2.08-1.12-5.04-7.12-5.04c-4,0-8.24,1.36-10.8,2.96l-2.24-7.84
				c2.72-1.52,8.08-3.44,15.2-3.44c13.04,0,17.2,7.68,17.2,16.88v13.601c0,3.76,0.16,7.36,0.561,9.52H490.084z M488.644,87.423
				c-6.4-0.08-11.36,1.44-11.36,6.16c0,3.12,2.08,4.64,4.8,4.64c3.04,0,5.521-2,6.32-4.48c0.16-0.64,0.24-1.36,0.24-2.08V87.423z"/>
			<path d="M509.764,105.904c0.159-2.56,0.319-7.28,0.319-11.68V49.103h12.16v22.32h0.16c2.32-3.36,6.4-5.52,11.841-5.52
				c9.359,0,16.24,7.76,16.16,19.761c0,14.08-8.96,21.12-17.921,21.12c-4.56,0-8.96-1.68-11.76-6.32h-0.16l-0.48,5.44H509.764z
				 M522.243,89.263c0,0.8,0.08,1.521,0.24,2.16c0.8,3.28,3.601,5.76,7.12,5.76c5.2,0,8.4-4,8.4-11.04c0-6.081-2.72-10.88-8.4-10.88
				c-3.28,0-6.32,2.48-7.12,6c-0.16,0.72-0.24,1.44-0.24,2.24V89.263z"/>
			<path d="M596.564,85.903c0,14.32-10.161,20.88-20.641,20.88c-11.44,0-20.241-7.52-20.241-20.16
				c0-12.641,8.32-20.721,20.881-20.721C588.563,65.903,596.564,74.143,596.564,85.903z M568.243,86.303c0,6.72,2.8,11.76,8,11.76
				c4.721,0,7.761-4.72,7.761-11.76c0-5.84-2.24-11.76-7.761-11.76C570.403,74.543,568.243,80.543,568.243,86.303z"/>
			<path d="M640.964,93.344c0,5.12,0.16,9.28,0.32,12.56h-10.561l-0.56-5.52h-0.24c-1.521,2.4-5.2,6.4-12.24,6.4
				c-7.92,0-13.761-4.96-13.761-17.04V66.783h12.24v21.041c0,5.68,1.841,9.121,6.081,9.121c3.359,0,5.279-2.32,6.08-4.24
				c0.319-0.72,0.399-1.68,0.399-2.64V66.783h12.24V93.344z"/>
			<path d="M664.323,55.583v11.2h8.72v8.96h-8.72v14.16c0,4.72,1.12,6.88,4.8,6.88c1.521,0,2.721-0.16,3.601-0.32l0.08,9.2
				c-1.601,0.64-4.48,1.04-7.921,1.04c-3.92,0-7.2-1.36-9.12-3.36c-2.239-2.32-3.359-6.08-3.359-11.6v-16h-5.2v-8.96h5.2v-8.48
				L664.323,55.583z"/>
			<path d="M707.202,51.982h12.16v34.081c0,15.36-7.36,20.72-19.201,20.72c-2.8,0-6.479-0.48-8.88-1.28l1.36-9.84
				c1.68,0.56,3.84,0.96,6.24,0.96c5.12,0,8.32-2.32,8.32-10.72V51.982z"/>
			<path d="M751.362,105.904l-0.721-3.92h-0.24c-2.56,3.12-6.56,4.8-11.2,4.8c-7.92,0-12.64-5.76-12.64-12
				c0-10.16,9.12-15.041,22.96-14.96v-0.56c0-2.08-1.12-5.04-7.12-5.04c-4,0-8.24,1.36-10.8,2.96l-2.24-7.84
				c2.72-1.52,8.08-3.44,15.2-3.44c13.04,0,17.2,7.68,17.2,16.88v13.601c0,3.76,0.16,7.36,0.561,9.52H751.362z M749.922,87.423
				c-6.4-0.08-11.36,1.44-11.36,6.16c0,3.12,2.08,4.64,4.8,4.64c3.04,0,5.521-2,6.32-4.48c0.16-0.64,0.24-1.36,0.24-2.08V87.423z"/>
			<path d="M780.401,66.783l5.28,18.161c0.96,3.28,1.681,6.4,2.24,9.52h0.24c0.64-3.2,1.28-6.16,2.16-9.52l5.04-18.161h12.8
				l-14.56,39.121h-12.161l-14.24-39.121H780.401z"/>
			<path d="M836.002,105.904l-0.721-3.92h-0.24c-2.56,3.12-6.56,4.8-11.2,4.8c-7.92,0-12.64-5.76-12.64-12
				c0-10.16,9.12-15.041,22.96-14.96v-0.56c0-2.08-1.12-5.04-7.12-5.04c-4,0-8.24,1.36-10.8,2.96l-2.24-7.84
				c2.72-1.52,8.08-3.44,15.2-3.44c13.04,0,17.2,7.68,17.2,16.88v13.601c0,3.76,0.16,7.36,0.561,9.52H836.002z M834.562,87.423
				c-6.4-0.08-11.36,1.44-11.36,6.16c0,3.12,2.08,4.64,4.8,4.64c3.04,0,5.521-2,6.32-4.48c0.16-0.64,0.24-1.36,0.24-2.08V87.423z"/>
			<path d="M872.961,93.344c3.28,1.68,8.32,3.36,13.521,3.36c5.601,0,8.561-2.32,8.561-5.84c0-3.36-2.561-5.28-9.04-7.6
				c-8.961-3.12-14.801-8.08-14.801-15.92c0-9.2,7.681-16.24,20.4-16.24c6.08,0,10.561,1.28,13.761,2.72l-2.721,9.84
				c-2.159-1.04-6-2.56-11.28-2.56c-5.279,0-7.84,2.4-7.84,5.2c0,3.44,3.04,4.96,10,7.6c9.521,3.521,14.001,8.48,14.001,16.081
				c0,9.04-6.96,16.72-21.761,16.72c-6.16,0-12.24-1.6-15.28-3.28L872.961,93.344z"/>
			<path d="M947.842,83.104h-19.841v12.8h22.16v10h-34.4V51.982h33.28v10h-21.04v11.2h19.841V83.104z"/>
			<path d="M971.92,92.304c0-6.24,3.6-10.561,9.279-13.041v-0.24c-5.04-2.56-7.52-6.8-7.52-11.36c0-8.8,7.92-14.641,18.32-14.641
				c12.16,0,17.2,7.041,17.2,13.36c0,4.48-2.4,8.88-7.521,11.44v0.24c5.041,1.92,9.521,6.24,9.521,12.96c0,9.44-7.92,15.76-20,15.76
				C978,106.784,971.92,99.344,971.92,92.304z M998.8,91.903c0-4.56-3.359-7.28-8.16-8.56c-4,1.12-6.32,4-6.32,7.76
				c-0.08,3.76,2.801,7.28,7.36,7.28C996,98.384,998.8,95.583,998.8,91.903z M985.12,67.263c0,3.521,3.199,5.76,7.359,7.041
				c2.801-0.8,5.28-3.36,5.28-6.64c0-3.2-1.84-6.4-6.32-6.4C987.279,61.263,985.12,63.983,985.12,67.263z"/>
		</g>
	</g>
	<g>
		<g>
			<path d="M226.23,72.423c2.48-7.84,5.92-15.68,9.6-21.68l7.36-0.64c-2.48,6.8-4.48,14.561-5.6,21.601L226.23,72.423z"/>
		</g>
	</g>
</g>
</svg>
